<?xml version="1.0" encoding="UTF-8"?>
<svg width="71px" height="72px" viewBox="0 0 71 72" version="1.1" xmlns="http://www.w3.org/2000/svg" xmlns:xlink="http://www.w3.org/1999/xlink">
    <!-- Generator: Sketch 59.1 (86144) - https://sketch.com -->
    <title>Group 13</title>
    <desc>Created with Sketch.</desc>
    <g id="✅---Master" stroke="none" stroke-width="1" fill="none" fill-rule="evenodd">
        <g id="CORG---Real-Money---Desktop--1-2" transform="translate(-896.000000, -7148.000000)">
            <g id="GAME-GUIDES-SECTION" transform="translate(164.000000, 6704.000000)">
                <g id="cta---style-4" transform="translate(0.000000, 420.000000)">
                    <g id="Group-9" transform="translate(709.500000, 0.000000)">
                        <g id="Group-13" transform="translate(22.902542, 24.000000)">
                            <polygon id="Fill-1" fill="#BBD5EA" points="16.0699527 0.581051613 -0.00011563696 16.7189226 16.0699527 32.8573742 32.1394429 16.7189226"></polygon>
                            <g id="Group-12" transform="translate(1.734554, 0.528968)">
                                <path d="M66.5588419,57.0997161 C67.8759468,55.7572645 68.6911874,53.9160387 68.6911874,51.8820387 C68.6911874,47.7757161 65.3758758,44.4468774 61.287531,44.4468774 C58.1705368,44.4468774 55.5097303,46.3827484 54.416961,49.1204903 C53.32477,46.3827484 50.6633853,44.4468774 47.5463911,44.4468774 C43.4580463,44.4468774 40.1427347,47.7757161 40.1427347,51.8820387 C40.1427347,53.9160387 40.9579753,55.7572645 42.2750802,57.0997161 L42.2727675,57.0997161 L42.3034113,57.1304903 C42.3091931,57.1362968 42.3143968,57.1421032 42.3207568,57.1479097 L54.416961,69.2961677 L66.5137434,57.1479097 C66.5195253,57.1421032 66.524729,57.1362968 66.531089,57.1304903 L66.5617328,57.0997161 L66.5588419,57.0997161 Z" id="Fill-2" fill="#BBD5EA"></path>
                                <polygon id="Fill-4" fill="#3476D5" points="49.2759731 30.3262258 59.5578334 30.3262258 54.4171923 25.163129"></polygon>
                                <path d="M61.4128237,10.2990774 C61.6724286,9.54017419 61.820444,8.7290129 61.820444,7.88127097 C61.820444,3.77494839 58.5062887,0.446109677 54.4167876,0.446109677 C50.3278647,0.446109677 47.0131312,3.77494839 47.0131312,7.88127097 C47.0131312,8.7290129 47.1617247,9.54017419 47.4219079,10.2990774 C43.3908034,10.3670129 40.1431394,13.6639161 40.1431394,17.7278516 C40.1431394,21.8341742 43.4578729,25.1635935 47.5467958,25.1635935 C50.6632119,25.1635935 53.3245965,23.2271419 54.4167876,20.4899806 C55.5089787,23.2271419 58.1709415,25.1635935 61.2873576,25.1635935 C65.3757023,25.1635935 68.6910139,21.8341742 68.6910139,17.7278516 C68.6910139,13.6639161 65.4433499,10.3670129 61.4128237,10.2990774" id="Fill-6" fill="#3476D5"></path>
                                <polygon id="Fill-8" fill="#3476D5" points="9.19435252 71.4193548 19.4762128 71.4193548 14.3355718 66.2562581"></polygon>
                                <path d="M26.4766431,53.7544452 L26.479534,53.7544452 L26.4488902,53.723671 C26.4431084,53.7178645 26.4373265,53.7114774 26.4315447,53.7062516 L14.3353405,41.5579935 L2.23855809,53.7062516 C2.23277624,53.7114774 2.22757258,53.7178645 2.22121255,53.723671 L2.19056875,53.7544452 L2.19345968,53.7544452 C0.876354702,55.0968968 0.0611141334,56.9381226 0.0611141334,58.9715419 C0.0611141334,63.0784452 3.37584759,66.4072839 7.4647705,66.4072839 C10.5811866,66.4072839 13.2425712,64.4714129 14.3353405,61.733671 C15.4275316,64.4714129 18.0889162,66.4072839 21.2053323,66.4072839 C25.2942552,66.4072839 28.6089887,63.0784452 28.6089887,58.9715419 C28.6089887,56.9381226 27.7943263,55.0968968 26.4766431,53.7544452" id="Fill-10" fill="#3476D5"></path>
                            </g>
                        </g>
                    </g>
                </g>
            </g>
        </g>
    </g>
</svg>