<svg width="30" height="30" xmlns="http://www.w3.org/2000/svg" xmlns:xlink="http://www.w3.org/1999/xlink"><defs><path id="a" d="M0 .078h20.225v20.225H0z"/></defs><g fill="none" fill-rule="evenodd"><path d="M26.208 0H12.414a3.216 3.216 0 00-3.216 3.216V17.01a3.216 3.216 0 003.216 3.216h13.794a3.216 3.216 0 003.215-3.216V3.216A3.216 3.216 0 0026.208 0" fill="#BBD5EA"/><path d="M26.13 5.411a2.117 2.117 0 11-4.234 0 2.117 2.117 0 014.233 0M14.609 7.528a2.116 2.116 0 110-4.233 2.116 2.116 0 010 4.233M14.609 16.931a2.116 2.116 0 110-4.233 2.116 2.116 0 010 4.233M25.51 16.311a2.116 2.116 0 11-2.994-2.993 2.116 2.116 0 012.993 2.993" fill="#FFF"/><g transform="translate(0 9.438)"><mask id="b" fill="#fff"><use xlink:href="#a"/></mask><path d="M17.01.078H3.215A3.216 3.216 0 000 3.294v13.793a3.216 3.216 0 003.216 3.216h13.793a3.216 3.216 0 003.216-3.216V3.294A3.216 3.216 0 0017.01.078" fill="#3476D5" mask="url(#b)"/></g><path d="M16.931 14.927a2.117 2.117 0 11-4.234 0 2.117 2.117 0 014.234 0M12.23 19.629a2.117 2.117 0 11-4.234 0 2.117 2.117 0 014.233 0M3.294 24.33a2.117 2.117 0 114.234 0 2.117 2.117 0 01-4.234 0" fill="#FFF"/></g></svg>