<svg width="30" height="31" xmlns="http://www.w3.org/2000/svg" xmlns:xlink="http://www.w3.org/1999/xlink"><defs><path id="a" d="M0 .169h13.572V13.74H0z"/><path id="c" d="M.202.169h13.572V13.74H.202z"/></defs><g fill="none" fill-rule="evenodd"><path d="M18.96.5H9.704a2.158 2.158 0 00-2.158 2.158v9.256c0 1.192.966 2.158 2.158 2.158h9.256a2.158 2.158 0 002.158-2.158V2.658A2.158 2.158 0 0018.96.5" fill="#BBD5EA"/><path d="M18.907 4.13a1.42 1.42 0 11-2.84.001 1.42 1.42 0 012.84 0M11.177 5.551a1.42 1.42 0 110-2.84 1.42 1.42 0 010 2.84M11.177 11.861a1.42 1.42 0 110-2.84 1.42 1.42 0 010 2.84M18.491 11.445a1.42 1.42 0 11-2.008-2.008 1.42 1.42 0 012.008 2.008" fill="#FFF"/><g transform="translate(0 16.564)"><mask id="b" fill="#fff"><use xlink:href="#a"/></mask><path d="M11.414.169H2.158A2.158 2.158 0 000 2.327v9.255c0 1.192.966 2.158 2.158 2.158h9.256a2.158 2.158 0 002.158-2.158V2.327A2.158 2.158 0 0011.414.169" fill="#3476D5" mask="url(#b)"/></g><path d="M11.361 20.364a1.42 1.42 0 11-2.84 0 1.42 1.42 0 012.84 0M8.206 23.519a1.42 1.42 0 11-2.84 0 1.42 1.42 0 012.84 0M2.21 26.674a1.42 1.42 0 112.841 0 1.42 1.42 0 01-2.84 0" fill="#FFF"/><g transform="translate(16.03 16.564)"><mask id="d" fill="#fff"><use xlink:href="#c"/></mask><path d="M11.616.169H2.36A2.158 2.158 0 00.202 2.327v9.255c0 1.192.967 2.158 2.158 2.158h9.256a2.158 2.158 0 002.158-2.158V2.327A2.158 2.158 0 0011.616.169" fill="#BBD5EA" mask="url(#d)"/></g><path d="M27.594 20.364a1.42 1.42 0 11-2.84 0 1.42 1.42 0 012.84 0M19.864 21.784a1.42 1.42 0 110-2.84 1.42 1.42 0 010 2.84M19.864 28.094a1.42 1.42 0 110-2.84 1.42 1.42 0 010 2.84M27.178 27.678a1.42 1.42 0 11-2.009-2.009 1.42 1.42 0 012.01 2.01M24.023 24.523a1.42 1.42 0 11-2.008-2.009 1.42 1.42 0 012.008 2.01" fill="#FFF"/></g></svg>