<svg width="26" height="30" xmlns="http://www.w3.org/2000/svg" xmlns:xlink="http://www.w3.org/1999/xlink"><defs><path id="a" d="M.06.1h4.28v2.921H.06z"/><path id="c" d="M0 .008h19.86v29.818H0z"/><path id="e" d="M0 29.826h25.096V.008H0z"/></defs><g fill="none" fill-rule="evenodd"><path fill="#BBD5EA" d="M22.619 17.154h1.168v-8.83h-1.168z"/><g transform="translate(0 .167)"><path d="M24.938 7.727a1.735 1.735 0 11-3.47 0 1.735 1.735 0 013.47 0" fill="#3476D5"/><g transform="translate(20.756 16.22)"><mask id="b" fill="#fff"><use xlink:href="#a"/></mask><path d="M3.965 3.021H.06V.101h3.906c.5.909.5 2.01 0 2.92" fill="#DCE9F4" mask="url(#b)"/></g><path d="M21.618 16.33c-.58-1.191-1.847-2.019-3.32-2.019-2.022 0-3.66 1.554-3.66 3.47 0 1.917 1.638 3.471 3.66 3.471 1.473 0 2.74-.828 3.32-2.019V16.33z" fill="#3476D5"/><path fill="#BA1313" d="M18.43 11.421v8.342h-17v-8.342h6.027v.008h4.947v-.008z"/><mask id="d" fill="#fff"><use xlink:href="#c"/></mask><path d="M19.86 9.938c0-5.484-4.445-9.93-9.93-9.93C4.446.008 0 4.454 0 9.938v18.43c0 .805.653 1.458 1.458 1.458h16.945c.805 0 1.458-.653 1.458-1.459V9.94z" fill="#DCE9F4" mask="url(#d)"/><mask id="f" fill="#fff"><use xlink:href="#e"/></mask><path fill="#BBD5EA" mask="url(#f)" d="M1.787 19.213h4.344v-7.235H1.787zM7.758 19.213h4.345v-7.235H7.758zM13.7 19.213h4.439v-7.235H13.7zM7.457 10.261a2.478 2.478 0 012.474-2.475 2.476 2.476 0 012.473 2.473v.002h5.802v-.629c.007-4.565-3.703-8.285-8.269-8.291C5.37 1.334 1.65 5.044 1.644 9.636v.625h5.813z"/><path d="M17.224 21.041H2.637c-.776 0-1.405.629-1.405 1.405v1.05c0 .775.63 1.404 1.405 1.404h14.587c.776 0 1.404-.629 1.404-1.404v-1.05c0-.776-.628-1.405-1.404-1.405" fill="#F4F4F4" mask="url(#f)"/><path fill="#3476D5" mask="url(#f)" d="M3.196 23.943h2.061V21.88H3.196zM8.9 23.943h2.061V21.88H8.9zM14.604 23.943h2.061V21.88h-2.061zM5.278 28.238h9.072v-1.546H5.278z"/></g></g></svg>