<svg xmlns="http://www.w3.org/2000/svg" xmlns:xlink="http://www.w3.org/1999/xlink" id="Layer_1" x="0" y="0" version="1.1" viewBox="0 0 1150.44 340.77" xml:space="preserve"><style>.st1,.st2,.st3{clip-path:url(#SVGID_4_);fill:#22313f}.st2,.st3{fill:#2ba3dd}.st3{fill:#fff}</style><g id="Artwork_2_1_"><defs><path id="SVGID_1_" d="M0 0h1150.44v340.77H0z"/></defs><clipPath id="SVGID_2_"><use overflow="visible" xlink:href="#SVGID_1_"/></clipPath><g clip-path="url(#SVGID_2_)"><defs><path id="SVGID_3_" d="M0 0h1150.44v340.77H0z"/></defs><clipPath id="SVGID_4_"><use overflow="visible" xlink:href="#SVGID_3_"/></clipPath><path d="M388.74 81.37v-1.56c0-47.26 29.42-79.59 69.78-79.59 21.85 0 36.33 7.8 49.04 19.4l-15.6 19.83c-9.14-8.47-19.4-15.16-33.44-15.16-24.52 0-43.03 22.3-43.03 55.51v.89c0 33.88 18.5 55.96 43.03 55.96 14.93 0 24.74-6.91 34.55-16.27l15.16 18.28c-13.6 14.04-29.42 22.07-51.05 22.07-39.9 0-68.44-31.65-68.44-79.36M578.5 1.56h24.97l57.29 156.94h-26.97l-12.93-36.78h-60.64l-12.93 36.78h-26.08L578.5 1.56zm34.33 97.2l-22.29-62.64-22.29 62.64h44.58zM672.85 138l15.61-19.4c11.59 10.48 24.52 18.51 41.02 18.51 14.94 0 24.52-8.25 24.52-19.84v-.23c0-9.81-5.13-16.27-29.87-25.41-29.65-11.15-45.03-22.07-45.03-47.04v-.45c0-25.63 20.51-43.69 49.49-43.69 18.06 0 34.77 5.8 49.04 18.28l-14.71 19.84c-10.7-8.69-22.51-14.71-35-14.71-14.04 0-22.74 7.8-22.74 18.05v.22c0 10.92 5.79 16.72 32.32 26.97 28.98 11.15 42.35 23.18 42.35 45.93v.44c0 27.42-21.4 45.03-50.6 45.03-20.06.01-39.45-6.9-56.4-22.5M806.64 2.45h25.86V158.5h-25.86zM866.74 2.45h24.07l68.66 104.11V2.45h25.2V158.5h-21.85L892.15 51.28V158.5h-25.41zM1012.23 81.82v-2.23c0-46.37 28.53-79.59 69.33-79.59 40.57 0 68.89 32.99 68.89 79.14v2.23c0 46.37-28.54 79.59-69.33 79.59-40.58 0-68.89-33-68.89-79.14m111.46-.45v-1.56c0-33.44-17.84-55.95-42.58-55.95-24.52 0-42.13 22.07-42.13 55.73v1.56c0 33.44 18.06 55.96 42.58 55.96 24.52-.01 42.13-22.08 42.13-55.74M397.1 312.61l7.49-8.85c14.3 13.39 28.14 20.42 46.75 20.42 21.33 0 36.09-13.39 36.09-30.63v-.46c0-14.97-7.26-24.74-38.35-35.63-34.72-12.48-45.62-24.97-45.62-45.61v-.46c0-22.47 19.29-40.17 46.07-40.17 18.16 0 32.45 5.45 46.3 17.25l-7.04 9.08c-12.48-11.12-25.42-15.89-39.71-15.89-20.88 0-34.27 12.93-34.27 28.82v.46c0 15.43 7.49 24.96 39.49 36.08 34.04 12.48 44.25 25.64 44.25 45.39v.45c0 24.06-19.97 41.76-47.43 41.76-20.66 0-37.45-6.81-54.02-22.01M528.78 173.49h95.09v10.44h-83.74v63.09h75.34v10.44h-75.34v64.45H625v10.44h-96.22zM645.18 253.6v-1.13c0-47.89 29.73-81.25 68.76-81.25 21.33 0 35.18 8.17 47.43 19.29l-7.27 8.62c-10.66-10.21-23.15-17.47-40.62-17.47-32 0-56.74 29.28-56.74 70.58v.91c0 41.76 24.74 71.03 56.74 71.03 17.01 0 29.73-6.81 41.75-18.61l7.04 7.94c-12.94 12.25-27.91 21.1-49.25 21.1-38.57.01-67.84-32.44-67.84-81.01M788.61 173.49h52.42c17.7 0 32.22 5.67 41.07 14.52 7.72 7.72 12.26 18.84 12.26 31.09v.46c0 25.65-17.02 40.85-40.62 45.16l45.61 67.62H885.5l-44.02-65.36h-41.53v65.36H788.6V173.49zm49.02 83.29c29.28 0 45.61-14.3 45.61-36.76v-.46c0-22.7-16.11-35.63-42.89-35.63h-40.4v72.85h37.68zM927.64 173.49h95.09v10.44h-83.74v63.09h75.34v10.44h-75.34v64.45h84.87v10.44h-96.22zM1092.38 183.94h-46.3v-10.45h104.17v10.45h-46.52v148.41h-11.35z" class="st1"/><path d="M222.23 306.2a7.73 7.73 0 1015.46 0 7.73 7.73 0 00-15.46 0" class="st2"/><path d="M335.2 57.26a11.11 11.11 0 00-7.03-4.84l-46.34-9.86.55 20.07 14.32 3.05a3.33 3.33 0 11-1.39 6.51l-12.75-2.71 3.49 126.37 21.79-102.41a3.33 3.33 0 016.51 1.39l-27.51 129.31 1.74 62.98a24.51 24.51 0 01-6.76 17.69 24.63 24.63 0 01-17.29 7.73l-32.9.91 39.23 8.35c2.91.61 5.89.06 8.39-1.54a11.07 11.07 0 004.84-7.04l52.67-247.55c.62-2.93.07-5.91-1.56-8.41m-12.44 17.75a7.43 7.43 0 11-14.54-3.1 7.43 7.43 0 0114.54 3.1" class="st3"/><path d="M331 39.13l-50.3-10.7c-2.93-10.86-13.03-18.87-24.52-18.36l-54.66 1.51-8.64-1.84a24.51 24.51 0 00-27.17-7.76l-33.38 11.5-33.73.94a24.7 24.7 0 00-23.2 18.7L16.68 53.36A24.79 24.79 0 001.35 84.82l82.48 239.26a24.8 24.8 0 0031.46 15.34l66.08-22.78 86.66 18.44a24.6 24.6 0 0018.63-3.44 24.61 24.61 0 0010.73-15.61l52.67-247.54a24.55 24.55 0 00-3.45-18.62A24.64 24.64 0 00331 39.13m-51.75 281.11a11.22 11.22 0 01-8.39 1.55l-39.23-8.35 32.9-.91a24.53 24.53 0 0017.29-7.73 24.6 24.6 0 006.76-17.69l-1.74-62.98 27.51-129.31a3.33 3.33 0 00-2.56-3.95 3.3 3.3 0 00-3.94 2.56l-21.79 102.41-3.49-126.37 12.74 2.71a3.32 3.32 0 003.95-2.56 3.33 3.33 0 00-2.56-3.95l-14.32-3.05-.55-20.07 46.34 9.86c2.91.62 5.41 2.34 7.03 4.84a11.1 11.1 0 011.55 8.4L284.09 313.2a11.1 11.1 0 01-4.84 7.04m-182.57-.58L14.2 80.39c-2-5.82 1.1-12.18 6.91-14.18l149.03-51.38a11.17 11.17 0 0114.18 6.91L266.8 261a11.1 11.1 0 01-.52 8.52 11.04 11.04 0 01-6.39 5.66l-149.03 51.38c-5.8 2-12.17-1.08-14.18-6.9M256.86 23.65c6.01 0 10.99 4.8 11.15 10.85l5.65 204.72-17.23-49.99-3.34-121.13c-.05-1.83-1.24-3.43-3.42-3.23a3.32 3.32 0 00-3.23 3.42l2.76 99.96-40.37-117.1 20.43-.56a3.32 3.32 0 003.23-3.42c-.05-1.83-1.26-3.37-3.42-3.23l-22.52.62-6.67-19.34 56.65-1.56c.13-.01.23-.01.33-.01M275 287.49c.08 2.98-1 5.81-3.05 7.98a11.1 11.1 0 01-7.8 3.48l-34.19.94 34.37-11.85a24.5 24.5 0 0010.49-7.17l.18 6.62z" class="st2"/><path d="M317.04 66.2a7.43 7.43 0 10-3.08 14.54 7.43 7.43 0 003.08-14.54" class="st2"/><path d="M199.89 25.22l6.67 19.34 22.52-.62c2.15-.14 3.37 1.4 3.42 3.23a3.32 3.32 0 01-3.23 3.41l-20.43.56 40.37 117.1-2.76-99.96a3.32 3.32 0 013.23-3.42c2.18-.2 3.37 1.4 3.42 3.23l3.35 121.12 17.23 49.99-5.67-204.7a11.18 11.18 0 00-11.15-10.85c-.1 0-.21 0-.31 0l-56.66 1.57zm56.71 21.66a7.43 7.43 0 11-14.85.4 7.43 7.43 0 0114.85-.4M264.32 288.04l-34.37 11.85 34.19-.94a11.1 11.1 0 007.8-3.48 11.1 11.1 0 003.05-7.98l-.18-6.61a24.52 24.52 0 01-10.49 7.16" class="st3"/><path d="M241.76 47.29a7.43 7.43 0 1014.85-.41 7.43 7.43 0 00-14.85.41" class="st2"/><path d="M259.9 275.19a11.13 11.13 0 006.91-14.19L184.33 21.75a11.18 11.18 0 00-14.18-6.91L21.11 66.21c-5.82 2-8.92 8.37-6.91 14.18l82.48 239.27a11.19 11.19 0 0014.19 6.91l149.03-51.38zm-151.3 20.23a7.42 7.42 0 114.85 14.03 7.42 7.42 0 01-4.85-14.03m133.88-46.15a7.42 7.42 0 114.85 14.02 7.42 7.42 0 01-4.85-14.02m-13.47 12.09a3.33 3.33 0 01-2.06 4.23l-96.77 33.36a3.33 3.33 0 01-2.17-6.29l96.77-33.36a3.32 3.32 0 014.23 2.06m-32.9-146.61a3.33 3.33 0 01-4.23-2.06l-18.01-52.25a3.32 3.32 0 116.29-2.17l18.01 52.25a3.33 3.33 0 01-2.06 4.23m-23.56-68.34a7.42 7.42 0 11-4.85-14.03 7.42 7.42 0 014.85 14.03M38.67 92.56a7.42 7.42 0 11-4.85-14.03 7.42 7.42 0 014.85 14.03m15.66-10.32a3.33 3.33 0 01-1.09-6.47l96.77-33.36a3.32 3.32 0 112.17 6.29L55.42 82.06c-.36.12-.73.18-1.09.18m31.08 145.91a3.31 3.31 0 014.23 2.06l18.01 52.25a3.33 3.33 0 11-6.3 2.17l-18.01-52.25a3.34 3.34 0 012.07-4.23" class="st3"/><path d="M152.18 48.7a3.33 3.33 0 00-2.17-6.29L53.25 75.77a3.33 3.33 0 002.17 6.29l96.76-33.36zM175.93 56.21a3.32 3.32 0 00-2.06 4.23l18.01 52.25a3.33 3.33 0 006.29-2.17l-18.01-52.25a3.34 3.34 0 00-4.23-2.06M101.36 284.63a3.32 3.32 0 106.29-2.17l-18.01-52.25a3.33 3.33 0 10-6.29 2.17l18.01 52.25zM33.83 78.52a7.42 7.42 0 104.83 14.03 7.42 7.42 0 00-4.83-14.03M177.15 36.97a7.42 7.42 0 10-14.03 4.83 7.42 7.42 0 0014.03-4.83M128.01 292.66a3.33 3.33 0 102.17 6.29l96.77-33.36a3.34 3.34 0 00-2.17-6.29l-96.77 33.36zM104 304.86a7.42 7.42 0 1014.03-4.83 7.42 7.42 0 00-14.03 4.83M247.32 263.31a7.42 7.42 0 10-4.83-14.03 7.42 7.42 0 004.83 14.03" class="st2"/><path d="M144.79 180.58c-5.41 7.97-12.81 13.88-23.44 17.53-25.56 8.76-50.78-5.25-61.25-35.8l-.34-1c-10.38-30.27 1.37-57.43 27.21-66.29 13.99-4.8 24.98-2.98 35.67 1.66L117 112.8c-7.71-3.42-15.75-5.45-24.74-2.37-15.71 5.38-22.66 23.73-15.37 45l.19.57c7.44 21.7 24.14 31.77 39.84 26.39 9.56-3.28 14.33-9.86 18.56-18.01 0 0 10.95 13.78 9.31 16.2" class="st1"/><path d="M154.33 239.94l2.8-7.18c11.88 5.34 22.11 6.78 33.81 2.76 13.42-4.6 19.81-16.21 16.1-27.05l-.1-.29c-3.23-9.42-9.9-14-31.81-14.14-24.54-.36-34.08-5.87-38.54-18.86l-.1-.29c-4.85-14.13 3.47-29.43 20.32-35.21 11.42-3.92 21.59-3.57 32.85.87l-2.47 7.23c-10.25-4.3-19.42-4.51-28.41-1.43-13.14 4.5-18.77 15.53-15.34 25.52l.1.29c3.33 9.71 10.09 14.09 32.62 14.18 24.11.51 33.37 6.59 37.63 19.01l.1.28c5.19 15.14-3.56 30.58-20.83 36.5-13 4.46-25.03 3.8-38.73-2.19" class="st1"/></g></g></svg>