<svg height="85" viewBox="0 0 109 85" width="109" xmlns="http://www.w3.org/2000/svg"><g fill="none"><path d="m20.234 84.168v-5.543c0-2.125-1.294-3.51-3.511-3.51-1.109 0-2.31.369-3.141 1.57-.647-1.017-1.571-1.57-2.957-1.57-.924 0-1.848.276-2.587 1.293v-1.11h-1.94v8.87h1.94v-4.896c0-1.57.832-2.31 2.125-2.31 1.294 0 1.94.831 1.94 2.31v4.896h1.94v-4.896c0-1.57.924-2.31 2.125-2.31 1.294 0 1.94.831 1.94 2.31v4.896zm28.733-8.87h-3.14v-2.678h-1.941v2.679h-1.756v1.755h1.756v4.066c0 2.032.831 3.233 3.049 3.233.831 0 1.755-.277 2.402-.646l-.554-1.664c-.555.37-1.201.462-1.663.462-.924 0-1.294-.554-1.294-1.478v-3.973h3.141v-1.754zm16.446-.184c-1.109 0-1.848.554-2.31 1.294v-1.11h-1.94v8.87h1.94v-4.988c0-1.478.647-2.31 1.848-2.31.37 0 .832.093 1.201.185l.555-1.847c-.37-.093-.924-.093-1.294-.093zm-24.853.924c-.924-.647-2.218-.924-3.603-.924-2.218 0-3.696 1.109-3.696 2.864 0 1.479 1.109 2.31 3.049 2.587l.924.093c1.016.184 1.57.462 1.57.924 0 .646-.739 1.108-2.032 1.108a5.1 5.1 0 0 1 -2.957-.924l-.924 1.479c1.017.739 2.402 1.108 3.788 1.108 2.587 0 4.066-1.2 4.066-2.864 0-1.57-1.202-2.402-3.05-2.68l-.923-.092c-.832-.092-1.479-.277-1.479-.831 0-.647.647-1.016 1.664-1.016 1.108 0 2.217.462 2.771.739zm51.554-.924c-1.109 0-1.848.554-2.31 1.294v-1.11h-1.94v8.87h1.94v-4.988c0-1.478.647-2.31 1.848-2.31.37 0 .832.093 1.201.185l.555-1.847c-.37-.093-.924-.093-1.294-.093zm-24.76 4.62c0 2.679 1.847 4.62 4.711 4.62 1.294 0 2.218-.278 3.142-1.017l-.924-1.57c-.74.554-1.479.83-2.31.83-1.57 0-2.68-1.108-2.68-2.863 0-1.663 1.11-2.772 2.68-2.864.831 0 1.57.277 2.31.831l.924-1.57c-.924-.74-1.848-1.017-3.142-1.017-2.864 0-4.712 1.94-4.712 4.62zm17.923 0v-4.435h-1.94v1.109c-.647-.832-1.57-1.294-2.772-1.294-2.494 0-4.435 1.94-4.435 4.62 0 2.679 1.94 4.62 4.435 4.62 1.294 0 2.218-.463 2.772-1.294v1.108h1.94zm-7.114 0c0-1.571 1.016-2.864 2.68-2.864 1.57 0 2.679 1.2 2.679 2.864 0 1.57-1.109 2.864-2.68 2.864-1.663-.093-2.679-1.294-2.679-2.864zm-23.19-4.62c-2.587 0-4.435 1.848-4.435 4.62 0 2.771 1.848 4.62 4.527 4.62 1.294 0 2.587-.37 3.603-1.202l-.923-1.386c-.74.555-1.663.924-2.587.924-1.201 0-2.403-.554-2.68-2.125h6.56v-.739c.092-2.864-1.57-4.712-4.065-4.712zm0 1.663c1.2 0 2.032.74 2.217 2.125h-4.62c.185-1.2 1.017-2.125 2.403-2.125zm48.136 2.957v-7.946h-1.94v4.62c-.647-.832-1.571-1.294-2.772-1.294-2.495 0-4.435 1.94-4.435 4.62 0 2.679 1.94 4.62 4.435 4.62 1.293 0 2.217-.463 2.771-1.294v1.108h1.94v-4.434zm-7.114 0c0-1.571 1.016-2.864 2.679-2.864 1.57 0 2.68 1.2 2.68 2.864 0 1.57-1.11 2.864-2.68 2.864-1.663-.093-2.68-1.294-2.68-2.864zm-64.86 0v-4.435h-1.94v1.109c-.646-.832-1.57-1.294-2.771-1.294-2.495 0-4.435 1.94-4.435 4.62 0 2.679 1.94 4.62 4.435 4.62 1.293 0 2.217-.463 2.772-1.294v1.108h1.94v-4.434zm-7.206 0c0-1.571 1.017-2.864 2.68-2.864 1.57 0 2.679 1.2 2.679 2.864 0 1.57-1.109 2.864-2.68 2.864-1.662-.093-2.679-1.294-2.679-2.864z" fill="#000"/><path d="m39.913 7.946h29.103v52.293h-29.103z" fill="#ff5f00"/><path d="m41.76 34.092c0-10.625 4.99-20.049 12.658-26.146-5.635-4.436-12.75-7.114-20.51-7.114-18.386 0-33.261 14.875-33.261 33.26 0 18.386 14.875 33.261 33.26 33.261 7.761 0 14.876-2.68 20.511-7.114-7.668-6.005-12.657-15.522-12.657-26.147z" fill="#eb001b"/><path d="m108.283 34.092c0 18.386-14.875 33.261-33.261 33.261-7.761 0-14.875-2.68-20.511-7.114 7.76-6.098 12.657-15.522 12.657-26.147s-4.989-20.049-12.657-26.146c5.636-4.436 12.749-7.114 20.509-7.114 18.387 0 33.262 14.967 33.262 33.26z" fill="#f79e1b"/></g></svg>