<svg width="120" height="21" viewBox="0 0 120 21" xmlns="http://www.w3.org/2000/svg"><title>icn-neteller</title><path d="M112.203 9.149c-.682.48-1.673.718-3.028.718h-1.344l1.031-5.626h.988c1.125 0 1.947.183 2.513.554.442.292.966.868.966 1.962 0 1.319-.61 2.028-1.126 2.392zm-80.166 7.06h-10.4l.672-3.677h6.524l.74-4.142h-6.46l.625-3.64H34.12l-2.083 11.46zm85.769-14.615C116.276.534 113.963 0 110.929 0h-7.945l-2.954 16.21H89.622l.668-3.677h6.27l.746-4.131-6.267.011.671-3.662h6.457l.86-4.75H85.909l-2.803 15.378h-4.81L81.12 0h-6.857l-2.804 15.378h-4.69L69.596 0h-6.85l-2.962 16.21H49.302l.66-3.678h6.3l.742-4.107-6.29-.006.668-3.669h6.53L58.766 0H17.901l-2.326 12.846L10.94 0H3.828L0 20.964h6.792l2.317-13.2 4.497 13.2h24.345L40.91 4.75h3.81l-2.962 16.213h64.058l1.856-10.235 3.007 10.235h6.796l-3.113-8.363.71-.155c1.567-.34 2.793-1.07 3.643-2.164.852-1.105 1.285-2.523 1.285-4.226 0-1.984-.716-3.443-2.194-4.462z" fill="#8DC640" fill-rule="evenodd"/></svg>