<svg width="120" height="41" viewBox="0 0 120 41" xmlns="http://www.w3.org/2000/svg"><title>icn-skrill</title><path d="M86.196 9.847A4.923 4.923 0 1 0 86.2 0a4.923 4.923 0 0 0-.004 9.847zm-37.722 2.657c-.223.559-1.822 5.077-5.691 9.76V2.241L32.475 4.278v36.296h10.308v-11.22c2.986 4.478 4.46 11.22 4.46 11.22H59.59c-1.222-5.077-6.564-14.44-6.564-14.44 4.795-6.078 6.9-12.556 7.235-13.63H48.474zm27.099-.378c-9.232.296-13.92 4.439-13.92 12.673v15.775h10.074V27.709c0-4.93.645-7.044 6.495-7.245V12.27c-.984-.209-2.65-.144-2.65-.144zM15.187 16.5c-1.263-.082-4.186-.271-4.186-2.903 0-3.175 4.209-3.175 5.787-3.175 2.775 0 6.37.819 8.937 1.587 0 0 1.432.505 2.65 1.022l.114.03V4.367l-.155-.046c-3.03-1.06-6.553-2.08-13.084-2.08C3.99 2.24 0 8.8 0 14.42c0 3.24 1.388 10.864 14.285 11.744 1.093.067 3.994.234 3.994 2.953 0 2.246-2.375 3.57-6.37 3.57-4.378 0-8.626-1.117-11.205-2.176v8.957c3.862 1.012 8.215 1.518 13.317 1.518 11.01 0 15.942-6.207 15.942-12.358 0-6.974-5.518-11.507-14.776-12.127zm66.016 24.073h9.99V12.536h-9.99v28.038zm28.804-36.546v36.546H120V2.241l-9.993 1.787zm-14.58 0l9.982-1.787v38.333h-9.982V4.028z" fill="#862165" fill-rule="evenodd"/></svg>