<svg width="120" height="39" viewBox="0 0 120 39" xmlns="http://www.w3.org/2000/svg"><title>icn-visa</title><g fill="none"><path fill="#00579F" d="M52.722 38.644h-10.01l6.261-37.627h10.01zM87.458 1.593C85.518.836 82.443 0 78.64 0c-9.71 0-16.546 5.094-16.588 12.376-.08 5.373 4.895 8.357 8.616 10.149 3.804 1.83 5.097 3.025 5.097 4.657-.039 2.506-3.074 3.661-5.904 3.661-3.925 0-6.028-.595-9.225-1.99l-1.294-.597-1.376 8.397c2.306 1.034 6.554 1.95 10.965 1.991 10.316 0 17.032-5.015 17.111-12.775.04-4.259-2.588-7.522-8.252-10.188-3.439-1.712-5.545-2.866-5.545-4.617.04-1.592 1.781-3.223 5.663-3.223 3.196-.08 5.544.676 7.323 1.432l.89.398 1.337-8.078zm12.874 23.721c.794-2.161 3.847-10.527 3.847-10.527-.04.08.792-2.202 1.268-3.603l.673 3.242s1.825 9.007 2.221 10.888h-8.009zm11.894-24.297h-7.453c-2.299 0-4.045.68-5.036 3.122L85.424 38.644h10.11L97.557 33h12.371c.277 1.32 1.15 5.644 1.15 5.644H120l-7.774-37.627zm-77.848 0l-9.603 25.685-1.05-5.209C21.95 15.483 16.384 8.952 10.17 5.704l8.796 32.94h10.369L44.746 1.017H34.378z"/><path d="M15.66 1.017H.158L0 1.773C12.092 4.877 20.1 12.36 23.39 21.356L20.02 4.162c-.555-2.39-2.26-3.066-4.36-3.145z" fill="#FAA61A"/></g></svg>