<svg xmlns="http://www.w3.org/2000/svg" xmlns:xlink="http://www.w3.org/1999/xlink" viewBox="0 0 250 130"><defs><style>.cls-1{fill:none;}.cls-2{fill:url(#linear-gradient);}.cls-3{fill:#642a2a;}.cls-4{fill:url(#linear-gradient-2);}.cls-5{fill:url(#linear-gradient-3);}.cls-6{fill:url(#linear-gradient-4);}.cls-7{fill:url(#linear-gradient-5);}.cls-8{fill:url(#linear-gradient-6);}.cls-9{fill:url(#linear-gradient-7);}.cls-10{fill:#f78686;}</style><linearGradient id="linear-gradient" x1="126.08" y1="1036.77" x2="123.93" y2="959.32" gradientTransform="translate(0 -933)" gradientUnits="userSpaceOnUse"><stop offset="0.1" stop-color="#9e4f4f"/><stop offset="0.5" stop-color="#f78686"/><stop offset="0.9" stop-color="#933e3e"/></linearGradient><linearGradient id="linear-gradient-2" x1="28.5" y1="997.91" x2="221.77" y2="997.91" gradientTransform="translate(0 -933)" gradientUnits="userSpaceOnUse"><stop offset="0" stop-color="#3b0e0e"/><stop offset="0.48" stop-color="#350e0e"/><stop offset="1" stop-color="#320b0b"/></linearGradient><linearGradient id="linear-gradient-3" x1="50.79" y1="1016.68" x2="50.79" y2="975.76" gradientTransform="translate(0 -933)" gradientUnits="userSpaceOnUse"><stop offset="0" stop-color="#b55555"/><stop offset="0.7" stop-color="#f78686"/></linearGradient><linearGradient id="linear-gradient-4" x1="84.21" y1="1015.94" x2="84.21" y2="974.57" xlink:href="#linear-gradient-3"/><linearGradient id="linear-gradient-5" x1="129.32" y1="1014.61" x2="129.32" y2="973.77" xlink:href="#linear-gradient-3"/><linearGradient id="linear-gradient-6" x1="183.63" y1="1013" x2="183.63" y2="972.42" xlink:href="#linear-gradient-3"/><linearGradient id="linear-gradient-7" x1="103.22" y1="1015.45" x2="103.22" y2="974.29" xlink:href="#linear-gradient-3"/></defs><title>bl-coolcat</title><g id="Layer_2" data-name="Layer 2"><g id="Layer_2-2" data-name="Layer 2"><rect class="cls-1" width="250" height="130"/><path class="cls-2" d="M124.87,26.4C66.74,26.4,19.67,43.69,19.76,65S67,103.6,125.13,103.6,230.33,86.31,230.24,65,183,26.4,124.87,26.4Zm.27,76.13C69.6,102.53,24.49,85.95,24.4,65.62S69.33,28.72,125,28.72,225.6,45.3,225.69,65.62,180.67,102.53,125.13,102.53Z"/><path class="cls-3" d="M124.87,28.63c55.54,0,100.65,16.58,100.73,36.91S180.67,102.44,125,102.44,24.4,85.86,24.31,65.53,69.33,28.63,124.87,28.63Z"/><path class="cls-4" d="M123.8,30c54.38,0,98,16.94,98,34.86,0,20.06-43.59,35-98,35-55.89,0-95.3-15.51-95.3-35.57S78.15,30,123.8,30Z"/><path class="cls-5" d="M74.14,61.26c-5.79-3.83-15.51,2.85-19.61,9.54-10.88,9.09-17,8.38-20.86,2.67-4.72-7,3-26.21,14.26-29.06,6.78-1.78,9.81-1.16,10.88.8,2.67,4.46.8,10.16-3.57,12.93-4.9,3.12-11.05.53-9.72-4.1,1.78-6.15,7.76-5.08,7-5.88-1.43-1.43-7.13,1.34-9.18,4.37a6.28,6.28,0,0,0,0,7.67c1.6,2.23,9.81,1.43,14.53-2.76C63.89,52,66.12,44,61.57,41.64c-4.19-2.23-20.24,1.07-28.17,10.52-7,8.29-12.3,22.46-2,27.55,8.2,4,16.31-1,21.39-5.53-.89,2.85-.18,5.35,2.85,6.33C65.76,83.9,81.18,65.8,74.14,61.26ZM58.36,79c-2.41-1.87,10-19.17,13.1-17.56C76.19,63.93,62.82,82.56,58.36,79Z"/><path class="cls-6" d="M94.11,61.26c7,4.55-8.47,22.64-18.36,19.26C64.78,76.86,84.66,55,94.11,61.26Zm-2.67.18C88.32,59.83,75.93,77,78.33,79,82.79,82.56,96.16,63.93,91.44,61.43Z"/><path class="cls-7" d="M130.3,76.32a2.4,2.4,0,0,0-1.34-.45,2.82,2.82,0,0,0-3,2.67,2.61,2.61,0,0,0,.62,2,3.13,3.13,0,0,1-.53-4.28L117.29,74s-1.6,6.24,2.5,10l7.58-2.76a2.9,2.9,0,0,0,1.25.36,3.13,3.13,0,0,0,1.78-.45l8.38,2.5a12.12,12.12,0,0,0,.36-11.23Zm21.48-9.45c-3.92,1.78-7.76.62-10.43-.71l.53-2.41a20,20,0,0,0,4.37-.8c5.79-1.6,8-7.22-.18-9.45s-13.37-1.07-13.37-1.07a11.26,11.26,0,0,0-.18-10.25c8.74,3.92,8.56,8.91,8.56,8.91a58.11,58.11,0,0,1,2.14-6.24c.89-1.87,1.78-3.83,2.32-4.64s.36-1.16-.27-1.6A34.94,34.94,0,0,0,129.95,35a28.1,28.1,0,0,0-13.37,3.48c-.71.53-.71.8-.45,1.25s1.78,4.72,1.78,4.72c-3.65-.8-5.44,1.07-5.44,1.07l3.74,3.92-1.43-2.94c8.56-.36,8.91,7,8.91,7a32.35,32.35,0,0,1-7.93.71c-3.57-.27-6.51-3.3-6.78-2.59S111,57,116.4,57.87a52.49,52.49,0,0,0,16-.36c3.92-.71,8.56-.71,8.65,1.07v.27c-1.87-1.87-8.56.53-14.35.89a46.32,46.32,0,0,1-9.63-.45l-.18,1.16a12.18,12.18,0,0,1-8.38,2.67s2.41,2.67,7.31,1.6a11.65,11.65,0,0,1-9,1.78s2.67,2.94,8.29,2.41A15.71,15.71,0,0,1,110,70.26a70.19,70.19,0,0,0,14.62,4.37,30.31,30.31,0,0,0,6.15.8l8-3.83s1.34.36,2.14,2.76c5.26-1.25,7.22-3.21,7.22-3.21a12.42,12.42,0,0,1-6.69-1C150.72,70.17,151.79,66.87,151.79,66.87Zm-33.52-5.62c5.35-1.52,7.13,1.34,7.13,1.34C122.1,65.18,118.27,61.26,118.27,61.26Zm10.25,6.42c-1.34.27-4.37-1.87-4-2.5,0,0,4.1-1.16,7-.27C131.55,64.91,129.86,67.41,128.52,67.67Zm2.59-5.62s1.87-3.12,7.76-1.43C138.86,60.72,134.58,64.91,131.11,62.06Z"/><path class="cls-8" d="M221.23,49.31h-6.51a3.56,3.56,0,0,0-.62,1.52c-.27,1.25-1.25,2.76-5.71,9.72h-4l-.8,1h4.19s-3.3,4.81-6,9.09a5,5,0,0,1-.45.71c-1.34,1.43-2.85,3.21-4.46,5.08-3.74,4.19-6.6,1.07-4.19-2.76,8-12.75,8.11-12.75,8.11-12.75h-6.06l-1.07,1.34c-.71-.36-2-3-8.29-1.43-3,.8-8.38,5-10.79,10.25-10.61,8.74-16.67,8-20.5,2.41-4.72-7,3-26.21,14.26-29.06,6.78-1.78,9.81-1.16,10.88.8,2.67,4.46.8,10.16-3.57,12.93-4.9,3.12-11.05.53-9.72-4.1,1.78-6.15,7.76-5.08,7-5.88-1.43-1.43-7.13,1.34-9.18,4.37a6.28,6.28,0,0,0,0,7.67c1.6,2.23,9.81,1.43,14.53-2.76C184.33,52,186.55,44,182,41.64c-4.19-2.23-20.24,1.07-28.17,10.52a39.34,39.34,0,0,0-3.21,4.37,4.17,4.17,0,0,1,.71,1.25c.53,1.43-.27,4-4,5.53-2.32,6.6-2,13.19,4.46,16.4,8.38,4.1,16.67-1.25,21.66-5.79a12.1,12.1,0,0,0-.27,2.59c0,5.35,8,5.71,12.3-.18a3.09,3.09,0,0,0,2.05,3.74c3.57,1.69,7.4.36,10.16-3.12.71-.89,1.43-1.69,2.14-2.5-2.23,7,4,9.18,12.12.27,2.32-2.59,6.69-6.24,6.06-6.78-.36-.27-3.39,2.23-7,5.88-4.81,4.81-7,2.67-4.19-2.05,2.5-4,4.81-7.58,6.42-10.16H218l.8-.89h-5c4.81-7.4,6.33-8.74,6.6-9.72C221.14,49.31,221.05,49.93,221.23,49.31ZM188.07,71c-1.6,2.5-5.53,8.11-7.67,7.31-4.9-2,7.84-18.36,11.23-16.4C193.69,63.13,189.85,68.21,188.07,71Z"/><path class="cls-9" d="M107.48,49.31a4.12,4.12,0,0,0-.53,1.52c-.36,1.69.89-1.34-12.39,19.7-6.15,9.81,1.07,14.53,10.52,4.19,2.32-2.59,3.3-3.3,2.59-3.74-.36-.27-1,.53-3.48,2.85-4.9,4.72-7,2.67-4.19-2.05,5.17-8.47,8.38-13.28,10.25-16.14-2.05-2.41-1.34-4.1-1.34-4.1l2.5,2.41c2-2.76,1.87-2.23,2.05-2.94a7,7,0,0,1,.71-1.78l-6.69.09Z"/><path class="cls-10" d="M88.67,95a6.21,6.21,0,0,0,2.32-2l-.89-.45a6.27,6.27,0,0,1-1.6,1.52,4.24,4.24,0,0,1-2.14.53,3.71,3.71,0,0,1-2.85-1.25,4.65,4.65,0,0,1-1.07-3.21,7.8,7.8,0,0,1,.27-2.14,3.16,3.16,0,0,1,.8-1.43,3.39,3.39,0,0,1,1.16-.8,2.83,2.83,0,0,1,1.25-.18,3.34,3.34,0,0,1,1,.09,1,1,0,0,1,.71.45,2.76,2.76,0,0,1-.18.71,3.79,3.79,0,0,0-.18,1,.91.91,0,0,0,.45.71,2.31,2.31,0,0,0,1.25.36A1.48,1.48,0,0,0,90,88.53a1.87,1.87,0,0,0,.36-1,2.37,2.37,0,0,0-1.25-2.05A5.59,5.59,0,0,0,86,84.79a8.28,8.28,0,0,0-2.59.45,5.76,5.76,0,0,0-3.21,3,5.29,5.29,0,0,0-.45,2.05,5.17,5.17,0,0,0,1.6,4,6.42,6.42,0,0,0,4.46,1.52A8,8,0,0,0,88.67,95Z"/><path class="cls-10" d="M107.22,94.6h-.89c-.27,0-.53,0-.62-.09a.91.91,0,0,1-.53-.45,1.29,1.29,0,0,1-.18-.62V88.18a3.75,3.75,0,0,0-.36-1.78,2.48,2.48,0,0,0-1.07-1.07,4.39,4.39,0,0,0-1.52-.53,13.18,13.18,0,0,0-2-.09,12.18,12.18,0,0,0-1.69.18,5.3,5.3,0,0,0-1.43.53,13,13,0,0,0-1.16.8,1.43,1.43,0,0,0-.45,1,1.14,1.14,0,0,0,.36.89,1.11,1.11,0,0,0,1,.36,2,2,0,0,0,1.16-.27.91.91,0,0,0,.45-.71,2.75,2.75,0,0,0-.09-.8,1.74,1.74,0,0,1-.09-.62,2.61,2.61,0,0,1,.71-.36A4.52,4.52,0,0,1,100,85.5a2.51,2.51,0,0,1,1.34.27,1.82,1.82,0,0,1,.71.71,2.67,2.67,0,0,1,.36.71,1.57,1.57,0,0,1,.09.53V88.8c-.45.18-1.25.45-2.5.8a23.67,23.67,0,0,0-2.41.71c-.36.09-.62.27-1.07.36a7.84,7.84,0,0,0-.89.53,2,2,0,0,0-.62.89,2.26,2.26,0,0,0-.18,1.07,2.21,2.21,0,0,0,1,1.87,4.06,4.06,0,0,0,2.41.71,6.81,6.81,0,0,0,2.41-.45,7.13,7.13,0,0,0,1.87-1.16h.09a1.57,1.57,0,0,0,.8,1.16,3.19,3.19,0,0,0,1.69.36,4.34,4.34,0,0,0,1.07-.09l1.07-.27V94.6Zm-4.72-1.25a4.47,4.47,0,0,1-1.25.89,3.39,3.39,0,0,1-1.69.36A2.76,2.76,0,0,1,98,94.15a1.56,1.56,0,0,1-.53-1.34,1.64,1.64,0,0,1,.36-1.16,3.57,3.57,0,0,1,1.07-.89,6.69,6.69,0,0,1,1.6-.62c.53-.18,1.25-.36,2-.53Z"/><path class="cls-10" d="M118.63,89.69c-.53-.18-1.07-.36-1.69-.53s-1.07-.27-1.52-.45a5.88,5.88,0,0,1-1-.36,3.88,3.88,0,0,1-.62-.53c-.18-.18-.18-.45-.18-.8a1.16,1.16,0,0,1,.62-1.07A3.17,3.17,0,0,1,116,85.5a3.7,3.7,0,0,1,2.23.71,3.5,3.5,0,0,1,1.25,1.87h.89l-.18-3.39h-1l-.27.53a4.83,4.83,0,0,0-1.34-.36,9.82,9.82,0,0,0-1.6-.18,5.08,5.08,0,0,0-3.21.89,2.63,2.63,0,0,0-1.16,2.14,2,2,0,0,0,.36,1.25,3.18,3.18,0,0,0,1,.89,4.66,4.66,0,0,0,1.34.62c.53.18,1,.27,1.43.45s1,.27,1.43.36a3,3,0,0,1,1.07.45,1.93,1.93,0,0,1,.62.53c.18.18.18.45.18.8a1.69,1.69,0,0,1-.71,1.34,4,4,0,0,1-2,.45,3.05,3.05,0,0,1-1.6-.36,3.74,3.74,0,0,1-1.25-.8,2.79,2.79,0,0,1-.8-1,3.07,3.07,0,0,1-.45-1h-.89l.09,3.65h1l.27-.71a10,10,0,0,0,1.34.62,7.66,7.66,0,0,0,2.14.36,6.43,6.43,0,0,0,3.57-.89,2.89,2.89,0,0,0,1.07-3.65,2.53,2.53,0,0,0-.8-.89Z"/><path class="cls-10" d="M132.09,94.77a1.32,1.32,0,0,1-.62-.09,1.27,1.27,0,0,1-.53-.18.82.82,0,0,1-.53-.36,1.29,1.29,0,0,1-.18-.62V85l-.18-.18-4.64.27v.71c.27,0,.53.09.89.09A4,4,0,0,1,127,86a.91.91,0,0,1,.53.45,1.29,1.29,0,0,1,.18.62v6.51a1.29,1.29,0,0,1-.18.62.82.82,0,0,1-.53.36c-.18,0-.36.09-.53.09h-.62v.71h6.33v-.62Z"/><path class="cls-10" d="M150.9,94.77a1.32,1.32,0,0,1-.62-.09,1.27,1.27,0,0,1-.53-.18.82.82,0,0,1-.53-.36,1.29,1.29,0,0,1-.18-.62V88.09a3.3,3.3,0,0,0-.89-2.5,3.72,3.72,0,0,0-2.76-1,7.85,7.85,0,0,0-1.52.18,4.48,4.48,0,0,0-1.16.45,5.41,5.41,0,0,0-.89.62,8.63,8.63,0,0,0-.8.62h-.09V85l-.18-.18-4.37.27v.71a1.74,1.74,0,0,1,.71.09,1.29,1.29,0,0,1,.62.18.8.8,0,0,1,.53.53,1.65,1.65,0,0,1,.18.62V93.7a1.29,1.29,0,0,1-.18.62.82.82,0,0,1-.53.36c-.18,0-.36.09-.53.09h-.62v.71H143v-.71a2,2,0,0,1-.71-.09,1.65,1.65,0,0,1-.62-.18.82.82,0,0,1-.53-.36,1.29,1.29,0,0,1-.18-.62V87.46c.09-.09.18-.27.36-.45a4.94,4.94,0,0,1,.71-.53,3,3,0,0,1,1.07-.45,5.4,5.4,0,0,1,1.34-.18,2.15,2.15,0,0,1,1.6.62,2.22,2.22,0,0,1,.62,1.69v5.44a1.29,1.29,0,0,1-.18.62.82.82,0,0,1-.53.36c-.18,0-.36.09-.62.09h-.71v.71H151l-.09-.62Z"/><path class="cls-10" d="M166.23,86.13a6.82,6.82,0,0,0-4.55-1.52,6.9,6.9,0,0,0-4.72,1.6,5.27,5.27,0,0,0-1.78,4,4.94,4.94,0,0,0,.53,2.32A6.68,6.68,0,0,0,157,94.33a5.64,5.64,0,0,0,2.05,1.07,6.83,6.83,0,0,0,2.41.36,8.4,8.4,0,0,0,2.67-.45,6.43,6.43,0,0,0,2.14-1.25,5,5,0,0,0,1.25-1.78,6.13,6.13,0,0,0,.45-2.14A4.63,4.63,0,0,0,166.23,86.13Zm-1.87,7.58A3,3,0,0,1,161.68,95,3.19,3.19,0,0,1,160,94.6a4.36,4.36,0,0,1-1.16-1.07,4.54,4.54,0,0,1-.62-1.52,6.37,6.37,0,0,1-.18-1.87,9.82,9.82,0,0,1,.18-1.6,4.54,4.54,0,0,1,.62-1.52A3.34,3.34,0,0,1,160,85.95a3.51,3.51,0,0,1,1.78-.45,3.39,3.39,0,0,1,1.69.36,4.36,4.36,0,0,1,1.16,1.07,6,6,0,0,1,.62,1.52,5.77,5.77,0,0,1,.18,1.69A6.76,6.76,0,0,1,164.36,93.7Z"/></g></g></svg>