<svg xmlns="http://www.w3.org/2000/svg" xmlns:xlink="http://www.w3.org/1999/xlink" viewBox="0 0 250 130"><defs><style>.cls-1{fill:none;}.cls-2{fill:url(#linear-gradient);}.cls-3{fill:#761105;}.cls-4{fill:url(#linear-gradient-2);}.cls-5{fill:url(#linear-gradient-3);}.cls-6{fill:url(#linear-gradient-4);}</style><linearGradient id="linear-gradient" x1="106.64" y1="44.28" x2="106.64" y2="89.68" gradientUnits="userSpaceOnUse"><stop offset="0.18" stop-color="#f07d7d"/><stop offset="0.41" stop-color="#cc8585"/><stop offset="0.74" stop-color="#ba2424"/></linearGradient><linearGradient id="linear-gradient-2" x1="199.7" y1="59.07" x2="199.7" y2="80.02" gradientUnits="userSpaceOnUse"><stop offset="0" stop-color="#f07d7d"/><stop offset="0.41" stop-color="#cc8585"/><stop offset="1" stop-color="#ba2424"/></linearGradient><linearGradient id="linear-gradient-3" x1="211.59" y1="62.28" x2="206.39" y2="41.97" gradientUnits="userSpaceOnUse"><stop offset="0" stop-color="#ffd1d1"/><stop offset="1" stop-color="#d64949"/></linearGradient><linearGradient id="linear-gradient-4" x1="200.04" y1="50.73" x2="200.04" y2="83.48" xlink:href="#linear-gradient-2"/></defs><title>bl-grandprive</title><g id="Layer_2" data-name="Layer 2"><g id="Layer_2-2" data-name="Layer 2"><rect class="cls-1" width="250" height="130"/><path class="cls-2" d="M34.31,64.5c0,7,0,11.89.9,14.19.48,1.26,1.56,2.36,2.47,2.36a2.89,2.89,0,0,0,3.11-2.65V69.14c0-1.14-.05-2.13-2-2.13H38.4v-.93h9.5V67h-.31c-2,0-2,1.09-2,2.13V81.67h-.93c0-.62-1.09-1.09-1.76-1.09a5.46,5.46,0,0,0-2.34.83,5.9,5.9,0,0,1-2.86.83c-3.06,0-5.42-1.68-6.9-5.59-1.78-4.73-1.86-8.1-1.86-12.93s.69-9.84,2.57-13.53,3.89-4.24,7-4.24c1,0,2.75.78,3.43.78s1.14-.26,1.3-.73h.88v8.41h-.88Q41.85,47.1,38.5,47.1C34.82,47.1,34.31,53,34.31,64.5ZM72.9,62.33c.05-1.92-.21-3.69-2.6-3.89a2.24,2.24,0,0,0-2.54,2.23c0,.47.36,1.19.36,1.66a1.91,1.91,0,0,1-2,2,2.27,2.27,0,0,1-2.34-2.23,3.82,3.82,0,0,1,2.18-3.27,10.08,10.08,0,0,1,5.24-1.3c3.74,0,6.07,1.92,6.07,5.92V79.26q0,1.56,1.71,1.56v.88H72.9V80.3A5.12,5.12,0,0,1,68.7,82c-3.32,0-4.57-2.61-4.57-5.94a6.77,6.77,0,0,1,2.26-4.68c1.38-1.1,2.71-1.82,3-2.07.95-.73,2.9-1.81,3.49-2.79Zm0,5.4c-.36.47-1.81,1.75-2.51,2.72a11.93,11.93,0,0,0-1.6,5.28c0,2.49-.56,4.72,1.88,4.72a2.46,2.46,0,0,0,2.23-1.71Zm8.37-9.84h6.54v1.76a5.3,5.3,0,0,1,4.62-2.13c3.53,0,6.07,2,6.07,6V79.23c0,1,.42,1.56,1.3,1.56h.57v.88H92.13v-.88h.57c.78,0,1.45-.1,1.45-1.56V63.09c0-2.34-1.14-4-3.27-4a3.16,3.16,0,0,0-3.06,3.17v17c0,1,.47,1.56,1.35,1.56h.52v.88H81.43v-.88H82c.78,0,1.45-.1,1.45-1.56v-19c0-1.3-.52-1.51-1.51-1.51h-.67Zm32.18,21.75a4.17,4.17,0,0,1-4,2.28,6.56,6.56,0,0,1-5.81-3.48c-1.4-2.34-1.17-5.14-1.17-8.41s-.18-6.23,1.43-8.72,3.63-3.79,6.07-3.79a3.71,3.71,0,0,1,3.48,1.87V48.86c0-1.3-.52-1.51-1.51-1.51h-.67v-.83h6.54V79.23q0,1.56,1.4,1.56h.52v.88h-6.28Zm-6.36-7.11c0,5.75,1.09,8.31,3.07,8.31s3.29-2.08,3.29-6.28V62.46c-.47-2.6-1.19-3.89-2.8-3.89-3.54,0-3.56,3.84-3.56,11.89Zm30.45-10.23a10.06,10.06,0,0,1-7.06,2.75,8,8,0,0,1-1.61-.16V78c0,1.82.67,2.75,2,2.75h.62v.88h-10v-.88H122c2-.16,2.13-1.4,2.08-2.75V49.9c.05-1.25-.1-2.34-2.08-2.54h-.52v-.83h10.33c5,0,7.85,3.22,7.85,8.62C139.63,58.05,139.57,60.44,137.55,62.31Zm-8.67-14.69v16a8.36,8.36,0,0,0,1.35.1c4.74,0,4-4.5,4-8.46,0-5.14-.31-7.68-3.79-7.68ZM149,79.23c0,1,.47,1.56,1.35,1.56h.52v.88h-8.25v-.88h.57c.78,0,1.45-.1,1.45-1.56v-19c0-1.3-.52-1.51-1.51-1.51h-.67V57.9H149v3.58c1.09-2.65,1.89-3.95,4.12-3.95a2.33,2.33,0,0,1,2.44,2.23c0,1.19-.46,3.06-2.39,2.93a2.07,2.07,0,0,1-1.71-.73c-1.12-1.12.66-3,.41-3C150,59,149,62.72,149,67.71Zm-92.75,0c0,1,.47,1.56,1.35,1.56h.52v.88H49.83v-.88h.57c.78,0,1.45-.1,1.45-1.56v-19c0-1.3-.52-1.51-1.51-1.51h-.67V57.9h6.54v3.58c1.09-2.65,1.89-3.95,4.12-3.95a2.33,2.33,0,0,1,2.44,2.23c0,1.19-.46,3.06-2.39,2.93A2.07,2.07,0,0,1,58.67,62c-1.12-1.12.66-3,.41-3-1.82.05-2.86,3.8-2.86,8.79ZM157.43,57.9H164V79.23c0,1,.47,1.56,1.35,1.56h.52v.88h-8.25v-.88h.57c.78,0,1.45-.1,1.45-1.56v-19c0-1.3-.52-1.51-1.51-1.51h-.67Zm3.95-12a2.94,2.94,0,1,1-2.8,2.8A2.9,2.9,0,0,1,161.37,45.85ZM180.16,60c.26-.88-.42-1.3-1.51-1.3h-.52V57.9h6.23v.83h-.26a2.79,2.79,0,0,0-2.65,2.18l-6.28,20.77h-1l-6.39-21.75c-.36-1-1-1.19-2.49-1.19V57.9h9.08v.83h-.42c-1.19,0-1.71.26-1.51,1.14L176,74.3Z"/><circle class="cls-3" cx="200.04" cy="69.78" r="16.3"/><path class="cls-4" d="M200,78.53a8.75,8.75,0,1,1,7.12-13.81L194.81,70.1l1,2.31,13.56-5.89,1.26-.55a11.27,11.27,0,1,0-.47,8.75h-2.89A8.75,8.75,0,0,1,200,78.53Z"/><path class="cls-5" d="M197.79,53.64a16.28,16.28,0,0,1,16.26,7.81h0l7-7.36-7.87,1.78,1.39-3.15-3.8.91,1.15-9.31-7.45,7.14-1-4.41-1.78,3.46-3.25-6.61s-.68,9.73-.62,9.73Z"/><path class="cls-6" d="M212.8,62.78a14.55,14.55,0,1,1-15.12-7.35l.11-1.79a16.3,16.3,0,1,0,16.27,7.82Z"/></g></g></svg>