<svg xmlns="http://www.w3.org/2000/svg" viewBox="0 0 250 130"><defs><style>.cls-1{fill:none;}.cls-2{fill:#ff9e9e;}.cls-3{fill:#a63a3a;}</style></defs><title>bl-planet</title><g id="Layer_2" data-name="Layer 2"><g id="Layer_2-2" data-name="Layer 2"><rect class="cls-1" width="250" height="130"/><path class="cls-2" d="M8.54,56.08a9.16,9.16,0,0,1,2.73.36,5.24,5.24,0,0,1,1.92,1,4.16,4.16,0,0,1,1.14,1.62,5.69,5.69,0,0,1,.38,2.11,5.37,5.37,0,0,1-.4,2.11A4.54,4.54,0,0,1,13.12,65,5.49,5.49,0,0,1,11.19,66a8.29,8.29,0,0,1-2.65.39H5.89v6.18H3.66V56.08Zm0,8.57a5.15,5.15,0,0,0,1.69-.25,3.52,3.52,0,0,0,1.23-.71,2.92,2.92,0,0,0,.76-1.09,3.73,3.73,0,0,0,.25-1.4,3.17,3.17,0,0,0-1-2.47,4.28,4.28,0,0,0-3-.89H5.89v6.81H8.54ZM28.6,70.73v1.88H19.22V56.08h2.23V70.73Zm18.87,1.88H45.74a.74.74,0,0,1-.48-.15.92.92,0,0,1-.28-.38l-1.55-4H36l-1.55,4a.81.81,0,0,1-.27.37.74.74,0,0,1-.48.16H32L38.6,56.08h2.26Zm-4.66-6.14-2.6-6.73q-.12-.3-.24-.7t-.24-.85a12.61,12.61,0,0,1-.5,1.56l-2.6,6.71Zm22.26-10.4V72.61H63.95a1,1,0,0,1-.44-.09,1.12,1.12,0,0,1-.35-.31L53.59,59.75q0,.29,0,.57t0,.52V72.61h-2V56.08h1.15l.25,0a.65.65,0,0,1,.18.06.71.71,0,0,1,.16.12l.17.19,9.56,12.45q0-.3,0-.58c0-.19,0-.37,0-.54V56.08h2ZM81.41,70.79v1.82H71.21V56.08H81.39V57.9H73.44v5.49h6.44v1.75H73.44v5.64h8ZM98.17,58H92.82V72.61H90.59V58H85.23V56.08H98.17V58ZM164.24,69.2a.43.43,0,0,1,.32.15l.89,1A7.08,7.08,0,0,1,163,72.14a8.43,8.43,0,0,1-3.5.66,8.18,8.18,0,0,1-3.23-.62,7.1,7.1,0,0,1-2.48-1.73,7.83,7.83,0,0,1-1.59-2.67,10,10,0,0,1-.57-3.43,9.63,9.63,0,0,1,.59-3.43,7.84,7.84,0,0,1,1.66-2.68,7.41,7.41,0,0,1,2.56-1.74,8.51,8.51,0,0,1,3.29-.62,8,8,0,0,1,3.12.57A7.85,7.85,0,0,1,165.2,58l-.74,1a.61.61,0,0,1-.18.19.51.51,0,0,1-.29.07.91.91,0,0,1-.51-.22,7.7,7.7,0,0,0-.78-.5,5.84,5.84,0,0,0-3-.73,6,6,0,0,0-2.34.44,5.11,5.11,0,0,0-1.83,1.29,5.93,5.93,0,0,0-1.19,2.05,8.2,8.2,0,0,0-.43,2.73,8,8,0,0,0,.44,2.76,6.08,6.08,0,0,0,1.21,2,5.12,5.12,0,0,0,1.81,1.28,5.76,5.76,0,0,0,2.26.44,9.3,9.3,0,0,0,1.33-.09,5.42,5.42,0,0,0,1.1-.27A4.62,4.62,0,0,0,163,70a6.66,6.66,0,0,0,.86-.68.6.6,0,0,1,.39-.17ZM184,72.61h-1.73a.74.74,0,0,1-.48-.15.92.92,0,0,1-.28-.38l-1.55-4h-7.42l-1.55,4a.81.81,0,0,1-.27.37.74.74,0,0,1-.48.16h-1.73l6.61-16.53h2.26Zm-4.66-6.14-2.6-6.73q-.12-.3-.24-.7t-.24-.85a12.61,12.61,0,0,1-.5,1.56l-2.6,6.71h6.17ZM197,58.66a.85.85,0,0,1-.23.26.49.49,0,0,1-.29.09.82.82,0,0,1-.46-.2q-.27-.2-.66-.43a5.37,5.37,0,0,0-1-.43,4.12,4.12,0,0,0-1.36-.2,4,4,0,0,0-1.32.2,2.83,2.83,0,0,0-1,.55,2.25,2.25,0,0,0-.58.81,2.58,2.58,0,0,0-.2,1,1.87,1.87,0,0,0,.34,1.15,2.92,2.92,0,0,0,.9.78,6.89,6.89,0,0,0,1.27.56l1.45.49q.74.25,1.45.57a5.13,5.13,0,0,1,1.27.8,3.66,3.66,0,0,1,.9,1.19,4,4,0,0,1,.34,1.73,5.59,5.59,0,0,1-.37,2,4.7,4.7,0,0,1-1.08,1.66,5.06,5.06,0,0,1-1.74,1.11,6.41,6.41,0,0,1-2.35.4,7.16,7.16,0,0,1-2.93-.58,6.87,6.87,0,0,1-2.25-1.58l.65-1.06a.84.84,0,0,1,.23-.21.53.53,0,0,1,.29-.09.65.65,0,0,1,.34.12l.43.31.55.4a4.6,4.6,0,0,0,.71.4,4.8,4.8,0,0,0,.91.31,4.93,4.93,0,0,0,1.14.12,4.25,4.25,0,0,0,1.42-.22A3,3,0,0,0,195,70.1a2.68,2.68,0,0,0,.66-1,3.19,3.19,0,0,0,.23-1.23,2.07,2.07,0,0,0-.34-1.23,2.82,2.82,0,0,0-.89-.8,6.2,6.2,0,0,0-1.27-.55l-1.45-.46a15.41,15.41,0,0,1-1.45-.55,4.69,4.69,0,0,1-1.27-.81,3.7,3.7,0,0,1-.89-1.24,4.76,4.76,0,0,1,0-3.54,4.33,4.33,0,0,1,1-1.45,4.84,4.84,0,0,1,1.6-1,5.85,5.85,0,0,1,2.19-.38,7,7,0,0,1,2.52.44,6,6,0,0,1,2,1.27Zm8.27,13.95h-2.24V56.08h2.24V72.61Zm19.52-16.53V72.61h-1.12a1,1,0,0,1-.44-.09,1.12,1.12,0,0,1-.35-.31l-9.56-12.46q0,.29,0,.57t0,.52V72.61h-2V56.08h1.15l.25,0a.65.65,0,0,1,.18.06.71.71,0,0,1,.16.12l.17.19,9.56,12.45q0-.3,0-.58c0-.19,0-.37,0-.54V56.08h2Zm21.51,8.27a9.55,9.55,0,0,1-.59,3.41,7.82,7.82,0,0,1-1.66,2.67,7.43,7.43,0,0,1-2.58,1.74,9.27,9.27,0,0,1-6.65,0,7.44,7.44,0,0,1-2.57-1.74,7.81,7.81,0,0,1-1.66-2.67,10.17,10.17,0,0,1,0-6.82,7.87,7.87,0,0,1,1.66-2.68,7.47,7.47,0,0,1,2.57-1.75,9.19,9.19,0,0,1,6.65,0,7.46,7.46,0,0,1,2.58,1.75,7.88,7.88,0,0,1,1.66,2.68,9.55,9.55,0,0,1,.59,3.41Zm-2.3,0a8.41,8.41,0,0,0-.41-2.73,5.79,5.79,0,0,0-1.18-2,5.1,5.1,0,0,0-1.85-1.29,6.72,6.72,0,0,0-4.83,0,5.16,5.16,0,0,0-1.85,1.29,5.74,5.74,0,0,0-1.18,2,9.19,9.19,0,0,0,0,5.46,5.74,5.74,0,0,0,1.18,2,5.09,5.09,0,0,0,1.85,1.28,6.79,6.79,0,0,0,4.83,0,5,5,0,0,0,1.85-1.28,5.8,5.8,0,0,0,1.18-2,8.36,8.36,0,0,0,.41-2.73Z"/><path class="cls-3" d="M136.61,47.74H113.24A20.85,20.85,0,0,1,136.61,47.74Zm-6.83,24.18-5.65,12a5.56,5.56,0,0,1-1.48,1.83,21.06,21.06,0,0,0,2.28.13A20.83,20.83,0,0,0,145.37,61,103.14,103.14,0,0,1,129.79,71.91ZM115.33,83.5l2.78-5.57c-2.46,1.09-4.78,2-6.92,2.73A20.9,20.9,0,0,0,115.33,83.5ZM151.2,49.16c-1-1.71-4.75-1.6-10.06,0,3.59-.88,6.07-.82,6.77.39s-.78,3.89-4,7a20.91,20.91,0,0,0-5.3-7.17V51.2a7.41,7.41,0,0,1-.35,2.49,15.66,15.66,0,0,1-.67,1.59l-4.54,9.62c-1.89,1.24-3.9,2.49-6,3.71s-4,2.23-5.92,3.21l6.5-13q.61-1.12,1.24-2A14.51,14.51,0,0,1,130.3,55h-17.1a1.73,1.73,0,0,1-.71-.15,1.9,1.9,0,0,1-.59-.4,2.1,2.1,0,0,1-.41-.59,1.55,1.55,0,0,1-.16-.68v-4a20.81,20.81,0,0,0-3.3,28c-4.22,1.19-7.15,1.26-7.93-.08s.49-3.39,3-6.06c-4,3.82-6,7-5,8.73,2,3.48,15.51-.56,30.15-9s24.89-18.13,22.88-21.61Z"/></g></g></svg>