<svg width="19" height="20" fill="none" xmlns="http://www.w3.org/2000/svg"><path d="M3.2 7.707v5.172c0 .687-.567 1.237-1.29 1.237-.716 0-1.41-.554-1.41-1.237V7.707c0-.674.694-1.228 1.41-1.228.709 0 1.29.554 1.29 1.228zm.506 7.012c0 .732.619 1.321 1.388 1.321h.933l.014 2.73c0 1.647 2.587 1.634 2.587 0v-2.73h1.744v2.73c0 1.638 2.601 1.643 2.601 0v-2.73h.947c.76 0 1.378-.59 1.378-1.321V6.707H3.706v8.012zm11.625-8.446H3.655c0-1.911 1.2-3.572 2.98-4.439L5.742.258c-.132-.22.201-.358.314-.17l.91 1.59a6.622 6.622 0 015.076 0l.904-1.586c.117-.192.446-.049.314.17l-.895 1.572c1.767.867 2.967 2.528 2.967 4.44zM7.33 3.795a.48.48 0 00-.492-.47.474.474 0 00-.479.47c0 .254.216.469.479.469a.48.48 0 00.492-.47zm5.315 0a.477.477 0 00-.478-.47.48.48 0 00-.492.47.48.48 0 00.492.469.477.477 0 00.478-.47zm4.444 2.684c-.708 0-1.289.54-1.289 1.228v5.172c0 .687.581 1.237 1.29 1.237.72 0 1.41-.554 1.41-1.237V7.707c0-.688-.694-1.228-1.41-1.228z" fill="#0036B1"/></svg>