<svg width="17" height="20" fill="none" xmlns="http://www.w3.org/2000/svg"><path d="M14.002 11.098c-.001-1.329.679-2.58 1.833-3.374a.414.414 0 00.066-.628c-.87-.891-2.092-1.425-3.391-1.482-1.596-.139-3.117.872-3.93.872-.812 0-2.135-.872-3.457-.872-1.781.052-3.4.966-4.26 2.407-1.814 2.911-.463 7.183 1.256 9.572.86 1.15 1.89 2.45 3.25 2.406 1.36-.044 1.794-.776 3.372-.776 1.577 0 2.021.776 3.4.75 1.38-.026 2.334-1.177 3.203-2.328.533-.724.968-1.506 1.294-2.328a.421.421 0 00-.217-.531c-1.49-.716-2.422-2.138-2.418-3.688zM11.565 3.147A4.378 4.378 0 0012.718.453a.422.422 0 00-.166-.35.501.501 0 00-.401-.094 5.151 5.151 0 00-2.654 1.456A4.25 4.25 0 008.316 4.08a.42.42 0 00.15.33c.1.086.234.127.37.115 1.066-.123 2.042-.615 2.73-1.378z" fill="#0036B1"/></svg>