<svg width="60" xmlns="http://www.w3.org/2000/svg" xmlns:xlink="http://www.w3.org/1999/xlink" viewBox="0 0 162.69 101.55"><defs><style>.cls-1{fill:url(#New_Gradient_Swatch_4);}.cls-2{fill:#8d8d8d;}</style><linearGradient id="New_Gradient_Swatch_4" x1="30.05" y1="-8.29" x2="138.54" y2="100.19" gradientUnits="userSpaceOnUse"><stop offset="0.23" stop-color="#12562b"/><stop offset="0.78" stop-color="#2db34a"/><stop offset="0.78" stop-color="#33b449"/><stop offset="0.82" stop-color="#55bb45"/><stop offset="0.86" stop-color="#70c142"/><stop offset="0.9" stop-color="#83c540"/><stop offset="0.94" stop-color="#8ec73e"/><stop offset="0.99" stop-color="#92c83e"/></linearGradient></defs><title>Asset 2</title><g id="Layer_2" data-name="Layer 2"><g id="Layer_2-2" data-name="Layer 2"><path class="cls-1" d="M33.53,40.54A41.89,41.89,0,0,0,29.83,38q-1.35-.78-4-2.1c-1.77-.88-2.81-1.4-3.13-1.58s-.73-.37-1.22-.58a4.5,4.5,0,0,1-1-.52l-.79-.58a1.48,1.48,0,0,1-.52-1.31c0-1.69,1.13-2.53,3.4-2.53q3.06,0,12.26,2.15a1.83,1.83,0,0,0,2.24-1.58l1.6-14.78a1.82,1.82,0,0,0-1.45-2,90.38,90.38,0,0,0-17.48-1.77q-9.29,0-14.5,5.78T0,32.76Q0,43.17,7,49a24.19,24.19,0,0,0,3.92,2.78q1.65.9,4.09,2.1c1.62.81,2.86,1.46,3.7,2a10.49,10.49,0,0,1,1.92,1.36,2.27,2.27,0,0,1,.65,1.69q0,2.31-2.7,2.31-3.69,0-13.57-2.92a1.84,1.84,0,0,0-2.35,1.63l-1,14A1.83,1.83,0,0,0,3,75.75a63.9,63.9,0,0,0,17.44,2.42q9.63,0,14.77-5.73T40.32,56.3Q40.32,45.91,33.53,40.54Zm127.33-28.7H147.79A1.83,1.83,0,0,0,146,13.67V38.43h-.52L135.62,13a1.85,1.85,0,0,0-1.71-1.17H118.62a1.83,1.83,0,0,0-1.83,1.83V16.4l-7.58-3.74a1.84,1.84,0,0,1-1-1.38L106.8,1.57a1.83,1.83,0,0,0-3.12-1l-6.85,7a1.84,1.84,0,0,1-1.62.53L85.54,6.45A1.83,1.83,0,0,0,83.61,9.1l4.57,8.69a1.83,1.83,0,0,1,0,1.7l-2.94,5.59a17.43,17.43,0,0,0-3.9-8q-4.87-5.27-15.59-5.26H46.51a1.83,1.83,0,0,0-1.83,1.83V75.29a1.83,1.83,0,0,0,1.83,1.83H61.14A1.83,1.83,0,0,0,63,75.29V58.55a1.83,1.83,0,0,1,1.83-1.83h1.91q10.11,0,14.81-5.09t4.7-17.19c0-1.3-.06-2.52-.14-3.7l9.13-1.56a1.81,1.81,0,0,1,1.62.52l6.2,6.37H92.75a1.83,1.83,0,0,0-1.83,1.83V75.29a1.83,1.83,0,0,0,1.83,1.83h14.72a1.83,1.83,0,0,0,1.83-1.83V37.9a1.83,1.83,0,0,0-1.83-1.83h-.77a2.3,2.3,0,0,0,.1-.35L108.21,26a1.82,1.82,0,0,1,1-1.37l7.58-3.74v54.4a1.83,1.83,0,0,0,1.83,1.83h12.89a1.83,1.83,0,0,0,1.83-1.83V51.36H134L144.45,76a1.82,1.82,0,0,0,1.68,1.12h14.73a1.83,1.83,0,0,0,1.83-1.83V13.67A1.83,1.83,0,0,0,160.86,11.84ZM67.63,41.48a2.74,2.74,0,0,1-2.75,1.68h-.43a1.82,1.82,0,0,1-1.83-1.82V30.28a1.83,1.83,0,0,1,1.83-1.83,3.12,3.12,0,0,1,3.09,1.68,13.93,13.93,0,0,1,.83,5.68A15.46,15.46,0,0,1,67.63,41.48Z"/><path class="cls-2" d="M.14,98a1.77,1.77,0,0,1,.17-.75,3.12,3.12,0,0,1,.4-.72,7.2,7.2,0,0,1,.5-.58,2.66,2.66,0,0,1,.44-.38c.12-.08.2-.11.24-.08a7.87,7.87,0,0,0,2.34,1.39A7.19,7.19,0,0,0,7,97.47q2.4,0,2.4-1.35a.84.84,0,0,0-.12-.45A1,1,0,0,0,9,95.36a1.71,1.71,0,0,0-.5-.22L7.88,95l-.76-.15-.82-.16a15.12,15.12,0,0,1-1.71-.44A9,9,0,0,1,3,93.57a5.63,5.63,0,0,1-1.31-1,4.31,4.31,0,0,1-.86-1.4,5,5,0,0,1-.33-1.86,5.1,5.1,0,0,1,1.91-4.2A8.53,8.53,0,0,1,7.87,83.6a9.85,9.85,0,0,1,4.83.94,2.71,2.71,0,0,1,1.65,2.33,2,2,0,0,1-.19.85,3,3,0,0,1-.45.76,7.68,7.68,0,0,1-.54.58,3.29,3.29,0,0,1-.47.39c-.14.08-.21.11-.24.08a7.18,7.18,0,0,0-2.11-1.34,6.41,6.41,0,0,0-2.43-.52c-1.54,0-2.31.44-2.31,1.33a.78.78,0,0,0,.14.48,1,1,0,0,0,.48.31,4.57,4.57,0,0,0,.65.18c.21,0,.51.1.91.16l1,.19a14.71,14.71,0,0,1,2.36.72,8,8,0,0,1,1.86,1,4.3,4.3,0,0,1,1.28,1.54,4.72,4.72,0,0,1,.44,2.06,5.14,5.14,0,0,1-2,4.35A9.33,9.33,0,0,1,7,101.55a15.85,15.85,0,0,1-3.19-.29,6.38,6.38,0,0,1-2.14-.81A3.53,3.53,0,0,1,.51,99.33,2.5,2.5,0,0,1,.14,98Z"/><path class="cls-2" d="M29,98.83V86.92a3.12,3.12,0,0,1,.7-2.19,2.59,2.59,0,0,1,2-.76h4.52a8.76,8.76,0,0,1,5.63,1.58,6.6,6.6,0,0,1,.07,9.26,8.48,8.48,0,0,1-5.51,1.55H34.32v2.49a2.54,2.54,0,0,1-.6,1.82,2.29,2.29,0,0,1-1.74.63H31.2a2.11,2.11,0,0,1-1.65-.63A2.6,2.6,0,0,1,29,98.83Zm5.27-6.38h1.93A2.65,2.65,0,0,0,38,91.87a2.53,2.53,0,0,0,0-3.36,2.82,2.82,0,0,0-1.9-.58H34.24Z"/><path class="cls-2" d="M57.22,92.58A9.28,9.28,0,0,1,58.38,88a8.31,8.31,0,0,1,3.24-3.2,10.16,10.16,0,0,1,9.37,0,8.17,8.17,0,0,1,3.23,3.18,9.92,9.92,0,0,1,0,9.31A8.17,8.17,0,0,1,71,100.41a9.5,9.5,0,0,1-4.67,1.14,9.81,9.81,0,0,1-3.67-.67,8.14,8.14,0,0,1-4.76-4.69A9.54,9.54,0,0,1,57.22,92.58Zm5.27,0a4.51,4.51,0,0,0,1,3.11,3.57,3.57,0,0,0,2.79,1.17,3.5,3.5,0,0,0,2.75-1.17,5.17,5.17,0,0,0,0-6.22,3.48,3.48,0,0,0-2.75-1.19,3.54,3.54,0,0,0-2.79,1.17A4.48,4.48,0,0,0,62.49,92.58Z"/><path class="cls-2" d="M89.75,98.23V86.92a3.12,3.12,0,0,1,.7-2.19,2.63,2.63,0,0,1,2-.76h5.33a8.52,8.52,0,0,1,5.38,1.45,5.09,5.09,0,0,1,1.8,4.22,5.31,5.31,0,0,1-1,3.21,5,5,0,0,1-2.76,1.83l3.88,4.8a.07.07,0,0,1,0,.06.57.57,0,0,1-.06.21,1.43,1.43,0,0,1-.32.46,3.91,3.91,0,0,1-.6.51,3.09,3.09,0,0,1-.91.41,4.19,4.19,0,0,1-1.2.17,3.36,3.36,0,0,1-1.93-.51,7.17,7.17,0,0,1-1.65-1.74l-2.44-3.24h-1v3a2.54,2.54,0,0,1-.6,1.83,2.28,2.28,0,0,1-1.75.63H92a1.92,1.92,0,0,1-1.67-.8A3.86,3.86,0,0,1,89.75,98.23ZM95,92.05h2.23A2.67,2.67,0,0,0,99,91.54a1.8,1.8,0,0,0,.61-1.47c0-1.35-.81-2-2.44-2H95Z"/><path class="cls-2" d="M118.56,86.26v-.08c0-1.47.81-2.21,2.45-2.21h11c1.64,0,2.47.74,2.47,2.21v.08c0,1.56-.83,2.33-2.47,2.33h-2.79V98.83a2.48,2.48,0,0,1-.62,1.84,2.37,2.37,0,0,1-1.78.63h-.74c-1.47,0-2.21-.82-2.21-2.47V88.59H121a2.53,2.53,0,0,1-1.82-.59A2.29,2.29,0,0,1,118.56,86.26Z"/><path class="cls-2" d="M147.74,98a1.93,1.93,0,0,1,.17-.75,3.14,3.14,0,0,1,.41-.72,7.12,7.12,0,0,1,.49-.58,3.14,3.14,0,0,1,.44-.38c.13-.08.21-.11.24-.08a7.87,7.87,0,0,0,2.34,1.39,7.22,7.22,0,0,0,2.76.59q2.4,0,2.4-1.35a.84.84,0,0,0-.12-.45,1,1,0,0,0-.29-.31,1.59,1.59,0,0,0-.5-.22l-.6-.15-.76-.15-.82-.16a15.12,15.12,0,0,1-1.71-.44,8.88,8.88,0,0,1-1.54-.67,5.43,5.43,0,0,1-1.31-1,4.17,4.17,0,0,1-.87-1.4,5,5,0,0,1-.33-1.86,5.1,5.1,0,0,1,1.91-4.2,8.53,8.53,0,0,1,5.42-1.52,9.92,9.92,0,0,1,4.84.94A2.72,2.72,0,0,1,162,86.87a2,2,0,0,1-.19.85,3,3,0,0,1-.45.76,7.68,7.68,0,0,1-.54.58,3.29,3.29,0,0,1-.47.39c-.13.08-.21.11-.24.08A7.18,7.18,0,0,0,158,88.19a6.33,6.33,0,0,0-2.43-.52c-1.54,0-2.31.44-2.31,1.33a.78.78,0,0,0,.14.48,1,1,0,0,0,.48.31,5,5,0,0,0,.65.18c.21,0,.51.1.91.16l1,.19a15.17,15.17,0,0,1,2.37.72,8.15,8.15,0,0,1,1.85,1,4.2,4.2,0,0,1,1.28,1.54,4.72,4.72,0,0,1,.44,2.06,5.16,5.16,0,0,1-2,4.35,9.38,9.38,0,0,1-5.8,1.51,15.67,15.67,0,0,1-3.18-.29,6.45,6.45,0,0,1-2.15-.81,3.63,3.63,0,0,1-1.15-1.12A2.5,2.5,0,0,1,147.74,98Z"/></g></g></svg>
