<?xml version="1.0" encoding="iso-8859-1"?>
<!-- Generator: Adobe Illustrator 18.0.0, SVG Export Plug-In . SVG Version: 6.00 Build 0)  -->
<!DOCTYPE svg PUBLIC "-//W3C//DTD SVG 1.1//EN" "http://www.w3.org/Graphics/SVG/1.1/DTD/svg11.dtd">
<svg version="1.1" xmlns="http://www.w3.org/2000/svg" xmlns:xlink="http://www.w3.org/1999/xlink" x="0px" y="0px"
	 viewBox="0 0 38.018 38.017" style="enable-background:new 0 0 38.018 38.017;" xml:space="preserve">
<g id="Layer_590">
	<g id="Layer_591">
		<g>
			<path style="fill:#6495E2;" d="M38.018,19.009c0-2.132-0.356-4.261-1.061-6.274c-0.679-1.941-1.676-3.769-2.939-5.392
				c-1.253-1.61-2.765-3.017-4.46-4.15c-1.719-1.148-3.625-2.014-5.622-2.548c-2.079-0.556-4.251-0.752-6.396-0.588
				c-2.103,0.161-4.174,0.673-6.107,1.514C9.553,2.388,7.811,3.512,6.288,4.884C4.772,6.25,3.476,7.861,2.468,9.637
				c-1.028,1.81-1.754,3.788-2.139,5.833c-0.4,2.122-0.436,4.313-0.108,6.448c0.317,2.064,0.979,4.073,1.95,5.921
				c0.951,1.809,2.195,3.461,3.669,4.877c1.476,1.418,3.179,2.596,5.027,3.474c1.896,0.9,3.94,1.479,6.027,1.71
				c2.142,0.237,4.327,0.112,6.428-0.375c2.02-0.469,3.958-1.273,5.718-2.369c1.732-1.078,3.289-2.436,4.594-4.006
				c1.312-1.579,2.366-3.369,3.107-5.284c0.766-1.978,1.191-4.082,1.264-6.202C38.014,19.446,38.018,19.227,38.018,19.009z"/>
			<path style="fill:#FFFFFF;" d="M38.018,19.009c0-2.534-0.498-4.952-1.397-7.163H1.398c-1.072,2.635-1.535,5.502-1.361,8.34
				c0.126,2.052,0.586,4.081,1.361,5.984H36.62C37.521,23.959,38.018,21.542,38.018,19.009z"/>
			<g>
				<path style="fill:#FFB500;" d="M24.978,18.916c-0.059-0.006-3.566-0.123-3.566-0.123v0.008c-0.001-0.024-0.004-0.047-0.006-0.07
					c0.359-0.028,0.685-0.192,1.022-0.301c0.356-0.112,0.723-0.022,1.084-0.101c0.161-0.035,0.318-0.09,0.465-0.165
					c0.147-0.075,0.286-0.167,0.445-0.215c0.111-0.034,0.197-0.026,0.307,0c0.045,0.011,0.215,0.055,0.178-0.046
					c-0.055-0.15-0.363-0.171-0.495-0.163c-0.32,0.017-0.583,0.25-0.9,0.295c-0.349,0.05-0.704-0.001-1.055,0.035
					c-0.349,0.037-0.666,0.204-1.015,0.236c-0.041,0.003-0.082,0.005-0.123,0.004c-0.004-0.014-0.008-0.027-0.014-0.041
					c0.588-0.269,1.177-0.538,1.765-0.808c0.293-0.135,0.587-0.269,0.881-0.404c0.141-0.064,0.28-0.128,0.42-0.193
					c0.057-0.025,0.299-0.094,0.231-0.194c-0.062-0.092-0.246,0.02-0.318,0.046c-0.151,0.056-0.303,0.113-0.453,0.17
					c-0.301,0.112-0.601,0.225-0.901,0.337c-0.594,0.223-1.189,0.446-1.782,0.668c-0.01-0.019-0.02-0.037-0.03-0.056
					c0.283-0.144,0.504-0.375,0.736-0.585c0.121-0.11,0.246-0.211,0.397-0.276c0.159-0.068,0.323-0.121,0.477-0.203
					c0.284-0.151,0.478-0.369,0.685-0.608c0.092-0.106,0.195-0.222,0.323-0.285c0.049-0.024,0.41-0.052,0.291-0.146
					c-0.1-0.079-0.312-0.03-0.422,0.005c-0.14,0.043-0.257,0.134-0.358,0.236c-0.104,0.104-0.191,0.221-0.307,0.313
					c-0.129,0.103-0.275,0.176-0.426,0.241c-0.291,0.126-0.6,0.223-0.861,0.406c-0.26,0.182-0.475,0.429-0.775,0.547
					c-0.009-0.009-0.019-0.022-0.031-0.036c0.432-0.461,0.862-0.922,1.293-1.384c0.22-0.237,0.44-0.474,0.66-0.711
					c0.104-0.113,0.21-0.226,0.315-0.339c0.047-0.05,0.264-0.219,0.177-0.297c-0.083-0.074-0.213,0.095-0.264,0.142
					c-0.123,0.114-0.245,0.229-0.368,0.343c-0.234,0.218-0.469,0.437-0.703,0.655c-0.466,0.435-0.932,0.87-1.398,1.305
					c-0.014-0.012-0.031-0.026-0.049-0.04c0.22-0.257,0.335-0.578,0.482-0.878c0.071-0.145,0.153-0.275,0.27-0.387
					c0.12-0.115,0.242-0.226,0.346-0.356c0.211-0.265,0.294-0.556,0.404-0.869c0.049-0.137,0.112-0.293,0.234-0.38
					c0.042-0.03,0.249-0.097,0.179-0.178c-0.077-0.089-0.35,0.105-0.416,0.152c-0.229,0.164-0.261,0.474-0.376,0.71
					c-0.142,0.288-0.393,0.5-0.615,0.723c-0.236,0.238-0.4,0.492-0.558,0.786c-0.084,0.159-0.178,0.315-0.309,0.441
					c-0.013-0.007-0.025-0.014-0.037-0.021c0.225-0.606,0.45-1.212,0.676-1.818c0.113-0.303,0.226-0.606,0.339-0.909
					c0.054-0.144,0.107-0.289,0.16-0.433c0.022-0.059,0.14-0.26,0.036-0.298c-0.106-0.038-0.156,0.153-0.185,0.216
					c-0.068,0.148-0.136,0.296-0.204,0.445c-0.134,0.292-0.267,0.585-0.4,0.878c-0.268,0.587-0.54,1.173-0.803,1.763
					c-0.02-0.007-0.04-0.013-0.061-0.018c0.103-0.314,0.09-0.648,0.109-0.973c0.01-0.163,0.031-0.322,0.094-0.475
					c0.063-0.155,0.145-0.3,0.191-0.462c0.094-0.327,0.069-0.648,0.044-0.982c-0.011-0.135-0.011-0.282,0.058-0.404
					c0.017-0.032,0.216-0.248,0.096-0.246c-0.102,0.001-0.185,0.105-0.24,0.178c-0.088,0.117-0.143,0.258-0.156,0.404
					c-0.017,0.17,0.015,0.339,0.008,0.51c-0.007,0.166-0.056,0.327-0.116,0.48c-0.121,0.31-0.273,0.601-0.338,0.93
					c-0.063,0.32-0.037,0.656-0.17,0.961c-0.014-0.001-0.032-0.003-0.052-0.004h0.01c-0.024-0.646-0.047-1.292-0.07-1.938
					c-0.012-0.323-0.024-0.646-0.035-0.969c-0.006-0.154-0.012-0.308-0.018-0.461c-0.002-0.064,0.029-0.294-0.081-0.289
					c-0.111,0.005-0.085,0.2-0.088,0.269c-0.006,0.161-0.012,0.322-0.018,0.483c-0.012,0.32-0.023,0.64-0.034,0.96
					c-0.022,0.649-0.046,1.299-0.068,1.948h0.01c-0.024,0.001-0.048,0.004-0.072,0.007c-0.027-0.36-0.191-0.685-0.299-1.024
					c-0.112-0.356-0.021-0.723-0.1-1.084c-0.035-0.161-0.09-0.318-0.165-0.464c-0.074-0.146-0.167-0.287-0.214-0.445
					c-0.032-0.107-0.027-0.192-0.004-0.297c0.007-0.031,0.056-0.21-0.022-0.193c-0.188,0.039-0.199,0.422-0.179,0.564
					c0.023,0.156,0.096,0.296,0.162,0.437c0.077,0.164,0.124,0.33,0.139,0.51c0.028,0.358-0.019,0.716,0.038,1.071
					c0.057,0.342,0.229,0.659,0.223,1.011c-0.014,0.003-0.027,0.008-0.041,0.012c-0.268-0.588-0.537-1.177-0.806-1.765
					c-0.134-0.294-0.269-0.588-0.403-0.882c-0.063-0.14-0.128-0.28-0.192-0.42c-0.025-0.057-0.093-0.298-0.194-0.231
					c-0.092,0.061,0.02,0.247,0.046,0.318c0.056,0.151,0.112,0.303,0.169,0.454c0.111,0.301,0.224,0.601,0.336,0.901
					c0.222,0.594,0.443,1.189,0.666,1.783c-0.022,0.012-0.044,0.024-0.066,0.036c-0.145-0.282-0.377-0.502-0.588-0.734
					c-0.11-0.121-0.213-0.245-0.277-0.396c-0.068-0.159-0.122-0.323-0.204-0.476c-0.153-0.284-0.372-0.476-0.611-0.682
					c-0.107-0.092-0.223-0.194-0.286-0.323c-0.024-0.049-0.054-0.41-0.147-0.291c-0.079,0.101-0.028,0.313,0.007,0.423
					c0.044,0.139,0.135,0.256,0.237,0.357c0.105,0.103,0.222,0.191,0.314,0.306c0.104,0.128,0.177,0.274,0.242,0.425
					c0.127,0.291,0.226,0.598,0.41,0.86c0.183,0.259,0.431,0.474,0.55,0.773l0.006-0.004c-0.015,0.012-0.028,0.023-0.042,0.036
					c-0.462-0.43-0.925-0.859-1.389-1.288c-0.237-0.22-0.476-0.439-0.713-0.658c-0.113-0.104-0.227-0.209-0.34-0.313
					c-0.051-0.046-0.221-0.263-0.298-0.176c-0.074,0.083,0.096,0.212,0.143,0.263c0.114,0.123,0.23,0.245,0.344,0.367
					c0.22,0.233,0.439,0.467,0.658,0.701c0.437,0.464,0.873,0.928,1.31,1.392c-0.011,0.014-0.025,0.032-0.04,0.049
					c-0.257-0.219-0.579-0.333-0.879-0.479c-0.146-0.071-0.276-0.152-0.389-0.269c-0.115-0.12-0.227-0.241-0.357-0.344
					c-0.265-0.209-0.557-0.291-0.87-0.4c-0.137-0.048-0.292-0.111-0.38-0.233c-0.025-0.035-0.108-0.255-0.18-0.182
					c-0.073,0.074,0.099,0.331,0.14,0.397c0.144,0.23,0.447,0.275,0.677,0.374c0.303,0.13,0.524,0.386,0.753,0.614
					c0.237,0.236,0.487,0.406,0.783,0.561c0.168,0.088,0.335,0.183,0.468,0.32c-0.006,0.013-0.013,0.025-0.02,0.038
					c-0.606-0.224-1.214-0.447-1.82-0.67c-0.304-0.111-0.607-0.223-0.91-0.334c-0.145-0.053-0.289-0.106-0.434-0.159
					c-0.06-0.022-0.262-0.139-0.299-0.034c-0.037,0.105,0.153,0.154,0.216,0.183c0.147,0.067,0.294,0.133,0.44,0.199
					c0.292,0.132,0.583,0.264,0.875,0.396c0.592,0.267,1.185,0.534,1.777,0.801c-0.007,0.021-0.013,0.04-0.019,0.06
					c-0.314-0.101-0.648-0.087-0.973-0.105c-0.15-0.008-0.298-0.025-0.438-0.077c-0.156-0.059-0.3-0.142-0.459-0.191
					c-0.312-0.098-0.633-0.092-0.955-0.06c-0.136,0.014-0.281,0.026-0.412-0.022c-0.05-0.018-0.286-0.223-0.307-0.133
					c-0.024,0.101,0.116,0.208,0.186,0.257c0.121,0.086,0.264,0.138,0.411,0.149c0.172,0.013,0.344-0.021,0.516-0.01
					c0.169,0.01,0.333,0.062,0.489,0.125c0.299,0.119,0.583,0.26,0.9,0.322c0.32,0.062,0.656,0.035,0.962,0.167l0.002-0.008
					c-0.002,0.021-0.004,0.039-0.005,0.059v-0.009c-0.646,0.025-1.293,0.051-1.939,0.076c-0.322,0.013-0.646,0.026-0.969,0.039
					c-0.154,0.006-0.308,0.013-0.462,0.018c-0.063,0.003-0.294-0.028-0.288,0.082c0.006,0.111,0.2,0.084,0.268,0.087
					c0.161,0.006,0.322,0.011,0.483,0.016c0.32,0.011,0.64,0.021,0.96,0.031c0.649,0.021,1.299,0.041,1.948,0.061v-0.01
					c0.002,0.025,0.005,0.051,0.008,0.076c-0.36,0.024-0.685,0.191-1.023,0.3c-0.354,0.113-0.722,0.024-1.084,0.104
					c-0.16,0.035-0.317,0.09-0.463,0.166c-0.147,0.075-0.286,0.168-0.445,0.216c-0.106,0.032-0.191,0.028-0.297,0.004
					c-0.03-0.007-0.209-0.054-0.193,0.023c0.039,0.188,0.424,0.197,0.565,0.176c0.155-0.022,0.296-0.097,0.436-0.164
					c0.163-0.078,0.329-0.125,0.51-0.141c0.356-0.03,0.716,0.017,1.071-0.042c0.341-0.057,0.657-0.232,1.01-0.226
					c0.005,0.015,0.01,0.03,0.015,0.045c-0.589,0.269-1.176,0.538-1.764,0.809c-0.293,0.135-0.587,0.271-0.881,0.406
					c-0.14,0.065-0.279,0.129-0.419,0.193c-0.057,0.026-0.299,0.094-0.23,0.195c0.062,0.092,0.246-0.02,0.318-0.047
					c0.151-0.056,0.302-0.113,0.453-0.17c0.3-0.113,0.6-0.226,0.899-0.339c0.594-0.224,1.188-0.448,1.781-0.673
					c0.01,0.018,0.019,0.037,0.029,0.055c-0.282,0.145-0.503,0.377-0.734,0.587c-0.12,0.11-0.245,0.212-0.396,0.277
					c-0.159,0.069-0.323,0.122-0.476,0.204c-0.283,0.153-0.476,0.371-0.683,0.611c-0.092,0.106-0.194,0.222-0.322,0.285
					c-0.049,0.024-0.41,0.053-0.291,0.146c0.101,0.079,0.312,0.029,0.423-0.005c0.139-0.044,0.256-0.135,0.356-0.238
					c0.104-0.104,0.191-0.221,0.306-0.313c0.129-0.104,0.275-0.177,0.426-0.242c0.291-0.127,0.599-0.224,0.86-0.408
					c0.26-0.182,0.475-0.431,0.774-0.549l-0.004-0.006c0.012,0.015,0.024,0.03,0.037,0.044l-0.006-0.006
					c-0.429,0.463-0.857,0.927-1.286,1.39c-0.219,0.238-0.439,0.475-0.658,0.712c-0.104,0.113-0.209,0.227-0.314,0.339
					c-0.046,0.05-0.263,0.22-0.176,0.298c0.084,0.074,0.213-0.096,0.264-0.142c0.122-0.114,0.245-0.229,0.367-0.344
					c0.233-0.219,0.468-0.438,0.701-0.657c0.465-0.436,0.93-0.872,1.394-1.308c0.016,0.013,0.034,0.029,0.054,0.044l-0.005-0.003
					c-0.22,0.257-0.334,0.579-0.48,0.879c-0.071,0.145-0.152,0.276-0.27,0.388c-0.119,0.115-0.241,0.226-0.345,0.356
					c-0.21,0.266-0.292,0.557-0.401,0.87c-0.048,0.137-0.111,0.292-0.233,0.38c-0.034,0.025-0.255,0.106-0.183,0.178
					c0.073,0.073,0.332-0.097,0.398-0.138c0.231-0.143,0.276-0.448,0.375-0.677c0.131-0.303,0.387-0.524,0.614-0.752
					c0.237-0.237,0.407-0.488,0.562-0.783c0.089-0.168,0.185-0.335,0.321-0.467c0.012,0.006,0.027,0.014,0.042,0.021
					c-0.227,0.606-0.451,1.212-0.676,1.819c-0.112,0.303-0.225,0.606-0.336,0.91c-0.054,0.145-0.107,0.289-0.16,0.434
					c-0.022,0.06-0.139,0.261-0.035,0.298c0.105,0.038,0.155-0.154,0.185-0.217c0.067-0.148,0.135-0.297,0.202-0.445
					c0.133-0.293,0.266-0.586,0.398-0.879c0.267-0.588,0.532-1.176,0.799-1.764c0.02,0.006,0.04,0.012,0.059,0.017
					c-0.101,0.314-0.088,0.648-0.106,0.974c-0.009,0.164-0.03,0.323-0.093,0.476c-0.063,0.155-0.143,0.301-0.189,0.463
					c-0.094,0.327-0.067,0.649-0.041,0.982c0.01,0.135,0.011,0.283-0.057,0.404c-0.018,0.033-0.216,0.249-0.096,0.247
					c0.101-0.001,0.185-0.106,0.239-0.179c0.088-0.117,0.143-0.258,0.156-0.404c0.016-0.169-0.016-0.339-0.01-0.509
					c0.007-0.166,0.056-0.327,0.115-0.48c0.12-0.31,0.271-0.601,0.335-0.93c0.063-0.32,0.036-0.656,0.168-0.961
					c0.013,0.001,0.031,0.002,0.05,0.003h-0.008c0.025,0.646,0.05,1.292,0.075,1.938c0.013,0.323,0.024,0.646,0.037,0.969
					c0.007,0.154,0.013,0.308,0.019,0.461c0.003,0.063-0.028,0.295,0.082,0.289c0.111-0.005,0.084-0.201,0.087-0.269
					c0.006-0.161,0.011-0.322,0.017-0.483c0.011-0.32,0.021-0.64,0.032-0.959c0.021-0.65,0.042-1.299,0.062-1.949H19.22
					c0.024-0.002,0.049-0.004,0.073-0.007c0.024,0.36,0.19,0.685,0.298,1.024c0.113,0.355,0.022,0.722,0.101,1.084
					c0.036,0.16,0.091,0.317,0.166,0.464c0.075,0.146,0.168,0.286,0.216,0.445c0.033,0.112,0.026,0.198,0,0.307
					c-0.011,0.044-0.056,0.215,0.047,0.178c0.149-0.055,0.171-0.363,0.163-0.495c-0.019-0.321-0.251-0.582-0.297-0.9
					c-0.051-0.349,0-0.704-0.037-1.054c-0.036-0.349-0.204-0.666-0.236-1.015c-0.004-0.041-0.006-0.083-0.005-0.123
					c0.013-0.004,0.027-0.008,0.041-0.012c0.27,0.587,0.54,1.175,0.809,1.762c0.136,0.294,0.271,0.587,0.405,0.881
					c0.065,0.14,0.129,0.28,0.193,0.419c0.026,0.057,0.094,0.299,0.195,0.231c0.092-0.062-0.02-0.247-0.047-0.318
					c-0.056-0.151-0.113-0.302-0.17-0.453c-0.112-0.3-0.225-0.6-0.338-0.9c-0.224-0.594-0.447-1.188-0.671-1.782
					c0.018-0.01,0.037-0.019,0.056-0.03c0.144,0.282,0.376,0.503,0.587,0.735c0.109,0.121,0.212,0.246,0.276,0.396
					c0.068,0.16,0.121,0.323,0.203,0.476c0.152,0.284,0.37,0.477,0.61,0.684c0.107,0.092,0.222,0.195,0.284,0.323
					c0.024,0.049,0.053,0.411,0.146,0.292c0.079-0.101,0.03-0.313-0.005-0.423c-0.044-0.139-0.135-0.256-0.237-0.358
					c-0.105-0.103-0.221-0.191-0.314-0.306c-0.102-0.128-0.176-0.275-0.241-0.426c-0.126-0.291-0.224-0.598-0.407-0.86
					c-0.182-0.26-0.43-0.475-0.549-0.775l-0.005,0.003c0.015-0.012,0.029-0.024,0.044-0.037l-0.006,0.006
					c0.463,0.429,0.926,0.858,1.389,1.287c0.237,0.22,0.475,0.44,0.712,0.659c0.112,0.105,0.226,0.209,0.339,0.314
					c0.051,0.047,0.219,0.264,0.297,0.177c0.075-0.083-0.095-0.212-0.142-0.263c-0.114-0.123-0.229-0.246-0.343-0.368
					c-0.219-0.234-0.438-0.468-0.656-0.702c-0.436-0.465-0.871-0.931-1.307-1.396c0.013-0.016,0.026-0.032,0.039-0.049
					c0.258,0.22,0.579,0.335,0.879,0.482c0.144,0.071,0.275,0.153,0.388,0.27c0.115,0.12,0.226,0.241,0.356,0.345
					c0.265,0.21,0.557,0.293,0.869,0.403c0.137,0.048,0.293,0.111,0.38,0.234c0.03,0.042,0.098,0.25,0.179,0.179
					c0.089-0.078-0.106-0.349-0.153-0.416c-0.164-0.229-0.474-0.261-0.71-0.376c-0.288-0.141-0.5-0.394-0.724-0.615
					c-0.238-0.235-0.492-0.399-0.786-0.556c-0.159-0.084-0.315-0.178-0.441-0.309c0.006-0.011,0.013-0.024,0.02-0.037
					c0.606,0.225,1.213,0.45,1.819,0.674c0.303,0.112,0.606,0.225,0.909,0.337c0.145,0.054,0.289,0.107,0.434,0.161
					c0.06,0.022,0.261,0.139,0.298,0.035c0.037-0.106-0.154-0.155-0.217-0.184c-0.148-0.068-0.297-0.135-0.445-0.203
					c-0.293-0.133-0.586-0.267-0.879-0.4c-0.588-0.267-1.176-0.534-1.764-0.801c0.007-0.02,0.013-0.039,0.019-0.06
					c0.318,0.104,0.656,0.085,0.985,0.108c0.31,0.021,0.565,0.147,0.85,0.253c0.322,0.12,0.633,0.089,0.968,0.072
					c0.15-0.008,0.323-0.018,0.464,0.043c0.056,0.024,0.197,0.187,0.259,0.145c0.155-0.097-0.322-0.37-0.373-0.388
					c-0.173-0.063-0.352-0.047-0.533-0.037c-0.19,0.011-0.369-0.017-0.549-0.078c-0.316-0.108-0.61-0.271-0.935-0.354
					c-0.348-0.088-0.722-0.043-1.056-0.188c0.001-0.013,0.003-0.031,0.004-0.048c0.692-0.022,1.385-0.047,2.077-0.072
					c0.339-0.012,0.677-0.024,1.016-0.037c0.154-0.006,0.331,0.011,0.482-0.021C25.098,19.044,25.088,18.928,24.978,18.916z"/>
				<g>
					<path style="fill:#9A3002;" d="M19.471,19.986c-0.087-0.073-0.204-0.172-0.327-0.146c-0.032,0.008-0.06,0.024-0.083,0.035
						c-0.012,0.006-0.024,0.01-0.036,0.015c-0.005,0.002-0.01,0.003-0.016,0.004c-0.017-0.004-0.035-0.011-0.051-0.019
						c-0.214-0.097-0.395,0.078-0.536,0.23l-0.009,0.007l0.012,0.001c0.065,0.005,0.135,0.018,0.192,0.053
						c0.005,0.004,0.01,0.007,0.015,0.012c0.005,0.005,0.01,0.009,0.015,0.014c0.104,0.107,0.208,0.177,0.362,0.177
						c0.185,0,0.26-0.1,0.392-0.203c0.058-0.035,0.127-0.048,0.193-0.053l0.011-0.001l-0.009-0.007
						C19.557,20.063,19.515,20.023,19.471,19.986z M19.427,20.127c-0.014,0.003-0.027,0.009-0.041,0.015
						c-0.007,0.004-0.014,0.007-0.019,0.012c-0.052,0.032-0.096,0.075-0.15,0.102c-0.034,0.018-0.07,0.032-0.107,0.042
						c-0.012,0.004-0.024,0.006-0.037,0.009c-0.013,0.002-0.026,0.003-0.038,0.005l-0.024,0.002l-0.023-0.002
						c-0.013-0.002-0.026-0.003-0.039-0.005c-0.012-0.003-0.025-0.004-0.037-0.009c-0.101-0.028-0.171-0.09-0.257-0.144
						c-0.006-0.005-0.014-0.008-0.021-0.012c-0.061-0.026-0.128-0.032-0.193-0.037c0.106-0.076,0.224-0.17,0.351-0.204
						c0.014-0.003,0.021-0.004,0.035-0.003c0.012,0,0.023,0.001,0.035,0.004c0.022,0.005,0.047,0.017,0.076,0.028
						c0.05,0.016,0.098,0.016,0.147,0c0.028-0.011,0.053-0.023,0.076-0.028c0.012-0.003,0.023-0.004,0.035-0.004
						c0.013,0,0.021,0.001,0.034,0.003c0.128,0.033,0.245,0.128,0.351,0.204C19.528,20.109,19.478,20.114,19.427,20.127z"/>
					<path style="fill:#9A3002;" d="M19.234,20.057c-0.016,0-0.032,0-0.048,0c-0.124,0.017-0.229,0.017-0.353,0
						c-0.017,0-0.032,0-0.049,0c-0.045,0.001-0.089,0.006-0.135,0.01c-0.037,0.008-0.075,0.017-0.112,0.025
						c0.038-0.003,0.076-0.007,0.114-0.01c0.028,0.001,0.057,0.002,0.086,0.003c0.015,0,0.029,0.003,0.044,0.005
						c0.015,0.003,0.029,0.005,0.044,0.006c0.015,0.004,0.029,0.008,0.044,0.012c0.044,0.011,0.089,0.025,0.134,0.032
						c0.002,0,0.004,0,0.006,0.001c0.002,0,0.004-0.001,0.006-0.001c0.046-0.007,0.09-0.022,0.135-0.032
						c0.014-0.004,0.028-0.008,0.043-0.012c0.015-0.001,0.029-0.004,0.044-0.006c0.016-0.001,0.03-0.005,0.045-0.005
						c0.015-0.001,0.029-0.001,0.044-0.001c0.015,0,0.028-0.001,0.042-0.001c0.038,0.003,0.076,0.007,0.113,0.01
						c-0.037-0.008-0.074-0.017-0.112-0.025C19.323,20.063,19.278,20.058,19.234,20.057z"/>
					<path style="fill:#9A3002;" d="M20.244,18.807c-0.057,0.027-0.117,0.046-0.177,0.064c-0.08,0.028-0.173,0.037-0.259,0.038
						l-0.045,0.001c-0.015-0.002-0.028-0.004-0.044-0.006c-0.014-0.002-0.028-0.002-0.042-0.006
						c-0.015-0.004-0.027-0.007-0.041-0.011c-0.051-0.009-0.098-0.036-0.144-0.057c-0.02-0.01-0.037-0.021-0.054-0.03
						c-0.016-0.009-0.029-0.019-0.041-0.025c-0.011-0.007-0.019-0.014-0.025-0.018c-0.005-0.004-0.009-0.007-0.009-0.007
						c-0.021-0.016-0.049,0.015-0.029,0.034c0,0.001,0.011,0.012,0.033,0.031c0.022,0.017,0.055,0.042,0.097,0.066
						c0.05,0.024,0.1,0.055,0.154,0.065c0.032,0.009,0.061,0.014,0.094,0.019c0.017,0.001,0.033,0.003,0.05,0.004l0.049-0.003
						c0.115-0.007,0.237-0.035,0.34-0.09c0.015-0.007,0.146-0.072,0.138-0.088c-0.001-0.002-0.004-0.003-0.006-0.002
						C20.283,18.789,20.27,18.796,20.244,18.807z"/>
					<path style="fill:#9A3002;" d="M18.653,18.752c-0.011,0.009-0.023,0.017-0.034,0.024c-0.011,0.007-0.024,0.017-0.041,0.025
						c-0.016,0.009-0.033,0.021-0.054,0.03c-0.046,0.021-0.093,0.048-0.143,0.057c-0.014,0.004-0.027,0.007-0.042,0.011
						c-0.014,0.004-0.028,0.004-0.042,0.006c-0.015,0.002-0.029,0.004-0.044,0.006l-0.045-0.001c-0.032,0-0.063,0-0.092-0.005
						c-0.056-0.009-0.114-0.015-0.167-0.033c-0.074-0.023-0.146-0.049-0.215-0.083c-0.003-0.001-0.006,0-0.007,0.002
						c-0.001,0.002,0,0.005,0.001,0.006c0.042,0.032,0.089,0.059,0.137,0.082c0.021,0.011,0.046,0.019,0.071,0.03
						c0.082,0.039,0.18,0.054,0.269,0.06l0.05,0.003c0.016-0.001,0.032-0.003,0.049-0.004c0.032-0.005,0.063-0.01,0.094-0.019
						c0.056-0.012,0.104-0.041,0.154-0.065c0.043-0.024,0.074-0.05,0.097-0.066c0.022-0.02,0.033-0.03,0.033-0.03
						C18.702,18.766,18.675,18.736,18.653,18.752z"/>
					<path style="fill:#9A3002;" d="M19.281,20.547c-0.008-0.012-0.015-0.026-0.025-0.037c-0.009-0.013-0.019-0.024-0.031-0.035
						c-0.012-0.012-0.025-0.021-0.037-0.03c-0.014-0.009-0.027-0.016-0.041-0.024c-0.044-0.021-0.088-0.029-0.135-0.038
						c-0.053,0.009-0.097,0.017-0.141,0.038c-0.014,0.008-0.027,0.015-0.04,0.024c-0.013,0.01-0.026,0.018-0.037,0.03
						c-0.012,0.011-0.023,0.022-0.032,0.035c-0.01,0.011-0.018,0.025-0.025,0.037c-0.024,0.046-0.043,0.094-0.047,0.146
						c0.008-0.036,0.023-0.07,0.042-0.102c0.007-0.011,0.016-0.021,0.023-0.033c0.009-0.01,0.018-0.021,0.028-0.03
						c0.01-0.01,0.021-0.019,0.032-0.027c0.012-0.009,0.024-0.014,0.036-0.021c0.013-0.006,0.025-0.01,0.038-0.016
						c0.076-0.021,0.162-0.021,0.239,0c0.012,0.005,0.025,0.009,0.037,0.016c0.012,0.007,0.025,0.012,0.036,0.021
						c0.012,0.008,0.022,0.017,0.032,0.027c0.012,0.009,0.02,0.021,0.029,0.03c0.008,0.012,0.016,0.021,0.023,0.033
						c0.019,0.031,0.034,0.066,0.042,0.102C19.324,20.641,19.306,20.593,19.281,20.547z"/>
					<path style="fill:#9A3002;" d="M20.197,18.616c-0.016-0.012-0.033-0.021-0.05-0.03c-0.044-0.027-0.106-0.052-0.158-0.06
						l-0.056-0.012c-0.018-0.004-0.035-0.004-0.054-0.006c-0.018-0.001-0.035-0.004-0.055-0.004
						c-0.019,0.001-0.037-0.001-0.056,0.002c-0.019,0.001-0.037,0.004-0.055,0.008c-0.019,0.003-0.036,0.009-0.054,0.014
						c-0.018,0.007-0.035,0.013-0.052,0.021c-0.068,0.029-0.135,0.08-0.182,0.139l-0.01,0.022l0.014,0.011
						c0.017,0.015,0.031,0.024,0.047,0.033c0.029,0.021,0.065,0.033,0.098,0.047c0.017,0.008,0.035,0.011,0.052,0.017l0.025,0.007
						c0.009,0.002,0.018,0.004,0.025,0.005l0.054,0.009l0.052,0.003c0.017,0,0.035,0.003,0.053,0.001l0.053-0.003l0.026-0.001
						l0.026-0.005l0.053-0.01l0.051-0.015c0.034-0.008,0.071-0.024,0.101-0.041c0.033-0.016,0.066-0.035,0.097-0.058l0.035-0.025
						l-0.032-0.029C20.23,18.639,20.214,18.627,20.197,18.616z M19.734,18.818l-0.05-0.011c-0.008-0.002-0.017-0.003-0.024-0.005
						l-0.023-0.009c-0.031-0.014-0.062-0.025-0.091-0.046c-0.013-0.01-0.027-0.018-0.039-0.031
						c-0.006-0.006-0.013-0.013-0.018-0.019c0.021-0.039,0.054-0.072,0.088-0.102c0.014-0.01,0.028-0.021,0.044-0.029
						c0.015-0.009,0.031-0.016,0.048-0.023c0.017-0.006,0.034-0.012,0.051-0.016c0.018-0.004,0.035-0.006,0.053-0.008
						c0.004,0,0.006-0.001,0.009-0.001c-0.15,0.043-0.148,0.266,0.006,0.302L19.734,18.818z M20.154,18.687
						c-0.045,0.048-0.108,0.082-0.168,0.105l-0.049,0.014l-0.025,0.007l-0.025,0.003l-0.018,0.002
						c0.133-0.043,0.144-0.235,0.015-0.291c0.016,0.002,0.032,0.003,0.048,0.009l0.05,0.016c0.03,0.007,0.07,0.028,0.094,0.048
						c0.015,0.01,0.029,0.019,0.042,0.03c0.013,0.013,0.026,0.023,0.036,0.036c0.003,0.004,0.006,0.008,0.009,0.012
						C20.159,18.681,20.157,18.684,20.154,18.687z"/>
					<path style="fill:#9A3002;" d="M24.982,18.879c-0.055-0.006-2.931-0.103-3.482-0.121c0.29-0.039,0.559-0.163,0.834-0.258
						c0.148-0.051,0.296-0.089,0.453-0.097c0.158-0.008,0.316,0.003,0.475-0.002c0.31-0.012,0.575-0.136,0.849-0.269
						c0.132-0.064,0.272-0.141,0.419-0.165c0.067-0.011,0.133-0.005,0.198,0.017c0.056,0.018,0.141,0.053,0.194,0.01
						c0.098-0.08-0.059-0.189-0.12-0.22c-0.103-0.05-0.22-0.07-0.333-0.072c-0.273-0.004-0.489,0.15-0.736,0.241
						c-0.297,0.109-0.624,0.071-0.933,0.07c-0.31-0.001-0.606,0.055-0.899,0.152l-0.03,0.011c-0.212,0.069-0.381,0.09-0.475,0.096
						c0.593-0.271,1.185-0.543,1.778-0.815c0.297-0.136,0.594-0.272,0.89-0.408c0.144-0.066,0.287-0.131,0.431-0.198
						c0.076-0.035,0.192-0.087,0.146-0.193c-0.077-0.182-0.526,0.083-0.641,0.125c-0.308,0.115-0.615,0.23-0.923,0.345
						c-0.62,0.232-1.24,0.465-1.86,0.698c0.278-0.164,0.494-0.408,0.739-0.615c0.249-0.21,0.561-0.273,0.838-0.431
						c0.275-0.156,0.482-0.386,0.681-0.625c0.08-0.097,0.17-0.197,0.288-0.247c0.084-0.036,0.277-0.003,0.321-0.098
						c0.097-0.214-0.409-0.128-0.479-0.106c-0.288,0.093-0.432,0.337-0.654,0.52c-0.229,0.189-0.514,0.29-0.785,0.402
						c-0.302,0.124-0.56,0.285-0.807,0.498l-0.025,0.022c-0.168,0.144-0.317,0.229-0.4,0.27c0.434-0.466,0.866-0.932,1.3-1.398
						c0.222-0.239,0.443-0.478,0.666-0.717c0.1-0.107,0.199-0.215,0.3-0.323c0.061-0.066,0.221-0.191,0.118-0.288
						c-0.095-0.089-0.206,0.036-0.273,0.096c-0.122,0.107-0.242,0.218-0.361,0.329c-0.226,0.213-0.449,0.431-0.677,0.643
						c-0.471,0.438-0.941,0.877-1.41,1.316c0.191-0.252,0.293-0.555,0.438-0.833c0.148-0.285,0.392-0.458,0.592-0.701
						c0.211-0.257,0.302-0.557,0.413-0.864c0.05-0.135,0.101-0.296,0.22-0.388c0.065-0.049,0.232-0.084,0.217-0.192
						c-0.035-0.196-0.325-0.004-0.404,0.051c-0.217,0.149-0.307,0.331-0.394,0.578c-0.12,0.338-0.339,0.569-0.595,0.812
						c-0.258,0.245-0.461,0.513-0.622,0.831l-0.014,0.03c-0.101,0.198-0.206,0.333-0.268,0.403c0.228-0.611,0.455-1.222,0.682-1.833
						c0.114-0.306,0.227-0.611,0.342-0.917c0.05-0.136,0.101-0.271,0.15-0.407c0.031-0.084,0.106-0.249-0.034-0.283
						c-0.179-0.043-0.315,0.47-0.368,0.588c-0.136,0.296-0.271,0.592-0.405,0.888c-0.27,0.591-0.539,1.183-0.809,1.775
						c0.079-0.301,0.062-0.615,0.086-0.922c0.023-0.307,0.158-0.556,0.261-0.84c0.109-0.301,0.097-0.615,0.076-0.93
						c-0.008-0.135-0.022-0.274,0.016-0.405c0.016-0.053,0.038-0.103,0.067-0.15c0.032-0.053,0.095-0.108,0.102-0.172
						c0.019-0.175-0.215-0.037-0.262,0.011c-0.092,0.094-0.168,0.21-0.209,0.335c-0.087,0.269-0.007,0.547-0.055,0.82
						c-0.048,0.273-0.172,0.523-0.276,0.777c-0.119,0.286-0.179,0.57-0.201,0.879l-0.003,0.033
						c-0.017,0.221-0.062,0.387-0.093,0.474c-0.026-0.734-0.053-1.469-0.079-2.203c-0.012-0.317-0.04-0.639-0.031-0.957
						c0.003-0.104,0.037-0.452-0.129-0.458c-0.164,0-0.134,0.335-0.132,0.436c0.007,0.317-0.021,0.638-0.031,0.954
						c-0.026,0.741-0.053,1.482-0.078,2.223c-0.04-0.289-0.163-0.558-0.257-0.832c-0.051-0.149-0.089-0.297-0.097-0.455
						c-0.007-0.159,0.006-0.318-0.001-0.477c-0.014-0.307-0.137-0.583-0.27-0.855c-0.062-0.125-0.133-0.253-0.154-0.393
						c-0.017-0.116,0.03-0.219,0.027-0.332c-0.003-0.094-0.062-0.144-0.145-0.075c-0.086,0.072-0.118,0.213-0.138,0.319
						c-0.059,0.312,0.095,0.556,0.203,0.834c0.116,0.298,0.091,0.616,0.087,0.929c-0.004,0.325,0.048,0.628,0.149,0.937l0.011,0.032
						c0.069,0.21,0.09,0.38,0.096,0.473c-0.272-0.593-0.542-1.187-0.812-1.779c-0.136-0.297-0.272-0.594-0.407-0.89
						c-0.06-0.132-0.12-0.263-0.181-0.394c-0.037-0.083-0.08-0.216-0.199-0.189c-0.116,0.027-0.062,0.178-0.033,0.25
						c0.06,0.151,0.113,0.305,0.17,0.457c0.112,0.302,0.225,0.604,0.337,0.905c0.231,0.618,0.461,1.236,0.693,1.854
						c-0.003,0.001-0.005,0.002-0.007,0.004c-0.151-0.269-0.38-0.481-0.583-0.709c-0.213-0.239-0.297-0.519-0.434-0.801
						c-0.135-0.272-0.344-0.5-0.578-0.69c-0.099-0.079-0.202-0.156-0.281-0.256c-0.09-0.115-0.079-0.22-0.111-0.352
						c-0.024-0.1-0.137-0.127-0.178-0.025c-0.038,0.095-0.029,0.209-0.012,0.307c0.052,0.308,0.267,0.488,0.481,0.692
						c0.236,0.226,0.343,0.525,0.462,0.822c0.125,0.314,0.293,0.586,0.515,0.841l0.021,0.025c0.146,0.168,0.23,0.317,0.272,0.4
						c-0.479-0.442-0.959-0.884-1.437-1.326c-0.24-0.221-0.481-0.443-0.721-0.664c-0.106-0.098-0.212-0.196-0.318-0.294
						c-0.066-0.061-0.188-0.191-0.274-0.077c-0.112,0.149,0.314,0.471,0.403,0.565c0.222,0.237,0.444,0.474,0.667,0.71
						c0.446,0.475,0.893,0.95,1.339,1.424c-0.252-0.19-0.555-0.291-0.834-0.435c-0.296-0.152-0.476-0.411-0.732-0.613
						c-0.262-0.204-0.568-0.287-0.874-0.399c-0.125-0.046-0.285-0.1-0.36-0.219c-0.037-0.06-0.085-0.225-0.183-0.201
						c-0.196,0.033-0.001,0.326,0.053,0.404c0.15,0.216,0.331,0.305,0.579,0.392c0.339,0.119,0.569,0.337,0.814,0.592
						c0.246,0.257,0.516,0.46,0.834,0.618l0.029,0.015c0.199,0.1,0.335,0.205,0.404,0.265c-0.597-0.22-1.194-0.439-1.791-0.659
						c-0.307-0.113-0.612-0.226-0.919-0.338c-0.138-0.051-0.275-0.102-0.413-0.152c-0.09-0.033-0.267-0.127-0.321,0.011
						c-0.042,0.111,0.121,0.163,0.192,0.196c0.142,0.065,0.283,0.129,0.425,0.193c0.296,0.134,0.591,0.267,0.887,0.4
						c0.584,0.264,1.168,0.527,1.753,0.791c-0.316-0.081-0.644-0.058-0.967-0.085c-0.311-0.027-0.569-0.184-0.862-0.276
						c-0.306-0.097-0.622-0.063-0.936-0.045c-0.135,0.008-0.282,0.022-0.409-0.033c-0.085-0.038-0.19-0.198-0.295-0.144
						c-0.162,0.106,0.116,0.298,0.196,0.352c0.217,0.144,0.425,0.158,0.684,0.146c0.171-0.008,0.333-0.004,0.499,0.043
						c0.17,0.048,0.331,0.121,0.492,0.191c0.326,0.142,0.646,0.225,1.002,0.25l0.034,0.003c0.222,0.016,0.388,0.062,0.476,0.091
						c-0.651,0.026-1.303,0.052-1.954,0.077c-0.314,0.013-0.63,0.025-0.944,0.038c-0.143,0.006-0.285,0.012-0.429,0.018
						c-0.09,0.003-0.256-0.006-0.295,0.104c-0.067,0.189,0.571,0.146,0.658,0.149c0.321,0.011,0.644,0.022,0.966,0.031
						c0.664,0.021,1.328,0.042,1.993,0.062c-0.304,0.043-0.583,0.177-0.871,0.273c-0.308,0.102-0.601,0.071-0.918,0.089
						c-0.3,0.017-0.564,0.144-0.828,0.274c-0.132,0.064-0.271,0.143-0.419,0.165c-0.072,0.011-0.137-0.003-0.205-0.023
						c-0.055-0.016-0.141-0.047-0.185,0.006c-0.15,0.181,0.353,0.275,0.441,0.279c0.269,0.01,0.481-0.136,0.724-0.23
						c0.291-0.114,0.606-0.085,0.912-0.083c0.332,0.002,0.636-0.05,0.95-0.154l0.032-0.01c0.212-0.071,0.381-0.092,0.474-0.098
						c-0.605,0.279-1.212,0.559-1.817,0.838c-0.285,0.132-0.57,0.264-0.856,0.395c-0.141,0.065-0.281,0.13-0.422,0.195
						c-0.075,0.035-0.191,0.088-0.146,0.194c0.077,0.182,0.526-0.084,0.641-0.127c0.307-0.116,0.614-0.231,0.921-0.347
						c0.62-0.234,1.239-0.468,1.859-0.703c-0.268,0.158-0.477,0.39-0.709,0.591c-0.248,0.216-0.549,0.288-0.833,0.439
						c-0.278,0.149-0.494,0.379-0.691,0.622c-0.08,0.098-0.166,0.2-0.28,0.259c-0.094,0.048-0.265,0.014-0.336,0.092
						c-0.073,0.083,0.025,0.143,0.098,0.157c0.111,0.022,0.231,0.008,0.339-0.022c0.3-0.085,0.444-0.327,0.669-0.517
						c0.226-0.191,0.505-0.295,0.774-0.407c0.31-0.129,0.577-0.292,0.831-0.512l0.024-0.021c0.167-0.145,0.316-0.23,0.399-0.271
						c-0.442,0.479-0.886,0.958-1.328,1.436c-0.222,0.239-0.442,0.479-0.664,0.718c-0.098,0.107-0.196,0.212-0.294,0.319
						c-0.06,0.064-0.2,0.196-0.072,0.272c0.106,0.063,0.216-0.075,0.285-0.137c0.119-0.106,0.236-0.214,0.353-0.324
						c0.222-0.209,0.438-0.423,0.661-0.632c0.466-0.437,0.932-0.874,1.397-1.311c-0.19,0.253-0.296,0.554-0.438,0.834
						c-0.141,0.277-0.379,0.453-0.574,0.685c-0.202,0.239-0.323,0.529-0.409,0.826c-0.035,0.121-0.072,0.247-0.146,0.351
						c-0.073,0.103-0.184,0.121-0.271,0.202c-0.088,0.084,0.001,0.163,0.094,0.154c0.109-0.01,0.217-0.068,0.305-0.131
						c0.247-0.176,0.316-0.445,0.424-0.712c0.12-0.296,0.366-0.506,0.59-0.725c0.235-0.229,0.417-0.486,0.565-0.779l0.015-0.031
						c0.1-0.199,0.205-0.334,0.267-0.403c-0.225,0.611-0.452,1.223-0.678,1.834c-0.109,0.295-0.218,0.59-0.327,0.886
						c-0.049,0.134-0.099,0.268-0.149,0.402c-0.032,0.088-0.125,0.25-0.001,0.312c0.107,0.053,0.174-0.091,0.207-0.166
						c0.062-0.135,0.118-0.273,0.18-0.409c0.135-0.296,0.269-0.593,0.403-0.89c0.268-0.593,0.537-1.187,0.806-1.781
						c-0.077,0.301-0.059,0.614-0.083,0.921c-0.022,0.307-0.157,0.556-0.259,0.841c-0.107,0.301-0.093,0.615-0.073,0.929
						c0.009,0.135,0.023,0.274-0.013,0.406c-0.016,0.053-0.038,0.104-0.067,0.151c-0.033,0.052-0.097,0.107-0.104,0.172
						c-0.018,0.175,0.216,0.036,0.263-0.012c0.092-0.094,0.167-0.211,0.208-0.336c0.086-0.269,0.006-0.547,0.052-0.82
						c0.047-0.273,0.171-0.524,0.275-0.778c0.118-0.287,0.177-0.571,0.199-0.879l0.003-0.033c0.016-0.222,0.061-0.387,0.091-0.475
						c0.028,0.734,0.057,1.468,0.085,2.203c0.013,0.317,0.041,0.639,0.033,0.957c-0.002,0.104-0.036,0.453,0.131,0.459
						c0.164,0,0.132-0.337,0.13-0.437c-0.008-0.317,0.019-0.637,0.029-0.954c0.024-0.741,0.049-1.482,0.072-2.223
						c0.041,0.289,0.165,0.557,0.259,0.831c0.104,0.3,0.091,0.577,0.099,0.888c0.008,0.296,0.11,0.562,0.238,0.825
						c0.064,0.131,0.141,0.262,0.183,0.403c0.045,0.15-0.022,0.257-0.026,0.403c-0.006,0.152,0.152,0.083,0.2,0.003
						c0.069-0.115,0.107-0.26,0.11-0.393c0.005-0.272-0.163-0.496-0.248-0.744c-0.098-0.284-0.07-0.59-0.066-0.885
						c0.004-0.322-0.051-0.629-0.152-0.934l-0.01-0.032c-0.07-0.211-0.092-0.382-0.098-0.475c0.272,0.592,0.544,1.185,0.816,1.777
						c0.132,0.286,0.264,0.572,0.394,0.858c0.066,0.142,0.131,0.284,0.196,0.426c0.038,0.083,0.081,0.217,0.2,0.188
						c0.115-0.027,0.063-0.174,0.034-0.246c-0.057-0.142-0.107-0.286-0.16-0.429c-0.114-0.304-0.229-0.608-0.343-0.913
						c-0.232-0.614-0.463-1.228-0.693-1.842c0.157,0.268,0.39,0.477,0.591,0.71c0.207,0.239,0.282,0.523,0.421,0.799
						c0.137,0.273,0.354,0.497,0.59,0.688c0.099,0.08,0.202,0.161,0.275,0.267c0.072,0.107,0.059,0.208,0.089,0.325
						c0.025,0.095,0.136,0.119,0.176,0.023c0.036-0.087,0.029-0.195,0.017-0.286c-0.044-0.31-0.248-0.497-0.464-0.7
						c-0.243-0.23-0.354-0.526-0.475-0.831c-0.126-0.318-0.293-0.593-0.517-0.853l-0.021-0.025
						c-0.146-0.168-0.229-0.318-0.271-0.401c0.478,0.444,0.955,0.886,1.434,1.33c0.239,0.222,0.478,0.443,0.718,0.665
						c0.106,0.099,0.212,0.197,0.318,0.295c0.066,0.062,0.171,0.178,0.267,0.09c0.082-0.075-0.024-0.183-0.076-0.237
						c-0.104-0.108-0.205-0.22-0.308-0.33c-0.221-0.237-0.442-0.474-0.664-0.711c-0.448-0.479-0.897-0.958-1.345-1.438
						c0.23,0.174,0.504,0.277,0.762,0.402c0.259,0.126,0.438,0.3,0.64,0.501c0.209,0.209,0.457,0.354,0.734,0.454
						c0.237,0.086,0.562,0.125,0.692,0.373c0.037,0.063,0.165,0.248,0.219,0.08c0.043-0.134-0.081-0.312-0.158-0.412
						c-0.188-0.241-0.485-0.277-0.745-0.403c-0.27-0.131-0.465-0.366-0.67-0.577c-0.225-0.23-0.483-0.412-0.771-0.556l-0.03-0.015
						c-0.199-0.1-0.334-0.206-0.403-0.267c0.61,0.227,1.222,0.454,1.833,0.68c0.307,0.114,0.612,0.227,0.918,0.34
						c0.136,0.05,0.272,0.101,0.407,0.151c0.08,0.029,0.251,0.104,0.287-0.032c0.028-0.105-0.117-0.153-0.188-0.186
						c-0.143-0.066-0.287-0.132-0.432-0.197c-0.294-0.134-0.588-0.268-0.883-0.401c-0.585-0.266-1.171-0.532-1.757-0.798
						c0.305,0.08,0.622,0.064,0.934,0.086c0.275,0.02,0.512,0.143,0.766,0.238c0.28,0.104,0.575,0.129,0.872,0.108
						c0.256-0.018,0.523-0.064,0.739,0.11c0.045,0.034,0.101,0.08,0.158,0.05c0.165-0.104-0.115-0.298-0.194-0.351
						c-0.216-0.144-0.424-0.161-0.683-0.148c-0.171,0.008-0.333,0.003-0.498-0.043c-0.17-0.049-0.332-0.122-0.494-0.193
						c-0.326-0.143-0.647-0.227-1.004-0.254l-0.031-0.002c-0.221-0.017-0.386-0.062-0.475-0.092c0.734-0.028,1.47-0.056,2.204-0.083
						c0.317-0.012,0.64-0.04,0.957-0.032c0.104,0.003,0.451,0.038,0.459-0.13C25.115,18.964,25.105,18.891,24.982,18.879z
						 M21.893,18.246l0.031-0.011c0.258-0.085,0.522-0.143,0.795-0.148c0.295-0.005,0.593,0.03,0.885-0.03
						c0.248-0.051,0.453-0.218,0.702-0.267c0.135-0.027,0.485-0.023,0.566,0.13c0.003,0.005,0.003,0.008-0.001,0.014
						c-0.124,0-0.232-0.064-0.359-0.042c-0.151,0.027-0.288,0.104-0.425,0.172c-0.266,0.132-0.538,0.247-0.838,0.266
						c-0.311,0.02-0.606-0.013-0.907,0.089c-0.291,0.1-0.575,0.233-0.885,0.269c-0.005-0.042-0.012-0.083-0.02-0.125
						c0.487-0.092,0.97-0.41,1.478-0.348c-0.512-0.098-0.996,0.21-1.498,0.247c-0.008-0.039-0.019-0.077-0.029-0.115
						C21.482,18.342,21.664,18.322,21.893,18.246z M24.5,16.677c0.022-0.007,0.092-0.006,0.071,0.039
						c-0.021,0.042-0.107,0.064-0.146,0.082c-0.151,0.069-0.302,0.139-0.453,0.208c-0.29,0.133-0.579,0.266-0.869,0.398
						c-0.586,0.269-1.17,0.542-1.758,0.806c-0.012-0.036-0.025-0.071-0.039-0.106l1.432-0.652l-1.469,0.562
						c-0.017-0.037-0.034-0.073-0.052-0.109C22.362,17.474,24.446,16.693,24.5,16.677z M21.382,17.201l0.025-0.022
						c0.218-0.188,0.45-0.345,0.717-0.456c0.263-0.11,0.553-0.192,0.784-0.364c0.213-0.158,0.35-0.404,0.584-0.536
						c0.103-0.058,0.428-0.176,0.521-0.059c0.001,0.001,0.002,0.003,0.001,0.01c-0.043,0.028-0.099,0.028-0.148,0.032
						c-0.072,0.005-0.134,0.024-0.196,0.063c-0.13,0.082-0.233,0.208-0.334,0.323c-0.208,0.236-0.411,0.451-0.704,0.579
						c-0.286,0.125-0.547,0.222-0.785,0.432c-0.227,0.198-0.434,0.425-0.698,0.573c-0.021-0.037-0.043-0.073-0.066-0.108
						c0.221-0.144,0.409-0.329,0.608-0.5c0.19-0.164,0.401-0.34,0.652-0.394c-0.523,0.088-0.863,0.581-1.318,0.81
						c-0.023-0.033-0.047-0.064-0.071-0.095C21.037,17.448,21.197,17.36,21.382,17.201z M23.192,14.754
						c0.016-0.013,0.051-0.042,0.072-0.019c0.059,0.069-0.23,0.315-0.274,0.357c-0.221,0.212-0.421,0.449-0.63,0.673
						c-0.499,0.538-0.999,1.076-1.499,1.613c-0.024-0.028-0.05-0.056-0.075-0.083l1.073-1.151l-1.143,1.083
						c-0.029-0.028-0.06-0.055-0.09-0.082C21.52,16.31,23.148,14.79,23.192,14.754z M20.511,16.431l0.015-0.03
						c0.14-0.277,0.309-0.522,0.531-0.739c0.208-0.205,0.452-0.402,0.585-0.668c0.127-0.254,0.162-0.564,0.399-0.749
						c0.041-0.032,0.337-0.213,0.356-0.14c-0.071,0.093-0.201,0.11-0.274,0.209c-0.089,0.12-0.136,0.271-0.185,0.41
						c-0.104,0.305-0.208,0.591-0.435,0.828c-0.214,0.222-0.418,0.41-0.558,0.691c-0.137,0.273-0.24,0.567-0.433,0.809
						c-0.033-0.025-0.067-0.05-0.102-0.074c0.281-0.412,0.399-1.005,0.818-1.306c-0.445,0.284-0.57,0.865-0.904,1.248
						c-0.033-0.021-0.067-0.041-0.102-0.06C20.286,16.789,20.401,16.647,20.511,16.431z M21.247,13.478
						c0.009-0.018,0.032-0.06,0.059-0.046c0.075,0.031-0.091,0.374-0.111,0.422c-0.117,0.272-0.21,0.555-0.312,0.832
						c-0.262,0.702-0.522,1.404-0.784,2.106c-0.034-0.017-0.068-0.033-0.102-0.048l0.551-1.474l-0.641,1.437
						c-0.038-0.015-0.076-0.029-0.114-0.042C19.995,16.219,21.218,13.534,21.247,13.478z M19.411,16.052l0.002-0.033
						c0.023-0.298,0.081-0.582,0.197-0.859c0.111-0.265,0.255-0.529,0.292-0.818c0.037-0.293-0.066-0.599,0.076-0.875
						c0.023-0.045,0.24-0.349,0.286-0.285c-0.011,0.054-0.057,0.096-0.092,0.136c-0.047,0.055-0.073,0.119-0.088,0.19
						c-0.028,0.148-0.015,0.304-0.006,0.453c0.02,0.316,0.026,0.612-0.091,0.912c-0.107,0.274-0.224,0.519-0.245,0.818
						c-0.023,0.311-0.006,0.629-0.092,0.933c-0.04-0.011-0.081-0.022-0.123-0.03c0.101-0.487-0.016-1.079,0.256-1.517
						c-0.302,0.432-0.197,1.016-0.356,1.497c-0.039-0.007-0.078-0.013-0.117-0.017C19.341,16.469,19.393,16.293,19.411,16.052z
						 M18.962,13.042c0.002-0.021,0.008-0.065,0.037-0.065c0.088,0.005,0.059,0.372,0.058,0.43c-0.007,0.31,0.021,0.623,0.031,0.932
						c0.026,0.735,0.054,1.47,0.079,2.205c-0.037-0.002-0.074-0.004-0.112-0.004l-0.054-1.572l-0.044,1.573
						c-0.04,0-0.081,0.002-0.121,0.005C18.879,15.323,18.956,13.098,18.962,13.042z M18.25,16.123l-0.011-0.032
						c-0.095-0.287-0.148-0.574-0.146-0.876c0.002-0.307,0.039-0.634-0.064-0.93c-0.092-0.259-0.271-0.491-0.241-0.78
						c0.005-0.047,0.097-0.403,0.155-0.36c0.007,0.065-0.026,0.127-0.042,0.187c-0.018,0.069-0.011,0.143,0.007,0.212
						c0.034,0.14,0.101,0.272,0.164,0.401c0.133,0.268,0.249,0.523,0.258,0.827c0.005,0.158-0.008,0.315,0.002,0.473
						c0.009,0.155,0.048,0.302,0.097,0.449c0.097,0.286,0.228,0.563,0.263,0.866c-0.042,0.006-0.083,0.012-0.124,0.02
						c-0.092-0.487-0.41-0.971-0.347-1.478c-0.099,0.51,0.207,0.997,0.245,1.498c-0.038,0.009-0.077,0.019-0.114,0.029
						C18.345,16.534,18.325,16.352,18.25,16.123z M16.685,13.514c-0.007-0.023-0.012-0.082,0.03-0.069
						c0.043,0.013,0.059,0.076,0.075,0.111c0.07,0.154,0.141,0.309,0.211,0.462c0.134,0.292,0.267,0.584,0.4,0.876
						c0.271,0.592,0.541,1.185,0.812,1.777c-0.036,0.012-0.072,0.025-0.106,0.039l-0.651-1.433l0.561,1.47
						c-0.037,0.017-0.074,0.033-0.109,0.051C17.48,15.653,16.7,13.566,16.685,13.514z M17.192,16.64l-0.022-0.024
						c-0.194-0.225-0.354-0.464-0.469-0.739c-0.114-0.275-0.202-0.58-0.397-0.813c-0.183-0.219-0.457-0.361-0.549-0.648
						c-0.015-0.046-0.065-0.421,0-0.403c0.028,0.042,0.029,0.099,0.032,0.148c0.006,0.072,0.025,0.134,0.064,0.196
						c0.082,0.13,0.209,0.233,0.324,0.333c0.237,0.207,0.452,0.41,0.582,0.703c0.126,0.285,0.224,0.546,0.434,0.784
						c0.199,0.226,0.427,0.431,0.576,0.696c-0.037,0.021-0.072,0.043-0.107,0.066c-0.273-0.413-0.749-0.735-0.891-1.225
						c0.11,0.507,0.578,0.835,0.806,1.283c-0.032,0.023-0.063,0.046-0.095,0.071C17.441,16.985,17.352,16.825,17.192,16.64z
						 M14.739,14.841c-0.025-0.031-0.033-0.101,0.028-0.073c0.057,0.025,0.108,0.092,0.152,0.133
						c0.112,0.103,0.225,0.207,0.337,0.311c0.235,0.216,0.47,0.433,0.705,0.649c0.47,0.434,0.935,0.871,1.409,1.301
						c-0.028,0.024-0.056,0.05-0.082,0.076l-1.156-1.069l1.087,1.139c-0.027,0.029-0.055,0.059-0.081,0.089
						C16.301,16.506,14.776,14.884,14.739,14.841z M16.425,17.515l-0.029-0.015c-0.239-0.12-0.464-0.261-0.658-0.447
						c-0.195-0.188-0.369-0.4-0.589-0.562c-0.221-0.163-0.495-0.196-0.727-0.336c-0.127-0.077-0.394-0.333-0.339-0.509
						c0.002-0.006,0.004-0.008,0.011-0.01c0.094,0.069,0.111,0.201,0.21,0.274c0.12,0.088,0.272,0.135,0.41,0.182
						c0.306,0.104,0.593,0.206,0.83,0.433c0.214,0.205,0.394,0.405,0.664,0.541c0.282,0.142,0.588,0.245,0.839,0.443
						c-0.025,0.034-0.051,0.067-0.074,0.102c-0.412-0.278-1.007-0.394-1.308-0.812c0.284,0.443,0.865,0.571,1.251,0.898
						c-0.021,0.034-0.041,0.068-0.061,0.102C16.786,17.738,16.643,17.624,16.425,17.515z M13.471,16.79
						c-0.026-0.014-0.07-0.062-0.018-0.076c0.05-0.013,0.12,0.03,0.164,0.046c0.145,0.053,0.289,0.106,0.435,0.16
						c0.301,0.111,0.603,0.222,0.904,0.333c0.61,0.225,1.222,0.45,1.833,0.675c-0.017,0.034-0.032,0.068-0.048,0.102l-1.476-0.546
						l1.439,0.636c-0.015,0.038-0.028,0.076-0.041,0.114C15.548,17.731,13.519,16.816,13.471,16.79z M16.051,18.616l-0.033-0.002
						c-0.276-0.02-0.541-0.066-0.799-0.169c-0.24-0.096-0.472-0.215-0.724-0.282c-0.267-0.071-0.54,0.004-0.81-0.036
						c-0.124-0.018-0.231-0.068-0.333-0.139c-0.065-0.046-0.173-0.113-0.181-0.203c0-0.006,0-0.009,0.007-0.013
						c0.118,0.036,0.186,0.148,0.314,0.176c0.143,0.031,0.294,0.015,0.438,0.005c0.314-0.021,0.617-0.031,0.918,0.078
						c0.272,0.099,0.521,0.229,0.815,0.25c0.319,0.024,0.646,0.003,0.957,0.091c-0.011,0.041-0.02,0.082-0.029,0.123
						c-0.486-0.1-1.056,0.011-1.5-0.241c0.435,0.286,1.003,0.186,1.48,0.341c-0.006,0.039-0.012,0.078-0.017,0.117
						C16.468,18.684,16.292,18.634,16.051,18.616z M13.043,19.076c-0.023-0.002-0.087-0.029-0.053-0.062
						c0.033-0.031,0.118-0.019,0.159-0.021c0.163-0.007,0.326-0.013,0.489-0.02c0.316-0.013,0.633-0.025,0.949-0.038
						c0.651-0.025,1.304-0.048,1.956-0.077c-0.002,0.037-0.004,0.074-0.004,0.112l-1.573,0.06l1.573,0.038
						c0.001,0.04,0.003,0.08,0.006,0.121C15.323,19.151,13.098,19.081,13.043,19.076z M16.126,19.777l-0.031,0.011
						c-0.289,0.096-0.576,0.151-0.882,0.15c-0.311-0.001-0.642-0.037-0.94,0.074c-0.263,0.099-0.512,0.287-0.809,0.232
						c-0.043-0.008-0.352-0.082-0.315-0.148c0.041-0.003,0.085,0.015,0.124,0.025c0.267,0.083,0.515-0.087,0.742-0.201
						c0.262-0.131,0.54-0.216,0.833-0.227c0.141-0.005,0.281,0.014,0.421,0.007c0.154-0.008,0.303-0.057,0.446-0.108
						c0.277-0.098,0.551-0.222,0.845-0.256c0.006,0.042,0.013,0.083,0.021,0.124c-0.259,0.05-0.503,0.149-0.752,0.232
						c-0.237,0.079-0.5,0.161-0.752,0.116c0.516,0.117,1.018-0.208,1.524-0.246c0.009,0.038,0.019,0.076,0.029,0.114
						C16.536,19.68,16.355,19.701,16.126,19.777z M13.523,21.352c-0.019,0.005-0.064,0.019-0.074-0.01
						c-0.03-0.077,0.326-0.2,0.377-0.22c0.273-0.11,0.539-0.246,0.808-0.37c0.68-0.314,1.36-0.628,2.041-0.941
						c0.012,0.036,0.025,0.071,0.039,0.106l-1.43,0.656l1.468-0.567c0.016,0.037,0.033,0.074,0.052,0.11
						C15.658,20.55,13.575,21.335,13.523,21.352z M16.64,20.82l-0.024,0.021c-0.218,0.19-0.45,0.347-0.717,0.459
						c-0.263,0.111-0.553,0.193-0.784,0.366c-0.212,0.159-0.348,0.405-0.582,0.537c-0.104,0.058-0.426,0.178-0.521,0.06
						c-0.001-0.001-0.003-0.003-0.002-0.01c0.051-0.03,0.115-0.027,0.172-0.033c0.076-0.008,0.144-0.04,0.205-0.085
						c0.125-0.09,0.227-0.215,0.327-0.33c0.208-0.239,0.416-0.441,0.712-0.567c0.275-0.117,0.523-0.218,0.75-0.419
						c0.226-0.199,0.432-0.426,0.696-0.574c0.022,0.036,0.043,0.072,0.066,0.107c-0.22,0.145-0.408,0.331-0.606,0.502
						c-0.19,0.164-0.4,0.341-0.651,0.395c0.522-0.089,0.861-0.582,1.316-0.812c0.023,0.032,0.047,0.063,0.072,0.095
						C16.984,20.573,16.823,20.661,16.64,20.82z M14.836,23.271c-0.015,0.013-0.052,0.042-0.072,0.021
						c-0.059-0.068,0.231-0.316,0.274-0.358c0.221-0.213,0.42-0.45,0.628-0.675c0.498-0.539,0.996-1.077,1.494-1.616
						c0.025,0.028,0.051,0.056,0.077,0.083l-1.071,1.154l1.141-1.086c0.028,0.028,0.059,0.056,0.089,0.081
						C16.503,21.712,14.879,23.236,14.836,23.271z M17.513,21.589l-0.016,0.031c-0.139,0.277-0.308,0.521-0.528,0.739
						c-0.209,0.205-0.451,0.403-0.584,0.669c-0.126,0.254-0.16,0.565-0.397,0.75c-0.04,0.031-0.339,0.212-0.357,0.14
						c0.077-0.089,0.2-0.109,0.274-0.209c0.089-0.12,0.135-0.271,0.183-0.411c0.104-0.305,0.207-0.592,0.434-0.829
						c0.204-0.214,0.405-0.395,0.542-0.663c0.143-0.282,0.246-0.588,0.444-0.838c0.033,0.026,0.067,0.05,0.102,0.074
						c-0.278,0.409-0.394,1.008-0.814,1.307c0.445-0.285,0.568-0.866,0.9-1.25c0.033,0.022,0.067,0.041,0.102,0.061
						C17.735,21.229,17.621,21.371,17.513,21.589z M18.221,21.375c-0.255,0.563-0.51,1.126-0.765,1.689
						c-0.127,0.281-0.255,0.562-0.383,0.844c-0.063,0.14-0.127,0.28-0.19,0.42c-0.021,0.045-0.085,0.269-0.159,0.257
						c-0.062-0.01,0.063-0.277,0.076-0.314c0.052-0.14,0.104-0.28,0.156-0.42c0.107-0.292,0.215-0.583,0.322-0.875
						c0.216-0.583,0.431-1.166,0.646-1.749c0.034,0.016,0.068,0.032,0.102,0.047l-0.548,1.475l0.638-1.438
						c0.037,0.015,0.076,0.028,0.114,0.041L18.221,21.375z M18.613,21.965l-0.002,0.033c-0.023,0.298-0.08,0.583-0.195,0.859
						c-0.11,0.265-0.254,0.53-0.29,0.819c-0.037,0.293,0.067,0.599-0.074,0.875c-0.023,0.046-0.239,0.35-0.286,0.285
						c0.04-0.123,0.152-0.19,0.179-0.326c0.029-0.148,0.015-0.305,0.006-0.454c-0.021-0.316-0.028-0.612,0.088-0.912
						c0.108-0.275,0.223-0.519,0.244-0.818c0.022-0.312,0.003-0.63,0.089-0.933c0.041,0.011,0.081,0.021,0.123,0.029
						c-0.056,0.27-0.056,0.547-0.077,0.821c-0.02,0.238-0.047,0.497-0.179,0.703c0.306-0.432,0.198-1.021,0.356-1.504
						c0.039,0.007,0.078,0.013,0.117,0.017C18.681,21.548,18.631,21.723,18.613,21.965z M19.069,24.973
						c-0.005,0.043-0.017,0.066-0.036,0.066v0.038l-0.001-0.038c-0.088-0.005-0.06-0.372-0.059-0.43
						c0.006-0.31-0.021-0.623-0.033-0.932c-0.028-0.735-0.057-1.47-0.085-2.205c0.037,0.002,0.074,0.004,0.112,0.004l0.059,1.572
						l0.039-1.573c0.04,0,0.081-0.003,0.121-0.005C19.147,22.693,19.074,24.918,19.069,24.973z M19.775,21.89l0.01,0.033
						c0.096,0.288,0.15,0.575,0.149,0.879c-0.002,0.311-0.038,0.642,0.072,0.939c0.099,0.264,0.287,0.514,0.232,0.811
						c-0.008,0.041-0.091,0.353-0.149,0.316c-0.008-0.055,0.017-0.11,0.033-0.161c0.024-0.078,0.021-0.159,0.001-0.238
						c-0.035-0.14-0.103-0.272-0.166-0.401c-0.133-0.267-0.25-0.522-0.26-0.826c-0.01-0.319,0.006-0.607-0.098-0.914
						c-0.098-0.288-0.231-0.568-0.268-0.873c0.042-0.005,0.083-0.012,0.125-0.02c0.093,0.488,0.426,0.986,0.347,1.495
						c0.112-0.515-0.209-1.011-0.246-1.516c0.038-0.009,0.077-0.018,0.114-0.029C19.678,21.48,19.698,21.661,19.775,21.89z
						 M21.346,24.496c0.008,0.024,0.007,0.093-0.039,0.07c-0.043-0.022-0.063-0.106-0.082-0.146
						c-0.069-0.151-0.139-0.302-0.209-0.453c-0.133-0.29-0.266-0.58-0.399-0.869c-0.269-0.585-0.543-1.169-0.808-1.757
						c0.036-0.012,0.071-0.025,0.106-0.039l0.654,1.431l-0.564-1.468c0.037-0.017,0.073-0.034,0.109-0.052
						C20.546,22.359,21.329,24.443,21.346,24.496z M20.818,21.379l0.021,0.025c0.194,0.225,0.354,0.465,0.468,0.74
						c0.113,0.275,0.2,0.58,0.394,0.813c0.171,0.207,0.427,0.343,0.53,0.601c0.013,0.033,0.104,0.472,0.017,0.451
						c-0.026-0.053-0.025-0.113-0.032-0.17c-0.008-0.076-0.04-0.144-0.085-0.206c-0.091-0.125-0.215-0.227-0.33-0.328
						c-0.238-0.209-0.441-0.418-0.566-0.713c-0.116-0.275-0.218-0.522-0.418-0.75c-0.198-0.226-0.425-0.433-0.573-0.698
						c0.037-0.021,0.072-0.043,0.107-0.066c0.145,0.22,0.33,0.408,0.501,0.607c0.164,0.189,0.34,0.4,0.395,0.651
						c-0.089-0.522-0.58-0.863-0.811-1.317c0.032-0.023,0.064-0.047,0.095-0.071C20.571,21.035,20.66,21.195,20.818,21.379z
						 M23.267,23.185c0.042,0.052,0.025,0.068,0.02,0.073c-0.065,0.059-0.315-0.232-0.357-0.274c-0.213-0.221-0.45-0.42-0.675-0.628
						c-0.538-0.499-1.077-0.998-1.614-1.497c0.028-0.025,0.056-0.05,0.083-0.077l1.153,1.072l-1.085-1.141
						c0.027-0.029,0.055-0.059,0.082-0.089C21.71,21.517,23.233,23.144,23.267,23.185z M21.588,20.506l0.03,0.015
						c0.238,0.12,0.463,0.262,0.656,0.448c0.195,0.188,0.368,0.401,0.587,0.563c0.221,0.164,0.495,0.197,0.726,0.337
						c0.128,0.078,0.393,0.333,0.338,0.511c-0.002,0.005-0.003,0.008-0.011,0.009c-0.005-0.004-0.02-0.019-0.051-0.07
						c-0.078-0.118-0.137-0.206-0.269-0.271c-0.127-0.063-0.266-0.102-0.399-0.148c-0.288-0.099-0.549-0.222-0.768-0.438
						c-0.209-0.205-0.391-0.394-0.658-0.525c-0.273-0.134-0.563-0.238-0.804-0.429c0.026-0.033,0.051-0.067,0.074-0.102
						c0.41,0.279,1.007,0.396,1.306,0.816c-0.284-0.446-0.864-0.57-1.248-0.902c0.021-0.034,0.041-0.067,0.061-0.102
						C21.229,20.284,21.371,20.397,21.588,20.506z M20.988,20.282c-0.641,0.991-1.962,1.36-3.019,0.833
						c-1.008-0.502-1.535-1.667-1.222-2.751c0.32-1.108,1.411-1.835,2.558-1.687c1.168,0.151,2.053,1.16,2.053,2.338
						C21.359,19.462,21.232,19.906,20.988,20.282z M24.54,21.239c0.026,0.014,0.071,0.062,0.018,0.076
						c-0.049,0.012-0.119-0.03-0.164-0.046c-0.145-0.054-0.289-0.107-0.434-0.161c-0.301-0.111-0.601-0.223-0.903-0.335
						c-0.61-0.226-1.221-0.452-1.831-0.679c0.017-0.033,0.032-0.068,0.047-0.103l1.475,0.55l-1.436-0.64
						c0.014-0.038,0.027-0.075,0.04-0.113C21.793,19.989,24.485,21.21,24.54,21.239z M21.965,19.406l0.03,0.003
						c0.267,0.02,0.523,0.062,0.773,0.16c0.255,0.099,0.501,0.236,0.769,0.298c0.269,0.062,0.547-0.012,0.817,0.039
						c0.141,0.026,0.472,0.162,0.486,0.338c0.001,0.006,0,0.008-0.006,0.013c-0.116-0.027-0.185-0.147-0.31-0.176
						c-0.145-0.034-0.298-0.017-0.444-0.007c-0.313,0.02-0.617,0.029-0.917-0.082c-0.28-0.104-0.529-0.231-0.833-0.253
						c-0.312-0.023-0.632-0.004-0.936-0.091c0.011-0.041,0.021-0.082,0.029-0.123c0.487,0.101,1.079-0.018,1.517,0.253
						c-0.432-0.3-1.016-0.199-1.497-0.354c0.006-0.039,0.013-0.079,0.017-0.118C21.548,19.338,21.724,19.389,21.965,19.406z
						 M24.982,19.032c-0.05,0.003-3.043,0.114-3.509,0.132c0.002-0.037,0.004-0.075,0.005-0.112l1.571-0.057l-1.572-0.042
						c-0.001-0.04-0.003-0.08-0.006-0.12c1.224,0.041,3.448,0.116,3.503,0.12c0.066,0.009,0.065,0.031,0.065,0.038
						C25.038,19.001,25.037,19.029,24.982,19.032z"/>
					<path style="fill:#9A3002;" d="M20.335,18.295c-0.037-0.031-0.081-0.062-0.131-0.094c-0.052-0.03-0.108-0.061-0.174-0.083
						c-0.05-0.021-0.105-0.029-0.159-0.038c-0.057-0.005-0.112-0.003-0.17-0.002c-0.038,0.002-0.077,0.008-0.117,0.012
						c-0.078,0.017-0.16,0.037-0.234,0.08c-0.02,0.008-0.037,0.021-0.057,0.032l-0.028,0.016l-0.026,0.02
						c-0.063,0.049-0.075,0.091-0.107,0.159c-0.007,0.02-0.014,0.04-0.019,0.059c-0.009,0.039-0.017,0.077-0.023,0.117
						c-0.016,0.152-0.006,0.302,0.025,0.451c0.02,0.08,0.051,0.155,0.082,0.231c0.016,0.034,0.032,0.067,0.05,0.101l0.062-0.046
						c-0.023-0.025-0.044-0.053-0.063-0.081c-0.036-0.056-0.064-0.113-0.089-0.174c-0.005-0.013-0.01-0.025-0.014-0.039
						c-0.017-0.072-0.039-0.15-0.034-0.226c0-0.109,0.026-0.209,0.068-0.309c0.009-0.016,0.018-0.031,0.026-0.048
						c0.01-0.016,0.023-0.028,0.035-0.042c0.059-0.078,0.112-0.14,0.201-0.184l0.053-0.018c0.034-0.014,0.073-0.018,0.108-0.025
						c0.055-0.003,0.108-0.007,0.164-0.007l0.026,0h0.007c0.003,0,0.017,0.001,0.017,0.001c0.019,0.002,0.037,0.003,0.055,0.004
						c0.016,0.003,0.03,0.006,0.046,0.009c0.029,0.002,0.063,0.011,0.091,0.021c0.015,0.004,0.03,0.009,0.044,0.013
						c0.041,0.016,0.082,0.033,0.122,0.05c0.05,0.026,0.097,0.049,0.136,0.074c0.066,0.039,0.129,0.083,0.192,0.127
						C20.45,18.399,20.395,18.344,20.335,18.295z"/>
					<path style="fill:#9A3002;" d="M20.264,18.532c-0.121-0.098-0.285-0.167-0.443-0.154l-0.031,0.003
						c-0.021,0.002-0.041,0.004-0.061,0.007c-0.04,0.01-0.079,0.019-0.114,0.035c-0.036,0.014-0.068,0.034-0.099,0.053
						c-0.014,0.011-0.027,0.021-0.041,0.031c-0.027,0.024-0.055,0.048-0.083,0.07c-0.016,0.016-0.047,0.029-0.068,0.033
						c-0.005,0.002-0.041,0.011-0.048,0.004c-0.041,0.004-0.033,0.067,0.008,0.063c0.067-0.028,0.122-0.068,0.178-0.114
						c0.012-0.009,0.023-0.019,0.036-0.028c0.013-0.009,0.026-0.017,0.04-0.025c0.029-0.016,0.059-0.032,0.094-0.042
						c0.033-0.014,0.07-0.017,0.107-0.026c0.037-0.002,0.076-0.01,0.113-0.009c0.207-0.008,0.41,0.097,0.549,0.247
						C20.363,18.624,20.316,18.574,20.264,18.532z"/>
					<path style="fill:none;stroke:#9A3002;stroke-width:0;stroke-linecap:round;stroke-linejoin:round;" d="M16.771,15.715
						c-0.002-0.011-0.007-0.022-0.008-0.033"/>
					<path style="fill:none;stroke:#9A3002;stroke-width:0;stroke-linecap:round;stroke-linejoin:round;" d="M18.225,15.068
						c-0.002,0.01-0.003,0.022-0.005,0.033"/>
					<path style="fill:none;stroke:#9A3002;stroke-width:0;stroke-linecap:round;stroke-linejoin:round;" d="M15.093,18.256
						c-0.01-0.006-0.021-0.011-0.029-0.017"/>
					<path style="fill:none;stroke:#9A3002;stroke-width:0;stroke-linecap:round;stroke-linejoin:round;" d="M22.947,18.22
						c-0.011-0.003-0.022-0.003-0.033-0.005"/>
					<path style="fill:#9A3002;" d="M18.549,18.642c-0.042-0.038-0.088-0.072-0.141-0.095c-0.017-0.008-0.034-0.014-0.051-0.021
						c-0.019-0.005-0.036-0.011-0.055-0.014c-0.018-0.004-0.036-0.007-0.055-0.008c-0.019-0.003-0.037-0.001-0.055-0.002
						c-0.036,0.001-0.075,0.003-0.109,0.01l-0.055,0.012c-0.052,0.009-0.115,0.033-0.159,0.06c-0.017,0.01-0.034,0.019-0.05,0.03
						c-0.017,0.011-0.032,0.023-0.05,0.038l-0.032,0.029l0.035,0.025c0.03,0.022,0.063,0.042,0.098,0.058
						c0.03,0.017,0.066,0.033,0.1,0.041l0.052,0.015l0.052,0.01l0.026,0.005l0.026,0.001l0.053,0.003
						c0.018,0.002,0.036-0.001,0.053-0.001l0.053-0.003l0.053-0.009c0.008-0.001,0.017-0.003,0.025-0.005l0.025-0.007
						c0.018-0.006,0.035-0.009,0.052-0.017c0.033-0.014,0.068-0.025,0.098-0.047c0.017-0.01,0.031-0.018,0.048-0.033l0.013-0.011
						l-0.01-0.022C18.576,18.669,18.563,18.656,18.549,18.642z M18.131,18.816l-0.025-0.003l-0.024-0.007l-0.049-0.014
						c-0.061-0.024-0.124-0.058-0.169-0.105c-0.003-0.003-0.005-0.007-0.008-0.01c0.003-0.004,0.006-0.008,0.009-0.012
						c0.01-0.013,0.024-0.023,0.036-0.036c0.013-0.012,0.028-0.021,0.042-0.03c0.024-0.02,0.064-0.041,0.094-0.048l0.051-0.016
						c0.015-0.006,0.031-0.007,0.047-0.009c-0.129,0.056-0.118,0.248,0.016,0.291L18.131,18.816z M18.512,18.717
						c-0.012,0.013-0.025,0.022-0.039,0.031c-0.027,0.021-0.059,0.032-0.09,0.046l-0.024,0.009
						c-0.009,0.002-0.017,0.003-0.025,0.005l-0.049,0.011l-0.053,0.003c0.153-0.036,0.156-0.26,0.006-0.302
						c0.003,0,0.006,0.001,0.009,0.001c0.018,0.002,0.035,0.004,0.053,0.008c0.017,0.004,0.034,0.01,0.051,0.016
						c0.017,0.007,0.033,0.014,0.048,0.023c0.016,0.009,0.03,0.019,0.045,0.029c0.033,0.029,0.065,0.062,0.087,0.102
						C18.526,18.704,18.519,18.711,18.512,18.717z"/>
					<path style="fill:#9A3002;" d="M19.472,19.389c-0.009-0.007-0.017-0.013-0.026-0.02l0.013,0.028
						c0.004,0.01,0.008,0.021,0.01,0.029c0.007,0.034,0.003,0.072-0.017,0.102c-0.004,0.006-0.008,0.013-0.014,0.017
						c-0.005,0.006-0.011,0.009-0.017,0.013c-0.005,0.003-0.012,0.005-0.017,0.007c-0.003,0-0.006,0-0.008,0.001
						c-0.002,0-0.003,0.002-0.01,0.001l-0.016,0.001h-0.008c-0.007-0.004-0.014-0.004-0.02-0.006
						c-0.006-0.003-0.013-0.003-0.018-0.007c-0.006-0.003-0.013-0.005-0.019-0.009c-0.007-0.003-0.013-0.008-0.019-0.012
						c-0.006-0.005-0.014-0.011-0.02-0.013l-0.031-0.04l-0.03,0.03l-0.02,0.02c-0.013,0.013-0.027,0.024-0.043,0.033
						c-0.008,0.005-0.016,0.01-0.023,0.013c-0.009,0.004-0.017,0.008-0.025,0.01c-0.009,0.003-0.018,0.005-0.027,0.006
						c-0.009,0.002-0.018,0.004-0.027,0.005c-0.021,0-0.041,0-0.062,0c-0.01-0.001-0.019-0.003-0.028-0.005
						c-0.009-0.001-0.018-0.003-0.027-0.006c-0.009-0.002-0.017-0.006-0.025-0.01c-0.008-0.003-0.016-0.008-0.023-0.013
						c-0.016-0.009-0.03-0.021-0.043-0.033l-0.02-0.02l-0.03-0.03l-0.031,0.04c-0.005,0.002-0.013,0.008-0.02,0.013
						c-0.007,0.004-0.013,0.009-0.019,0.012c-0.006,0.004-0.013,0.006-0.019,0.009c-0.006,0.004-0.012,0.004-0.017,0.007
						c-0.007,0.002-0.014,0.002-0.02,0.004c-0.001,0.002-0.009,0.002-0.009,0.002l-0.016-0.001c-0.007,0.001-0.008-0.001-0.01-0.001
						c-0.002-0.001-0.004-0.001-0.007-0.001c-0.005-0.002-0.012-0.004-0.018-0.007c-0.005-0.004-0.012-0.007-0.017-0.013
						c-0.006-0.004-0.009-0.011-0.014-0.017c-0.024-0.04-0.024-0.09-0.007-0.132l0.013-0.028c-0.008,0.007-0.018,0.013-0.026,0.02
						c-0.024,0.028-0.044,0.053-0.051,0.092c-0.007,0.036,0,0.081,0.019,0.112c0.014,0.026,0.037,0.045,0.063,0.059
						c0.014,0.006,0.028,0.011,0.043,0.015l0.016,0.003l0.008,0.002c0.029-0.001,0.044,0,0.058-0.004
						c0.014-0.005,0.028-0.008,0.041-0.016c0.022-0.013,0.041-0.03,0.056-0.052c0.005,0.003,0.009,0.006,0.014,0.009
						c0.01,0.007,0.02,0.013,0.03,0.017c0.021,0.011,0.043,0.018,0.066,0.023c0.012,0.003,0.022,0.004,0.034,0.005
						c0.011,0.002,0.022,0.002,0.033,0.002c0.009,0,0.023,0,0.033-0.001c0.011,0,0.024,0.001,0.033,0.001
						c0.011,0,0.022,0,0.034-0.002c0.011-0.001,0.022-0.002,0.033-0.005c0.024-0.004,0.046-0.012,0.066-0.023
						c0.011-0.004,0.021-0.01,0.03-0.017c0.005-0.003,0.009-0.006,0.014-0.009c0.015,0.022,0.033,0.039,0.057,0.052
						c0.012,0.008,0.026,0.011,0.04,0.016c0.014,0.003,0.028,0.003,0.042,0.004c0.016,0,0.023-0.002,0.023-0.002l0.016-0.003
						c0.015-0.004,0.029-0.009,0.044-0.015c0.024-0.015,0.048-0.033,0.062-0.059C19.545,19.528,19.526,19.439,19.472,19.389z"/>
					<path style="fill:#9A3002;" d="M18.742,18.614c-0.007,0.007-0.042-0.002-0.048-0.004c-0.021-0.004-0.053-0.018-0.068-0.033
						c-0.028-0.022-0.055-0.048-0.083-0.07c-0.014-0.01-0.027-0.021-0.041-0.031c-0.03-0.019-0.061-0.039-0.099-0.053
						c-0.035-0.016-0.074-0.024-0.113-0.035c-0.021-0.003-0.041-0.005-0.062-0.007l-0.03-0.003
						c-0.221-0.017-0.462,0.117-0.579,0.301c0.136-0.151,0.343-0.255,0.549-0.247c0.037-0.001,0.075,0.007,0.112,0.009
						c0.036,0.01,0.073,0.013,0.107,0.026c0.034,0.01,0.064,0.026,0.094,0.042c0.014,0.009,0.028,0.017,0.041,0.025
						c0.012,0.01,0.024,0.019,0.035,0.028c0.056,0.046,0.11,0.086,0.178,0.114C18.776,18.681,18.783,18.618,18.742,18.614z"/>
					<path style="fill:#9A3002;" d="M18.907,18.457c-0.007-0.019-0.014-0.039-0.019-0.059c-0.021-0.044-0.026-0.076-0.059-0.115
						c-0.014-0.018-0.032-0.031-0.05-0.044l-0.026-0.02l-0.028-0.016c-0.02-0.01-0.036-0.024-0.057-0.032
						c-0.074-0.042-0.155-0.063-0.234-0.08c-0.039-0.004-0.078-0.011-0.117-0.012c-0.058-0.001-0.113-0.003-0.17,0.002
						c-0.053,0.008-0.109,0.017-0.158,0.038c-0.183,0.06-0.35,0.192-0.47,0.339c0.062-0.043,0.125-0.088,0.191-0.127
						c0.04-0.025,0.086-0.048,0.136-0.074c0.041-0.017,0.081-0.034,0.122-0.05c0.015-0.004,0.029-0.008,0.044-0.013
						c0.028-0.009,0.061-0.019,0.092-0.021c0.015-0.002,0.029-0.006,0.045-0.009c0.019-0.001,0.036-0.001,0.055-0.004l0.014-0.001
						c0.004,0,0.01,0,0.01,0l0.027,0c0.055,0,0.108,0.003,0.163,0.007c0.036,0.007,0.074,0.011,0.108,0.025l0.054,0.018
						c0.017,0.008,0.033,0.017,0.05,0.025c0.065,0.038,0.108,0.102,0.151,0.159c0.012,0.014,0.024,0.026,0.034,0.042
						c0.009,0.017,0.018,0.032,0.026,0.048c0.015,0.034,0.027,0.067,0.039,0.102c0.021,0.068,0.03,0.139,0.03,0.206
						c0.002,0.033-0.004,0.064-0.008,0.096c-0.008,0.058-0.021,0.114-0.041,0.169c-0.025,0.061-0.052,0.118-0.089,0.174
						c-0.019,0.027-0.039,0.056-0.063,0.081l0.063,0.046c0.018-0.033,0.034-0.066,0.05-0.101c0.016-0.039,0.032-0.078,0.047-0.117
						c0.015-0.035,0.024-0.077,0.034-0.114c0.01-0.045,0.018-0.089,0.024-0.135c0.01-0.105,0.012-0.211,0.001-0.316
						C18.923,18.534,18.916,18.496,18.907,18.457z"/>
				</g>
			</g>
		</g>
	</g>
</g>
<g id="Layer_1">
</g>
</svg>
