<?xml version="1.0" encoding="utf-8"?>
<!-- Generator: Adobe Illustrator 23.0.1, SVG Export Plug-In . SVG Version: 6.00 Build 0)  -->
<svg version="1.1" id="Layer_1" xmlns="http://www.w3.org/2000/svg" xmlns:xlink="http://www.w3.org/1999/xlink" x="0px" y="0px"
	 viewBox="0 0 38 38" style="enable-background:new 0 0 38 38;" xml:space="preserve">
<style type="text/css">
	.st0{fill:#0181C4;}
	.st1{fill:#9CCC65;}
</style>
<circle class="st0" cx="19" cy="19" r="19"/>
<path class="st1" d="M30.2,3.7h-2.5h-0.2h-1.8c-1.5,0-2.7,1.1-2.9,2.5h-0.1c0,1.2-1,2.3-2.3,2.3c-1.4,0-2.5,1.1-2.5,2.5
	c0,1.4,1.1,2.5,2.5,2.5h2.3h0.2h2.3c1.2,0,2.3,1,2.3,2.3h0v0h0c0,1.2-1,2.3-2.3,2.3h-2.3h-0.2h-2.3c-1.4,0-2.5,1.1-2.5,2.5
	c0,1.4,1.1,2.5,2.5,2.5c1.2,0,2.3,1,2.3,2.3h0v2.3v0.2V30c0,1.4,1.1,2.5,2.5,2.5s2.5-1.1,2.5-2.5h0c0-1.2,1-2.3,2.3-2.3v0
	c1.4,0,2.5-1.1,2.5-2.5v-2.3v-0.2v-2.3h0c0-1.2,1-2.3,2.3-2.3v0H37h0.2H38C37.7,12.2,34.7,7,30.2,3.7z"/>
<path class="st1" d="M10.9,22.7H8.7v0H6.2c-1.2,0-2.3-1-2.3-2.3h0v-2.3v-0.2v-2.3h0c0-1.2,1-2.3,2.3-2.3v0c1.4,0,2.5-1.1,2.5-2.5
	c0-1.4-1.1-2.5-2.5-2.5v0c-0.9,0-1.7-0.5-2-1.3C1.6,10.4,0,14.5,0,19c0,1.3,0.1,2.5,0.4,3.7c0.3,0.2,0.7,0.2,1.1,0.2v0
	c1.2,0,2.3,1,2.3,2.3h0v5c1.4,1.9,3.1,3.5,5,4.7v-0.2h0c0-1.2,1-2.3,2.3-2.3v0c1.4,0,2.5-1.1,2.5-2.5v-2.3v-0.2v-2.3
	C13.4,23.8,12.3,22.7,10.9,22.7z"/>
<path class="st1" d="M21,0.1C20.3,0,19.7,0,19,0c-3.3,0-6.3,0.8-9,2.3c0.7,0.4,1.3,1.1,1.3,2h0c0,1.4,1.1,2.5,2.5,2.5
	c1.4,0,2.5-1.1,2.5-2.5h0c0-1.2,1-2.3,2.3-2.3v0C19.7,2,20.7,1.2,21,0.1z"/>
</svg>
