<?xml version="1.0" encoding="iso-8859-1"?>
<!-- Generator: Adobe Illustrator 18.0.0, SVG Export Plug-In . SVG Version: 6.00 Build 0)  -->
<!DOCTYPE svg PUBLIC "-//W3C//DTD SVG 1.1//EN" "http://www.w3.org/Graphics/SVG/1.1/DTD/svg11.dtd">
<svg version="1.1" xmlns="http://www.w3.org/2000/svg" xmlns:xlink="http://www.w3.org/1999/xlink" x="0px" y="0px"
	 viewBox="0 0 38.018 38.017" style="enable-background:new 0 0 38.018 38.017;" xml:space="preserve">
<g id="Layer_550">
	<g id="Layer_551">
		<g>
			<path style="fill:#009C2D;" d="M38.018,19.009c0-2.132-0.356-4.261-1.061-6.275c-0.679-1.941-1.676-3.769-2.939-5.392
				c-1.253-1.61-2.765-3.017-4.46-4.15c-1.719-1.148-3.625-2.014-5.622-2.548c-2.079-0.556-4.251-0.752-6.396-0.588
				c-2.102,0.161-4.174,0.673-6.107,1.514C9.553,2.388,7.811,3.512,6.288,4.884C4.772,6.25,3.476,7.861,2.468,9.637
				c-1.028,1.81-1.754,3.788-2.139,5.833c-0.399,2.122-0.435,4.313-0.107,6.448c0.317,2.064,0.979,4.073,1.95,5.921
				c0.951,1.809,2.195,3.461,3.669,4.877c1.476,1.418,3.179,2.596,5.027,3.474c1.896,0.9,3.94,1.479,6.027,1.71
				c2.142,0.237,4.327,0.112,6.428-0.375c2.02-0.469,3.958-1.273,5.718-2.369c1.732-1.078,3.289-2.436,4.594-4.006
				c1.311-1.579,2.366-3.369,3.107-5.284c0.766-1.978,1.191-4.083,1.264-6.202C38.014,19.446,38.018,19.227,38.018,19.009z"/>
			<path style="fill:#FFE000;" d="M37.246,24.378c0.823-2.797,0.989-5.78,0.487-8.652c-0.122-0.705-0.285-1.403-0.487-2.089
				L19.01,1.952L0.772,13.637c-0.822,2.798-0.989,5.78-0.488,8.653c0.123,0.705,0.286,1.403,0.488,2.089L19.01,36.063L37.246,24.378
				z"/>
			<g>
				<path style="fill:#002279;" d="M28.269,12.565c-1.484-2.129-3.701-3.714-6.201-4.415c-2.668-0.749-5.568-0.481-8.054,0.744
					c-2.278,1.123-4.133,3.026-5.217,5.321c-1.179,2.494-1.386,5.408-0.592,8.049c0.739,2.456,2.335,4.626,4.454,6.068
					c2.227,1.516,4.958,2.187,7.634,1.882c2.62-0.298,5.078-1.529,6.896-3.44c1.833-1.928,2.932-4.487,3.081-7.143
					C30.411,17.135,29.698,14.617,28.269,12.565z"/>
				<g>
					<polygon style="fill:#FFFFFF;" points="9.934,16.821 9.814,16.449 9.692,16.821 9.302,16.821 9.617,17.05 9.497,17.422 
						9.814,17.192 10.129,17.422 10.009,17.05 10.324,16.821 					"/>
					<polygon style="fill:#FFFFFF;" points="10.913,21.558 10.792,21.186 10.671,21.558 10.28,21.558 10.597,21.788 10.477,22.159 
						10.792,21.93 11.108,22.159 10.987,21.788 11.304,21.558 					"/>
					<polygon style="fill:#FFFFFF;" points="22.59,15.377 22.492,15.076 22.394,15.377 22.077,15.377 22.334,15.563 22.235,15.864 
						22.492,15.678 22.748,15.864 22.65,15.563 22.906,15.377 					"/>
					<polygon style="fill:#FFFFFF;" points="14.567,24.852 14.47,24.551 14.371,24.852 14.055,24.852 14.311,25.038 14.213,25.339 
						14.47,25.153 14.726,25.339 14.628,25.038 14.884,24.852 					"/>
					<polygon style="fill:#FFFFFF;" points="13.214,22.729 13.125,22.456 13.036,22.729 12.75,22.729 12.982,22.897 12.893,23.17 
						13.125,23.001 13.358,23.17 13.269,22.897 13.5,22.729 					"/>
					<polygon style="fill:#FFFFFF;" points="14.814,19.334 14.726,19.06 14.637,19.334 14.35,19.334 14.582,19.502 14.493,19.774 
						14.726,19.606 14.957,19.774 14.869,19.502 15.101,19.334 					"/>
					<polygon style="fill:#FFFFFF;" points="9.485,22.634 9.397,22.361 9.308,22.634 9.021,22.634 9.253,22.802 9.164,23.075 
						9.397,22.906 9.628,23.075 9.54,22.802 9.772,22.634 					"/>
					<polygon style="fill:#FFFFFF;" points="19.087,20.707 18.998,20.434 18.909,20.707 18.623,20.707 18.855,20.875 18.766,21.148 
						18.998,20.98 19.231,21.148 19.142,20.875 19.373,20.707 					"/>
					<polygon style="fill:#FFFFFF;" points="20.413,21.718 20.325,21.445 20.236,21.718 19.949,21.718 20.182,21.886 20.093,22.159 
						20.325,21.99 20.557,22.159 20.468,21.886 20.7,21.718 					"/>
					<polygon style="fill:#FFFFFF;" points="22.483,26.487 22.394,26.214 22.305,26.487 22.019,26.487 22.25,26.656 22.161,26.929 
						22.394,26.76 22.626,26.929 22.537,26.656 22.769,26.487 					"/>
					<polygon style="fill:#FFFFFF;" points="24.756,26.187 24.668,25.914 24.579,26.187 24.292,26.187 24.525,26.355 24.436,26.628 
						24.668,26.46 24.9,26.628 24.811,26.355 25.043,26.187 					"/>
					<polygon style="fill:#FFFFFF;" points="27.457,23.834 27.368,23.561 27.279,23.834 26.993,23.834 27.225,24.002 27.136,24.275 
						27.368,24.106 27.601,24.275 27.512,24.002 27.743,23.834 					"/>
					<polygon style="fill:#FFFFFF;" points="26.777,24.734 26.69,24.461 26.601,24.734 26.314,24.734 26.546,24.903 26.457,25.176 
						26.69,25.007 26.921,25.176 26.832,24.903 27.065,24.734 					"/>
					<polygon style="fill:#FFFFFF;" points="28.557,22.967 28.482,22.735 28.406,22.967 28.161,22.967 28.359,23.111 28.283,23.344 
						28.482,23.2 28.68,23.344 28.604,23.111 28.802,22.967 					"/>
					<polygon style="fill:#FFFFFF;" points="25.857,25.352 25.781,25.119 25.705,25.352 25.461,25.352 25.659,25.496 25.583,25.728 
						25.781,25.584 25.979,25.728 25.903,25.496 26.101,25.352 					"/>
					<polygon style="fill:#FFFFFF;" points="24.672,25.131 24.597,24.898 24.521,25.131 24.276,25.131 24.475,25.275 24.399,25.507 
						24.597,25.363 24.794,25.507 24.719,25.275 24.917,25.131 					"/>
					<polygon style="fill:#FFFFFF;" points="23.441,25.494 23.365,25.261 23.289,25.494 23.045,25.494 23.242,25.638 23.167,25.871 
						23.365,25.726 23.563,25.871 23.487,25.638 23.685,25.494 					"/>
					<polygon style="fill:#FFFFFF;" points="24.72,27.358 24.645,27.125 24.568,27.358 24.324,27.358 24.522,27.501 24.446,27.734 
						24.645,27.59 24.842,27.734 24.766,27.501 24.964,27.358 					"/>
					<polygon style="fill:#FFFFFF;" points="21.608,25.21 21.533,24.977 21.457,25.21 21.213,25.21 21.411,25.354 21.335,25.586 
						21.533,25.442 21.731,25.586 21.655,25.354 21.853,25.21 					"/>
					<polygon style="fill:#FFFFFF;" points="22.161,18.325 22.086,18.092 22.01,18.325 21.766,18.325 21.963,18.469 21.888,18.701 
						22.086,18.557 22.283,18.701 22.208,18.469 22.405,18.325 					"/>
					<polygon style="fill:#FFFFFF;" points="17.929,21.72 17.854,21.487 17.777,21.72 17.533,21.72 17.732,21.864 17.655,22.096 
						17.854,21.952 18.051,22.096 17.976,21.864 18.173,21.72 					"/>
					<polygon style="fill:#FFFFFF;" points="12.875,23.851 12.8,23.619 12.724,23.851 12.48,23.851 12.678,23.996 12.602,24.228 
						12.8,24.084 12.997,24.228 12.922,23.996 13.119,23.851 					"/>
					<polygon style="fill:#FFFFFF;" points="11.986,21.003 11.932,20.833 11.876,21.003 11.698,21.003 11.843,21.108 11.787,21.278 
						11.932,21.173 12.075,21.278 12.021,21.108 12.164,21.003 					"/>
					<polygon style="fill:#FFFFFF;" points="18.525,22.551 18.47,22.381 18.414,22.551 18.236,22.551 18.381,22.656 18.325,22.825 
						18.47,22.72 18.613,22.825 18.559,22.656 18.702,22.551 					"/>
					<polygon style="fill:#FFFFFF;" points="19.089,27.827 19.044,27.687 18.999,27.827 18.853,27.827 18.971,27.913 18.925,28.053 
						19.044,27.966 19.162,28.053 19.117,27.913 19.235,27.827 					"/>
					<polygon style="fill:#FFFFFF;" points="19.106,23.925 19.008,23.624 18.91,23.925 18.594,23.925 18.85,24.112 18.752,24.413 
						19.008,24.226 19.264,24.413 19.166,24.112 19.422,23.925 					"/>
					<polygon style="fill:#FFFFFF;" points="26.981,22.828 26.883,22.527 26.785,22.828 26.469,22.828 26.725,23.014 26.627,23.314 
						26.883,23.128 27.139,23.314 27.041,23.014 27.297,22.828 					"/>
				</g>
				<g>
					<path style="fill:#FFFFFF;" d="M16.424,14.482c-2.555-0.368-5.165-0.391-7.725-0.055c-0.253,0.564-0.462,1.151-0.611,1.751
						c2.979-0.477,6.04-0.451,9.011,0.081c2.812,0.503,5.542,1.461,8.051,2.828c1.657,0.903,3.219,1.981,4.651,3.211
						c0.185-0.585,0.311-1.193,0.389-1.802c-2.187-1.766-4.635-3.208-7.242-4.257C20.854,15.395,18.658,14.804,16.424,14.482z"/>
					<g>
						<path style="fill:#009C2D;" d="M8.95,14.877c-0.148,0.223-0.11,0.558,0.076,0.747c0.178,0.18,0.507,0.147,0.651-0.057
							c0.158-0.223,0.13-0.576-0.069-0.765C9.422,14.625,9.093,14.663,8.95,14.877z M9.58,15.491
							c-0.096,0.182-0.348,0.188-0.47,0.031c-0.122-0.157-0.146-0.41-0.049-0.585c0.096-0.172,0.344-0.188,0.467-0.038
							C9.656,15.055,9.674,15.315,9.58,15.491z"/>
						<path style="fill:#009C2D;" d="M11.09,15.007c0.138-0.243-0.099-0.432-0.327-0.418l-0.438,0.026l0.06,1.009l0.13-0.008
							l-0.026-0.437l0.318-0.019l0.231,0.425l0.146-0.008l-0.245-0.455C11.01,15.096,11.061,15.058,11.09,15.007z M10.773,15.059
							l-0.29,0.017l-0.021-0.358l0.307-0.018C11.056,14.683,11.045,15.043,10.773,15.059z"/>
						<path style="fill:#009C2D;" d="M12.118,14.545l-0.373,0.002l0.008,1.011l0.418-0.003c0.285-0.002,0.464-0.278,0.447-0.543
							C12.602,14.743,12.388,14.542,12.118,14.545z M12.388,15.333c-0.062,0.075-0.151,0.113-0.271,0.114l-0.226,0.002l-0.006-0.797
							l0.226-0.002C12.454,14.648,12.591,15.083,12.388,15.333z"/>
						<polygon style="fill:#009C2D;" points="13.175,15.564 13.894,15.595 13.898,15.483 13.318,15.459 13.334,15.096 
							13.781,15.114 13.785,15.011 13.338,14.993 13.352,14.671 13.915,14.695 13.92,14.584 13.217,14.555 						"/>
						<polygon style="fill:#009C2D;" points="14.989,15.478 14.733,14.642 14.527,14.621 14.431,15.627 14.548,15.639 14.632,14.76 
							14.911,15.674 15.005,15.683 15.448,14.839 15.364,15.717 15.499,15.73 15.596,14.725 15.393,14.705 						"/>
						<polygon style="fill:#009C2D;" points="16.877,15.93 17.585,16.059 17.605,15.949 17.034,15.846 17.099,15.487 17.54,15.567 
							17.559,15.466 17.117,15.386 17.175,15.07 17.73,15.17 17.75,15.061 17.058,14.936 						"/>
						<path style="fill:#009C2D;" d="M19.502,15.465l-0.381-0.1l-0.255,0.978l0.135,0.035l0.103-0.396l0.261,0.068
							c0.155,0.041,0.342-0.012,0.401-0.174C19.84,15.677,19.688,15.513,19.502,15.465z M19.64,15.811
							c-0.031,0.12-0.148,0.163-0.262,0.134l-0.247-0.064l0.099-0.377l0.257,0.067C19.595,15.599,19.669,15.696,19.64,15.811z"/>
						<path style="fill:#009C2D;" d="M20.817,15.847L20.4,15.715l-0.302,0.964l0.124,0.039l0.131-0.417l0.304,0.096l0.064,0.479
							l0.14,0.044l-0.068-0.512c0.147,0.003,0.283-0.103,0.287-0.255C21.083,15.996,20.957,15.89,20.817,15.847z M20.936,16.177
							c-0.039,0.123-0.164,0.149-0.274,0.113l-0.277-0.087l0.107-0.343l0.293,0.092C20.883,15.983,20.97,16.066,20.936,16.177z"/>
						<path style="fill:#009C2D;" d="M22.097,16.264c-0.567-0.212-0.937,0.775-0.369,0.984
							C22.294,17.458,22.668,16.475,22.097,16.264z M22.208,16.856c-0.07,0.188-0.251,0.392-0.47,0.285
							c-0.182-0.089-0.178-0.325-0.117-0.489c0.069-0.189,0.251-0.384,0.468-0.279C22.272,16.461,22.27,16.691,22.208,16.856z"/>
						<path style="fill:#009C2D;" d="M23.468,16.813c-0.306-0.132-0.609,0.097-0.687,0.395c-0.043,0.163-0.018,0.355,0.112,0.475
							c0.123,0.113,0.321,0.174,0.476,0.088l-0.015,0.132l0.078,0.033l0.207-0.48l-0.384-0.166l-0.042,0.097l0.252,0.109
							c-0.059,0.162-0.21,0.259-0.378,0.187c-0.182-0.079-0.212-0.28-0.157-0.452c0.051-0.156,0.162-0.338,0.343-0.352
							c0.183-0.014,0.343,0.155,0.313,0.336l0.133,0.026C23.74,17.038,23.656,16.895,23.468,16.813z"/>
						<path style="fill:#009C2D;" d="M24.826,17.467l-0.393-0.194l-0.447,0.906l0.116,0.058l0.194-0.393l0.285,0.141l-0.01,0.483
							l0.131,0.065l0.012-0.516c0.144,0.026,0.295-0.058,0.322-0.207C25.065,17.655,24.956,17.532,24.826,17.467z M24.891,17.811
							c-0.058,0.115-0.185,0.121-0.289,0.069l-0.26-0.129L24.5,17.43l0.276,0.137C24.868,17.612,24.942,17.707,24.891,17.811z"/>
						<polygon style="fill:#009C2D;" points="25.201,18.798 25.829,19.147 25.884,19.051 25.377,18.768 25.554,18.45 25.945,18.668 
							25.995,18.578 25.604,18.361 25.76,18.08 26.253,18.354 26.308,18.257 25.692,17.915 						"/>
						<path style="fill:#009C2D;" d="M27.103,18.71c-0.115-0.07-0.284-0.121-0.403-0.03c-0.161,0.122-0.096,0.322,0.026,0.443
							l0.163,0.16c0.125,0.121,0.059,0.327-0.13,0.298c-0.185-0.028-0.343-0.217-0.305-0.404l-0.12-0.044
							c-0.051,0.269,0.159,0.501,0.411,0.562c0.124,0.029,0.264-0.008,0.333-0.121c0.085-0.138,0.009-0.287-0.095-0.388
							l-0.153-0.147c-0.052-0.049-0.113-0.122-0.086-0.199c0.03-0.083,0.122-0.104,0.2-0.085c0.143,0.033,0.29,0.183,0.239,0.34
							l0.126,0.037C27.343,18.957,27.274,18.816,27.103,18.71z"/>
						<path style="fill:#009C2D;" d="M28.229,19.444c-0.12-0.082-0.305-0.141-0.427-0.029c-0.136,0.125-0.079,0.304,0.031,0.424
							l0.155,0.167c0.115,0.125,0.046,0.339-0.143,0.294c-0.183-0.043-0.336-0.229-0.287-0.42l-0.118-0.05
							c-0.062,0.264,0.135,0.515,0.385,0.582c0.123,0.033,0.261,0.004,0.338-0.105c0.094-0.134,0.022-0.286-0.077-0.392
							l-0.146-0.154c-0.049-0.052-0.107-0.128-0.076-0.203c0.029-0.07,0.106-0.095,0.176-0.083c0.154,0.026,0.312,0.194,0.251,0.358
							l0.124,0.043C28.457,19.703,28.395,19.559,28.229,19.444z"/>
						<path style="fill:#009C2D;" d="M29.384,20.282c-0.48-0.369-1.122,0.466-0.642,0.834
							C29.222,21.481,29.869,20.652,29.384,20.282z M29.316,20.881c-0.122,0.16-0.351,0.302-0.529,0.138
							c-0.142-0.13-0.084-0.344,0.011-0.482c0.111-0.161,0.337-0.314,0.522-0.173C29.495,20.497,29.432,20.73,29.316,20.881z"/>
					</g>
				</g>
			</g>
		</g>
	</g>
</g>
<g id="Layer_1">
</g>
</svg>
