<?xml version="1.0" encoding="iso-8859-1"?>
<!-- Generator: Adobe Illustrator 18.0.0, SVG Export Plug-In . SVG Version: 6.00 Build 0)  -->
<!DOCTYPE svg PUBLIC "-//W3C//DTD SVG 1.1//EN" "http://www.w3.org/Graphics/SVG/1.1/DTD/svg11.dtd">
<svg version="1.1" xmlns="http://www.w3.org/2000/svg" xmlns:xlink="http://www.w3.org/1999/xlink" x="0px" y="0px"
	 viewBox="0 0 38.018 38.017" style="enable-background:new 0 0 38.018 38.017;" xml:space="preserve">
<g id="Layer_510">
	<g id="Layer_516">
		<path style="fill:#C12A1A;" d="M38.018,19.009c0-2.132-0.356-4.261-1.061-6.274c-0.679-1.941-1.676-3.769-2.939-5.392
			c-1.253-1.61-2.765-3.017-4.46-4.15c-1.719-1.148-3.625-2.014-5.622-2.548c-2.079-0.556-4.251-0.752-6.396-0.588
			c-2.103,0.161-4.174,0.673-6.107,1.514C9.553,2.388,7.811,3.512,6.288,4.884C4.772,6.25,3.476,7.861,2.468,9.637
			c-1.028,1.81-1.754,3.788-2.139,5.833c-0.399,2.122-0.435,4.313-0.107,6.448c0.317,2.064,0.978,4.073,1.95,5.921
			c0.951,1.809,2.195,3.461,3.669,4.877c1.476,1.418,3.179,2.596,5.027,3.474c1.897,0.9,3.94,1.479,6.027,1.71
			c2.143,0.237,4.327,0.112,6.428-0.375c2.019-0.469,3.958-1.273,5.718-2.369c1.733-1.078,3.289-2.437,4.594-4.006
			c1.312-1.579,2.366-3.369,3.107-5.284c0.766-1.978,1.191-4.082,1.264-6.202C38.014,19.446,38.018,19.227,38.018,19.009z"/>
	</g>
	<g id="Layer_515">
		<polygon style="fill:#FFDF00;" points="12.085,10.369 10.658,5.975 9.231,10.369 4.611,10.369 8.349,13.083 6.921,17.477 
			10.658,14.762 14.395,17.477 12.968,13.083 16.705,10.369 		"/>
	</g>
	<g id="Layer_514">
		<polygon style="fill:#FFDF00;" points="22.215,3.643 21.154,4.854 19.675,4.219 20.498,5.602 19.437,6.812 21.007,6.457 
			21.83,7.84 21.978,6.237 23.547,5.881 22.068,5.246 		"/>
	</g>
	<g id="Layer_513">
		<polygon style="fill:#FFDF00;" points="27.2,8.473 25.758,9.187 24.633,8.036 24.867,9.629 23.424,10.344 25.012,10.613 
			25.245,12.206 25.992,10.78 27.579,11.05 26.454,9.899 		"/>
	</g>
	<g id="Layer_512">
		<polygon style="fill:#FFDF00;" points="26.116,15.829 25.614,14.3 25.121,15.832 23.512,15.837 24.816,16.779 24.323,18.312 
			25.623,17.362 26.928,18.304 26.427,16.775 27.726,15.825 		"/>
	</g>
	<g id="Layer_511">
		<polygon style="fill:#FFDF00;" points="22.159,18.732 21.15,19.986 19.646,19.415 20.527,20.762 19.519,22.016 21.071,21.594 
			21.953,22.941 22.032,21.333 23.585,20.911 22.08,20.34 		"/>
	</g>
</g>
<g id="Layer_1">
</g>
</svg>
