<?xml version="1.0" encoding="iso-8859-1"?>
<!-- Generator: Adobe Illustrator 18.0.0, SVG Export Plug-In . SVG Version: 6.00 Build 0)  -->
<!DOCTYPE svg PUBLIC "-//W3C//DTD SVG 1.1//EN" "http://www.w3.org/Graphics/SVG/1.1/DTD/svg11.dtd">
<svg version="1.1" xmlns="http://www.w3.org/2000/svg" xmlns:xlink="http://www.w3.org/1999/xlink" x="0px" y="0px"
	 viewBox="0 0 38.018 38.017" style="enable-background:new 0 0 38.018 38.017;" xml:space="preserve">
<g id="Layer_500">
	<g id="Layer_501">
		<g>
			<path style="fill:#9E0E1D;" d="M38.018,19.009c0-2.132-0.357-4.261-1.061-6.274c-0.679-1.941-1.677-3.769-2.939-5.392
				c-1.253-1.61-2.765-3.017-4.46-4.15c-1.719-1.148-3.625-2.014-5.622-2.548c-2.079-0.556-4.251-0.752-6.396-0.588
				c-2.103,0.161-4.174,0.673-6.108,1.514C9.553,2.388,7.811,3.512,6.288,4.884c-1.517,1.367-2.812,2.977-3.82,4.753
				c-1.028,1.81-1.754,3.788-2.139,5.833c-0.399,2.122-0.435,4.313-0.107,6.448c0.317,2.064,0.979,4.073,1.95,5.921
				c0.951,1.809,2.195,3.461,3.669,4.877c1.476,1.418,3.179,2.596,5.027,3.474c1.896,0.9,3.94,1.479,6.027,1.71
				c2.143,0.237,4.327,0.112,6.428-0.375c2.02-0.469,3.958-1.273,5.718-2.369c1.732-1.078,3.288-2.437,4.593-4.006
				c1.313-1.579,2.367-3.369,3.108-5.284c0.766-1.978,1.191-4.083,1.264-6.202C38.014,19.446,38.018,19.228,38.018,19.009z"/>
			<path style="fill:#0E1DAA;" d="M38.018,19.009c0-2.132-0.357-4.261-1.061-6.274c-0.679-1.941-1.677-3.769-2.939-5.392
				c-1.253-1.61-2.765-3.017-4.46-4.15c-1.719-1.148-3.625-2.014-5.622-2.548c-2.079-0.556-4.251-0.752-6.396-0.588
				c-2.103,0.161-4.174,0.673-6.108,1.514C9.553,2.388,7.811,3.512,6.288,4.884c-1.517,1.367-2.812,2.977-3.82,4.753
				c-1.028,1.81-1.754,3.788-2.139,5.833c-0.444,2.358-0.438,4.8,0.016,7.156c0.491,2.548,1.514,4.985,2.982,7.125h31.365
				C36.789,26.695,38.018,22.995,38.018,19.009z"/>
			<path style="fill:#F9BD00;" d="M19.009,0C8.511,0,0.001,8.51,0,19.008h38.018C38.017,8.51,29.507,0,19.009,0z"/>
		</g>
	</g>
</g>
<g id="Layer_1">
</g>
</svg>
