<svg width="173" height="82" xmlns="http://www.w3.org/2000/svg"><g transform="translate(-2 -2)" fill="#FF141A" fill-rule="evenodd"><path d="M68.84 32.903c.446-7.114-3.787-11.338-8.465-10.894-4.679.445-6.238 3.335-7.352 6.67-.223.889-2.896.667-5.347.222-2.228-.445-4.01-1.334-3.565-2.445 7.798-20.009 32.081-10.894 29.63 7.336-.89 6.225-6.683 17.563-14.257 26.678a19.11 19.11 0 0 0 14.035-6.003c.891-1.111 1.782-1.334 2.45-1.111.669.222.223 1.111 0 1.778-5.123 9.115-19.382 15.118-33.194 14.45a1.173 1.173 0 0 1-1.337-1.333c0-.89 1.56-1.779 2.896-2.89 14.927-9.782 24.06-24.233 24.507-32.458z"/><path d="M174.218 66.472c-8.02-15.117-3.565-35.348-2.896-41.573.445-3.112-6.684-6.224-7.13-6.224-.445 0-.668.222-.668.889-.223.667.891 14.006.223 17.34-10.917-.222-20.274 8.448-23.615 17.341a11.464 11.464 0 0 1-3.342 5.336 15.211 15.211 0 0 1-13.144 3.779 4.364 4.364 0 0 1-3.342-4.002c12.699-2.89 21.61-8.225 20.496-16.451-.668-4.669-6.015-8.003-14.035-4.669a26.915 26.915 0 0 0-13.813 16.452c-4.901.889-11.585-.89-21.165-4.002 15.372-2 31.859-11.783 31.859-18.897 0-10.449-17.155-11.116-32.081-7.78-4.001.867-7.837 2.368-11.362 4.445-.892.445-2.674 3.78-1.337 4.002 1.56.222 9.58-3.112 12.699-4.002a15.938 15.938 0 0 0-4.233 7.115 61.459 61.459 0 0 0-1.337 10.226c-1.281.1-2.55.323-3.787.667-.892 1.112-1.783 3.557-1.114 4.002 1.56.889 2.896 1.556 3.564 2 0 1.112-3.119 15.563-2.45 16.007a8.729 8.729 0 0 0 6.015-3.334c1.782-2.446 1.782-8.448 2.228-10.672a43.632 43.632 0 0 0 22.724 5.558 9.187 9.187 0 0 0 7.352 7.337 23.254 23.254 0 0 0 18.936-4.224 7.663 7.663 0 0 0 8.02 4.89c9.135 0 14.482-6.002 16.487-13.116a13.118 13.118 0 0 0 8.911 12.672c1.114.445 2.005-.222 1.337-1.112zm-39.21-22.676c.89 1.779-1.114 6.67-14.036 9.782 2.45-10.893 12.253-14.228 14.036-9.782zM92.233 28.234c12.03-2.445 22.056-1.556 21.387 5.113-.223 3.78-11.585 10.894-22.278 12.005 0-2.445.89-14.672.89-17.118zm55.473 33.57c-2.228-.223-3.119-4.002.223-9.782 4.233-7.559 10.471-11.338 15.595-11.56-1.337 10.893-6.46 22.009-15.818 21.342z" fill-rule="nonzero"/><path d="M45.225 78.477c-17.53.043-32.523-12.565-35.451-29.813-2.93-17.247 7.064-34.08 23.63-39.803 16.566-5.722 34.85 1.342 43.234 16.705a2.124 2.124 0 0 0 1.782 1.112c1.114-.222 1.114-1.334.669-2.223C70.114 6.63 49.47-2.021 30.434 4.065 11.397 10.153-.366 29.164 2.71 48.874c3.076 19.71 20.075 34.252 40.065 34.273 18.179.01 34.13-12.087 38.987-29.568 0 0 .446-1.556-.891-1.334-1.114 0-1.56 1.334-1.56 1.334-4.772 14.78-18.524 24.826-34.086 24.9z"/><path d="M34.754 69.585c-11.139.89-16.486-6.892-19.605-14.228-.445-.89 1.783-1.779 2.897.444 6.906 13.34 21.832 10.227 22.5.445.67-8.893-8.91-12.45-21.164-12.45-.223 0-.445 0-.445-.444.29-1.795.894-3.526 1.782-5.114.223-.222.223-.444.668-.444 9.803-1.334 15.15-4.669 14.481-11.56-.668-6.003-10.248-7.56-15.595-.445-.89 1.334-3.341 1.334-2.673.222 3.342-6.67 8.243-10.671 14.927-10.894 5.797-.176 10.706 4.233 11.139 10.005a14.931 14.931 0 0 1-8.689 13.56c10.026 1.78 15.372 10.227 13.145 18.453-2.228 8.004-8.466 12.228-13.368 12.45z"/></g></svg>