<svg width="176" height="127" xmlns="http://www.w3.org/2000/svg"><g fill="#4BCC1B" fill-rule="evenodd"><path d="M29.17 0C13.06 0 0 13.06 0 29.17s13.06 29.17 29.17 29.17 29.17-13.06 29.17-29.17S45.28 0 29.17 0zm0 41.505c-6.813 0-12.335-5.522-12.335-12.335 0-6.813 5.522-12.335 12.335-12.335 6.813 0 12.335 5.522 12.335 12.335 0 6.813-5.522 12.335-12.335 12.335zM87.832 0c-16.11 0-29.17 13.06-29.17 29.17s13.06 29.17 29.17 29.17 29.17-13.06 29.17-29.17S103.942 0 87.832 0zm0 41.505c-6.812-.004-12.33-5.528-12.328-12.34.003-6.811 5.526-12.332 12.338-12.33 6.811.001 12.333 5.523 12.333 12.335a12.335 12.335 0 0 1-12.343 12.335zM146.5 0c-16.11 0-29.17 13.06-29.17 29.17s13.06 29.17 29.17 29.17 29.17-13.06 29.17-29.17S162.61 0 146.5 0zm0 41.505c-6.813 0-12.336-5.522-12.336-12.335 0-6.813 5.523-12.335 12.336-12.335 6.813 0 12.335 5.522 12.335 12.335-.004 6.811-5.524 12.331-12.335 12.335z" opacity=".8"/><path d="M29.17 41.421C13.06 41.421 0 54.481 0 70.591s13.06 29.17 29.17 29.17 29.17-13.06 29.17-29.17-13.06-29.17-29.17-29.17zm0 41.513a12.343 12.343 0 1 1 12.335-12.343A12.335 12.335 0 0 1 29.17 82.935zm58.662-41.512c-16.11 0-29.17 13.059-29.17 29.17 0 16.11 13.06 29.17 29.17 29.17s29.17-13.06 29.17-29.17c0-16.111-13.06-29.171-29.17-29.171zm0 41.512c-6.817 0-12.344-5.526-12.344-12.343s5.527-12.343 12.344-12.343c6.817 0 12.343 5.527 12.343 12.344 0 6.816-5.527 12.342-12.343 12.342zM146.5 41.422c-16.11 0-29.17 13.059-29.17 29.17 0 16.11 13.06 29.17 29.17 29.17s29.17-13.06 29.17-29.17c0-16.111-13.06-29.171-29.17-29.171zm0 41.512a12.343 12.343 0 1 1 12.335-12.343c0 6.814-5.521 12.339-12.335 12.344z" opacity=".8"/><path d="M83.409 110.72l-1.936 1.2a8.134 8.134 0 0 0-6.888-3.328 7.943 7.943 0 0 0-5.716 2.227 7.292 7.292 0 0 0-2.295 5.425 7.713 7.713 0 0 0 1.033 3.895 7.423 7.423 0 0 0 2.892 2.84 8.747 8.747 0 0 0 10.966-2.296l1.936 1.27a9.129 9.129 0 0 1-3.658 3.183 11.631 11.631 0 0 1-5.226 1.125 10.353 10.353 0 0 1-7.476-2.862 9.313 9.313 0 0 1-2.97-6.97c-.01-1.801.469-3.57 1.385-5.12a9.795 9.795 0 0 1 3.827-3.697 11.096 11.096 0 0 1 5.433-1.331c1.237 0 2.466.196 3.643.582 1.07.341 2.075.859 2.976 1.53a8.157 8.157 0 0 1 2.074 2.326zm23.622-3.949v19h-2.41v-3.267a10.445 10.445 0 0 1-3.452 2.816 9.642 9.642 0 0 1-11.072-1.982 9.803 9.803 0 0 1-2.854-7.116 9.65 9.65 0 0 1 2.884-7.026 9.397 9.397 0 0 1 6.933-2.915 9.038 9.038 0 0 1 4.232.995 9.665 9.665 0 0 1 3.328 2.992v-3.497h2.411zm-9.772 1.89a7.423 7.423 0 0 0-6.52 3.826 7.69 7.69 0 0 0 0 7.652 7.484 7.484 0 0 0 2.763 2.847 7.208 7.208 0 0 0 3.726 1.025 7.552 7.552 0 0 0 3.827-1.018 7.101 7.101 0 0 0 2.77-2.732 7.859 7.859 0 0 0 .964-3.894 7.537 7.537 0 0 0-2.173-5.51 7.193 7.193 0 0 0-5.357-2.196zm24.824.19l-1.576 1.624c-1.306-1.271-2.582-1.906-3.827-1.906a2.916 2.916 0 0 0-2.035.765 2.418 2.418 0 0 0-.85 1.836c.014.652.26 1.277.697 1.76a9.848 9.848 0 0 0 2.938 2.013 10.927 10.927 0 0 1 3.711 2.717c.637.866.975 1.916.965 2.992a5.356 5.356 0 0 1-1.646 3.964 5.617 5.617 0 0 1-4.147 1.645 7.109 7.109 0 0 1-3.137-.72 6.887 6.887 0 0 1-2.48-1.966l1.531-1.752a5.356 5.356 0 0 0 4.01 2.142 3.604 3.604 0 0 0 2.51-.941 2.923 2.923 0 0 0 1.025-2.22 2.824 2.824 0 0 0-.681-1.866 10.797 10.797 0 0 0-3.061-2.02 9.948 9.948 0 0 1-3.505-2.625 4.959 4.959 0 0 1-.926-2.946 4.805 4.805 0 0 1 1.477-3.596 5.157 5.157 0 0 1 3.735-1.44c1.744-.02 3.502.827 5.272 2.54zm5.173-9.9a2.036 2.036 0 0 1 2.02 2.027 2.005 2.005 0 0 1-3.428 1.416 2.012 2.012 0 0 1 0-2.847 1.92 1.92 0 0 1 1.408-.597zm-1.209 7.82h2.44v19h-2.44v-19zm7.522 0h2.448v3.42a10.147 10.147 0 0 1 3.245-2.923 8.02 8.02 0 0 1 3.88-.972 6.769 6.769 0 0 1 3.78 1.087 6.481 6.481 0 0 1 2.433 2.916c.61 1.838.87 3.774.765 5.708v9.78h-2.433v-9.076a22.956 22.956 0 0 0-.268-4.385 4.828 4.828 0 0 0-1.63-2.839 4.92 4.92 0 0 0-3.145-.948 6.037 6.037 0 0 0-3.971 1.461 6.887 6.887 0 0 0-2.296 3.635 25.65 25.65 0 0 0-.344 5.173v6.963h-2.449l-.015-19zm30.807-.49a9.397 9.397 0 0 1 7.27 3.183 10.2 10.2 0 0 1-.146 13.82 10.04 10.04 0 0 1-14.271 0 10.17 10.17 0 0 1-.153-13.774 9.435 9.435 0 0 1 7.3-3.229zm0 2.395a7.055 7.055 0 0 0-5.211 2.28 7.545 7.545 0 0 0-2.196 5.449 7.713 7.713 0 0 0 1.003 3.826 7.086 7.086 0 0 0 2.7 2.755 7.698 7.698 0 0 0 7.461 0 7.086 7.086 0 0 0 2.702-2.755c.658-1.167 1-2.486.994-3.826a7.515 7.515 0 0 0-2.196-5.449 7.07 7.07 0 0 0-5.272-2.295l.015.015z"/></g></svg>