<svg xmlns="http://www.w3.org/2000/svg" width="176" height="25"><g fill="none" fill-rule="evenodd"><path fill="#EA303B" fill-rule="nonzero" d="M.409 9.877c2.195-.1 4.49-.3 6.884-.4V.3c5.088.3 9.977.2 14.766.998 4.29.698 5.886 5.587 3.292 8.58-.798.898-1.696 1.497-2.993.798-.998-.499-2.095-.598-3.193-.998.3-.2.699-.299.798-.498.4-.699.998-1.497.799-2.195-.2-.699-.998-1.597-1.696-1.696-1.696-.3-3.393-.3-5.089-.3-.299 0-.798.5-.798.898-.1 1.197 0 2.395 0 3.692 2.395.399 4.59.598 6.784 1.097 1.697.4 3.492.998 5.089 1.896 3.99 2.294 3.79 7.881-.3 10.076-1.396.798-3.092 1.197-4.789 1.297-3.79 0-7.582-.1-11.373-.1-1.097 0-1.297-.498-1.297-1.396V11.972c0-1.097-.2-1.696-1.497-1.696-1.795 0-3.591-.2-5.487-.399h.1zm12.57 1.497v6.883c0 .4.5 1.198.899 1.198 1.795.1 3.591.2 5.287-.1.998-.2 2.095-.998 2.594-1.896.599-1.097 0-2.294-.997-3.092-2.295-1.796-4.989-2.495-7.782-2.993z"/><path fill="#EA303B" d="M44.506 9.877v4.29c-2.494 0-4.988.1-7.482 0-1.497-.1-2.095.3-2.095 1.995.1 3.193 0 3.193 3.292 3.193h7.483v4.59H31.437c-.798 0-1.397 0-1.397-1.098V1.297c0-.1.1-.3.2-.599h14.965v4.39H38.22c-3.492.1-3.093-.698-3.193 3.292 0 1.098.3 1.497 1.397 1.397 2.594 0 5.288.1 8.081.1z"/><path fill="#000" fill-rule="nonzero" d="M76.93 24.144c-6.883 0-11.971-5.088-11.872-11.873C65.158 5.487 70.147.5 76.931.5c6.784 0 11.872 5.088 11.972 11.772.1 6.785-5.088 11.873-11.972 11.873zm8.281-11.773c0-4.988-3.392-8.68-8.18-8.78-4.79-.1-8.38 3.692-8.38 8.68 0 4.889 3.59 8.68 8.28 8.68 4.789.1 8.28-3.591 8.28-8.58z"/><path fill="#000" d="M92.395.698c5.188 5.089 10.176 10.077 15.364 15.265V.599h3.292v23.545c-5.188-5.388-10.076-10.376-14.965-15.464-.2.1-.399.2-.598.399v14.865h-3.193c.1-7.782.1-15.364.1-23.246zm46.092.2c5.188 4.988 10.276 9.977 15.464 14.965V.599h3.093v23.245c-5.088-4.988-10.076-9.877-15.364-15.064v15.164h-3.193V.898zm25.54 12.87v7.083H176v3.093h-15.464V.6h14.865v2.993h-11.373v6.983h10.575v3.193h-10.575z"/><path fill="#EA303B" d="M59.272 23.844h-5.188c0-.698-.1-1.297-.1-1.895V6.984c0-1.297-.399-1.796-1.696-1.696-1.596.1-3.093 0-4.789 0V.698h21.25c-1.296 1.397-2.593 2.993-4.09 4.29-.498.4-1.496.2-2.195.3-3.192 0-3.192 0-3.192 3.092v15.464z"/><path fill="#000" d="M114.443 23.944V.6h3.392V20.85h10.376v3.093h-13.768zM131.703.5h3.293v23.345h-3.293V.5z"/></g></svg>