<svg xmlns="http://www.w3.org/2000/svg" width="176" height="45" viewBox="0 0 176 45"><g fill="#C42126"><path d="M13.216 35.007C5.996 35.007 0 30.042 0 23.66V1.934C0 .774 1.096 0 2.192 0c3.094 0 5.931 2.256 5.931 5.093v8.188c1.999-1.16 4.448-1.806 6.254-1.806H22.5c7.156 0 13.151 5.029 13.151 11.411v.71c0 6.382-5.995 11.41-13.151 11.41h-9.284zm8.768-16.956h-7.027c-4.32 0-6.77 2.386-6.77 5.287v.322c0 2.643 2.321 4.9 5.545 4.9h8.252c3.223 0 5.544-2.192 5.544-4.9v-.71c0-2.707-2.32-4.899-5.544-4.899z"/><path d="M48.223 35.007c-7.22 0-13.216-4.836-13.216-11.09v-.708c0-6.19 5.995-11.089 13.216-11.089h9.283c7.156 0 13.152 4.835 13.152 11.089v.709c0 6.189-5.996 11.089-13.152 11.089h-9.283zm8.767-16.44h-8.316c-3.288 0-5.544 2.128-5.544 4.706v.71c0 2.578 2.32 4.706 5.544 4.706h8.252c3.223 0 5.544-2.128 5.544-4.707v-.709c.065-2.578-2.32-4.706-5.48-4.706z"/><path d="M83.165 35.007c-7.22 0-13.216-5.029-13.216-11.411v-.645c0-6.383 5.995-11.411 13.216-11.411h8.123c1.805 0 4.255.645 6.189 1.805V5.093c0-2.837 2.837-5.093 5.996-5.093 1.095 0 2.127.774 2.127 1.934V23.66c0 6.382-5.996 11.411-13.152 11.411h-9.283v-.064zm7.478-16.956h-6.962c-3.288 0-5.545 2.192-5.545 4.9v.71c0 2.642 2.321 4.899 5.545 4.899h8.252c3.223 0 5.544-2.192 5.544-4.9v-.322c0-2.901-2.45-5.287-6.834-5.287z"/><path d="M118.623 35.007c-7.22 0-13.216-4.836-13.216-11.09v-.708c0-6.19 5.995-11.089 13.216-11.089h9.283c7.156 0 13.152 4.835 13.152 11.089v.709c0 6.189-5.996 11.089-13.152 11.089h-9.283zm8.767-16.44h-8.252c-3.287 0-5.544 2.128-5.544 4.706v.71c0 2.578 2.321 4.706 5.544 4.706h8.252c3.224 0 5.545-2.128 5.545-4.707v-.709c0-2.578-2.321-4.706-5.545-4.706z"/><path d="M161.688 35.587h-8.123c-7.22 0-13.216-5.029-13.216-11.347v-.709c0-6.318 5.995-11.346 13.216-11.346h9.283c7.156 0 13.152 5.028 13.152 11.346v9.348c0 6.318-5.996 11.347-13.152 11.347h-11.41c-2.644 0-5.545-2.257-5.545-4.578 0-1.16 1.032-1.934 2.128-1.934h14.247c2.772 0 4.9-1.676 5.416-3.868-1.87 1.096-4.255 1.74-5.996 1.74zm.645-16.891h-8.252c-3.288 0-5.545 2.192-5.545 4.835v.71c0 2.643 2.321 4.834 5.545 4.834h6.962c4.384 0 6.834-2.385 6.834-5.222v-.322c0-2.643-2.321-4.835-5.544-4.835z"/></g></svg>