<svg xmlns="http://www.w3.org/2000/svg" width="176" height="42"><path fill="#47BBBA" fill-rule="evenodd" d="M9.275 23.42v2.3a7.913 7.913 0 0 0 .566 3.904c1.285 3.265 3.67 4.984 7.237 5.204 2.921.178 5.535-.8 7.829-2.578a7.92 7.92 0 0 0 2.33-2.586c1.15-2.19 1.788-4.622 3.019-6.806a22.237 22.237 0 0 1 4.67-5.766c.939-.836 2.081-1.398 2.965-2.296l.073-.03c.216-.045.43-.102.64-.171 1.898-.69 3.724-1.665 5.841-1.432.22-.02.436-.063.647-.127 1.774-.194 3.553-.183 5.24.463 1.497.574 2.98 1.15 3.8 2.783.329.518.499 1.12.49 1.734a.938.938 0 0 1-1.241.873 15.96 15.96 0 0 0-3.626-.917 13.441 13.441 0 0 0-6.646.705 10.677 10.677 0 0 0-3.111 1.877c-2.538 2.048-3.765 4.809-4.305 7.873a7.624 7.624 0 0 0 .292 3.808c.42 1.227.913 1.826 2.19 2.03 1.644.241 3.587-.617 4.259-2.096a29.128 29.128 0 0 0 1.46-4.287 12.247 12.247 0 0 1 1.293-3.362 5.638 5.638 0 0 1 6.017-2.378c.438.103 1.026.252 1.015.848-.01.595.125 1.186-.24 1.792-.232.45-.43.916-.592 1.395-.551 1.359-.628 2.805-.96 4.196-.223.924-.157 1.986.73 2.71a.084.084 0 0 1 .047.112c.227.815.84 1.005 1.585.986h.5a2.808 2.808 0 0 0 2.666-1.53 7.781 7.781 0 0 1 2.706-2.892 2.14 2.14 0 0 1 2.209-.084c.73.395.365 1.198.365 1.826 0 .135-.12.27-.15.416-.248 1.304.782 3.097 2.041 3.316 1.26.219 2.454.445 3.728.073.986-.285 1.804-.73 2.213-1.654.57-1.26.04-2.41-.818-3.287a6.38 6.38 0 0 0-2.04-1.318 17.57 17.57 0 0 1-3.408-2.004c-1.65-1.205-2.5-2.922-2.844-4.944-.457-2.67.818-5.92 3.155-7.216 1.603-.887 3.22-1.96 5.232-1.716.074.01.149.01.223 0 2.53-.438 4.977-.285 7.303.928.862.449 1.22.34 1.734-.53.87-1.46 2.29-2.25 3.688-3.042.37-.233.776-.404 1.202-.503a14.171 14.171 0 0 1 4.823-.216 8.114 8.114 0 0 1 4.017 1.683c2.129 1.764 2.581 4.306 2.034 6.894a25.838 25.838 0 0 1-1.826 5.065 39.932 39.932 0 0 0-2.458 6.963 4.816 4.816 0 0 0-.076 1.549c.091 1.073.99 1.617 2.037 1.46 1.333-.212 2.166-1.095 2.921-2.045a19.634 19.634 0 0 0 2.75-4.381c.486-1.096.957-2.232 1.333-3.367a36.591 36.591 0 0 0 1.344-4.93c.28-1.526.401-3.063.602-4.593.043-.373.263-.702.592-.884 1.157-.73 4.725.059 5.411 1.253.686 1.194 1.373 2.483 1.128 3.987.106 1.976-.599 3.78-1.245 5.58-.858 2.384-2.063 4.633-2.895 7.032a2.06 2.06 0 0 0 .533 2.319c.566.482 1.825.5 2.603.088 1.862-1.02 2.815-2.78 3.688-4.572a28.777 28.777 0 0 0 2.224-7.047c.417-1.919.604-3.88.559-5.843-.066-1.511.456-2.19 1.971-2.417 1.46-.226 2.801-.146 4.017.73 1.15.836 1.413 2.114 1.687 3.385.055.248-.026.522.186.833.453-.522.92-1.008 1.33-1.538a11.995 11.995 0 0 1 4.231-3.498 7.025 7.025 0 0 1 6.273-.168 3.841 3.841 0 0 1 2.085 2.724c.038.363.2.702.457.96a12.382 12.382 0 0 1 3.052-2.92 8.968 8.968 0 0 1 6.825-1.242c1.724.365 3.159 1.417 3.622 3.447a10.59 10.59 0 0 1 .033 4.236c-.467 2.804-1.826 5.188-3.03 7.668a32.666 32.666 0 0 0-1.67 3.812c-.397 1.194.366 1.826 1.282 1.764 1.581-.103 2.78-.862 3.864-1.921a8.073 8.073 0 0 0 1.749-2.947 16.716 16.716 0 0 1 2.472-4.542c1.23-1.501 2.8-2.498 4.801-2.659.149-.012.298-.012.446 0 1.435.165 2.074 1.154 1.387 2.429-1.026 1.895-1.263 3.914-1.146 5.98.066 1.118.095 2.276.679 3.327.643 1.161 1.873 1.625 3.067 1.034 1.643-.811 2.637-2.239 3.429-3.79a14.788 14.788 0 0 0 1.654-5.697c.077-1.095.263-2.19 0-3.308a4.805 4.805 0 0 0-4.674-3.849c-1.46-.073-2.888-.025-4.272.574a2.428 2.428 0 0 1-1.632.186c-.957-.27-1.253-.964-.785-1.851.777-1.461 2.169-2.242 3.59-2.812a15.72 15.72 0 0 1 7.368-1.194 8.603 8.603 0 0 1 5.535 2.647c3.232 3.33 3.619 7.372 2.775 11.685-.8 4.082-2.866 7.46-5.919 10.246a14.909 14.909 0 0 1-5.992 3.436c-3.231.927-6.306.77-9.165-1.19a7.723 7.723 0 0 1-1.91-2.122c-.441-.643-.518-.683-1.095-.168a15.15 15.15 0 0 1-5.262 3.213c-2.6.899-5.302 1.198-7.934.205-1.793-.68-2.713-2.191-2.921-4.086-.22-2.03.478-3.896 1.183-5.715 1.018-2.629 2.22-5.185 3.344-7.774.136-.386.196-.795.176-1.205.033-1.117-.22-1.289-1.333-.978-1.245.343-2.056 1.252-2.892 2.14-1.515 1.606-2.527 3.538-3.498 5.477a37.924 37.924 0 0 0-2.604 6.937c-.273 1.008-.671 2.038-.591 3.137.051.73-.318 1.3-.683 1.851a1.37 1.37 0 0 1-.862.647c-3.37.613-5.952-1.333-5.948-4.52.046-1.779.41-3.534 1.077-5.182.566-1.527 1.223-3.016 1.852-4.52.072-.126.16-.242.259-.348.53-.288.474-.887.69-1.34.489-.994.856-2.044 1.095-3.125.187-.877-.452-1.768-1.095-1.498-.77.318-1.607.53-2.238 1.173-1.855 1.902-3.155 4.148-4.247 6.543a42.463 42.463 0 0 0-2.768 8.15c-.182.785-.496 1.545-.555 2.359-.113 1.57-.818 2.22-2.406 2.275a4.437 4.437 0 0 1-3.812-1.859c-.807-1.026-.796-1.015-1.884-.252-1.972 1.384-4.072 2.388-6.573 2.107h-.336c-1.556-.128-2.888-.624-3.882-1.957-.478-.643-.693-1.424-1.245-2.081-.482.416-.956.766-1.362 1.186-.915.93-1.99 1.688-3.173 2.239-.347.171-.73.153-1.066.295a6.857 6.857 0 0 1-4.25.14c-1.782-.432-2.87-1.775-3.487-3.437a9.998 9.998 0 0 1-.537-5.112 23.216 23.216 0 0 1 1.314-5.218c.322-.818.519-1.687.774-2.53l.063-.285c.624-.106.408-.73.595-1.096a23.453 23.453 0 0 0 1.734-4.746 2.041 2.041 0 0 0-.186-1.497c-.789-1.545-3.987-2.111-5.24-.27a5.068 5.068 0 0 0-.796 2.818c-.025 1.096-.2 2.133-1.172 2.848-.365.278-.73.58-1.095.888-.672.577-1.512.504-2.283.493-.514 0-.785-.515-.803-1.052 0-.45.022-.898 0-1.34-.102-1.483-.69-2.666-2.19-3.17a6.31 6.31 0 0 0-2.057-.383c-1.668 0-3.081 1.373-2.621 3.286.336 1.377 1.35 2.136 2.472 2.797 1.46.862 3.016 1.52 4.454 2.429 1.874 1.186 2.72 2.873 2.823 4.991a7.573 7.573 0 0 1-1.183 4.287 9.786 9.786 0 0 1-3.732 3.728 12.893 12.893 0 0 1-6.762 1.742c-.895 0-1.793.058-2.68 0-1.753-.146-3.433-.599-4.802-1.757-.497-.423-.891-.496-1.355-.124a10.79 10.79 0 0 1-2.19 1.264c-1.637.792-3.375.77-5.113.53a3.436 3.436 0 0 1-1.825-.782 5.733 5.733 0 0 1-1.538-2.355c-.255-.669-.588-.782-.967-.267-.807 1.095-1.94 1.753-3.082 2.326a10.59 10.59 0 0 1-3.783 1.154 29.672 29.672 0 0 1-3.016 0 5.17 5.17 0 0 1-2.662-.646c-1.205-.753-2.425-1.549-3.075-2.958-.365-.77-.821-.796-1.519-.31-.39.339-.8.658-1.223.956-1.6.902-3.162 1.79-5.01 2.213-1.661.365-3.286.81-4.998.77-.932-.025-1.863 0-2.794 0a5.952 5.952 0 0 1-1.46-.04c-2.1-.566-4.178-1.132-6.044-2.377a11.374 11.374 0 0 1-3.965-4.539 14.99 14.99 0 0 1-1.621-5.922.365.365 0 0 0-.278-.31 6.291 6.291 0 0 1-.05-2.45c.488-.125.317-.527.328-.83.033-.781-.15-1.62.084-2.33.66-2.011 1.059-4.093 1.873-6.079A37.186 37.186 0 0 1 8.15 7.171c.785-.985 1.826-1.727 2.501-2.808a.131.131 0 0 1 .146-.09c.899.083 1.395-.687 1.954-1.096A16.851 16.851 0 0 1 17.819.62C20.3-.23 22.807.066 25.312 0c.184.005.365.047.533.124 1.019.42 2.07.701 3.06 1.249 2.048 1.14 3.286 2.84 4.071 4.977.54 1.482.45 2.921.037 4.444-.69 2.556-2.067 4.462-4.382 5.762-1.669.942-3.462 1.172-5.331 1.077a4.721 4.721 0 0 1-1.603-.394c-.957-.41-1.14-1.297-.46-2.067.244-.278.518-.533.785-.793 1.38-1.321 2.129-2.873 2.012-4.849-.102-1.8-1.267-3.005-3.05-3.089-1.423-.07-2.555.588-3.683 1.264-1.399.828-2.36 2.1-3.287 3.37-.485.66-1.124 1.26-1.205 2.154a.117.117 0 0 1-.054.135c-.401.109-.711.426-.811.83a26.674 26.674 0 0 1-1.249 2.92 14.74 14.74 0 0 0-1.42 6.306z"/></svg>