<svg height="31" viewBox="0 0 176 31" width="176" xmlns="http://www.w3.org/2000/svg"><g fill="#191c24"><path d="m175.938 14.625c-.342 3.37-1.919 6.096-4.39 8.322-.59.536-.682.982-.329 1.697.612 1.248 1.144 2.526 1.665 3.816.37.927.15 1.597-.541 1.801-.832.246-1.228-.262-1.51-.907-.833-1.872-1.632-3.745-2.464-5.617a1.315 1.315 0 0 1 .45-1.73 15.748 15.748 0 0 0 1.805-1.594c2.863-3.187 4.011-6.849 2.351-10.922-1.66-4.074-4.789-6.375-9.278-6.537-2.497-.087-4.972-.025-7.46-.054a8.946 8.946 0 0 1 -1.731-.175 1.032 1.032 0 0 1 -.862-1.119c.032-.534.433-.973.961-1.053.072-.015.144-.025.217-.029 3.936.125 7.943-.582 11.787.52 5.051 1.452 8.255 4.781 9.229 10.078.079.42.12 3.312.1 3.503zm-89.061 5.842v-17.1c-.014-.658.013-1.315.083-1.969a.953.953 0 0 1 .894-.832 1.053 1.053 0 0 1 1.186.803c.085.355.112.722.08 1.086v19.971a5.13 5.13 0 0 1 0 .878c-.184 1.007-.87 1.382-1.74.87a12.066 12.066 0 0 1 -1.727-1.34 8968.898 8968.898 0 0 1 -19.663-16.897c-.541-.461-.966-1.119-1.756-1.248-.416.69-.217 1.44-.22 2.151-.017 6.957-.017 13.914 0 20.87.017.513.007 1.025-.03 1.536a1.073 1.073 0 0 1 -1.157 1.07c-.724 0-1.027-.483-1.131-1.112a6.37 6.37 0 0 1 -.05-1.094c-.022-8.419-.04-16.839-.05-25.26-.027-.437 0-.876.083-1.306.254-.937 1.04-1.249 1.86-.716.598.42 1.166.88 1.702 1.377 6.712 5.792 13.417 11.584 20.113 17.376.394.457.93.77 1.523.886zm-55.763-10.244v-7.49c-.008-.5.052-1 .179-1.485a1.082 1.082 0 0 1 2.018.088c.093.577.129 1.162.108 1.747 0 4.469-.041 8.937 0 13.406.075 5.367 3.208 9.64 8.039 11.122 6.77 2.08 13.955-2.796 14.3-9.886.22-4.602.075-9.229.092-13.843v-1.756c0-.832.308-1.519 1.215-1.502s1.206.7 1.248 1.519v.44c0 4.91.083 9.82-.067 14.726-.183 6.154-4.085 11.142-10.023 12.673a13.403 13.403 0 0 1 -17.071-12.286c-.08-2.497 0-4.993 0-7.49zm69.701 20.15h-6.457c-1.27 0-1.781-.416-1.665-1.185.146-1.132 1.028-1.061 1.84-1.061 3.444 0 6.885.02 10.326 0a12.582 12.582 0 0 0 12.304-9.699c1.855-7.41-3.633-14.979-11.255-15.449-2.114-.129-4.244-.033-6.366-.07-1.506-.03-1.985-.321-2.03-1.137-.055-.907.465-1.277 2.105-1.248 2.704.059 5.409-.241 8.105.292a14.95 14.95 0 0 1 .042 29.354c-2.497.47-4.993.112-6.949.204zm-92.568 0h-5.709a6.549 6.549 0 0 1 -1.29-.079.961.961 0 0 1 -.803-.936 1.007 1.007 0 0 1 .803-1.14 7.215 7.215 0 0 1 1.531-.091h9.662c6.936-.038 12.428-4.94 12.86-11.858.48-6.608-4.308-12.43-10.884-13.236-2.08-.224-4.24-.096-6.362-.125-.512.018-1.024.007-1.535-.033-.707-.096-1.302-.416-1.248-1.248.054-.832.645-1.124 1.385-1.103 2.98.088 5.983-.258 8.967.308 7.489 1.436 12.578 8.23 11.962 16.036a14.829 14.829 0 0 1 -14.272 13.506c-1.664.037-3.366 0-5.05 0h-.017z"/><path d="m5.292 15.395c0-2.709-.024-5.41 0-8.13 0-1.627.313-1.964 1.927-1.927 2.625.063 5.267-.312 7.872.325 5.051 1.248 8.168 5.592 7.664 10.768a10.169 10.169 0 0 1 -9.857 9.124c-.732 0-1.468 0-2.197-.045a.97.97 0 0 1 -.957-1.007.994.994 0 0 1 .878-1.086c.708-.117 1.444-.063 2.176-.117a8.034 8.034 0 0 0 7.465-8.03 7.564 7.564 0 0 0 -6.241-7.431c-1.748-.333-3.504-.075-5.255-.187-.895-.059-1.082.499-1.074 1.248v14.284a6.611 6.611 0 0 1 -.125 1.518c-.12.526-.618.875-1.152.808a1.028 1.028 0 0 1 -1.078-.903 8.979 8.979 0 0 1 -.058-1.536c.006-2.552.01-5.11.012-7.676zm92.215-.046v-8.122c0-1.664.246-1.868 1.935-1.893 1.902-.033 3.803-.066 5.704 0 5.576.2 9.895 4.627 9.853 10.032-.014 5.624-4.573 10.178-10.198 10.185a17.321 17.321 0 0 1 -1.972-.058.957.957 0 0 1 -.882-1.07.978.978 0 0 1 .932-1.035c.724-.071 1.46-.034 2.188-.1 5.089-.462 8.584-5.53 7.032-10.257-.949-2.891-3.025-4.576-5.979-5.205-1.664-.357-3.358-.075-5.03-.191-1.074-.075-1.36.478-1.353 1.477.038 4.535 0 9.07 0 13.61v1.535c-.024.757-.332 1.282-1.177 1.248-.72-.029-1.015-.499-1.053-1.16-.02-.437-.02-.878-.02-1.32zm-46.463-5.887v-6.812a7.693 7.693 0 0 1 0-.878 1.173 1.173 0 0 1 1.103-1.165 1.136 1.136 0 0 1 1.219 1.032c.063.436.083.876.062 1.315 0 4.319 0 8.642-.054 12.965-.029 2.621-.516 5.122-2.496 7.048-2.605 2.53-5.709 3.254-9.116 2.08-3.408-1.173-5.439-3.744-5.66-7.376-.22-3.633-.07-7.323-.09-10.985 0-.744.232-1.344 1.056-1.394.986-.062 1.215.65 1.223 1.453v8.13c-.03.952.035 1.906.192 2.846.695 3.495 3.383 5.766 6.578 5.533s5.7-2.804 5.862-6.316c.117-2.496.025-4.992.025-7.468zm108.696 10.755h-4.161c-1.377 0-2.005-.379-2.018-1.136-.02-.857.657-1.298 2.13-1.315h6.15c.662 0 1.319 0 1.976-.037a5.172 5.172 0 0 0 4.943-4.714c.196-2.343-1.776-5.018-4.264-5.41-2.605-.394-5.26-.128-7.906-.124-.666 0-.853.474-.861 1.036v3.07c.011.513-.011 1.026-.067 1.536a.832.832 0 0 1 -.874.795.915.915 0 0 1 -.832-.866 4.352 4.352 0 0 1 -.033-.657c0-1.83-.025-3.662 0-5.492.025-1.432.125-1.556 1.473-1.573 2.912-.038 5.858-.096 8.783 0 3.832.137 6.899 3.55 6.857 7.46-.041 4.061-2.97 7.227-6.89 7.394-1.46.083-2.942.033-4.406.033zm-90.934-5.155c-.449.503-.237 1.107-.237 1.664 0 3.745 0 7.49.034 11.205.01.439-.003.878-.042 1.315-.067.666-.416 1.115-1.132 1.07a1.09 1.09 0 0 1 -1.077-1.157c-.03-.441-.025-.882-.025-1.32v-14.286-.658c0-.661-.03-1.373.661-1.743.832-.441 1.377.112 1.94.59l12.997 11.164 5.168 4.431c.45.374.877.775 1.277 1.203a.957.957 0 0 1 0 1.385 1.053 1.053 0 0 1 -1.385.275c-.55-.361-1.07-.767-1.552-1.215-5.112-4.386-10.227-8.77-15.345-13.152-.383-.317-.65-.853-1.282-.77zm80.32.333v-12.305c-.02-.512-.002-1.025.054-1.535a1.094 1.094 0 0 1 1.023-.994c.7-.059 1.078.416 1.215 1.027.067.438.086.882.059 1.324v25.048c.018.51-.014 1.02-.096 1.523-.076.538-.562.92-1.103.866a1.036 1.036 0 0 1 -1.09-.887 8.575 8.575 0 0 1 -.058-1.535c-.003-4.194-.004-8.371-.004-12.532zm-12.653 10.514c-2.268 0-4.54.03-6.807 0-1.552-.025-1.748-.237-1.773-1.806a177.992 177.992 0 0 1 0-6.145c.025-1.344.23-1.585 1.502-1.606 2.78-.046 5.56 0 8.343 0 .29-.007.58.035.857.125a.97.97 0 0 1 .666 1.019.915.915 0 0 1 -.787.92 8.908 8.908 0 0 1 -1.527.087c-1.83 0-3.661-.02-5.488 0-1.394.029-1.402.062-1.44 1.54-.02.732-.024 1.464 0 2.196.046 1.436.055 1.481 1.49 1.49 3.587.029 7.173 0 10.76 0h1.756c.707 0 1.381.137 1.41 1.007.038 1.015-.724 1.152-1.498 1.156h-7.464zm.27-20.629h6.583c.51-.015 1.02.03 1.518.137a.89.89 0 0 1 .612 1.032c0 .38-.256.712-.624.807a9.303 9.303 0 0 1 -1.735.146h-11.193c-1.847 0-1.876.025-1.876 1.756 0 2.991-.337 2.692 2.688 2.708h4.61c.435 0 .87.047 1.294.142a.865.865 0 0 1 .64.803.97.97 0 0 1 -.594 1.057 1.519 1.519 0 0 1 -.633.15h-9a1.02 1.02 0 0 1 -1.119-1.086c0-2.197-.025-4.39 0-6.583 0-1.02.803-1.073 1.573-1.073zm-13.526 7.926v-10.31c0-.932-.2-2.022 1.065-2.33.803-.196 1.223.624 1.248 2.355v20.62c.016.44-.003.88-.058 1.315a1.04 1.04 0 0 1 -.97 1.016c-.711.041-1.077-.416-1.19-1.045a8.53 8.53 0 0 1 -.075-1.53c-.019-3.363-.026-6.726-.02-10.09zm36.306 9.374c1.46 0 2.913.05 4.386-.02 1.102-.054 1.772.324 2.188 1.373.62 1.56 1.357 3.07 2.018 4.61.292.674.254 1.34-.478 1.69-.732.349-1.277.032-1.614-.654-.546-1.115-1.111-2.222-1.577-3.37a1.664 1.664 0 0 0 -1.827-1.186 100.14 100.14 0 0 1 -5.7 0c-.924 0-1.357.328-1.29 1.281.046.654.042 1.315.033 1.973.01.434-.03.868-.116 1.293a1.02 1.02 0 0 1 -1.182.804.89.89 0 0 1 -.965-.953v-5.7c0-.858.557-1.111 1.306-1.116h4.818zm-159.107-9.802v-9.865a10.64 10.64 0 0 1 .034-1.333 1.049 1.049 0 0 1 1.214-1.01c.534.033.948.48.94 1.015.038.442.052.885.042 1.328v20.425c.013.437-.004.875-.05 1.31a.936.936 0 0 1 -1.057.874.994.994 0 0 1 -1.077-.886 11.1 11.1 0 0 1 -.046-1.536zm94.483.195v9.911c0 .512 0 1.024-.021 1.535a1.061 1.061 0 0 1 -1.103 1.12c-.716.033-1.07-.379-1.115-1.065-.033-.437-.033-.878-.033-1.32v-20.211c-.011-.512.015-1.024.079-1.532a.97.97 0 0 1 .907-.832 1.024 1.024 0 0 1 1.173.774c.1.501.135 1.013.104 1.523.011 3.354.014 6.72.009 10.098zm39.423 17.4h-8.738c-.512 0-1.023 0-1.531-.062a.832.832 0 0 1 -.736-.711 1.003 1.003 0 0 1 .515-1.107c.52-.358 1.132-.229 1.702-.229h17.737a5.659 5.659 0 0 1 1.503.162.928.928 0 0 1 .665 1.011.882.882 0 0 1 -.811.882c-.509.054-1.02.072-1.531.055h-8.775zm2.334-27.64h-6.566a7.647 7.647 0 0 1 -1.523-.153.911.911 0 0 1 -.682-.995.895.895 0 0 1 .749-.953 7.71 7.71 0 0 1 1.519-.116h13.131a6.574 6.574 0 0 1 1.51.146c.45.11.741.544.674 1.002a.882.882 0 0 1 -.724.953 8.475 8.475 0 0 1 -1.522.117c-2.172.004-4.378 0-6.566 0zm-52.322 4.953v5.026c.027.436-.004.874-.091 1.302-.113.527-.61.878-1.144.808a.961.961 0 0 1 -.932-.778 6.478 6.478 0 0 1 -.109-1.303v-10.057c0-.832-.2-1.864 1.007-2.106.832-.166 1.249.545 1.249 2.08.033 1.673.02 3.35.02 5.027z"/></g></svg>