<svg xmlns="http://www.w3.org/2000/svg" width="176" height="49"><g fill="#BC935C" fill-rule="evenodd"><path d="M19.983 26.873c-.204-.108-.415.125-.623 0a1.66 1.66 0 0 0-.307-1.623 2.545 2.545 0 0 1-.465-1.478.776.776 0 0 0-.203-.56 6.704 6.704 0 0 1-1.05-1.74.457.457 0 0 1-.059-.319 2.49 2.49 0 0 0-.083-1.274 1.112 1.112 0 0 1 .158-.988c.39-.435.424-1.082.083-1.557 1.021-.647 1.893-1.394 2.196-2.602.228 0 .278.245.477.257.228-.158.175-.415.25-.668.17 0 .232.187.414.249.507-.166.943.07 1.387.36.9.59 1.801 1.184 2.74 1.711.768.422 1.486.929 2.141 1.511.15.126.289.265.415.415a.913.913 0 0 1-.83 1.478 4.628 4.628 0 0 0-1.772.02c-.534.061-1.071.074-1.607.038.043.219.157.417.324.565a9.506 9.506 0 0 0 1.557 1.444c.614.473 1.245.946 1.851 1.411a6.82 6.82 0 0 1 2.37 3.678c.363 1.314.504 2.679.415 4.039-.007.247.035.492.125.722.34.869.49 1.8.44 2.732-.018.28.011.56.087.83.124.465.228.938.344 1.415a26.495 26.495 0 0 0-2.81 3.566c-.299-.062-.465.24-.705.353a.739.739 0 0 1-.308-.312.785.785 0 0 1 .461-1.286 2.046 2.046 0 0 0 1.246-1.071c.382-.64.53-1.393.415-2.13a2.026 2.026 0 0 0-1.785-1.569l-.179-.025c-.091-.062 0-.14-.066-.203a.51.51 0 0 0-.112 0 5.973 5.973 0 0 0-1.681 1.063c-.233.178-.461.36-.694.53-.445.348-.97.58-1.527.673-.604.09-1.19.273-1.74.54a.938.938 0 0 0-.622.975c0 .58-.142 1.15-.415 1.66a9.265 9.265 0 0 0-.76 1.844 3.358 3.358 0 0 0 0 1.154c.229-.133-.02-.357.162-.457.075 0 .104.038.116.087a5.994 5.994 0 0 0 1.57 2.748c.585.648 1.187 1.287 1.73 1.972.256.296.443.644.548 1.021a1.37 1.37 0 0 1-1.05.179.764.764 0 0 1-.594-.76 1.345 1.345 0 0 0-.199-.623 11.86 11.86 0 0 0-2.009-2.453c-.618-.623-1.245-1.216-1.847-1.868-.095-.1-.187-.203-.286-.315.19-.453.204-.96.041-1.424a9.41 9.41 0 0 0-1.245-2.665.257.257 0 0 0-.112-.12 3.122 3.122 0 0 1-.112 2.17 9.626 9.626 0 0 0-.465 1.549c-.033.183-.162.415.124.535.08.038.058.15.054.233a.789.789 0 0 0 .27.622c.78.83 1.557 1.702 2.329 2.553.394.415.739.905 1.137 1.329.275.28.465.633.548 1.017a1.22 1.22 0 0 1-.789.244.768.768 0 0 1-.863-.76.805.805 0 0 0-.473-.8.415.415 0 0 1-.262-.353 1.814 1.814 0 0 0-.415-.83 4.458 4.458 0 0 0-1.66-1.486 1.76 1.76 0 0 0-.797-.191c-.345 0-.47-.092-.569-.415a3.71 3.71 0 0 1-.079-1.283 5.018 5.018 0 0 0-.415-2.15c-.174-.44-.365-.872-.573-1.295a29.663 29.663 0 0 0-1.66-2.906 2.341 2.341 0 0 0-.166-.224c-.067.174.033.286.075.415a38.492 38.492 0 0 1 1.482 5.023 4.014 4.014 0 0 1-1.814 4.308 4.948 4.948 0 0 1-.885.457c-.103.041-.199.108-.32 0 .146-.519.67-.963.391-1.586-.245 0-.415.141-.635.216.145-.311.415-.54.307-.9-.481 0-.685.502-1.204.568a3.49 3.49 0 0 0 .889-1.316 4.11 4.11 0 0 0 .153-.415c.154-.556.116-.672-.328-1.05a1.42 1.42 0 0 1 .253-.507 4.363 4.363 0 0 0 .66-2.287 4.2 4.2 0 0 0-.298-1.374c-.15-.39-.3-.776-.457-1.162a3.607 3.607 0 0 1 .739-4.01 4.363 4.363 0 0 1 2.752-1.585c.51-.063 1.025-.083 1.536-.112.57-.03 1.136-.095 1.697-.196a4.363 4.363 0 0 0 2.13-1.154 5.865 5.865 0 0 0 1.337-1.764c.03-.061.054-.125.074-.19 0-.03-.005-.06-.016-.088z"/><path d="M28.168 23.474l.415-.461c-.054-.37-.236-.739.038-1.084l-.162-.282c0-.158.19-.129.216-.274l-.245-.465c.17-.178.452-.174.573-.415 0-.162-.137-.27-.154-.456.224-.1.282-.32.34-.548.056-.246.181-.471.362-.648.237-.176.4-.435.452-.726.129-.087.212 0 .32 0 .244-.191.435-.443.552-.73.647-.242 1.332-.37 1.776-.989a.988.988 0 0 0 .83.386c.168 0 .334.036.486.108a3.736 3.736 0 0 0 1.802.457c-.015.548.114 1.09.373 1.573a1.3 1.3 0 0 1 .067.618c-.062.265-.054.541.025.802.041.1 0 .186-.042.278a8.63 8.63 0 0 0-.415 2.49.535.535 0 0 1-.494.552c-.286.067-.436 0-.573-.336-.137-.336-.203-.602-.303-.905a2.906 2.906 0 0 0-.365-.83.735.735 0 0 0-.71-.344.527.527 0 0 0-.54.473 4.01 4.01 0 0 0 0 1.735c.152.833.455 1.632.893 2.358a.797.797 0 0 0 .585.415c.436.063.802.361.95.776.121.249.212.51.325.764.108.287.293.538.535.726.329-.087.614-.293.801-.577.162-.228.301-.471.415-.726.116-.237.22-.478.345-.71.315-.581.477-.635 1.096-.415.313.12.591.318.805.577.162.187.311.39.46.59.245.393.567.732.947.995a1.47 1.47 0 0 0 .37 1.071c.253.3.261.498.161.988a1.12 1.12 0 0 1-.689-.045.623.623 0 0 1-.502-.876.37.37 0 0 0 0-.274 4.33 4.33 0 0 0-.855-1.333 1.449 1.449 0 0 0-1.245-.39c-.154 1.71-1.046 2.935-2.49 3.807a5.421 5.421 0 0 0 1.946.328 1.494 1.494 0 0 1 1.602.875c.099.168.187.341.266.52.347.776.837 1.48 1.444 2.075.357.328.68.689.968 1.079.166.227.28.488.336.764a1.245 1.245 0 0 1-1.113.157.78.78 0 0 1-.535-.83.668.668 0 0 0-.39-.664.627.627 0 0 1-.345-.44 3.234 3.234 0 0 0-1.457-2.05c-.249-.17-.51-.328-.784-.503-1.092.353-2.163.08-3.242-.108a2.283 2.283 0 0 1-1.312-.564.926.926 0 0 0-.286-.166.83.83 0 0 0-1.046.22 3.267 3.267 0 0 0-.353.56c-.104.179-.208.37-.444.382-.125-.046-.12-.145-.133-.24a1.179 1.179 0 0 0-.058-.329 3.599 3.599 0 0 1-.187-1.47c-.1-1.66-.274-3.345-1-4.897a13.42 13.42 0 0 0-1.192-2.047 1.12 1.12 0 0 1-.216-.352zM10.178 9.879c-1.295 1.18-1.743 2.698-1.947 4.334a8.011 8.011 0 0 0 .353 3.611c.277.83.793 1.561 1.482 2.1.347.302.786.476 1.245.494a.897.897 0 0 0 .91-.651c.1-.305.12-.631.057-.947-.128-.664-.24-1.332-.36-2.009.361-.313.595-.75.655-1.224a6.612 6.612 0 0 1 .498-1.582 3.47 3.47 0 0 1 2.022-1.814.967.967 0 0 1 .158-.033l.07.054-.88 2.2c-.141.129-.286.058-.415.12 0 .021-.041.042-.046.063-.082.5.05 1.012.362 1.411.438.51.545 1.227.273 1.843a4.67 4.67 0 0 1-.689 1.179 2.18 2.18 0 0 0-.415 1.278.959.959 0 0 0 .287.71c1.05 1.109 2.104 2.213 3.213 3.267.232.194.365.482.365.785-.125.078-.204 0-.287-.046-.589-.27-1.183-.544-1.772-.83a.51.51 0 0 0-.801.294c-.147.4-.222.82-.22 1.246-.054.93-.033 1.86 0 2.79.009.166.045.33.108.485l.207.618c-.116.104-.232.042-.332.03-1.805-.22-3.196.473-4.317 1.81a8.837 8.837 0 0 0-1.448 2.697c-.295.83-.57 1.66-.86 2.49a1.777 1.777 0 0 0-.083.532c-.005.874.088 1.746.278 2.599.173.707.11 1.452-.178 2.12-.05.116-.093.234-.129.354-.249.705-.216.95.253 1.594H6.451a1.494 1.494 0 0 1-.046-.515 14.856 14.856 0 0 0-.332-3.346c-.116-.415-.216-.86-.349-1.282a1.166 1.166 0 0 1 .336-1.35c.38-.343.576-.843.532-1.353a6.79 6.79 0 0 1 1.66-4.15 8.302 8.302 0 0 1 1.872-1.707.83.83 0 0 0 .378-.602 7.82 7.82 0 0 0 .058-2.2 25.213 25.213 0 0 0-1.461-6.089 6.642 6.642 0 0 0-.257-.614 11.544 11.544 0 0 1-1.076-5.812 8.26 8.26 0 0 1 .74-3.096 4.645 4.645 0 0 1 1.402-1.773.253.253 0 0 1 .27-.083zM25.11 38.84c.278.117.357.362.415.644.14.636.238 1.281.295 1.93a3.57 3.57 0 0 0 1.864 2.88 7.916 7.916 0 0 0 1.556.694.594.594 0 0 1 .415.324c.173.284.375.55.602.793.239.279.384.626.415.992-.265.176-.593.23-.9.149a.68.68 0 0 1-.52-.63 4.65 4.65 0 0 1-.028-.54.789.789 0 0 0-.536-.764 7.692 7.692 0 0 0-.772-.312 3.171 3.171 0 0 1-1.436-.95 4.981 4.981 0 0 0-1.212-1.13c0-.107-.033-.203-.042-.298a2.358 2.358 0 0 0-1.191-1.893c-.29-.19-.594-.361-.88-.556a5.014 5.014 0 0 1-.635-.47 2.325 2.325 0 0 1-.727-2.075 7.916 7.916 0 0 1 1.69-.44c.249-.022.49-.099.706-.224a13.848 13.848 0 0 0 2.2-1.631 1.245 1.245 0 0 1 1.274-.253c.419.26.674.718.676 1.212a.934.934 0 0 1-.464.701c-.35.2-.74.318-1.142.345a3.32 3.32 0 0 0-.955.274c-.484.2-.763.712-.668 1.228zm-22.876-.336c.011-.402.236-.767.59-.959.339-.212.769-.212 1.108 0 .42.276.756.664.967 1.121.324.646.546 1.337.66 2.05.329 1.79.277 3.629-.153 5.397a5.288 5.288 0 0 1-.897 1.95 1.86 1.86 0 0 1-2.848.337c-.269-.22-.502-.48-.693-.772a.876.876 0 0 1 0-1.187 11.436 11.436 0 0 1-.552-4.047c.004-.738.116-1.47.332-2.176.107-.39.314-.745.602-1.029a.988.988 0 0 1 1.478.033c.227.24.405.522.523.83a6.193 6.193 0 0 1 .2 3.799.722.722 0 0 1-.06.157l-.09.104a8.053 8.053 0 0 0 0-1.997 5.96 5.96 0 0 0-.582-2.112 1.66 1.66 0 0 0-.369-.498.519.519 0 0 0-.789.037c-.188.192-.33.425-.415.68a6.45 6.45 0 0 0-.328 1.5 10.095 10.095 0 0 0 .482 4.565c.144.462.388.887.714 1.245.618.636 1.104.61 1.66-.1a4.86 4.86 0 0 0 .83-2.075 11.39 11.39 0 0 0-.377-6.068 4.566 4.566 0 0 0-.461-.98c-.299-.452-.606-.498-1.042-.162-.133.129-.232.303-.49.357z"/><path fill-rule="nonzero" d="M2.374 8.455a2.49 2.49 0 0 1-.36-1.133A7.592 7.592 0 0 1 3.62 1.826 3.454 3.454 0 0 1 7.642.623a8.43 8.43 0 0 1 2.906 1.697 25.155 25.155 0 0 1 3.478 3.462c.04.047.085.09.133.129.232-.12.456-.25.693-.361a3.927 3.927 0 0 1 1.835-.47c.523-.01 1.022.222 1.353.628a5.172 5.172 0 0 1 1.225 3.453c.03.518-.282.995-.768 1.175-.297.09-.618.051-.885-.108a4.08 4.08 0 0 1-1.207-1.005c-.714-.83-1.345-1.697-2.034-2.532a1.718 1.718 0 0 0-.328-.348 19.95 19.95 0 0 0-2.661 2.112 11.502 11.502 0 0 1 2.445-2.328c.037-.116-.03-.179-.083-.241a21.348 21.348 0 0 0-4.799-4.3A5.292 5.292 0 0 0 7.028.83a3.234 3.234 0 0 0-2.877.88 5.811 5.811 0 0 0-1.577 2.644 8.223 8.223 0 0 0-.416 2.49c.005.459.07.914.196 1.354.024.104.083.154.02.257zm11.95-2.307c.445.577.868 1.12 1.292 1.66.477.667 1.025 1.28 1.635 1.826.203.192.447.335.714.415.288.101.606-.024.747-.294.136-.214.206-.462.204-.714a5.035 5.035 0 0 0-1.12-3.105 1.44 1.44 0 0 0-1.047-.54 3.835 3.835 0 0 0-2.424.752zm30.984 36.86c0-2.412 1.594-5.53 5.81-5.53 3.508 0 5.696 2.047 5.696 5.277s-2.258 5.782-5.84 5.782c-4.031 0-5.666-3.034-5.666-5.53zm9.547.27c0-3.16-1.818-5.123-4.151-5.123-1.623 0-3.47.905-3.47 4.417 0 2.93 1.623 5.26 4.329 5.26 1.009 0 3.292-.482 3.292-4.554z"/><path d="M60.737 46.42c.029 1.1.211 1.47.494 1.565.237.075.485.108.734.1.154 0 .241.029.241.112s-.129.14-.324.14c-.917 0-1.482-.04-1.751-.04-.125 0-.79.04-1.524.04-.182 0-.307 0-.307-.14 0-.142.083-.112.224-.112.214.004.428-.02.635-.071.366-.112.415-.523.415-1.748l.129-8.351c0-.278.042-.478.183-.478.14 0 .282.183.523.415.166.183 2.312 2.491 4.37 4.53.96.958 2.865 2.988 3.101 3.216h.07l-.14-6.334c0-.86-.141-1.13-.478-1.27a2.35 2.35 0 0 0-.747-.083c-.17 0-.228-.042-.228-.13 0-.086.158-.124.37-.124.73 0 1.407.042 1.705.042.154 0 .69-.042 1.383-.042.182 0 .323 0 .323.125 0 .124-.083.129-.253.129a1.57 1.57 0 0 0-.415.041c-.394.112-.506.415-.523 1.2l-.153 8.9c0 .31-.059.414-.183.414-.125 0-.324-.153-.482-.31-.888-.831-2.694-2.695-4.15-4.152-1.54-1.523-3.105-3.283-3.359-3.553h-.016l.133 5.969zm14.499-2.17c0 1.805 0 2.776.299 3.03.236.21.606.31 1.706.31.747 0 1.295 0 1.66-.415.194-.24.321-.525.37-.83 0-.124.041-.211.153-.211.112 0 .112.07.112.24a11.311 11.311 0 0 1-.211 1.623c-.083.312-.154.382-.889.382-1.017 0-1.747-.029-2.382-.045-.636-.017-1.142-.042-1.723-.042h-.801c-.336 0-.693.025-.976.025-.182 0-.282-.042-.282-.141 0-.1.058-.112.228-.112.17-.001.34-.02.507-.054.282-.058.353-.37.415-.776.075-.594.075-1.706.075-3.006v-2.49c0-2.142 0-2.54-.03-2.989-.029-.448-.14-.706-.605-.805a2.075 2.075 0 0 0-.47-.042c-.153 0-.236-.029-.236-.128 0-.1.095-.125.307-.125.664 0 1.552.042 1.934.042.382 0 1.366-.042 1.918-.042.2 0 .295.03.295.125s-.083.128-.253.128c-.184 0-.367.014-.548.042-.382.07-.494.311-.523.805-.03.494-.03.83-.03 2.989l-.02 2.511zm6.953-2.483c0-2.142 0-2.54-.03-2.989-.028-.448-.17-.722-.477-.793a2.075 2.075 0 0 0-.51-.054c-.141 0-.224-.029-.224-.14 0-.113.112-.113.336-.113.54 0 1.428.042 1.834.042.407 0 1.188-.042 1.723-.042.183 0 .295.03.295.112 0 .083-.083.141-.224.141-.14.001-.279.015-.415.042-.382.07-.494.311-.523.805-.03.494-.03.83-.03 2.989v2.49c0 1.37 0 2.49.059 3.089.041.382.14.635.564.693.238.03.478.049.718.054.154 0 .224.041.224.112 0 .07-.112.141-.265.141-.93 0-1.822-.041-2.2-.041-.378 0-1.212.041-1.777.041-.187 0-.282-.041-.282-.141 0-.1.054-.112.224-.112s.34-.019.506-.054c.283-.058.37-.299.416-.706.07-.593.07-1.706.07-3.076l-.012-2.49zm7.322 4.653c.029 1.1.212 1.47.494 1.565.236.075.483.109.73.1.158 0 .241.029.241.112s-.124.14-.324.14c-.917 0-1.481-.04-1.747-.04-.129 0-.793.04-1.523.04-.183 0-.312 0-.312-.14 0-.142.083-.112.224-.112.214.004.428-.02.635-.071.37-.112.416-.523.44-1.748l.125-8.351c0-.278.041-.478.183-.478.14 0 .282.183.523.415.17.183 2.312 2.491 4.37 4.53.96.958 2.865 2.988 3.105 3.216h.071l-.141-6.334c0-.86-.141-1.13-.482-1.27a2.337 2.337 0 0 0-.747-.083c-.17 0-.224-.042-.224-.13 0-.086.154-.124.365-.124.735 0 1.412.042 1.706.042.158 0 .694-.042 1.383-.042.182 0 .323 0 .323.125 0 .124-.083.129-.253.129a1.57 1.57 0 0 0-.415.041c-.394.112-.506.415-.519 1.2l-.157 8.9c0 .31-.054.414-.183.414s-.324-.153-.482-.31c-.888-.831-2.69-2.695-4.15-4.152-1.536-1.523-3.101-3.283-3.355-3.553h-.045l.14 5.969zm12.735-4.653c0-2.142 0-2.54-.029-2.989-.03-.448-.141-.706-.606-.805a2.848 2.848 0 0 0-.552-.042c-.154 0-.237-.029-.237-.128 0-.1.096-.125.307-.125h1.146c.353 0 .69.03.888.03h3.525c.203-.018.405-.047.606-.088.074-.024.15-.042.228-.054.07 0 .083.054.083.125-.047.302-.08.607-.096.913 0 .14-.041.76-.07.93 0 .07-.042.157-.141.157-.1 0-.129-.07-.129-.199a1.482 1.482 0 0 0-.083-.506c-.1-.254-.24-.415-.946-.51-.241-.026-1.719-.055-2.001-.055-.07 0-.1.042-.1.141v3.566c0 .1 0 .158.1.158.307 0 1.93 0 2.254-.03.324-.028.552-.07.676-.211.125-.141.158-.183.229-.183.07 0 .1.03.1.112 0 .083-.059.312-.117 1.03 0 .282-.054.83-.054.946 0 .116 0 .266-.129.266-.128 0-.124-.054-.124-.125a4.375 4.375 0 0 0-.058-.51c-.07-.283-.266-.494-.789-.548-.27-.03-1.66-.042-2.005-.042-.07 0-.083.054-.083.141v3.3c.03.972.253 1.183 1.694 1.183a3.55 3.55 0 0 0 1.324-.17c.365-.17.535-.465.635-1.042.03-.157.058-.211.154-.211.095 0 .112.112.112.253a11.058 11.058 0 0 1-.183 1.565c-.095.37-.224.37-.76.37-1.058 0-1.834-.03-2.44-.046-.606-.017-1.042-.042-1.466-.042h-.805c-.34 0-.689.025-.971.025-.187 0-.282-.042-.282-.141 0-.1.054-.112.224-.112s.34-.019.506-.054c.282-.058.353-.37.415-.776.07-.594.07-1.706.07-3.006l-.02-2.461zm13.694 5.23a5.587 5.587 0 0 1-.1-8.024c1.017-.93 2.358-1.494 4.458-1.494.685-.002 1.37.045 2.047.141.535.07.984.2 1.407.24.158 0 .212.084.212.17 0 .088-.042.283-.07.777-.03.494 0 1.245-.042 1.52 0 .211-.042.327-.17.327-.13 0-.142-.116-.142-.311a2.013 2.013 0 0 0-.548-1.3c-.464-.493-1.564-.87-2.864-.87-1.245 0-2.03.306-2.652.87-1.03.947-1.295 2.288-1.295 3.654 0 3.358 2.553 5.022 4.441 5.022 1.246 0 2.018-.14 2.582-.788.228-.271.391-.59.478-.934.041-.225.07-.283.182-.283.112 0 .129.1.129.212a13.35 13.35 0 0 1-.311 1.876.498.498 0 0 1-.366.415c-.824.24-1.682.35-2.54.324-1.93-.004-3.553-.427-4.836-1.544z"/><path fill-rule="nonzero" d="M128.169 44.66c-.07 0-.1.025-.129.112l-.76 2.017a2.727 2.727 0 0 0-.211.86c0 .253.124.415.564.415h.216c.166 0 .212.029.212.112s-.087.141-.241.141c-.452 0-1.058-.042-1.494-.042-.158 0-.934.042-1.66.042-.183 0-.27-.025-.27-.141 0-.116.058-.112.17-.112.145-.001.29-.01.436-.03.651-.082.917-.564 1.2-1.245l3.54-8.858c.17-.415.253-.564.394-.564.141 0 .212.128.353.452.34.776 2.594 6.53 3.5 8.672.535 1.27.942 1.469 1.245 1.54.194.036.391.054.589.054.112 0 .183 0 .183.112s-.125.14-.648.14-1.536 0-2.665-.024c-.253 0-.415 0-.415-.116 0-.117.058-.112.2-.125a.232.232 0 0 0 .124-.324l-1.13-2.993a.133.133 0 0 0-.14-.095h-3.163zm2.876-.706c.07 0 .083-.045.07-.087l-1.27-3.482c0-.059-.028-.13-.07-.13-.041 0-.07.071-.083.13l-1.3 3.47c0 .054 0 .1.059.1h2.594z"/><path d="M136.728 48.172c-.224-.1-.266-.17-.266-.482 0-.776.054-1.623.07-1.847.017-.224.055-.365.167-.365.112 0 .141.124.141.236.013.245.056.488.129.723a1.947 1.947 0 0 0 2.017 1.423c1.27 0 1.889-.863 1.889-1.61 0-.747-.212-1.337-1.383-2.254l-.647-.507c-1.553-1.216-2.076-2.204-2.076-3.345 0-1.549 1.3-2.665 3.259-2.665a6.8 6.8 0 0 1 1.876.24c.125.03.195.071.195.17 0 .183-.054.59-.054 1.69 0 .312-.041.415-.157.415-.117 0-.142-.083-.142-.253a1.714 1.714 0 0 0-.365-.93 1.777 1.777 0 0 0-1.536-.693c-1.046 0-1.68.61-1.68 1.453 0 .652.327 1.146 1.498 2.034l.394.295c1.706 1.282 2.312 2.258 2.312 3.594a2.852 2.852 0 0 1-1.324 2.458 4.114 4.114 0 0 1-2.246.577 4.923 4.923 0 0 1-2.071-.357zm9.153-6.405c0-2.142 0-2.54-.025-2.989-.025-.448-.17-.722-.482-.793a2.017 2.017 0 0 0-.506-.054c-.141 0-.228-.029-.228-.14 0-.113.116-.113.34-.113.535 0 1.424.042 1.835.042.41 0 1.183-.042 1.718-.042.183 0 .295.03.295.112 0 .083-.083.141-.224.141-.14.002-.278.016-.415.042-.382.07-.494.311-.523.805-.03.494-.025.83-.025 2.989v2.49c0 1.37 0 2.49.054 3.089.041.382.14.635.564.693.238.03.478.049.718.054.158 0 .229.041.229.112 0 .07-.112.141-.27.141-.93 0-1.818-.041-2.2-.041-.382 0-1.212.041-1.777.041-.182 0-.282-.041-.282-.141 0-.1.058-.112.228-.112.17-.001.34-.02.507-.054.282-.058.365-.299.415-.706.07-.593.07-1.706.07-3.076l-.016-2.49zm7.334 4.653c.03 1.1.212 1.47.494 1.565.238.075.486.109.735.1.154 0 .237.029.237.112s-.125.14-.324.14c-.913 0-1.478-.04-1.748-.04-.128 0-.788.04-1.523.04-.183 0-.311 0-.311-.14 0-.142.087-.112.228-.112.214.004.427-.02.635-.071.365-.112.415-.523.436-1.748l.129-8.351c0-.278.041-.478.182-.478s.283.183.52.415c.17.183 2.315 2.491 4.374 4.53.96.958 2.86 2.988 3.101 3.216h.07l-.14-6.334c0-.86-.142-1.13-.478-1.27a2.35 2.35 0 0 0-.747-.083c-.17 0-.228-.042-.228-.13 0-.086.157-.124.369-.124.73 0 1.407.042 1.706.042.154 0 .69-.042 1.382-.042.183 0 .324 0 .324.125 0 .124-.087.129-.253.129-.14-.005-.28.009-.415.041-.395.112-.51.415-.523 1.2l-.154 8.9c0 .31-.058.414-.187.414-.128 0-.323-.153-.477-.31-.888-.831-2.694-2.695-4.15-4.152-1.54-1.523-3.106-3.283-3.359-3.553h-.042l.137 5.969z"/><path fill-rule="nonzero" d="M164.274 43.008c0-2.412 1.594-5.53 5.81-5.53 3.513 0 5.7 2.047 5.7 5.277s-2.258 5.782-5.84 5.782c-4.035 0-5.67-3.034-5.67-5.53zm9.547.27c0-3.16-1.818-5.123-4.13-5.123-1.623 0-3.47.905-3.47 4.417 0 2.93 1.622 5.26 4.329 5.26.988 0 3.27-.482 3.27-4.554z"/><path d="M54.083 28.102c.041 0 .083-.03.083-.1v-.294c0-2.146 0-2.54-.03-2.993-.028-.453-.14-.706-.605-.801a2.785 2.785 0 0 0-.548-.046c-.158 0-.241-.025-.241-.125s.1-.128.295-.128c.763 0 1.66.041 2.03.041.369 0 1.245-.041 1.78-.041.195 0 .295.029.295.128 0 .1-.087.125-.253.125a2.49 2.49 0 0 0-.415.046c-.382.07-.494.307-.523.8-.03.495-.025.83-.025 2.994v2.49c0 1.295 0 2.412.07 3.018.042.415.125.706.548.76.245.036.492.057.739.062.158 0 .228.041.228.112 0 .07-.112.14-.282.14-.917 0-1.806-.04-2.2-.04-.324 0-1.212.04-1.764.04-.195 0-.295-.04-.295-.14s.054-.112.224-.112.34-.02.507-.058c.282-.054.353-.366.415-.777.07-.589.07-1.706.07-3v-1.246a.083.083 0 0 0-.083-.087h-5.396a.079.079 0 0 0-.087.087v1.245c0 1.295 0 2.412.07 3.018.046.415.13.706.553.76.238.034.477.053.718.058.153 0 .224.041.224.112 0 .07-.112.14-.282.14-.914 0-1.802-.04-2.2-.04-.324 0-1.212.04-1.777.04-.183 0-.282-.04-.282-.14s.058-.112.228-.112.34-.02.506-.058c.283-.054.353-.366.416-.777.07-.589.07-1.706.07-3v-2.491c0-2.146 0-2.54-.029-2.993-.029-.453-.141-.706-.606-.801a2.802 2.802 0 0 0-.569-.05c-.153 0-.24-.025-.24-.125s.1-.128.298-.128c.76 0 1.66.041 2.03.041.37 0 1.246-.041 1.777-.041.2 0 .295.029.295.128 0 .1-.083.125-.254.125-.139.003-.278.019-.415.046-.382.07-.494.307-.523.8-.029.495-.029.83-.029 2.994v.294a.087.087 0 0 0 .087.1h5.397zm6.641-.394c0-2.146 0-2.54-.029-2.993-.029-.453-.17-.718-.477-.789a2.075 2.075 0 0 0-.51-.058c-.142 0-.225-.025-.225-.141 0-.116.112-.112.336-.112.54 0 1.428.041 1.835.041.407 0 1.187-.041 1.723-.041.182 0 .294.029.294.112s-.083.14-.224.14c-.14.004-.278.019-.415.047-.382.07-.494.307-.523.8-.029.495-.029.83-.029 2.994v2.49c0 1.366 0 2.49.058 3.088.042.378.141.636.565.69.238.034.477.053.718.058.153 0 .224.041.224.112 0 .07-.112.14-.266.14-.93 0-1.818-.04-2.2-.04-.382 0-1.212.04-1.776.04-.183 0-.283-.04-.283-.14s.054-.112.225-.112c.17 0 .34-.02.506-.059.282-.053.37-.294.415-.705.07-.59.07-1.706.07-3.072l-.012-2.49zm6.546 0c0-2.146 0-2.54-.029-2.993-.029-.453-.141-.706-.606-.801a2.83 2.83 0 0 0-.552-.046c-.154 0-.24-.025-.24-.125s.099-.128.31-.128c.748 0 1.636.041 2.03.041.582 0 1.4-.041 2.047-.041 1.764 0 2.4.593 2.623.805a2.44 2.44 0 0 1 .706 1.66 3.32 3.32 0 0 1-3.47 3.417 1.756 1.756 0 0 1-.295 0c-.07 0-.17-.03-.17-.125s.1-.158.415-.158c.789 0 1.889-.888 1.889-2.324a2.715 2.715 0 0 0-.83-2.117 2.105 2.105 0 0 0-1.412-.552 1.988 1.988 0 0 0-.548.058c-.07.029-.116.112-.116.27v5.64c0 1.296 0 2.413.07 3.019.046.415.13.705.553.76.237.034.477.053.718.057.157 0 .228.042.228.112s-.116.141-.27.141c-.93 0-1.818-.041-2.187-.041-.37 0-1.212.041-1.777.041-.183 0-.282-.041-.282-.14 0-.1.058-.113.228-.113s.34-.02.506-.058c.283-.054.353-.365.416-.776.074-.59.074-1.706.074-3.001l-.029-2.482zm9.406 0c0-2.146 0-2.54-.029-2.993-.029-.453-.141-.706-.606-.801a2.802 2.802 0 0 0-.552-.046c-.154 0-.237-.025-.237-.125s.096-.128.308-.128c.747 0 1.64.041 2.034.041.577 0 1.394-.041 2.042-.041 1.764 0 2.4.593 2.623.805a2.44 2.44 0 0 1 .706 1.66 3.32 3.32 0 0 1-3.47 3.417 1.756 1.756 0 0 1-.295 0c-.07 0-.17-.03-.17-.125s.1-.158.415-.158c.793 0 1.893-.888 1.893-2.324a2.719 2.719 0 0 0-.83-2.117 2.075 2.075 0 0 0-1.412-.552 1.988 1.988 0 0 0-.548.058c-.07.029-.112.112-.112.27v5.64c0 1.296 0 2.413.07 3.019.042.415.125.705.549.76.238.033.477.053.718.057.158 0 .228.042.228.112s-.112.141-.27.141c-.93 0-1.818-.041-2.183-.041-.365 0-1.216.041-1.777.041-.186 0-.282-.041-.282-.14 0-.1.054-.113.224-.113s.34-.019.507-.058c.282-.054.352-.365.415-.776.07-.59.07-1.706.07-3.001l-.029-2.482z"/><path fill-rule="nonzero" d="M84.546 28.949c0-2.412 1.594-5.53 5.812-5.53 3.511 0 5.699 2.043 5.699 5.272 0 3.23-2.246 5.783-5.828 5.783-4.047 0-5.683-3.03-5.683-5.525zm9.548.265c0-3.159-1.819-5.118-4.151-5.118-1.62 0-3.466.901-3.466 4.413 0 2.934 1.618 5.263 4.329 5.263 1 0 3.288-.481 3.288-4.558zm5.114-1.506c0-2.146 0-2.54-.03-2.993-.029-.453-.14-.706-.606-.801a2.83 2.83 0 0 0-.552-.046c-.153 0-.24-.025-.24-.125s.1-.128.31-.128c.748 0 1.636.041 2.03.041.395 0 1.33-.041 2.176-.041 1.76 0 4.118 0 5.653 1.61a5.027 5.027 0 0 1 1.37 3.583 5.595 5.595 0 0 1-1.54 3.935c-.647.66-2.113 1.66-4.724 1.66-.506 0-1.087-.046-1.623-.087-.535-.042-1.029-.083-1.382-.083h-.8c-.337 0-.694.029-.976.029-.183 0-.283-.042-.283-.141 0-.1.058-.112.229-.112.17 0 .34-.02.506-.058.282-.054.353-.366.415-.777.07-.59.07-1.706.07-3l-.003-2.466zm1.76 1.548c0 1.498 0 2.582.029 2.852a3.05 3.05 0 0 0 .153 1.07c.187.266.735.565 1.852.565 1.436 0 2.395-.282 3.241-1.017.847-.735 1.183-2.075 1.183-3.512a4.79 4.79 0 0 0-1.353-3.524 5.587 5.587 0 0 0-4.005-1.411 3.703 3.703 0 0 0-.918.1.253.253 0 0 0-.166.282v2.818l-.016 1.777zm11.448-1.548c0-2.146 0-2.54-.03-2.993-.028-.453-.14-.706-.605-.801a2.802 2.802 0 0 0-.536-.046c-.153 0-.24-.025-.24-.125s.1-.128.31-.128c.748 0 1.636.041 1.935.041.478 0 1.548-.041 1.988-.041a4.533 4.533 0 0 1 2.595.606 2.45 2.45 0 0 1 .942 1.93c0 1.042-.436 2-1.864 3.159 1.246 1.577 2.23 2.835 3.064 3.71.403.488.959.826 1.577.96.13.023.262.037.394.041.117 0 .17.042.17.112s-.099.141-.265.141h-1.34a2.864 2.864 0 0 1-1.512-.27c-.606-.323-1.141-.983-1.93-2.075-.564-.776-1.212-1.735-1.395-1.947a.307.307 0 0 0-.257-.1l-1.225-.028c-.07 0-.112.029-.112.116v.195c0 1.312 0 2.428.07 3.018.042.415.125.722.549.776.23.04.463.065.697.079.112 0 .166.041.166.112 0 .07-.095.14-.282.14-.83 0-1.86-.04-2.075-.04-.216 0-1.159.04-1.723.04-.183 0-.282-.04-.282-.14s.058-.112.228-.112.34-.02.506-.058c.283-.054.353-.366.415-.777.071-.589.071-1.706.071-3l-.004-2.495zm1.66 1.112c0 .154.025.212.125.253.348.1.709.147 1.07.141.354.05.713-.036 1.005-.24.415-.308.83-.96.83-2.113 0-2.005-1.324-2.582-2.158-2.582a2.906 2.906 0 0 0-.747.058c-.1.025-.125.083-.125.195v4.288zm7.547.129c0-2.412 1.594-5.53 5.811-5.53 3.512 0 5.695 2.043 5.695 5.272 0 3.23-2.254 5.783-5.836 5.783-4.01 0-5.67-3.03-5.67-5.525zm9.547.265c0-3.159-1.822-5.118-4.151-5.118-1.623 0-3.47.901-3.47 4.413 0 2.934 1.623 5.263 4.33 5.263 1.008 0 3.29-.481 3.29-4.558z"/><path d="M136.857 23.66c.041-.24.124-.365.24-.365.117 0 .195.07.378.436l3.852 7.953 3.836-8.024c.112-.224.182-.336.311-.336s.212.141.253.436l1.283 8.717c.128.888.27 1.295.693 1.424.282.091.576.139.872.14.128 0 .228 0 .228.1s-.17.154-.37.154c-.352 0-2.295-.041-2.86-.083-.327-.029-.415-.07-.415-.158 0-.087.059-.112.154-.153.096-.042.129-.212.07-.606l-.83-6.227h-.058l-3.076 6.401c-.323.664-.394.789-.518.789-.125 0-.27-.278-.494-.702-.34-.651-1.453-2.806-1.623-3.204-.129-.295-.972-2.076-1.466-3.13h-.058l-.734 5.612a6.4 6.4 0 0 0-.042.664c0 .27.183.415.415.453.195.043.394.067.594.07.112 0 .211.03.211.1s-.128.153-.34.153c-.59 0-1.225-.041-1.482-.041-.257 0-.942.041-1.395.041-.14 0-.253-.029-.253-.153 0-.125.083-.1.224-.1.14.002.28-.012.415-.041.395-.088.511-.635.582-1.117l1.403-9.203zm14.358 4.048c0-2.146 0-2.54-.03-2.993-.028-.453-.14-.706-.605-.801a2.802 2.802 0 0 0-.552-.046c-.154 0-.237-.025-.237-.125s.095-.128.307-.128h1.146c.353 0 .68.045.888.045h3.524c.204-.016.406-.044.606-.083.074-.027.15-.046.229-.058.07 0 .083.058.083.129-.054.303-.092.61-.112.917 0 .141-.042.76-.071.93 0 .07-.042.154-.141.154-.1 0-.129-.07-.129-.195a1.52 1.52 0 0 0-.083-.511c-.1-.253-.24-.415-.946-.506-.241-.03-1.719-.059-2.001-.059-.07 0-.1.046-.1.142v3.57c0 .1 0 .153.1.153.307 0 1.93 0 2.254-.025.324-.025.552-.07.677-.212.124-.14.157-.186.228-.186.07 0 .1.029.1.116 0 .087-.059.307-.117 1.03 0 .282-.054.83-.054.942 0 .112 0 .27-.128.27-.13 0-.125-.059-.125-.13a4.313 4.313 0 0 0-.058-.506c-.07-.282-.266-.494-.789-.552-.27-.025-1.66-.041-2.005-.041-.07 0-.083.058-.083.14v3.301c.03.975.254 1.187 1.694 1.187a3.55 3.55 0 0 0 1.324-.17c.365-.17.536-.465.635-1.046.03-.154.058-.212.154-.212.095 0 .112.116.112.257a11.058 11.058 0 0 1-.183 1.565c-.095.366-.224.366-.76.366-1.058 0-1.834-.03-2.44-.042-.606-.012-1.042-.041-1.465-.041h-.806c-.34 0-.689.029-.971.029-.187 0-.282-.042-.282-.141 0-.1.054-.113.224-.113s.34-.019.506-.058c.282-.054.353-.365.415-.776.07-.59.07-1.706.07-3.001l-.003-2.486zM47.735 12.976l-1.606.041c-.626.021-.884.075-1.046.316-.08.114-.142.24-.182.373-.025.088-.054.133-.12.133-.067 0-.096-.054-.096-.174s.203-1.154.224-1.245c.02-.092.066-.204.129-.204.15.058.306.101.465.129.311.033.722.054 1.079.054h4.267c.249 0 .497-.019.743-.054.162-.03.25-.054.29-.054.042 0 .088.066.088.228s-.033.972-.033 1.246c0 .107-.034.174-.096.174s-.108-.054-.12-.216v-.12c-.025-.278-.316-.581-1.275-.602l-1.357-.033v4.424c0 .993 0 1.843.054 2.308.033.303.095.54.415.582.183.025.367.04.552.045.116 0 .17.03.17.083 0 .054-.083.108-.203.108-.71 0-1.39-.029-1.694-.029-.303 0-.925.03-1.357.03-.141 0-.216-.03-.216-.109s.046-.083.175-.083c.13 0 .259-.016.386-.045.215-.042.282-.279.315-.594.054-.453.054-1.303.054-2.296l-.004-4.416zm11.877 2.822a.066.066 0 0 0 .066-.074v-.229c0-1.635 0-1.938-.02-2.283-.021-.344-.109-.54-.466-.614a2.279 2.279 0 0 0-.415-.033c-.12 0-.182-.02-.182-.096 0-.074.074-.1.224-.1.581 0 1.245.034 1.552.034.307 0 .938-.033 1.358-.033.15 0 .228.025.228.1 0 .074-.066.095-.195.095a1.992 1.992 0 0 0-.311.033c-.291.054-.378.237-.416.614-.037.378-.024.648-.024 2.283v1.897c0 .993 0 1.843.054 2.308.033.303.1.54.415.582.181.026.364.04.548.045.12 0 .174.03.174.083 0 .054-.087.108-.216.108-.701 0-1.382-.029-1.66-.029s-.93.03-1.35.03c-.149 0-.224-.03-.224-.109s.042-.083.17-.083a1.83 1.83 0 0 0 .39-.045c.213-.042.266-.279.312-.594.054-.453.054-1.303.054-2.296v-.946a.066.066 0 0 0-.066-.066h-4.118c-.03 0-.062 0-.062.066v.946c0 .993 0 1.843.054 2.308.033.303.095.54.415.582.182.03.367.05.552.058.12 0 .174.029.174.083 0 .054-.087.108-.216.108-.701 0-1.378-.03-1.68-.03-.304 0-.926.03-1.358.03-.141 0-.216-.03-.216-.108 0-.08.041-.083.174-.083.13-.001.26-.017.386-.046.216-.042.27-.278.312-.594.054-.452.054-1.303.054-2.295v-1.91-2.283c0-.344-.108-.54-.465-.614a2.217 2.217 0 0 0-.415-.033c-.117 0-.183-.02-.183-.096 0-.074.075-.1.228-.1.581 0 1.246.034 1.549.034.303 0 .938-.033 1.361-.033.15 0 .224.025.224.1 0 .074-.062.095-.195.095a2.046 2.046 0 0 0-.311.033c-.29.054-.378.237-.415.614-.038.378-.021.648-.021 2.283v.229c0 .054.033.074.062.074h4.11zm5.08-.303c0-1.635 0-1.938-.024-2.283-.025-.344-.108-.54-.461-.614a2.279 2.279 0 0 0-.415-.033c-.12 0-.187-.02-.187-.096 0-.074.079-.1.24-.1h.872c.278 0 .528.022.677.022h2.698c.208 0 .374-.046.46-.067.058-.018.116-.031.175-.041.054 0 .062.041.062.095-.04.232-.07.466-.087.702 0 .108-.029.58-.05.71 0 .053-.033.12-.107.12-.075 0-.1-.054-.1-.154a1.133 1.133 0 0 0-.062-.386c-.08-.195-.187-.324-.723-.386-.182-.025-1.315-.046-1.531-.046-.054 0-.075.034-.075.108v2.728c0 .074 0 .12.075.12.236 0 1.477 0 1.722-.025.245-.025.415-.054.52-.162.103-.108.12-.137.174-.137.053 0 .074 0 .074.083s-.045.241-.087.789c0 .216-.041.647-.041.722 0 .075 0 .204-.1.204a.083.083 0 0 1-.096-.096 3.06 3.06 0 0 0-.045-.39c-.054-.216-.204-.374-.602-.415-.203-.021-1.27-.033-1.532-.033-.054 0-.062.045-.062.108V19.032c0 .743.195.905 1.29.905.344.021.687-.023 1.014-.129.282-.128.415-.357.485-.797 0-.12.046-.162.12-.162.075 0 .088.088.088.196-.019.4-.066.8-.141 1.195-.075.278-.175.278-.581.278-.81 0-1.403 0-1.868-.033-.465-.033-.797-.03-1.121-.03h-1.357c-.137 0-.216-.028-.216-.107s.045-.083.174-.083c.13 0 .26-.016.386-.046.216-.041.27-.278.316-.593.054-.453.054-1.304.054-2.296l-.005-1.835z"/></g></svg>