<svg width="184" height="71" xmlns="http://www.w3.org/2000/svg" xmlns:xlink="http://www.w3.org/1999/xlink"><defs><path d="M163.752 48.5l-72.528 15c-2.386.524-4.376.524-6.762 0l-72.208-15C5.148 46.94.04 40.156.04 32.28v-2.644c0-8.663 5.814-16.032 13.695-17.356L84.313.827c1.85-.312 5.06-.312 6.91 0l71.05 11.453c7.88 1.324 13.696 8.693 13.696 17.356v2.645c-.004 7.875-5.113 14.658-12.217 16.219z" id="b"/><filter x="-3.4%" y="-9.5%" width="106.8%" height="119%" filterUnits="objectBoundingBox" id="a"><feOffset in="SourceAlpha" result="shadowOffsetOuter1"/><feGaussianBlur stdDeviation="2" in="shadowOffsetOuter1" result="shadowBlurOuter1"/><feColorMatrix values="0 0 0 0 1 0 0 0 0 0.364705882 0 0 0 0 0.984313725 0 0 0 0.5 0" in="shadowBlurOuter1"/></filter><radialGradient fx="50%" fy="50%" r="110.275%" gradientTransform="matrix(.33848 0 0 1 .33 0)" id="c"><stop stop-color="#8A8A8A" offset="0%"/><stop stop-color="#4F4E4F" offset="100%"/></radialGradient><linearGradient x1="50.019%" y1="0%" x2="50.019%" y2="99.998%" id="d"><stop stop-color="#FFF" offset="0%"/><stop stop-color="#BABABA" offset="100%"/></linearGradient><linearGradient x1="50.003%" y1="-.01%" x2="50.003%" y2="99.99%" id="e"><stop stop-color="#FFF" offset="0%"/><stop stop-color="#BABABA" offset="100%"/></linearGradient><linearGradient x1="50.008%" y1=".015%" x2="50.008%" y2="100.015%" id="f"><stop stop-color="#FFF" offset="0%"/><stop stop-color="#BABABA" offset="100%"/></linearGradient><linearGradient x1="50.012%" y1="0%" x2="50.012%" y2="100%" id="g"><stop stop-color="#FFF" offset="0%"/><stop stop-color="#BABABA" offset="100%"/></linearGradient><linearGradient x1="50.002%" y1=".003%" x2="50.002%" y2="100%" id="h"><stop stop-color="#FFF" offset="0%"/><stop stop-color="#BABABA" offset="100%"/></linearGradient><linearGradient x1="50%" y1="-.005%" x2="50%" y2="100%" id="i"><stop stop-color="#FFF" offset="0%"/><stop stop-color="#BABABA" offset="100%"/></linearGradient><linearGradient x1="49.978%" y1="0%" x2="49.978%" y2="100%" id="j"><stop stop-color="#FFF" offset="0%"/><stop stop-color="#BABABA" offset="100%"/></linearGradient><linearGradient x1="50.017%" y1="0%" x2="50.017%" y2="99.988%" id="k"><stop stop-color="#FFF" offset="0%"/><stop stop-color="#BABABA" offset="100%"/></linearGradient><linearGradient x1="49.989%" y1="0%" x2="49.989%" y2="100%" id="l"><stop stop-color="#FFF" offset="0%"/><stop stop-color="#BABABA" offset="100%"/></linearGradient><linearGradient x1="50.016%" y1="0%" x2="50.016%" y2="100%" id="m"><stop stop-color="#FFF" offset="0%"/><stop stop-color="#BABABA" offset="100%"/></linearGradient><linearGradient x1="49.997%" y1="0%" x2="49.997%" y2="100%" id="n"><stop stop-color="#FFF" offset="0%"/><stop stop-color="#BABABA" offset="100%"/></linearGradient></defs><g transform="translate(4 3)" fill="none" fill-rule="evenodd"><path d="M163.752 48.5l-72.13 15.836a16.876 16.876 0 0 1-7.241 0L12.254 48.5C5.148 46.94.04 40.156.04 32.28v-2.644c0-8.663 5.814-16.032 13.695-17.356L85.208.272c1.85-.311 3.74-.311 5.591 0l71.474 12.008c7.88 1.324 13.696 8.693 13.696 17.356v2.645c-.004 7.875-5.113 14.658-12.217 16.219z" fill="#FF5DFB"/><use filter="url(#a)" xlink:href="#b" fill="#000"/><path d="M161.632 46.93L93 61.224c-2.323.473-7.578.473-9.9 0L14.371 46.93C7.465 45.52 2.5 39.4 2.5 32.29v-2.385c0-7.82 5.652-14.47 13.313-15.665L85.287 3.4c1.8-.28 3.632-.28 5.43 0l69.477 10.84c7.66 1.192 13.312 7.845 13.312 15.665v2.386c-.001 7.107-4.967 13.23-11.874 14.639z" fill="#FF5DFB"/><path d="M161.055 46.691L91.494 60.748c-2.305.466-4.68.466-6.984 0L14.95 46.691A14.69 14.69 0 0 1 3.17 32.293v-2.348a15.59 15.59 0 0 1 13.206-15.408L84.51 3.877c1.785-.276 5.198-.276 6.984 0l68.13 10.66a15.59 15.59 0 0 1 13.21 15.408v2.348a14.69 14.69 0 0 1-11.78 14.398z" fill="url(#c)"/><path d="M3.17 32.293A14.69 14.69 0 0 0 14.948 46.69l69.563 14.057c2.305.466 4.68.466 6.984 0l69.561-14.058a14.69 14.69 0 0 0 11.778-14.399v-2.348c0-.174-.004-.347-.01-.522-20.723-4.905-51.03-8-84.784-8-33.794.004-64.134 3.105-84.857 8.018-.006.167-.009.335-.009.503l-.004 2.35z" fill="#1B131C"/><path d="M74.557 44.875H72.49c-.206-.371-.425-.635-.657-.792a1.918 1.918 0 0 0-1.1-.322 2.224 2.224 0 0 0-1.119.299c-.347.197-.63.49-.815.845-.2.378-.303.8-.298 1.228a2.6 2.6 0 0 0 .298 1.248c.19.364.481.665.838.868.34.198.725.304 1.119.306.337.005.67-.087.956-.266.31-.208.573-.482.768-.801h2.066c-.167.44-.393.855-.67 1.234a3.896 3.896 0 0 1-1.359 1.107 4.1 4.1 0 0 1-1.835.396c-1.297 0-2.335-.49-3.112-1.469a4.175 4.175 0 0 1-.353-4.639 3.862 3.862 0 0 1 1.5-1.483 3.972 3.972 0 0 1 3.12-.38c.352.099.69.243 1.006.43.283.167.543.373.771.61.203.21.382.442.533.691.163.284.3.582.41.89z" fill="#E2E4E8"/><path d="M83.553 42.346v7.628h-1.678v-.946c-.327.363-.72.66-1.157.878-.468.22-.982.328-1.5.316a3.54 3.54 0 0 1-1.851-.493 3.72 3.72 0 0 1-1.345-1.43c-.348-.626-.522-1.34-.522-2.14a4.352 4.352 0 0 1 .507-2.1 3.612 3.612 0 0 1 1.402-1.453 3.707 3.707 0 0 1 1.869-.513c.403-.007.804.064 1.18.208.317.123.614.292.882.5a2.3 2.3 0 0 1 .506.513h.027v-.969h1.68zm-1.731 3.797c0-.711-.214-1.286-.64-1.724a2.142 2.142 0 0 0-1.6-.658 2.148 2.148 0 0 0-1.956 1.211 2.669 2.669 0 0 0-.299 1.225c0 .666.22 1.224.66 1.673a2.166 2.166 0 0 0 1.608.671c.667 0 1.204-.232 1.613-.697.41-.466.614-1.032.614-1.7z" fill="#E2E4E8" fill-rule="nonzero"/><path d="M89.779 44.423h-1.785c-.054-.237-.142-.407-.265-.51a.759.759 0 0 0-.969.04.635.635 0 0 0-.198.47.53.53 0 0 0 .161.389c.107.107.385.228.832.362.696.215 1.189.408 1.479.58.294.173.534.424.695.725.176.338.264.715.255 1.097a2.544 2.544 0 0 1-.769 1.881c-.512.508-1.15.762-1.915.762a2.99 2.99 0 0 1-1.25-.252 2.72 2.72 0 0 1-.886-.61 2.471 2.471 0 0 1-.497-.778 3.41 3.41 0 0 1-.205-1.01h1.872c.085.358.21.61.373.755a.895.895 0 0 0 .62.218.827.827 0 0 0 .6-.224.732.732 0 0 0 .237-.54.618.618 0 0 0-.211-.501c-.141-.118-.435-.26-.883-.426-.653-.232-1.095-.422-1.328-.57a2.166 2.166 0 0 1-.751-.745 1.965 1.965 0 0 1-.249-.996c-.004-.44.11-.872.333-1.252a2.26 2.26 0 0 1 .94-.878 2.731 2.731 0 0 1 1.266-.312 2.46 2.46 0 0 1 1.07.228c.294.133.56.32.785.55.195.2.35.436.46.694.106.273.168.56.183.853z" fill="#E2E4E8"/><path d="M90.98 41.48V39.8h1.824v1.678l-1.824.002zm0 8.494v-7.628h1.824v7.628H90.98z" fill="#E2E4E8" fill-rule="nonzero"/><path d="M94.294 49.974v-7.628h1.69v.664c.286-.29.621-.528.99-.7.35-.15.728-.225 1.11-.22a2.972 2.972 0 0 1 1.456.37c.413.217.77.527 1.043.906.206.312.343.664.403 1.033.053.295.08.78.08 1.456v4.119h-1.831v-3.762c0-.696-.047-1.2-.141-1.51a1.287 1.287 0 0 0-.49-.704 1.435 1.435 0 0 0-.832-.235 1.618 1.618 0 0 0-.935.278c-.264.176-.46.435-.56.735-.108.309-.162.832-.162 1.57v3.63l-1.821-.002z" fill="#E2E4E8"/><path d="M74.408 44.726H72.34c-.206-.371-.425-.635-.657-.792a1.918 1.918 0 0 0-1.1-.322 2.224 2.224 0 0 0-1.119.299c-.347.197-.63.49-.815.845-.2.378-.303.8-.298 1.228a2.6 2.6 0 0 0 .298 1.248c.19.364.481.665.838.868.34.198.725.304 1.118.306.338.005.67-.087.957-.266.31-.208.573-.482.768-.801h2.066c-.167.44-.393.855-.67 1.234a3.896 3.896 0 0 1-1.359 1.107 4.1 4.1 0 0 1-1.835.396c-1.297 0-2.335-.49-3.113-1.47a4.175 4.175 0 0 1-.352-4.638 3.862 3.862 0 0 1 1.5-1.483 3.972 3.972 0 0 1 3.12-.38c.352.099.69.243 1.006.43.283.167.543.373.771.61.203.21.382.442.533.691.163.284.3.582.41.89z" fill="#FF5DFB"/><path d="M83.404 42.197v7.628h-1.678v-.946c-.327.363-.72.66-1.157.878-.468.22-.982.328-1.5.316a3.54 3.54 0 0 1-1.851-.493 3.72 3.72 0 0 1-1.345-1.43c-.348-.626-.522-1.34-.522-2.14a4.352 4.352 0 0 1 .506-2.1 3.612 3.612 0 0 1 1.403-1.453 3.707 3.707 0 0 1 1.868-.513c.404-.007.805.064 1.181.208.317.123.614.291.882.5a2.3 2.3 0 0 1 .506.513h.027v-.969h1.68zm-1.731 3.797c0-.711-.214-1.286-.64-1.724a2.142 2.142 0 0 0-1.6-.658 2.148 2.148 0 0 0-1.956 1.211 2.669 2.669 0 0 0-.299 1.225c0 .666.22 1.224.66 1.673a2.166 2.166 0 0 0 1.608.671c.666 0 1.204-.232 1.613-.698.41-.465.614-1.032.614-1.7z" fill="#FF5DFB" fill-rule="nonzero"/><path d="M89.63 44.274h-1.785c-.054-.237-.142-.407-.265-.51a.759.759 0 0 0-.969.04.635.635 0 0 0-.198.47.53.53 0 0 0 .161.389c.107.107.385.228.832.362.696.215 1.189.408 1.479.58.294.173.534.424.695.725.176.338.264.715.255 1.097a2.544 2.544 0 0 1-.769 1.881c-.512.508-1.15.762-1.915.762a2.99 2.99 0 0 1-1.25-.252 2.72 2.72 0 0 1-.887-.61 2.471 2.471 0 0 1-.496-.779 3.41 3.41 0 0 1-.205-1.009h1.872c.085.358.21.61.373.755a.895.895 0 0 0 .62.218.827.827 0 0 0 .6-.224.732.732 0 0 0 .237-.54.618.618 0 0 0-.211-.501c-.141-.118-.435-.26-.883-.426-.653-.232-1.095-.422-1.328-.57a2.166 2.166 0 0 1-.751-.745 1.965 1.965 0 0 1-.249-.996c-.004-.44.11-.873.333-1.252a2.26 2.26 0 0 1 .939-.878 2.731 2.731 0 0 1 1.267-.312 2.46 2.46 0 0 1 1.07.228c.294.133.56.32.785.55.195.2.35.436.46.694.106.272.168.56.183.853z" fill="#FF5DFB"/><path d="M90.83 41.331v-1.68h1.825v1.678l-1.825.002zm0 8.494v-7.628h1.825v7.628H90.83z" fill="#FF5DFB" fill-rule="nonzero"/><path d="M94.145 49.825v-7.628h1.69v.664c.286-.29.62-.528.99-.7.35-.15.728-.225 1.11-.22a2.972 2.972 0 0 1 1.455.37c.413.217.77.527 1.044.906.206.311.343.664.403 1.033.053.295.08.78.08 1.456v4.119h-1.831v-3.762c0-.696-.047-1.2-.141-1.51a1.287 1.287 0 0 0-.49-.704 1.435 1.435 0 0 0-.832-.235 1.618 1.618 0 0 0-.936.278c-.263.176-.46.435-.56.735-.107.309-.16.832-.161 1.57v3.63l-1.821-.002z" fill="#FF5DFB"/><path d="M106.055 50.073a4.025 4.025 0 0 1-1.55-.308 3.876 3.876 0 0 1-1.283-.85 4.283 4.283 0 0 1-.839-1.17 3.94 3.94 0 0 1-.395-1.738c0-.71.187-1.407.54-2.023a3.844 3.844 0 0 1 1.506-1.502 4.055 4.055 0 0 1 4.039-.003c.627.344 1.144.86 1.49 1.485a4.281 4.281 0 0 1 .272 3.53c-.16.438-.4.844-.705 1.197a3.817 3.817 0 0 1-.925.792c-.325.19-.674.336-1.037.435a4.155 4.155 0 0 1-1.113.155zm0-1.677a2.032 2.032 0 0 0 1.586-.705 2.42 2.42 0 0 0 .628-1.663 2.535 2.535 0 0 0-.309-1.218 2.236 2.236 0 0 0-.836-.886 2.066 2.066 0 0 0-1.063-.312c-.38.008-.75.114-1.077.309a2.22 2.22 0 0 0-.858.865 2.585 2.585 0 0 0 0 2.456c.192.358.481.654.834.855.333.194.71.297 1.095.299z" fill="#FF5DFB" fill-rule="nonzero"/><path d="M23.125 15.713h3.355v13.015c0 1.182-.194 2.169-.58 2.96a4.377 4.377 0 0 1-1.751 1.876 5.036 5.036 0 0 1-2.61.69c-.81.006-1.61-.17-2.342-.517a4.236 4.236 0 0 1-1.75-1.522c-.443-.67-.76-1.537-.952-2.6h3.391c.16.568.368.959.623 1.174.27.221.61.336.96.324.51 0 .914-.172 1.21-.515.295-.344.443-.895.443-1.655l.003-13.23z" fill="#F980FF"/><path d="M43.032 20.255V33.88h-2.996v-1.69a6.961 6.961 0 0 1-2.068 1.572c-.763.375-1.656.563-2.679.563-1.222 0-2.325-.293-3.307-.88-.983-.588-1.784-1.441-2.403-2.56-.62-1.12-.929-2.394-.93-3.824 0-1.382.302-2.632.906-3.751a6.452 6.452 0 0 1 2.504-2.594 6.623 6.623 0 0 1 3.339-.916c.79 0 1.494.124 2.11.372.565.22 1.096.522 1.575.895.435.348.737.653.905.917h.048v-1.73h2.996zm-3.092 6.783c0-1.27-.382-2.297-1.145-3.08-.763-.783-1.715-1.175-2.858-1.174a3.838 3.838 0 0 0-3.494 2.162 4.763 4.763 0 0 0-.533 2.187c0 1.192.393 2.19 1.18 2.99a3.869 3.869 0 0 0 2.87 1.204c1.193 0 2.154-.415 2.883-1.246.729-.83 1.095-1.845 1.097-3.043z" fill="#F980FF" fill-rule="nonzero"/><path d="M59.175 24.773h-3.69c-.369-.663-.76-1.135-1.175-1.417a3.43 3.43 0 0 0-1.966-.574 3.973 3.973 0 0 0-1.996.527 3.718 3.718 0 0 0-1.456 1.51 4.56 4.56 0 0 0-.527 2.193c-.009.776.176 1.543.54 2.229.339.65.859 1.19 1.498 1.552a3.989 3.989 0 0 0 2.001.546 3.13 3.13 0 0 0 1.708-.474c.497-.315.954-.793 1.372-1.433h3.691c-.367.911-.767 1.647-1.198 2.206a6.96 6.96 0 0 1-2.427 1.977c-.955.472-2.049.708-3.28.708-2.317 0-4.171-.875-5.561-2.625-1.07-1.342-1.606-2.892-1.606-4.65a7.23 7.23 0 0 1 .959-3.631 6.889 6.889 0 0 1 2.678-2.655c1.147-.643 2.335-.965 3.566-.965.68.001 1.355.098 2.007.288.63.176 1.235.434 1.798.767.506.3.97.667 1.379 1.09.362.376.683.79.955 1.235.29.51.535 1.043.73 1.596z" fill="#F980FF"/><path fill="#F980FF" d="M61.8720881 33.8813045L61.8720881 15.7125286 65.1296908 15.7125286 65.1296908 26.6705972 65.1773994 26.6705972 69.5278272 20.2597543 73.2789157 20.2597543 68.3776027 26.9352308 73.9259636 33.8813045 69.8028971 33.8813045 65.176654 27.5054977 65.1296908 27.5054977 65.1296908 33.8813045z"/><path d="M75.295 38.424v-18.17h2.996v1.595h.048c.607-.696 1.253-1.211 1.938-1.546.685-.335 1.496-.503 2.433-.504a6.774 6.774 0 0 1 3.464.905c1.038.604 1.865 1.485 2.48 2.643a7.93 7.93 0 0 1 .926 3.775c0 2.03-.677 3.737-2.031 5.124-1.354 1.386-2.978 2.08-4.872 2.079-.839 0-1.568-.132-2.187-.395-.62-.264-1.266-.715-1.939-1.355v5.85h-3.256zm3.068-11.362a4.614 4.614 0 0 0 .528 2.187 3.628 3.628 0 0 0 1.534 1.54c.67.36 1.31.54 1.917.54.631 0 1.268-.182 1.911-.546a3.899 3.899 0 0 0 1.517-1.54c.367-.663.558-1.41.551-2.17 0-1.222-.393-2.242-1.18-3.061-.788-.82-1.713-1.229-2.775-1.228a3.61 3.61 0 0 0-1.055.156c-.35.106-.687.256-1 .447a4.18 4.18 0 0 0-.943.805c-.323.372-.571.802-.732 1.267a4.636 4.636 0 0 0-.273 1.603zm19.859 7.263a7.156 7.156 0 0 1-2.768-.552 6.901 6.901 0 0 1-2.29-1.515 7.64 7.64 0 0 1-1.498-2.092 7.04 7.04 0 0 1-.707-3.104 7.279 7.279 0 0 1 .965-3.613 6.865 6.865 0 0 1 2.69-2.684 7.243 7.243 0 0 1 7.216-.006 6.774 6.774 0 0 1 2.66 2.654 7.651 7.651 0 0 1 .485 6.303 6.888 6.888 0 0 1-1.259 2.14 6.816 6.816 0 0 1-1.654 1.416c-.58.34-1.203.602-1.852.78a7.407 7.407 0 0 1-1.988.273zm0-2.996c1.143 0 2.087-.42 2.832-1.258a4.324 4.324 0 0 0 1.118-2.973 4.526 4.526 0 0 0-.551-2.175 3.994 3.994 0 0 0-1.491-1.582c-.628-.372-1.261-.557-1.9-.557-.63 0-1.272.183-1.923.55a3.967 3.967 0 0 0-1.535 1.547 4.622 4.622 0 0 0-.006 4.386c.344.64.86 1.17 1.491 1.528a3.917 3.917 0 0 0 1.965.534z" fill="#F980FF" fill-rule="nonzero"/><path fill="#F980FF" d="M108.169555 33.8813045L108.169555 23.1550699 106.576535 23.1550699 106.576535 20.2545362 108.171046 20.2545362 108.171046 15.7125286 111.442812 15.7125286 111.442812 20.2545362 113.395883 20.2545362 113.395883 23.1550699 111.442812 23.1550699 111.442812 33.8813045z"/><path d="M132.22 20.902h-3.823c-.696-.768-1.427-1.36-2.194-1.78-.766-.419-1.629-.628-2.589-.629-1.006 0-1.983.276-2.93.827a5.937 5.937 0 0 0-2.24 2.319 6.368 6.368 0 0 0-.82 3.11c-.012.9.176 1.79.55 2.609.33.732.788 1.398 1.355 1.966a6.41 6.41 0 0 0 1.702 1.216c.776.38 1.628.577 2.492.575 1.74 0 3.238-.763 4.495-2.289h3.906c-.43.895-.874 1.618-1.33 2.17a8.667 8.667 0 0 1-2.037 1.815c-.74.475-1.546.84-2.391 1.084a9.474 9.474 0 0 1-2.63.36c-2.597 0-4.826-.928-6.688-2.786s-2.793-4.074-2.793-6.648c0-1.414.267-2.697.802-3.847.536-1.15 1.2-2.111 1.996-2.883a9.934 9.934 0 0 1 2.571-1.827 9.266 9.266 0 0 1 4.026-.91 9.65 9.65 0 0 1 2.966.479c.955.3 1.853.76 2.654 1.36a9.334 9.334 0 0 1 1.917 1.911c.34.448.685 1.047 1.033 1.798z" fill="#F980FF"/><path d="M133.865 18.708v-2.995h3.26v2.995h-3.26zm0 15.173V20.255h3.26V33.88h-3.26z" fill="#F980FF" fill-rule="nonzero"/><path fill="#F980FF" d="M140.564439 33.8813045L140.564439 23.1550699 138.969928 23.1550699 138.969928 20.2545362 140.564439 20.2545362 140.564439 15.7125286 143.836205 15.7125286 143.836205 20.2545362 145.787039 20.2545362 145.787039 23.1550699 143.833223 23.1550699 143.833223 33.8813045z"/><path fill="#F980FF" d="M149.564964 38.4240576L152.069665 32.6095722 147.084117 20.2545362 150.811351 20.2545362 153.903465 28.9919187 157.199085 20.2545362 160.902465 20.2545362 153.075273 38.4240576z"/><path d="M22.976 15.563h3.355V28.58c0 1.182-.194 2.169-.581 2.96A4.377 4.377 0 0 1 24 33.415a5.036 5.036 0 0 1-2.61.69c-.81.005-1.61-.17-2.342-.517a4.236 4.236 0 0 1-1.75-1.522c-.443-.67-.76-1.537-.953-2.6h3.392c.16.568.367.959.623 1.174.27.22.61.336.959.324.511 0 .915-.172 1.21-.515.296-.344.444-.895.444-1.655l.003-13.23z" fill="#F980FF"/><path d="M42.883 20.105v13.627h-2.996v-1.69a6.961 6.961 0 0 1-2.068 1.572c-.763.375-1.656.563-2.679.563-1.222 0-2.325-.293-3.307-.88-.983-.588-1.784-1.442-2.404-2.56-.618-1.12-.928-2.394-.928-3.824 0-1.382.301-2.633.905-3.751a6.452 6.452 0 0 1 2.504-2.594 6.623 6.623 0 0 1 3.338-.917c.792 0 1.495.125 2.11.373.566.22 1.097.522 1.576.895.435.348.737.653.905.917h.048v-1.73h2.996zM39.79 26.89c0-1.27-.381-2.297-1.144-3.08-.763-.783-1.716-1.175-2.859-1.174a3.838 3.838 0 0 0-3.493 2.162 4.763 4.763 0 0 0-.533 2.187c0 1.192.393 2.19 1.18 2.99a3.869 3.869 0 0 0 2.87 1.204c1.193 0 2.154-.415 2.883-1.246.729-.831 1.094-1.845 1.096-3.043z" fill="#F980FF" fill-rule="nonzero"/><path d="M59.026 24.624h-3.69c-.369-.663-.76-1.135-1.176-1.417a3.43 3.43 0 0 0-1.965-.574 3.973 3.973 0 0 0-1.996.527 3.718 3.718 0 0 0-1.456 1.51 4.56 4.56 0 0 0-.527 2.193c-.01.776.176 1.543.54 2.229.339.65.859 1.19 1.498 1.552a3.989 3.989 0 0 0 2.001.545 3.13 3.13 0 0 0 1.708-.473c.497-.315.954-.793 1.372-1.433h3.691c-.367.911-.767 1.647-1.198 2.206a6.96 6.96 0 0 1-2.427 1.977c-.955.472-2.049.708-3.28.708-2.317 0-4.171-.875-5.561-2.625-1.07-1.342-1.606-2.892-1.606-4.65a7.23 7.23 0 0 1 .959-3.631 6.889 6.889 0 0 1 2.678-2.655c1.147-.643 2.335-.965 3.566-.965.679.001 1.355.098 2.007.287.63.177 1.235.434 1.798.768.506.3.97.667 1.379 1.09.362.376.682.79.954 1.235.291.51.536 1.043.731 1.596z" fill="#F980FF"/><path fill="#F980FF" d="M61.7229987 33.7322152L61.7229987 15.5634392 64.9806014 15.5634392 64.9806014 26.5215078 65.02831 26.5215078 69.3787378 20.110665 73.1298263 20.110665 68.2285133 26.7861415 73.7768742 33.7322152 69.6538077 33.7322152 65.0275646 27.3564083 64.9806014 27.3564083 64.9806014 33.7322152z"/><path d="M75.146 38.275v-18.17h2.996V21.7h.048c.607-.696 1.253-1.211 1.938-1.546.685-.335 1.496-.503 2.432-.504a6.774 6.774 0 0 1 3.465.905c1.038.604 1.865 1.485 2.48 2.643a7.93 7.93 0 0 1 .926 3.775c0 2.03-.677 3.737-2.031 5.124-1.354 1.386-2.978 2.08-4.872 2.079-.839 0-1.568-.132-2.187-.395-.62-.264-1.266-.715-1.939-1.355v5.849h-3.256zm3.068-11.362a4.614 4.614 0 0 0 .528 2.187 3.628 3.628 0 0 0 1.534 1.54c.67.36 1.31.54 1.917.54.631 0 1.268-.182 1.911-.546a3.899 3.899 0 0 0 1.517-1.54c.367-.663.557-1.41.551-2.17 0-1.222-.393-2.243-1.18-3.062-.788-.818-1.713-1.228-2.775-1.227a3.61 3.61 0 0 0-1.055.156c-.35.106-.687.256-1 .447a4.18 4.18 0 0 0-.943.805c-.323.372-.571.802-.732 1.267a4.636 4.636 0 0 0-.273 1.603zm19.858 7.263a7.156 7.156 0 0 1-2.767-.552 6.901 6.901 0 0 1-2.29-1.515 7.64 7.64 0 0 1-1.498-2.092 7.04 7.04 0 0 1-.707-3.104 7.279 7.279 0 0 1 .965-3.613 6.865 6.865 0 0 1 2.69-2.684 7.243 7.243 0 0 1 7.215-.006 6.774 6.774 0 0 1 2.66 2.654 7.651 7.651 0 0 1 .485 6.303 6.888 6.888 0 0 1-1.258 2.14 6.816 6.816 0 0 1-1.654 1.416c-.58.34-1.203.602-1.852.78a7.408 7.408 0 0 1-1.989.273zm0-2.996c1.143 0 2.088-.42 2.833-1.259a4.324 4.324 0 0 0 1.118-2.972 4.526 4.526 0 0 0-.551-2.176 3.994 3.994 0 0 0-1.491-1.581c-.628-.372-1.261-.557-1.9-.557-.631 0-1.272.183-1.924.55a3.967 3.967 0 0 0-1.534 1.547 4.622 4.622 0 0 0-.006 4.386c.344.64.86 1.169 1.491 1.528a3.917 3.917 0 0 0 1.964.534z" fill="#F980FF" fill-rule="nonzero"/><path fill="#F980FF" d="M108.020466 33.7322152L108.020466 23.0059805 106.427446 23.0059805 106.427446 20.1054468 108.021957 20.1054468 108.021957 15.5634392 111.293723 15.5634392 111.293723 20.1054468 113.246794 20.1054468 113.246794 23.0059805 111.293723 23.0059805 111.293723 33.7322152z"/><path d="M132.07 20.752h-3.823c-.695-.767-1.426-1.36-2.193-1.779-.766-.419-1.629-.629-2.589-.629-1.006 0-1.983.276-2.93.827a5.937 5.937 0 0 0-2.24 2.319 6.368 6.368 0 0 0-.82 3.11c-.012.9.176 1.79.55 2.609.33.731.788 1.397 1.355 1.966a6.41 6.41 0 0 0 1.701 1.216c.776.38 1.63.576 2.493.575 1.74 0 3.238-.763 4.495-2.289h3.906c-.431.895-.874 1.618-1.33 2.17a8.667 8.667 0 0 1-2.037 1.815c-.74.475-1.546.84-2.391 1.084a9.474 9.474 0 0 1-2.63.36c-2.597 0-4.826-.928-6.688-2.786s-2.793-4.074-2.793-6.648c0-1.414.267-2.697.802-3.847.536-1.15 1.2-2.112 1.996-2.883a9.934 9.934 0 0 1 2.571-1.827 9.266 9.266 0 0 1 4.025-.91 9.65 9.65 0 0 1 2.967.478c.955.3 1.853.76 2.654 1.36a9.334 9.334 0 0 1 1.917 1.912c.34.447.685 1.047 1.033 1.797z" fill="#F980FF"/><path d="M133.716 18.56v-2.997h3.26v2.996h-3.26zm0 15.172V20.105h3.26v13.627h-3.26z" fill="#F980FF" fill-rule="nonzero"/><path fill="#F980FF" d="M140.415349 33.7322152L140.415349 23.0059805 138.820839 23.0059805 138.820839 20.1054468 140.415349 20.1054468 140.415349 15.5634392 143.687116 15.5634392 143.687116 20.1054468 145.63795 20.1054468 145.63795 23.0059805 143.684134 23.0059805 143.684134 33.7322152z"/><path fill="#F980FF" d="M149.415875 38.2749682L151.920576 32.4604828 146.935028 20.1054468 150.662262 20.1054468 153.754375 28.8428293 157.049996 20.1054468 160.753376 20.1054468 152.926184 38.2749682z"/><path d="M23.349 15.936h3.354v13.016c0 1.182-.193 2.169-.58 2.96a4.377 4.377 0 0 1-1.75 1.875 5.036 5.036 0 0 1-2.61.69c-.81.006-1.61-.17-2.343-.516a4.236 4.236 0 0 1-1.75-1.522c-.442-.671-.76-1.538-.952-2.6h3.392c.16.567.367.959.623 1.174.27.22.61.336.959.323.511 0 .915-.171 1.21-.515.296-.343.444-.895.444-1.654l.003-13.23z" fill="#FDD2FF"/><path d="M43.255 20.478v13.627H40.26v-1.69a6.961 6.961 0 0 1-2.068 1.571c-.762.376-1.655.564-2.678.564-1.222 0-2.325-.294-3.307-.881-.983-.588-1.784-1.44-2.404-2.56-.619-1.119-.928-2.393-.929-3.823 0-1.382.302-2.633.905-3.751a6.452 6.452 0 0 1 2.505-2.594 6.623 6.623 0 0 1 3.338-.917c.791 0 1.495.124 2.11.373.566.22 1.097.521 1.576.894.435.348.737.654.905.917h.047v-1.73h2.996zm-3.092 6.784c0-1.27-.381-2.297-1.144-3.08-.763-.784-1.716-1.175-2.859-1.175a3.838 3.838 0 0 0-3.493 2.162 4.763 4.763 0 0 0-.534 2.187c0 1.193.394 2.19 1.181 2.99a3.869 3.869 0 0 0 2.87 1.205c1.193 0 2.154-.415 2.883-1.246.729-.831 1.094-1.846 1.096-3.043z" fill="#FDD2FF" fill-rule="nonzero"/><path d="M59.399 24.996h-3.691c-.368-.662-.76-1.134-1.175-1.416a3.43 3.43 0 0 0-1.966-.575 3.973 3.973 0 0 0-1.995.527 3.718 3.718 0 0 0-1.456 1.51 4.56 4.56 0 0 0-.527 2.194c-.01.776.176 1.542.539 2.229.34.65.86 1.19 1.498 1.552a3.989 3.989 0 0 0 2.002.545 3.13 3.13 0 0 0 1.708-.473c.497-.316.954-.793 1.372-1.433h3.69c-.367.911-.766 1.646-1.197 2.206a6.96 6.96 0 0 1-2.427 1.977c-.956.472-2.049.708-3.28.707-2.318 0-4.171-.875-5.561-2.624-1.07-1.342-1.606-2.892-1.606-4.65a7.23 7.23 0 0 1 .959-3.632 6.889 6.889 0 0 1 2.678-2.654c1.146-.643 2.335-.965 3.565-.966.68.002 1.356.099 2.008.288.63.176 1.235.434 1.798.767.506.3.97.667 1.378 1.09.363.376.683.79.955 1.236.29.509.535 1.043.73 1.595z" fill="#FDD2FF"/><path fill="#FDD2FF" d="M62.0957222 34.1049386L62.0957222 15.9361626 65.3533249 15.9361626 65.3533249 26.8942313 65.4010335 26.8942313 69.7514612 20.4833884 73.5025498 20.4833884 68.6012368 27.1588649 74.1495976 34.1049386 70.0265311 34.1049386 65.400288 27.7291317 65.3533249 27.7291317 65.3533249 34.1049386z"/><path d="M75.519 38.648v-18.17h2.996v1.595h.048c.607-.696 1.253-1.211 1.938-1.546.685-.335 1.495-.503 2.432-.504a6.774 6.774 0 0 1 3.464.905c1.038.603 1.865 1.484 2.481 2.642a7.93 7.93 0 0 1 .926 3.776c0 2.03-.677 3.737-2.031 5.123-1.355 1.387-2.979 2.08-4.873 2.08-.838 0-1.567-.132-2.187-.396-.62-.263-1.266-.714-1.938-1.354v5.849H75.52zm3.067-11.362a4.614 4.614 0 0 0 .528 2.187 3.628 3.628 0 0 0 1.534 1.54c.671.36 1.31.54 1.918.54.63 0 1.268-.182 1.911-.546a3.899 3.899 0 0 0 1.516-1.54c.368-.664.558-1.41.552-2.17 0-1.222-.394-2.243-1.18-3.062-.788-.819-1.713-1.228-2.775-1.228a3.61 3.61 0 0 0-1.055.156c-.351.107-.687.257-1 .448a4.18 4.18 0 0 0-.944.805c-.322.371-.57.802-.73 1.267a4.636 4.636 0 0 0-.275 1.603zm19.86 7.262a7.156 7.156 0 0 1-2.769-.551 6.901 6.901 0 0 1-2.289-1.516 7.64 7.64 0 0 1-1.498-2.091 7.04 7.04 0 0 1-.707-3.104 7.279 7.279 0 0 1 .965-3.614 6.865 6.865 0 0 1 2.69-2.683 7.243 7.243 0 0 1 7.215-.006 6.774 6.774 0 0 1 2.66 2.654 7.651 7.651 0 0 1 .485 6.303 6.888 6.888 0 0 1-1.258 2.14 6.816 6.816 0 0 1-1.654 1.416c-.58.34-1.203.601-1.852.779a7.408 7.408 0 0 1-1.989.273zm0-2.995c1.142 0 2.086-.42 2.832-1.259a4.324 4.324 0 0 0 1.118-2.973 4.526 4.526 0 0 0-.552-2.175 3.994 3.994 0 0 0-1.49-1.582c-.628-.37-1.262-.557-1.9-.557-.631 0-1.272.184-1.924.551a3.967 3.967 0 0 0-1.534 1.546 4.622 4.622 0 0 0-.006 4.387c.343.64.86 1.169 1.49 1.528a3.917 3.917 0 0 0 1.965.534z" fill="#FDD2FF" fill-rule="nonzero"/><path fill="#FDD2FF" d="M108.393189 34.1049386L108.393189 23.3787039 106.800169 23.3787039 106.800169 20.4781703 108.39468 20.4781703 108.39468 15.9361626 111.666446 15.9361626 111.666446 20.4781703 113.619517 20.4781703 113.619517 23.3787039 111.666446 23.3787039 111.666446 34.1049386z"/><path d="M132.444 21.125h-3.824c-.696-.767-1.427-1.36-2.193-1.78-.766-.418-1.63-.628-2.589-.628-1.006 0-1.983.275-2.93.826a5.937 5.937 0 0 0-2.241 2.32 6.368 6.368 0 0 0-.82 3.11c-.012.9.176 1.79.55 2.609.33.731.789 1.397 1.355 1.965a6.41 6.41 0 0 0 1.702 1.217c.776.38 1.629.576 2.493.575 1.74 0 3.237-.763 4.494-2.289h3.907c-.431.895-.875 1.618-1.33 2.17a8.667 8.667 0 0 1-2.037 1.814c-.74.476-1.546.841-2.391 1.085a9.474 9.474 0 0 1-2.631.36c-2.596 0-4.825-.929-6.688-2.786-1.862-1.858-2.793-4.074-2.793-6.648 0-1.415.268-2.697.803-3.847s1.2-2.112 1.996-2.883a9.934 9.934 0 0 1 2.57-1.827 9.266 9.266 0 0 1 4.026-.911 9.65 9.65 0 0 1 2.966.48c.956.299 1.853.759 2.655 1.36a9.334 9.334 0 0 1 1.917 1.91c.34.448.685 1.047 1.033 1.798z" fill="#FDD2FF"/><path d="M134.089 18.932v-2.996h3.26v2.996h-3.26zm0 15.173V20.478h3.26v13.627h-3.26z" fill="#FDD2FF" fill-rule="nonzero"/><path fill="#FDD2FF" d="M140.788073 34.1049386L140.788073 23.3787039 139.193562 23.3787039 139.193562 20.4781703 140.788073 20.4781703 140.788073 15.9361626 144.059839 15.9361626 144.059839 20.4781703 146.010673 20.4781703 146.010673 23.3787039 144.056857 23.3787039 144.056857 34.1049386z"/><path fill="#FDD2FF" d="M149.788598 38.6476917L152.293299 32.8332063 147.307751 20.4781703 151.034985 20.4781703 154.127099 29.2155527 157.422719 20.4781703 161.126099 20.4781703 153.298907 38.6476917z"/><path d="M23.2 15.787h3.354v13.016c0 1.182-.193 2.169-.58 2.96a4.377 4.377 0 0 1-1.75 1.875 5.036 5.036 0 0 1-2.61.69c-.81.006-1.61-.17-2.343-.516a4.236 4.236 0 0 1-1.75-1.522c-.443-.671-.76-1.538-.952-2.6h3.392c.16.567.367.959.623 1.174.27.22.61.336.959.323.511 0 .915-.171 1.21-.515.296-.343.444-.895.444-1.654l.003-13.23z" fill="url(#d)"/><path d="M43.106 20.33v13.626H40.11v-1.69a6.961 6.961 0 0 1-2.068 1.571c-.762.376-1.655.564-2.678.564-1.223 0-2.325-.294-3.308-.881-.982-.588-1.783-1.44-2.403-2.56-.619-1.119-.928-2.393-.929-3.823 0-1.383.302-2.633.905-3.752a6.452 6.452 0 0 1 2.505-2.593 6.623 6.623 0 0 1 3.338-.917c.791 0 1.494.124 2.11.373.566.22 1.096.521 1.576.894.435.348.737.654.905.917h.047v-1.73h2.996zm-3.092 6.783c0-1.27-.381-2.297-1.144-3.08-.763-.784-1.716-1.175-2.859-1.175a3.838 3.838 0 0 0-3.493 2.162 4.763 4.763 0 0 0-.534 2.187c0 1.193.394 2.19 1.18 2.99a3.869 3.869 0 0 0 2.87 1.205c1.194 0 2.154-.416 2.884-1.246.729-.831 1.094-1.846 1.096-3.043z" fill="url(#e)" fill-rule="nonzero"/><path d="M59.25 24.847h-3.691c-.368-.662-.76-1.134-1.175-1.416a3.43 3.43 0 0 0-1.966-.575 3.973 3.973 0 0 0-1.995.527 3.718 3.718 0 0 0-1.456 1.51 4.56 4.56 0 0 0-.527 2.194c-.01.776.176 1.542.539 2.228.34.651.86 1.19 1.498 1.552a3.989 3.989 0 0 0 2.002.546 3.13 3.13 0 0 0 1.708-.473c.496-.316.954-.793 1.372-1.433h3.69c-.367.911-.766 1.646-1.197 2.206a6.96 6.96 0 0 1-2.428 1.977c-.955.472-2.048.708-3.28.707-2.317 0-4.17-.875-5.56-2.625-1.071-1.341-1.606-2.891-1.606-4.65a7.23 7.23 0 0 1 .958-3.63 6.889 6.889 0 0 1 2.679-2.655c1.146-.643 2.335-.965 3.565-.966.68.002 1.355.099 2.008.288.63.176 1.235.434 1.798.767.506.3.97.667 1.378 1.09.363.376.683.79.955 1.236.29.509.535 1.043.73 1.595z" fill="url(#f)"/><path fill="url(#g)" d="M61.9466328 33.9558492L61.9466328 15.7870733 65.2042355 15.7870733 65.2042355 26.7451419 65.2519441 26.7451419 69.6023719 20.334299 73.3534604 20.334299 68.4521474 27.0097755 74.0005083 33.9558492 69.8774418 33.9558492 65.2511986 27.5800424 65.2042355 27.5800424 65.2042355 33.9558492z"/><path d="M75.37 38.499v-18.17h2.996v1.595h.048c.607-.696 1.253-1.212 1.938-1.546.685-.335 1.495-.503 2.432-.504a6.774 6.774 0 0 1 3.464.905c1.038.603 1.865 1.484 2.481 2.642a7.93 7.93 0 0 1 .926 3.776c0 2.029-.677 3.737-2.031 5.123-1.355 1.387-2.979 2.08-4.873 2.08-.838 0-1.567-.132-2.187-.396-.62-.263-1.266-.715-1.938-1.354v5.849H75.37zm3.067-11.362a4.614 4.614 0 0 0 .528 2.187 3.628 3.628 0 0 0 1.534 1.54c.671.36 1.31.54 1.918.54.63 0 1.268-.182 1.91-.546a3.899 3.899 0 0 0 1.517-1.54c.368-.664.558-1.411.552-2.17 0-1.222-.394-2.243-1.181-3.062s-1.712-1.228-2.775-1.228a3.61 3.61 0 0 0-1.054.156c-.351.107-.687.257-1 .447a4.18 4.18 0 0 0-.944.806c-.322.371-.57.802-.731 1.267a4.636 4.636 0 0 0-.274 1.603z" fill="url(#h)" fill-rule="nonzero"/><path d="M98.296 34.4a7.156 7.156 0 0 1-2.768-.552 6.901 6.901 0 0 1-2.289-1.516 7.64 7.64 0 0 1-1.498-2.091 7.04 7.04 0 0 1-.707-3.104 7.279 7.279 0 0 1 .965-3.614 6.865 6.865 0 0 1 2.69-2.683 7.243 7.243 0 0 1 7.215-.006 6.774 6.774 0 0 1 2.66 2.654 7.651 7.651 0 0 1 .485 6.303 6.888 6.888 0 0 1-1.258 2.14 6.816 6.816 0 0 1-1.654 1.416c-.58.34-1.203.601-1.852.779a7.408 7.408 0 0 1-1.989.273zm0-2.997c1.143 0 2.087-.419 2.833-1.258a4.324 4.324 0 0 0 1.118-2.973 4.526 4.526 0 0 0-.552-2.175 3.994 3.994 0 0 0-1.49-1.582c-.628-.371-1.262-.557-1.9-.557-.631 0-1.272.184-1.924.551a3.967 3.967 0 0 0-1.534 1.546 4.622 4.622 0 0 0-.006 4.387c.343.639.86 1.169 1.49 1.528a3.917 3.917 0 0 0 1.965.533z" fill="url(#i)" fill-rule="nonzero"/><path fill="url(#j)" d="M108.2441 33.9558492L108.2441 23.2296146 106.65108 23.2296146 106.65108 20.3290809 108.245591 20.3290809 108.245591 15.7870733 111.517357 15.7870733 111.517357 20.3290809 113.470428 20.3290809 113.470428 23.2296146 111.517357 23.2296146 111.517357 33.9558492z"/><path d="M132.294 20.976h-3.823c-.696-.767-1.427-1.36-2.193-1.78-.766-.418-1.63-.628-2.589-.628-1.006 0-1.983.275-2.93.826a5.937 5.937 0 0 0-2.241 2.32 6.368 6.368 0 0 0-.82 3.11c-.012.9.176 1.79.55 2.608.33.732.789 1.398 1.355 1.966a6.41 6.41 0 0 0 1.702 1.217c.776.38 1.629.576 2.493.574 1.74 0 3.237-.762 4.494-2.288h3.907c-.431.895-.875 1.618-1.33 2.17a8.667 8.667 0 0 1-2.037 1.814c-.74.476-1.546.84-2.392 1.085a9.474 9.474 0 0 1-2.63.36c-2.596 0-4.826-.929-6.688-2.786-1.862-1.858-2.793-4.074-2.793-6.648 0-1.415.268-2.697.803-3.848.535-1.15 1.2-2.11 1.996-2.882a9.934 9.934 0 0 1 2.57-1.827 9.266 9.266 0 0 1 4.026-.911 9.65 9.65 0 0 1 2.966.48c.956.299 1.853.759 2.655 1.36a9.334 9.334 0 0 1 1.917 1.91c.34.448.685 1.047 1.032 1.798z" fill="url(#k)"/><path d="M133.94 18.783v-2.996h3.26v2.996h-3.26zm0 15.173V20.329h3.26v13.627h-3.26z" fill="url(#l)" fill-rule="nonzero"/><path fill="url(#m)" d="M140.638983 33.9558492L140.638983 23.2296146 139.044473 23.2296146 139.044473 20.3290809 140.638983 20.3290809 140.638983 15.7870733 143.91075 15.7870733 143.91075 20.3290809 145.861584 20.3290809 145.861584 23.2296146 143.907768 23.2296146 143.907768 33.9558492z"/><path fill="url(#n)" d="M149.639509 38.4986023L152.14421 32.6841169 147.158662 20.3290809 150.885896 20.3290809 153.978009 29.0664634 157.27363 20.3290809 160.97701 20.3290809 153.149818 38.4986023z"/></g></svg>