<svg width="176" height="58" xmlns="http://www.w3.org/2000/svg"><defs><linearGradient x1="50.008%" y1="0%" x2="50.008%" y2="100.555%" id="a"><stop stop-color="#954029" offset="0%"/><stop stop-color="#3F1B13" offset="47%"/><stop stop-color="#020202" offset="100%"/></linearGradient><linearGradient x1="49.995%" y1="-43.544%" x2="49.995%" y2="119.071%" id="b"><stop stop-color="#954029" offset="0%"/><stop stop-color="#3F1B13" offset="47%"/><stop stop-color="#020202" offset="100%"/></linearGradient><linearGradient x1="50.139%" y1="-204.989%" x2="50.139%" y2="832.653%" id="c"><stop stop-color="#954029" offset="0%"/><stop stop-color="#3F1B13" offset="47%"/><stop stop-color="#020202" offset="100%"/></linearGradient><linearGradient x1="50%" y1="-195.797%" x2="50%" y2="798.986%" id="d"><stop stop-color="#954029" offset="0%"/><stop stop-color="#3F1B13" offset="47%"/><stop stop-color="#020202" offset="100%"/></linearGradient><linearGradient x1="49.993%" y1="-517.155%" x2="49.993%" y2="961.728%" id="e"><stop stop-color="#954029" offset="0%"/><stop stop-color="#3F1B13" offset="47%"/><stop stop-color="#020202" offset="100%"/></linearGradient><linearGradient x1="50.032%" y1="-473.124%" x2="50.032%" y2="1114.83%" id="f"><stop stop-color="#954029" offset="0%"/><stop stop-color="#3F1B13" offset="47%"/><stop stop-color="#020202" offset="100%"/></linearGradient><linearGradient x1="50.231%" y1="-521.65%" x2="50.231%" y2="970.088%" id="g"><stop stop-color="#954029" offset="0%"/><stop stop-color="#3F1B13" offset="47%"/><stop stop-color="#020202" offset="100%"/></linearGradient><linearGradient x1="50.028%" y1="-474.343%" x2="50.028%" y2="1117.902%" id="h"><stop stop-color="#954029" offset="0%"/><stop stop-color="#3F1B13" offset="47%"/><stop stop-color="#020202" offset="100%"/></linearGradient><linearGradient x1="50.223%" y1="-69.17%" x2="50.223%" y2="567.269%" id="i"><stop stop-color="#954029" offset="0%"/><stop stop-color="#3F1B13" offset="47%"/><stop stop-color="#020202" offset="100%"/></linearGradient><linearGradient x1="50.127%" y1="-91.642%" x2="50.127%" y2="705.107%" id="j"><stop stop-color="#954029" offset="0%"/><stop stop-color="#3F1B13" offset="47%"/><stop stop-color="#020202" offset="100%"/></linearGradient><linearGradient x1="50.035%" y1="-141.519%" x2="50.035%" y2="832.789%" id="k"><stop stop-color="#954029" offset="0%"/><stop stop-color="#3F1B13" offset="47%"/><stop stop-color="#020202" offset="100%"/></linearGradient><linearGradient x1="50%" y1="-140.268%" x2="50%" y2="827.856%" id="l"><stop stop-color="#954029" offset="0%"/><stop stop-color="#3F1B13" offset="47%"/><stop stop-color="#020202" offset="100%"/></linearGradient><linearGradient x1="50.042%" y1="-90.057%" x2="50.042%" y2="694.4%" id="m"><stop stop-color="#954029" offset="0%"/><stop stop-color="#3F1B13" offset="47%"/><stop stop-color="#020202" offset="100%"/></linearGradient><linearGradient x1="628.324%" y1="49.987%" x2="-1219.463%" y2="49.987%" id="n"><stop stop-color="#88231F" offset="0%"/><stop stop-color="#6F2C23" offset="52%"/><stop stop-color="#3C140F" offset="100%"/></linearGradient><linearGradient x1="1198.903%" y1="49.94%" x2="-545.01%" y2="49.94%" id="o"><stop stop-color="#88231F" offset="0%"/><stop stop-color="#6F2C23" offset="52%"/><stop stop-color="#3C140F" offset="100%"/></linearGradient><linearGradient x1="3348.704%" y1="50.221%" x2="-1981.523%" y2="50.221%" id="p"><stop stop-color="#88231F" offset="0%"/><stop stop-color="#6F2C23" offset="52%"/><stop stop-color="#3C140F" offset="100%"/></linearGradient><linearGradient x1="4229.968%" y1="50.057%" x2="-1922.691%" y2="50.057%" id="q"><stop stop-color="#88231F" offset="0%"/><stop stop-color="#6F2C23" offset="52%"/><stop stop-color="#3C140F" offset="100%"/></linearGradient><linearGradient x1="4517.279%" y1="49.783%" x2="-2527.935%" y2="49.783%" id="r"><stop stop-color="#88231F" offset="0%"/><stop stop-color="#6F2C23" offset="52%"/><stop stop-color="#3C140F" offset="100%"/></linearGradient><linearGradient x1="4954.7%" y1="49.855%" x2="-2514.536%" y2="49.855%" id="s"><stop stop-color="#88231F" offset="0%"/><stop stop-color="#6F2C23" offset="52%"/><stop stop-color="#3C140F" offset="100%"/></linearGradient><linearGradient x1="465.64%" y1="49.963%" x2="-1790.915%" y2="49.963%" id="t"><stop stop-color="#88231F" offset="0%"/><stop stop-color="#6F2C23" offset="52%"/><stop stop-color="#3C140F" offset="100%"/></linearGradient><linearGradient x1="882.865%" y1="49.946%" x2="-1040.942%" y2="49.946%" id="u"><stop stop-color="#88231F" offset="0%"/><stop stop-color="#6F2C23" offset="52%"/><stop stop-color="#3C140F" offset="100%"/></linearGradient><linearGradient x1="1549.183%" y1="50.006%" x2="-370.357%" y2="50.006%" id="v"><stop stop-color="#88231F" offset="0%"/><stop stop-color="#6F2C23" offset="52%"/><stop stop-color="#3C140F" offset="100%"/></linearGradient><linearGradient x1="99.508%" y1="50.005%" x2=".548%" y2="50.005%" id="w"><stop stop-color="#88231F" offset="0%"/><stop stop-color="#6F2C23" offset="52%"/><stop stop-color="#3C140F" offset="100%"/></linearGradient></defs><g fill="none" fill-rule="evenodd"><circle fill="#FFF" cx="29.162" cy="28.741" r="28.741"/><path d="M29.162 0A28.741 28.741 0 1 0 57.9 28.741C57.899 12.87 45.034.002 29.162 0zm0 53.537A24.8 24.8 0 1 1 53.958 28.74c-.002 13.693-11.103 24.794-24.796 24.796z" fill="url(#a)" fill-rule="nonzero"/><path d="M51.486 28.585l-.172-2.75-7.525-.062 6.973-2.758-.842-2.62-7.297 1.807 6.068-4.404-1.478-2.329-4.918 2.636v-.05L40.34 19.09v.067c.093.42.29.905.392 1.364.074 1.16.038 2.325-.11 3.478-.118.64-2.08 1.945-2.434 2.16-.353.215-1.195.716-1.305 1.419-.11.703-.42.472-.42 1.924-.422-.867-1.108-.994-.65-.206a8.594 8.594 0 0 1 1.184 4.252c0 1.933-1.023 3.327-1.503 3.647a4.463 4.463 0 0 1-2.177.547c-.8 0-.889-.354-1.507-.522-.62-.168-.864 0-1.306-.223-.442-.223-.842-1.373-.93-1.613-.089-.24-.118-.897.568-1.65a7.533 7.533 0 0 1 3.12-2.413c.522-.248.46-.42.54-.74.08-.32.109-.422 0-.519-.11-.097-.338.249-.586.421-.249.173-.345.228-.383-.038-.24-1.048-1.263-.631-1.903-.328l-.262.118a3.79 3.79 0 0 1-3.204 0l-.227-.105c-.657-.304-1.684-.75-1.937.315-.038.266-.135.232-.383.038-.249-.193-.455-.526-.585-.42-.13.104-.097.189 0 .517.096.328 0 .493.539.741a7.533 7.533 0 0 1 3.15 2.392c.664.753.61 1.41.546 1.654-.063.245-.488 1.373-.93 1.613-.442.24-.69.055-1.305.223-.615.169-.708.522-1.49.518a4.463 4.463 0 0 1-2.178-.547c-.48-.32-1.503-1.714-1.503-3.647a8.594 8.594 0 0 1 1.154-4.252c.459-.788-.244-.661-.649.206-.033-1.453-.332-1.22-.42-1.924-.09-.703-.952-1.209-1.306-1.42-.354-.21-2.316-1.52-2.434-2.16a18.219 18.219 0 0 1-.11-3.447c.094-.422.266-.843.367-1.243 0-.063.03-.126.042-.19l-1.958-1.035-.046.148-4.893-2.695-1.477 2.324 6.042 4.476-7.26-1.87-.841 2.62 6.943 2.829H6.829l-.172 2.737 7.452 1.006-7.263 1.87.514 2.707 7.47-.876-6.573 3.608 1.17 2.493 7.015-2.707-5.474 5.128 1.76 2.105 6.123-4.345-4.022 6.316 2.232 1.617 4.834-5.74-2.316 7.133 2.564 1.015 3.049-6.316h.185l-.45 7.023 2.736.346.842-4.308h.396a5.532 5.532 0 0 0-.278-.59c-.871-1.683-1.86-2.361-2.27-2.55-.408-.19-1.793-1.2-2-2.148-.206-.947-.8-1.314-.884-2.105-.084-.792.902-.737 1.558-.737.657 0 1.344.034 1.685-.223a6.53 6.53 0 0 1 2.34-.682 6.535 6.535 0 0 1 2.337.673c.337.257 1.024.223 1.685.223.66 0 1.638-.063 1.558.737-.08.8-.674 1.17-.885 2.106-.21.934-1.553 1.94-2 2.147-.446.206-1.33.804-2.18 2.383a9.566 9.566 0 0 0-.367.758h.51l.816 4.299 2.737-.345-.383-7.028h.198l2.947 6.316 2.564-1.015-2.26-7.158 4.8 5.769 2.231-1.621-3.975-6.383 6.063 4.412 1.756-2.105-5.436-5.208 6.973 2.762 1.17-2.493-6.543-3.684 7.44.947.514-2.707-7.263-1.937 7.427-.935z" fill="url(#b)"/><path d="M17.263 13.785l-2.526-2.374-2.009 1.886 2.994 3.684c-.408-1.107.947-2.644 1.541-3.196z" fill="url(#c)"/><path d="M42.126 17.179l3.247-3.92-2.005-1.89-2.652 2.45c.652.61 2.076 2.261 1.41 3.36z" fill="url(#d)"/><path d="M37.554 21.09a5.419 5.419 0 0 0-1.988-.88 4.838 4.838 0 0 0-2.227.422c-.72.366-.817 1.04-.914 2.593a1.73 1.73 0 0 0 .034.674c.122.463.594.08.703-.257 0 0 1.427-.366 2.004-.48.577-.114.842-.16 1.04-.42.198-.262.485-.27.842-1.04a.573.573 0 0 0 .577.113c.3-.181.522-.274-.071-.724z" fill="url(#e)"/><path d="M38.316 20.4c0-.962-.34-1.893-.96-2.627-.594-.8-1.828-.544-2.884-.421-.67.022-1.301.317-1.748.816-.393.35-.816.666-1.263.944 0 0-.303.05-.143.724.16.673.842 0 1.103-.164a6.488 6.488 0 0 1 3.061-1.167c1.507-.08 2.227 1.297 2.37 1.684.144.388.392 1.158.464.211z" fill="url(#f)"/><path d="M24.787 20.632a4.838 4.838 0 0 0-2.227-.421 5.419 5.419 0 0 0-1.987.896c-.594.45-.367.544-.08.69.196.061.41.011.56-.13.366.77.656.77.842 1.04.185.27.463.32 1.04.421.577.101 2.004.48 2.004.48.11.337.581.72.703.257.055-.22.067-.449.034-.673-.072-1.541-.169-2.215-.889-2.56z" fill="url(#g)"/><path d="M26.804 19.827c.16-.673-.143-.724-.143-.724a9.297 9.297 0 0 1-1.263-.943 2.455 2.455 0 0 0-1.747-.817c-1.057-.114-2.291-.37-2.885.421a4.067 4.067 0 0 0-.96 2.628c.063.947.303.164.45-.224.148-.387.843-1.76 2.371-1.684a6.488 6.488 0 0 1 3.057 1.18c.287.176.96.833 1.12.163z" fill="url(#h)"/><path d="M29.053 15.259l.092.097.089-.097a4.063 4.063 0 0 1 1.57-1.208l.11-.337-.489-7.44h-2.758l-.526 7.486.055.168c.731.26 1.375.722 1.857 1.33z" fill="url(#i)"/><path d="M27.133 13.895v-.143L24.817 6.64l-2.665.682 1.179 6.535a6.24 6.24 0 0 1 3.802.038z" fill="url(#j)"/><path d="M18.48 12.707l.126.29a3.987 3.987 0 0 1 1.996-.786c1.133-.03 1.385 1.103 1.73 1.827l.09.282c.183-.157.392-.283.618-.37l-3.558-5.563-2.417 1.327 1.398 3.04a.088.088 0 0 1 .017-.047z" fill="url(#k)"/><path d="M35.899 14.337l.088-.282c.346-.724.598-1.857 1.73-1.828.651.056 1.275.281 1.811.653l.114-.24 1.394-2.947-2.417-1.327-3.554 5.529c.305.09.588.24.834.442z" fill="url(#l)"/><path d="M34.72 13.777l1.225-6.468-2.682-.682-2.332 7.087.02.282a6.206 6.206 0 0 1 3.769-.22z" fill="url(#m)"/><path d="M174.876 30.093a7.634 7.634 0 0 0-.274-.472c.021-.03.034-.059.055-.088a4.261 4.261 0 0 0-1.183-6.198c-3.116-1.861-8.948-2.282-12.038 1.242a6.341 6.341 0 0 0-4.013-2.341 20.438 20.438 0 0 0-3.587-.232c-2.4.034-4.8.164-7.204.236-.872.025-1.752 0-2.624 0a4.21 4.21 0 0 0-.884.206c-3.238-1.2-6.05-.42-8.568 1.95-1.777-1.933-4.11-2.468-6.653-2.527v-5.595h-23.747v5.71a9.297 9.297 0 0 0-7.133 2.833c-2.526-2.78-5.642-3.406-9.048-2.628-3.554.817-5.52 3.306-6.383 6.737h-4.986V24.03h2.303v-7.713H65.77v7.806h1.903v7.74h-1.904v7.76h18.22v-2.106c4.669 3.305 9.36 2.947 14.214.577a9.832 9.832 0 0 0 7.31 1.633c2.715-.391 4.804-1.785 6.374-4.143.421.842.796 1.537 1.137 2.249a3.68 3.68 0 0 0 6.564 0l1.002-2.106c3.297 4.535 7.82 4.632 12.75 3.642v1.23a3.053 3.053 0 0 0 1.263 2.551 9.15 9.15 0 0 0 1.604.973 11.95 11.95 0 0 0 6.316.922c3.689-.375 6.135-2.467 6.762-5.86a2.27 2.27 0 0 1 .21-.422c1.731 1.027 3.554 1.158 5.44.905a7.857 7.857 0 0 1 1.04-.075h6.81c.357 0 .74-.207 1.06-.123 3.188.843 6.29.843 9.263-.766l.127-.063a5.267 5.267 0 0 0 1.722-2.055 7.128 7.128 0 0 0-.08-6.492z" fill="#FFF"/><path d="M144 30.459v-1.886a.994.994 0 0 0-.232-.645c-1.077-.997-3.477-.98-4.568 0-1.208 1.095-1.394 3.533-.366 4.914.934 1.263 2.833 1.52 4.366.61.56-.332.922-.715.842-1.435a12.017 12.017 0 0 1-.042-1.558z" fill="url(#n)"/><path d="M105.747 32.227c-.307-.61-.551-1.263-.91-1.827a4.177 4.177 0 0 0-.841-.792c-.35.11-.581.11-.7.228-.749.74-1.76 1.12-2.445 2a1.912 1.912 0 0 0-.333 2.008c.194.598.526.842 1.162.665a2.472 2.472 0 0 1 2.046.249c.31.177.637.318.977.42a1.423 1.423 0 0 0 1.655-.727c.34-.548.379-1.053-.185-1.52a2.105 2.105 0 0 1-.426-.704z" fill="url(#o)"/><path d="M108.295 30.442a1.326 1.326 0 0 0-1.482 1.34c.03.546.42.69.842.732.787 0 1.263-.594 1.191-1.575a.762.762 0 0 0-.551-.497z" fill="url(#p)"/><path d="M100.535 29.15c.143.711.45.842 1.078.496.627-.345.652-.383.27-1.377a.994.994 0 0 0-1.096-.736c-.185.03-.282.602-.42.93l.092.042c.012.216.038.431.076.644z" fill="url(#q)"/><path d="M105.958 29.667a.754.754 0 0 0 .939-.585c.122-.623.067-1.242-.56-1.655a1.726 1.726 0 0 0-.914 1.402c-.071.447.063.767.535.838z" fill="url(#r)"/><path d="M104.03 28.922c.247-.192.4-.482.42-.796a7.28 7.28 0 0 0-.45-1.406l-.286-.05a6.35 6.35 0 0 0-.708 1.263c-.067.214.156.593.354.791.198.198.56.29.67.198z" fill="url(#s)"/><path d="M157.448 32.08a1.903 1.903 0 0 0-.1-.248c-.876-.05-1.77-.165-2.657-.13-.49.029-.96.194-1.36.475a1.402 1.402 0 0 0 .176 2.43c1.264.526 2.476.1 3.575-.582.775-.484.295-1.284.366-1.945z" fill="url(#t)"/><path d="M128.421 27.01c-1.604-.185-2.813.788-3.187 2.62h5.654c.009-1.529-.859-2.434-2.467-2.62z" fill="url(#u)"/><path d="M90.257 26.947a2.859 2.859 0 0 0-2.897 2.704h5.667c-.13-1.697-1.174-2.683-2.77-2.704z" fill="url(#v)"/><path d="M174.876 30.093a7.634 7.634 0 0 0-.274-.472c.021-.03.034-.059.055-.088a4.261 4.261 0 0 0-1.183-6.198c-3.116-1.861-8.948-2.282-12.038 1.242a6.341 6.341 0 0 0-4.013-2.341 20.438 20.438 0 0 0-3.587-.232c-2.4.034-4.8.164-7.204.236-.872.025-1.752 0-2.624 0a4.21 4.21 0 0 0-.884.206c-3.238-1.2-6.05-.42-8.568 1.95-1.777-1.933-4.11-2.468-6.653-2.527v-5.595h-23.747v5.71a9.297 9.297 0 0 0-7.133 2.833c-2.526-2.78-5.642-3.406-9.048-2.628-3.554.817-5.52 3.306-6.383 6.737h-4.986V24.03h2.303v-7.713H65.77v7.806h1.903v7.74h-1.904v7.76h18.22v-2.106c4.669 3.305 9.36 2.947 14.214.577a9.832 9.832 0 0 0 7.31 1.633c2.715-.391 4.804-1.785 6.374-4.143.421.842.796 1.537 1.137 2.249a3.68 3.68 0 0 0 6.564 0l1.002-2.106c3.297 4.535 7.82 4.632 12.75 3.642v1.23a3.053 3.053 0 0 0 1.263 2.551 9.15 9.15 0 0 0 1.604.973 11.95 11.95 0 0 0 6.316.922c3.689-.375 6.135-2.467 6.762-5.86a2.27 2.27 0 0 1 .21-.422c1.731 1.027 3.554 1.158 5.44.905a7.857 7.857 0 0 1 1.04-.075h6.81c.357 0 .74-.207 1.06-.123 3.188.843 6.29.843 9.263-.766l.127-.063a5.267 5.267 0 0 0 1.722-2.055 7.128 7.128 0 0 0-.08-6.492zm-92.914 6.762H68.834v-2.8h1.945V21.507h-1.962v-2.783h7.545v2.75h-2.32v12.463h4.863v-2.392h3.057v5.31zm14.017-5.053h-8.644a2.947 2.947 0 0 0 1.865 2.303 6.16 6.16 0 0 0 4.097.072c.497-.14.977-.324 1.562-.518.177.632.324 1.213.505 1.781a.505.505 0 0 1-.303.724c-2.834 1.225-5.672 1.457-8.387-.236-2.375-1.486-3.23-4.631-2.198-7.507a6.105 6.105 0 0 1 6.316-3.945c4.366.391 5.87 3.87 5.208 7.322l-.021.004zm8.118 5.284c-3.79 0-6.522-2.66-6.505-6.315a6.316 6.316 0 0 1 6.496-6.316c3.76 0 6.468 2.665 6.464 6.358-.005 3.616-2.733 6.27-6.455 6.27v.003zm13.474-.897c-.131.312-.316.763-.556.843a3.878 3.878 0 0 1-1.541 0c-.148 0-.274-.367-.367-.581-1.966-4.632-3.945-9.23-5.87-13.866-.32-.779-.677-1.263-1.578-1.07a2.488 2.488 0 0 1-.543-.041v-2.762h7.158v2.762h-1.81l3.864 9.84 3.866-9.84h-1.937v-2.78h7.158v2.738a1.314 1.314 0 0 1-.346.054c-1.023-.219-1.444.295-1.814 1.209-1.84 4.518-3.773 9.002-5.689 13.49l.005.004zm16.324-4.357h-8.632c.15 1.04.86 1.914 1.849 2.273 1.52.628 3.052.421 4.564-.067.337-.11.66-.24 1.082-.421.194.67.42 1.305.543 1.954a.695.695 0 0 1-.316.555c-2.307 1.263-6.939 1.6-9.393-1.006-1.73-1.836-2.14-4.96-.901-7.415a6.152 6.152 0 0 1 6.21-3.233c4.227.484 5.672 3.995 4.994 7.36zm14.892-4.54l-1.684.114V36.442c.009.656-.05 1.31-.177 1.954a4.594 4.594 0 0 1-3.726 3.79 8.257 8.257 0 0 1-5.735-.67c-.888-.463-1.545-1.116-1.511-2.232a1.617 1.617 0 0 1 1.587-1.718 1.592 1.592 0 0 1 1.752 1.621c0 .135 0 .266.033.384 3.221 1.002 5.108-.358 4.61-4.186a.581.581 0 0 0-.218.042c-3.238 2.37-7.322 1.024-8.472-2.8-.913-3.044.421-6.315 3.095-7.604 1.941-.922 3.81-.682 5.65.573.055-.295.102-.54.156-.842h4.632l.008 2.539zm13.44 9.567h-4.623l-.151-1.086c-.472.26-.889.513-1.327.724a5.684 5.684 0 0 1-4.063.42 3.23 3.23 0 0 1-2.471-2.744 3.314 3.314 0 0 1 1.772-3.487c1.57-.842 3.268-.737 4.96-.59.354.03.7.098 1.108.157.096-1.024.176-2.021-.69-2.737-.868-.716-2.005-.7-3.096-.472.042 1.47-.492 2.177-1.612 2.21a1.587 1.587 0 0 1-1.685-1.907 2.775 2.775 0 0 1 1.74-2.223 7.373 7.373 0 0 1 6.042-.071c1.38.56 2.285 1.9 2.29 3.39.084 1.582.038 3.17.05 4.753v1.09h1.731l.025 2.573zm10.16-1.095a5.12 5.12 0 0 1-2.711 1.263 8.379 8.379 0 0 1-5.327-.842 2.526 2.526 0 0 1-1.372-1.659 1.718 1.718 0 0 1 .514-1.793 1.583 1.583 0 0 1 1.76-.27c.64.233 1.042.87.976 1.55v.42a5.225 5.225 0 0 0 3.318.182c.508-.078.892-.502.918-1.015.025-.581-.42-.813-.842-.964-.821-.287-1.684-.518-2.493-.792-.619-.21-1.237-.42-1.84-.686-2.77-1.209-2.168-4.329-.597-5.587 1.928-1.542 5.743-1.52 7.578.143.414.415.688.95.784 1.528a1.44 1.44 0 0 1-1.369 1.832c-1.116.071-1.713-.485-1.76-1.634 0-.11-.02-.215-.038-.383-.88-.278-1.726-.484-2.526-.122a1.878 1.878 0 0 0-.977.951c-.19.565.35.872.842 1.036.927.324 1.878.581 2.804.901.647.212 1.277.47 1.887.77 2.19 1.13 1.78 3.988.459 5.171h.012z" fill="url(#w)" fill-rule="nonzero"/></g></svg>