<svg width="176" height="79" xmlns="http://www.w3.org/2000/svg"><g fill="none" fill-rule="evenodd"><path d="M36.2 23.67h-8.872v13.703h-5.915V.6H36.2a11.56 11.56 0 0 1 8.38 3.376 10.985 10.985 0 0 1 3.46 8.16 11.003 11.003 0 0 1-3.46 8.165 11.578 11.578 0 0 1-8.38 3.37v-.001zm0-17.3h-8.872v11.535H36.2a5.759 5.759 0 0 0 4.19-1.688 5.49 5.49 0 0 0 1.736-4.083 5.49 5.49 0 0 0-1.736-4.082A5.753 5.753 0 0 0 36.2 6.37zm24.263-3.556h-1.796l-13.895 34.56H51.1l2.131-5.257h12.685l2.101 5.256h6.334L60.463 2.813v.001zm-5.13 24.053l4.226-10.506 4.232 10.506h-8.459.001z" fill="#20154F" fill-rule="nonzero"/><path d="M48.855 44.347h-2.12l-14.474 34.26h6.65l2.233-5.25h13.332l2.21 5.25h6.644l-14.475-34.26zm-5.502 23.754l4.442-10.506 4.442 10.506h-8.884z" fill="#DA2A90" fill-rule="nonzero"/><path d="M87.94 22.676h-3.73v14.697h-5.573V3.077h13.93a11.51 11.51 0 0 1 7.885 2.867 8.98 8.98 0 0 1 0 13.865 11.248 11.248 0 0 1-6.184 2.766l9.614 14.798H97.47l-9.53-14.697zm4.628-14.702h-8.381v9.8h8.38a5.759 5.759 0 0 0 3.946-1.431 4.502 4.502 0 0 0 0-6.932 5.765 5.765 0 0 0-3.945-1.437z" fill="#20154F" fill-rule="nonzero"/><path fill="#20154F" d="M114.298231 9.18911565L106.348299 9.18911565 106.348299 3.50802721 127.127075 3.50802721 129.952653 9.18911565 120.212789 9.18911565 120.212789 37.3730612 114.298231 37.3730612z"/><path fill="#20154F" d="M142.715646 21.6527891L130.886531 2.43646259 137.21415 2.43646259 145.672925 16.1632653 154.131701 2.43646259 160.465306 2.43646259 148.630204 21.6527891 148.630204 37.3730612 142.715646 37.3730612z"/><path d="M33.093 68.454l-.527-.353a13.39 13.39 0 0 1-1.389 1.419 15.283 15.283 0 0 1-10.47 3.837 15.2 15.2 0 0 1-10.458-3.849 12.11 12.11 0 0 1 0-18.558 15.2 15.2 0 0 1 10.458-3.849 15.283 15.283 0 0 1 10.47 3.837c.497.438.962.912 1.389 1.419l4.735-3.155a21.605 21.605 0 0 0-1.951-1.97 21.294 21.294 0 0 0-14.643-5.387 21.282 21.282 0 0 0-14.643 5.388C2.021 50.817 0 55.147 0 60.223c0 5.077 2.021 9.41 6.064 13.003 4.039 3.591 8.92 5.387 14.643 5.387a22.509 22.509 0 0 0 8.339-1.526 50.286 50.286 0 0 0 4.047-8.633zM78.84 60.08a27.424 27.424 0 0 1 6.262 4.52 6.848 6.848 0 0 1 2.185 4.831 7.782 7.782 0 0 1-1.497 4.676 10.805 10.805 0 0 1-3.777 3.298c-1.529.798-3.624 1.197-6.286 1.197a15.415 15.415 0 0 1-6.663-1.269 21.551 21.551 0 0 1-5.328-3.735l3.891-3.724c3.053 2.016 5.63 3.195 7.729 3.538 2.099.343 3.795-.122 5.088-1.395 1.293-1.269 1.479-2.526.557-3.771a15.307 15.307 0 0 0-4.514-3.742 325.456 325.456 0 0 0-5.663-3.292c-1.588-.876-3.027-2-4.262-3.329a7.321 7.321 0 0 1-1.91-4.483 7.148 7.148 0 0 1 1.359-4.79 10.01 10.01 0 0 1 4.304-3.4 16.056 16.056 0 0 1 6.49-1.197 13.69 13.69 0 0 1 5.986 1.113 18.875 18.875 0 0 1 4.933 3.826l-4.011 3.73c-2.183-2.355-4.39-3.62-6.621-3.796-2.227-.186-3.91.197-5.035 1.143s-1.73 1.916-1.796 2.91c-.083.96.32 1.896 1.072 2.496a16.93 16.93 0 0 0 2.305 1.676c.75.471 2.484 1.46 5.202 2.97v-.001z" fill="#DA2A90" fill-rule="nonzero"/><path fill="#DA2A90" d="M98.2068027 44.0359184L98.2068027 78.6073469 92.2922449 78.6073469 92.2922449 44.0359184z"/><path fill="#DA2A90" d="M105.031293 44.0239456L127.462313 65.7186395 127.462313 44.0957823 133.065578 44.0957823 133.065578 71.1183673 133.17932 71.2141497 133.065578 71.2141497 133.065578 78.6073469 132.676463 78.0685714 110.640544 56.7929252 110.640544 78.6073469 105.031293 78.6073469z"/><path d="M170.115 47.22a17.995 17.995 0 0 1 0 26.006c-7.514 7.174-19.34 7.174-26.855 0a17.96 17.96 0 0 1 0-26.005c7.51-7.184 19.345-7.184 26.855 0v-.001zm-13.427-.131a13.266 13.266 0 0 0-9.578 3.85 12.829 12.829 0 0 0 0 18.557c5.36 5.118 13.796 5.118 19.156 0a12.847 12.847 0 0 0 0-18.558 13.284 13.284 0 0 0-9.578-3.849z" fill="#DA2A90" fill-rule="nonzero"/></g></svg>