<svg height="54" viewBox="0 0 176 54" width="176" xmlns="http://www.w3.org/2000/svg"><g fill-rule="evenodd"><path d="m168.74 46.538h-3.808c.39-1.074 1.422-4.061 1.828-5.5h.131a244.275 244.275 0 0 0 1.849 5.5zm7.01 6.11-.084-1.591-1.4-.288c-1.693-3.55-4.231-9.659-5.204-12.777h-2.987a135.084 135.084 0 0 1 -5.077 12.777l-1.354.3-.11 1.591h5.745l-.11-1.612-1.806-.279c.321-.795.732-1.692 1.032-2.538h4.861c.453 1.222.69 1.717 1.032 2.538l-1.848.28-.11 1.611zm-20.832-7.379c0 3.681-1.548 5.72-4.345 5.72a19.462 19.462 0 0 1 -2.018-.127v-11.118c.6-.042 1.117-.106 1.807-.106 2.644 0 4.556 1.527 4.556 5.631zm3.829-.237c0-4.73-3.44-7.192-8.064-7.192-1.185 0-4.193.148-4.193.148h-3.27l-.127 1.59 2.06.305v10.887l-1.954.3-.106 1.591h3.588s3.143.148 4.302.148c4.367-.012 7.764-2.568 7.764-7.776zm-18.831-7.052h-6.346l-.127 1.59 2.707.305.132 7.675a124.071 124.071 0 0 0 -7.959-9.57h-5.076l-.127 1.59 2.022.305v10.894l-1.917.3-.105 1.591h6.688l-.11-1.612-2.623-.279-.152-9.134c2.086 2.175 6.579 7.742 9.075 11.27l2.065-.3v-12.73l1.739-.305zm-26.231 8.558h-3.808c.385-1.074 1.418-4.061 1.828-5.5h.127a214.023 214.023 0 0 0 1.853 5.5zm7.01 6.11-.084-1.591-1.396-.3c-1.693-3.55-4.231-9.66-5.204-12.777h-2.991a135.084 135.084 0 0 1 -5.077 12.777l-1.354.3-.106 1.59h5.741l-.106-1.611-1.81-.267c.325-.795.732-1.692 1.032-2.538h4.861c.453 1.222.69 1.717 1.032 2.538l-1.848.28-.106 1.611zm-42.395-4.536-1.49-.16-.634 2.961h-3.592v-10.395l2.018-.288.106-1.51h-7.252l-.122 1.51 1.963.288v10.332l-1.862.287-.101 1.51h8.554c.656 0 1.985.102 2.39.123zm-20.73-1.269h-3.62c.368-1.02 1.35-3.858 1.739-5.208h.118c.461 1.354 1.18 3.537 1.773 5.212l-.013-.004zm6.654 5.8-.08-1.51-1.329-.288c-1.612-3.384-4.023-9.168-4.941-12.13h-2.84a127.54 127.54 0 0 1 -4.818 12.13l-1.27.288-.1 1.51h5.453l-.106-1.531-1.714-.267c.305-.753.694-1.59.982-2.428h4.612c.423 1.163.655 1.633.981 2.428l-1.756.267-.101 1.531zm-15.519-13.923h-5.5l-.08 1.51 1.958.288a43.154 43.154 0 0 0 -2.45 4.963 51.01 51.01 0 0 0 -2.538-4.963l1.79-.288.101-1.51h-6.87l-.123 1.51 1.244.288a78.27 78.27 0 0 1 4.095 6.867v3.452l-1.84.288-.102 1.51h7.167l-.102-1.51-1.836-.288v-3.452a50.52 50.52 0 0 1 3.715-6.88l1.27-.287.1-1.498zm-19.373 6.9c0 3.516-1.472 5.5-3.719 5.5-2.246 0-3.655-1.692-3.655-5.453 0-3.96 1.717-5.5 3.778-5.5 2.06 0 3.596 1.574 3.596 5.453zm3.655-.203c.013-4.379-3.287-6.942-7.18-6.942-4.23 0-7.517 2.657-7.517 7.497 0 4.45 3.494 6.879 7.107 6.879 4.117 0 7.603-2.505 7.603-7.434zm72.875-6.143c0-3.291-2.149-5.326-6.198-5.326-1.269 0-4.624.16-4.624.16h-4.755l-.17 2.014 2.607.377v13.754l-2.471.38-.136 2.015h10.353l-.135-2.014-3.317-.38v-13.963c.49-.026 1.062-.055 1.658-.055 1.824 0 2.911 1.167 2.911 3.384 0 2.585-1.468 3.588-3.072 3.588a3.004 3.004 0 0 1 -.896-.08l.325 2.115c.433.042.868.06 1.303.055 3.165.008 6.617-1.722 6.617-6.025zm-87.052 13.429-6.008-9.126v-.08c1.693-.466 3.156-2.205 3.156-4.54 0-3.182-2.314-5-5.601-5-.817 0-5.136.16-5.136.16h-5.056l-.165 2.005 2.61.377v13.754l-2.475.38-.135 2.016h9.35l-.135-2.014-2.365-.38v-13.964c.651-.026 1.307-.08 1.658-.08 1.769 0 3.046.786 3.046 2.935 0 1.549-.816 3.233-1.633 3.508l-2.01-.14-.651 2.15h1.083l7.315 8.884 3.152-.846z" fill-rule="nonzero"/><path d="m83.38 5.716c4.942 1.992 3.287 9.959-3.406 12.269-7.29 2.492-11.287-4.984-6.727-9.73a40.349 40.349 0 0 0 -5.63-2.472l4.4 15.705h12.623c1.739 0 2.454.05 3.071-1.18l.584.588c1.058.96 4.819.592 6.816.592 2.729 0 5.902.148 8.58-.042l4.442-15.684-5.703 2.408c.313.685.097.22.533.77 3.914 4.928-.8 11.457-7.353 9.028-4.193-1.548-7.251-5.813-5.923-9.528.546-1.51 1.367-2.035 2.606-2.805l-3.763-4.899c-.482-.605-.157-.423-.745-.736a9.617 9.617 0 0 0 -1.146 1.383l-2.196 2.848a5.365 5.365 0 0 0 -1.062 1.497v-.012zm1.21 12.413c.778-2.196 5.22-2.539 6.507-.08-4.861 2.03-2.509 1.256-6.507.067zm8.567 4.556-.977-.072h-9.634c1.003 1.155 3.131 2.002 5.23 2.031a7.32 7.32 0 0 0 5.381-1.984"/></g></svg>