<svg xmlns="http://www.w3.org/2000/svg" width="175" height="51"><g fill="#264283" fill-rule="evenodd"><path fill-rule="nonzero" d="M101.623 26.25H91.28V0h3.978c6.364.1 12.628 0 18.992.298 3.38.1 4.773 1.79 4.972 5.17.099 1.393 0 2.785 0 4.177.198 2.884-.398 5.17-3.978 5.668 1.79 3.779 3.48 7.259 5.27 11.137-3.48 0-6.662.1-9.943-.1-.597 0-1.392-.895-1.69-1.59a108.945 108.945 0 0 1-3.282-7.856c-.497-1.293-1.293-2.287-2.585-1.69-.597.298-1.194 1.491-1.194 2.386-.298 2.685-.198 5.568-.198 8.65zm3.679-21.875c-3.779 0-3.779 0-3.779 3.281 0 3.083 0 3.083 3.182 3.182 4.077 0 4.176-.099 4.276-3.182.1-3.28.1-3.28-3.68-3.28zM73.78 26.35h-8.253c-3.68 0-5.867-1.889-5.966-5.568a191.516 191.516 0 0 1 0-15.114C59.66 2.287 61.65.298 65.13.099 70.897 0 76.764 0 82.63.2c3.48.1 5.27 2.187 5.37 5.668.1 4.971.1 9.844 0 14.815-.1 3.68-2.188 5.569-5.867 5.668-2.784.1-5.568 0-8.352 0zm4.176-13.026v-3.182c-.1-6.463.895-5.667-6.165-5.767-1.69 0-2.386.696-2.287 2.287v9.446c.1 6.563-1.094 5.967 6.364 5.967 1.491 0 2.088-.696 2.088-2.089v-6.662z"/><path d="M24.958 4.475c-4.773 0-9.347-.1-13.821.099-.497 0-1.392 1.293-1.392 1.89 0 .596.994 1.59 1.59 1.69 3.183.298 6.265.199 9.447.497 3.182.298 4.474 1.491 4.673 4.574.2 3.182 0 6.264-.298 9.446-.199 2.486-1.89 3.779-4.276 3.779-6.264.1-12.528.1-18.693 0-.498 0-1.393-.597-1.492-1.094-.398-1.094-.398-2.287-.497-3.083H13.82c1.492 0 1.99-.696 1.99-2.088 0-1.392-.399-2.088-1.89-2.088-3.48-.1-6.96-.199-10.44-.398C1.192 17.6.198 16.01.198 13.921 0 10.938 0 7.955.099 4.872.2 2.287 1.69.298 4.176.2 10.441 0 16.805.099 23.07.099c.497 0 1.293.895 1.491 1.492.299.994.299 2.088.398 2.884zM149.65 26.35c-.299-1.69-.497-3.082-.597-4.176h13.225c1.59 0 2.386-.398 2.386-2.188 0-1.69-.795-2.088-2.287-1.988-2.784 0-5.469.1-8.253 0-3.977-.2-5.17-1.392-5.17-5.37 0-2.486-.1-5.07 0-7.557.1-3.082 1.59-4.773 4.574-4.872 6.065-.199 12.13-.199 18.196-.1.597 0 1.392.796 1.591 1.393.398.994.398 2.187.497 2.983h-13.125c-1.293 0-2.188.298-2.188 1.889 0 1.59.796 1.89 2.089 1.89 3.181.099 6.264.099 9.446.397 2.486.199 4.077 1.69 4.176 4.176.1 3.182.1 6.265-.1 9.446-.198 2.387-1.69 3.978-4.076 4.077-6.762.1-13.424 0-20.384 0z"/><path fill-rule="nonzero" d="M39.277 26.25H28.936V.2c-.2.199-.1 0 0 0 7.358 0 14.716-.199 22.074 0 3.878.1 5.27 1.989 5.27 5.767 0 2.088.1 4.176 0 6.364-.1 2.585-1.491 4.176-3.977 4.475-3.381.298-6.762.497-10.143.298-2.386-.1-3.181.795-2.883 3.082.199 1.89 0 3.878 0 6.066zm-.199-17.798c.398 4.574-.696 4.276 4.773 4.276.199 0 .398.1.497 0 .696-.597 1.989-1.194 1.989-1.69-.2-2.188 1.392-4.972-1.094-6.365-1.392-.696-3.58-.397-5.17.1-.796.199-.697 2.386-.995 3.679z"/><path d="M147.263 4.773c-.397-.1-.596-.1-.895-.1-6.363-1.392-7.159-.795-7.159 5.47V26.25h-10.043c0-6.662-.1-13.225 0-19.688 0-1.79-.597-2.287-2.287-2.188-1.89.199-3.778.199-5.867.298 0 0-.099-.099-.099-.198.597-4.376.597-4.376 5.071-4.376h17.302c3.977 0 4.176.2 3.977 4.674z"/><path fill-rule="nonzero" d="M.199 32.913c2.883 0 5.668-.298 8.352.1 3.58.497 4.972 4.076 2.884 7.06-.199.298-.398.695-.696 1.093.597.497 1.392.895 1.59 1.492.399 1.491.995 3.082.796 4.574-.298 1.988-2.088 2.983-3.977 3.38-.696.1-1.293 0-1.79.1H.198V32.913zm5.17 16.009c1.492-.199 2.685-.199 3.68-.597 1.889-.596 2.585-2.684 1.491-4.375-.895-1.392-6.662-2.386-7.955-1.392-.1.1-.298.2-.298.398 0 1.69-.298 3.48.1 5.071.298.597 2.187.696 2.982.895zm0-14.418c-.994.298-2.485.298-2.983.994-1.59 2.287.1 5.071 2.983 5.071 3.48 0 4.972-.994 4.972-2.983-.199-2.088-1.491-2.784-4.972-3.082z"/><path d="M141.098 46.237c0-3.778-.1-7.06 0-10.341 0-.994.696-2.983.895-2.884 2.088.2 1.094 1.99 1.094 2.983.1 4.773 0 9.546 0 14.22-1.79.696-2.685.199-3.58-1.194-2.386-3.778-4.971-7.557-8.054-11.236v12.43c-1.89.696-2.486.199-2.486-1.392 0-4.674 0-9.447.1-14.12 0-.696.696-1.89 1.093-1.89.796 0 1.79.498 2.188 1.094 2.486 3.68 4.872 7.458 7.358 11.137.299.398.597.597 1.392 1.193zm32.814-8.054c-.696-.398-1.591-.597-1.89-1.094-1.59-2.486-3.877-2.883-6.363-2.386-2.486.497-4.177 2.088-4.674 4.673-.596 2.884-.596 5.768 1.79 7.856 2.188 1.988 4.872 1.988 7.557.994 2.188-.795 2.884-2.188 1.89-4.574-1.094 0-2.387.1-3.48-.1-.498-.099-.896-.696-1.293-1.093.397-.299.795-.796 1.292-.995.299-.198.796 0 1.193 0 5.37-.099 5.37 0 4.873 5.37-.1.696-.497 1.59-1.094 1.989-3.878 3.082-10.341 2.585-13.324-.796-3.083-3.58-2.685-10.341.994-13.722 3.878-3.679 11.336-1.89 12.927 3.083-.1.298-.299.497-.398.795zM28.538 50.314c0-3.38-.1-6.86 0-10.242 0-2.287-.597-5.37.696-6.761.994-1.193 4.276-.398 6.463-.497 1.094 0 2.088-.1 3.182 0 .796.099 1.591.596 2.387.894-.796.398-1.492.995-2.287.995-1.69.199-3.381.199-5.072 0-2.187-.199-3.182.298-3.182 2.784 0 2.386.796 3.182 3.083 2.983 1.79-.199 3.58-.1 5.37 0 .497 0 .994.696 1.49.994-.496.299-.993.696-1.49.796-2.685.1-5.27 0-8.353 0 0 1.79-.199 3.48.1 4.972.099.497 1.093 1.193 1.79 1.292 2.386.2 4.673 0 7.059.1.696 0 1.293.696 1.989.994-.597.298-1.293.796-1.89.796-3.38.099-6.761 0-10.241 0-.299.198-.498.099-1.094-.1zm35.1 0c-1.79.696-2.187 0-2.187-1.491.1-3.878-.1-7.756 0-11.634.1-1.89-.497-2.586-2.486-2.586-1.094 0-2.287-.497-3.38-.795.695-1.89 2.286-.895 3.48-.994 2.883-.2 5.866-.1 8.75 0 .596 0 1.093.596 1.59.894-.497.299-1.093.895-1.59.895-4.177.398-4.177.398-4.177 4.674v11.037zm24.76-7.557v-2.685c-.1-1.59.397-3.58-.398-4.673-.597-.796-2.784-.398-4.276-.696-.497-.1-.895-.597-1.292-.995.397-.298.795-.795 1.193-.795 3.878-.1 7.756-.1 11.634 0 .397 0 .795.597 1.094.895-.398.298-.697.597-1.094.895h-.2c-4.573.497-4.573.497-4.573 4.972 0 2.983.1 5.966-.1 8.949 0 .696-.696 1.292-1.093 1.988-.299-.596-.895-1.193-.895-1.889 0-1.989.1-3.977 0-5.966.1 0 .1 0 0 0zm25.057-.994c0 2.386.1 4.872 0 7.258 0 .498-.596 1.094-.895 1.591-.397-.497-1.193-1.093-1.193-1.59-.1-4.873-.1-9.646 0-14.518 0-.597.796-1.094 1.193-1.591.299.597.895 1.094.895 1.69.1 2.287 0 4.773 0 7.16z"/></g></svg>