<svg xmlns="http://www.w3.org/2000/svg" viewBox="0 0 306.1 197.5"><linearGradient id="a" gradientUnits="userSpaceOnUse" x1="63.185" y1="204.503" x2="252.946" y2="14.741" gradientTransform="matrix(1 0 0 -1 0 200)"><stop offset=".23" stop-color="#e71958"/><stop offset=".23" stop-color="#e71a57"/><stop offset=".41" stop-color="#ec2d47"/><stop offset=".59" stop-color="#ee383d"/><stop offset=".78" stop-color="#ef3c3a"/><stop offset=".98" stop-color="#ef4c23"/></linearGradient><path fill="url(#a)" d="M69.2 80.9c-2.1-1.6-4.2-3.1-6.5-4.5-1.6-.9-3.9-2.1-7-3.7s-4.9-2.4-5.5-2.7-1.3-.6-2.1-1c-.6-.3-1.2-.6-1.8-1-.3-.2-.8-.6-1.4-1-.7-.6-1-1.4-.9-2.3 0-2.9 2-4.4 5.9-4.4 3.6 0 10.7 1.3 21.5 3.8 1.7.4 3.4-.7 3.9-2.4 0-.1.1-.3.1-.4l2.8-25.8c.2-1.6-.9-3.1-2.6-3.4C65.5 30.1 55.3 29 45 29c-10.8 0-19.3 3.4-25.4 10.1s-9.1 16.2-9.1 28.3c0 12.1 4.1 21.6 12.2 28.3 2.1 1.8 4.4 3.5 6.9 4.9 1.9 1 4.3 2.3 7.2 3.7 2.8 1.4 5 2.6 6.5 3.4 1.2.7 2.3 1.5 3.3 2.4.8.8 1.2 1.8 1.2 2.9 0 2.7-1.6 4-4.7 4-4.3 0-12.2-1.7-23.7-5.1-1.7-.5-3.5.5-4 2.1-.1.2-.1.5-.1.7l-1.7 24.5c-.1 1.5.9 2.9 2.3 3.3 9.9 2.8 20.2 4.2 30.5 4.2 11.2 0 19.8-3.3 25.8-10s9-16.1 9-28.2c-.1-12.1-4-21.3-12-27.6zM292 30.7h-22.9c-1.8 0-3.2 1.4-3.2 3.2v43.3h-.9l-17.2-44.5c-.5-1.2-1.7-2.1-3-2h-26.7c-1.8 0-3.2 1.4-3.2 3.2v4.8l-13.2-6.5c-.9-.5-1.6-1.4-1.8-2.4l-2.5-17c-.3-1.7-1.9-2.9-3.7-2.7-.7.1-1.3.4-1.8.9L180 23.3c-.7.8-1.8 1.1-2.8.9l-16.9-2.9c-1.7-.3-3.4.9-3.7 2.6-.1.7 0 1.4.3 2l8 15.2c.5.9.5 2.1 0 3l-5.1 9.7c-1.4-5.9-3.7-10.5-6.9-13.9-5.7-6.1-14.8-9.2-27.3-9.2H91.9c-1.8 0-3.2 1.4-3.2 3.2v107.7c0 1.8 1.4 3.2 3.2 3.2h25.6c1.8 0 3.2-1.4 3.2-3.2v-29.3c0-1.8 1.4-3.2 3.2-3.2h3.3c11.8 0 20.4-3 25.9-8.9s8.2-16 8.2-30.1c0-2.3-.1-4.4-.2-6.5l16-2.8c1.1-.2 2.1.2 2.9 1l10.9 11.1h-18c-1.8 0-3.2 1.4-3.2 3.2v65.4c0 1.8 1.4 3.2 3.2 3.2h25.7c1.8 0 3.2-1.4 3.2-3.2V76.3c0-1.8-1.4-3.2-3.2-3.2h-1.3c.1-.2.1-.4.2-.6l2.5-17c.1-1 .8-1.9 1.8-2.4l13.2-6.5v95.2c0 1.8 1.4 3.2 3.2 3.2h22.6c1.8 0 3.2-1.4 3.2-3.2v-42h1.1l18.4 43.1c.5 1.2 1.7 1.9 2.9 1.9H292c1.8 0 3.2-1.4 3.2-3.2V33.9c0-1.8-1.4-3.2-3.2-3.2zM128.9 82.6c-.8 1.9-2.7 3.1-4.8 2.9h-.8c-1.8 0-3.2-1.4-3.2-3.2V63c0-1.8 1.4-3.2 3.2-3.2 2.7 0 4.5 1 5.4 2.9 1 2 1.4 5.3 1.4 9.9s-.4 8-1.2 10z"/><path fill="#8D8D8D" d="M36.4 177.5c-.3-.3-.6-.6-1-.9-.3-.3-.7-.5-1.1-.6-.4-.1-.7-.2-1.1-.4-.3-.1-.5-.1-.8-.1h-.3c-.5 1.1-1.3 2.1-2.3 2.8-1.1.7-2.4 1-3.7 1-1.8 0-3.6-.7-4.8-2.1-2.6-3.2-2.6-7.7 0-10.8 1.3-1.3 3-2.1 4.9-2 1.2 0 2.5.3 3.5.9 1 .6 1.8 1.5 2.3 2.6h.3c.3 0 .5-.1.8-.1l1-.3c.4-.2.8-.4 1.1-.6.4-.3.7-.6 1-.9.3-.3.6-.8.8-1.2.2-.5.3-1 .3-1.5 0-.6-.1-1.2-.4-1.8-.3-.7-.8-1.3-1.3-1.9-.7-.7-1.4-1.2-2.2-1.7-1-.6-2.2-1-3.3-1.2-1.5-.3-2.9-.5-4.4-.5-2.2 0-4.3.4-6.4 1.2-1.9.7-3.6 1.8-5 3.2-1.4 1.4-2.5 3.1-3.2 4.9-.8 2-1.1 4.1-1.1 6.3 0 2.8.7 5.6 2 8.1 1.3 2.3 3.2 4.3 5.5 5.6 2.5 1.4 5.3 2 8.1 2 1.5 0 3-.2 4.5-.5 1.2-.3 2.3-.7 3.4-1.3.8-.5 1.6-1.1 2.2-1.8.6-.6 1-1.2 1.3-1.9.3-.6.4-1.2.4-1.8 0-.5-.1-1-.3-1.5-.1-.4-.3-.9-.7-1.2zM84 159.2c-.2-.8-.8-1.5-1.6-1.9-1.3-.5-2.7-.7-4.1-.6-1.4-.1-2.8.1-4.2.6-.8.4-1.4 1.1-1.7 1.9l-9.7 25.2v.2c.1.4.2.7.5.9 1.2 1.1 2.7 1.7 4.3 1.8 2.3 0 4-1.4 5-4.3l.8-2.3H83l.8 2.2c.4 1.3 1.2 2.5 2.3 3.4.9.6 1.9 1 3 1 .9 0 1.8-.2 2.6-.6.7-.3 1.4-.7 1.9-1.3.3-.2.4-.6.5-.9v-.2L84 159.2zM75 174l3.2-8.7 3.2 8.7H75zm66.4-3c-1-.7-2.1-1.4-3.2-1.8-1.3-.5-2.7-1-4.1-1.3-.5-.1-1.1-.2-1.8-.3s-1.2-.2-1.6-.3c-.4-.1-.8-.2-1.1-.3-.3-.1-.6-.3-.8-.5-.2-.3-.3-.5-.2-.9 0-1.5 1.3-2.3 4-2.3 1.4 0 2.9.3 4.2.9 1.3.6 2.6 1.3 3.7 2.3.1 0 .2 0 .4-.1.3-.2.6-.4.8-.7.3-.3.6-.6.9-1 .3-.4.6-.8.8-1.3.2-.5.3-1 .3-1.5 0-1.6-.9-3-2.9-4.1s-4.7-1.6-8.4-1.6c-4.1 0-7.2.9-9.4 2.7-2.2 1.8-3.4 4.5-3.3 7.3 0 1.1.2 2.2.6 3.2.3.9.8 1.7 1.5 2.4s1.4 1.3 2.3 1.7c.9.5 1.7.9 2.7 1.2 1 .3 2 .6 3 .8l1.4.3 1.3.3c.3.1.7.2 1 .3.3.1.6.2.9.4.2.1.4.3.5.5.2.2.2.5.2.8 0 1.6-1.4 2.4-4.2 2.4-1.6 0-3.3-.4-4.8-1s-2.8-1.4-4-2.4c-.1 0-.2 0-.4.1-.3.2-.5.4-.8.7-.3.3-.6.6-.8 1-.3.4-.5.8-.7 1.2-.2.4-.3.9-.3 1.3 0 .8.2 1.6.6 2.3.5.8 1.2 1.5 2 2 1.1.7 2.4 1.1 3.7 1.4 1.8.4 3.7.5 5.5.5 4.4 0 7.8-.9 10-2.6 2.3-1.8 3.6-4.6 3.4-7.6 0-1.2-.2-2.5-.8-3.6-.5-1.2-1.2-2.1-2.1-2.8zm35.4-14.4h-1.3c-2.6 0-3.8 1.4-3.8 4.3v21.8c0 2.9 1.3 4.3 3.8 4.3h1.3c2.6 0 4-1.4 4-4.3V161c0-2.9-1.4-4.4-4-4.4zm56.8 0h-.8c-2.7 0-4 1.4-4 4.3v11.9l-10.7-14c-.5-.7-1.1-1.2-1.8-1.7-.7-.3-1.5-.5-2.3-.4h-.9c-1-.1-2.1.3-2.8 1.1-.7.9-1.1 2.1-1 3.2v21.8c0 2.9 1.3 4.3 3.9 4.3h.8c2.7 0 4-1.4 4-4.3v-12l10.9 14.2c.5.6 1.1 1.2 1.8 1.6.7.3 1.5.5 2.3.4h.8c1 .1 2-.3 2.7-1.1.7-.9 1.1-2 1-3.2V161c0-2.9-1.3-4.4-3.9-4.4zm60.5 7.1c-1.3-2.3-3.2-4.3-5.6-5.6-5.1-2.7-11.2-2.7-16.2 0-2.4 1.3-4.3 3.2-5.6 5.6-1.4 2.5-2 5.2-2 8.1 0 2.2.4 4.3 1.2 6.3 1.5 3.8 4.5 6.7 8.2 8.2 2 .8 4.2 1.2 6.4 1.2 2.8 0 5.6-.6 8.1-2 2.3-1.3 4.3-3.2 5.6-5.5 2.6-5.1 2.6-11.2-.1-16.3zm-8.9 13.6c-1.2 1.4-3 2.1-4.8 2-1.8.1-3.6-.6-4.8-2-1.3-1.5-1.9-3.4-1.8-5.4-.1-2 .5-3.9 1.8-5.5 1.2-1.4 3-2.1 4.8-2 1.8-.1 3.6.7 4.8 2.1 1.2 1.5 1.9 3.5 1.8 5.4.1 1.9-.6 3.9-1.8 5.4z"/></svg>