<svg version="1.1" id="Layer_1" xmlns="http://www.w3.org/2000/svg" xmlns:xlink="http://www.w3.org/1999/xlink" x="0px" y="0px"
	 width="512px" height="512px" viewBox="0 0 512 512" enable-background="new 0 0 512 512" xml:space="preserve">
		<path fill="#ffffff" d="M413,60H100c-33.137,0-61,27.511-61,60.648v201C39,354.785,66.863,381,100,381h19.658L89.27,451.352L190.957,381H413
			c33.137,0,59-26.215,59-59.352v-201C472,87.511,446.137,60,413,60z M116,123.979c-6,2.815-8.785,8.021-8.785,18.021H116v41H89v-28.5
			c0-29.438,9-44.97,27-46.593V123.979z M155,123.979c-7,2.815-9.309,8.021-9.309,18.021H155v41h-28v-28.5c0-29.438,9-44.97,28-46.593
			V123.979z M386,290.283c0,29.438-9,44.971-27,46.594v-16.072c6-2.816,10.416-9.805,10.416-19.805H359v-41h27V290.283z M425,290.283
			c0,29.438-10,44.971-28,46.594v-16.072c7-2.816,10.892-9.805,10.892-19.805H397v-41h28V290.283z"/>
</svg>
