<?xml version="1.0" encoding="utf-8"?>
<!-- Generator: Adobe Illustrator 22.1.0, SVG Export Plug-In . SVG Version: 6.00 Build 0)  -->
<svg  fill="#1a4095" version="1.1" id="Layer_1" xmlns="http://www.w3.org/2000/svg" xmlns:xlink="http://www.w3.org/1999/xlink" x="0px" y="0px"
	 viewBox="0 0 41.5 37.7" enable-background="new 0 0 41.5 37.7" xml:space="preserve">
<path d="M21.5,11.2V9.3c2.2-0.4,4-2.3,4-4.6c0-2.6-2.1-4.7-4.7-4.7S16,2.1,16,4.7C16,7,17.8,9,20,9.3v1.9c-11.3,0.2-20,4.5-20,10
	v6.5c0,5.6,9.1,10,20.8,10s20.7-4.4,20.7-10v-6.5C41.5,15.7,32.8,11.4,21.5,11.2z M17.5,4.7c0-1.8,1.4-3.2,3.2-3.2S24,2.9,24,4.7
	c0,1.8-1.4,3.2-3.2,3.2S17.5,6.5,17.5,4.7z M20.8,21.9c0.4,0,0.8-0.3,0.8-0.8v-3c7.3,0.1,11.1,2.2,12.1,2.8c0.1,0.1,0.1,0.2,0.1,0.2
	c0,0.1,0,0.1-0.1,0.2c-1.1,0.7-5.1,2.8-12.9,2.8S8.9,22.1,7.9,21.4c-0.1-0.1-0.1-0.2-0.1-0.2s0-0.1,0.1-0.2c1-0.6,4.9-2.7,12.1-2.8
	v3C20,21.6,20.3,21.9,20.8,21.9z M20,12.7v4c-7.7,0.1-11.8,2.3-12.9,3c-0.5,0.3-0.8,0.9-0.8,1.5s0.3,1.2,0.8,1.5
	c1.1,0.7,5.5,3,13.7,3s12.5-2.3,13.7-3c0.5-0.3,0.8-0.9,0.8-1.5c0-0.6-0.3-1.2-0.8-1.5c-1.1-0.7-5.3-2.9-12.9-3v-3.9
	c10.1,0.2,18.5,4,18.5,8.5c0,4.6-8.8,8.5-19.2,8.5S1.5,25.8,1.5,21.2C1.5,16.7,9.9,12.9,20,12.7z M40,25v2.7c0,4.6-8.8,8.5-19.2,8.5
	S1.5,32.3,1.5,27.7V25c0,0,0,0,0.1,0.1c0.1,0.1,0.1,0.1,0.2,0.2c0.2,0.2,0.4,0.4,0.6,0.6C2.4,26,2.5,26,2.6,26.1
	c0.2,0.2,0.5,0.4,0.7,0.6c0.1,0.1,0.2,0.1,0.2,0.2c0.3,0.2,0.7,0.5,1.1,0.7c0.1,0,0.2,0.1,0.3,0.1c0.3,0.2,0.6,0.3,0.9,0.5
	c0.1,0.1,0.3,0.1,0.4,0.2c0.3,0.1,0.6,0.3,1,0.4c0.1,0.1,0.2,0.1,0.4,0.2c0.5,0.2,0.9,0.4,1.4,0.5c0.1,0,0.2,0.1,0.3,0.1
	c0.4,0.1,0.8,0.3,1.3,0.4c0.2,0,0.3,0.1,0.5,0.1c0.4,0.1,0.8,0.2,1.2,0.3c0.2,0,0.3,0.1,0.5,0.1c0.6,0.1,1.1,0.2,1.7,0.3
	c0.1,0,0.1,0,0.2,0c0.5,0.1,1.1,0.1,1.6,0.2c0.2,0,0.4,0,0.6,0.1c0.5,0,0.9,0.1,1.4,0.1c0.2,0,0.4,0,0.6,0c0.6,0,1.3,0,1.9,0
	c0.7,0,1.3,0,1.9,0c0.2,0,0.4,0,0.6,0c0.5,0,0.9-0.1,1.4-0.1c0.2,0,0.4,0,0.6-0.1c0.5-0.1,1.1-0.1,1.6-0.2c0.1,0,0.1,0,0.2,0
	c0.6-0.1,1.2-0.2,1.7-0.3c0.2,0,0.3-0.1,0.5-0.1c0.4-0.1,0.8-0.2,1.2-0.3c0.2,0,0.3-0.1,0.5-0.1c0.4-0.1,0.9-0.2,1.3-0.4
	c0.1,0,0.2-0.1,0.3-0.1c0.5-0.2,1-0.3,1.4-0.5c0.1,0,0.2-0.1,0.4-0.2c0.3-0.1,0.7-0.3,1-0.4c0.1-0.1,0.3-0.1,0.4-0.2
	c0.3-0.2,0.6-0.3,0.9-0.5c0.1,0,0.2-0.1,0.3-0.1c0.4-0.2,0.7-0.5,1.1-0.7c0.1-0.1,0.2-0.1,0.2-0.2c0.2-0.2,0.5-0.4,0.7-0.6
	c0.1-0.1,0.2-0.2,0.3-0.2c0.2-0.2,0.4-0.4,0.6-0.6C39.8,25.2,39.9,25.1,40,25C40,25,40,25,40,25z"/>
</svg>
