<?xml version="1.0" encoding="utf-8"?>
<!-- Generator: Adobe Illustrator 22.1.0, SVG Export Plug-In . SVG Version: 6.00 Build 0)  -->
<svg  fill="#1a4095" version="1.1" id="Layer_1" xmlns="http://www.w3.org/2000/svg" xmlns:xlink="http://www.w3.org/1999/xlink" x="0px" y="0px"
	 viewBox="0 0 41.5 32.6" enable-background="new 0 0 41.5 32.6" xml:space="preserve">
<g>
	<path d="M40.8,26.9h-3.4v-16c0-1.5-1.2-2.8-2.8-2.8h-4.9V2.9c0-1.6-1.3-2.9-2.9-2.9H14.7c-1.6,0-2.9,1.3-2.9,2.9v5.2H6.9
		c-1.5,0-2.8,1.2-2.8,2.8v16H0.8c-0.4,0-0.8,0.3-0.8,0.8v0.3c0,2.6,2.1,4.7,4.7,4.7h32.2c2.6,0,4.7-2.1,4.7-4.7v-0.3
		C41.5,27.2,41.2,26.9,40.8,26.9z M13.4,2.9c0-0.8,0.6-1.4,1.4-1.4h12.1c0.8,0,1.4,0.6,1.4,1.4v6v12c0,0.8-0.6,1.4-1.4,1.4H14.7
		c-0.8,0-1.4-0.6-1.4-1.4V8.9V2.9z M5.7,10.9c0-0.7,0.6-1.2,1.2-1.2h4.9v11.3c0,1.6,1.3,2.9,2.9,2.9h12.1c1.6,0,2.9-1.3,2.9-2.9v0
		V9.6h4.9c0.7,0,1.2,0.6,1.2,1.2v16H5.7V10.9z M36.8,31.1H4.7c-1.6,0-2.9-1.2-3.1-2.7h3.4c0,0,0,0,0,0h31.6c0,0,0,0,0,0H40
		C39.7,29.9,38.4,31.1,36.8,31.1z"/>
	<path d="M17.9,15.4c0.5,0.2,0.9,0.2,1.3,0.2c0.7,0,1.2-0.3,1.6-0.6c0.5,0.4,1.4,0.9,2.8,0.3c1.3-0.5,2.2-1.7,2.2-3.2
		c0-1.4-0.8-2.7-2.2-3.3c-1.9-0.8-2.1-2-2.1-2c0-0.4-0.3-0.7-0.7-0.7C20.4,6.3,20,6.6,20,7c0,0-0.2,1.2-2.1,2
		c-1.4,0.6-2.2,1.8-2.2,3.3C15.8,13.7,16.6,14.9,17.9,15.4z M18.5,10.3c1.1-0.5,1.8-1.1,2.3-1.6c0.4,0.6,1.1,1.1,2.3,1.6
		c1.2,0.5,1.3,1.5,1.3,1.9c0,0.7-0.4,1.5-1.2,1.8c-1,0.3-1.3,0-1.4-0.1c-0.5-0.5-1.4-0.5-1.8,0h0c-0.1,0.1-0.4,0.5-1.4,0.1
		c-0.8-0.3-1.2-1.1-1.2-1.8C17.2,11.8,17.3,10.8,18.5,10.3z"/>
	<path d="M18.7,17.3c-0.3,0.3-0.4,0.7-0.1,1c0.3,0.3,0.7,0.4,1.1,0.1c0.1-0.1,1.2-0.9,2.2,0c0.1,0.1,0.3,0.2,0.5,0.2
		c0.2,0,0.4-0.1,0.6-0.3c0.3-0.3,0.2-0.8-0.1-1.1C21.2,15.9,19.4,16.7,18.7,17.3z"/>
</g>
</svg>
