<?xml version="1.0" encoding="utf-8"?>
<!-- Generator: Adobe Illustrator 22.1.0, SVG Export Plug-In . SVG Version: 6.00 Build 0)  -->
<svg  fill="#1a4095" version="1.1" id="Layer_1" xmlns="http://www.w3.org/2000/svg" xmlns:xlink="http://www.w3.org/1999/xlink" x="0px" y="0px"
	 viewBox="0 0 41.5 37.6" enable-background="new 0 0 41.5 37.6" xml:space="preserve">
<g>
	<path d="M25.2,8.9H8.8C8.4,8.9,8,9.2,8,9.6v7.6C8,17.6,8.4,18,8.8,18h16.5c0.4,0,0.8-0.3,0.8-0.8V9.6C26,9.2,25.7,8.9,25.2,8.9z
		 M24.5,16.5h-15v-6.1h15V16.5z"/>
	<path d="M11.8,23.6h-3c-0.4,0-0.8,0.3-0.8,0.8s0.3,0.8,0.8,0.8h3c0.4,0,0.8-0.3,0.8-0.8S12.2,23.6,11.8,23.6z"/>
	<path d="M18.5,23.6h-3c-0.4,0-0.8,0.3-0.8,0.8s0.3,0.8,0.8,0.8h3c0.4,0,0.8-0.3,0.8-0.8S18.9,23.6,18.5,23.6z"/>
	<path d="M25.2,23.6h-3c-0.4,0-0.8,0.3-0.8,0.8s0.3,0.8,0.8,0.8h3c0.4,0,0.8-0.3,0.8-0.8S25.7,23.6,25.2,23.6z"/>
	<path d="M41.5,8.4c0-2-1.6-3.6-3.6-3.6c-2,0-3.6,1.6-3.6,3.6c0,1.7,1.2,3.2,2.9,3.6v5.9H34v-1.7c0-0.4-0.3-0.8-0.8-0.8h-3.4V5.7
		c0-0.1,0-0.2-0.1-0.3c0,0,0,0,0,0l-2.8-5C26.9,0.1,26.6,0,26.4,0H7.6C7.4,0,7.1,0.1,7,0.4l-2.8,5c0,0,0,0,0,0
		C4.2,5.5,4.1,5.6,4.1,5.7v15.2l-4.1,8.4c0,0,0,0,0,0C0,29.4,0,29.5,0,29.6v7.2c0,0.4,0.3,0.8,0.8,0.8h32.5c0.4,0,0.8-0.3,0.8-0.8
		v-7.2c0-0.1,0-0.2-0.1-0.3c0,0,0,0,0,0l-3.6-7.5h3c0.4,0,0.8-0.3,0.8-0.8v-1.7h3.8c0.4,0,0.8-0.3,0.8-0.8V12
		C40.3,11.6,41.5,10.1,41.5,8.4z M8.1,1.5h17.8L27.9,5H6.2L8.1,1.5z M32.5,36.1h-31v-5.7h31V36.1z M1.9,28.9l3.6-7.5
		c0-0.1,0.1-0.2,0.1-0.3V6.5h22.7v9.7v4.9c0,0.1,0,0.2,0.1,0.3c0,0,0,0,0,0l3.6,7.5H1.9z M29.9,20.3v-3.4h2.7v1.6c0,0,0,0.1,0,0.1
		s0,0.1,0,0.1v1.6H29.9z M37.9,10.5c-1.2,0-2.1-1-2.1-2.1c0-1.2,1-2.1,2.1-2.1s2.1,1,2.1,2.1C40,9.6,39,10.5,37.9,10.5z"/>
</g>
</svg>
