<svg xmlns="http://www.w3.org/2000/svg" viewBox="0 0 1287.6 469"><path fill="#F39" d="M427.5 1.5c25.7 1.3 51.1 3.6 76.8 4.1-5.2 5.7-11 11.4-15.4 17.8-2.7 10.4 4.1 18.7 12.5 23.8 13.9 8.3 32.2 10.6 48.1 12.3 59.8 4.2 123.1-4.3 182.5-11.6 108.7-14.3 227.4-38.5 336.9-30.6 77 4.6 152.4 27.7 218.7 66.9V469H0V62.3c64.9-20.1 132.5-32.8 199.1-46.2C274.5.6 350.6-2.2 427.5 1.5z"/><path fill="#FFF" d="M1220.2 128.9c.9 16.9-.3 35.6.6 52.8-10.2 3-23.5-.6-34.1 1.8-8.8 2.7-12.3 14.7-10.1 22.6 10.9.2 22.7-1 33.4.5.8 16.8.3 34.1.3 51l-1 2.1c-10.9.4-22.7-1-33.4.5-.3 41.5-.3 83.2 0 124.7l-2.6.8c-18.5-.5-38.6.8-56.7-.7-.8-63.1-.1-128.9-.4-192.3-.1-25.4 15.3-47.9 38.7-57.4 20.9-9.3 42.3-5.9 65.3-6.4zm-1102.4 12c16.1-.1 29.6 9.4 36.8 23.6 17.3 34.3 36.4 70.9 53.1 104.8l2.5 1.9c-.8-41.2.1-82.6-.5-123.8l1-2.5c19.7-.3 39.6.1 59.3.1l.6 2.6v208.8c-.4 11.8-6.3 22.9-16.5 29-7.7 5.1-18.1 5.4-26.8 2.9-13.5-4.6-22.2-18.8-29-30.5-17.9-33.9-35.7-67.8-53.4-101.7-2-3.2-2.6-8.9-6.9-9.4.7 45.8.7 92.7 0 138.5-17 1.5-34.4.6-51.5.6l-1.5-1.9c.5-70.3.1-140.7.2-211 .6-17 15.2-32.5 32.6-32zm309.8 72.3c19.4 10.1 32.5 26.3 43.6 44.8l-.1 2.5c-29.1 20.1-58.7 40.1-88 60.1-8.3-9.9-15.8-23.4-23-34.5 13.9-10.8 32.1-21 47-31.2l-1.2-2.5c-13.5-6-29.9-6.8-41.7 3.4-21.1 18.5-22.1 53.9-1.3 73.1 9.9 9.5 24.2 12.2 37.1 8 18-5.8 31.5-20 40-36.5l2.2-1C455.5 307 470 313 483 320.8l.4.9c-17.3 37.9-52.1 66.6-94.7 68.4-37.5 2.7-73.6-20.5-89.4-54-11.4-23.4-11.9-52-1.3-75.8 9-20.6 25.4-37.8 45.6-47.7 25.7-13.4 58.4-12.9 84 .6zm313.8-5.8c19.6-.1 39.3-.1 58.9 0 1.6 15.3 1 32 .3 47.4-15.7 1.2-32.1.1-48 .5-4.2.3-8.2 2.5-10.2 6.2-1.7 4.8 4.4 7.9 7.6 10.1 13.4 6.5 27 10.8 39.5 19.6 10.1 6.7 18.8 16.7 21.2 28.9 2.4 16.9-.3 35.2-12.4 48.1-11.7 12.6-29 17.2-45.7 17.5h-67.8l-1.9-1.4c.3-15.7.3-31.5 0-47.3l2-1.5c19.7-.1 39.4.2 59-.1 5.2-.9 9.5-7.6 4.9-12-7-6.5-18.2-8.6-26.8-12.8-16.3-6.8-30.2-17.9-35-35.6-3.4-15.2-3.2-32.6 6.8-45.5 10.6-14.4 30-22.1 47.6-22.1zm84.9-.1c18.6.1 37.2-.1 55.8.1l.8 2.3c.3 33.8 0 67.7.1 101.6 0 5.3 1.4 10.4 4.3 14.9 5.4 7.8 16.3 10.5 24.7 6 8.9-4.7 11.7-14.3 11.5-23.7-.1-33 .3-66.1-.2-99l1.3-2.2c18.7.4 37.4-.2 56 .3.3 34.3 0 69.3.1 103.7.1 14.9-3.1 29.5-10.3 42.6-10.2 19.3-29.8 31.9-51.1 35.1-20.7 2.5-41.1 1.2-59.3-9.9-22.9-13.6-33.3-39.2-34.4-65V209.7l.7-2.4zm174.8 0c16.7.1 33.4-.1 50.1.1 2.3 8.6-.6 18.6 1 27.4 4-4.3 5.3-10.7 9.8-14.8 10.9-11.5 27.3-13.2 42.4-12.4-.1 17.9.3 36-.3 53.8-11.3.1-26.2.4-35.6 7.4-8.5 6.8-8.5 18.3-9 28.2.1 29.1-.2 58.3.2 87.5l-2.3 1.1c-18.7-.5-38.4.6-56.9-.6-.9-57.3-.1-117.8-.4-175.5l1-2.2zm-400.8-2.4c-13.5-3.1-27.6-2.7-41 .8-41.6 10.7-73.1 50.9-70.9 94.2 1.2 48.1 43.8 90.3 92.1 90 50.1 1.6 94.7-42.8 94.2-92.8.9-43.6-32-83.2-74.4-92.2zm.3 123.7c-15 10-35.6 6.4-46.5-7.8-15.5-18.8-8.8-49 13.4-59.1 14.3-6.1 31.3-2.1 41.1 10 14.5 17.1 10.7 44.6-8 56.9z"/></svg>