<?xml version="1.0" encoding="UTF-8"?>
<svg width="173px" height="191px" viewBox="0 0 173 191" version="1.1" xmlns="http://www.w3.org/2000/svg" xmlns:xlink="http://www.w3.org/1999/xlink">
    <!-- Generator: Sketch 59.1 (86144) - https://sketch.com -->
    <title>Most trusted</title>
    <desc>Created with Sketch.</desc>
    <g id="✅---Master" stroke="none" stroke-width="1" fill="none" fill-rule="evenodd">
        <g id="CORG---Real-Money---Desktop--1-2" transform="translate(-817.000000, -5709.000000)">
            <g id="SPORTS-BETTING" transform="translate(165.000000, 5657.000000)">
                <g id="Most-trusted" transform="translate(652.000000, 52.000000)">
                    <g id="Group">
                        <polygon id="Path" fill="#163385" points="140.592958 106.137242 172.573592 99.636564 172.512676 42.7708177 140.653873 30.5592632"></polygon>
                        <polygon id="Path" fill="#163385" points="31.9806338 71.3859528 0 77.8866311 0.060915493 134.813131 31.9197183 147.024686"></polygon>
                        <path d="M24.0616197,144.837542 L23.8788732,29.4656912 L86.134507,3.64524014 L148.451056,29.3441832 C148.511972,67.8014667 148.572887,106.25875 148.633803,144.716034 L86.4390845,186.514787 L24.0616197,144.837542 Z" id="Path" fill="#163385"></path>
                        <path d="M86.1954225,7.22972629 L145.16162,31.5313273 C145.222535,68.6520227 145.283451,105.772718 145.344366,142.893414 L86.4390845,182.505023 L27.4119718,143.075676 L27.2901408,70.4746428 L27.2292254,31.7135893 L86.1954225,7.22972629 Z M86.134507,0 L20.5285211,27.2785471 C20.5894366,67.0724187 20.6503521,106.86629 20.7112676,146.660162 L86.4390845,190.585306 L152.04507,146.417146 C151.984155,106.623274 151.923239,66.8294027 151.862324,27.0355311 L86.134507,0 Z" id="Shape" fill="#084DBA" fill-rule="nonzero"></path>
                        <path d="M86.4390845,181.472205 L28.9348592,143.014922 L28.7521127,33.4147013 L86.1954225,9.53837838 L86.378169,9.59913238 L143.699648,33.2324393 L143.882394,142.83266 L86.4390845,181.472205 Z M29.909507,142.52889 L86.4390845,180.317879 L142.846831,142.346628 L142.664085,33.9007333 L86.134507,10.6319504 L29.7267606,34.0829954 L29.909507,142.52889 Z" id="Shape" fill="#1075DC" fill-rule="nonzero"></path>
                        <polygon id="Path" fill="#1075DC" points="172.573592 99.636564 172.573592 99.57581 172.512676 71.2036908 172.512676 42.7708177 0 77.8866311 0.060915493 134.813131 72.2457746 120.110663 159.903169 102.248986"></polygon>
                        <polygon id="Path" fill="#1075DC" fill-rule="nonzero" points="86.0735915 155.28723 87.9619718 159.114732 92.2260563 159.722272 89.1193662 162.759972 89.8503521 167.012753 86.0735915 165.007871 82.2359155 167.012753 82.9669014 162.759972 79.8602113 159.722272 84.1242958 159.114732"></polygon>
                        <polygon id="Path" fill="#1075DC" fill-rule="nonzero" points="64.5704225 148.118258 66.0323944 151.095204 69.321831 151.520482 66.9461268 153.829134 67.4943662 157.049096 64.5704225 155.530246 61.7073944 157.049096 62.2556338 153.829134 59.8799296 151.520482 63.1693662 151.095204"></polygon>
                        <polygon id="Path" fill="#1075DC" fill-rule="nonzero" points="108.003169 148.118258 106.541197 151.095204 103.251761 151.520482 105.627465 153.829134 105.079225 157.049096 108.003169 155.530246 110.866197 157.049096 110.317958 153.829134 112.693662 151.520482 109.404225 151.095204"></polygon>
                        <polygon id="Path" fill="#FFFFFF" fill-rule="nonzero" points="12.2440141 90.8879876 8.95457746 91.4955276 9.01549296 88.8831055 18.8838028 86.9997315 18.8228873 89.6121536 15.5334507 90.2196936 15.4116197 99.5150559 12.1221831 100.122596"></polygon>
                        <path d="M21.1376151,86.5744534 L25.828169,85.6631434 C28.5084507,85.1771114 30.8232394,85.6023894 30.7623239,88.5793355 C30.7014085,91.4347736 28.3866197,93.0751317 25.706338,93.6219177 L24.3052208,93.8649337 L24.2443053,97.8746979 L20.9548687,98.4822379 L21.1376151,86.5744534 Z M25.5235306,91.1310036 C26.8028169,90.8879876 27.5338028,90.2196936 27.5338028,89.1868755 C27.5338028,88.1540575 26.8637324,87.9717955 25.5844461,88.2148115 L24.3661363,88.4578275 L24.3052208,91.3740196 L25.5235306,91.1310036 Z M25.1580377,92.8928697 L27.4119718,90.4019556 L31.3714789,96.5381098 L27.7165493,97.2671579 L25.1580377,92.8928697 Z" id="Shape" fill="#FFFFFF" fill-rule="nonzero"></path>
                        <path d="M33.4426056,90.3412016 L33.5035211,84.2050473 L36.7929577,83.5975073 L36.7320423,90.0981856 C36.7320423,92.2245757 37.2802817,92.8928697 38.559507,92.6498537 C39.8387324,92.4068377 40.5088028,91.4955276 40.5088028,89.3691375 L40.5697183,82.8684593 L43.7373239,82.2609193 L43.6764085,88.3970735 C43.615493,92.4675917 41.9707746,94.7154898 38.4985915,95.3837838 C35.0264085,95.9913238 33.3816901,94.4117197 33.4426056,90.3412016 Z" id="Path" fill="#FFFFFF" fill-rule="nonzero"></path>
                        <path d="M45.7475352,92.2245757 L47.6359155,89.6729076 C48.4887324,90.1589396 49.6461268,90.4627096 50.5598592,90.2804476 C51.534507,90.0981856 51.9609155,89.6729076 51.9609155,89.1868755 C51.9609155,88.6400895 51.3517606,88.5793355 50.3161972,88.3363195 L48.7933099,88.0325495 C47.453169,87.7895335 46.2957746,86.9389774 46.2957746,85.1771114 C46.2957746,83.1114753 48.2450704,81.1065932 50.9862676,80.5598072 C52.3873239,80.3167912 53.9711268,80.4990532 55.1285211,81.3496092 L53.4838028,83.6582613 C52.6309859,83.2329833 51.9,83.1114753 50.9862676,83.2937373 C50.1943662,83.4759993 49.7070423,83.8405233 49.6461268,84.3265553 C49.6461268,84.8733414 50.3771127,84.9340954 51.4735915,85.1771114 L52.9964789,85.4808814 C54.5193662,85.7846514 55.4330986,86.6352074 55.3721831,88.2755655 C55.3721831,90.2804476 53.5447183,92.4068377 50.4380282,93.0143777 C48.9151408,93.3789017 47.0876761,93.1358857 45.7475352,92.2245757 Z" id="Path" fill="#FFFFFF" fill-rule="nonzero"></path>
                        <polygon id="Path" fill="#FFFFFF" fill-rule="nonzero" points="59.8190141 81.7748872 56.5295775 82.3824273 56.590493 79.7700052 66.4588028 77.8866311 66.3978873 80.4990532 63.1084507 81.1065932 62.9866197 90.4019556 59.6971831 91.0094956"></polygon>
                        <polygon id="Path" fill="#FFFFFF" fill-rule="nonzero" points="68.6517606 77.4613531 76.6926056 75.942503 76.6316901 78.5549251 71.8802817 79.4662352 71.8802817 81.3496092 75.9616197 80.5598072 75.9007042 83.1722293 71.8193662 83.9620313 71.8193662 86.0884214 76.7535211 85.1163574 76.6926056 87.7287795 68.4690141 89.3083835"></polygon>
                        <path d="M79.7383803,75.334963 L83.3933099,74.605915 C87.1700704,73.8768669 89.7894366,75.091947 89.7285211,79.2839731 C89.6676056,83.4759993 87.0482394,85.7846514 83.4542254,86.5136994 L79.5556338,87.2427475 L79.7383803,75.334963 Z M83.0887324,84.0227853 C84.9161972,83.6582613 86.3172535,82.6861973 86.378169,79.8915132 C86.4390845,77.0968291 84.9771127,76.793059 83.2105634,77.1575831 L83.0278169,77.2183371 L82.9669014,84.0835393 L83.0887324,84.0227853 Z" id="Shape" fill="#FFFFFF" fill-rule="nonzero"></path>
                        <polygon id="Path" fill="#FFFFFF" fill-rule="nonzero" points="96.6119718 72.0542469 104.652817 70.5353968 104.591901 73.1478189 99.840493 74.0591289 99.840493 75.942503 103.921831 75.152701 103.860915 77.7651231 99.7795775 78.5549251 99.7795775 80.6813152 104.713732 79.7092512 104.652817 82.3216733 96.4292254 83.9012773"></polygon>
                        <path d="M109.769718,75.334963 L106.663028,70.1708728 L110.317958,69.4418248 L111.109859,71.2036908 C111.353521,71.6897228 111.658099,72.2972629 111.962676,73.0263109 L112.023592,73.0263109 C112.328169,72.1757549 112.571831,71.5074608 112.815493,70.8999208 L113.546479,68.8342847 L117.079577,68.1659907 L113.851056,74.727423 L117.140493,80.0737752 L113.485563,80.8028232 L112.510915,78.8586951 C112.206338,78.3119091 111.962676,77.7043691 111.658099,77.0360751 L111.597183,77.0360751 C111.292606,77.8258771 111.048944,78.4941711 110.744366,79.1624651 L109.769718,81.4711172 L106.23662,82.1394113 L109.769718,75.334963 Z" id="Path" fill="#FFFFFF" fill-rule="nonzero"></path>
                        <path d="M119.333451,67.7407127 L123.902113,66.8901567 C126.64331,66.3433706 128.958099,66.8901567 128.897183,69.8671028 C128.836268,72.7832949 126.460563,74.484407 123.841197,75.031193 L122.501056,75.274209 L122.440141,79.0409571 L119.150704,79.6484972 L119.333451,67.7407127 Z M123.719366,72.4795249 C124.998592,72.2365089 125.668662,71.5074608 125.668662,70.4138888 C125.668662,69.3203167 124.937676,69.0773007 123.719366,69.3203167 L122.622887,69.5633328 L122.561972,72.7225409 L123.719366,72.4795249 Z" id="Shape" fill="#FFFFFF" fill-rule="nonzero"></path>
                        <polygon id="Path" fill="#FFFFFF" fill-rule="nonzero" points="131.394718 65.4320606 139.435563 63.9132105 139.374648 66.5256326 134.623239 67.4369427 134.623239 69.3203167 138.704577 68.5305147 138.643662 71.1429368 134.562324 71.9327389 134.562324 74.0591289 139.496479 73.0870649 139.435563 75.699487 131.211972 77.2790911"></polygon>
                        <path d="M142.420423,63.3056705 L147.110915,62.3943605 C149.791197,61.9083285 152.105986,62.3336065 152.04507,65.3105526 C151.984155,68.1659907 149.669366,69.8063488 146.989085,70.3531348 L145.588028,70.5961508 L145.527113,74.605915 L142.237676,75.213455 L142.420423,63.3056705 Z M146.806338,67.8622207 C148.085563,67.6192047 148.816549,66.9509107 148.816549,65.9180926 C148.816549,64.8852746 148.146479,64.7030126 146.867254,64.9460286 L145.648944,65.1890446 L145.588028,68.1052367 L146.806338,67.8622207 Z M146.440845,69.6240868 L148.694718,67.1331727 L152.654225,73.2693269 L148.999296,73.9983749 L146.440845,69.6240868 Z" id="Shape" fill="#FFFFFF" fill-rule="nonzero"></path>
                        <polygon id="Path" fill="#FFFFFF" fill-rule="nonzero" points="156.857394 63.1841625 153.567958 63.7917025 153.628873 61.1792804 163.497183 59.2959064 163.436268 61.9083285 160.146831 62.5158685 160.025 71.8112308 156.735563 72.4187709"></polygon>
                        <path d="M9.38098592,108.445894 L12.6704225,107.838354 C14.5588028,107.47383 16.1426056,107.7776 16.1426056,109.843236 C16.1426056,111.848118 14.4978873,113.002444 12.609507,113.366968 L11.6348592,113.549231 L11.5739437,116.343915 L9.25915493,116.769193 L9.38098592,108.445894 Z M12.4876761,111.665856 C13.4014085,111.483594 13.8887324,110.997562 13.8887324,110.268514 C13.8887324,109.539466 13.4014085,109.417958 12.4876761,109.60022 L11.6348592,109.782482 L11.6348592,111.848118 L12.4876761,111.665856 Z M12.1830986,112.880936 L13.7669014,111.11907 L16.5690141,115.432605 L14.0105634,115.918637 L12.1830986,112.880936 Z" id="Shape" fill="#FFFFFF" fill-rule="nonzero"></path>
                        <polygon id="Path" fill="#FFFFFF" fill-rule="nonzero" points="19.1883803 106.56252 24.8535211 105.468948 24.8535211 107.291568 21.503169 107.959862 21.503169 109.29645 24.3661972 108.749664 24.3661972 110.572284 21.503169 111.11907 21.503169 112.63792 24.9753521 111.969626 24.9753521 113.792247 19.1883803 114.885819"></polygon>
                        <path d="M26.8637324,105.104424 L29.3003521,104.618392 L30.153169,108.08137 C30.396831,108.931926 30.518662,109.721728 30.7623239,110.572284 L30.8232394,110.572284 C31.0669014,109.60022 31.2496479,108.749664 31.4933099,107.7776 L32.4070423,103.950098 L34.7827465,103.52482 L32.1633803,112.394904 L29.3612676,112.94169 L26.8637324,105.104424 Z" id="Path" fill="#FFFFFF" fill-rule="nonzero"></path>
                        <polygon id="Path" fill="#FFFFFF" fill-rule="nonzero" points="36.8538732 103.160296 39.168662 102.735018 39.046831 111.058316 36.7320423 111.483594"></polygon>
                        <polygon id="Path" fill="#FFFFFF" fill-rule="nonzero" points="42.4580986 102.127478 48.1232394 101.033906 48.1232394 102.856526 44.7728873 103.52482 44.7728873 104.861408 47.6359155 104.314622 47.6359155 106.137242 44.7728873 106.684028 44.7728873 108.202878 48.1232394 107.534584 48.1232394 109.357204 42.3362676 110.450776"></polygon>
                        <path d="M50.4380282,100.608628 L52.8137324,100.18335 L53.2401408,103.707082 C53.3010563,104.557638 53.4228873,105.408194 53.4838028,106.25875 L53.5447183,106.25875 C53.7274648,105.34744 53.9102113,104.43613 54.0320423,103.52482 L54.8848592,99.697318 L56.8341549,99.3327939 L57.6260563,102.795772 C57.7478873,103.585574 57.9306338,104.496884 58.0524648,105.34744 L58.1133803,105.34744 C58.2352113,104.43613 58.3570423,103.52482 58.4179577,102.674264 L58.9661972,98.9075159 L61.1591549,98.4822379 L59.6362676,107.109306 L56.7123239,107.656092 L56.103169,104.496884 C55.981338,103.889344 55.859507,103.22105 55.7985915,102.61351 L55.7376761,102.61351 C55.6158451,103.22105 55.5549296,103.950098 55.3721831,104.618392 L54.7021127,108.08137 L51.8390845,108.628156 L50.4380282,100.608628 Z" id="Path" fill="#FFFFFF" fill-rule="nonzero"></path>
                        <path d="M63.0475352,105.468948 L64.3876761,103.707082 C64.996831,104.071606 65.7887324,104.253868 66.3978873,104.13236 C67.0679577,104.010852 67.3725352,103.707082 67.3725352,103.342558 C67.3725352,102.91728 66.9461268,102.91728 66.2151408,102.735018 L65.118662,102.492002 C64.2049296,102.30974 63.3521127,101.7022 63.4130282,100.48712 C63.4130282,99.0897779 64.8140845,97.6316819 66.7024648,97.2671579 C67.6771127,97.0848959 68.7735915,97.2064039 69.565493,97.8139439 L68.4080986,99.3935479 C67.7989437,99.0897779 67.3116197,99.0290239 66.6415493,99.1505319 C66.0933099,99.2720399 65.7278169,99.5150559 65.7278169,99.87958 C65.7278169,100.304858 66.2151408,100.304858 67.0070423,100.48712 L68.0426056,100.669382 C69.1390845,100.851644 69.7482394,101.459184 69.7482394,102.61351 C69.7482394,104.010852 68.4690141,105.529702 66.3369718,105.95498 C65.240493,106.197996 63.9612676,106.076488 63.0475352,105.468948 Z" id="Path" fill="#FFFFFF" fill-rule="nonzero"></path>
                        <path d="M75.8397887,101.762954 C75.9007042,98.9682699 79.9820423,98.2999759 79.9820423,96.7203718 C79.9820423,96.3558478 79.7992958,96.2343398 79.4947183,96.2950938 C79.1292254,96.3558478 78.8246479,96.7203718 78.8246479,97.2671579 C78.8246479,98.4822379 80.7130282,99.818826 82.540493,100.426366 C83.2714789,100.669382 84.0024648,100.79089 84.5507042,100.79089 L84.0024648,102.674264 C83.0887324,102.674264 82.053169,102.492002 81.1394366,102.127478 C78.8855634,101.216168 76.9362676,99.2720399 76.9362676,97.6924359 C76.9362676,96.4773558 77.9109155,95.2622758 79.4947183,94.9585058 C80.8957746,94.7154898 81.809507,95.2622758 81.809507,96.4773558 C81.809507,98.7252539 78.093662,99.87958 78.093662,101.337676 C78.093662,101.823708 78.5200704,102.127478 79.1901408,102.00597 C79.7383803,101.884462 80.3475352,101.459184 80.9566901,100.851644 C81.6267606,100.122596 82.2359155,99.1505319 82.540493,98.0569599 L84.6116197,97.6316819 C84.1852113,98.9682699 83.5151408,100.244104 82.540493,101.519938 C81.6876761,102.61351 80.4693662,103.403312 78.8855634,103.707082 C76.8144366,104.010852 75.8397887,103.038788 75.8397887,101.762954 Z" id="Path" fill="#FFFFFF" fill-rule="nonzero"></path>
                        <path d="M91.2514085,92.7713617 L94.5408451,92.1638217 C96.4292254,91.7992976 98.0130282,92.1030677 98.0130282,94.1687037 C98.0130282,96.1735858 96.3683099,97.3279119 94.4799296,97.6924359 L93.5052817,97.8746979 L93.4443662,100.669382 L91.1295775,101.09466 L91.2514085,92.7713617 Z M94.2971831,95.9305698 C95.2109155,95.7483078 95.6982394,95.2622758 95.6982394,94.5332278 C95.6982394,93.8041797 95.2109155,93.6826717 94.2971831,93.8649337 L93.4443662,94.0471957 L93.4443662,96.1128318 L94.2971831,95.9305698 Z M94.0535211,97.1456499 L95.6373239,95.3837838 L98.4394366,99.697318 L95.8809859,100.18335 L94.0535211,97.1456499 Z" id="Shape" fill="#FFFFFF" fill-rule="nonzero"></path>
                        <path d="M102.459859,90.5842176 L105.261972,90.0374316 L107.820423,97.8746979 L105.383803,98.3607299 L104.409155,94.4724737 C104.226408,93.7434257 103.982746,92.7713617 103.8,91.9208056 L103.739085,91.9208056 C103.556338,92.8321157 103.312676,93.8649337 103.069014,94.6547358 L102.033451,98.9075159 L99.6577465,99.3327939 L102.459859,90.5842176 Z M101.607042,95.6267998 L105.871127,94.8369978 L105.871127,96.5381098 L101.607042,97.3279119 L101.607042,95.6267998 Z" id="Shape" fill="#FFFFFF" fill-rule="nonzero"></path>
                        <path d="M109.952465,89.1868755 L112.328169,88.7615975 L114.216549,92.1030677 L115.008451,93.8041797 L115.069366,93.8041797 C114.947535,92.9536237 114.825704,91.6777896 114.825704,90.7057256 L114.825704,88.2755655 L117.018662,87.8502875 L116.896831,96.1735858 L114.521127,96.5988638 L112.632746,93.2573937 L111.840845,91.5562816 L111.77993,91.5562816 C111.901761,92.4675917 112.023592,93.6826717 112.023592,94.6547358 L112.023592,97.0848959 L109.830634,97.5101739 L109.952465,89.1868755 Z" id="Path" fill="#FFFFFF" fill-rule="nonzero"></path>
                        <polygon id="Path" fill="#FFFFFF" fill-rule="nonzero" points="120.308099 87.1819935 122.622887 86.7567154 122.561972 89.8551696 122.622887 89.8551696 124.876761 86.3314374 127.374296 85.8454054 124.75493 89.7336616 127.800704 94.1079497 125.303169 94.5939818 123.414789 91.7385436 122.561972 93.0143777 122.561972 95.0800138 120.247183 95.5052918"></polygon>
                        <polygon id="Path" fill="#FFFFFF" fill-rule="nonzero" points="130.054577 85.2986194 132.369366 84.8733414 132.247535 93.1966397 129.932746 93.6219177"></polygon>
                        <path d="M135.658803,84.2050473 L138.034507,83.7797693 L139.922887,87.1212395 L140.714789,88.8223515 L140.775704,88.8223515 C140.653873,87.9717955 140.532042,86.6959614 140.532042,85.7238974 L140.532042,83.2937373 L142.725,82.8684593 L142.603169,91.1917576 L140.227465,91.6170356 L138.339085,88.2755655 L137.547183,86.5744534 L137.486268,86.5744534 C137.608099,87.4857635 137.72993,88.7008435 137.72993,89.6729076 L137.72993,92.1030677 L135.536972,92.5283457 L135.658803,84.2050473 Z" id="Path" fill="#FFFFFF" fill-rule="nonzero"></path>
                        <path d="M145.588028,86.5744534 C145.648944,83.7797693 147.659155,81.7748872 149.973944,81.3496092 C151.253169,81.1065932 152.166901,81.4103632 152.776056,81.8963952 L151.557746,83.5367533 C151.131338,83.2329833 150.70493,83.1114753 150.034859,83.2329833 C148.877465,83.4759993 147.963732,84.5088174 147.963732,86.0276674 C147.963732,87.6072715 148.633803,88.3363195 150.217606,88.0325495 C150.461268,87.9717955 150.70493,87.9110415 150.887676,87.7287795 L150.887676,86.5744534 L149.608451,86.8174694 L149.608451,84.9948494 L152.958803,84.3265553 L152.897887,88.3363195 C152.288732,89.0046135 151.192254,89.6729076 149.913028,89.9159236 C147.476408,90.4627096 145.527113,89.4298915 145.588028,86.5744534 Z" id="Path" fill="#FFFFFF" fill-rule="nonzero"></path>
                        <path d="M155.395423,87.7287795 L156.735563,85.9669134 C157.344718,86.3314374 158.13662,86.5136994 158.745775,86.3921914 C159.415845,86.2706834 159.720423,85.9669134 159.720423,85.6023894 C159.720423,85.1771114 159.294014,85.1771114 158.563028,84.9948494 L157.466549,84.7518334 C156.552817,84.5695714 155.7,83.9620313 155.760915,82.7469513 C155.760915,81.3496092 157.161972,79.8915132 159.050352,79.5269892 C160.025,79.3447271 161.121479,79.4662352 161.91338,80.0737752 L160.755986,81.6533792 C160.146831,81.3496092 159.659507,81.2888552 158.989437,81.4103632 C158.441197,81.5318712 158.075704,81.7748872 158.075704,82.1394113 C158.075704,82.5646893 158.563028,82.5646893 159.35493,82.7469513 L160.390493,82.9292133 C161.486972,83.1114753 162.096127,83.7190153 162.096127,84.8733414 C162.096127,86.2706834 160.816901,87.7895335 158.684859,88.2148115 C157.58838,88.5185815 156.309155,88.3363195 155.395423,87.7287795 Z" id="Path" fill="#FFFFFF" fill-rule="nonzero"></path>
                        <path d="M40.5697183,131.350153 L42.884507,131.350153 C44.3464789,131.350153 45.4429577,131.775431 45.4429577,133.112019 C45.4429577,133.780313 45.0774648,134.448607 44.4683099,134.630869 L44.4683099,134.691623 C45.2602113,134.873885 45.8693662,135.420671 45.8693662,136.392735 C45.8693662,137.850831 44.7119718,138.519125 43.128169,138.519125 L40.6306338,138.519125 L40.6306338,131.350153 L40.5697183,131.350153 Z M42.7626761,134.327099 C43.7373239,134.327099 44.1637324,133.962575 44.1637324,133.294281 C44.1637324,132.625987 43.6764085,132.322217 42.7626761,132.322217 L41.8489437,132.322217 L41.8489437,134.266345 L42.7626761,134.266345 L42.7626761,134.327099 Z M42.884507,137.486307 C43.9200704,137.486307 44.5292254,137.121783 44.5292254,136.331981 C44.5292254,135.602933 43.9809859,135.238409 42.884507,135.238409 L41.7880282,135.238409 L41.7880282,137.486307 L42.884507,137.486307 Z" id="Shape" fill="#FFFFFF" fill-rule="nonzero"></path>
                        <path d="M49.4633803,135.845949 L47.331338,131.350153 L48.6714789,131.350153 L49.4633803,133.172773 C49.6461268,133.719559 49.8897887,134.205591 50.0725352,134.752377 L50.1334507,134.752377 C50.3771127,134.205591 50.5598592,133.719559 50.8035211,133.172773 L51.5954225,131.350153 L52.9355634,131.350153 L50.8035211,135.845949 L50.8035211,138.519125 L49.5242958,138.519125 L49.5242958,135.845949 L49.4633803,135.845949 Z" id="Path" fill="#FFFFFF" fill-rule="nonzero"></path>
                        <path d="M57.9915493,134.934639 C57.9915493,132.565233 59.4535211,131.228645 61.2809859,131.228645 C62.1947183,131.228645 62.9257042,131.653923 63.3521127,132.139955 L62.6820423,132.929757 C62.3165493,132.565233 61.8901408,132.322217 61.3419014,132.322217 C60.184507,132.322217 59.3316901,133.294281 59.3316901,134.934639 C59.3316901,136.574997 60.1235915,137.547061 61.2809859,137.547061 C61.8901408,137.547061 62.4383803,137.243291 62.8038732,136.818013 L63.4739437,137.607815 C62.8647887,138.276109 62.1338028,138.640633 61.2200704,138.640633 C59.3926056,138.640633 57.9915493,137.304045 57.9915493,134.934639 Z" id="Path" fill="#FFFFFF" fill-rule="nonzero"></path>
                        <path d="M67.3725352,131.350153 L68.834507,131.350153 L71.1492958,138.519125 L69.8091549,138.519125 L68.7126761,134.691623 C68.4690141,133.962575 68.2862676,133.112019 68.0426056,132.322217 L67.9816901,132.322217 C67.7989437,133.112019 67.5552817,133.901821 67.3725352,134.691623 L66.2760563,138.519125 L64.996831,138.519125 L67.3725352,131.350153 Z M66.4588028,135.542179 L69.8091549,135.542179 L69.8091549,136.514243 L66.4588028,136.514243 L66.4588028,135.542179 Z" id="Shape" fill="#FFFFFF" fill-rule="nonzero"></path>
                        <path d="M72.9158451,137.607815 L73.646831,136.757259 C74.1341549,137.243291 74.8651408,137.547061 75.5352113,137.547061 C76.3271127,137.547061 76.8144366,137.182537 76.8144366,136.635751 C76.8144366,136.028211 76.3271127,135.845949 75.7179577,135.602933 L74.7433099,135.177655 C74.0123239,134.873885 73.281338,134.327099 73.281338,133.294281 C73.281338,132.139955 74.3169014,131.289399 75.7179577,131.289399 C76.5707746,131.289399 77.3626761,131.653923 77.9109155,132.200709 L77.2408451,132.990511 C76.8144366,132.625987 76.3271127,132.382971 75.6570423,132.382971 C74.9869718,132.382971 74.5605634,132.686741 74.5605634,133.233527 C74.5605634,133.780313 75.1088028,134.023329 75.7179577,134.266345 L76.6926056,134.691623 C77.5454225,135.056147 78.1545775,135.602933 78.1545775,136.635751 C78.1545775,137.790077 77.1799296,138.762142 75.5961268,138.762142 C74.5605634,138.640633 73.5859155,138.276109 72.9158451,137.607815 Z" id="Path" fill="#FFFFFF" fill-rule="nonzero"></path>
                        <polygon id="Path" fill="#FFFFFF" fill-rule="nonzero" points="80.7130282 131.350153 81.9922535 131.350153 81.9922535 138.519125 80.7130282 138.519125"></polygon>
                        <path d="M85.0989437,131.350153 L86.378169,131.350153 L88.6320423,135.359917 L89.3630282,136.878767 L89.4239437,136.878767 C89.3630282,136.149719 89.2411972,135.238409 89.2411972,134.448607 L89.2411972,131.350153 L90.459507,131.350153 L90.459507,138.519125 L89.1802817,138.519125 L86.9264085,134.509361 L86.1954225,132.990511 L86.134507,132.990511 C86.1954225,133.719559 86.3172535,134.630869 86.3172535,135.420671 L86.3172535,138.579879 L85.0989437,138.579879 L85.0989437,131.350153 Z" id="Path" fill="#FFFFFF" fill-rule="nonzero"></path>
                        <path d="M93.2616197,134.873885 C93.2616197,132.565233 94.5408451,131.167891 96.4292254,131.167891 C98.3176056,131.167891 99.596831,132.565233 99.596831,134.873885 C99.596831,137.182537 98.3176056,138.640633 96.4292254,138.640633 C94.5408451,138.640633 93.2616197,137.182537 93.2616197,134.873885 Z M98.2566901,134.873885 C98.2566901,133.294281 97.5257042,132.322217 96.4292254,132.322217 C95.3327465,132.322217 94.6017606,133.294281 94.6017606,134.873885 C94.6017606,136.453489 95.3327465,137.486307 96.4292254,137.486307 C97.5257042,137.486307 98.2566901,136.514243 98.2566901,134.873885 Z" id="Shape" fill="#FFFFFF" fill-rule="nonzero"></path>
                        <path d="M102.094366,137.790077 C102.094366,137.304045 102.459859,136.939521 102.886268,136.939521 C103.312676,136.939521 103.678169,137.304045 103.678169,137.790077 C103.678169,138.276109 103.312676,138.640633 102.886268,138.640633 C102.459859,138.640633 102.094366,138.276109 102.094366,137.790077 Z" id="Path" fill="#FFFFFF" fill-rule="nonzero"></path>
                        <path d="M106.297535,134.873885 C106.297535,132.565233 107.576761,131.167891 109.465141,131.167891 C111.353521,131.167891 112.632746,132.565233 112.632746,134.873885 C112.632746,137.182537 111.353521,138.640633 109.465141,138.640633 C107.576761,138.640633 106.297535,137.182537 106.297535,134.873885 Z M111.292606,134.873885 C111.292606,133.294281 110.56162,132.322217 109.465141,132.322217 C108.307746,132.322217 107.637676,133.294281 107.637676,134.873885 C107.637676,136.453489 108.368662,137.486307 109.465141,137.486307 C110.56162,137.547061 111.292606,136.514243 111.292606,134.873885 Z" id="Shape" fill="#FFFFFF" fill-rule="nonzero"></path>
                        <path d="M115.373944,131.350153 L117.810563,131.350153 C119.272535,131.350153 120.42993,131.896939 120.42993,133.476543 C120.42993,134.995393 119.272535,135.724441 117.810563,135.724441 L116.653169,135.724441 L116.653169,138.519125 L115.373944,138.519125 L115.373944,131.350153 Z M117.688732,134.691623 C118.66338,134.691623 119.21162,134.266345 119.21162,133.476543 C119.21162,132.625987 118.66338,132.382971 117.688732,132.382971 L116.653169,132.382971 L116.653169,134.691623 L117.688732,134.691623 Z M117.566901,135.359917 L118.480634,134.630869 L120.734507,138.519125 L119.333451,138.519125 L117.566901,135.359917 Z" id="Shape" fill="#FFFFFF" fill-rule="nonzero"></path>
                        <path d="M122.805634,134.934639 C122.805634,132.565233 124.267606,131.228645 126.216901,131.228645 C127.252465,131.228645 127.922535,131.653923 128.409859,132.139955 L127.739789,132.929757 C127.374296,132.565233 126.947887,132.322217 126.277817,132.322217 C124.998592,132.322217 124.145775,133.294281 124.145775,134.934639 C124.145775,136.574997 124.876761,137.547061 126.338732,137.547061 C126.765141,137.547061 127.130634,137.425553 127.374296,137.243291 L127.374296,135.724441 L126.034155,135.724441 L126.034155,134.691623 L128.53169,134.691623 L128.53169,137.850831 C128.044366,138.336863 127.252465,138.701388 126.216901,138.701388 C124.267606,138.640633 122.805634,137.304045 122.805634,134.934639 Z" id="Path" fill="#FFFFFF" fill-rule="nonzero"></path>
                        <path d="M113.059155,21.6891789 L102.886268,31.8350973 L82.418662,31.8350973 L82.418662,36.9384335 C82.418662,37.6067275 82.175,38.2750215 81.6876761,38.7610535 C81.2003521,39.2470856 80.5302817,39.4901016 79.8602113,39.4901016 C79.1901408,39.4901016 78.5200704,39.2470856 78.0327465,38.7610535 C77.5454225,38.2750215 77.3017606,37.6067275 77.3017606,36.9384335 L77.3017606,29.2834292 C77.3017606,27.9468411 77.85,26.6102531 78.8246479,25.698943 C79.7992958,24.787633 81.0785211,24.180093 82.418662,24.180093 L90.0940141,24.180093 L98.5003521,15.7960406 L113.059155,21.6891789 Z M71.2711268,63.3664245 L82.418662,52.2484421 L92.6524648,52.2484421 C93.3225352,52.2484421 93.9926056,52.0054261 94.4799296,51.519394 C94.9672535,51.033362 95.2109155,50.365068 95.2109155,49.696774 L95.2109155,47.1451059 L97.7693662,47.1451059 C98.4394366,47.1451059 99.109507,46.9020899 99.596831,46.4160578 C100.084155,45.9300258 100.327817,45.2617318 100.327817,44.5934378 L100.327817,42.0417697 L102.886268,42.0417697 C103.556338,42.0417697 104.226408,41.7987537 104.713732,41.3127216 C105.201056,40.8266896 105.444718,40.1583956 105.444718,39.4901016 L105.444718,36.9384335 L87.5355634,36.9384335 L87.5355634,39.4901016 C87.5355634,40.8266896 86.9873239,42.1632777 86.0126761,43.0745877 C85.0380282,44.0466517 83.7588028,44.5934378 82.418662,44.5934378 L77.3017606,44.5934378 C75.9616197,44.5934378 74.6214789,44.0466517 73.7077465,43.0745877 C72.7330986,42.1025237 72.1848592,40.8266896 72.1848592,39.4901016 L72.1848592,31.8350973 L67.0679577,36.9384335 L67.0679577,47.1451059 L45.5647887,68.6520227 L71.2711268,63.3664245 Z" id="Shape" fill="#FFFFFF" fill-rule="nonzero"></path>
                    </g>
                </g>
            </g>
        </g>
    </g>
</svg>