<?xml version="1.0" encoding="utf-8"?>
<!-- Generator: Adobe Illustrator 19.0.0, SVG Export Plug-In . SVG Version: 6.00 Build 0)  -->
<svg version="1.1" id="casino-payments" xmlns="http://www.w3.org/2000/svg" xmlns:xlink="http://www.w3.org/1999/xlink" x="0px"
	 y="0px" viewBox="-299 -200 1400 900" style="enable-background:new -299 -200 1400 900;" xml:space="preserve">
<style type="text/css">
	.st0{fill:#862565;}
	.st1{fill:#FFFFFF;}
</style>
<g id="skrill_2_">
	<path id="card-form" class="st0" d="M1001,700H-199c-55,0-100-45-100-100v-700c0-55,45-100,100-100h1200c55,0,100,45,100,100v700
		C1101,655,1056,700,1001,700z"/>
	<g id="skrill">
		<path id="skrill_1_" class="st1" d="M709.9,9.8l87.5-15.7v336.2h-87.5V9.8z M837.8,9.8v320.5h87.7V-5.9L837.8,9.8z M585.2,330.3
			h87.6V84.4h-87.6V330.3z M6.2,119.1c-11.1-0.7-36.7-2.4-36.7-25.4c0-27.9,36.9-27.9,50.7-27.9c24.4,0,55.9,7.2,78.4,13.9
			c0,0,12.6,4.4,23.2,9l1,0.2v-1V12.6l-1.3-0.4C94.9,2.9,64-6,6.8-6C-92-6-127,51.5-127,100.8c0,28.4,12.2,95.3,125.3,103
			c9.6,0.6,35,2,35,25.9c0,19.7-20.8,31.3-55.9,31.3c-38.4,0-75.7-9.8-98.3-19.1v78.5c33.9,8.9,72.1,13.3,116.8,13.3
			c96.6,0,139.8-54.4,139.8-108.4C135.7,164.3,87.3,124.6,6.2,119.1z M535.8,80.8c-81,2.6-122.1,38.9-122.1,111.1v138.3H502V217.5
			c0-43.2,5.7-61.8,57-63.5V82.1C550.4,80.2,535.8,80.8,535.8,80.8z M298.1,84.1c-2,4.9-16,44.5-49.9,85.6V-5.9L157.8,12v318.3h90.4
			v-98.4c26.2,39.3,39.1,98.4,39.1,98.4h108.3C384.9,285.8,338,203.6,338,203.6c42-53.3,60.5-110.1,63.5-119.5H298.1z M628.9,60.8
			c23.8,0,43.2-19.3,43.2-43.2c0-23.8-19.4-43.2-43.2-43.2s-43.2,19.3-43.2,43.2C585.8,41.5,605.1,60.8,628.9,60.8z"/>
		<path id="moneybookers" class="st1" d="M-26.8,495.7v-51.9c0-5.9-2.2-10-8.1-10c-4.6,0-8.9,2.9-13.5,7.3v54.6H-74v-51.9
			c0-5.9-2.2-10-8.1-10c-4.7,0-8.9,2.9-13.5,7.3v54.6h-25.5v-82.9h22.5l1.9,11.3c7.4-7.6,15.1-13,25.7-13c11.3,0,17.6,5.6,20.6,13
			c7.4-7.4,15.6-13,25.9-13c15.4,0,23.5,9.6,23.5,25.7v58.9L-26.8,495.7L-26.8,495.7z M51.5,497.3c-22.8,0-39.6-16.4-39.6-42.9
			c0-26.6,16.9-43.3,39.8-43.3c23,0,39.9,16.6,39.9,43.1C91.5,480.8,74.5,497.3,51.5,497.3z M51.6,432.1c-9.8,0-15,8.6-15,22.2
			c0,13.4,5.4,22.5,15,22.5c9.8,0,15.2-9,15.2-22.3C66.9,441,61.5,432.1,51.6,432.1z M153.1,495.7v-51.9c0-5.9-2.4-10-8.5-10
			c-4.9,0-9.5,2.9-14,7.4v54.5h-25.5v-82.9h22.5l1.9,11.3c7.4-7.3,15.4-13,25.9-13c15.4,0,23.5,9.6,23.5,25.7v58.9H153.1z
			 M267,460.6h-49.7c1.3,13,9.1,18.1,20.3,18.1c9.1,0,18.1-3.4,27.2-8.6l2.5,17.9c-8.9,5.8-20,9.3-33,9.3
			c-24.9,0-42.6-13.2-42.6-42.8c0-27.1,16.6-43.5,39.1-43.5c25.4,0,36.7,18.9,36.7,43C267.5,456.6,267.4,459.3,267,460.6z
			 M230.2,427.7c-7.1,0-12.2,6.3-13,18.9h26C242.4,434.1,238,427.7,230.2,427.7z M325.8,497.3c-7.4,21.6-17.6,29.1-35.7,29.1
			c-5.1,0-7.3-0.5-9.6-1l-3.2-20.5c2.7,0.9,5.2,1.4,10.1,1.4c5.8,0,10.8-2.2,13.5-8l1-2.5l-30.1-81l27.4-3.2l16.1,52.3l15.2-51.1
			h24.7L325.8,497.3z M400.9,496.7c-13.4,0-25.9-2.2-35.5-5.9V377.6l25.5-4v48.3c5.3-5.4,12.4-10.8,22.2-10.8
			c16.9,0,29.8,12.9,29.8,40.9C442.9,482.8,426.4,496.7,400.9,496.7z M405,433.9c-5.4,0-9.8,3.2-14.1,8v32.8c3.4,1,5.4,1.5,9.3,1.5
			c10,0,17.1-6.1,17.1-22.5C417.3,439.8,412.2,433.9,405,433.9z M492.4,497.3c-22.8,0-39.5-16.4-39.5-42.9
			c0-26.6,16.9-43.3,39.7-43.3c23,0,39.9,16.6,39.9,43.1C532.5,480.8,515.4,497.3,492.4,497.3z M492.5,432.1
			c-9.8,0-15.1,8.6-15.1,22.2c0,13.4,5.4,22.5,15.1,22.5c9.8,0,15.2-9,15.2-22.3C507.8,441,502.3,432.1,492.5,432.1z M581.5,497.3
			c-22.8,0-39.6-16.4-39.6-42.9c0-26.6,16.9-43.3,39.8-43.3c23,0,39.9,16.6,39.9,43.1C621.5,480.8,604.5,497.3,581.5,497.3z
			 M581.7,432.1c-9.8,0-15.1,8.6-15.1,22.2c0,13.4,5.4,22.5,15.1,22.5c9.8,0,15.2-9,15.2-22.3C596.9,441,591.5,432.1,581.7,432.1z
			 M684.6,496.8l-24-39.7v38.6h-25.5v-118l25.5-4v73.2l22.2-34h27.4l-26,37.7l27.1,42.6L684.6,496.8z M788.3,460.6h-49.7
			c1.3,13,9.1,18.1,20.3,18.1c9.1,0,18.1-3.4,27.3-8.6l2.5,17.9c-9,5.8-20,9.3-33,9.3c-24.9,0-42.6-13.2-42.6-42.8
			c0-27.1,16.6-43.5,39-43.5c25.4,0,36.7,18.9,36.7,43C788.8,456.6,788.6,459.3,788.3,460.6z M751.4,427.7c-7.1,0-12.2,6.3-13,18.9
			h26C763.5,434.1,759.2,427.7,751.4,427.7z M828,449.7v46h-25.5v-82.9h22.3l2.7,16.4c5.1-9.4,12-17.2,24.2-18.1l4.2,26
			C843.5,438,834.2,442.9,828,449.7z M896.1,497c-13.2,0-25.5-3.7-34.2-8.3l3.1-19.4c9.8,6.1,21.8,9.8,31.3,9.8
			c7.1,0,10.5-2.4,10.5-6.3c0-4.2-2.3-6.1-14-8.9c-20.8-5.4-29.6-11-29.6-26.6c0-15.4,11.5-25.7,31.8-25.7c11.2,0,22,2.2,30.6,6.1
			l-3.2,19.5c-9-4.9-19.3-7.8-27.3-7.8c-6.1,0-8.8,2.2-8.8,5.4c0,3.4,2.4,5.3,14,8.5c22,5.9,29.8,11.5,29.8,26.9
			C930.1,487.5,918.1,497,896.1,497z"/>
	</g>
</g>
</svg>
