<?xml version="1.0" encoding="utf-8"?>
<!-- Generator: Adobe Illustrator 19.0.0, SVG Export Plug-In . SVG Version: 6.00 Build 0)  -->
<svg version="1.1" id="casino-payments" xmlns="http://www.w3.org/2000/svg" xmlns:xlink="http://www.w3.org/1999/xlink" x="0px"
	 y="0px" viewBox="-598 101 1400 900" style="enable-background:new -598 101 1400 900;" xml:space="preserve">
<style type="text/css">
	.st0{fill:url(#card-form_2_);}
	.st1{fill:#F06A2F;}
	.st2{fill:#222221;}
</style>
<linearGradient id="card-form_2_" gradientUnits="userSpaceOnUse" x1="102" y1="2001" x2="102" y2="1101" gradientTransform="matrix(1 0 0 1 0 -1000)">
	<stop  offset="0" style="stop-color:#CDCCCC"/>
	<stop  offset="0.6582" style="stop-color:#FFFFFF"/>
</linearGradient>
<path id="card-form_1_" class="st0" d="M702,1001H-498c-55,0-100-45-100-100V201c0-55,45-100,100-100H702c55,0,100,45,100,100v700
	C802,956,757,1001,702,1001z"/>
<g id="boku">
	<path id="boku-logo" class="st1" d="M-501,525.4c-15.5,0.2-28.6,6-39.3,17.6c-10.7,11.5-16,25.3-15.8,41.4
		c0.2,16.1,5.8,29.7,16.9,41c11.1,11.2,24.3,16.8,39.6,16.6c15.6-0.2,28.7-6,39.4-17.5c10.7-11.5,15.9-25.3,15.7-41.5
		c-0.2-16.2-5.8-29.9-16.7-41.1C-472.1,530.7-485.4,525.3-501,525.4"/>
	<path id="boku-txt" class="st2" d="M227.7,385.3V711h58.7l65.4-87.6l63.5,87.5h86.8L394.4,566.6l81.9-109.3h-83.7l-89.4,123.2
		V385.3H227.7L227.7,385.3z M-350.9,385.3v198.4c0,36.7,13,68.1,38.9,94.1c26,26,57.3,39,94.1,39c37,0,68.4-12.9,94.2-38.8
		c25.8-25.8,38.8-57.3,38.8-94.2c0-36.4-12.8-67.6-38.5-93.7c-25.7-26.1-56.4-39.1-92.3-39.1c-21.9,0-41.8,4.3-59.8,13v-78.5
		L-350.9,385.3L-350.9,385.3z M70.9,450.8c-37.8,0-69.8,12.9-96,38.6c-26.1,25.7-39.2,57.1-39.2,94.3c0,36.7,13,68.1,39,94.1
		c26,26,57.3,39,94.1,39c37,0,68.4-12.9,94.3-38.8c25.8-25.9,38.8-57.3,38.8-94.3c0-36.3-12.8-67.6-38.5-93.7
		C137.6,464,106.8,450.9,70.9,450.8L70.9,450.8z M684.8,457.1v126.6c0,16.2-7.3,30-18.1,41.3c-10.8,11.3-24,17-39.6,17
		c-15.3,0-28.5-5.7-39.4-17.1c-11-11.4-18.1-25.1-18.1-41.2V457.3H494v126.4c0,36.7,13,68.1,39,94.1c26,26,57.3,39,94.1,39
		c37,0,68.4-12.9,94.2-38.8c25.9-25.9,38.8-57.3,38.8-94.2V457.1L684.8,457.1L684.8,457.1z M-217.9,525.4c15.6,0,28.8,5.6,39.6,17
		c10.8,11.3,16.2,25.1,16.2,41.3c0,16.2-5.4,30-16.2,41.3c-10.8,11.3-24,17-39.6,17c-15.4,0-28.5-5.7-39.4-17.1
		c-10.9-11.4-16.4-25.1-16.4-41.2c0-16.1,5.5-29.8,16.3-41.2C-246.5,531.1-233.4,525.5-217.9,525.4L-217.9,525.4z M68,525.4
		c15.6-0.2,28.8,5.3,39.8,16.5c10.9,11.2,16.5,24.9,16.7,41.1c0.2,16.2-5,30-15.7,41.5c-10.7,11.4-23.8,17.3-39.4,17.5
		c-15.3,0.2-28.5-5.3-39.6-16.6c-11.1-11.2-16.7-24.9-16.9-41c-0.2-16.1,5.1-29.9,15.8-41.4C39.4,531.5,52.5,525.7,68,525.4
		L68,525.4z"/>
</g>
</svg>
