<?xml version="1.0" encoding="utf-8"?>
<!-- Generator: Adobe Illustrator 19.0.0, SVG Export Plug-In . SVG Version: 6.00 Build 0)  -->
<svg version="1.1" id="casino-payments" xmlns="http://www.w3.org/2000/svg" xmlns:xlink="http://www.w3.org/1999/xlink" x="0px"
	 y="0px" viewBox="-299 -200 1400 900" style="enable-background:new -299 -200 1400 900;" xml:space="preserve">
<style type="text/css">
	.st0{fill:url(#XMLID_2_);}
	.st1{fill:#BCBEC0;}
	.st2{fill:#283D7E;}
	.st3{fill:#1D9BD4;}
</style>
<g id="paypal_1_">
	<g id="card-form_11_">
		
			<linearGradient id="XMLID_2_" gradientUnits="userSpaceOnUse" x1="401" y1="-198.5" x2="401" y2="698.5" gradientTransform="matrix(1 0 0 -1 0 500)">
			<stop  offset="0" style="stop-color:#CDCCCC"/>
			<stop  offset="0.6582" style="stop-color:#FFFFFF"/>
		</linearGradient>
		<path id="XMLID_252_" class="st0" d="M-199,698.5c-54.3,0-98.5-44.2-98.5-98.5v-700c0-54.3,44.2-98.5,98.5-98.5h1200
			c54.3,0,98.5,44.2,98.5,98.5v700c0,54.3-44.2,98.5-98.5,98.5H-199z"/>
		<path id="XMLID_249_" class="st1" d="M1001-197c25.8,0,50.1,10.1,68.5,28.5s28.5,42.7,28.5,68.5v700c0,25.8-10.1,50.1-28.5,68.5
			S1026.8,697,1001,697H-199c-25.8,0-50.1-10.1-68.5-28.5S-296,625.8-296,600v-700c0-25.8,10.1-50.1,28.5-68.5S-224.8-197-199-197
			H1001 M1001-200H-199c-55,0-100,45-100,100v700c0,55,45,100,100,100h1200c55,0,100-45,100-100v-700C1101-155,1056-200,1001-200
			L1001-200z"/>
	</g>
	<g id="paypal">
		<g id="XMLID_238_">
			<path id="path14519" class="st2" d="M463.6,181.5h-46.9c-4.5,0-8.7,2.2-11.2,5.9l-64.7,95.2l-27.4-91.5c-1.7-5.7-7-9.7-13-9.7
				h-46.1c-5.6,0-9.5,5.5-7.7,10.7l51.6,151.5l-48.5,68.5c-3.8,5.4,0,12.8,6.6,12.8h46.8c4.4,0,8.6-2.2,11.1-5.8l155.9-225
				C474,188.8,470.1,181.5,463.6,181.5 M150.2,272.3c-4.5,26.6-25.7,44.5-52.6,44.5c-13.5,0-24.4-4.4-31.3-12.6
				c-6.9-8.2-9.5-19.8-7.3-32.7c4.2-26.4,25.7-44.9,52.3-44.9c13.2,0,24,4.4,31.1,12.7C149.4,247.7,152.2,259.4,150.2,272.3
				 M215.2,181.5h-46.6c-4,0-7.4,2.9-8,6.9l-2,13l-3.3-4.7c-10.1-14.7-32.6-19.6-55.1-19.6c-51.5,0-95.5,39.1-104.1,93.8
				c-4.5,27.3,1.9,53.4,17.4,71.7c14.2,16.7,34.5,23.7,58.7,23.7c41.5,0,64.6-26.7,64.6-26.7l-2.1,13c-0.8,4.9,3,9.4,8,9.4h42
				c6.7,0,12.3-4.8,13.4-11.4L223.3,191C224,185.9,220.2,181.5,215.2,181.5 M-64.7,182.6c-5.3,35-32,35-57.9,35h-14.7l10.3-65.3
				c0.6-3.9,4-6.8,8-6.8h6.7c17.6,0,34.2,0,42.7,10C-64.3,161.4-62.7,170.3-64.7,182.6 M-75.9,91.4h-97.4c-6.7,0-12.3,4.8-13.4,11.4
				L-226,352.5c-0.8,4.9,3,9.4,8,9.4h46.5c6.7,0,12.3-4.8,13.4-11.4l10.6-67.4c1-6.6,6.7-11.4,13.4-11.4h30.8
				c64.2,0,101.2-31,110.9-92.6c4.4-26.9,0.2-48-12.4-62.8C-18.8,100-43.3,91.4-75.9,91.4"/>
			<path id="path14523" class="st3" d="M964.8,98.3l-40,254.3c-0.8,4.9,3,9.4,8,9.4H973c6.7,0,12.3-4.8,13.4-11.4l39.4-249.7
				c0.8-4.9-3-9.4-8-9.4h-45C968.8,91.4,965.4,94.3,964.8,98.3 M844.8,272.3c-4.5,26.6-25.7,44.5-52.6,44.5
				c-13.5,0-24.4-4.4-31.3-12.6c-6.9-8.2-9.5-19.8-7.3-32.7c4.2-26.4,25.7-44.9,52.3-44.9c13.2,0,24,4.4,31.1,12.7
				C844.1,247.7,846.9,259.4,844.8,272.3 M909.8,181.5h-46.6c-4,0-7.4,2.9-8,6.9l-2,13l-3.3-4.7c-10.1-14.7-32.6-19.6-55.1-19.6
				c-51.5,0-95.5,39.1-104.1,93.8c-4.5,27.3,1.9,53.4,17.4,71.7c14.2,16.7,34.5,23.7,58.7,23.7c41.5,0,64.6-26.7,64.6-26.7l-2.1,13
				c-0.8,4.9,3,9.4,8,9.4h42c6.7,0,12.3-4.8,13.4-11.4L917.9,191C918.6,185.9,914.8,181.5,909.8,181.5 M630,182.6
				c-5.3,35-32,35-57.9,35h-14.7l10.3-65.3c0.6-3.9,4-6.8,8-6.8h6.7c17.6,0,34.2,0,42.7,10C630.4,161.4,631.9,170.3,630,182.6
				 M618.7,91.4h-97.4c-6.7,0-12.3,4.8-13.4,11.4l-39.4,249.7c-0.8,4.9,3,9.4,8,9.4h50c4.7,0,8.6-3.4,9.4-8l11.2-70.8
				c1-6.6,6.7-11.4,13.4-11.4h30.8c64.2,0,101.2-31,110.9-92.6c4.4-26.9,0.2-48-12.4-62.8C675.9,100,651.3,91.4,618.7,91.4"/>
		</g>
	</g>
</g>
</svg>
