<?xml version="1.0" encoding="utf-8"?>
<!-- Generator: Adobe Illustrator 19.0.0, SVG Export Plug-In . SVG Version: 6.00 Build 0)  -->
<svg version="1.1" id="casino-payments" xmlns="http://www.w3.org/2000/svg" xmlns:xlink="http://www.w3.org/1999/xlink" x="0px"
	 y="0px" viewBox="-299 -200 1400 900" style="enable-background:new -299 -200 1400 900;" xml:space="preserve">
<style type="text/css">
	.st0{fill:#8DC549;}
	.st1{fill:#FFFFFF;}
</style>
<g id="neteller">
	<path id="card-form_12_" class="st0" d="M1001,700H-199c-55,0-100-45-100-100v-700c0-55,45-100,100-100h1200c55,0,100,45,100,100
		v700C1101,655,1056,700,1001,700z"/>
	<path id="neteller_1_" class="st1" d="M944.2,230.8c-5.8,4.1-15.3,6.2-27.8,6.2h-6.2l8.4-45h4.7c10.4,0,18,1.6,22.8,4.7
		c4.7,3,7.1,8.1,7.1,14.7C953.2,220.2,950.2,226.7,944.2,230.8 M103.8,302.7H8.3l4.7-25h70l10.7-58.5h-70l4.1-22h95.3L103.8,302.7z
		 M1010.3,152.6c-17.2-11.7-42.4-17.5-75.7-17.5H846l-31,167.7h-95.5l4.6-25h70.5l10.6-58.5h-70.7l4.3-22h70.5L821,135H667.3
		L638,294.2h-36.8L630.7,135h-85.2l-29.2,159.2h-35.7L510.1,135h-85l-31,167.7h-96.4l4.6-25h70.5l10.7-58.5h-70.7l4.3-22h75.1
		l11.4-62.3H-44.2l-22.1,119.8c-2.2-11.7-40.6-119.8-40.6-119.8h-84.4L-233.9,365h84.6c0,0,18.8-108,19.3-118.9L-87.3,365h0.9h263
		l30.8-167.7H234L203,365h683.5l15.5-83.3l25,83.3h85.5l-33.4-88.2c18-3.8,32.1-12.2,42-24.8c9.8-12.6,14.7-28.6,14.7-47.7
		C1036,181.6,1027.5,164.3,1010.3,152.6"/>
</g>
</svg>
