<?xml version="1.0" encoding="utf-8"?>
<!-- Generator: Adobe Illustrator 19.0.0, SVG Export Plug-In . SVG Version: 6.00 Build 0)  -->
<svg version="1.1" xmlns="http://www.w3.org/2000/svg" xmlns:xlink="http://www.w3.org/1999/xlink" x="0px" y="0px"
	 viewBox="-1196 1204 1400 900" style="enable-background:new -1196 1204 1400 900;" xml:space="preserve">
<style type="text/css">
	.st0{fill:url(#XMLID_2_);}
	.st1{fill:#BCBEC0;}
	.st2{fill:#69BB4D;}
	.st3{fill:#131110;}
</style>
<g id="Слой_1">
	<g id="card-form">
		
			<linearGradient id="XMLID_2_" gradientUnits="userSpaceOnUse" x1="-496" y1="-1594.5" x2="-496" y2="-697.5" gradientTransform="matrix(1 0 0 -1 0 508)">
			<stop  offset="0" style="stop-color:#CDCCCC"/>
			<stop  offset="0.6582" style="stop-color:#FFFFFF"/>
		</linearGradient>
		<path id="XMLID_252_" class="st0" d="M-1096,2102.5c-54.3,0-98.5-44.2-98.5-98.5v-700c0-54.3,44.2-98.5,98.5-98.5H104
			c54.3,0,98.5,44.2,98.5,98.5v700c0,54.3-44.2,98.5-98.5,98.5H-1096z"/>
		<path id="XMLID_249_" class="st1" d="M104,1207c25.8,0,50.1,10.1,68.5,28.5s28.5,42.7,28.5,68.5v700c0,25.8-10.1,50.1-28.5,68.5
			S129.8,2101,104,2101h-1200c-25.8,0-50.1-10.1-68.5-28.5s-28.5-42.7-28.5-68.5v-700c0-25.8,10.1-50.1,28.5-68.5
			s42.7-28.5,68.5-28.5H104 M104,1204h-1200c-55,0-100,45-100,100v700c0,55,45,100,100,100H104c55,0,100-45,100-100v-700
			C204,1249,159,1204,104,1204L104,1204z"/>
	</g>
</g>
<g id="trustly">
	<path id="trustly-logo" transform="matrix(1.3540032,0,0,1.3540032,-105.3652,-716.93087)" class="st2" d="M-341.7,1788
		c0,19.3-15.6,34.9-34.9,34.9c-19.3,0-34.9-15.6-34.9-34.9c0-19.3,15.6-34.9,34.9-34.9C-357.3,1753.1-341.7,1768.7-341.7,1788
		 M-223.2,1788c0,19.3-15.6,34.9-34.9,34.9c-19.3,0-34.9-15.6-34.9-34.9c0-19.3,15.7-34.9,34.9-34.9
		C-238.8,1753.1-223.2,1768.7-223.2,1788 M-260.6,1577h-113.6v-27h0.1c0-0.2,0-0.5,0-0.7c0-31.3,25.4-56.8,56.8-56.8
		c31.3,0,56.8,25.4,56.8,56.8c0,0.3,0,0.5,0,0.7h0V1577z M-279.3,1631.4c0,1.7,0,3.2-3.4,3.2h-17.8c-2,0-2.8,0.4-2.8,2.3v61.2
		c0,3.2-1.8,4-6.2,4H-327c-4.9,0-6.2-0.5-6.2-4v-61.2c0-2-0.8-2.3-2.8-2.3h-16.4c-3.4,0-3.4-1.5-3.4-3.2v-15.1
		c0-2.9,2.2-3.3,5.6-3.3h65.4c3.4,0,5.6,0.4,5.6,3.3V1631.4z M-190.2,1577h-39.1v-21.2c0.1-1.3,0.1-2.7,0.1-4
		c0-48.7-39.5-88.2-88.2-88.2c-48.7,0-88.2,39.5-88.2,88.2c0,0.3,0,0.5,0,0.8h0v24.4h-39c-13,0-25.8,6.4-23,21.3l28.9,129.5
		c2.6,11,10.6,18.5,23.6,18.5h195.4c13,0,21-7.6,23.6-18.5l28.9-129.5C-164.4,1583.3-177.2,1577-190.2,1577"/>
	<path id="trustly-txt" class="st3" d="M-853.7,1805.8h-43.1c-4.7,0-6.8,0.9-6.8,5.6v148.5c0,7.7-4.4,9.7-15.1,9.7h-42.5
		c-11.8,0-15.1-1.2-15.1-9.7v-148.5c0-4.7-2.1-5.6-6.8-5.6h-39.8c-8.3,0-8.3-3.5-8.3-7.7v-36.6c0-7.1,5.3-8,13.6-8H-859
		c8.3,0,13.6,0.9,13.6,8v36.6C-845.4,1802.3-845.4,1805.8-853.7,1805.8 M-725.6,1810.6c2.4,0,6.8,0,6.8,5v34.2
		c0,3.5-1.8,6.8-6.8,6.8c-8,0-20.9,0.4-27.7,3c-12.7,5-16.9,11.4-16.9,23.5v70.5c0,7.7,0.3,15.9-10.6,15.9h-39.6
		c-11.2,0-14.5-6.2-14.5-13.9v-110.3c0-18.5,7.6-34.7,44.6-34.7L-725.6,1810.6z M-656.5,1969.9c-20.4,0-42.8-9.5-42.8-47.2v-95.9
		c0-8.3,3.2-15.9,11.5-15.9h41.3c7.4,0,14.5,5,14.5,12.4v76.7c0,7.1,2.4,14.8,11.5,14.8c9.4,0,12.4-7.4,12.4-14.2v-73.8
		c0-7.7-0.3-15.9,10.6-15.9h39.5c11.2,0,14.5,6.2,14.5,13.9v97.5c0,41.6-25.5,47.7-36.7,47.7L-656.5,1969.9z M-451.1,1973.7
		c-31,0-59.3-6.2-65.8-9.5c-3-1.5-5.6-43.4,3.2-41.3c6.5,1.5,17.4,5.3,41.9,5.3c13,0,20.4-1.8,20.4-8c0-4.1-7.1-7.1-15.9-10.9
		c-19.2-8.3-49-19.8-49-54.6c0-35.7,40.4-49.9,79.4-49.9c31,0,40.1,3.2,44.6,5c5.6,2.1-0.3,39.3-8.3,39c-5.3-0.3-23.3-3.5-33.1-3.5
		c-10,0-14.5,1.8-14.5,6.8c0,2.7,5.6,5.9,14.5,10c20.1,9.2,52.2,24.2,52.2,59.6C-381.4,1967.8-422.7,1973.7-451.1,1973.7
		 M-266.9,1854.8h-18v64c0,5.6,4.4,8,10.9,8c1.5,0,2.9,0,4.4-0.3c4.4-0.6,8.8,40.1,5.9,41.6c-4.4,2.1-21.2,5.6-36.6,5.6
		c-39,0-49.6-25.1-49.9-42.8s0-77,0-77h-9.7c-7.4,0-8.9-4.7-8.9-12.1v-19.2c0-8.3,2.7-11.5,10.9-11.5h10.9v-20.7
		c0-7.4,7.4-11.2,14.5-12.4l33.9-5.6c11.5-1.8,11.5,2.4,11.5,10.6v28h18.6c7.4,0,9.4,7.1,9.4,14.5v16.8
		C-258.9,1850.7-258.9,1854.8-266.9,1854.8 M-181.3,1969.6h-42.5c-10.3,0-11.5-1.2-11.5-10.3v-200.7c0-4.4,2.9-8.3,8.9-8.3h42.2
		c12.7,0,13.6,3.8,13.6,10.3V1956C-170.7,1963.7-170.4,1969.6-181.3,1969.6 M-61.2,2016.8c-2.4,5.6-8,11.8-13.9,11.8h-33.3
		c-10.6,0-12.1-3.5-9.2-10.3l22.1-52.5l-58.4-144.6c-2.7-6.8,0-10.3,9.2-10.3h48.1c5.9,0,11.8,5.9,13.9,11.8l21.2,60.2l24.2-60.2
		c2.4-5.9,8-11.8,13.9-11.8h36.3c10.6,0,12.1,3.6,9.2,10.3L-61.2,2016.8z"/>
</g>
</svg>
