<?xml version="1.0" encoding="utf-8"?>
<!-- Generator: Adobe Illustrator 19.0.0, SVG Export Plug-In . SVG Version: 6.00 Build 0)  -->
<svg version="1.1" id="casino-payments" xmlns="http://www.w3.org/2000/svg" xmlns:xlink="http://www.w3.org/1999/xlink" x="0px"
	 y="0px" viewBox="-299 -200 1400 900" style="enable-background:new -299 -200 1400 900;" xml:space="preserve">
<style type="text/css">
	.st0{fill:url(#card-form_2_);}
	.st1{fill:#158AC8;}
	.st2{fill:#E12730;}
</style>
<g id="paysafecard_1_">
	
		<linearGradient id="card-form_2_" gradientUnits="userSpaceOnUse" x1="401" y1="-200" x2="401" y2="700" gradientTransform="matrix(1 0 0 -1 0 500)">
		<stop  offset="0" style="stop-color:#CDCCCC"/>
		<stop  offset="0.6582" style="stop-color:#FFFFFF"/>
	</linearGradient>
	<path id="card-form_1_" class="st0" d="M1001,700H-199c-55,0-100-45-100-100v-700c0-55,45-100,100-100h1200c55,0,100,45,100,100
		v700C1101,655,1056,700,1001,700z"/>
	<g id="paysafecard">
		<g id="XMLID_211_">
			<g id="XMLID_212_">
				<path id="XMLID_213_" class="st1" d="M-105.5,0.6h-67.8c-6.6,0-10.9,2.2-17.5,4.4s-10.9,6.6-15.3,8.8
					C-212.7,22.6-217,35.7-217,51v216.6h48v-72.2h65.6c13.1,0,21.9-4.4,30.6-13.1c8.8-8.8,13.1-17.5,13.1-30.6V50.9
					C-59.6,18.1-74.9,0.6-105.5,0.6z M-107.7,134c0,2.2-2.2,6.6-4.4,8.8c-2.2,2.2-4.4,4.4-8.8,4.4h-35c-10.9,0-15.3-4.4-15.3-15.3
					V64c0-8.8,4.4-13.1,13.1-15.3h37.2c6.6,0,10.9,4.4,10.9,10.9V134H-107.7z M89.2,0.6H-20.2v48.1h96.3c8.8,0,13.1,2.2,13.1,10.9
					V64H25.7c-30.6,0-45.9,15.3-45.9,45.9v39.4c0,28.4,17.5,43.8,48.1,43.8h65.6c13.1,0,24.1-4.4,30.6-13.1
					c8.8-8.8,10.9-19.7,13.1-32.8V46.5C137.3,15.9,122,0.6,89.2,0.6z M91.4,136.2c0,6.6-4.4,8.8-13.1,8.8H41.1c-4.4,0-6.6,0-8.8-2.2
					c-2.2-2.2-4.4-4.4-4.4-6.6v-13.1c0-4.4,0-8.8,2.2-10.9c2.2-2.2,4.4-2.2,10.9-2.2h37.2c8.8,0,13.1,4.4,13.1,10.9L91.4,136.2z
					 M286.1,134c0,2.2-2.2,6.6-4.4,8.8c-2.2,2.2-6.6,4.4-10.9,4.4H238c-8.8,0-13.1-4.4-13.1-15.3V0.6h-48.1V145
					c0,8.8,2.2,15.3,4.4,19.7c2.2,6.6,6.6,10.9,10.9,15.3s10.9,8.8,15.3,10.9s10.9,2.2,19.7,2.2h61.3V204c0,2.2-2.2,6.6-4.4,8.8
					c-2.2,2.2-6.6,4.4-8.8,4.4h-96.3v50.3h111.6c13.1,0,24.1-4.4,32.8-15.3c8.8-8.8,10.9-21.9,13.1-37.2V0.6h-48.1V134H286.1z
					 M373.6,44.3v37.2c0,10.9,4.4,19.7,13.1,28.4c8.8,8.8,19.7,13.1,32.8,13.1h41.6c2.2,0,4.4,2.2,6.6,6.6c0,2.2,2.2,2.2,2.2,4.4
					v2.2c0,6.6-4.4,8.8-13.1,8.8h-85.3v48.1h100.7c8.8,0,15.3,0,19.7-2.2s8.8-4.4,13.1-10.9c8.8-10.9,13.1-19.7,13.1-30.6v-35
					c0-10.9-4.4-21.9-13.1-30.6c-8.8-8.8-17.5-13.1-28.4-13.1H435c-10.9,0-15.3-2.2-15.3-8.8v-2.2c0-6.6,4.4-8.8,15.3-8.8h85.3V0.6
					h-98.5C389,0.6,373.6,15.9,373.6,44.3z M662.5,0.6H553.1v48.1h96.3c8.8,0,13.1,2.2,13.1,10.9V64H599
					c-30.6,0-45.9,15.3-45.9,45.9v39.4c0,28.4,17.5,43.8,48.1,43.8h65.6c13.1,0,24.1-4.4,30.6-13.1c8.8-8.8,10.9-19.7,10.9-32.8
					V46.5C710.6,15.9,695.3,0.6,662.5,0.6z M664.7,136.2c0,6.6-4.4,8.8-13.1,8.8h-37.2c-4.4,0-6.6,0-8.8-2.2s-4.4-4.4-4.4-6.6v-13.1
					c0-4.4,0-8.8,2.2-10.9c2.2-2.2,4.4-2.2,10.9-2.2h37.2c8.8,0,13.1,4.4,13.1,10.9L664.7,136.2z M765.3-58.5
					c-8.8,8.8-15.3,19.7-15.3,32.8v221h48.1V50.9h35V0.6h-35v-10.9c0-8.8,4.4-13.1,15.3-15.3h17.5v-45.9h-30.6
					C787.2-71.6,776.3-67.3,765.3-58.5z M973.2,0.6h-65.6c-30.6,0-45.9,15.3-45.9,45.9V145c0,8.8,0,17.5,2.2,21.9
					s4.4,10.9,10.9,15.3c4.4,4.4,8.8,6.6,15.3,8.8c4.4,2.2,13.1,2.2,21.9,2.2h105V145h-98.5c-2.2,0-4.4-2.2-6.6-4.4
					c-2.2-2.2-2.2-4.4-2.2-8.8v-2.2L1019.1,88V48.6C1019.1,15.9,1003.8,0.6,973.2,0.6z M971,59.6l-61.3,21.9V61.8
					c0-4.4,2.2-6.6,4.4-8.8c2.2-2.2,6.6-4.4,10.9-4.4h32.8c4.4,0,6.6,0,8.8,2.2C968.8,53.1,971,55.3,971,59.6L971,59.6z
					 M248.3,552.1c-5.6,0-14-5.6-19.6-8.4c-5.6-5.6-11.2-11.2-14-19.6c-2.8-8.4-2.8-16.8-2.8-25.2V381.3c0-16.8,5.6-30.8,14-36.4
					c8.4-5.6,22.4-11.2,39.2-11.2h92.4v-14h-95.2c-11.2,0-19.6,0-25.2,2.8c-8.4,2.8-16.8,8.4-22.4,14c-5.6,5.6-11.2,14-14,22.4
					s-2.8,16.8-2.8,25.2v117.6c0,11.2,2.8,22.4,5.6,30.8s8.4,16.8,16.8,25.2c8.4,5.6,16.8,11.2,25.2,11.2c8.4,2.8,16.8,2.8,25.2,2.8
					h89.6v-14h-86.8C262.3,554.9,253.9,552.1,248.3,552.1z M584.2,325.3c-2.8-2.8-8.4-5.6-14-5.6c-8.4-2.8-19.6-2.8-30.8-2.8h-126
					v14h134.4c8.4,0,16.8,0,22.4,2.8c5.6,2.8,14,5.6,16.8,14c8.4,11.2,11.2,22.4,11.2,36.4v16.8H475c-42,0-64.4,22.4-64.4,64.4v39.2
					c0,19.6,5.6,36.4,19.6,47.6c11.2,11.2,28,16.8,47.6,16.8h72.8c19.6,0,36.4-5.6,47.6-19.6c5.6-8.4,11.2-14,11.2-22.4
					s2.8-16.8,2.8-25.2v-112c0-19.6-5.6-36.4-16.8-50.4C592.6,333.7,589.8,328.1,584.2,325.3z M598.2,504.5
					c0,33.6-16.8,47.6-47.6,50.4H475c-14,0-25.2-5.6-36.4-14c-5.6-5.6-11.2-11.2-11.2-16.8s0-14,0-19.6v-39.2c0-16.8,5.6-28,14-36.4
					s19.6-14,33.6-14h123.2L598.2,504.5L598.2,504.5z M687.8,389.7v179.2h14V389.7c0-36.4,16.8-56,50.4-56h19.6v-14H755
					C710.2,319.7,685,342.1,687.8,389.7z M1001.3,238.5v81.2H886.5c-47.6,0-72.8,22.4-72.8,72.8v106.4c0,11.2,0,19.6,2.8,28
					s5.6,16.8,11.2,25.2c8.4,8.4,16.8,14,28,16.8c8.4,2.8,19.6,2.8,30.8,2.8h56c50.4,0,75.6-22.4,75.6-70V238.5H1001.3z
					 M1001.3,498.9c0,19.6-5.6,33.6-19.6,42c-11.2,8.4-28,14-47.6,14h-50.4c-8.4,0-16.8,0-22.4-2.8s-14-2.8-19.6-8.4
					c-11.2-5.6-16.8-19.6-16.8-39.2V389.7c0-8.4,0-16.8,2.8-22.4c2.8-5.6,5.6-11.2,11.2-19.6c5.6-5.6,14-11.2,19.6-14
					s14-2.8,22.4-2.8h117.6L1001.3,498.9z"/>
			</g>
		</g>
		<path id="XMLID_206_" class="st2" d="M-91.3,366c6.6-32.8,37.2-56.9,72.2-56.9s65.6,24.1,72.2,56.9c10.9,2.2,19.7,6.6,26.3,13.1
			c0-6.6,0-13.1,0-17.5c-6.6-50.3-48.1-89.7-100.7-89.7s-94.1,41.6-98.5,94.1c0,4.4,0,8.8,0,13.1c4.4-4.4,8.8-6.6,15.3-8.8
			C-100.1,368.2-95.7,366-91.3,366z M35.6,376.9h-116c-6.6,0-10.9,2.2-17.5,4.4s-10.9,4.4-15.3,8.8c-6.6,8.8-10.9,21.9-10.9,39.4
			v91.9c0,17.5,4.4,28.4,10.9,37.2c4.4,4.4,8.8,6.6,15.3,8.8c6.6,2.2,10.9,4.4,17.5,4.4H37.8c30.6,0,45.9-17.5,45.9-50.3v-94.1
			C81.5,394.4,66.2,376.9,35.6,376.9z"/>
	</g>
</g>
</svg>
