<?xml version="1.0" encoding="utf-8"?>
<!-- Generator: Adobe Illustrator 19.0.0, SVG Export Plug-In . SVG Version: 6.00 Build 0)  -->
<svg version="1.1" id="casino-payments" xmlns="http://www.w3.org/2000/svg" xmlns:xlink="http://www.w3.org/1999/xlink" x="0px"
	 y="0px" viewBox="-299 -200 1400 900" style="enable-background:new -299 -200 1400 900;" xml:space="preserve">
<style type="text/css">
	.st0{fill:url(#card-form_1_);}
	.st1{fill:url(#XMLID_2_);}
	.st2{fill:#20447E;}
	.st3{fill:url(#XMLID_3_);}
	.st4{fill:url(#XMLID_4_);}
	.st5{fill:url(#XMLID_5_);}
	.st6{fill:url(#XMLID_6_);}
</style>
<g id="ecopayz_1_">
	
		<linearGradient id="card-form_1_" gradientUnits="userSpaceOnUse" x1="401" y1="-200" x2="401" y2="700" gradientTransform="matrix(1 0 0 -1 0 500)">
		<stop  offset="0" style="stop-color:#CDCCCC"/>
		<stop  offset="0.6582" style="stop-color:#FFFFFF"/>
	</linearGradient>
	<path id="card-form_5_" class="st0" d="M1001,700H-199c-55,0-100-45-100-100v-700c0-55,45-100,100-100h1200c55,0,100,45,100,100
		v700C1101,655,1056,700,1001,700z"/>
	<g id="ecopayz">
		
			<radialGradient id="XMLID_2_" cx="305.1684" cy="48.2392" r="294.2188" gradientTransform="matrix(1 0 0 1 -392.5547 118.2246)" gradientUnits="userSpaceOnUse">
			<stop  offset="0" style="stop-color:#81C14A"/>
			<stop  offset="1" style="stop-color:#8BC449"/>
		</radialGradient>
		<path id="XMLID_157_" class="st1" d="M-224.8,242.8c1-75.2,104.1-134.8,230.3-133.1c68.8,0.9,130.1,19.9,171.6,49.1
			C136,122.2,65.7,97.5-14.5,96.4c-128-1.7-232.5,57.4-233.5,131.9c-0.4,30.2,16.2,58.2,44.5,81C-217.3,288.4-225,265.6-224.8,242.8
			z"/>
		<path id="XMLID_154_" class="st2" d="M-4.1,249.6c0,8.5-2.2,14.5-6.5,17.8c-4.3,3.2-11.1,4.9-20.3,4.9h-99.5
			c0,9.8,4.9,17.4,14.8,22.6c8,4.1,17.8,6.2,29.3,6.2c8.9,0,19.7-2.7,32.3-8.2c12.6-5.5,20.7-8.2,24.2-8.2c6.4,0,11.8,2.2,16.2,6.5
			c4.5,4.4,6.7,9.6,6.7,15.7c0,14-11.3,25-33.9,32.8c-17.2,5.9-34.8,8.8-52.6,8.8c-28.7,0-51.9-8.8-69.7-26.6
			c-17.8-17.7-26.7-40-26.7-66.9c0-25.6,9.2-47.5,27.7-65.7c18.5-18.3,41.3-27.4,68.6-27.4c25.5,0,46.7,8.6,63.7,25.9
			C-12.7,205.3-4.1,225.8-4.1,249.6z M-59.6,236.9c-0.2-7.8-4.1-14.9-11.6-21.2c-7.5-6.4-15.5-9.6-23.9-9.6
			c-8.7,0-16.7,3.2-24.2,9.6s-11.2,13.5-11.2,21.2H-59.6z"/>
		<path id="XMLID_153_" class="st2" d="M159,312.9c0,11.6-8.1,20.8-24.3,27.6c-13,5.5-26.6,8.1-41,8.1c-27.8,0-50.4-9.2-67.8-27.9
			C9.2,303,0.8,281.1,0.8,255.1s8.5-48,25.6-66.1c17-18,39.4-27,67.2-27c16,0,29.8,2.2,41.3,6.5c16,5.9,24,15.1,24,27.5
			c0,6.4-2.1,11.9-6.3,16.7c-4.2,4.8-9.6,7.2-16.2,7.2c-4.5,0-10.9-1.4-19.4-4.1c-8.4-2.7-15.1-4.1-20-4.1c-13.1,0-23.3,4.3-30.6,13
			c-6.8,7.9-10.2,17.9-10.2,30.3c0,11.7,3.1,21.6,9.2,29.6c6.8,9.4,16.3,14,28.5,14c5.4,0,12.8-1.5,22.1-4.4
			c9.4-2.9,16.2-4.4,20.4-4.4c6.1,0,11.4,2.4,15.8,7.2C156.7,302,159,307.3,159,312.9z"/>
		<path id="XMLID_150_" class="st2" d="M339.7,255.2c0,26-8.4,47.9-25.1,65.6c-17.4,18.6-40,27.9-67.8,27.9s-50.4-9.2-67.7-27.9
			c-16.7-17.7-25-39.6-25-65.6s8.3-47.9,25-65.6c17.6-18.4,40.2-27.5,67.7-27.5c27.8,0,50.4,9.1,67.8,27.5
			C331.3,207.3,339.7,229.2,339.7,255.2z M284.3,255.2c0-11.7-3-21.6-9.1-29.6c-6.8-9.1-16.2-13.7-28.4-13.7
			c-12.1,0-21.5,4.5-28.3,13.7c-6.1,8-9.1,17.9-9.1,29.6s3,21.7,9.1,29.9c6.7,9.2,16.2,13.7,28.3,13.7s21.6-4.5,28.4-13.7
			C281.2,277,284.3,266.9,284.3,255.2z"/>
		
			<radialGradient id="XMLID_3_" cx="840.5046" cy="109.5254" r="104.7935" gradientTransform="matrix(1 0 0 1 -392.5547 118.2246)" gradientUnits="userSpaceOnUse">
			<stop  offset="0" style="stop-color:#81C14A"/>
			<stop  offset="1" style="stop-color:#8BC449"/>
		</radialGradient>
		<path id="XMLID_147_" class="st3" d="M357.7,319.9V135.5c0-7.4,2.4-13.5,7.3-18.2c4.8-4.7,11.6-7,20.3-7l62.5-0.3
			c25.9,0.2,47.4,7.5,64.6,21.9c17.2,14.4,25.8,33.4,25.8,56.8c0,23.8-8.7,42.8-25.9,56.8c-17.3,13.9-38.1,21-62.4,21h-39.2v53.6
			c0,8.3-2.5,14.6-7.6,18.9c-5.1,4.4-11.4,6.5-18.9,6.5s-13.9-2.1-18.9-6.5s-7.6-10.6-7.6-18.7L357.7,319.9L357.7,319.9z
			 M410.6,222.7h36c11.1,0.3,19.9-2.9,26.5-9.7c6.6-6.7,9.9-14.9,9.9-24.8c0-9.8-3.3-18.1-9.9-24.8c-6.6-6.6-15.4-10-26.5-10
			l-36-0.3V222.7z"/>
		
			<radialGradient id="XMLID_4_" cx="1019.4047" cy="138.0753" r="90.8756" gradientTransform="matrix(1 0 0 1 -392.5547 118.2246)" gradientUnits="userSpaceOnUse">
			<stop  offset="0" style="stop-color:#81C14A"/>
			<stop  offset="1" style="stop-color:#8BC449"/>
		</radialGradient>
		<path id="XMLID_144_" class="st4" d="M717.4,197.5v117c0,1.7,0,3.5,0,5.3c0,1.7-0.1,3.6-0.4,5.6c-0.7,5-2.7,9.6-5.8,13.8
			c-3.2,4.2-9.2,6.2-18.2,6.2c-7.3,0-12.7-1.7-16.2-5.2c-3.6-3.4-6.2-8.3-8.2-14.4c-6.6,7.2-13.9,12.6-21.9,16.2
			c-8,3.6-16.8,5.5-26.4,5.5c-23.8,0-43.7-8.5-59.8-25.5s-24.2-38.7-24.2-65.2c0-26,8.2-47.9,24.5-65.4s36.2-26.3,59.5-26.3
			c9.4,0,18.5,1.8,27,5.4c8.6,3.6,15.7,9.1,21.3,16.6c0.7-5.8,3.4-10.5,8.2-14.3c4.7-3.8,10.1-5.7,16.2-5.7c8.9,0,15,2.2,18.2,6.4
			c3.2,4.2,5.2,8.9,5.8,14c0.3,2,0.3,3.8,0.3,5.6c0,1.8,0,3.4,0,4.9L717.4,197.5L717.4,197.5z M587.1,256.5c0,1.1,0,2.1,0,3.1
			s0.1,2,0.4,3.1c1,10.3,4.7,19.8,11.1,28.5c6.5,8.8,16.1,13.2,28.7,13.2c12.2,0,21.5-4.4,27.9-13.2c6.4-8.7,10-18.2,10.9-28.5
			c0.2-1.1,0.4-2.1,0.4-3.1s0-1.9,0-2.8c0-1.1-0.1-2.2-0.2-3.4c-0.1-1.2-0.1-2.5-0.1-3.8c-1.2-10.2-5-19.7-11.3-28.2
			c-6.4-8.5-15.5-12.8-27.5-12.8c-12.5,0-21.9,4.3-28.4,12.8s-10.3,17.9-11.5,28.2c0,1.3-0.1,2.6-0.2,3.8c-0.1,1.2-0.2,2.3-0.2,3.4
			L587.1,256.5L587.1,256.5z"/>
		
			<radialGradient id="XMLID_5_" cx="1200.7546" cy="172.7754" r="106.5041" gradientTransform="matrix(1 0 0 1 -392.5547 118.2246)" gradientUnits="userSpaceOnUse">
			<stop  offset="0" style="stop-color:#81C14A"/>
			<stop  offset="1" style="stop-color:#8BC449"/>
		</radialGradient>
		<path id="XMLID_143_" class="st5" d="M724.8,199.2c-0.7-1.6-1.3-3.3-1.6-5.3s-0.5-4.2-0.5-6.6c0-4.9,1.8-9.1,5.5-12.5
			c3.7-3.5,7.8-5.9,12.6-7.2c0.9-0.2,1.9-0.3,2.8-0.5c0.9-0.1,1.9-0.1,2.8-0.1c6.1,0,11.3,1.5,15.7,4.4c4.4,2.9,7.6,7.1,9.7,12.3
			l34.9,88.6l37.5-88.9c2.1-5.1,5.4-9,9.7-12c4.4-3,9.6-4.4,15.7-4.4c1,0,1.9,0.1,2.8,0.1c1,0.1,1.9,0.3,2.9,0.5
			c4.7,1.3,8.9,3.7,12.7,7.2c3.8,3.5,5.7,7.7,5.7,12.5c0,2.4-0.2,4.6-0.6,6.6c-0.4,1.9-1,3.8-2,5.6L806,396.3c-2.1,5-5.1,9.4-9,13.1
			c-3.9,3.7-8.9,5.6-15,5.6c-8.7,0-15.2-2.2-19.7-6.4c-4.4-4.2-6.7-8.9-6.7-13.9c0-0.6,0-1.4,0.2-2.3c0.1-0.9,0.2-1.7,0.2-2.3
			c0.2-1.6,0.7-3.1,1.2-4.6c0.6-1.5,1.1-3.1,1.6-4.6l22.2-51.2L724.8,199.2z"/>
		
			<radialGradient id="XMLID_6_" cx="1361.5548" cy="138.0754" r="84.1017" gradientTransform="matrix(1 0 0 1 -392.5547 118.2246)" gradientUnits="userSpaceOnUse">
			<stop  offset="0" style="stop-color:#81C14A"/>
			<stop  offset="1" style="stop-color:#8BC449"/>
		</radialGradient>
		<path id="XMLID_107_" class="st6" d="M892.5,314.6l79.7-104.3h-58.9c-6.4,0.2-11.7-1.5-16.2-5.1s-6.7-8.7-6.7-15.3
			c0-6.6,2.3-11.6,6.7-15.2c4.5-3.6,9.9-5.4,16.2-5.4l115.4-0.3c0.9,0.2,2,0.4,3.4,0.7c1.3,0.2,2.6,0.5,4.1,1
			c2.4,0.9,4.4,2.4,6.3,4.5s2.8,5.1,2.8,9c0,1.9-0.1,3.6-0.5,5.1c-0.3,1.4-0.7,2.8-1.2,4.1c-0.4,0.6-1,1.4-1.6,2.3s-1.2,1.8-1.9,2.6
			L960,302.2h67.1c6.4,0.3,11.8,2.2,16.2,5.8c4.5,3.6,6.7,8.7,6.7,15.2c0,6.6-2.3,11.6-6.7,15.1c-4.4,3.5-9.8,5.3-16.2,5.3H908.9
			c-5.7,0-10.5-1.3-14.7-3.8c-4.1-2.5-6.2-6.5-6.2-12c0-2,0.3-3.8,0.9-5.6s1.2-3.3,1.9-4.6c0.5-0.4,0.9-0.9,1.1-1.3
			c0.2-0.4,0.4-0.9,0.7-1.3L892.5,314.6L892.5,314.6z"/>
	</g>
</g>
</svg>
