<?xml version="1.0" encoding="utf-8"?>
<!-- Generator: Adobe Illustrator 19.0.0, SVG Export Plug-In . SVG Version: 6.00 Build 0)  -->
<svg version="1.1" xmlns="http://www.w3.org/2000/svg" xmlns:xlink="http://www.w3.org/1999/xlink" x="0px" y="0px"
	 viewBox="-1196 1204 1400 900" style="enable-background:new -1196 1204 1400 900;" xml:space="preserve">
<style type="text/css">
	.st0{fill:url(#XMLID_2_);}
	.st1{fill:#BCBEC0;}
	.st2{fill:#FF3399;}
	.st3{fill:#FFFFFF;}
</style>
<g id="Слой_1">
	<g id="card-form">
		
			<linearGradient id="XMLID_2_" gradientUnits="userSpaceOnUse" x1="-496" y1="-1594.5" x2="-496" y2="-697.5" gradientTransform="matrix(1 0 0 -1 0 508)">
			<stop  offset="0" style="stop-color:#CDCCCC"/>
			<stop  offset="0.6582" style="stop-color:#FFFFFF"/>
		</linearGradient>
		<path id="XMLID_252_" class="st0" d="M-1096,2102.5c-54.3,0-98.5-44.2-98.5-98.5v-700c0-54.3,44.2-98.5,98.5-98.5H104
			c54.3,0,98.5,44.2,98.5,98.5v700c0,54.3-44.2,98.5-98.5,98.5H-1096z"/>
		<path id="XMLID_249_" class="st1" d="M104,1207c25.8,0,50.1,10.1,68.5,28.5s28.5,42.7,28.5,68.5v700c0,25.8-10.1,50.1-28.5,68.5
			S129.8,2101,104,2101h-1200c-25.8,0-50.1-10.1-68.5-28.5s-28.5-42.7-28.5-68.5v-700c0-25.8,10.1-50.1,28.5-68.5
			s42.7-28.5,68.5-28.5H104 M104,1204h-1200c-55,0-100,45-100,100v700c0,55,45,100,100,100H104c55,0,100-45,100-100v-700
			C204,1249,159,1204,104,1204L104,1204z"/>
	</g>
</g>
<g id="neosurf">
	<path id="XMLID_423_" class="st2" d="M-710.2,1423.5c25.7,1.3,51.1,3.6,76.8,4.1c-5.2,5.7-11,11.4-15.4,17.8
		c-2.7,10.4,4.1,18.7,12.5,23.8c13.9,8.3,32.2,10.6,48.1,12.3c59.8,4.2,123.1-4.3,182.5-11.6c108.7-14.3,227.4-38.5,336.9-30.6
		c77,4.6,152.4,27.7,218.7,66.9v384.8h-1287.6v-406.7c64.9-20.1,132.5-32.8,199.1-46.2C-863.2,1422.6-787.1,1419.8-710.2,1423.5z"/>
	<path id="XMLID_425_" class="st3" d="M82.5,1550.9c0.9,16.9-0.3,35.6,0.6,52.8c-10.2,3-23.5-0.6-34.1,1.8
		c-8.8,2.7-12.3,14.7-10.1,22.6c10.9,0.2,22.7-1,33.4,0.5c0.8,16.8,0.3,34.1,0.3,51l-1,2.1c-10.9,0.4-22.7-1-33.4,0.5
		c-0.3,41.5-0.3,83.2,0,124.7l-2.6,0.8c-18.5-0.5-38.6,0.8-56.7-0.7c-0.8-63.1-0.1-128.9-0.4-192.3c-0.1-25.4,15.3-47.9,38.7-57.4
		C38.1,1548,59.5,1551.4,82.5,1550.9z M-1019.9,1562.9c16.1-0.1,29.6,9.4,36.8,23.6c17.3,34.3,36.4,70.9,53.1,104.8l2.5,1.9
		c-0.8-41.2,0.1-82.6-0.5-123.8l1-2.5c19.7-0.3,39.6,0.1,59.3,0.1l0.6,2.6c0,69.5,0,139.2,0,208.8c-0.4,11.8-6.3,22.9-16.5,29
		c-7.7,5.1-18.1,5.4-26.8,2.9c-13.5-4.6-22.2-18.8-29-30.5c-17.9-33.9-35.7-67.8-53.4-101.7c-2-3.2-2.6-8.9-6.9-9.4
		c0.7,45.8,0.7,92.7,0,138.5c-17,1.5-34.4,0.6-51.5,0.6l-1.5-1.9c0.5-70.3,0.1-140.7,0.2-211
		C-1051.9,1577.9-1037.3,1562.4-1019.9,1562.9z M-710.1,1635.2c19.4,10.1,32.5,26.3,43.6,44.8l-0.1,2.5
		c-29.1,20.1-58.7,40.1-88,60.1c-8.3-9.9-15.8-23.4-23-34.5c13.9-10.8,32.1-21,47-31.2l-1.2-2.5c-13.5-6-29.9-6.8-41.7,3.4
		c-21.1,18.5-22.1,53.9-1.3,73.1c9.9,9.5,24.2,12.2,37.1,8c18-5.8,31.5-20,40-36.5l2.2-1c13.3,7.6,27.8,13.6,40.8,21.4l0.4,0.9
		c-17.3,37.9-52.1,66.6-94.7,68.4c-37.5,2.7-73.6-20.5-89.4-54c-11.4-23.4-11.9-52-1.3-75.8c9-20.6,25.4-37.8,45.6-47.7
		C-768.4,1621.2-735.7,1621.7-710.1,1635.2z M-396.3,1629.4c19.6-0.1,39.3-0.1,58.9,0c1.6,15.3,1,32,0.3,47.4
		c-15.7,1.2-32.1,0.1-48,0.5c-4.2,0.3-8.2,2.5-10.2,6.2c-1.7,4.8,4.4,7.9,7.6,10.1c13.4,6.5,27,10.8,39.5,19.6
		c10.1,6.7,18.8,16.7,21.2,28.9c2.4,16.9-0.3,35.2-12.4,48.1c-11.7,12.6-29,17.2-45.7,17.5c-22.6,0-45.2,0-67.8,0l-1.9-1.4
		c0.3-15.7,0.3-31.5,0-47.3l2-1.5c19.7-0.1,39.4,0.2,59-0.1c5.2-0.9,9.5-7.6,4.9-12c-7-6.5-18.2-8.6-26.8-12.8
		c-16.3-6.8-30.2-17.9-35-35.6c-3.4-15.2-3.2-32.6,6.8-45.5C-433.3,1637.1-413.9,1629.4-396.3,1629.4z M-311.4,1629.3
		c18.6,0.1,37.2-0.1,55.8,0.1l0.8,2.3c0.3,33.8,0,67.7,0.1,101.6c0,5.3,1.4,10.4,4.3,14.9c5.4,7.8,16.3,10.5,24.7,6
		c8.9-4.7,11.7-14.3,11.5-23.7c-0.1-33,0.3-66.1-0.2-99l1.3-2.2c18.7,0.4,37.4-0.2,56,0.3c0.3,34.3,0,69.3,0.1,103.7
		c0.1,14.9-3.1,29.5-10.3,42.6c-10.2,19.3-29.8,31.9-51.1,35.1c-20.7,2.5-41.1,1.2-59.3-9.9c-22.9-13.6-33.3-39.2-34.4-65
		c0-34.7,0-69.7,0-104.4L-311.4,1629.3z M-136.6,1629.3c16.7,0.1,33.4-0.1,50.1,0.1c2.3,8.6-0.6,18.6,1,27.4
		c4-4.3,5.3-10.7,9.8-14.8c10.9-11.5,27.3-13.2,42.4-12.4c-0.1,17.9,0.3,36-0.3,53.8c-11.3,0.1-26.2,0.4-35.6,7.4
		c-8.5,6.8-8.5,18.3-9,28.2c0.1,29.1-0.2,58.3,0.2,87.5l-2.3,1.1c-18.7-0.5-38.4,0.6-56.9-0.6c-0.9-57.3-0.1-117.8-0.4-175.5
		L-136.6,1629.3z M-537.4,1626.9c-13.5-3.1-27.6-2.7-41,0.8c-41.6,10.7-73.1,50.9-70.9,94.2c1.2,48.1,43.8,90.3,92.1,90
		c50.1,1.6,94.7-42.8,94.2-92.8C-462.1,1675.5-495,1635.9-537.4,1626.9z M-537.1,1750.6c-15,10-35.6,6.4-46.5-7.8
		c-15.5-18.8-8.8-49,13.4-59.1c14.3-6.1,31.3-2.1,41.1,10C-514.6,1710.8-518.4,1738.3-537.1,1750.6z"/>
</g>
</svg>
