<?xml version="1.0" encoding="utf-8"?>
<!-- Generator: Adobe Illustrator 19.0.0, SVG Export Plug-In . SVG Version: 6.00 Build 0)  -->
<svg version="1.1" id="casino-payments" xmlns="http://www.w3.org/2000/svg" xmlns:xlink="http://www.w3.org/1999/xlink" x="0px"
	 y="0px" viewBox="-299 -200 1400 900" style="enable-background:new -299 -200 1400 900;" xml:space="preserve">
<style type="text/css">
	.st0{fill:#1B477C;}
	.st1{fill:#FF0018;}
	.st2{fill:#FFAA18;}
	.st3{fill:#FFFFFF;}
</style>
<g id="mastercard_1_">
	<path id="card-form_8_" class="st0" d="M1001,700H-199c-55,0-100-45-100-100v-700c0-55,45-100,100-100h1200c55,0,100,45,100,100
		v700C1101,655,1056,700,1001,700z"/>
	<g id="logo" transform="translate(-21.53125,-20.125)">
		<path id="red"  class="st1" d="M171.1-106.8c-210.2,0-380.5,169.4-380.5,378.3
			s170.3,378.3,380.5,378.3c97.1,0,185.7-36.2,253-95.7c5.3-4.7,10.5-9.6,15.6-14.6c1.7-1.7,3.4-3.4,5-5.1h-41.2
			c1.7,1.7,3.3,3.4,5,5.1c-1.7-1.7-3.4-3.4-5-5.1c-7.3-7.5-14.2-15.2-20.8-23.2c-1.5-1.8-2.9-3.6-4.4-5.4c1.4,1.8,2.9,3.6,4.4,5.4
			h82.8c5.9-7.1,11.5-14.4,16.8-22H365.8c2.7,3.8,5.4,7.5,8.2,11.2c-2.8-3.7-5.5-7.4-8.2-11.2c-6.5-9.2-12.6-18.7-18.3-28.5
			c-7.4-12.7-14-25.8-19.9-39.4c-1.6-3.7-3.2-7.5-4.7-11.2c-1.5-3.8-2.9-7.6-4.3-11.4c-2.7-7.6-5.3-15.4-7.5-23.2h226
			c2.1-7.4,4-15,5.7-22.6H305.3c1.3,5.7,2.7,11.4,4.2,17c-1.5-5.6-2.9-11.3-4.2-17c-2.5-11.2-4.5-22.6-5.9-34.2
			c-0.1-1.2-0.3-2.4-0.4-3.6c0.1,1.2,0.3,2.4,0.4,3.6c0.5,3.7,1,7.3,1.5,11h246.2c1.1-7.3,2.1-14.6,2.8-22H298.2
			c-0.7-7.7-1.2-15.4-1.5-23.2c-0.1-2.1-0.1-4.3-0.2-6.4c0-2.1-0.1-4.3-0.1-6.4c0,2.2,0,4.3,0.1,6.4c0,2.1,0.1,4.3,0.2,6.4h254.7
			c0.1-1.9,0.1-3.8,0.2-5.8c0-0.2,0-0.5,0-0.7c0-0.1,0-0.2,0-0.2c0-2.1,0.1-4.1,0.1-6.2c0-3.5-0.1-7-0.2-10.5
			c-0.4-12.9-1.4-25.7-3-38.2H299.7c-1,8-1.8,16-2.4,24.1c-0.1,2-0.2,4.1-0.3,6.1c-0.1,1.7-0.2,3.4-0.2,5.1c0.1-1.7,0.1-3.4,0.2-5.1
			c0.1-2,0.2-4.1,0.3-6.1c1.5-24,5.4-47.4,11.2-70c2-7.9,4.3-15.6,6.8-23.2c0.6-1.8,1.2-3.6,1.8-5.4c0.6-1.8,1.3-3.6,1.9-5.3
			c-0.6,1.8-1.3,3.5-1.9,5.3s-1.2,3.6-1.8,5.4h217.5c-2.4-7.2-4.9-14.3-7.7-21.4h-202c-0.7,1.8-1.4,3.5-2,5.3c0.7-1.8,1.3-3.5,2-5.3
			c3.1-7.9,6.5-15.6,10.2-23.2c1-2.1,2-4.2,3.1-6.2c1-2.1,2.1-4.1,3.2-6.2c-1.1,2-2.1,4.1-3.2,6.2c-1,2.1-2.1,4.1-3.1,6.2h181.6
			c-1.4-2.8-2.8-5.6-4.2-8.4c-0.7-1.3-1.3-2.6-2-3.9c-0.2-0.3-0.4-0.7-0.5-1c-0.2-0.4-0.4-0.8-0.6-1.2c-1-1.9-2-3.8-3.1-5.7
			c-0.8-1.4-1.6-2.9-2.4-4.3H346.1c4.5-7.9,9.4-15.7,14.5-23.2c1.2-1.8,2.4-3.5,3.6-5.3c1.2-1.7,2.5-3.5,3.7-5.2
			c2.5-3.5,5-6.9,7.6-10.2c6.2-8,12.7-15.7,19.5-23.2H453c-2.3-2.5-4.6-5-7-7.4c-7-7.3-14.4-14.3-22-21.1
			C356.8-70.6,268.2-106.8,171.1-106.8z M375.6,40.7c-2.6,3.4-5.1,6.8-7.6,10.2c-1.2,1.7-2.5,3.5-3.7,5.2c-1.2,1.8-2.4,3.5-3.6,5.3
			h126.9c-4.8-7.1-9.8-14-15-20.7H375.6z M308.5,177c-1.9,7.4-3.6,15-5.1,22.6h241.3c-1.5-7.6-3.2-15.2-5.1-22.6H308.5z
			 M318.6,398.8c1.4,3.8,2.8,7.6,4.3,11.4c1.5,3.8,3.1,7.5,4.7,11.2h193.1c3.2-7.4,6.2-15,9-22.6H318.6z M347.5,460.8
			c1,1.8,2.1,3.5,3.1,5.3h146.9c4.2-7,8.2-14.1,12-21.4H338.6C341.5,450.1,344.4,455.5,347.5,460.8z M458.5,23.7
			c0.9,1.1,1.8,2.1,2.7,3.2C460.4,25.8,459.5,24.7,458.5,23.7z M491,66.6c0.7,1.1,1.5,2.3,2.2,3.4C492.5,68.9,491.8,67.8,491,66.6z
			 M496.3,75c0.7,1.1,1.3,2.2,2,3.3C497.6,77.2,497,76.1,496.3,75z M517.2,114.1c0.7,1.5,1.4,3,2,4.5
			C518.6,117.1,517.9,115.6,517.2,114.1z M506.1,451.1c-0.4,0.8-0.9,1.6-1.4,2.4C505.2,452.7,505.7,451.9,506.1,451.1z M493,473.4
			c-0.7,1-1.3,2.1-2,3.1C491.7,475.5,492.3,474.4,493,473.4z M461.3,516.3c-0.9,1.1-1.8,2.1-2.7,3.2
			C459.5,518.4,460.4,517.4,461.3,516.3z M455.3,523.1c-1.1,1.2-2.2,2.4-3.3,3.6C453.1,525.6,454.2,524.3,455.3,523.1z M447.8,531.2
			c-0.8,0.9-1.7,1.7-2.5,2.6C446.1,533,447,532.1,447.8,531.2z" />
		<path id="orange"  class="st2" d="M677.1-106.8c-97.1,0-185.7,36.2-253,95.7
			c10.1,9,19.8,18.5,28.9,28.5h-57.9c-6.8,7.5-13.3,15.2-19.5,23.2h96.9c5.2,6.7,10.2,13.7,15,20.7H360.6
			c-5.1,7.6-9.9,15.3-14.5,23.2H502c4.6,8,8.9,16.2,12.9,24.5H333.3c-3.6,7.6-7.1,15.4-10.2,23.2h202c2.8,7,5.3,14.1,7.7,21.4H315.3
			c-4.9,14.9-8.9,30.2-11.9,45.8c1.5-7.6,3.2-15.1,5.1-22.6h231.1c1.9,7.4,3.6,15,5.1,22.6H303.4c-1.9,9.6-3.4,19.4-4.5,29.2
			c0.2-2,0.5-4,0.7-6h248.8c2.1,15.9,3.2,32.2,3.2,48.7c0,4.3-0.1,8.6-0.2,12.9H296.7c0.3,7.8,0.8,15.5,1.5,23.2H550
			c-0.7,7.4-1.7,14.7-2.8,22H301c1.2,7.8,2.7,15.6,4.4,23.2h237.5c-1.7,7.6-3.6,15.2-5.7,22.6h-226c2.3,7.9,4.8,15.6,7.5,23.2h211
			c-2.8,7.7-5.7,15.2-9,22.6H327.5c6.7,15.4,14.4,30.3,23.1,44.6c-4.2-7-8.2-14.1-12-21.4h170.9c-3.8,7.3-7.8,14.4-12,21.4H350.6
			c4.8,7.9,9.9,15.7,15.2,23.2h116.5c-5.3,7.5-11,14.9-16.8,22h-82.8c6.6,8,13.6,15.8,20.8,23.2h41.2c-6.6,6.8-13.5,13.4-20.6,19.7
			c67.2,59.5,155.9,95.7,253,95.7c210.2,0,380.5-169.4,380.5-378.3S887.2-106.8,677.1-106.8z M365.8,489.3c1.3,1.9,2.7,3.7,4.1,5.6
			C368.5,493,367.2,491.1,365.8,489.3z M327.5,421.4c-3.2-7.4-6.2-15-9-22.6C321.3,406.4,324.3,414,327.5,421.4z M296.7,284.5
			c-0.1-2.1-0.1-4.3-0.2-6.4C296.6,280.2,296.7,282.3,296.7,284.5z M296.6,278c0-2.1-0.1-4.3-0.1-6.4
			C296.5,273.7,296.5,275.9,296.6,278z M298.9,228.8c-0.5,4-0.8,8-1.2,12.1C298.1,236.9,298.5,232.9,298.9,228.8z M297.8,240.9
			c-0.1,1.6-0.2,3.1-0.3,4.7C297.5,244,297.6,242.5,297.8,240.9z M315.3,153.8c0.6-1.8,1.2-3.6,1.8-5.4
			C316.5,150.2,315.9,152,315.3,153.8z M323.1,132.4c-0.6,1.4-1.1,2.9-1.7,4.3C322,135.3,322.5,133.8,323.1,132.4z M360.6,61.4
			c1.2-1.8,2.4-3.5,3.6-5.3C363,57.9,361.8,59.6,360.6,61.4z M364.2,56.1c1.2-1.8,2.5-3.5,3.7-5.2C366.7,52.6,365.5,54.4,364.2,56.1
			z M339.5,96.8c-1,1.9-1.9,3.7-2.9,5.6C337.6,100.5,338.5,98.6,339.5,96.8z M320.8,138.4c-0.6,1.5-1.1,3.1-1.7,4.6
			C319.6,141.5,320.2,140,320.8,138.4z M297,253.1c-0.1,1.9-0.2,3.9-0.3,5.8C296.8,257,296.9,255,297,253.1z M299.4,318.7
			c0.1,1.2,0.3,2.3,0.5,3.5C299.7,321.1,299.6,319.9,299.4,318.7z M305.4,353.1c0.4,1.8,0.8,3.7,1.3,5.5
			C306.2,356.8,305.8,355,305.4,353.1z M308,364.3c0.5,1.8,0.9,3.6,1.4,5.4C309,367.9,308.5,366.1,308,364.3z M403.9,534.9
			c1.5,1.5,3,3.1,4.6,4.6C406.9,538,405.4,536.5,403.9,534.9z"/>
	</g>
	<g>
		<path class="st3" d="M275.2,244h21l5.1-32h-19.8l4-19.9h-39.8c-0.9,0.7-23.5,111.7-23.5,125.3c0,20,13.2,28.9,31.7,28.8
			c14.5-0.1,25.8-3.5,29.8-4.5l5-28.9c-2.7,0-6.7,1-10.3,1c-13.8,0-15.4-6.3-14.5-10.9L275.2,244z"/>
		<path class="st3" d="M417.5,288.9c0,0,5.2-22,5.2-31c0-22.4-13-49.7-56.7-49.7c-40,0-69.6,36.8-69.6,78.4
			c0,48,37.1,59.4,68.7,59.4c29.2,0,42-5.6,42-5.6l7-32.8c0,0-22.2,8.4-42.2,8.4c-42.7,0-35.2-27.2-35.2-27.2H417.5z M366.1,238.7
			c22.5,0,18.3,21.6,18.3,23.3h-44.2C340.2,259.7,344.4,238.7,366.1,238.7z"/>
		<path class="st3" d="M552.7,274.9c0-40.1,24.3-62.2,51.3-62.2c20.3,0,36.5,9.7,36.5,9.7l6.5-36c0,0-24.1-8.3-44.8-8.3
			c-45.9,0-90.6,34-90.6,97.9c0,42.4,24.1,70.4,71.6,70.4c13.4,0,34.8-4.7,34.8-4.7h0l7.1-37c0,0-19.5,8.4-32.9,8.4
			C564,313,552.7,294.6,552.7,274.9z"/>
		<path class="st3" d="M64.9,208.8c-27.3,0-48.2,7.5-48.2,7.5L11,245.5c0,0,17.3-6,43.3-6c14.8,0,25.7,1.4,25.7,11.7
			c0,6.2-1.3,8.6-1.3,8.6S67,259,61.6,259C27.1,259-9,271.5-9,309.3c0,29.8,23.7,36.6,38.4,36.6c28.1,0,40.2-15.6,40.8-15.6l-1.3,13
			h35l15.6-93.6C119.6,210,79,208.8,64.9,208.8z M45.3,317.5c-12.4,0-15.6-8.1-15.6-12.8c0-9.3,5.9-20.5,35.1-20.5
			c6.8,0,7.5,0.6,8.6,0.8v0C74.2,290.7,69.3,317.5,45.3,317.5z"/>
		<path class="st3" d="M191.4,240.1c5.6,0,27.2,1.5,27.2,1.5l5-30c0,0-14-2.7-36.7-2.7c-29.4,0-59.3,10-59.3,44.4
			c0,38.9,49.8,35,49.8,51.4c0,10.9-13.9,11.8-24.6,11.8c-18.6,0-35.3-5.4-35.3-5.2l-5.3,29.7c1,0.3,11.3,4.2,44.6,4.2l0,0
			c9,0,60.2,1.9,60.2-43.2c0-42.2-47.4-33.9-47.4-50.8C169.6,242.8,177.3,240.1,191.4,240.1z"/>
		<path class="st3" d="M947.5,181.8l-8.6,45.5c0,0-15-17.7-38.4-17.7c-36.5,0-66.8,37.5-66.8,80.7c0,27.8,16.2,55.1,49.3,55.1
			c23.8,0,37-14.2,37-14.2l-1.8,12.1H957l30.4-161.6L947.5,181.8z M897.1,312.4c-14.3,0-21-10.3-21-26.4c0-26.3,13.9-43.7,31.3-43.7
			c14.3,0,21.7,8.4,21.7,28.2C929.1,288.5,918.7,312.4,897.1,312.4z"/>
		<polygon class="st3" points="-57.7,181.7 -96.9,281 -99,181.7 -157,181.7 -188.8,343.5 -150.5,343.5 -150.5,343.5 -126.2,221.5 
			-122.7,343.5 -95.3,343.5 -44.2,221.5 -66.8,343.5 -26.1,343.5 5.3,181.7 		"/>
		<path class="st3" d="M510.9,210.3c-17.8,0-31,20.8-31,20.8l3.5-19.1h-37l-24.8,131.7h40.9c11.6-56.3,13.7-101.9,41.4-93.6
			c4.8-21.8,9.5-30.2,14.8-39.4C518.6,210.8,516.1,210.3,510.9,210.3z"/>
		<path class="st3" d="M709.8,208.8L709.8,208.8c-27.3,0-48.2,7.5-48.2,7.5l-5.8,29.3c0,0,17.3-6,43.3-6c14.8,0,25.6,1.4,25.6,11.7
			c0,6.2-1.3,8.6-1.3,8.6s-11.7-0.8-17.1-0.8c-34.4,0-70.5,12.5-70.5,50.4c0,29.8,23.7,36.6,38.4,36.6c28.1,0,40.2-15.6,40.8-15.6
			l-1.3,13c0,0,35,0,35,0l15.6-93.6C764.4,210,723.9,208.8,709.8,208.8z M690.2,317.5c-12.4,0-15.6-8.1-15.6-12.8
			c0-9.3,5.9-20.5,35.1-20.5c6.8,0,7.5,0.6,8.7,0.8v0C719.1,290.7,714.1,317.5,690.2,317.5z"/>
		<path class="st3" d="M852.6,210.8c0,0-2.5-0.4-7.7-0.4c-17.8,0-31,20.8-31,20.8l3.5-19.1h-37l-24.8,131.7h40.8
			c11.6-56.3,13.7-101.9,41.4-93.6C842.7,228.4,847.3,220,852.6,210.8z"/>
	</g>
</g>
</svg>
