<?xml version="1.0" encoding="utf-8"?>
<!-- Generator: Adobe Illustrator 19.0.0, SVG Export Plug-In . SVG Version: 6.00 Build 0)  -->
<svg version="1.1" id="casino-payments" xmlns="http://www.w3.org/2000/svg" xmlns:xlink="http://www.w3.org/1999/xlink" x="0px"
	 y="0px" viewBox="-598 101 1400 900" style="enable-background:new -598 101 1400 900;" xml:space="preserve">
<style type="text/css">
	.st0{fill:url(#card-form_2_);}
	.st1{fill:#173F71;}
	.st2{fill:#606263;}
</style>
<linearGradient id="card-form_2_" gradientUnits="userSpaceOnUse" x1="102" y1="2001" x2="102" y2="1101" gradientTransform="matrix(1 0 0 1 0 -1000)">
	<stop  offset="0" style="stop-color:#CDCCCC"/>
	<stop  offset="0.6582" style="stop-color:#FFFFFF"/>
</linearGradient>
<path id="card-form_1_" class="st0" d="M702,1001H-498c-55,0-100-45-100-100V201c0-55,45-100,100-100H702c55,0,100,45,100,100v700
	C802,956,757,1001,702,1001z"/>
<g id="payforit">
	<path id="XMLID_1596_" class="st1" d="M430.7,467.9c-35.4,0-65.9,19.8-81.9,48.7c-15.9-28.9-46.4-48.7-81.9-48.7
		c-14.9,0-28.6,3.9-41.3,9.7h-58.5c6.2-14.9,20.8-25.7,37.7-25.7h12.7v-53.3H205c-52,0-93.9,42.2-93.9,93.9v163.1h53.3V531.5h14
		c-3.2,9.4-5.5,19.5-5.5,30.2c0,52,42.2,93.9,93.9,93.9c27.9,0,52.6-12.3,69.8-31.8v31.8h53.3v-93.9c0-22.4,18.2-40.9,40.9-40.9H447
		v-53.3L430.7,467.9L430.7,467.9z M266.7,602.7c-22.4,0-40.9-18.2-40.9-40.9c0-22.4,18.2-40.9,40.9-40.9c22.4,0,40.9,18.2,40.9,40.9
		C307.6,584.5,289.1,602.7,266.7,602.7z"/>
	<path id="XMLID_6_" class="st2" d="M573.3,883.9H-454.1c-44.8,0-81.2-36.4-81.2-81.2V307.1c0-44.8,36.4-81.2,81.2-81.2H675.6
		c44.8,0,81.2,36.4,81.2,81.2v422.7L573.3,883.9z M-454.1,235c-39.8,0-72.1,32.4-72.1,72.1v495.7c0,39.8,32.4,72.1,72.1,72.1H570
		l177.7-149.3V307.1c0-39.8-32.4-72.1-72.1-72.1H-454.1z M98.7,732.6h-9.1c0,38.5-31.3,69.9-69.9,69.9h-414.1
		c-38.5,0-69.9-31.3-69.9-69.9V376.3c0-38.5,31.3-69.9,69.9-69.9H19.5c38.5,0,69.9,31.3,69.9,69.9v31.2h9.1v-31.2
		c0-43.5-35.4-78.9-78.9-78.9h-413.8c-43.5,0-78.9,35.4-78.9,78.9v356.3c0,43.5,35.4,78.9,78.9,78.9H19.8
		C63.3,811.5,98.7,776.1,98.7,732.6z M27.6,460.7v93.5c0,20.5-16.6,37-37,37s-37-16.6-37-37v-93.5H-103v45.1
		c-16.3-27-46.1-45.1-80.2-45.1c-35.4,0-66.1,19.6-82,48.6c-15.9-29-46.7-48.6-82-48.6c-51.6,0-93.5,41.9-93.5,93.5
		c0,1.3,0.3,2.3,0.3,3.6h-0.3v155.3h56.5v-72.8c11.4,4.9,23.7,7.8,37,7.8c35.4,0,66.2-19.7,82.1-48.7c15.9,28.8,46.7,48.4,81.9,48.4
		c13,0,25.7-2.9,37-7.8v7.8h56.5v-45.4c16.4,27.2,46.2,45.4,80.2,45.4c13,0,25.7-2.9,37-7.8v73.1h56.5V554.3v-93.5H27.6z
		 M-347.2,591.3c-20.5,0-37-16.6-37-37s16.6-37,37-37s37,16.6,37,37S-326.7,591.3-347.2,591.3z M-183.2,591.3c-20.5,0-37-16.6-37-37
		s16.6-37,37-37s37,16.6,37,37S-162.7,591.3-183.2,591.3z M695.4,507.8h-75.4v148.1h-43.8V507.8h-65.6v148.1h-43.8V507.8v-40h43.8
		h65.6h43.8h75.4V507.8z M637,310.7h-11v-3.9h26.6v3.9h-11v31.8H637V310.7z M687,326.9c-0.3-4.9-0.6-11-0.6-15.6l0,0
		c-1.3,4.2-2.6,8.8-4.5,13.6l-6.2,17.2H672l-5.8-16.9c-1.6-5.2-3.2-9.7-4.2-14l0,0c0,4.5-0.3,10.4-0.6,15.9l-1,15.3h-4.5l2.6-35.7
		h5.8l6.2,17.2c1.6,4.5,2.6,8.4,3.6,12l0,0c1-3.6,2.3-7.5,3.9-12l6.5-17.2h5.8l2.3,35.7H688L687,326.9z M679.2,652.1
		c-2.9,0-4.9-1.9-4.9-4.5c0-2.6,1.9-4.5,4.9-4.5s4.9,1.9,4.9,4.5C684.4,650.1,682.1,652.1,679.2,652.1z M664.3,600.1
		c14,0,20.1,9.7,20.1,18.8c0,10.1-7.5,18.2-19.5,18.2c-12.7,0-20.1-8.4-20.1-18.8C644.8,607.2,652.6,600.1,664.3,600.1z M664.6,630
		c8.1,0,14.6-4.9,14.6-11.4s-6.2-11.4-14.6-11.4c-6.5,0-14.6,3.2-14.6,11.4C650,626.4,657.4,630,664.6,630z M657.4,591.3
		c-4.5,0-8.1,0-11.7,0.3v-5.8l7.5-0.3v-0.3c-5.2-1.6-8.1-5.8-8.1-10.4c0-0.6,0-1.3,0.3-1.9h6.5c0,0.6-0.3,1.3-0.3,2.3
		c0,4.9,3.6,8.4,8.8,9.1c1,0,1.9,0.3,3.2,0.3h20.1v6.8L657.4,591.3L657.4,591.3z M645.7,533.8c2.6,0,5.8,0.3,10.4,0.3h22.1
		c8.8,0,14,1.6,17.2,5.5c3.6,3.6,4.5,9.1,4.5,13.6c0,4.5-1,9.4-3.2,12.7l-5.2-1.6c1.6-2.6,2.9-6.5,2.9-11c0-7.1-3.6-12-13.3-12h-4.2
		l0,0c3.6,1.9,6.2,6.2,6.2,12c0,9.4-7.8,15.9-18.5,15.9c-12.7,0-20.1-8.4-20.1-16.9c0-6.5,3.6-10.1,6.5-11.7l0,0l-5.8-0.3v-6.5
		L645.7,533.8L645.7,533.8z M660.7,541c-1.3,0-2.3,0-3.2,0.3c-3.9,1.3-7.1,4.5-7.1,9.7c0,6.5,5.5,11.4,14.3,11.4
		c7.5,0,13.6-3.6,13.6-11c0-4.2-2.6-8.1-7.1-9.4c-1.3-0.3-2.6-0.6-3.6-0.6h-6.8L660.7,541L660.7,541z"/>
</g>
</svg>
