<?xml version="1.0" encoding="utf-8"?>
<!-- Generator: Adobe Illustrator 19.0.0, SVG Export Plug-In . SVG Version: 6.00 Build 0)  -->
<svg version="1.1" xmlns="http://www.w3.org/2000/svg" xmlns:xlink="http://www.w3.org/1999/xlink" x="0px" y="0px"
	 viewBox="-598 101 1400 900" style="enable-background:new -598 101 1400 900;" xml:space="preserve">
<style type="text/css">
	.st0{fill:url(#card-form_2_);}
	.st1{fill:#4B4B4A;}
	.st2{fill:#79B643;}
</style>
<g id="casino-payments">
	
		<linearGradient id="card-form_2_" gradientUnits="userSpaceOnUse" x1="102" y1="2001" x2="102" y2="1101" gradientTransform="matrix(1 0 0 1 0 -1000)">
		<stop  offset="0" style="stop-color:#CDCCCC"/>
		<stop  offset="0.6582" style="stop-color:#FFFFFF"/>
	</linearGradient>
	<path id="card-form_1_" class="st0" d="M702,1001H-498c-55,0-100-45-100-100V201c0-55,45-100,100-100H702c55,0,100,45,100,100v700
		C802,956,757,1001,702,1001z"/>
</g>
<g id="paybyphone">
	<path id="XMLID_1457_" class="st1" d="M63.6,507.8c-27.9,0-42.4-14.2-42.4-18.1v62.3h-33.8V369.7H19l0.5,18.8
		c1.4-1.9,15.9-21.1,47.6-21.1c27.4,0,61.8,19,61.8,70.7C128.9,472.7,106.3,507.8,63.6,507.8 M57.8,395.3
		c-21.1,0-37.8,16.7-37.8,43.3c0,26,16.1,42.2,37.5,42.2c22.2,0,37.2-17.3,37.2-41.9C94.8,411.2,79.7,395.3,57.8,395.3 M233.3,504.8
		l-0.8-15.3c-3.6,4.1-16.4,17.8-43.3,17.8c-24.1,0-46.3-13-46.3-41.7c0-12.6,4.4-20.2,10.7-26.5c13.4-13.4,31.2-15.3,46.8-15.3h30.2
		v-3.5c0-19.4-12.1-26-28.5-26c-21.1,0-35.2,14.8-37.1,16.7l-17.5-18.6c1.1-1.4,19.2-24.1,56.7-24.1c20.3,0,35.3,5.2,45.1,15
		c13.4,13.4,15,29.6,15,51.7v69.8H233.3L233.3,504.8z M212,444c-14.8,0-36.9,0.4-36.9,20.4c0,12.3,9.6,18.1,21.6,18.1
		c12,0,19.7-3.8,25.2-9c6-5.5,8.8-12.6,8.8-20.5V444L212,444L212,444z M353,519.1c-7.1,17.5-19.4,38.6-50.4,38.6
		c-13.2,0-21.6-3.7-24.9-5.9l9.3-23.6c2.5,1.1,7.4,2.8,12.6,2.8c11.8,0,17.2-5.7,21.9-15c0.8-1.7,4.9-12.8,5.8-14.7l-56.1-131.6h35
		l37.5,93.1l37.5-93.1h33.9L353,519.1L353,519.1z"/>
	<path id="XMLID_1453_" class="st2" d="M507.1,507.6c-29.8,0-43-17-44.4-18.9l-0.8,16.1h-28.6V315.6h33.8V389
		c0-2.2,14.8-20.8,45.5-20.8c27.1,0,60.7,18.6,60.7,70.1C573.2,473.1,549.8,507.6,507.1,507.6 M501.6,395.6
		c-21.1,0-37.8,16.1-37.8,43c0,26,16.2,42.2,37.5,42.2c21.9,0,37.2-17,37.2-42.2C538.6,411.2,523.6,395.6,501.6,395.6 M659.4,519.1
		c-7.1,17.5-19.5,38.6-50.4,38.6c-13.1,0-21.6-3.7-24.9-5.9l9.3-23.6c2.5,1.1,7.4,2.8,12.6,2.8c11.8,0,17.3-5.7,21.9-15
		c0.8-1.7,4.9-12.8,5.7-14.7l-56.1-131.6h35l37.5,93.1l37.5-93.1h33.9L659.4,519.1L659.4,519.1z"/>
	<path id="XMLID_1444_" class="st1" d="M63.6,749.4c-27.9,0-42.4-14.2-42.4-18.1v63.9h-33.8V612.9H19l0.5,18
		c1.4-1.9,15.9-21.5,47.6-21.5c27.4,0,61.8,18.8,61.8,70.6C128.9,714.4,106.3,749.4,63.6,749.4 M57.8,636.9
		c-21.1,0-37.8,16.7-37.8,43.3c0,26,16.1,42.2,37.5,42.2c22.2,0,37.2-17.2,37.2-41.9C94.8,652.8,79.7,636.9,57.8,636.9 M237.4,748
		v-76.3c0-11.5,0.8-21.4-6.3-27.1c-4.1-3.8-9-6.3-18.3-6.3c-6.8,0-14.7,2.5-21,8.8c-9,9-8.4,23.6-8.4,39.4V748h-33.8V558.8h33.8V629
		c6.8-5.5,17-19.2,42-19.2c12.9,0,23.8,3.3,34.4,14c11.2,11.5,11.4,27.6,11.4,42.4V748L237.4,748z M364.7,749.4
		c-50.1,0-72-36.4-72-69.8c0-33.4,21.9-69.8,72-69.8c49.8,0,71.7,36.4,71.7,69.8C436.5,713,414.6,749.4,364.7,749.4 M390.7,646.8
		c-6.3-6.3-15-9.9-26-9.9c-11.2,0-20,3.6-26,9.9c-7.4,7.7-12.1,18.9-12.1,32.9c0,14,4.7,25.2,12.1,32.8c6,6.3,15,9.9,26,9.9
		c10.9,0,19.7-3.5,26-9.8c7.4-7.7,11.8-18.9,11.8-32.8C402.5,665.4,398.1,654.1,390.7,646.8 M548.2,748v-76.3
		c0-11.5-0.7-21.4-7.8-27.1c-4.1-3.8-9.8-6.3-19.1-6.3c-6.8,0-16.9,2.5-23.2,8.8c-9,9-10.7,23.6-10.7,39.4V748h-27V612.9h28.2
		l0.5,17.2c1.4-1.6,15-20.7,43.8-20.7c12.9,0,25.2,3.5,35.9,14.1c11.2,11.5,13.2,27.8,13.2,42.6V748L548.2,748L548.2,748z
		 M634.1,687.2c0,20.3,10.7,34.8,36.7,34.8c22.7,0,35.9-12.4,39.7-16.5l18.3,17.3c-8.8,10.1-27.1,26.4-59.1,26.4
		c-47.1,0-69.3-32.2-69.3-69.2c0-36.4,23-70.3,68.7-70.3c11.8,0,29.6,1.1,43.8,15.3c17.5,17.5,19.7,41.9,19.7,62.1L634.1,687.2
		L634.1,687.2z M668.4,635.2c-26,0-33.7,25-33.7,31.7h65.7C700.4,660.2,693.6,635.2,668.4,635.2"/>
	<path id="XMLID_1434_" class="st2" d="M-503.1,338c0,0-35.3-0.1-35.3,35.3v49.1c0,0,0,35.1,35.3,35.1h49.4c0,0,35.8,0.6,35.8-34.8
		v-49.4c0,0-0.3-35.3-35.5-35.3L-503.1,338z M-503.1,484.5c0,0-35.3,1.4-35.3,36.7v49.5c0,0,0,35.4,35.3,35.4h49.4
		c0,0,35.3,0.6,35.3-34.7v-50.5c0,0,0-36.4-35.3-36.4L-503.1,484.5L-503.1,484.5z M-503.1,636.6c0,0-35.3,0-35.3,35.4v49.4
		c0,0,0,35.3,35.3,35.3h49.4c0,0,35.3,0,35.3-35.3l0-49.4c0,0,0-35.3-35.3-35.4L-503.1,636.6z M-353.8,335.9c0,0-37.1,2.1-37.1,37.4
		v49.5c0,0,0.9,35.3,36.2,35.3l49.8,0c0,0,35.6,0,35.6-35.4v-49.4c0,0,0.2-37.4-35.1-37.4H-353.8z M-354.7,487.4
		c0,0-36.2,0-36.2,35.3v49.4c0,0,0.9,35.3,36.2,35.3h49.9c0,0,35.5,0,35.5-35.3l0.1-49.4c0,0-0.4-35.3-35.7-35.3L-354.7,487.4
		L-354.7,487.4z M-353.8,636.6c0,0-35.3,0-35.3,35.4l0,48.4c0,0,0,34.4,35.3,34.4h49.4c0,0,35.3,0.9,35.3-34.4v-48.9
		c0,0,0-35.1-35.3-35.1L-353.8,636.6L-353.8,636.6z M-204.4,338c0,0-35.3,0-35.3,35.3v49.5c0,0,0,35.3,35.3,35.3l49.4,0
		c0,0,35.3,0,35.3-35.3v-49.4c0,0,0-35.3-35.3-35.3H-204.4z M-204.4,487.3c0,0-35.3,0-35.3,35.3l0,48.8c0,0,0,34.7,35.3,34.7h49.4
		c0,0,35.3,0.6,35.3-34.7v-49.1c0,0,0-35.1-35.3-35.1L-204.4,487.3L-204.4,487.3z M-204.4,636.6c0,0-35.3,0-35.3,35.4l0,49.4
		c0,0,0,35.3,35.3,35.3l49.4,0c0,0,35.3,0,35.3-35.3l0-49.4c0,0,0-35.4-35.3-35.4L-204.4,636.6L-204.4,636.6z"/>
	<path id="XMLID_1429_" class="st1" d="M741.9,608.5c-11.5,0-20.8-9.3-20.8-20.8c0.4-11.5,10-20.5,21.4-20.1
		c11,0.3,19.8,9.2,20.1,20.1C762.7,599.2,753.4,608.5,741.9,608.5 M741.9,571.8c-8.8,0-16,7.2-16,16c0,8.8,7.2,16,16,16
		s16-7.2,16-16C757.9,579,750.8,571.8,741.9,571.8 M746.8,599.4l-4.7-6.8h-4.8v6.8v-20.3h4.4c2.1,0,4.7-1.3,6.5,0.1
		c1.7,1.3,2.4,2.7,2.4,4.5c0,2.5-1.7,5.8-4.2,6.2l5.2,9.5H746.8L746.8,599.4z M745.5,580.9c-0.9-0.5-2.7-0.5-4-0.5H739v5.6h2.5
		c3.1,0,4.9-0.5,4.9-2.7C746.4,582,746,581.2,745.5,580.9"/>
</g>
</svg>
