<?xml version="1.0" encoding="utf-8"?>
<!-- Generator: Adobe Illustrator 19.0.0, SVG Export Plug-In . SVG Version: 6.00 Build 0)  -->
<svg version="1.1" id="casino-payments" xmlns="http://www.w3.org/2000/svg" xmlns:xlink="http://www.w3.org/1999/xlink" x="0px"
	 y="0px" viewBox="-299 -200 1400 900" style="enable-background:new -299 -200 1400 900;" xml:space="preserve">
<style type="text/css">
	.st0{fill:url(#card-form_1_);}
	.st1{fill:#010101;}
	.st2{fill:none;}
	.st3{fill:#CB226A;}
</style>
<g id="ideal_1_">
	
		<linearGradient id="card-form_1_" gradientUnits="userSpaceOnUse" x1="401" y1="-200" x2="401" y2="700" gradientTransform="matrix(1 0 0 -1 0 500)">
		<stop  offset="0" style="stop-color:#CDCCCC"/>
		<stop  offset="0.6582" style="stop-color:#FFFFFF"/>
	</linearGradient>
	<path id="card-form_4_" class="st0" d="M1001,700H-199c-55,0-100-45-100-100v-700c0-55,45-100,100-100h1200c55,0,100,45,100,100
		v700C1101,655,1056,700,1001,700z"/>
	<g id="ideal">
		<g id="Layer_2">
			<path id="XMLID_168_" class="st1" d="M469.4-147.9H-55.4V648h524.8v-0.2c114.6-1.5,205.4-30.1,269.9-84.9
				c78.4-66.8,118.1-172,118.1-312.9c0-67.4-10.4-127.8-31.1-179.6c-19.8-49.5-48.9-91.7-86.7-125.2c-66.4-59-159.8-91.1-270.3-92.9
				C469.4-147.8,469.4-147.9,469.4-147.9z M459.4-95.1c101.6,0,186.5,27.5,245.1,79.7c66.3,58.9,100,148.2,100,265.3
				C804.5,482,691.7,595,459.4,595c-18,0-415.6,0-462,0c0-47.4,0-642.7,0-690.2C43.8-95.1,441.5-95.1,459.4-95.1z"/>
			<rect id="XMLID_167_" x="46.1" y="300" class="st1" width="146.3" height="242.8"/>
			<path id="XMLID_166_" class="st1" d="M203.3,178.6c0,45.8-37,82.8-82.8,82.8s-82.8-37.2-82.8-82.8c0-45.8,37-82.8,82.8-82.8
				S203.3,133,203.3,178.6z"/>
		</g>
		<g id="Layer_3">
			<g id="XMLID_158_">
				<path id="XMLID_165_" class="st2" d="M259.2,228.4c0.2,0,0.3,0,0.3,0v-83.7c-0.2,0-0.3,0-0.3,0
					C259.2,151.2,259.2,221.8,259.2,228.4z"/>
				<path id="XMLID_161_" class="st3" d="M655,114.8h35.5c0,0,0,106.5,0,113.6c5.7,0,52,0,65.5,0c-13.4-203.1-170.5-259-318.5-259
					h-178v144.4h19c11.9,0,20.8,0.9,27.3,2.7c8.8,2.6,16.3,7.2,22.5,13.7s10.9,14.5,14,23.7s4.7,20.5,4.7,33.8
					c0,11.8-1.5,22-4.4,30.7c-3.6,10.6-8.9,19.3-15.7,25.8c-5.3,5.1-12.4,9.1-21.1,11.9c-6.5,2.1-15.1,3.2-25.8,3.2h-20.5v283.9
					h178.1c154.2,0,318.4-46.4,319.4-283.9H655V114.8z M483.5,259.4H371.1V113.8h109.8v31c0,0-67.5,0-74.3,0c0,5,0,18,0,23
					c6.8,0,69.2,0,69.2,0v31c0,0-62.4,0-69.2,0c0,5.4,0,24.3,0,29.8c6.8,0,77,0,77,0v31h-0.1V259.4z M602.6,259.4
					c0,0-10.4-27.2-12.1-31.4c-4.5,0-45.3,0-50,0c-1.5,4.2-11.5,31.4-11.5,31.4h-37.8l56.6-145.6h34.9L641,259.4H602.6z"/>
				<path id="XMLID_160_" class="st3" d="M276.3,228.4c7.4,0,12.8-0.5,16-1.2c3.9-0.9,7.1-2.6,9.7-4.8c2.4-2.3,4.5-6.2,6.2-11.6
					c1.8-5.7,2.7-13.9,2.7-24.2s-0.9-18.1-2.6-23.4c-1.7-5.1-4.1-9.1-6.9-11.8c-2.9-2.7-6.6-4.5-11.2-5.6c-2.4-0.6-8.3-1.2-22-1.2
					c0,0-4.8,0-8.5,0v83.7C264.8,228.4,276.3,228.4,276.3,228.4z"/>
				<path id="XMLID_159_" class="st3" d="M578.8,197c-2.4-6.5-9.4-25.4-13.6-36.4c-4.1,11.2-10.9,29.9-13.3,36.4
					C558.5,197,572.1,197,578.8,197z"/>
			</g>
		</g>
	</g>
</g>
</svg>
