<?xml version="1.0" encoding="utf-8"?>
<!-- Generator: Adobe Illustrator 19.0.0, SVG Export Plug-In . SVG Version: 6.00 Build 0)  -->
<svg version="1.1" id="Слой_1" xmlns="http://www.w3.org/2000/svg" xmlns:xlink="http://www.w3.org/1999/xlink" x="0px" y="0px"
	 viewBox="-897 903 1400 900" style="enable-background:new -897 903 1400 900;" xml:space="preserve">
<style type="text/css">
	.st0{fill:url(#XMLID_2_);}
	.st1{fill:#BCBEC0;}
	.st2{fill:#5DD8C4;}
</style>
<g id="card-form">
	
		<linearGradient id="XMLID_2_" gradientUnits="userSpaceOnUse" x1="-197" y1="2797.5" x2="-197" y2="1900.5" gradientTransform="matrix(1 0 0 1 0 -996)">
		<stop  offset="0" style="stop-color:#CDCCCC"/>
		<stop  offset="0.6582" style="stop-color:#FFFFFF"/>
	</linearGradient>
	<path id="XMLID_252_" class="st0" d="M-797,1801.5c-54.3,0-98.5-44.2-98.5-98.5v-700c0-54.3,44.2-98.5,98.5-98.5H403
		c54.3,0,98.5,44.2,98.5,98.5v700c0,54.3-44.2,98.5-98.5,98.5H-797z"/>
	<path id="XMLID_249_" class="st1" d="M403,906c25.8,0,50.1,10.1,68.5,28.5S500,977.2,500,1003v700c0,25.8-10.1,50.1-28.5,68.5
		S428.8,1800,403,1800H-797c-25.8,0-50.1-10.1-68.5-28.5s-28.5-42.7-28.5-68.5v-700c0-25.8,10.1-50.1,28.5-68.5S-822.8,906-797,906
		H403 M403,903H-797c-55,0-100,45-100,100v700c0,55,45,100,100,100H403c55,0,100-45,100-100v-700C503,948,458,903,403,903L403,903z"
		/>
</g>
<g id="entropay">
	<path id="XMLID_324_" class="st2" d="M-476.3,1471.8h26.2l2.6,1.3l2.1,1.2c9.7,12.2,6.4,27.1,7,41.8c14.9-0.1,29.8-0.2,44.6-0.1
		c-0.1,11.2-0.1,22.5-0.1,33.7c-14.9,0-29.7,0-44.6-0.1c0.1,19.4-0.5,38.9-0.1,58.3c0.5,8.3,0.7,16.6,8.2,21.8
		c7.7,5.6,19,0.8,27.4-0.9c4.5,9.9,9,19.8,13.4,29.8c-12.5,5-24.1,9.8-37.9,8.9c-16.3-0.5-31.7-8-40.6-21.9
		c-7.6-11.7-8.3-24.3-8.5-37.8c0.1-19.4,0.2-38.7,0.2-58.1c-9.8-0.1-19.5-0.1-29.3-0.2c0-11.2,0-22.4-0.1-33.6
		c9.8,0,19.6,0,29.4-0.1C-476.4,1501.2-476.3,1486.5-476.3,1471.8z M-532.2,1531.2c11.6,13.8,12.6,30,12.7,47.2
		c-0.2,28.5,0,57-0.2,85.5c-12.5-0.3-25-0.5-37.5-0.6c0.1-25.7,0-51.3,0.2-77c-0.3-11.4,0.1-23.7-9-32.1
		c-13.1-11.2-33.1-8.5-44.5,3.8c-7.1,6.4-5.6,14.5-6,23.1c0.4,27.5,0.2,55,0.2,82.5c-12.5,0-24.9,0-37.4,0
		c0-49.4,0.1-98.7-0.1-148.1c7.4,0.6,15.8,0.2,22.8,2.6c6.9,2.5,9.5,11,13.1,16.8c6.2-6.8,11.9-13.1,20.3-17.3
		C-575.7,1507.5-547.8,1512.2-532.2,1531.2z M-262.1,1516.2c-4.2,11.1-8.2,22.3-12.9,33.2c-9.5-1.4-20.7-3.8-29.9-0.4
		c-7.7,2.7-15.5,7.9-19.7,14.9c-2.2,5.1-1.8,11.6-2,17.1c0.3,27.5,0.1,54.9,0.2,82.4c-12.6,0-25.1,0.1-37.7,0.4
		c-0.1-49.5,0-99-0.1-148.5c7.7,0.5,16.3,0.1,23.6,2.7c6.5,2.5,9.6,11.2,13.1,16.7c6.6-7.7,12.5-14.8,22.1-18.9
		C-291.3,1509.9-276.3,1513.4-262.1,1516.2z M243.2,1516.1c13.8-0.1,27.7-0.2,41.5-0.1c16.8,35.8,32.9,71.9,50.2,107.4
		c13.7-35.7,26-71.8,39.5-107.6c13.4,0,26.8,0.1,40.2,0.1c-19.1,48.5-38.6,96.8-57.7,145.2c-7.9,20.1-15.9,42.2-28.4,59.9
		c-11,15.7-26.9,27.1-45,33.4h-1.7c-3-8.5-8.6-19.3-7-28.4c3-8.5,12.9-14.7,19.1-20.9c11.7-10.5,16-23.7,21.7-37.8
		C291.4,1617,267.2,1566.6,243.2,1516.1z M-677,1603.3c0.6-25.5-2.9-49.4-21.4-68.4c-26.8-28.5-75.3-30.2-103.8-3.3
		c-29.9,27-33.1,75.8-7.8,106.9c21.2,26.3,57.4,34.9,89.2,25.5c13.1-3.4,23.8-10.6,34.9-18c-6.2-6.2-11.6-15.4-21.5-15.5
		c-21.2-1.5-42.4,8.5-62.3-3.1c-10.5-5.3-14.5-14.1-19.7-23.9C-751.9,1603.1-714.5,1603.4-677,1603.3z M-790,1576.1
		c2.7-5.9,4.9-12.7,8.8-18c13.4-15.4,39.6-16.3,55-3.4c6.6,4.9,9.2,14.2,12.7,21.4C-739,1576.5-764.5,1576.5-790,1576.1z
		 M-122.6,1545.5c-17.8-25.2-49.3-37.1-79.5-32c-26.1,4.4-49.5,21.8-59.6,46.6c-13.7,32.5-2.6,72.6,26.5,92.7
		c32.7,23.5,80.8,18.5,107.5-11.9C-104.3,1614.7-102.5,1574.1-122.6,1545.5z M-159.8,1622.1c-11.2,11.2-29.7,12.9-44.1,7.9
		c-17.6-6.6-26.5-25.5-25.3-43.5c0.8-18.5,13.8-35.1,32.4-38.4c12.9-2.3,26.3,0.2,36.2,9.1C-142.8,1573.6-142.1,1605.1-159.8,1622.1
		z M41.9,1535.8c-17.2-18.9-44-28-69-21c-11,3.3-18.9,10.2-27.1,17.9c-3-4.4-5.4-10.4-9.7-13.8c-7.7-3.6-17.8-2.9-26.1-3.5
		c-0.4,73.4,0.1,146.9-0.3,220.3c12.5,0.1,25.1,0.2,37.6,0.2c0-28.9,0.4-57.8-0.2-86.7c8,6.4,15.1,12.6,25.1,15.7
		c23.6,7.1,49.4-0.2,66.7-17.5C68.8,1618.4,69.5,1566.5,41.9,1535.8z M14.8,1618.2c-12.6,16.9-40.1,18.7-56.3,6.3
		c-5.6-4.3-10.8-9-11-16.7c-0.8-11.4-0.8-23.4-0.1-34.8c-0.3-12.9,15.4-22.4,26.4-25c14.7-2.9,30.6,0.9,40.3,12.8
		C26.7,1576.1,27.2,1602.8,14.8,1618.2z M228.2,1516c-11.7,0-23.3-0.1-35-0.1c0.1,5.9,0.1,11.8,0.2,17.7c-9-8-17-15.7-29-19.1
		c-25-6.8-51.9,2.4-69,21.5c-25.8,28.9-26.5,75.6-2,105.4c17.6,21.5,47.2,31.8,74,23.1c10.3-3.4,17.3-10.5,24.7-18
		c3.9,5.3,7.5,13.5,14.2,15.5c6.9,1.8,14.5,1.7,21.5,2.4C228.2,1615,227.9,1565.5,228.2,1516z M190.9,1597.2
		c-0.5,7.8,0.7,15.3-5,21.4c-14.6,17.4-43.1,18.9-59.4,3.4c-12.7-12-15.1-32.7-9.8-48.7c4.7-13.6,16.3-23.2,30.4-25.7
		c15.8-3.2,34.6,4.7,42.3,19.1C191.7,1576.4,190.7,1587.2,190.9,1597.2z"/>
	<path id="XMLID_309_" class="st2" d="M-387.4,962.7c30.1-0.2,61.9,5.5,88.9,19.3c31.2,16.7,47.1,55,36.5,88.9
		c-6.1,17.5-16.3,33.6-24.5,50.3c-10.8,20.6-21.9,41.5-35.8,60.2c-9.6,12.6-22.2,24.3-37.6,29.2c-19.2,6.5-41.9,5.7-62,6.1
		c27.1-48.8,54.5-97.6,82.3-146c2.5-4.6,3.7-9.6,1.7-14.7c-3.2-7.7-10.1-11.6-17.3-14.7c-24.1-9.9-52.9-7.3-75.9,4.4
		c-49.4,25-80.4,85.1-68.4,139.8c8.8,44.3,44.3,80.9,88.2,91.2c43,10.3,90-5.7,118.4-39.4c12.6-14.2,19.1-30.3,27.7-46.9
		c20.5-40.8,41.3-81.5,61.6-122.4c28.9-55.4,85-94.8,146.9-103.5c27.3-3.4,56.2-2.4,82.7,5.4c48,13.7,90.4,46,115.9,88.9
		c15.9,26,24.1,54.9,28.1,85v36.2c-4.5,39.3-16.7,76.7-41.8,107.6c-34.2,43.6-87.5,67.6-142.1,71.2c-30.6-0.3-63.8-7.4-83-33.4
		c-17.3,30.1-33.3,67.3-58.8,91.4c-22.7,21.7-56.4,21.1-85.7,20.3c33.1-65.3,66.5-130.5,99.6-195.7c6.2-11.9,10.5-23.4,21.1-32.3
		c24.6-21,60.1-24,89-10.4c-5.5,12.2-12.7,23.6-18.3,35.8c-5.9,18.2,7.4,39.1,25.8,43.2c14.2,2.7,29.8,2.2,43.4-3.1
		c18.1-6.8,33.5-19.7,44.9-35.3c21.7-29.5,31.2-68.5,23-104.5c-8.6-40.1-39.3-73.9-78.2-86.7c-18.5-5.9-38.2-7.9-57.4-4.2
		c-30.5,5.1-58.2,24.5-76.2,49.3c-8.9,11.9-14.3,24.5-21.1,37.6c-16.7,33.1-33.5,66.2-50.2,99.2c-6.2,11.8-11.4,23.5-18.4,34.8
		c-24.6,40.4-64,71.2-109.2,85.2c-33,10.8-68.3,12-102.2,4.9c-38.2-8.7-73.7-28.3-100.8-56.8c-23.8-24.9-40.8-55.8-49.1-89.1
		c-3.4-12.6-4.3-24.9-6.2-37.8v-22.7c2.3-11.7,2.4-23.5,5.7-35c10.5-43.3,36.1-82.4,71.2-109.8C-471.6,978-429.8,962.3-387.4,962.7z
		"/>
</g>
</svg>
