<?xml version="1.0" encoding="utf-8"?>
<!-- Generator: Adobe Illustrator 19.0.0, SVG Export Plug-In . SVG Version: 6.00 Build 0)  -->
<svg version="1.1" id="casino-payments" xmlns="http://www.w3.org/2000/svg" xmlns:xlink="http://www.w3.org/1999/xlink" x="0px"
	 y="0px" viewBox="-299 -200 1400 900" style="enable-background:new -299 -200 1400 900;" xml:space="preserve">
<style type="text/css">
	.st0{fill:#3C59A4;}
	.st1{fill:#FFFFFF;}
	.st2{fill:#F8A534;}
</style>
<g id="visa_1_">
	<path id="card-form_2_" class="st0" d="M1001,700H-199c-55,0-100-45-100-100v-700c0-55,45-100,100-100h1200c55,0,100,45,100,100
		v700C1101,655,1056,700,1001,700z"/>
	<g id="visa">
		<path id="XMLID_29_" class="st1" d="M322.1,443.2h-99.7l62.1-385.8h101.4L322.1,443.2z M137.3,57.3L42.5,322.1L31,265l0,0
			L-3.3,91.7c0,0-3.3-34.3-47.4-34.3h-158.6l-1.6,6.5c0,0,49,9.8,104.6,44.1L-18,443.2H86.6L245.2,57.4H137.3V57.3z M925.3,443.2
			h91.6L936.8,59h-80.1c-37.6,0-45.8,29.4-45.8,29.4L662.1,443.2h104.6L788,386h127.5L925.3,443.2z M815.8,305.8l52.3-143.9
			l29.4,143.9H815.8z M668.6,150.5l14.7-83.4c0,0-44.1-16.3-89.9-16.3c-49,0-168.4,21.3-168.4,127.5c0,99.7,139,101.4,139,152
			c0,52.3-124.3,42.5-165.1,9.8l-14.7,86.6c0,0,44.1,21.3,112.8,21.3s171.7-36,171.7-132.4c0-99.7-140.6-109.5-140.6-152
			C529.7,121.1,626.1,127.6,668.6,150.5z"/>
		<path id="XMLID_28_" class="st2" d="M31,265L-3.3,91.7c0,0-3.3-34.3-47.4-34.3h-158.6l-1.6,6.5c0,0,75.2,16.3,148.8,75.2
			C8.2,194.7,31,265,31,265z"/>
	</g>
</g>
</svg>
