<svg width="138" height="34" fill="none" xmlns="http://www.w3.org/2000/svg"><path fill-rule="evenodd" clip-rule="evenodd" d="M14.074 10.756c0-1.176.926-2.11 2.092-2.11a2.06 2.06 0 011.45.609 2.067 2.067 0 010 2.921 2.031 2.031 0 01-1.45.609 2.06 2.06 0 01-1.448-.609c-.443-.365-.644-.851-.644-1.42zM19.305 16.032c0-.569.202-1.096.604-1.502a2.057 2.057 0 011.489-.608c1.127 0 2.052.932 2.052 2.069 0 .568-.201 1.096-.603 1.46a2.031 2.031 0 01-1.45.61 2.062 2.062 0 01-1.448-.61c-.442-.364-.644-.851-.644-1.42zM11.136 13.719a2.086 2.086 0 00-2.092 2.11c0 .568.24 1.095.603 1.46.403.406.925.61 1.449.61.563 0 1.087-.245 1.448-.61a2.068 2.068 0 000-2.921c-.361-.447-.885-.65-1.408-.65zM16.368 18.994a2.06 2.06 0 00-1.49.608 2.096 2.096 0 00-.603 1.502c0 1.136.925 2.07 2.052 2.07.564 0 1.087-.204 1.45-.609a2.07 2.07 0 000-2.922c-.363-.406-.846-.65-1.41-.65z" fill="#FB8936"/><path fill-rule="evenodd" clip-rule="evenodd" d="M16.247.53a3.51 3.51 0 00-2.535 1.055L2.04 13.354A3.575 3.575 0 00.994 15.91c0 .974.363 1.867 1.047 2.556l4.708 4.748 2.254-2.273-5.03-5.03.764-.732 11.51-11.606 14.487 14.609.08-.081c.444-.609.725-1.38.725-2.15 0-.974-.362-1.867-1.046-2.557L18.823 1.585C18.098.895 17.213.53 16.247.53z" fill="#FB8936"/><path fill-rule="evenodd" clip-rule="evenodd" d="M11.257 23.255l-2.254 2.273 4.749 4.788a3.621 3.621 0 002.495 1.015 3.51 3.51 0 002.535-1.056l9.698-9.78-2.253-2.273-9.98 10.065-4.99-5.032zM98.051 13.106c0 1.501-.926 2.313-2.576 2.313-1.69 0-2.575-.812-2.575-2.313V10.47c0-1.584.885-2.395 2.575-2.395 1.69 0 2.576.811 2.576 2.395v2.637zm-2.576-7.264c-3.099 0-5.11 1.826-5.11 4.586v2.637c0 2.8 1.972 4.504 5.11 4.504 3.14 0 5.111-1.744 5.111-4.504v-2.637c-.04-2.76-2.012-4.586-5.11-4.586zM104.128 14.242c-.927 0-1.57.65-1.57 1.623 0 .933.643 1.583 1.57 1.583.925 0 1.609-.65 1.609-1.582 0-.934-.684-1.624-1.609-1.624zM115.154 13.106c0 1.501-.926 2.313-2.576 2.313-1.69 0-2.575-.812-2.575-2.313V10.47c0-1.584.885-2.395 2.575-2.395 1.691 0 2.576.811 2.576 2.395v2.637zm-2.576-7.264c-3.098 0-5.11 1.826-5.11 4.586v2.637c0 2.8 1.972 4.504 5.11 4.504 3.14 0 5.111-1.744 5.111-4.504v-2.637c-.04-2.8-2.052-4.586-5.111-4.586zM134.753 14.242c-.443.365-1.369.608-2.335.608-1.69 0-2.576-.851-2.576-2.475V10.63c0-1.785.846-2.556 2.698-2.556.683 0 1.649.08 2.132.244h.04v5.924h.041zm2.454-7.466c-1.368-.569-3.138-.934-4.668-.934-1.931 0-5.151.609-5.151 4.788v1.745c0 2.232 1.248 4.626 4.829 4.626.724 0 1.811-.122 2.737-.65h.04v.041c0 .447-.161 1.908-1.288 2.598-1.046.69-2.536.568-4.467-.365l-1.046 1.988c1.609 1.095 4.467 1.542 6.519.486 1.208-.649 2.013-1.785 2.334-3.286v-.041c.121-.486.161-1.055.161-1.663V6.776zM126.06 8.074v-2.15c-1.65-.285-4.467 0-6.358.973v10.429h2.495V8.52c1.046-.406 3.139-.528 3.863-.447zM85.616 17.286h2.495v-6.453c0-3.287-1.811-5.032-5.192-5.032-1.53 0-3.3.366-4.708.934v10.55h2.494V8.278h.04c.524-.162 1.329-.243 2.174-.243 2.294 0 2.697 1.704 2.697 2.84v6.412zM73.06 17.286h2.495v-11.2H73.06v11.2zM74.348 1.5c-.885 0-1.53.65-1.53 1.502s.685 1.541 1.53 1.541c.885 0 1.488-.649 1.488-1.541 0-.893-.603-1.502-1.488-1.502zM71.128 14.04c0-2.395-1.932-2.964-3.904-3.369-1.368-.284-2.414-.487-2.414-1.502 0-.811.764-1.298 2.012-1.298.845 0 1.892.284 2.777.77l.965-1.866c-1.207-.649-2.454-.973-3.621-.973-2.053 0-4.427.892-4.427 3.408 0 2.84 3.179 3.409 4.226 3.571 1.046.203 2.052.447 2.052 1.38 0 .852-.805 1.34-2.052 1.34-1.088 0-2.335-.447-3.3-1.138l-.966 1.908c1.248.893 2.696 1.38 4.225 1.38 2.737-.041 4.427-1.421 4.427-3.612zM58.09 15.176h-.041c-.563.162-1.45.284-2.133.284-1.53 0-2.414-.569-2.414-1.583 0-1.056.764-1.583 2.374-1.583.684 0 1.57.08 2.132.203h.081v2.679zm1.93-7.224c-.321-.65-.804-1.136-1.408-1.501-2.213-1.299-5.473-.568-6.64.04l.644 1.948c.08-.04.202-.08.282-.122.16-.04.322-.122.483-.162.201-.04.443-.122.643-.162l.725-.122c.241-.04.523-.04.765-.04.241 0 .523.04.764.08.161.041.322.082.483.163.16.04.282.121.403.203.12.081.241.203.322.325.12.121.2.243.281.365.121.243.201.487.241.73.04.203.04.406.04.568v.204h-.08c-.684-.082-1.448-.163-2.173-.163-3.018 0-4.748 1.298-4.748 3.571 0 1.38.643 3.733 4.83 3.733 1.045 0 2.655-.122 4.506-.811.04 0 .08-.041.08-.041v-6.452c0-.447-.04-.852-.12-1.258a4.356 4.356 0 00-.363-1.015c.04-.04.04-.04.04-.08zM40.664 3.57c-1.207 1.014-1.852 2.515-1.852 4.342v3.936c0 1.825.645 3.327 1.852 4.342 1.086.892 2.615 1.42 4.306 1.42 1.57 0 3.099-.405 4.386-1.258l-1.086-2.15c-.242.12-2.576 1.38-4.588.81-1.449-.405-2.253-1.54-2.253-3.164V7.952c0-1.623.804-2.76 2.253-3.165 2.012-.568 4.306.609 4.588.812l1.046-2.192C47.988 2.555 46.54 2.19 44.97 2.19c-1.69 0-3.22.487-4.306 1.38z" fill="#fff"/><path d="M43.954 31.64c-1.126 0-1.986-.313-2.58-.94-.586-.627-.88-1.517-.88-2.67 0-.573.09-1.083.27-1.53.18-.453.427-.833.74-1.14.314-.313.687-.55 1.12-.71a4.04 4.04 0 011.41-.24c.294 0 .56.023.8.07.24.04.45.09.63.15a2.793 2.793 0 01.71.31l-.45 1.26a3.747 3.747 0 00-.75-.29 3.5 3.5 0 00-.96-.12c-.24 0-.476.04-.71.12-.226.08-.43.21-.61.39-.173.173-.313.4-.42.68-.106.28-.16.62-.16 1.02 0 .32.034.62.1.9.074.273.187.51.34.71.16.2.367.36.62.48.254.113.56.17.92.17.227 0 .43-.013.61-.04.18-.027.34-.057.48-.09.14-.04.264-.083.37-.13.107-.047.204-.09.29-.13l.43 1.25c-.22.133-.53.253-.93.36-.4.107-.863.16-1.39.16zm9.248-.14a13.93 13.93 0 00-.25-.74l-.26-.76h-2.7c-.087.253-.177.507-.27.76-.087.253-.167.5-.24.74h-1.62c.26-.747.507-1.437.74-2.07.233-.633.46-1.23.68-1.79.227-.56.447-1.09.66-1.59.22-.507.447-1 .68-1.48h1.49a51.676 51.676 0 011.33 3.07c.227.56.457 1.157.69 1.79.233.633.48 1.323.74 2.07h-1.67zm-1.87-5.36c-.033.1-.083.237-.15.41l-.23.6c-.087.227-.183.477-.29.75-.1.273-.203.56-.31.86h1.97c-.107-.3-.21-.587-.31-.86a20.38 20.38 0 00-.29-.75 396.61 396.61 0 00-.39-1.01zm7.512 4.17c.22 0 .4-.017.54-.05.147-.04.264-.09.35-.15a.532.532 0 00.18-.23.8.8 0 00.05-.29c0-.227-.106-.413-.32-.56-.213-.153-.58-.317-1.1-.49a9.621 9.621 0 01-.68-.27 2.726 2.726 0 01-.61-.39 1.95 1.95 0 01-.44-.57c-.113-.227-.17-.5-.17-.82 0-.32.06-.607.18-.86.12-.26.29-.48.51-.66.22-.18.487-.317.8-.41.314-.1.667-.15 1.06-.15.467 0 .87.05 1.21.15.34.1.62.21.84.33l-.45 1.23a3.88 3.88 0 00-.65-.26 2.637 2.637 0 00-.85-.12c-.373 0-.643.053-.81.16-.16.1-.24.257-.24.47 0 .127.03.233.09.32a.96.96 0 00.25.24c.114.067.24.13.38.19.147.053.307.11.48.17.36.133.674.267.94.4.267.127.487.277.66.45.18.173.314.377.4.61.087.233.13.517.13.85 0 .647-.226 1.15-.68 1.51-.453.353-1.136.53-2.05.53-.306 0-.583-.02-.83-.06a5.035 5.035 0 01-.66-.13 4.14 4.14 0 01-.49-.17 4.043 4.043 0 01-.34-.17l.44-1.24c.207.113.46.217.76.31.307.087.68.13 1.12.13zm4.93-5.74h1.56v6.93h-1.56v-6.93zm8.815 6.93a34.886 34.886 0 00-1.45-2.35 23.886 23.886 0 00-1.66-2.19v4.54h-1.54v-6.93h1.27c.22.22.463.49.73.81.267.32.537.663.81 1.03.28.36.557.737.83 1.13.273.387.53.76.77 1.12v-4.09h1.55v6.93h-1.31zm5.219-3.47c0 .34.04.647.12.92.086.273.206.51.36.71.16.193.353.343.58.45.226.107.486.16.78.16.286 0 .543-.053.77-.16.233-.107.426-.257.58-.45.16-.2.28-.437.36-.71.086-.273.13-.58.13-.92 0-.34-.044-.647-.13-.92-.08-.28-.2-.517-.36-.71a1.51 1.51 0 00-.58-.46 1.787 1.787 0 00-.77-.16c-.294 0-.554.057-.78.17-.227.107-.42.26-.58.46-.154.193-.274.43-.36.71-.08.273-.12.577-.12.91zm5.29 0c0 .593-.09 1.117-.27 1.57a3.22 3.22 0 01-.72 1.13c-.307.3-.674.527-1.1.68-.42.153-.874.23-1.36.23-.474 0-.92-.077-1.34-.23a3.116 3.116 0 01-1.1-.68 3.265 3.265 0 01-.74-1.13c-.18-.453-.27-.977-.27-1.57 0-.593.093-1.113.28-1.56.186-.453.436-.833.75-1.14.32-.307.686-.537 1.1-.69.42-.153.86-.23 1.32-.23.473 0 .92.077 1.34.23.42.153.786.383 1.1.69.313.307.56.687.74 1.14.18.447.27.967.27 1.56zm7.542-3.46c.12.22.257.493.41.82.16.32.324.67.49 1.05.174.373.344.757.51 1.15l.47 1.11.47-1.11c.167-.393.334-.777.5-1.15.174-.38.337-.73.49-1.05.16-.327.3-.6.42-.82h1.42c.067.46.127.977.18 1.55.06.567.11 1.16.15 1.78.047.613.087 1.23.12 1.85.04.62.074 1.203.1 1.75h-1.52c-.02-.673-.046-1.407-.08-2.2a59.314 59.314 0 00-.15-2.4 415.213 415.213 0 01-.84 1.95 89.185 89.185 0 01-.75 1.77h-1.09a95.68 95.68 0 00-.34-.79c-.133-.313-.273-.64-.42-.98-.14-.34-.283-.68-.43-1.02l-.4-.93a59.68 59.68 0 00-.15 2.4c-.033.793-.06 1.527-.08 2.2H88.6c.027-.547.057-1.13.09-1.75l.12-1.85c.047-.62.097-1.213.15-1.78.06-.573.124-1.09.19-1.55h1.49zm12.775 6.93c-.073-.24-.157-.487-.25-.74l-.26-.76h-2.7c-.087.253-.177.507-.27.76-.087.253-.167.5-.24.74h-1.62c.26-.747.507-1.437.74-2.07.233-.633.46-1.23.68-1.79.227-.56.447-1.09.66-1.59.22-.507.447-1 .68-1.48h1.49c.227.48.45.973.67 1.48.22.5.44 1.03.66 1.59.227.56.457 1.157.69 1.79.233.633.48 1.323.74 2.07h-1.67zm-1.87-5.36a9.24 9.24 0 01-.15.41l-.23.6c-.087.227-.183.477-.29.75-.1.273-.203.56-.31.86h1.97c-.107-.3-.21-.587-.31-.86s-.197-.523-.29-.75l-.23-.6-.16-.41zm9.757-1.57v1.33h-2.09v5.6h-1.56v-5.6h-2.09v-1.33h5.74zm4.928 7.07c-1.127 0-1.987-.313-2.58-.94-.587-.627-.88-1.517-.88-2.67 0-.573.09-1.083.27-1.53.18-.453.426-.833.74-1.14.313-.313.686-.55 1.12-.71.433-.16.903-.24 1.41-.24.293 0 .56.023.8.07.24.04.45.09.63.15a2.793 2.793 0 01.71.31L118 26.2a3.78 3.78 0 00-.75-.29 3.5 3.5 0 00-.96-.12c-.24 0-.477.04-.71.12-.227.08-.43.21-.61.39-.174.173-.314.4-.42.68-.107.28-.16.62-.16 1.02 0 .32.033.62.1.9.073.273.186.51.34.71.16.2.366.36.62.48.253.113.56.17.92.17.226 0 .43-.013.61-.04.18-.027.34-.057.48-.09.14-.04.263-.083.37-.13l.29-.13.43 1.25c-.22.133-.53.253-.93.36-.4.107-.864.16-1.39.16zm8.504-7.07h1.56v6.93h-1.56v-2.94h-2.62v2.94h-1.56v-6.93h1.56v2.65h2.62v-2.65z" fill="#fff"/></svg>