<svg width="17" height="16" viewBox="0 0 17 16" fill="none" xmlns="http://www.w3.org/2000/svg">
<path fill-rule="evenodd" clip-rule="evenodd" d="M15.6325 1.54467C15.6325 1.17648 15.931 0.878 16.2992 0.878C16.6673 0.878 16.9658 1.17648 16.9658 1.54467V5.328C16.9658 7.52 15.4952 8.66733 14.0365 8.66733C12.5778 8.66733 11.1032 7.52 11.1032 5.328V3.75133C11.1032 1.428 8.70449 1.33333 8.44449 1.33333C7.33515 1.33333 6.15649 1.90667 5.99249 3.14333C5.986 3.19146 6.00058 3.24005 6.03249 3.27667C6.06441 3.31314 6.11068 3.33384 6.15915 3.33333H7.29915C8.58782 3.33333 9.63249 4.378 9.63249 5.66667V11.6667C9.63249 14.0599 7.69239 16 5.29915 16C2.90592 16 0.96582 14.0599 0.96582 11.6667V5.66667C0.96582 4.378 2.01049 3.33333 3.29915 3.33333H4.47915C4.56644 3.33284 4.63855 3.26508 4.64449 3.178C4.78649 1.092 6.62382 0 8.44449 0C10.0472 0 12.4365 0.975333 12.4325 3.752V5.32733C12.4325 6.71267 13.2325 7.33333 14.0325 7.33333C14.8325 7.33333 15.6325 6.71333 15.6325 5.328V1.54467ZM5.29915 8.33333C5.82904 8.35253 6.27535 7.94103 6.29915 7.41133V5.926C6.27748 5.39472 5.83053 4.98084 5.29915 5C4.76778 4.98084 4.32083 5.39472 4.29915 5.926V7.408C4.32118 7.93902 4.76803 8.3525 5.29915 8.33333Z" fill="#2F69EF"/>
</svg>
