<svg width="16" height="16" viewBox="0 0 16 16" fill="none" xmlns="http://www.w3.org/2000/svg">
<g clip-path="url(#clip0)">
<path fill-rule="evenodd" clip-rule="evenodd" d="M7.73085 0.877464C7.73085 0.69464 7.87969 0.546432 8.06329 0.546432C8.2469 0.546432 8.39574 0.69464 8.39574 0.877464V2.75607C8.39574 3.8445 7.66237 4.41421 6.93498 4.41421C6.20759 4.41421 5.47223 3.8445 5.47223 2.75607V1.97318C5.47223 0.819534 4.2761 0.772527 4.14645 0.772527C3.59326 0.772527 3.0055 1.05721 2.92372 1.67128C2.92049 1.69518 2.92775 1.71931 2.94367 1.73749C2.95958 1.7556 2.98266 1.76588 3.00683 1.76562H3.57531C4.21792 1.76562 4.73886 2.28435 4.73886 2.92424V5.90352C4.73886 7.09188 3.7714 8.05523 2.57798 8.05523C1.38456 8.05523 0.417096 7.09188 0.417096 5.90352V2.92424C0.417096 2.28435 0.938036 1.76562 1.58065 1.76562H2.16907C2.2126 1.76538 2.24856 1.73173 2.25152 1.68849C2.32233 0.652693 3.23854 0.110463 4.14645 0.110463C4.94564 0.110463 6.13712 0.594763 6.13512 1.97351V2.75574C6.13512 3.44362 6.53405 3.75182 6.93299 3.75182C7.33192 3.75182 7.73085 3.44396 7.73085 2.75607V0.877464ZM2.57798 4.24836C2.84221 4.2579 3.06477 4.05357 3.07664 3.79055V3.05301C3.06584 2.7892 2.84296 2.58369 2.57798 2.5932C2.313 2.58369 2.09012 2.7892 2.07931 3.05301V3.78889C2.0903 4.05257 2.31312 4.25788 2.57798 4.24836Z" fill="#2F69EF"/>
<path d="M13.1221 13.6469C13.0753 13.6236 13.0519 13.6469 13.0051 13.6702L12.4201 13.973C12.3733 13.9963 12.3266 13.9963 12.2798 13.973L11.6948 13.6702C11.6714 13.6469 11.648 13.6469 11.6012 13.6469C11.5544 13.6702 11.531 13.6935 11.531 13.7401C11.4608 13.9963 11.4608 14.2526 11.531 14.5089C11.5544 14.5555 11.5778 14.5788 11.6012 14.6021C11.648 14.6254 11.6714 14.6021 11.7182 14.5788L12.3032 14.2759C12.3499 14.2526 12.3967 14.2526 12.4435 14.2759L13.0285 14.5788C13.0519 14.6021 13.0987 14.6021 13.1455 14.6021C13.1923 14.5788 13.2157 14.5555 13.2157 14.5089C13.2859 14.2526 13.2859 13.9963 13.2157 13.7401C13.1923 13.6935 13.1689 13.6702 13.1221 13.6469Z" fill="#2F69EF"/>
<path d="M15.6256 14.2293C15.1577 13.8565 14.5961 13.577 14.0112 13.4605C13.9176 13.4372 13.824 13.4605 13.7538 13.5071C13.6836 13.5537 13.6368 13.6469 13.6368 13.7401C13.6134 14.5322 13.1221 15.2079 12.4201 15.4874C12.3733 15.5107 12.3499 15.5107 12.3032 15.4874C11.6012 15.2079 11.1099 14.5322 11.0865 13.7401C11.0865 13.6469 11.0397 13.5537 10.9695 13.5071C10.8993 13.4605 10.8057 13.4372 10.7121 13.4605C10.1272 13.6003 9.56561 13.8565 9.09766 14.2293C8.88708 14.4157 8.77009 14.6953 8.77009 14.9749V15.6971C8.77009 15.8602 8.91047 16 9.07426 16C9.23804 16 9.37843 15.8602 9.37843 15.6971V14.9749C9.37843 14.8817 9.42523 14.7885 9.49542 14.7186C9.61241 14.6021 9.75279 14.5089 9.91658 14.439C9.93998 14.439 9.96337 14.4157 9.98677 14.439C10.0102 14.439 10.0336 14.4623 10.0336 14.4856C10.174 14.9283 10.2441 15.3942 10.2441 15.8602C10.2441 15.9534 10.3143 16 10.3845 16H14.3856C14.4557 16 14.5259 15.9301 14.5259 15.8602C14.5493 15.3942 14.6195 14.9283 14.7365 14.4856C14.7365 14.4623 14.7599 14.439 14.7833 14.439C14.8067 14.439 14.8301 14.439 14.8535 14.439C14.9939 14.5089 15.1343 14.6021 15.2747 14.7186C15.3449 14.7885 15.3917 14.8817 15.3917 14.9749V15.6971C15.3917 15.8602 15.532 16 15.6958 16C15.8596 16 16 15.8602 16 15.6971V14.9749C15.9532 14.6953 15.8362 14.4157 15.6256 14.2293Z" fill="#2F69EF"/>
<path d="M13.6836 8.77748C13.6368 8.75418 13.5666 8.70759 13.5198 8.68429C13.473 8.5678 13.3794 8.4746 13.2859 8.40471C13.0051 8.17172 12.6541 8.05523 12.233 8.05523C11.9054 8.05523 11.5778 8.12513 11.297 8.26492H11.2503C11.1333 8.33481 11.0163 8.40471 10.9227 8.4979C10.4079 8.5445 10.0102 8.96387 10.0102 9.49973C10.0336 9.82591 10.174 10.1288 10.4079 10.3152C10.4079 10.3851 10.4313 10.455 10.4313 10.5249C10.4547 10.7113 10.4781 10.8044 10.5015 10.8743V11.0141C10.5015 11.0374 10.5015 11.0607 10.5249 11.1073V11.7131C10.5249 12.3887 10.9227 12.9945 11.5544 13.2741C11.765 13.3673 11.999 13.4139 12.233 13.4139H12.3733C12.6073 13.4139 12.8413 13.3673 13.0519 13.2741C13.6602 12.9945 14.0814 12.3887 14.0814 11.7131V11.084C14.1048 11.0607 14.1048 11.0141 14.1048 10.9908C14.1282 10.9209 14.175 10.688 14.175 10.3851C14.175 10.3618 14.175 10.3385 14.175 10.3152C14.2218 9.52303 14.058 9.01047 13.6836 8.77748ZM11.0631 10.688C11.0865 10.6414 11.1099 10.5715 11.1333 10.5249C11.4608 10.6181 11.9522 10.5948 12.4435 10.455C12.7243 10.3851 12.9817 10.2919 13.1923 10.1754C13.2157 10.1987 13.2391 10.2453 13.2625 10.2686C13.2625 10.2919 13.2859 10.2919 13.2859 10.2919L13.3093 10.3152C13.3327 10.3385 13.3327 10.3618 13.3561 10.3851C13.3561 10.4084 13.3794 10.4084 13.3794 10.4084L13.4028 10.4317C13.4262 10.455 13.4262 10.4783 13.4496 10.4783L13.4964 10.5249L13.5432 10.9908V11.6432C13.5432 12.1325 13.2625 12.5518 12.8179 12.7615C12.6541 12.8314 12.4903 12.8547 12.3265 12.8547H12.1862C12.0224 12.8547 11.8586 12.8314 11.6948 12.7615C11.2503 12.5751 10.9695 12.1325 10.9695 11.6432V11.0141L11.0631 10.688Z" fill="#2F69EF"/>
<path fill-rule="evenodd" clip-rule="evenodd" d="M15.7937 0.147079C15.9879 0.342481 15.9871 0.658483 15.7919 0.852891L0.850374 15.731C0.655137 15.9254 0.339401 15.9246 0.145158 15.7292C-0.0490858 15.5338 -0.048281 15.2178 0.146955 15.0234L15.0885 0.14528C15.2837 -0.0491272 15.5995 -0.0483217 15.7937 0.147079Z" fill="#2F69EF"/>
</g>
<defs>
<clipPath id="clip0">
<path d="M0 0H16V16H0V0Z" fill="white"/>
</clipPath>
</defs>
</svg>
