<svg width="17" height="16" viewBox="0 0 17 16" fill="none" xmlns="http://www.w3.org/2000/svg">
<path d="M10.4438 11.261C10.35 11.2141 10.3031 11.261 10.2092 11.3079L9.0362 11.9179C8.94236 11.9648 8.84852 11.9648 8.75468 11.9179L7.58166 11.3079C7.53474 11.261 7.48782 11.261 7.39397 11.261C7.30013 11.3079 7.25321 11.3548 7.25321 11.4487C7.11245 11.9648 7.11245 12.4809 7.25321 12.9971C7.30013 13.0909 7.34705 13.1378 7.39397 13.1847C7.48782 13.2317 7.53474 13.1847 7.62858 13.1378L8.8016 12.5279C8.89544 12.4809 8.98928 12.4809 9.08312 12.5279L10.2561 13.1378C10.3031 13.1847 10.3969 13.1847 10.4907 13.1847C10.5846 13.1378 10.6315 13.0909 10.6315 12.9971C10.7723 12.4809 10.7723 11.9648 10.6315 11.4487C10.5846 11.3548 10.5377 11.3079 10.4438 11.261Z" fill="#2F69EF"/>
<path d="M15.4644 12.434C14.5259 11.6833 13.3998 11.1202 12.2268 10.8856C12.0391 10.8387 11.8515 10.8856 11.7107 10.9795C11.5699 11.0733 11.4761 11.261 11.4761 11.4487C11.4292 13.044 10.4438 14.4047 9.0362 14.9677C8.94236 15.0147 8.89544 15.0147 8.8016 14.9677C7.39397 14.4047 6.40863 13.044 6.36171 11.4487C6.36171 11.261 6.26787 11.0733 6.12711 10.9795C5.98635 10.8856 5.79866 10.8387 5.61098 10.8856C4.43796 11.1672 3.31186 11.6833 2.37344 12.434C1.95116 12.8094 1.71655 13.3724 1.71655 13.9355V15.39C1.71655 15.7185 1.99808 16 2.32652 16C2.65497 16 2.93649 15.7185 2.93649 15.39V13.9355C2.93649 13.7478 3.03034 13.5601 3.1711 13.4194C3.4057 13.1848 3.68723 12.9971 4.01567 12.8563C4.06259 12.8563 4.10951 12.8094 4.15644 12.8563C4.20336 12.8563 4.25028 12.9032 4.25028 12.9501C4.5318 13.8416 4.67256 14.7801 4.67256 15.7185C4.67256 15.9062 4.81333 16 4.95409 16H12.9775C13.1183 16 13.2591 15.8592 13.2591 15.7185C13.306 14.7801 13.4468 13.8416 13.6814 12.9501C13.6814 12.9032 13.7283 12.8563 13.7752 12.8563C13.8221 12.8563 13.869 12.8563 13.916 12.8563C14.1975 12.9971 14.479 13.1848 14.7605 13.4194C14.9013 13.5601 14.9951 13.7478 14.9951 13.9355V15.39C14.9951 15.7185 15.2767 16 15.6051 16C15.9336 16 16.2151 15.7185 16.2151 15.39V13.9355C16.1212 13.3724 15.8866 12.8094 15.4644 12.434Z" fill="#2F69EF"/>
<path d="M11.5699 1.45455C11.4761 1.40762 11.3353 1.31378 11.2415 1.26686C11.1476 1.03226 10.96 0.844575 10.7723 0.703812C10.2092 0.234604 9.50541 0 8.66083 0C8.00394 0 7.34705 0.140762 6.784 0.422287H6.69016C6.45555 0.56305 6.22095 0.703812 6.03327 0.891496C5.00101 0.985337 4.20335 1.82991 4.20335 2.90909C4.25028 3.56598 4.5318 4.17595 5.00101 4.55132C5.00101 4.69208 5.04793 4.83284 5.04793 4.97361C5.09485 5.34897 5.14177 5.53666 5.18869 5.67742V5.95894C5.18869 6.00587 5.18869 6.05279 5.23561 6.14663V7.36657C5.23561 8.72727 6.03327 9.94721 7.30013 10.5103C7.72242 10.6979 8.19163 10.7918 8.66083 10.7918H8.94236C9.41157 10.7918 9.88077 10.6979 10.3031 10.5103C11.523 9.94721 12.3676 8.72727 12.3676 7.36657V6.09971C12.4145 6.05279 12.4145 5.95894 12.4145 5.91202C12.4614 5.77126 12.5553 5.30205 12.5553 4.69208C12.5553 4.64516 12.5553 4.59824 12.5553 4.55132C12.6491 2.95601 12.3207 1.92375 11.5699 1.45455ZM6.31479 5.30205C6.36171 5.20821 6.40863 5.06745 6.45555 4.97361C7.11245 5.16129 8.09778 5.11437 9.08312 4.83284C9.64617 4.69208 10.1623 4.5044 10.5846 4.26979C10.6315 4.31672 10.6784 4.41056 10.7253 4.45748C10.7253 4.5044 10.7723 4.5044 10.7723 4.5044L10.8192 4.55132C10.8661 4.59824 10.8661 4.64516 10.913 4.69208C10.913 4.739 10.96 4.739 10.96 4.739L11.0069 4.78592C11.0538 4.83284 11.0538 4.87977 11.1007 4.87977L11.1946 4.97361L11.2884 5.91202V7.22581C11.2884 8.21114 10.7253 9.05572 9.83385 9.47801C9.50541 9.61877 9.17696 9.66569 8.84852 9.66569H8.56699C8.23855 9.66569 7.9101 9.61877 7.58165 9.47801C6.69016 9.10264 6.12711 8.21114 6.12711 7.22581V5.95894L6.31479 5.30205Z" fill="#2F69EF"/>
</svg>
