<svg width="16" height="16" viewBox="0 0 16 16" fill="none" xmlns="http://www.w3.org/2000/svg">
<path fill-rule="evenodd" clip-rule="evenodd" d="M1 0H15C15.5523 0 16 0.447715 16 1V12C16 12.5523 15.5523 13 15 13H8.83333C8.74129 13 8.66667 13.0746 8.66667 13.1667V14.5C8.66667 14.592 8.74129 14.6667 8.83333 14.6667H11C11.3682 14.6667 11.6667 14.9651 11.6667 15.3333C11.6667 15.7015 11.3682 16 11 16H5C4.63181 16 4.33333 15.7015 4.33333 15.3333C4.33333 14.9651 4.63181 14.6667 5 14.6667H7.16667C7.25871 14.6667 7.33333 14.592 7.33333 14.5V13.1667C7.33333 13.0746 7.25871 13 7.16667 13H1C0.447715 13 0 12.5523 0 12V1C0 0.447715 0.447715 0 1 0ZM14.3333 10.3333C14.5174 10.3333 14.6667 10.1841 14.6667 10V1.66667C14.6667 1.48257 14.5174 1.33333 14.3333 1.33333H1.66667C1.48257 1.33333 1.33333 1.48257 1.33333 1.66667V10C1.33333 10.1841 1.48257 10.3333 1.66667 10.3333H14.3333Z" fill="#2F69EF"/>
</svg>
