<svg width="16" height="16" viewBox="0 0 16 16" fill="none" xmlns="http://www.w3.org/2000/svg">
<path fill-rule="evenodd" clip-rule="evenodd" d="M3.66667 0H12.3333C13.2538 0 14 0.746192 14 1.66667V14.3333C14 14.7754 13.8244 15.1993 13.5118 15.5118C13.1993 15.8244 12.7754 16 12.3333 16H3.66667C3.22464 16 2.80072 15.8244 2.48816 15.5118C2.17559 15.1993 2 14.7754 2 14.3333V1.66667C2 0.746192 2.74619 0 3.66667 0ZM11.6667 13.3333C12.219 13.3333 12.6667 12.8856 12.6667 12.3333V3.66667C12.6667 3.11438 12.219 2.66667 11.6667 2.66667H4.33333C3.78105 2.66667 3.33333 3.11438 3.33333 3.66667V12.3333C3.33333 12.8856 3.78105 13.3333 4.33333 13.3333H11.6667Z" fill="#2F69EF"/>
</svg>
