<svg width="16" height="16" viewBox="0 0 16 16" fill="none" xmlns="http://www.w3.org/2000/svg">
<path fill-rule="evenodd" clip-rule="evenodd" d="M11.3334 0.0224609H4.66675C3.56218 0.0224609 2.66675 0.917891 2.66675 2.02246V13.9771C2.66675 15.0817 3.56218 15.9771 4.66675 15.9771H11.3334C12.438 15.9771 13.3334 15.0817 13.3334 13.9771V2.02246C13.3334 0.917891 12.438 0.0224609 11.3334 0.0224609ZM9.00008 15.0225H7.00008C6.63189 15.0225 6.33341 14.724 6.33341 14.3558C6.33341 13.9876 6.63189 13.6891 7.00008 13.6891H9.00008C9.36827 13.6891 9.66675 13.9876 9.66675 14.3558C9.66675 14.724 9.36827 15.0225 9.00008 15.0225ZM11.3334 12.6891C11.7016 12.6891 12.0001 12.3907 12.0001 12.0225V3.35579C12.0001 2.9876 11.7016 2.68913 11.3334 2.68913H4.66675C4.29856 2.68913 4.00008 2.9876 4.00008 3.35579V12.0225C4.00008 12.3907 4.29856 12.6891 4.66675 12.6891H11.3334Z" fill="#2F69EF"/>
</svg>
