<svg width="81" height="80" fill="none" xmlns="http://www.w3.org/2000/svg"><path d="M40.409 75H13.107c-3.12 0-5.46-2.501-5.46-5.387V42.678c0-3.079 2.534-5.387 5.46-5.387h27.302c3.12 0 5.46 2.5 5.46 5.387v26.935c0 3.078-2.34 5.387-5.46 5.387z" fill="url(#paint0_linear)"/><path d="M69.18 68.536h-27.1c-3.097 0-5.42-2.517-5.42-5.42v-27.1c0-3.098 2.516-5.42 5.42-5.42h27.1c3.098 0 5.42 2.516 5.42 5.42v27.1c0 3.097-2.516 5.42-5.42 5.42z" fill="url(#paint1_linear)"/><path d="M49.347 53.275c2.068 0 3.76-1.67 3.76-3.71s-1.692-3.709-3.76-3.709c-2.068 0-3.76 1.67-3.76 3.71s1.692 3.71 3.76 3.71zM49.347 43.593c2.068 0 3.76-1.669 3.76-3.709s-1.692-3.71-3.76-3.71c-2.068 0-3.76 1.67-3.76 3.71s1.692 3.71 3.76 3.71zM49.347 62.956c2.068 0 3.76-1.669 3.76-3.71 0-2.04-1.692-3.708-3.76-3.708-2.068 0-3.76 1.669-3.76 3.709s1.692 3.71 3.76 3.71zM62.216 53.275c2.068 0 3.76-1.67 3.76-3.71s-1.692-3.709-3.76-3.709c-2.068 0-3.76 1.67-3.76 3.71s1.692 3.71 3.76 3.71zM62.216 43.593c2.068 0 3.76-1.669 3.76-3.709s-1.692-3.71-3.76-3.71c-2.068 0-3.76 1.67-3.76 3.71s1.692 3.71 3.76 3.71zM62.216 62.956c2.068 0 3.76-1.669 3.76-3.71 0-2.04-1.692-3.708-3.76-3.708-2.068 0-3.76 1.669-3.76 3.709s1.692 3.71 3.76 3.71z" fill="#fff"/><path d="M27.17 54.018c2.145 0 3.9-1.755 3.9-3.9s-1.755-3.9-3.9-3.9a3.912 3.912 0 00-3.9 3.9c0 2.145 1.56 3.9 3.9 3.9zM27.17 66.293c2.145 0 3.9-1.755 3.9-3.9s-1.755-3.9-3.9-3.9a3.912 3.912 0 00-3.9 3.9c0 2.145 1.56 3.9 3.9 3.9z" stroke="#D9EAFF" stroke-miterlimit="10"/><path d="M50.451 43.755H23.15c-3.12 0-5.46-2.501-5.46-5.387V11.432c0-3.078 2.535-5.387 5.46-5.387h27.302c3.12 0 5.46 2.502 5.46 5.387v26.936c-.194 3.078-2.534 5.387-5.46 5.387z" fill="url(#paint2_linear)"/><path d="M36.628 29.415c2.145 0 3.9-1.732 3.9-3.848 0-2.117-1.755-3.848-3.9-3.848s-3.9 1.731-3.9 3.848c0 2.116 1.755 3.848 3.9 3.848z" fill="url(#paint3_linear)"/><defs><linearGradient id="paint0_linear" x1="27.539" y1="50.81" x2="25.76" y2="73.321" gradientUnits="userSpaceOnUse"><stop stop-color="#211087"/><stop offset="1" stop-color="#3803CE"/></linearGradient><linearGradient id="paint1_linear" x1="36.747" y1="49.702" x2="74.571" y2="49.702" gradientUnits="userSpaceOnUse"><stop stop-color="#FA6400"/><stop offset="1" stop-color="#FFB500" stop-opacity=".95"/></linearGradient><linearGradient id="paint2_linear" x1="31.525" y1="33.875" x2="14.52" y2="54.777" gradientUnits="userSpaceOnUse"><stop stop-color="#DDE7FF"/><stop offset="1" stop-color="#DDE7FF" stop-opacity="0"/></linearGradient><linearGradient id="paint3_linear" x1="32.746" y1="25.594" x2="40.522" y2="25.594" gradientUnits="userSpaceOnUse"><stop stop-color="#FA6400"/><stop offset="1" stop-color="#FFB500" stop-opacity=".95"/></linearGradient></defs></svg>