<svg fill="none" height="80" width="81" xmlns="http://www.w3.org/2000/svg" xmlns:xlink="http://www.w3.org/1999/xlink"><linearGradient id="a"><stop offset="0" stop-color="#fa6400"/><stop offset="1" stop-color="#ffb500" stop-opacity=".95"/></linearGradient><linearGradient id="d" gradientUnits="userSpaceOnUse" x1="17.128" x2="28.151" xlink:href="#a" y1="28.108" y2="17.029"/><linearGradient id="e" gradientUnits="userSpaceOnUse" x1="50.762" x2="63.452" xlink:href="#a" y1="60.7" y2="47.948"/><linearGradient id="b"><stop offset="0" stop-color="#211087"/><stop offset="1" stop-color="#3803ce" stop-opacity=".9"/></linearGradient><linearGradient id="f" gradientUnits="userSpaceOnUse" x1="58.606" x2="57.6" xlink:href="#b" y1="19.571" y2="32.078"/><linearGradient id="g" gradientUnits="userSpaceOnUse" x1="22.967" x2="21.962" xlink:href="#b" y1="55.036" y2="67.542"/><clipPath id="c"><path d="M4 4h72v72H4z"/></clipPath><g clip-path="url(#c)"><path d="M10.12 75.641h59.76c3.42 0 6.12-2.686 6.12-6.09V10.09C76 6.688 73.3 4 69.88 4H10.12C6.7 4 4 6.687 4 10.09v59.64c0 3.046 2.7 5.911 6.12 5.911z" fill="#dde7ff"/><path d="M33.699 22.627l-11.16-11.104-11.16 11.104 11.16 11.105z" fill="url(#d)"/><path d="M65.92 58.09c.9-.896 1.62-2.33 1.62-3.762 0-3.045-2.34-5.552-5.4-5.552-2.34 0-4.32 1.433-5.04 3.403-.72-1.97-2.7-3.403-5.04-3.403-3.06 0-5.4 2.507-5.4 5.552 0 1.433.54 2.866 1.62 3.761l8.82 8.955 8.82-8.955c0 .18 0 .18 0 0z" fill="url(#e)"/><path d="M54.58 33.014h7.56l-3.78-3.582zM63.219 19.043c.18-.537.36-1.075.36-1.79 0-2.867-2.34-5.195-5.4-5.195s-5.4 2.328-5.4 5.194c0 .537.18 1.254.36 1.791-2.88 0-5.4 2.328-5.4 5.194s2.34 5.194 5.4 5.194c2.34 0 4.32-1.254 5.04-3.224.72 1.97 2.7 3.224 5.04 3.224 3.06 0 5.4-2.328 5.4-5.194s-2.52-5.194-5.4-5.194z" fill="url(#f)"/><path d="M18.76 68.477h7.56l-3.78-3.582z" fill="url(#g)"/><path d="M31.36 56.12c-.18 0-.18 0 0 0l-8.82-8.597-8.82 8.597c-.9.896-1.62 2.15-1.62 3.582 0 2.866 2.34 5.194 5.4 5.194 2.34 0 4.32-1.253 5.04-3.223.72 1.97 2.7 3.224 5.04 3.224 3.06 0 5.4-2.329 5.4-5.195-.18-1.432-.72-2.686-1.62-3.582z" fill="url(#g)"/><g stroke="#fff" stroke-miterlimit="10"><path d="M40 4.18v71.821M76 39.821H4"/></g></g></svg>