<svg width="81" height="80" fill="none" xmlns="http://www.w3.org/2000/svg"><g clip-path="url(#clip0)"><path d="M58.118 27.84l-15.25-15.668c-1.4-1.539-3.779-1.539-5.038-.14L19.5 29.798l20.15 20.983 18.328-17.765c1.54-1.4 1.54-3.638.14-5.176z" fill="url(#paint0_linear)"/><path d="M1.032 52.88l15.251 15.667c1.4 1.539 3.778 1.539 5.037.14l18.33-17.766-20.288-20.983-18.19 17.626c-1.539 1.539-1.539 3.777-.14 5.316z" fill="url(#paint1_linear)"/><path d="M29.157 33.016c1.679 0 2.938-1.26 2.938-2.938 0-1.678-1.26-2.937-2.938-2.937-1.68 0-2.939 1.259-2.939 2.937 0 1.539 1.26 2.798 2.939 2.938zM39.65 22.803c1.68 0 2.939-1.259 2.939-2.937 0-1.679-1.26-2.938-2.938-2.938-1.68 0-2.939 1.26-2.939 2.938 0 1.539 1.26 2.938 2.939 2.938z" fill="#fff" stroke="#fff"/><path d="M36.99 68.828L21.74 53.16c-1.4-1.538-1.4-3.777.14-5.035l18.329-17.906 20.288 20.983-18.33 17.766c-1.538 1.399-3.777 1.399-5.176-.14z" fill="url(#paint2_linear)"/><path d="M63.716 12.591L78.967 28.26c1.4 1.538 1.4 3.777-.14 5.035L60.498 51.06 40.21 30.217 58.4 12.591c1.538-1.539 3.777-1.539 5.316 0z" fill="#DDE7FF"/><path d="M60.498 51.062L40.21 30.22" stroke="#D9EAFF" stroke-width="1.04" stroke-miterlimit="10"/><path d="M60.638 44.486c1.679 0 2.938-1.258 2.938-2.937 0-1.679-1.26-2.938-2.938-2.938-1.68 0-2.939 1.26-2.939 2.938 0 1.539 1.26 2.798 2.939 2.938z" fill="url(#paint3_linear)"/><path d="M71.69 33.574c1.68 0 2.939-1.259 2.939-2.937 0-1.68-1.26-2.938-2.939-2.938-1.678 0-2.938 1.259-2.938 2.938 0 1.678 1.26 2.937 2.939 2.937z" fill="url(#paint4_linear)"/><path d="M60.916 22.524c1.68 0 2.939-1.259 2.939-2.937 0-1.68-1.26-2.938-2.939-2.938s-2.938 1.259-2.938 2.938c0 1.678 1.26 2.937 2.938 2.937z" fill="url(#paint5_linear)"/><path d="M49.864 33.295c1.679 0 2.938-1.26 2.938-2.938 0-1.678-1.26-2.937-2.938-2.937-1.68 0-2.939 1.259-2.939 2.937 0 1.54 1.26 2.938 2.939 2.938z" fill="url(#paint6_linear)"/><path d="M39.79 53.718c1.678 0 2.938-1.259 2.938-2.938 0-1.678-1.26-2.937-2.939-2.937s-2.938 1.259-2.938 2.937c0 1.54 1.26 2.938 2.938 2.938z" fill="url(#paint7_linear)"/><path d="M50.703 53.859c1.68 0 2.938-1.26 2.938-2.938 0-1.679-1.259-2.938-2.938-2.938-1.679 0-2.938 1.26-2.938 2.938 0 1.679 1.26 2.938 2.938 2.938z" fill="url(#paint8_linear)"/><path d="M28.735 53.58c1.68 0 2.939-1.26 2.939-2.938 0-1.679-1.26-2.938-2.939-2.938s-2.938 1.26-2.938 2.938c.14 1.538 1.4 2.937 2.938 2.937z" fill="url(#paint9_linear)"/><path d="M8.868 53.158c1.68 0 2.938-1.258 2.938-2.937 0-1.679-1.259-2.938-2.938-2.938-1.679 0-2.938 1.26-2.938 2.938 0 1.679 1.26 2.938 2.938 2.938zM18.941 43.088c1.679 0 2.938-1.26 2.938-2.938 0-1.679-1.259-2.938-2.938-2.938-1.679 0-2.938 1.26-2.938 2.938 0 1.539 1.399 2.938 2.938 2.938z" stroke="#D9EAFF" stroke-miterlimit="10"/><path d="M39.93 42.807c1.678 0 2.937-1.259 2.937-2.937 0-1.679-1.259-2.938-2.938-2.938-1.679 0-2.938 1.26-2.938 2.938 0 1.678 1.399 2.937 2.938 2.937z" fill="url(#paint10_linear)"/><path d="M39.65 64.77c1.68 0 2.939-1.258 2.939-2.937 0-1.678-1.26-2.938-2.938-2.938-1.68 0-2.939 1.26-2.939 2.938 0 1.539 1.26 2.938 2.939 2.938z" fill="url(#paint11_linear)"/><path d="M15.725 60.433c0 1.679 1.26 2.938 2.938 2.938 1.68 0 2.939-1.26 2.939-2.938 0-1.678-1.26-2.937-2.939-2.937-1.539 0-2.938 1.259-2.938 2.937z" stroke="#D9EAFF" stroke-miterlimit="10"/></g><defs><linearGradient id="paint6_linear" x1="68.628" y1="22.715" x2="53.965" y2="37.359" gradientUnits="userSpaceOnUse"><stop stop-color="#211087"/><stop offset="1" stop-color="#3803CE" stop-opacity=".9"/></linearGradient><linearGradient id="paint0_linear" x1="50.563" y1="19.668" x2="29.608" y2="40.628" gradientUnits="userSpaceOnUse"><stop stop-color="#211087"/><stop offset="1" stop-color="#3803CE" stop-opacity=".9"/></linearGradient><linearGradient id="paint2_linear" x1="39.999" y1="50.045" x2="13.155" y2="55.772" gradientUnits="userSpaceOnUse"><stop stop-color="#DDE7FF"/><stop offset="1" stop-color="#DDE7FF" stop-opacity="0"/></linearGradient><linearGradient id="paint3_linear" x1="68.628" y1="22.715" x2="53.965" y2="37.359" gradientUnits="userSpaceOnUse"><stop stop-color="#211087"/><stop offset="1" stop-color="#3803CE" stop-opacity=".9"/></linearGradient><linearGradient id="paint4_linear" x1="68.628" y1="22.715" x2="53.965" y2="37.359" gradientUnits="userSpaceOnUse"><stop stop-color="#211087"/><stop offset="1" stop-color="#3803CE" stop-opacity=".9"/></linearGradient><linearGradient id="paint5_linear" x1="68.628" y1="22.715" x2="53.965" y2="37.359" gradientUnits="userSpaceOnUse"><stop stop-color="#211087"/><stop offset="1" stop-color="#3803CE" stop-opacity=".9"/></linearGradient><linearGradient id="paint1_linear" x1="31.062" y1="38.606" x2="10.107" y2="59.566" gradientUnits="userSpaceOnUse"><stop stop-color="#211087"/><stop offset="1" stop-color="#3803CE" stop-opacity=".9"/></linearGradient><linearGradient id="paint7_linear" x1="37.731" y1="48.773" x2="41.902" y2="53.073" gradientUnits="userSpaceOnUse"><stop stop-color="#FA6400"/><stop offset="1" stop-color="#FFB500" stop-opacity=".95"/></linearGradient><linearGradient id="paint8_linear" x1="48.623" y1="48.948" x2="52.793" y2="53.247" gradientUnits="userSpaceOnUse"><stop stop-color="#FA6400"/><stop offset="1" stop-color="#FFB500" stop-opacity=".95"/></linearGradient><linearGradient id="paint9_linear" x1="26.78" y1="48.657" x2="30.95" y2="52.956" gradientUnits="userSpaceOnUse"><stop stop-color="#FA6400"/><stop offset="1" stop-color="#FFB500" stop-opacity=".95"/></linearGradient><linearGradient id="paint10_linear" x1="37.889" y1="37.883" x2="42.059" y2="42.183" gradientUnits="userSpaceOnUse"><stop stop-color="#FA6400"/><stop offset="1" stop-color="#FFB500" stop-opacity=".95"/></linearGradient><linearGradient id="paint11_linear" x1="37.574" y1="59.779" x2="41.744" y2="64.079" gradientUnits="userSpaceOnUse"><stop stop-color="#FA6400"/><stop offset="1" stop-color="#FFB500" stop-opacity=".95"/></linearGradient><clipPath id="clip0"><path fill="#fff" transform="translate(0 11)" d="M0 0h80v59H0z"/></clipPath></defs></svg>