<svg width="81" height="80" fill="none" xmlns="http://www.w3.org/2000/svg"><g clip-path="url(#clip0)"><path d="M26.389 61.034c14.067 0 25.39-11.38 25.39-25.517C51.78 21.379 40.456 10 26.39 10 12.32 10 .999 21.38.999 35.517c.17 13.965 11.494 25.517 25.39 25.517z" fill="url(#paint0_linear)"/><path d="M18.497 59.83c1.03-1.552 1.715-2.931 2.573-4.655-2.058-.518-4.289-1.552-6.176-2.76-1.887-1.378-3.603-2.93-4.975-4.827-1.372 1.207-2.402 2.587-3.431 3.966M1.17 35.346c1.716.517 3.431.69 5.147.862-.172-2.241.172-4.483.858-6.897a21.003 21.003 0 013.088-6.206c-1.544-.863-3.088-1.724-4.804-2.07M33.08 10.907l.172 5.345c-4.29-1.552-9.093-1.724-13.725 0-.514.172-.858.172-1.03.517l-.17-5.344M38.412 35.691c0 6.623-5.44 12.087-12.023 12.087-6.584 0-12.024-5.464-12.024-12.087 0-6.622 5.44-12.086 12.024-12.086 6.583 0 12.023 5.464 12.023 12.086z" stroke="#fff"/><path d="M33.498 35.545c0 3.834-3.166 7-7 7-3.833 0-7-3.166-7-7 0-3.833 3.167-7 7-7 3.834 0 7 3.167 7 7z" fill="#fff" stroke="#fff"/><path d="M52.389 70.08c14.067 0 25.39-11.38 25.39-25.518 0-14.137-11.323-25.517-25.39-25.517-14.068 0-25.39 11.38-25.39 25.517.17 13.966 11.494 25.517 25.39 25.517z" fill="url(#paint1_linear)"/><path d="M64.412 44.736c0 6.623-5.44 12.087-12.024 12.087-6.584 0-12.024-5.464-12.024-12.087 0-6.622 5.44-12.086 12.024-12.086 6.584 0 12.024 5.464 12.024 12.086z" fill="url(#paint2_linear)" stroke="#fff"/><path d="M59.498 44.545c0 3.834-3.166 7-7 7-3.833 0-7-3.166-7-7 0-3.833 3.167-7 7-7 3.834 0 7 3.167 7 7z" stroke="#fff"/></g><defs><linearGradient id="paint0_linear" x1="41.498" y1="47.545" x2="-.157" y2="27.439" gradientUnits="userSpaceOnUse"><stop stop-color="#211087"/><stop offset="1" stop-color="#3803CE" stop-opacity=".9"/></linearGradient><linearGradient id="paint1_linear" x1="52.748" y1="44.382" x2="50.245" y2="82.931" gradientUnits="userSpaceOnUse"><stop stop-color="#DDE7FF"/><stop offset="1" stop-color="#DDE7FF" stop-opacity="0"/></linearGradient><linearGradient id="paint2_linear" x1="39.799" y1="44.626" x2="64.977" y2="44.626" gradientUnits="userSpaceOnUse"><stop stop-color="#FA6400"/><stop offset="1" stop-color="#FFB500" stop-opacity=".95"/></linearGradient><clipPath id="clip0"><path fill="#fff" transform="translate(.998 10)" d="M0 0h80v60H0z"/></clipPath></defs></svg>