<svg width="80" height="80" fill="none" xmlns="http://www.w3.org/2000/svg"><g clip-path="url(#clip0)"><path d="M14.298 70.362l33.754-4.907c1.227-.153 1.995-1.227 1.841-2.454l-7.825-52.139c-.153-1.227-1.227-1.84-2.454-1.84L5.86 13.929c-1.228.153-1.995 1.227-1.842 2.454l7.825 52.292c.154 1.074 1.228 1.84 2.455 1.687z" fill="url(#paint0_linear)"/><path d="M11.23 16.537c-.614.153-1.074.46-1.227 1.073-.307-.46-.92-.767-1.381-.613-.767.153-1.227.767-1.227 1.533.306 1.84 2.915 2.914 3.068 2.914 0 0 2.302-1.687 2.148-3.527-.153-.92-.767-1.534-1.38-1.38z" fill="#fff"/><path d="M28.414 49.508s.153-.153.46-.306c.154 0 .154-.154.154-.154 2.148-1.687 8.745-7.667 7.67-13.955-.46-2.913-2.914-4.754-5.523-4.6l-.46.153c-1.84.307-3.375 1.534-4.142 3.067-.154.307-.154.614-.307.92-.154-.306-.46-.46-.614-.92-1.227-1.38-2.915-2.147-4.91-1.84-2.915.46-4.91 3.22-4.602 5.98 1.074 6.595 9.052 10.275 11.507 11.349.153.153.46.153.46.153.153.153.153.153.307.153zm0 0s-.154 0 0 0v0z" stroke="#fff"/><path d="M30.254 65.15l33.754 5.827c1.228.153 2.302-.46 2.609-1.687l9.359-51.986c.153-1.227-.46-2.147-1.688-2.453L40.534 9.023c-1.227-.153-2.301.46-2.608 1.687l-9.36 51.986c-.153 1.227.614 2.3 1.688 2.454z" fill="url(#paint1_linear)"/><path d="M51.274 44.754l-3.836 4.754 5.83 1.074-1.994-5.828z" fill="url(#paint2_linear)"/><path d="M43.756 43.22c.92 1.227 2.148 1.994 3.529 2.147 1.534.153 2.915-.153 3.989-.92.92 1.073 1.994 1.84 3.529 2.147 1.534.153 2.915-.154 4.142-.92 1.228-.92 1.995-1.994 2.302-3.527 1.074-5.674-6.751-15.489-6.751-15.489s-10.74 6.594-11.66 12.268c-.307 1.84 0 3.22.92 4.294z" fill="url(#paint3_linear)"/><path d="M62.474 62.082l1.074-1.38-1.535-.307.46 1.687z" fill="url(#paint4_linear)"/><path d="M64.623 62.389c-.153-.307-.46-.46-1.074-.614-.46-.153-.92 0-1.227.154-.154-.307-.46-.46-.92-.614-.461-.153-.922 0-1.228.154-.307.153-.46.46-.614.92-.307 1.533 1.841 4.294 1.841 4.294s3.069-1.84 3.222-3.527c.46 0 .153-.46 0-.767z" fill="url(#paint5_linear)"/><path d="M41.762 18.072l-1.074 1.38 1.535.307-.46-1.687z" fill="url(#paint6_linear)"/><path d="M39.767 17.612c.153.306.46.46 1.074.613.46.153.92 0 1.227-.153.154.306.46.46.92.613.461.154.921 0 1.228-.153.307-.154.46-.46.614-.92.307-1.534-1.841-4.294-1.841-4.294s-3.069 1.84-3.222 3.527c-.46 0-.307.46 0 .767z" fill="url(#paint7_linear)"/></g><defs><linearGradient id="paint0_linear" x1="34.499" y1="9.045" x2="27.004" y2="52.546" gradientUnits="userSpaceOnUse"><stop stop-color="#211087"/><stop offset="1" stop-color="#3803CE" stop-opacity=".9"/></linearGradient><linearGradient id="paint1_linear" x1="45.724" y1="54.756" x2="43.884" y2="91.586" gradientUnits="userSpaceOnUse"><stop stop-color="#DDE7FF"/><stop offset="1" stop-color="#D9EAFF" stop-opacity="0"/></linearGradient><linearGradient id="paint2_linear" x1="47.405" y1="47.723" x2="53.214" y2="47.723" gradientUnits="userSpaceOnUse"><stop stop-color="#FA6400"/><stop offset="1" stop-color="#FFB500" stop-opacity=".95"/></linearGradient><linearGradient id="paint3_linear" x1="42.694" y1="36.722" x2="61.342" y2="36.722" gradientUnits="userSpaceOnUse"><stop stop-color="#FA6400"/><stop offset="1" stop-color="#FFB500" stop-opacity=".95"/></linearGradient><linearGradient id="paint4_linear" x1="61.983" y1="61.184" x2="63.568" y2="61.184" gradientUnits="userSpaceOnUse"><stop stop-color="#FA6400"/><stop offset="1" stop-color="#FFB500" stop-opacity=".95"/></linearGradient><linearGradient id="paint5_linear" x1="59.629" y1="64.121" x2="64.923" y2="64.121" gradientUnits="userSpaceOnUse"><stop stop-color="#FA6400"/><stop offset="1" stop-color="#FFB500" stop-opacity=".95"/></linearGradient><linearGradient id="paint6_linear" x1="40.751" y1="18.953" x2="42.335" y2="18.953" gradientUnits="userSpaceOnUse"><stop stop-color="#FA6400"/><stop offset="1" stop-color="#FFB500" stop-opacity=".95"/></linearGradient><linearGradient id="paint7_linear" x1="39.441" y1="15.911" x2="44.689" y2="15.911" gradientUnits="userSpaceOnUse"><stop stop-color="#FA6400"/><stop offset="1" stop-color="#FFB500" stop-opacity=".95"/></linearGradient><clipPath id="clip0"><path fill="#fff" transform="translate(3.999 9)" d="M0 0h72v62H0z"/></clipPath></defs></svg>