<svg width="81" height="80" fill="none" xmlns="http://www.w3.org/2000/svg"><g clip-path="url(#clip0)"><path d="M56.663 51.908h14.688S73 49.956 73 47.253c0-2.854-1.649-4.656-1.649-4.656H56.663v9.311z" fill="#D9EAFF"/><path d="M12.5 27.728v36.494h46.91V27.728" fill="url(#paint0_linear)"/><path d="M44.525 27.729H59.41C59.41 14.662 48.885 4 35.954 4 23.024 4 12.5 14.513 12.5 27.729h32.026z" fill="url(#paint1_linear)"/><path d="M42.777 27.729h11.69c0-10.513-8.393-18.923-18.734-18.923-10.341 0-18.734 8.41-18.734 18.923h25.778z" fill="url(#paint2_linear)"/><path d="M28.697 27.727a7.043 7.043 0 017.044-7.058 7.043 7.043 0 017.044 7.058" fill="url(#paint3_linear)"/><path d="M63.604 76H8v-7.509a4.354 4.354 0 014.346-4.355h47.061a4.354 4.354 0 014.347 4.355V76h-.15z" fill="#D9EAFF"/><path d="M39.785 71.194h-7.643a7.043 7.043 0 01-7.045-7.058H46.83c0 3.904-3.297 7.058-7.044 7.058z" fill="url(#paint4_linear)"/><path d="M59.293 56.263V37.641c2.547 0 4.646 2.103 4.646 4.656v9.16c.15 2.704-2.099 4.806-4.646 4.806z" fill="#4809FB"/><path d="M68.354 20.854h-2.398V42.63h2.398V20.854z" fill="#D9EAFF"/><path d="M67.24 23.672c1.948 0 3.446-1.652 3.446-3.604 0-1.953-1.648-3.605-3.447-3.605-1.948 0-3.447 1.652-3.447 3.605 0 1.952 1.499 3.604 3.447 3.604z" fill="url(#paint5_linear)"/><path d="M16.998 33.134h9.443v18.773h-9.442V33.134z" fill="url(#paint6_linear)"/><path d="M31.087 33.134h9.442v18.773h-9.442V33.134z" fill="url(#paint7_linear)"/><path d="M45.024 33.134h9.442v18.773h-9.442V33.134z" fill="url(#paint8_linear)"/><path d="M16.998 38.543h9.293M16.998 45.9h9.293M31.087 38.543h9.292M31.087 45.9h9.292M45.024 38.543h9.442M45.024 45.9h9.442" stroke="#D9EAFF" stroke-width="1.091" stroke-miterlimit="10"/></g><defs><linearGradient id="paint0_linear" x1="36.011" y1="31.546" x2="36.011" y2="54.546" gradientUnits="userSpaceOnUse"><stop stop-color="#211087"/><stop offset="1" stop-color="#3803CE"/></linearGradient><linearGradient id="paint1_linear" x1="35.785" y1="3.414" x2="35.785" y2="23.064" gradientUnits="userSpaceOnUse"><stop stop-color="#211087"/><stop offset="1" stop-color="#3803CE" stop-opacity=".9"/></linearGradient><linearGradient id="paint2_linear" x1="35.748" y1="6.976" x2="35.748" y2="22.259" gradientUnits="userSpaceOnUse"><stop stop-color="#fff"/><stop offset="1" stop-color="#F2F7FF"/></linearGradient><linearGradient id="paint3_linear" x1="28.691" y1="24.148" x2="42.753" y2="24.148" gradientUnits="userSpaceOnUse"><stop stop-color="#FA6400"/><stop offset="1" stop-color="#FFB500" stop-opacity=".95"/></linearGradient><linearGradient id="paint4_linear" x1="35.885" y1="64.045" x2="35.885" y2="71.045" gradientUnits="userSpaceOnUse"><stop stop-color="#211087"/><stop offset="1" stop-color="#3803CE" stop-opacity=".9"/></linearGradient><linearGradient id="paint5_linear" x1="65.753" y1="23.704" x2="68.745" y2="16.507" gradientUnits="userSpaceOnUse"><stop stop-color="#FA6400"/><stop offset="1" stop-color="#FFB500" stop-opacity=".95"/></linearGradient><linearGradient id="paint6_linear" x1="16.964" y1="42.467" x2="26.339" y2="42.467" gradientUnits="userSpaceOnUse"><stop stop-color="#fff"/><stop offset="1" stop-color="#F2F7FF"/></linearGradient><linearGradient id="paint7_linear" x1="31.026" y1="42.467" x2="40.402" y2="42.467" gradientUnits="userSpaceOnUse"><stop stop-color="#fff"/><stop offset="1" stop-color="#F2F7FF"/></linearGradient><linearGradient id="paint8_linear" x1="45.087" y1="42.467" x2="54.463" y2="42.467" gradientUnits="userSpaceOnUse"><stop stop-color="#fff"/><stop offset="1" stop-color="#F2F7FF"/></linearGradient><clipPath id="clip0"><path fill="#fff" transform="translate(8 4)" d="M0 0h65v72H0z"/></clipPath></defs></svg>