<svg width="91" height="80" fill="none" xmlns="http://www.w3.org/2000/svg"><path d="M39.4 76.971c21.258 0 38.485-17.227 38.485-38.486C77.885 17.045 60.658 0 39.4 0 18.14 0 .914 17.227.914 38.486.914 59.928 18.141 76.97 39.4 76.97z" fill="url(#paint0_linear)"/><path d="M58.5 38.545c0 10.403-8.598 19-19 19-10.403 0-19-8.597-19-19 0-10.402 8.597-19 19-19 10.402 0 19 8.598 19 19z" stroke="#fff"/><path d="M32.984 34.643c.242-2.231 1.452-4.71 6.293-4.71 3.873 0 5.81 1.983 5.81 4.71 0 1.983-1.21 2.975-2.18 3.223 1.211.495 2.906 1.24 2.906 3.966 0 2.727-1.695 5.206-6.536 5.206-4.84 0-6.293-2.975-6.293-4.958h4.599c.242.992.484 1.735 1.936 1.735 1.21 0 1.695-.743 1.695-2.23 0-1.24-.484-2.232-2.179-2.232h-1.21v-2.975h1.21c1.453 0 1.937-.495 1.937-1.735 0-.992-.485-1.487-1.453-1.487-.968 0-1.452.495-1.452 1.735l-5.083-.248z" fill="url(#paint1_linear)"/><path d="M65.377 79.75c13.76 0 24.909-11.15 24.909-24.908a24.83 24.83 0 00-24.909-24.909c-13.759 0-24.908 11.15-24.908 24.909A24.83 24.83 0 0065.377 79.75z" fill="url(#paint2_linear)"/><path d="M65.509 66.64c6.82 0 12.454-5.634 12.454-12.454S72.33 41.732 65.51 41.732s-12.454 5.634-12.454 12.454S58.689 66.64 65.509 66.64z" fill="url(#paint3_linear)"/><path d="M65.198 56.345c.149.405.297.675.89.675.891 0 1.04-1.08 1.188-2.16-.445.406-1.187.676-1.781.676-1.93 0-3.265-1.215-3.265-2.834 0-1.89 1.484-3.104 3.859-3.104 2.968 0 4.007 1.889 4.007 4.318 0 2.564-.89 4.859-4.156 4.859-2.671 0-3.562-1.35-3.71-2.565h2.968v.135zm0-3.778c0 .81.297 1.214 1.04 1.214.741 0 1.038-.405 1.038-1.214 0-.675-.297-1.215-1.039-1.215-.594 0-1.039.405-1.039 1.215z" fill="url(#paint4_linear)"/><defs><linearGradient id="paint0_linear" x1="-18" y1="23.545" x2="66.418" y2="46.277" gradientUnits="userSpaceOnUse"><stop offset=".328" stop-color="#3803CE" stop-opacity=".9"/><stop offset="1" stop-color="#211087"/></linearGradient><linearGradient id="paint1_linear" x1="3.348" y1="75.134" x2="89.677" y2="-9.159" gradientUnits="userSpaceOnUse"><stop stop-color="#fff"/><stop offset="1" stop-color="#F2F7FF"/></linearGradient><linearGradient id="paint2_linear" x1="58.502" y1="66.698" x2="35.976" y2="94.014" gradientUnits="userSpaceOnUse"><stop stop-color="#DDE7FF"/><stop offset="1" stop-color="#DDE7FF" stop-opacity="0"/></linearGradient><linearGradient id="paint3_linear" x1="52.989" y1="54.077" x2="78.028" y2="54.077" gradientUnits="userSpaceOnUse"><stop stop-color="#FA6400"/><stop offset="1" stop-color="#FFB500" stop-opacity=".95"/></linearGradient><linearGradient id="paint4_linear" x1="39.709" y1="78.212" x2="86.508" y2="26.745" gradientUnits="userSpaceOnUse"><stop stop-color="#fff"/><stop offset="1" stop-color="#F2F7FF"/></linearGradient></defs></svg>