<svg width="81" height="80" fill="none" xmlns="http://www.w3.org/2000/svg"><g clip-path="url(#clip0)"><path d="M41 76c19.95 0 36-16.05 36-36S60.95 4 41 4 5 20.05 5 40s16.05 36 36 36z" fill="url(#paint0_linear)"/><path d="M41 69.045c16.127 0 29-13.014 29-29 0-16.126-13.015-29-29-29-16.127 0-29 13.015-29 29-.14 16.127 12.873 29 29 29z" fill="url(#paint1_linear)"/><path d="M40.999 60.4c11.25 0 20.4-9.15 20.4-20.4 0-11.25-9.15-20.4-20.4-20.4-11.25 0-20.4 9.15-20.4 20.4 0 11.25 9.15 20.4 20.4 20.4z" stroke="#fff" stroke-miterlimit="10"/><path d="M42.5 31.751v-3.15h-3.15v3.15c0 3.6-2.85 6.45-6.45 6.45h-3.15v3.15h3.15c3.6 0 6.45 2.85 6.45 6.45v3.15h3.15v-3.15c0-3.6 2.85-6.45 6.45-6.45h3.15v-3.15h-3.15c-3.45 0-6.45-3-6.45-6.45z" fill="url(#paint2_linear)"/><path d="M41 9.249v-5.1M56.45 13.3L59 8.95M67.699 24.55l4.35-2.55M71.75 40h5.1M67.699 55.6l4.35 2.4M56.45 66.7L59 71.2M41 70.899v4.95M25.549 66.85l-2.55 4.35M14.3 55.6l-4.35 2.55M10.1 40.149H5M14.299 24.699l-4.5-2.55M25.549 13.45l-2.55-4.5" stroke="#fff"/><path d="M52.25 42.1c1.35 0 2.25-1.05 2.25-2.25 0-1.35-1.05-2.25-2.25-2.25-1.35 0-2.25 1.05-2.25 2.25s1.05 2.25 2.25 2.25z" fill="url(#paint3_linear)"/><path d="M41 30.851c1.35 0 2.25-1.05 2.25-2.25s-1.05-2.25-2.25-2.25c-1.35 0-2.25 1.05-2.25 2.25s.9 2.25 2.25 2.25z" fill="url(#paint4_linear)"/><path d="M41 53.35c1.35 0 2.25-1.05 2.25-2.25 0-1.35-1.05-2.25-2.25-2.25-1.35 0-2.25 1.05-2.25 2.25-.15 1.2.9 2.25 2.25 2.25z" fill="url(#paint5_linear)"/><path d="M29.75 42.1c1.35 0 2.25-1.05 2.25-2.25 0-1.35-1.05-2.25-2.25-2.25-1.35 0-2.25 1.05-2.25 2.25s1.05 2.25 2.25 2.25z" fill="url(#paint6_linear)"/></g><defs><linearGradient id="paint0_linear" x1="24.499" y1="10.045" x2="60.262" y2="54.313" gradientUnits="userSpaceOnUse"><stop stop-color="#211087"/><stop offset="1" stop-color="#3803CE"/><stop offset="1" stop-color="#3803CE" stop-opacity=".9"/></linearGradient><linearGradient id="paint1_linear" x1="40.999" y1="40.088" x2="8.934" y2="82.998" gradientUnits="userSpaceOnUse"><stop stop-color="#DDE7FF"/><stop offset="1" stop-color="#D9EAFF" stop-opacity="0"/></linearGradient><linearGradient id="paint2_linear" x1="29.681" y1="39.821" x2="52.151" y2="39.821" gradientUnits="userSpaceOnUse"><stop stop-color="#FA6400"/><stop offset="1" stop-color="#FFB500" stop-opacity=".95"/></linearGradient><linearGradient id="paint3_linear" x1="49.967" y1="39.756" x2="54.589" y2="39.756" gradientUnits="userSpaceOnUse"><stop stop-color="#FA6400"/><stop offset="1" stop-color="#FFB500" stop-opacity=".95"/></linearGradient><linearGradient id="paint4_linear" x1="38.669" y1="28.591" x2="43.291" y2="28.591" gradientUnits="userSpaceOnUse"><stop stop-color="#FA6400"/><stop offset="1" stop-color="#FFB500" stop-opacity=".95"/></linearGradient><linearGradient id="paint5_linear" x1="38.668" y1="51.05" x2="43.29" y2="51.05" gradientUnits="userSpaceOnUse"><stop stop-color="#FA6400"/><stop offset="1" stop-color="#FFB500" stop-opacity=".95"/></linearGradient><linearGradient id="paint6_linear" x1="27.498" y1="39.756" x2="32.12" y2="39.756" gradientUnits="userSpaceOnUse"><stop stop-color="#FA6400"/><stop offset="1" stop-color="#FFB500" stop-opacity=".95"/></linearGradient><clipPath id="clip0"><path fill="#fff" transform="translate(5 4)" d="M0 0h72v72H0z"/></clipPath></defs></svg>