<svg width="80" height="80" fill="none" xmlns="http://www.w3.org/2000/svg"><g clip-path="url(#clip0)"><path fill-rule="evenodd" clip-rule="evenodd" d="M8.736 76h38.363c2.727 0 4.727-2.182 4.727-4.727V32.91c0-2.727-2.182-4.727-4.727-4.727H8.736c-2.727 0-4.727 2.181-4.727 4.727v38.363C3.827 74 6.19 76 8.736 76z" fill="url(#paint0_linear)"/><path d="M40.009 68.726c-2.364 0-4.545-2-4.545-4.545 0-2.363 2-4.545 4.545-4.545 2.363 0 4.545 2 4.545 4.545-.182 2.546-2 4.545-4.545 4.545zM15.828 68.726c-2.363 0-4.545-2-4.545-4.545 0-2.363 2-4.545 4.545-4.545 2.364 0 4.546 2 4.546 4.545 0 2.546-2 4.545-4.546 4.545z" stroke="#fff"/><path fill-rule="evenodd" clip-rule="evenodd" d="M32.373 52.363H71.1c2.727 0 4.727-2.182 4.727-4.728V8.727C75.827 6 73.645 4 71.1 4H32.373c-2.727 0-4.727 2.182-4.727 4.727v38.727c0 2.727 2 4.909 4.727 4.909z" fill="url(#paint1_linear)"/><path d="M15.828 44.724c-2.363 0-4.545-2-4.545-4.545 0-2.364 2-4.546 4.545-4.546 2.364 0 4.546 2 4.546 4.546 0 2.545-2 4.545-4.546 4.545z" stroke="#fff"/><path fill-rule="evenodd" clip-rule="evenodd" d="M40.009 44.724c-2.364 0-4.545-2-4.545-4.545 0-2.364 2-4.546 4.545-4.546 2.363 0 4.545 2 4.545 4.546-.182 2.545-2 4.545-4.545 4.545z" fill="url(#paint2_linear)"/><path fill-rule="evenodd" clip-rule="evenodd" d="M52.008 32.545c-2.364 0-4.546-2-4.546-4.545 0-2.364 2-4.545 4.546-4.545 2.363 0 4.545 2 4.545 4.545 0 2.727-2 4.545-4.545 4.545z" fill="url(#paint3_linear)"/><path fill-rule="evenodd" clip-rule="evenodd" d="M40.009 20.545c-2.364 0-4.545-2-4.545-4.545 0-2.364 2-4.545 4.545-4.545 2.363 0 4.545 2 4.545 4.545-.182 2.727-2 4.545-4.545 4.545z" fill="url(#paint4_linear)"/><path fill-rule="evenodd" clip-rule="evenodd" d="M64.009 44.724c-2.364 0-4.545-2-4.545-4.545 0-2.364 2-4.546 4.545-4.546 2.364 0 4.545 2 4.545 4.546 0 2.545-2 4.545-4.545 4.545z" fill="url(#paint5_linear)"/><path fill-rule="evenodd" clip-rule="evenodd" d="M64.009 20.545c-2.364 0-4.545-2-4.545-4.545 0-2.364 2-4.545 4.545-4.545 2.364 0 4.545 2 4.545 4.545 0 2.727-2 4.545-4.545 4.545z" fill="url(#paint6_linear)"/></g><defs><linearGradient id="paint0_linear" x1="33.499" y1="23.545" x2="21.326" y2="60.805" gradientUnits="userSpaceOnUse"><stop stop-color="#211087"/><stop offset="1" stop-color="#3803CE" stop-opacity=".9"/></linearGradient><linearGradient id="paint1_linear" x1="45.087" y1="39.692" x2="23.203" y2="66.129" gradientUnits="userSpaceOnUse"><stop stop-color="#DDE7FF"/><stop offset="1" stop-color="#DDE7FF" stop-opacity="0"/></linearGradient><linearGradient id="paint2_linear" x1="36.782" y1="43.321" x2="68.213" y2="11.89" gradientUnits="userSpaceOnUse"><stop stop-color="#FA6400"/><stop offset="1" stop-color="#FFB500" stop-opacity=".95"/></linearGradient><linearGradient id="paint3_linear" x1="36.782" y1="43.324" x2="68.213" y2="11.893" gradientUnits="userSpaceOnUse"><stop stop-color="#FA6400"/><stop offset="1" stop-color="#FFB500" stop-opacity=".95"/></linearGradient><linearGradient id="paint4_linear" x1="24.762" y1="31.303" x2="56.193" y2="-.128" gradientUnits="userSpaceOnUse"><stop stop-color="#FA6400"/><stop offset="1" stop-color="#FFB500" stop-opacity=".95"/></linearGradient><linearGradient id="paint5_linear" x1="48.803" y1="55.341" x2="80.235" y2="23.91" gradientUnits="userSpaceOnUse"><stop stop-color="#FA6400"/><stop offset="1" stop-color="#FFB500" stop-opacity=".95"/></linearGradient><linearGradient id="paint6_linear" x1="36.783" y1="43.324" x2="68.215" y2="11.893" gradientUnits="userSpaceOnUse"><stop stop-color="#FA6400"/><stop offset="1" stop-color="#FFB500" stop-opacity=".95"/></linearGradient><clipPath id="clip0"><path fill="#fff" transform="translate(3.999 4)" d="M0 0h71.828v72H0z"/></clipPath></defs></svg>