<svg width="81" height="81" fill="none" xmlns="http://www.w3.org/2000/svg"><g clip-path="url(#clip0)"><path d="M62.01 4H18.98c-3.323 0-5.981 2.673-5.981 6.014v59.972c0 3.341 2.658 6.014 5.98 6.014h43.032c3.322 0 5.98-2.673 5.98-6.014V10.014C68.159 6.673 65.334 4 62.012 4z" fill="url(#paint0_linear)"/><path d="M62.84 58.962H51.708v11.193H62.84V58.962z" stroke="#fff" stroke-width="1.034" stroke-miterlimit="10"/><path d="M62.84 47.937H51.708v11.192H62.84V47.937z" stroke="#fff" stroke-width="1.034" stroke-miterlimit="10"/><path d="M62.84 36.91H51.708v11.193H62.84V36.911zM62.84 25.717H51.708V36.91H62.84V25.717zM51.71 58.962H40.58v11.193h11.132V58.962z" stroke="#fff" stroke-width="1.034" stroke-miterlimit="10"/><path d="M51.71 47.937H40.58v11.192h11.132V47.937z" stroke="#fff" stroke-width="1.034" stroke-miterlimit="10"/><path d="M51.71 36.91H40.58v11.193h11.132V36.911zM51.71 25.717H40.58V36.91h11.132V25.717zM40.91 58.962H29.78v11.193H40.91V58.962z" stroke="#fff" stroke-width="1.034" stroke-miterlimit="10"/><path d="M40.91 47.937H29.78v11.192H40.91V47.937z" stroke="#fff" stroke-width="1.034" stroke-miterlimit="10"/><path d="M40.91 36.91H29.78v11.193H40.91V36.911zM40.91 25.717H29.78V36.91H40.91V25.717zM29.779 58.962H18.647v11.193H29.78V58.962z" stroke="#fff" stroke-width="1.034" stroke-miterlimit="10"/><path d="M29.779 47.937H18.647v11.192H29.78V47.937z" stroke="#fff" stroke-width="1.034" stroke-miterlimit="10"/><path d="M29.779 36.91H18.647v11.193H29.78V36.911zM29.779 25.717H18.647V36.91H29.78V25.717z" stroke="#fff" stroke-width="1.034" stroke-miterlimit="10"/><path d="M57.026 20.374h-32.73c-2.99 0-5.483-2.506-5.483-5.513s2.492-5.513 5.483-5.513h32.73c2.99 0 5.483 2.506 5.483 5.513s-2.492 5.513-5.483 5.513z" fill="#fff"/><path d="M40.744 59.131c6.147 0 11.132-5.011 11.132-11.192S46.89 36.746 40.744 36.746c-6.147 0-11.132 5.012-11.132 11.193 0 6.18 4.985 11.192 11.132 11.192z" fill="url(#paint1_linear)"/><path d="M40.743 42.09l1.496 4.51h4.652l-3.822 2.84 1.496 4.51-3.822-2.84-3.82 2.84 1.494-4.51-3.82-2.84h4.817l1.33-4.51zM57.359 56.957c1.827 0 3.489-1.504 3.489-3.508 0-2.005-1.495-3.508-3.49-3.508-1.827 0-3.488 1.503-3.488 3.508 0 2.004 1.495 3.508 3.489 3.508zM24.13 45.765c1.827 0 3.489-1.504 3.489-3.508 0-1.838-1.496-3.509-3.49-3.509-1.827 0-3.488 1.504-3.488 3.509 0 2.004 1.495 3.508 3.489 3.508zM35.095 34.739c1.827 0 3.489-1.504 3.489-3.508 0-1.838-1.495-3.508-3.49-3.508-1.827 0-3.488 1.503-3.488 3.508.166 1.837 1.661 3.508 3.489 3.508zM46.227 67.984c1.828 0 3.489-1.503 3.489-3.508 0-1.837-1.495-3.508-3.489-3.508-1.827 0-3.489 1.503-3.489 3.508s1.662 3.508 3.49 3.508z" fill="#fff"/></g><path d="M62.499 80.045c9.666 0 17.5-7.61 17.5-17 0-9.471-7.834-17-17.5-17-9.667 0-17.5 7.61-17.5 17 0 9.472 7.833 17 17.5 17z" fill="url(#paint2_linear)"/><path d="M62.499 71.045c4.654 0 8.5-3.845 8.5-8.5 0-4.654-3.846-8.5-8.5-8.5-4.655 0-8.5 3.846-8.5 8.5 0 4.655 3.845 8.5 8.5 8.5z" fill="url(#paint3_linear)"/><path d="M62.263 64.192c.113.31.226.515.679.515.68 0 .792-.823.906-1.647-.34.309-.906.515-1.359.515-1.472 0-2.49-.927-2.49-2.162 0-1.441 1.132-2.368 2.943-2.368 2.264 0 3.057 1.442 3.057 3.294 0 1.956-.68 3.706-3.17 3.706-2.038 0-2.717-1.029-2.83-1.956h2.264v.103zm0-2.882c0 .618.226.927.792.927.566 0 .793-.31.793-.927 0-.515-.227-.926-.793-.926-.453 0-.792.309-.792.926z" fill="url(#paint4_linear)"/><defs><linearGradient id="paint0_linear" x1="12.999" y1="16.545" x2="51.155" y2="80.951" gradientUnits="userSpaceOnUse"><stop stop-color="#3803CE" stop-opacity=".9"/><stop offset="1" stop-color="#211087"/></linearGradient><linearGradient id="paint1_linear" x1="32.566" y1="56.198" x2="47.145" y2="41.698" gradientUnits="userSpaceOnUse"><stop stop-color="#FA6400"/><stop offset="1" stop-color="#FFB500" stop-opacity=".95"/></linearGradient><linearGradient id="paint2_linear" x1="57.668" y1="71.138" x2="42.385" y2="90.215" gradientUnits="userSpaceOnUse"><stop stop-color="#DDE7FF"/><stop offset="1" stop-color="#DDE7FF" stop-opacity="0"/></linearGradient><linearGradient id="paint3_linear" x1="53.954" y1="62.471" x2="71.043" y2="62.471" gradientUnits="userSpaceOnUse"><stop stop-color="#FA6400"/><stop offset="1" stop-color="#FFB500" stop-opacity=".95"/></linearGradient><linearGradient id="paint4_linear" x1="42.82" y1="80.872" x2="78.518" y2="41.614" gradientUnits="userSpaceOnUse"><stop stop-color="#fff"/><stop offset="1" stop-color="#F2F7FF"/></linearGradient><clipPath id="clip0"><path fill="#fff" transform="translate(12.999 4)" d="M0 0h55v72H0z"/></clipPath></defs></svg>