<svg width="120" height="120" viewBox="0 0 120 120" fill="none" xmlns="http://www.w3.org/2000/svg">
<g clip-path="url(#clip0)">
<path d="M59.9997 110.926C88.1256 110.926 110.926 88.1258 110.926 59.9999C110.926 31.874 88.1256 9.07349 59.9997 9.07349C31.8738 9.07349 9.07324 31.874 9.07324 59.9999C9.07324 88.1258 31.8738 110.926 59.9997 110.926Z" fill="#163385"/>
<path d="M59.9997 10.947C73.1145 10.947 85.4118 16.0567 94.6774 25.3223C103.943 34.5878 109.053 46.8851 109.053 60C109.053 73.1148 103.943 85.4121 94.6774 94.6776C85.4118 103.943 73.1145 109.053 59.9997 109.053C46.8849 109.053 34.5876 103.943 25.322 94.6776C16.0565 85.4121 10.9468 73.1148 10.9468 60C10.9468 46.8851 16.0565 34.5878 25.322 25.3223C34.5876 16.0567 46.8849 10.947 59.9997 10.947ZM59.9997 7.19995C30.8405 7.19995 7.19971 30.8407 7.19971 60C7.19971 89.1592 30.8405 112.8 59.9997 112.8C89.1589 112.8 112.8 89.1592 112.8 60C112.8 30.8407 89.1589 7.19995 59.9997 7.19995Z" fill="#084DBA"/>
<path d="M59.9998 91.4075C77.3456 91.4075 91.4073 77.3459 91.4073 60C91.4073 42.6541 77.3456 28.5925 59.9998 28.5925C42.6539 28.5925 28.5923 42.6541 28.5923 60C28.5923 77.3459 42.6539 91.4075 59.9998 91.4075Z" fill="#1075DC"/>
<path d="M60.0003 79.3486L61.1925 81.7672L63.8155 82.1419L61.9079 83.9814L62.3507 86.6384L60.0003 85.3781L57.6498 86.6384L58.0927 83.9814L56.1851 82.1419L58.808 81.7672L60.0003 79.3486Z" fill="#9FBAF3"/>
<path d="M50.666 77.4412L51.6198 79.3488L53.6978 79.6554L52.1989 81.1201L52.5396 83.2321L50.666 82.2443L48.7925 83.2321L49.1672 81.1201L47.6343 79.6554L49.7463 79.3488L50.666 77.4412Z" fill="#9FBAF3"/>
<path d="M69.334 77.4412L70.2537 79.3488L72.3657 79.6554L70.8328 81.1201L71.2075 83.2321L69.334 82.2443L67.4604 83.2321L67.8011 81.1201L66.3022 79.6554L68.3802 79.3488L69.334 77.4412Z" fill="#9FBAF3"/>
<path d="M59.9993 40.6514L61.1916 38.2328L63.8145 37.8581L61.9069 36.0186L62.3498 33.3616L59.9993 34.622L57.6489 33.3616L58.0917 36.0186L56.1841 37.8581L58.807 38.2328L59.9993 40.6514Z" fill="#9FBAF3"/>
<path d="M50.6665 42.5588L51.6203 40.6512L53.6983 40.3446L52.1994 38.8798L52.5401 36.7678L50.6665 37.7557L48.793 36.7678L49.1677 38.8798L47.6348 40.3446L49.7468 40.6512L50.6665 42.5588Z" fill="#9FBAF3"/>
<path d="M69.334 42.5588L70.2537 40.6512L72.3657 40.3446L70.8328 38.8798L71.2075 36.7678L69.334 37.7557L67.4604 36.7678L67.8011 38.8798L66.3022 40.3446L68.3802 40.6512L69.334 42.5588Z" fill="#9FBAF3"/>
<path d="M29.5122 31.284L30.5001 30.2961L32.9187 31.4543C33.2252 31.6246 33.5659 31.7949 33.8725 31.9653L33.9065 31.9312C33.7362 31.5905 33.5659 31.284 33.3956 30.9433L32.2714 28.5247L33.2593 27.5369L37.2448 31.5905L36.4273 32.4081L34.9625 30.9093C34.5878 30.5005 34.0769 29.8533 33.7362 29.4104L33.7021 29.4445L34.3153 30.7389L35.2691 32.8509L34.7581 33.3619L32.6461 32.374L31.3858 31.7268V31.7609C31.8286 32.1015 32.4758 32.6125 32.8505 33.0213L34.3153 34.5201L33.4978 35.3376L29.5122 31.284Z" fill="white"/>
<path d="M36.5633 28.4907C35.5073 26.9578 35.7798 25.493 37.0743 24.6073C38.3347 23.7557 39.7995 24.0282 40.8555 25.5611C41.9115 27.094 41.673 28.6269 40.3786 29.4786C39.1182 30.3642 37.6193 30.0236 36.5633 28.4907ZM39.7654 26.3106C39.1182 25.3567 38.3347 25.0842 37.6875 25.5271C37.0402 25.9699 37.0062 26.7875 37.6534 27.7413C38.3006 28.6951 39.1182 29.0016 39.7313 28.5588C40.3445 28.116 40.4126 27.2644 39.7654 26.3106Z" fill="white"/>
<path d="M42.8999 26.9237L43.2065 25.7995C43.7174 25.9358 44.2965 25.9358 44.7394 25.7314C45.2163 25.493 45.3866 25.1864 45.2163 24.8798C45.08 24.5392 44.7394 24.5732 44.1943 24.6073L43.3768 24.6413C42.7296 24.6754 42.0142 24.471 41.6736 23.7216C41.2648 22.87 41.7076 21.814 42.7977 21.3371C43.3768 21.0646 44.1262 20.9964 44.7734 21.2349L44.535 22.2568C44.0581 22.1546 43.6834 22.1546 43.2746 22.359C42.8658 22.5634 42.6955 22.8359 42.8317 23.1425C42.968 23.4491 43.3768 23.415 43.8877 23.381L44.6712 23.3469C45.4207 23.3128 45.9997 23.5513 46.3404 24.2666C46.7492 25.1182 46.3745 26.2083 45.1481 26.7874C44.4668 27.094 43.6493 27.1621 42.8999 26.9237Z" fill="white"/>
<path d="M47.6687 20.724L46.1699 21.2009L45.8633 20.179L50.0873 18.8845L50.3939 19.9065L48.895 20.3834L50.2576 24.7777L49.0313 25.1524L47.6687 20.724Z" fill="white"/>
<path d="M55.4011 19.0205L53.8341 19.1909L53.7319 18.1008L58.1263 17.658L58.2285 18.748L56.6615 18.9183L57.1043 23.5171L55.8099 23.6533L55.4011 19.0205Z" fill="white"/>
<path d="M60.0001 17.624L62.0439 17.7262C63.2362 17.7943 64.2241 18.2372 64.1559 19.5998C64.0878 20.8942 63.0659 21.4052 61.8736 21.3711L61.1242 21.3371L61.022 23.3809L59.7275 23.3128L60.0001 17.624ZM61.8055 20.3492C62.4868 20.3832 62.8615 20.1107 62.8955 19.5657C62.9296 19.0207 62.5549 18.7822 61.9077 18.7822L61.2604 18.7482L61.1923 20.3492H61.8055ZM61.6352 21.0305L62.5549 20.247L64.2241 23.5512L62.7933 23.4831L61.6352 21.0305Z" fill="white"/>
<path d="M65.6885 21.0985L66.3357 18.1008L67.5961 18.3733L66.9489 21.4732C66.7104 22.5633 66.9829 23.0061 67.5961 23.1424C68.2093 23.2786 68.6521 22.9721 68.8906 21.882L69.5378 18.7821L70.7641 19.0546L70.1169 22.0523C69.7081 23.9259 68.7884 24.5731 67.3576 24.2665C65.8929 23.9599 65.2797 22.9721 65.6885 21.0985Z" fill="white"/>
<path d="M70.7642 24.2326L71.752 23.6876C71.9905 24.1645 72.3993 24.5732 72.8421 24.7436C73.3531 24.948 73.6597 24.8458 73.7959 24.5051C73.9322 24.1645 73.6597 23.9601 73.2849 23.5854L72.7058 23.0403C72.2289 22.5975 71.8883 21.9503 72.1949 21.1668C72.5355 20.2811 73.5915 19.8723 74.6816 20.3152C75.2948 20.5536 75.8398 21.0305 76.1123 21.6778L75.2266 22.1887C74.9882 21.78 74.7157 21.5074 74.2728 21.3371C73.864 21.1668 73.5234 21.2349 73.4212 21.5415C73.2849 21.8822 73.5915 22.1206 74.0003 22.4953L74.5794 23.0403C75.1244 23.5513 75.3629 24.1304 75.0904 24.8798C74.7497 25.7655 73.7278 26.2424 72.4674 25.7655C71.752 25.493 71.1389 24.948 70.7642 24.2326Z" fill="white"/>
<path d="M78.5312 23.3468L77.1686 22.5974L77.6796 21.6436L81.5629 23.7556L81.052 24.7094L79.6894 23.9599L77.4752 28.0136L76.3511 27.4005L78.5312 23.3468Z" fill="white"/>
<path d="M83.0955 24.8118L85.957 26.9578L85.3097 27.8094L83.5043 26.4469L82.823 27.3666L84.39 28.5248L83.7428 29.3764L82.1758 28.2182L81.3923 29.2742L83.2999 30.7049L82.6527 31.5565L79.7231 29.3764L83.0955 24.8118Z" fill="white"/>
<path d="M87.6265 28.3884L88.7506 29.5466C89.9769 30.7729 90.1472 32.2037 88.7506 33.5662C87.3539 34.9288 85.9232 34.7926 84.765 33.6003L83.5728 32.408L87.6265 28.3884ZM85.3782 32.7487C86.0595 33.43 86.843 33.5662 87.8308 32.6124C88.7847 31.6586 88.6484 30.9092 87.9671 30.1938L87.7968 30.0235L85.2079 32.5443L85.3782 32.7487Z" fill="white"/>
<path d="M27.911 77.9861L28.6604 79.3146L24.6067 83.6748L23.9254 82.4826L26.0715 80.4047C26.4803 79.9959 26.9912 79.519 27.4341 79.1102L27.4 79.0761C26.8209 79.2465 26.1396 79.4509 25.5946 79.5871L22.7332 80.3706L22.0859 79.2124L27.911 77.9861ZM24.7089 79.1102L26.0715 81.4947L25.2199 82.0057L23.8573 79.6212L24.7089 79.1102Z" fill="white"/>
<path d="M30.0571 81.5627L31.2493 83.0956C32.0328 84.0835 32.3053 85.1395 31.2153 85.9911C30.1593 86.8087 29.0692 86.3658 28.3198 85.412L27.8769 84.867L26.344 86.0592L25.5605 85.0373L30.0571 81.5627ZM29.0692 84.7648C29.512 85.3098 29.9549 85.378 30.4318 85.0373C30.9087 84.6626 30.8405 84.2538 30.3977 83.6747L30.023 83.1978L28.6604 84.2538L29.0692 84.7648Z" fill="white"/>
<path d="M33.5318 85.8208L34.9625 87.1493C35.8822 88.0009 36.291 89.0229 35.3372 90.0448C34.4175 91.0327 33.2593 90.7601 32.4077 89.9085L31.8967 89.4316L30.5682 90.8283L29.6484 89.9426L33.5318 85.8208ZM33.0549 89.1251C33.5659 89.602 34.0428 89.602 34.4515 89.1932C34.8603 88.7503 34.7241 88.3416 34.2131 87.8647L33.7702 87.4559L32.578 88.7163L33.0549 89.1251Z" fill="white"/>
<path d="M37.6194 89.4998L39.2886 90.6579C40.2765 91.3392 40.8556 92.259 40.0721 93.349C39.3226 94.4391 38.1985 94.3369 37.2107 93.6216L36.5975 93.1787L35.4393 94.8479L34.3833 94.0985L37.6194 89.4998ZM37.2107 93.2469L38.4029 93.0765L38.0623 96.7555L36.87 95.9379L37.2107 93.2469ZM37.7216 92.7699C38.2667 93.1447 38.7436 93.1106 39.0501 92.6678C39.3567 92.1908 39.1864 91.8502 38.6073 91.4755L38.0623 91.1008L37.1425 92.4293L37.7216 92.7699Z" fill="white"/>
<path d="M40.8555 95.0522C41.639 93.3831 43.0697 92.8721 44.4323 93.5193C45.8289 94.1665 46.3058 95.5972 45.5224 97.2664C44.7389 98.9356 43.3082 99.5147 41.9115 98.8334C40.5149 98.1862 40.038 96.7214 40.8555 95.0522ZM44.3301 96.7214C44.807 95.6994 44.6707 94.8819 43.9554 94.5412C43.24 94.2006 42.5247 94.6094 42.0478 95.6313C41.5709 96.6533 41.7071 97.5389 42.3884 97.8455C43.0697 98.1862 43.8191 97.7433 44.3301 96.7214Z" fill="white"/>
<path d="M47.2256 94.916L48.52 95.2907L48.4178 98.0159C48.4178 98.6631 48.3497 99.2422 48.3497 99.8894H48.3838C48.7244 99.3444 48.9969 98.8334 49.3376 98.2543L50.7342 95.9039L51.9946 96.2786L48.7244 101.252L47.2596 100.809L47.2256 94.916Z" fill="white"/>
<path d="M52.8461 96.449L56.3548 96.994L56.1845 98.05L53.9362 97.7094L53.7659 98.8335L55.6735 99.106L55.5032 100.162L53.5956 99.8895L53.3912 101.184L55.7416 101.525L55.5713 102.581L51.9604 102.036L52.8461 96.449Z" fill="white"/>
<path d="M57.8196 97.0962L59.4206 97.1303C61.1579 97.1643 62.248 98.05 62.248 99.9917C62.2139 101.933 61.0898 102.853 59.4206 102.819L57.7515 102.785L57.8196 97.0962ZM59.2844 101.763C60.2382 101.763 60.9195 101.32 60.9195 99.9576C60.9195 98.595 60.3063 98.1522 59.3184 98.1522H59.08L59.0119 101.763H59.2844Z" fill="white"/>
<path d="M66.0634 99.583C65.6887 97.7435 66.6765 96.415 68.0732 96.1084C68.7885 95.9722 69.4358 96.1766 69.9127 96.4832L69.4358 97.437C69.0951 97.2326 68.7545 97.1304 68.3457 97.1985C67.5963 97.3688 67.1194 98.1523 67.3578 99.2764C67.5963 100.435 68.2776 100.98 69.0951 100.809C69.5379 100.707 69.8786 100.401 70.083 100.06L70.9005 100.707C70.5599 101.354 69.9808 101.763 69.2654 101.899C67.8688 102.206 66.4721 101.457 66.0634 99.583Z" fill="white"/>
<path d="M71.9565 95.1205L73.3872 94.5754L77.0321 99.2763L75.7718 99.7532L74.0685 97.3006C73.7279 96.8237 73.3532 96.2446 73.0125 95.7336H72.9785C73.0466 96.3468 73.1488 97.0281 73.1829 97.6072L73.4894 100.571L72.2631 101.014L71.9565 95.1205ZM72.5356 98.4588L75.0905 97.505L75.4311 98.4588L72.8763 99.4126L72.5356 98.4588Z" fill="white"/>
<path d="M77.9517 98.0841L78.1901 96.9599C78.7011 97.0621 79.2802 97.0281 79.689 96.8237C80.1659 96.5512 80.3021 96.2446 80.1318 95.9721C79.9615 95.6655 79.6208 95.6995 79.0758 95.7677L78.2923 95.8358C77.6451 95.9039 76.9297 95.7336 76.555 95.0182C76.1122 94.2007 76.4869 93.1106 77.5088 92.5656C78.0879 92.259 78.8033 92.1568 79.4846 92.3612L79.3142 93.3832C78.8373 93.315 78.4626 93.3491 78.0539 93.5535C77.6791 93.7579 77.5088 94.0644 77.6451 94.337C77.8154 94.6435 78.1901 94.5754 78.7352 94.5073L79.5186 94.4051C80.2681 94.3029 80.8812 94.5073 81.2559 95.2226C81.6988 96.0402 81.3922 97.1303 80.234 97.8115C79.5186 98.1522 78.7011 98.2884 77.9517 98.0841Z" fill="white"/>
<path d="M80.3364 90.9306L81.3924 90.1812L84.6626 94.848L83.6066 95.5974L80.3364 90.9306Z" fill="white"/>
<path d="M82.7207 89.2613L83.7086 88.3757L86.7063 89.4998L87.9666 90.0448L88.0007 90.0108C87.5579 89.602 86.9447 89.091 86.5019 88.5801L85.1733 87.0812L86.0931 86.2637L89.9083 90.4877L88.9205 91.3733L85.9228 90.2492L84.6624 89.7042L84.6283 89.7382C85.1052 90.147 85.6843 90.658 86.1272 91.169L87.4897 92.6678L86.57 93.4853L82.7207 89.2613Z" fill="white"/>
<path d="M89.1928 87.0472C87.7281 85.889 87.5577 84.4243 88.5115 83.1979C89.4654 82.0057 90.9642 81.8354 92.3949 82.9935C93.8597 84.1517 94.0641 85.6506 93.1103 86.8769C92.1905 88.0692 90.6576 88.2054 89.1928 87.0472ZM91.6114 84.0496C90.7257 83.3342 89.8741 83.3001 89.3972 83.9133C88.9203 84.5265 89.1247 85.3099 90.0444 86.0253C90.9301 86.7406 91.8158 86.8088 92.2927 86.1956C92.7696 85.5825 92.4971 84.7308 91.6114 84.0496Z" fill="white"/>
<path d="M95.0521 82.8572L94.6434 81.7672C95.1543 81.5968 95.6312 81.2562 95.8356 80.8474C96.1081 80.3705 96.04 80.0639 95.7675 79.8936C95.4609 79.7233 95.1884 79.9277 94.7796 80.2683L94.1324 80.7452C93.6214 81.154 92.9401 81.3925 92.2248 80.9837C91.4072 80.5068 91.1688 79.4167 91.7479 78.3948C92.0544 77.8157 92.6335 77.3388 93.2808 77.1685L93.6555 78.1223C93.2126 78.2926 92.9061 78.531 92.7017 78.9398C92.4973 79.3145 92.4973 79.6552 92.8039 79.8255C93.1105 79.9958 93.417 79.7233 93.8258 79.4167L94.439 78.9398C95.0181 78.4629 95.6312 78.3267 96.3466 78.7014C97.1641 79.1783 97.5048 80.2683 96.8235 81.4265C96.4488 82.0738 95.8015 82.6188 95.0521 82.8572Z" fill="white"/>
<path d="M27.0253 69.402C26.5143 68.0054 26.0374 66.6087 25.5264 65.2121C24.0957 61.465 22.2222 57.9904 19.8377 54.7883C19.3267 54.073 19.3267 54.073 19.1904 52.9488C20.9277 54.107 22.3584 55.4696 23.6869 56.9003C25.0495 58.3651 26.378 59.8639 27.7066 61.3287C28.0813 61.2947 28.2857 60.9881 28.5241 60.7837C34.1788 55.7762 40.1401 51.2456 46.8508 47.771C47.7706 47.2941 48.6903 46.8854 49.61 46.4085C49.9507 46.2381 50.1891 46.2722 50.3254 46.715C49.3375 47.3963 48.3156 48.1117 47.3277 48.793C42.4565 52.1994 37.8237 55.8784 33.8041 60.3068C31.4196 62.9297 29.3076 65.7571 27.5362 68.8229C27.434 68.9932 27.3318 69.1295 27.2297 69.2998C27.1615 69.3339 27.1275 69.368 27.0253 69.402Z" fill="white"/>
<path d="M88.6483 64.3264C87.7626 64.3264 86.911 64.3264 86.0934 64.3264C85.6847 64.3264 85.7187 63.9517 85.6847 63.7132C85.4803 62.7935 85.3099 61.8397 85.1737 60.9199C85.1056 60.443 84.9012 60.2727 84.3902 60.2727C82.6189 60.2727 82.6188 60.2387 82.0398 61.9078C81.8013 62.555 81.5629 63.2023 81.3244 63.8836C81.1881 64.2583 80.9838 64.3945 80.609 64.3605C79.9959 64.3264 79.3827 64.3605 78.6333 64.3605C79.2124 62.7594 79.7234 61.2606 80.2684 59.7277C80.9838 57.7179 81.6991 55.7081 82.4145 53.6983C82.5848 53.2214 82.8232 53.0851 83.3001 53.051C85.2759 53.017 87.2516 52.9148 89.2274 53.051C91.2372 53.2214 92.0888 54.4817 91.4756 56.3894C90.9647 57.8882 90.0449 58.9783 88.6142 59.6255C88.0692 59.8639 87.8648 60.1705 88.0351 60.8178C88.3076 61.9419 88.4439 63.1001 88.6483 64.3264ZM83.4364 58.0585C84.9012 58.0926 86.2297 58.2629 87.5241 57.9223C88.2736 57.7179 88.7505 57.1728 88.8867 56.3894C89.023 55.6399 88.7505 55.2652 88.001 55.2312C86.945 55.1971 85.9231 55.2312 84.8671 55.2312C84.6287 55.2312 84.4243 55.2652 84.3221 55.5377C84.0496 56.3212 83.743 57.1047 83.4364 58.0585Z" fill="white"/>
<path d="M67.835 56.0487C67.5625 60.0343 65.2802 63.4748 61.3287 64.3605C60.6134 64.5308 59.898 64.6671 59.1145 64.4967C56.9685 64.088 55.9806 63.032 56.185 60.8518C56.4575 57.9223 57.7179 55.5037 60.2387 53.9027C61.7375 52.9489 63.4067 52.6082 65.178 52.9148C66.9494 53.2214 67.835 54.2433 67.835 56.0487ZM63.2363 55.0949C62.8957 55.0609 62.521 55.129 62.1463 55.2652C60.3068 55.9806 58.6717 58.6036 58.8761 60.5793C58.9783 61.7034 59.7277 62.3507 60.8518 62.2485C61.4991 62.1803 62.1463 62.01 62.6572 61.6012C64.1561 60.4431 64.8033 58.842 65.1099 57.0707C65.3143 55.8443 64.5649 55.0949 63.2363 55.0949Z" fill="white"/>
<path d="M75.6355 60.7156C75.0564 60.4772 74.4773 60.7497 73.8982 60.4772C74.1026 59.8981 74.273 59.353 74.4773 58.808C74.5455 58.5696 74.6817 58.4674 74.9202 58.4674C76.2487 58.4674 77.5772 58.4674 79.0079 58.4674C78.531 60.409 77.7135 62.0101 76.1465 63.2023C74.5114 64.4286 72.6719 64.7352 70.7302 64.3946C68.6864 64.0199 68.0051 62.3848 68.2095 60.5112C68.6523 56.5938 71.4797 53.5961 75.329 52.8467C76.385 52.6423 77.4069 52.8126 78.3948 53.1874C79.2464 53.528 79.6551 54.2434 79.7914 55.129C79.8595 55.4697 79.7573 55.7081 79.3826 55.8103C79.1442 55.8444 78.9057 55.9466 78.6673 56.0488C77.8838 56.3894 77.2025 56.5938 76.5553 55.64C76.0443 54.8906 75.1246 54.8225 74.273 55.1972C71.9906 56.2532 70.9346 58.263 70.9006 60.4772C70.9006 61.431 71.4115 61.976 72.3313 62.1804C73.6939 62.487 75.0564 61.9079 75.6355 60.7156Z" fill="white"/>
<path d="M100.23 52.949C100.435 56.7642 100.639 60.4772 100.843 64.2925C99.9236 64.2925 99.0719 64.2925 98.1863 64.2925C98.016 63.7134 98.1181 63.0661 98.0841 62.453C98.05 61.9761 97.8456 61.8057 97.4028 61.8398C96.3468 61.8739 95.2567 61.8739 94.2007 61.8398C93.7919 61.8398 93.5535 61.9761 93.315 62.2826C92.9403 62.8277 92.4975 63.3046 92.1569 63.8496C91.8843 64.2584 91.5778 64.3946 91.1009 64.3606C90.4877 64.3265 89.8405 64.3606 89.1592 64.3606C89.4998 63.6793 89.9767 63.1683 90.3855 62.6233C92.6678 59.6256 94.9842 56.662 97.2665 53.6643C97.6412 53.1874 98.05 52.9149 98.6972 52.983C99.1401 52.983 99.617 52.949 100.23 52.949ZM97.9138 56.2873C97.8456 56.2532 97.7775 56.2192 97.7094 56.1851C96.9259 57.2411 96.1424 58.2971 95.2567 59.5575C96.1765 59.5575 96.8578 59.5575 97.539 59.5575C97.7775 59.5575 97.9138 59.3872 97.9138 59.1487C97.9138 58.1949 97.9138 57.2411 97.9138 56.2873Z" fill="white"/>
<path d="M20.7236 51.6884C21.3027 51.8587 21.8137 51.995 22.3247 52.1653C22.7675 52.3356 23.006 52.1994 23.1763 51.7565C23.3807 51.2456 23.6532 50.7346 23.8916 50.2577C25.0158 47.9072 27.7409 47.0897 30.0573 47.5666C31.5902 47.8732 32.1352 49.2358 31.4199 50.7005C30.6364 52.3356 29.2398 53.2554 27.5025 53.6641C27.264 53.7323 26.9915 53.7323 26.7871 53.8685C26.9915 54.6861 27.7069 55.1971 28.6947 55.2652C29.9892 55.3674 31.1814 54.9586 32.3056 54.3454C33.4638 53.6982 34.4516 52.8125 35.5076 51.9609C35.7801 52.1994 35.9845 52.4378 35.712 52.7785C34.6901 54.0048 33.6341 55.2652 32.3056 56.1509C30.7045 57.2069 28.9332 57.5475 27.0256 57.1047C25.9014 56.8662 24.8795 56.2871 24.3345 55.2652C23.7213 54.0729 22.7675 53.4257 21.6093 52.9488C20.9621 52.7444 20.7918 52.4378 20.7236 51.6884ZM26.208 52.4038C27.3321 52.3016 28.32 52.0972 29.2057 51.484C29.7167 51.1093 30.0914 50.6324 30.1595 50.0192C30.2617 49.4061 29.9211 48.9292 29.376 48.7929C28.3541 48.5885 27.5365 48.9292 26.8893 49.7127C26.2421 50.4621 25.9355 51.3478 26.208 52.4038Z" fill="white"/>
<path d="M54.5157 61.908C53.3575 63.3387 51.8928 64.1222 50.1555 64.4628C49.2017 64.6332 48.2479 64.5991 47.3281 64.2584C45.7952 63.7134 45.0117 62.2827 45.2502 60.4773C45.7611 56.6961 48.4182 53.6984 52.0631 52.8468C53.085 52.6084 54.141 52.6424 55.1289 53.0512C56.1168 53.46 56.7299 54.1413 56.8662 55.2995C56.1168 55.572 55.3673 55.8786 54.6179 56.1511C54.3454 56.2533 54.1751 56.0489 54.0048 55.9126C52.8466 54.8566 51.6884 54.7885 50.3939 55.7082C48.9292 56.7642 48.1457 58.229 47.9413 60.0004C47.7369 61.5333 48.9632 62.5211 50.4621 62.1805C51.1433 62.0102 51.7224 61.6695 52.2675 61.2608C52.7444 60.8861 53.1532 60.852 53.596 61.2948C53.8685 61.5333 54.1751 61.6695 54.5157 61.908Z" fill="white"/>
<path d="M38.4372 61.2265C38.5053 62.2484 39.0844 62.6912 40.0383 62.5209C40.1064 62.5209 40.1745 62.4868 40.2426 62.4528C41.2646 61.8056 41.8437 62.3847 42.3546 63.1681C41.1964 64.5989 38.1647 64.9054 36.8021 63.6791C36.0186 62.9638 36.0186 62.0099 36.2912 61.0902C36.9724 58.5694 38.5394 56.9343 41.1965 56.4234C42.8997 56.1168 44.126 57.1728 43.9897 58.9101C43.8194 61.0561 43.8194 61.0561 41.6734 61.0561C40.6514 61.0561 39.6295 61.0561 38.6075 61.0902C38.5394 61.1583 38.4713 61.1924 38.4372 61.2265ZM39.3229 59.421C39.4251 59.4551 39.4932 59.4892 39.5614 59.4892C40.1064 59.4892 40.6174 59.4892 41.1624 59.4892C41.4349 59.4892 41.8096 59.5914 41.8777 59.1485C41.9459 58.7057 41.7074 58.4332 41.2986 58.2969C40.5833 58.0585 39.6635 58.5694 39.3229 59.421Z" fill="white"/>
</g>
<defs>
<clipPath id="clip0">
<rect x="7.19971" y="7.19995" width="105.6" height="105.6" fill="white"/>
</clipPath>
</defs>
</svg>
