<svg xmlns="http://www.w3.org/2000/svg" viewBox="0 0 182.07 149.15"><title>777 Casino</title><g id="Layer_2" data-name="Layer 2"><g id="_777_Casino" data-name="777 Casino"><path d="M87.55,0a.48.48,0,0,0,.18.08,40.39,40.39,0,0,1,6.59.83,35.08,35.08,0,0,1,5.86,1.7,39,39,0,0,1,4.51,2.06,37.27,37.27,0,0,1,6.16,4.1c1.09.9,2.12,1.85,3.15,2.82a43.46,43.46,0,0,0,8.24,6.09,47.93,47.93,0,0,0,9.5,4.13,43.85,43.85,0,0,0,6.49,1.48c1.24.18,2.48.32,3.73.42,2.56.18,5.12.1,7.68.16a31.21,31.21,0,0,1,9.2,1.47,23.75,23.75,0,0,1,7.3,4,17,17,0,0,1,4.71,6l.19.36c0,.05,0,.15.1.13h0c-.07.23.1.38.17.57s0,.09.06.11h0c.17.61.36,1.21.51,1.81a33.94,33.94,0,0,1,.46,10.92c-.16,2-.35,4-.53,6l-.6,6.75-.72,7.73c-.2,2.2-.4,4.39-.61,6.59q-.27,3-.55,6T168.8,88l-.54,5.89c-.18,1.93-.35,3.87-.53,5.8-.15,1.57-.32,3.13-.46,4.7a19.4,19.4,0,0,1-1,4.88,18.81,18.81,0,0,1-7,8.74,27.58,27.58,0,0,1-8.39,4q-25.26,7.74-50.51,15.47a45.35,45.35,0,0,1-12.49,2.22,44.73,44.73,0,0,1-14.36-1.81q-22.66-7-45.36-13.89c-3.13-1-6.29-1.82-9.35-3a2.61,2.61,0,0,0-.77-.27h0c0-.08-.1-.08-.17-.09a7.28,7.28,0,0,0-1.49-.64h0c0-.12-.07-.09-.13-.09a33.65,33.65,0,0,1-4.08-2.72,19.33,19.33,0,0,1-4.84-5.66A16.41,16.41,0,0,1,5.47,106c-.17-1.09-.24-2.19-.35-3.29s-.22-2-.31-3c-.07-.73-.12-1.46-.19-2.2-.1-1.11-.21-2.22-.31-3.33-.07-.71-.12-1.41-.18-2.12C4,91,3.92,89.92,3.82,88.85c-.07-.69-.12-1.38-.18-2.07-.11-1.1-.22-2.2-.32-3.3-.06-.72-.11-1.44-.18-2.15-.1-1.06-.21-2.12-.31-3.17-.07-.72-.12-1.44-.18-2.16-.1-1.1-.21-2.2-.32-3.29s-.17-2-.26-3-.21-2.2-.31-3.3c-.07-.7-.11-1.41-.18-2.11-.1-1-.21-2.09-.31-3.13-.07-.67-.12-1.33-.18-2C1,58.05.87,56.9.77,55.75.7,55,.66,54.28.59,53.55.49,52.42.38,51.3.28,50.17.21,49.41.16,48.65.1,47.89A46.46,46.46,0,0,1,0,43.17a19.09,19.09,0,0,1,2.15-8.82,16.54,16.54,0,0,1,4.16-5,23.46,23.46,0,0,1,4.59-2.92,24.61,24.61,0,0,1,6.86-2.12,39.6,39.6,0,0,1,4.34-.43c1.32-.08,2.63-.06,3.94-.05s2.63,0,3.94-.11a44.94,44.94,0,0,0,7.91-1.17,46.36,46.36,0,0,0,11.42-4.36,41.93,41.93,0,0,0,6.89-4.63c1.17-1,2.26-2,3.38-3A39.09,39.09,0,0,1,67.17,5a39.9,39.9,0,0,1,7.48-3.22A33.05,33.05,0,0,1,80.8.49a31.83,31.83,0,0,1,4-.41A.48.48,0,0,0,85,0ZM167,33.22s0-.09-.09-.08h0a1.88,1.88,0,0,0-.47-.61,19.55,19.55,0,0,0-6.86-4.63A27.81,27.81,0,0,0,149.38,26c-1.78,0-3.56,0-5.35-.06a46.52,46.52,0,0,1-9.83-1.26A47,47,0,0,1,112.41,13a40.37,40.37,0,0,0-8.92-6.55A38.34,38.34,0,0,0,88.58,2.24a27.64,27.64,0,0,0-5.82.14,41.58,41.58,0,0,0-7.4,1.46A37.74,37.74,0,0,0,60.18,13a45.49,45.49,0,0,1-14.08,9.2A49.13,49.13,0,0,1,26.7,26c-2.07,0-4.14,0-6.2.16a24.7,24.7,0,0,0-8.17,2,18.12,18.12,0,0,0-7.21,5.57,16.28,16.28,0,0,0-3,9.29,48,48,0,0,0,.22,6.45c.2,2.08.36,4.17.54,6.26.21,2.29.43,4.58.64,6.87q.25,2.86.52,5.73c.2,2.18.42,4.36.62,6.55s.4,4.5.61,6.75c.23,2.56.47,5.13.71,7.69q.3,3.36.61,6.71c.25,2.76.54,5.51.78,8.26a15,15,0,0,0,3.46,8.58,11.42,11.42,0,0,0,2.06,2.05h0a.2.2,0,0,0,.17.17h0a.1.1,0,0,0,.09.09,20.07,20.07,0,0,0,5.29,3.32.37.37,0,0,0,.38,0h0c0,.21.15.27.33.25h0c0,.09.06.07.1.09a5.45,5.45,0,0,0,1.21.48c4,1.33,8,2.49,12,3.71,13.33,4.09,26.67,8.14,40,12.26a45,45,0,0,0,13,2.25,42,42,0,0,0,12.62-1.65l39.29-12c4.75-1.46,9.51-2.85,14.24-4.39a22,22,0,0,0,9.27-5.65,14.57,14.57,0,0,0,4-7.81c.45-2.84.62-5.71.89-8.58q.27-2.88.52-5.77.36-3.84.71-7.69.31-3.31.61-6.63l.63-6.66c.18-2,.34-3.93.52-5.9.23-2.47.48-4.93.7-7.4.25-2.67.46-5.35.7-8a39.45,39.45,0,0,0,.05-8.13,14.41,14.41,0,0,0-.73-3.36,12.54,12.54,0,0,0-2.37-4.44l-.1-.1h0c0-.05,0-.09-.09-.09Z" style="fill:#faf3d3"/><path d="M16.38,119.94a7.28,7.28,0,0,1,1.49.64.12.12,0,0,0,.17.09h0c0,.08.06.12.12.16.62.34,1.24.7,1.88,1a53.34,53.34,0,0,0,7.34,2.6l16.52,5.05,16.16,4.94c5.51,1.68,11,3.35,16.52,5a37.75,37.75,0,0,0,10,1.75,54.81,54.81,0,0,0,6.78-.13,36.68,36.68,0,0,0,5.09-.81c3.38-.8,6.66-1.95,10-2.95,3.16-.94,6.3-1.93,9.46-2.89L132.35,130l8.67-2.66c4.34-1.33,8.69-2.64,13-4a23.5,23.5,0,0,0,10.42-6.25,16,16,0,0,0,4-7.37A27.07,27.07,0,0,0,169,106c.12-1.32.26-2.64.38-4,.1-1,.18-2,.27-3,.13-1.38.27-2.77.39-4.16s.23-2.58.35-3.88.27-2.88.4-4.32l.27-2.94.39-4.12c.09-1,.17-2,.26-3,.13-1.36.27-2.72.4-4.08.09-1,.17-2,.26-3.06l.39-4c.12-1.29.24-2.58.35-3.88s.27-2.88.39-4.32c.1-1,.16-2.1.27-3.15.18-1.63.31-3.26.37-4.9a37.75,37.75,0,0,0,0-4,19.11,19.11,0,0,0-1.64-6.78,7.54,7.54,0,0,0-1.12-1.89h0c0-.06,0-.09-.06-.11-.07-.19-.24-.34-.17-.57l1.58,1.55c1.73,1.75,3.52,3.43,5.18,5.23a15.59,15.59,0,0,1,3.85,8.3,36.27,36.27,0,0,1,.13,8.65c-.22,2.72-.47,5.43-.71,8.15-.22,2.44-.46,4.88-.68,7.32l-.63,6.88c-.21,2.26-.41,4.53-.64,6.79-.09.92-.15,1.84-.26,2.76-.09.73-.18,1.47-.23,2.2-.08,1.42-.23,2.83-.35,4.25-.22,2.59-.47,5.18-.71,7.78-.21,2.22-.39,4.45-.61,6.67a33.51,33.51,0,0,1-.93,6.29,17.3,17.3,0,0,1-6,8.5,25.83,25.83,0,0,1-8.73,4.35q-26.28,8.06-52.58,16.08a43.06,43.06,0,0,1-14.06,1.59,46.89,46.89,0,0,1-12.41-2.41q-24.49-7.53-49-15a31.07,31.07,0,0,1-7.56-3.2,22.19,22.19,0,0,1-3.78-3c-1.82-1.8-3.63-3.62-5.44-5.44A1.11,1.11,0,0,1,16.38,119.94Z" style="fill:#4d131f"/><path d="M171.14,35.79c-.13,0-.08-.08-.1-.13Z" style="fill:#4d131f"/><path d="M16.26,119.86c.06,0,.15,0,.13.09Z" style="fill:#4d131f"/><path d="M12.93,114.93a11.42,11.42,0,0,1-2.06-2.05,15,15,0,0,1-3.46-8.58c-.24-2.75-.53-5.5-.78-8.26Q6.32,92.7,6,89.33c-.24-2.56-.48-5.13-.71-7.69-.21-2.25-.4-4.5-.61-6.75s-.42-4.37-.62-6.55q-.27-2.86-.52-5.73c-.21-2.29-.43-4.58-.64-6.87-.18-2.09-.34-4.18-.54-6.26A48,48,0,0,1,2.16,43a16.28,16.28,0,0,1,3-9.29,18.12,18.12,0,0,1,7.21-5.57,24.7,24.7,0,0,1,8.17-2C22.56,26,24.63,26,26.7,26a49.13,49.13,0,0,0,19.4-3.84A45.49,45.49,0,0,0,60.18,13,37.74,37.74,0,0,1,75.36,3.84a41.58,41.58,0,0,1,7.4-1.46,27.64,27.64,0,0,1,5.82-.14,38.34,38.34,0,0,1,14.91,4.21A40.37,40.37,0,0,1,112.41,13,47,47,0,0,0,134.2,24.69,46.52,46.52,0,0,0,144,26c1.79,0,3.57,0,5.35.06a27.81,27.81,0,0,1,10.16,1.88,19.55,19.55,0,0,1,6.86,4.63,1.88,1.88,0,0,1,.47.61.2.2,0,0,1-.22-.06,20.4,20.4,0,0,0-4.7-2.56,7.3,7.3,0,0,0-2.1-.64h0c0-.06,0-.08-.09,0A23.51,23.51,0,0,0,151,27.78c-2-.12-4.08-.09-6.13-.11a51,51,0,0,1-11.14-1.35,33.54,33.54,0,0,1-4-1.13c0-.08-.1-.09-.17-.09h0c-.06-.1-.16-.09-.26-.09h0a.51.51,0,0,0-.31-.19,48.28,48.28,0,0,1-4.89-2.42,46.22,46.22,0,0,1-9.38-7,37.73,37.73,0,0,0-3.32-2.87,35.94,35.94,0,0,0-9-5.07,9.92,9.92,0,0,0-2.26-.72h0c0-.09-.11-.07-.18-.08a3.58,3.58,0,0,1-.35-.11A36,36,0,0,0,88.59,4,23.84,23.84,0,0,0,83.25,4a46.16,46.16,0,0,0-5.7,1,35,35,0,0,0-15.93,9,48.19,48.19,0,0,1-15.09,9.87,49.27,49.27,0,0,1-7.28,2.41,47.79,47.79,0,0,1-10.64,1.42c-2,0-4.09,0-6.13.1a25.23,25.23,0,0,0-7.7,1.3,17.53,17.53,0,0,0-7.64,5,14.09,14.09,0,0,0-3.25,8.89,51.56,51.56,0,0,0,.26,7.35c.23,2.65.47,5.29.71,7.94l.69,7.49c.21,2.3.43,4.61.64,6.91.17,1.9.34,3.79.52,5.69q.35,3.78.71,7.57L8,92.5c.24,2.6.47,5.21.72,7.81.16,1.65.31,3.3.51,5a13.43,13.43,0,0,0,1.3,4.13c0,.13,0,.27.06.4a14.5,14.5,0,0,0,2.09,4.64C12.81,114.57,13,114.7,12.93,114.93Z" style="fill:#b83552"/><path d="M171.36,36.45a7.54,7.54,0,0,1,1.12,1.89,19.11,19.11,0,0,1,1.64,6.78,37.75,37.75,0,0,1,0,4c-.06,1.64-.19,3.27-.37,4.9-.11,1-.17,2.1-.27,3.15-.12,1.44-.26,2.88-.39,4.32s-.23,2.59-.35,3.88l-.39,4c-.09,1-.17,2-.26,3.06-.13,1.36-.27,2.72-.4,4.08-.09,1-.17,2-.26,3l-.39,4.12-.27,2.94c-.13,1.44-.27,2.88-.4,4.32s-.23,2.59-.35,3.88-.26,2.78-.39,4.16c-.09,1-.17,2-.27,3-.12,1.32-.26,2.64-.38,4a27.07,27.07,0,0,1-.53,3.81,16,16,0,0,1-4,7.37A23.5,23.5,0,0,1,154,123.38c-4.33,1.35-8.68,2.66-13,4L132.35,130l-14.47,4.42c-3.16,1-6.3,2-9.46,2.89-3.33,1-6.61,2.15-10,2.95a36.68,36.68,0,0,1-5.09.81,54.81,54.81,0,0,1-6.78.13,37.75,37.75,0,0,1-10-1.75c-5.5-1.7-11-3.37-16.52-5L43.9,129.49l-16.52-5.05a53.34,53.34,0,0,1-7.34-2.6c-.64-.31-1.26-.67-1.88-1-.06,0-.12-.08-.12-.16a2.61,2.61,0,0,1,.77.27c3.06,1.15,6.22,2,9.35,3q22.68,6.94,45.36,13.89a44.73,44.73,0,0,0,14.36,1.81,45.35,45.35,0,0,0,12.49-2.22q25.25-7.77,50.51-15.47a27.58,27.58,0,0,0,8.39-4,18.81,18.81,0,0,0,7-8.74,19.4,19.4,0,0,0,1-4.88c.14-1.57.31-3.13.46-4.7.18-1.93.35-3.87.53-5.8L168.8,88q.27-2.86.52-5.73t.55-6c.21-2.2.41-4.39.61-6.59l.72-7.73.6-6.75c.18-2,.37-4,.53-6a33.94,33.94,0,0,0-.46-10.92C171.72,37.66,171.53,37.06,171.36,36.45Z" style="fill:#b83552"/><path d="M169.49,37.84a14.41,14.41,0,0,1,.73,3.36,39.45,39.45,0,0,1-.05,8.13c-.24,2.67-.45,5.35-.7,8-.22,2.47-.47,4.93-.7,7.4-.18,2-.34,3.93-.52,5.9l-.63,6.66q-.3,3.31-.61,6.63-.34,3.86-.71,7.69-.26,2.9-.52,5.77c-.27,2.87-.44,5.74-.89,8.58a14.57,14.57,0,0,1-4,7.81,22,22,0,0,1-9.27,5.65c-4.73,1.54-9.49,2.93-14.24,4.39l-39.29,12a42,42,0,0,1-12.62,1.65,45,45,0,0,1-13-2.25c-13.32-4.12-26.66-8.17-40-12.26-4-1.22-8-2.38-12-3.71a5.45,5.45,0,0,1-1.21-.48l-.1-.09h0a.39.39,0,0,0-.33-.25h0c-.12-.25-.38-.35-.57-.52-1.19-1.06-2.28-2.24-3.42-3.36-.09-.09-.24-.15-.21-.32.05,0,.11,0,.15.06a20.52,20.52,0,0,0,6.31,3.36c3.53,1.21,7.13,2.23,10.7,3.33,13.62,4.17,27.24,8.31,40.85,12.51a43.48,43.48,0,0,0,12.89,2.25,38.62,38.62,0,0,0,11.18-1.33c5.8-1.74,11.6-3.53,17.39-5.3l35.72-10.93a22.21,22.21,0,0,0,9.27-5.1,13,13,0,0,0,4-7.22c.48-2.74.62-5.52.89-8.29.19-2,.35-3.9.53-5.85.2-2.24.42-4.47.62-6.71s.41-4.48.61-6.71.43-4.53.63-6.79c.18-1.94.35-3.88.53-5.82.2-2.2.42-4.41.62-6.62s.4-4.59.61-6.88c.23-2.54.49-5.07.49-7.63a18.53,18.53,0,0,0-1.25-7.36,17.67,17.67,0,0,0-1.58-2.77c.2,0,.28.15.39.27,1,1,2.05,2,3,3C169.27,37.81,169.33,38.14,169.49,37.84Z" style="fill:#b83552"/><path d="M14.66,114.27c0,.17.12.23.21.32,1.14,1.12,2.23,2.3,3.42,3.36.19.17.45.27.57.52a.37.37,0,0,1-.38,0,20.07,20.07,0,0,1-5.29-3.32.1.1,0,0,0-.09-.09h0c0-.12,0-.19-.17-.17h0c.06-.23-.12-.36-.23-.5a14.5,14.5,0,0,1-2.09-4.64c0-.13,0-.27-.06-.4a15.51,15.51,0,0,0,2.36,3.22c.44.45.89.89,1.33,1.33l.11.07h0c0,.06,0,.09.1.08l0,0,0,0c0,.06,0,.09.09.07h0c0,.11,0,.13.13.12Z" style="fill:#4d131f"/><path d="M169.49,37.84c-.16.3-.22,0-.25-.06-.94-1.08-2-2-3-3-.11-.12-.19-.28-.39-.27h0c0-.09,0-.16-.11-.14h0c0-.07,0-.09-.07-.09v0a.08.08,0,0,0-.07-.1h0a.1.1,0,0,0-.09-.1,23,23,0,0,0-1.74-1.68,20.4,20.4,0,0,0-3.92-2.51,7.3,7.3,0,0,1,2.1.64,20.4,20.4,0,0,1,4.7,2.56.2.2,0,0,0,.22.06h0c0,.06,0,.08.09.08h0a.1.1,0,0,0,.09.09h0l.1.1A12.54,12.54,0,0,1,169.49,37.84Z" style="fill:#67243c"/><path d="M18.85,118.47a.39.39,0,0,1,.33.25C19,118.74,18.86,118.68,18.85,118.47Z" style="fill:#4d131f"/><path d="M12.93,114.92c.13,0,.17,0,.17.17A.2.2,0,0,1,12.93,114.92Z" style="fill:#b83552"/><path d="M18,120.67a.12.12,0,0,1-.17-.09C17.94,120.59,18,120.59,18,120.67Z" style="fill:#b83552"/><path d="M171.3,36.35s.08,0,.06.11S171.3,36.4,171.3,36.35Z" style="fill:#b83552"/><path d="M167.12,33.4l-.1-.1Z" style="fill:#b83552"/><path d="M167,33.31a.1.1,0,0,1-.09-.09C167,33.22,167,33.26,167,33.31Z" style="fill:#b83552"/><path d="M167,33.22c-.06,0-.09,0-.09-.08S167,33.17,167,33.22Z" style="fill:#b83552"/><path d="M13.1,115.08a.1.1,0,0,1,.09.09A.1.1,0,0,1,13.1,115.08Z" style="fill:#b83552"/><path d="M19.18,118.71l.1.09S19.16,118.8,19.18,118.71Z" style="fill:#4d131f"/><path d="M159.85,29.87a20.4,20.4,0,0,1,3.92,2.51,23,23,0,0,1,1.74,1.68l.09.1h0l.07.1v0l.07.09h0a.15.15,0,0,0,.11.14h0a17.67,17.67,0,0,1,1.58,2.77,18.53,18.53,0,0,1,1.25,7.36c0,2.56-.26,5.09-.49,7.63-.21,2.29-.4,4.59-.61,6.88s-.42,4.42-.62,6.62c-.18,1.94-.35,3.88-.53,5.82-.2,2.26-.42,4.52-.63,6.79s-.4,4.47-.61,6.71-.42,4.47-.62,6.71c-.18,1.95-.34,3.9-.53,5.85-.27,2.77-.41,5.55-.89,8.29a13,13,0,0,1-4,7.22,22.21,22.21,0,0,1-9.27,5.1l-35.72,10.93c-5.79,1.77-11.59,3.56-17.39,5.3a38.62,38.62,0,0,1-11.18,1.33,43.48,43.48,0,0,1-12.89-2.25c-13.61-4.2-27.23-8.34-40.85-12.51-3.57-1.1-7.17-2.12-10.7-3.33a20.52,20.52,0,0,1-6.31-3.36s-.1,0-.15-.06h0c0-.08-.06-.11-.13-.12h0c0-.05,0-.08-.09-.07l0,0,0,0a.09.09,0,0,0-.1-.08h0a.08.08,0,0,0-.11-.07c-.44-.44-.89-.88-1.33-1.33a15.51,15.51,0,0,1-2.36-3.22,13.43,13.43,0,0,1-1.3-4.13c-.2-1.65-.35-3.3-.51-5-.25-2.6-.48-5.21-.72-7.81l-.6-6.67q-.36-3.8-.71-7.57c-.18-1.9-.35-3.79-.52-5.69C6,70.27,5.76,68,5.55,65.66l-.69-7.49c-.24-2.65-.48-5.29-.71-7.94a51.56,51.56,0,0,1-.26-7.35A14.09,14.09,0,0,1,7.14,34a17.53,17.53,0,0,1,7.64-5,25.23,25.23,0,0,1,7.7-1.3c2-.06,4.09-.06,6.13-.1a47.79,47.79,0,0,0,10.64-1.42,49.27,49.27,0,0,0,7.28-2.41,48.19,48.19,0,0,0,15.09-9.87A35,35,0,0,1,77.55,5a46.16,46.16,0,0,1,5.7-1A23.84,23.84,0,0,1,88.59,4a36,36,0,0,1,11.1,2.61,3.58,3.58,0,0,0,.35.11.18.18,0,0,0,.18.08h0a2,2,0,0,0,.25.13A35,35,0,0,1,110,13.11c1.31,1.19,2.59,2.42,3.94,3.56s3,1.94,4.36,3a19.35,19.35,0,0,0,2.07,1.41,51.83,51.83,0,0,0,7.32,3.42,7.07,7.07,0,0,0,1.63.53h0c.06.12.15.11.26.09h0c0,.1.11.07.17.09a33.54,33.54,0,0,0,4,1.13,51,51,0,0,0,11.14,1.35c2,0,4.09,0,6.13.11a23.51,23.51,0,0,1,8.77,2.07l.09,0ZM163,75.58c0-.44.07-.89.11-1.34l.36-3.84c.13-1.36.25-2.72.38-4.08s.23-2.67.35-4,.33-2.93.41-4.41c.1-.57.11-1.16.16-1.74.16-1.83.33-3.66.49-5.5,0-.05.06-.09.06-.14.09-1.07.2-2.14.25-3.22.05-1.25.14-2.5.09-3.76,0-.13,0-.28-.11-.38a6.38,6.38,0,0,0-.14-2,10,10,0,0,0-1.22-3.63l-.08-.1h0a1.78,1.78,0,0,0-.32-.57A12.42,12.42,0,0,0,159.15,33a20.48,20.48,0,0,0-8.82-2.15c-2.46-.11-4.91,0-7.36-.13a50.74,50.74,0,0,1-9.59-1.29,52.2,52.2,0,0,1-24.74-13.37,32,32,0,0,0-7.36-5.35A31.69,31.69,0,0,0,90.17,7.25,32.38,32.38,0,0,0,86,6.93a35.23,35.23,0,0,0-5.43.59,31.28,31.28,0,0,0-15.89,7.82,74.08,74.08,0,0,1-6,5.16A53,53,0,0,1,27.47,30.77a61.79,61.79,0,0,0-8,.33,17.53,17.53,0,0,0-7.89,3A10.12,10.12,0,0,0,7.37,40.2,24.3,24.3,0,0,0,7,47.52c.23,3,.52,6,.78,9s.57,6.25.85,9.38.61,6.46.91,9.69c.05.6.11,1.19.14,1.79,0,.38.14.54.56.54,6,0,12,0,18,0h.49c-.61.74-1.12,1.44-1.62,2.15-.38.54-.67,1.13-1.09,1.64H10.56c-.2,0-.45-.11-.41.29.13,1.2.22,2.4.33,3.6.29,3.12.59,6.24.88,9.37s.55,6.33.9,9.48c.41,3.62,2.47,6.14,5.37,8.11.19.13.37.28.57.4a24.26,24.26,0,0,0,5.92,2.48l2.9.9,5.28,1.62,9.56,2.91c1.84.57,3.68,1.15,5.52,1.71l9.37,2.84c2.25.69,4.49,1.4,6.73,2.08,3.81,1.17,7.64,2.3,11.44,3.5a35.69,35.69,0,0,0,9.88,1.71,51,51,0,0,0,5.24-.15,29.63,29.63,0,0,0,5.54-1c1.82-.49,3.61-1.08,5.41-1.63l9.57-2.92,5.51-1.7,9.41-2.86,6.46-2,9.68-2.95c1.5-.46,3-.89,4.5-1.37,1-.32,2-.55,3-1,.29-.09.58-.17.86-.27a17.08,17.08,0,0,0,3.43-1.48,2.52,2.52,0,0,0,.41-.17,15.42,15.42,0,0,0,4.54-3.89,10.16,10.16,0,0,0,2-5.44c.1-1,.15-1.93.27-2.89s.22-2.22.31-3.33c.06-.69.12-1.38.19-2.07l.21-2.4c.22-2.34.43-4.69.65-7,.12-1.38.22-2.75.37-4.12.05-.38,0-.42-.38-.42h-14.8a.56.56,0,0,0-.63.45A57.78,57.78,0,0,0,142.76,103c0,.6,0,.6-.59.6H122.93a6.23,6.23,0,0,1,.08-1.06,23.47,23.47,0,0,1,.27-3.14,42.82,42.82,0,0,1,1.43-6.8,32.41,32.41,0,0,1,3.86-8.44,38.53,38.53,0,0,1,5.4-6.42c.91-.9,1.78-1.82,2.72-2.69,1.72-1.6,3.48-3.16,5.21-4.75a51.69,51.69,0,0,0,4.17-4.59c1.63-1.92,3.19-3.92,4.9-5.79.1-.11.23-.21.06-.36s-.24-.33-.5-.14a2.75,2.75,0,0,1-1.13.47,14.64,14.64,0,0,0-3,.49c-.18-.17-.27,0-.37.1a17.45,17.45,0,0,1-2.14,1.59,8.77,8.77,0,0,1-5.47,1.42,21.45,21.45,0,0,1-3.55-.62c-1.73-.42-3.4-1.05-5.15-1.38-2.49-.46-3.94.42-4.69,2.61l-.12.39a16.13,16.13,0,0,0-.48,4.15c0,.22,0,.38-.31.38-3.32,0-6.65,0-10,0q0-9.5,0-19c0-.37.14-.41.45-.41H125.5c.39,0,.48.12.47.48,0,1.08,0,2.15,0,3.33a10.26,10.26,0,0,1,2.12-2.51,7.52,7.52,0,0,1,2.83-1.6A15.35,15.35,0,0,1,137.2,49a34.88,34.88,0,0,1,5.13,1.25,59.17,59.17,0,0,0,6,1.65,6.12,6.12,0,0,0,3.31-.18,4.16,4.16,0,0,0,2.42-1.91c.11-.21.28-.17.45-.17h6.38a21.11,21.11,0,0,1-.46,3.16,41.28,41.28,0,0,1-3.71,10c-1.66,3.3-3.58,6.46-5.49,9.62-.63,1-1.22,2.1-1.79,3.26h3.38c-.36.63-.71,1.27-1.07,1.89-.19.32-.13.4.24.4q5.13,0,10.28,0c.39,0,.49-.17.51-.5C162.86,76.81,162.91,76.2,163,75.58Z" style="fill:#faf3d3"/><path d="M129.34,25a7.07,7.07,0,0,1-1.63-.53,51.83,51.83,0,0,1-7.32-3.42,19.35,19.35,0,0,1-2.07-1.41c-1.41-1.05-3-1.84-4.36-3s-2.63-2.37-3.94-3.56a35,35,0,0,0-9.56-6.23,2,2,0,0,1-.25-.13,9.92,9.92,0,0,1,2.26.72,35.94,35.94,0,0,1,9,5.07,37.73,37.73,0,0,1,3.32,2.87,46.22,46.22,0,0,0,9.38,7A48.28,48.28,0,0,0,129,24.83.51.51,0,0,1,129.34,25Z" style="fill:#67243c"/><path d="M129.59,25.1c-.11,0-.2,0-.26-.09C129.43,25,129.53,25,129.59,25.1Z" style="fill:#67243c"/><path d="M129.75,25.19c-.06,0-.15,0-.17-.09S129.72,25.11,129.75,25.19Z" style="fill:#67243c"/><path d="M100.22,6.75a.18.18,0,0,1-.18-.08C100.11,6.68,100.19,6.66,100.22,6.75Z" style="fill:#67243c"/><path d="M159.86,29.87l-.09,0C159.82,29.79,159.84,29.81,159.86,29.87Z" style="fill:#67243c"/><path d="M14.53,114.15c.07,0,.13,0,.13.12S14.51,114.26,14.53,114.15Z" style="fill:#b83552"/><path d="M14.24,113.94a.08.08,0,0,1,.11.07Z" style="fill:#b83552"/><path d="M14.34,114a.09.09,0,0,1,.1.08C14.38,114.09,14.35,114.06,14.34,114Z" style="fill:#b83552"/><path d="M14.43,114.08c.05,0,.08,0,.09.07S14.43,114.14,14.43,114.08Z" style="fill:#b83552"/><path d="M165.86,34.48a.15.15,0,0,1-.11-.14C165.86,34.32,165.87,34.39,165.86,34.48Z" style="fill:#b83552"/><path d="M165.74,34.34l-.07-.09C165.73,34.25,165.76,34.27,165.74,34.34Z" style="fill:#b83552"/><path d="M165.67,34.25l-.07-.1A.08.08,0,0,1,165.67,34.25Z" style="fill:#b83552"/><path d="M165.6,34.16l-.09-.1A.1.1,0,0,1,165.6,34.16Z" style="fill:#b83552"/><path d="M165.51,43.17a43.46,43.46,0,0,0-7.73-.39,53.79,53.79,0,0,1-17.91-3,51.73,51.73,0,0,1-19.12-11.67,31.54,31.54,0,0,0-15.39-8.36,30.41,30.41,0,0,0-9-.79A32.32,32.32,0,0,0,77,27c-1.8,1.59-3.51,3.3-5.43,4.77a53.22,53.22,0,0,1-21.41,9.84A60.56,60.56,0,0,1,37,42.79a30.87,30.87,0,0,0-7.43.65,16.72,16.72,0,0,0-5.73,2.48.92.92,0,0,1-.52.07H12.73c-.35,0-.45.08-.45.44q0,8.4,0,16.81c0,.26,0,.52,0,.78a11,11,0,0,1-.18-1.62c-.12-1.41-.26-2.82-.39-4.23-.09-1.08-.14-2.16-.26-3.23-.19-1.64-.3-3.29-.38-4.93a22.13,22.13,0,0,1,.22-4.67,10.77,10.77,0,0,1,1.44-4,12.44,12.44,0,0,1,5.22-4.42A19.54,19.54,0,0,1,25.73,35c1.31-.07,2.62-.12,3.94-.1,1.85,0,3.69,0,5.54-.15s3.66-.36,5.48-.67A49.78,49.78,0,0,0,48,32.21a54.5,54.5,0,0,0,8.81-3.81A54.77,54.77,0,0,0,62.31,25a64.5,64.5,0,0,0,6.44-5.46,31,31,0,0,1,4.77-3.61,30.85,30.85,0,0,1,13.31-4.54,27.3,27.3,0,0,1,4.52-.26,45.85,45.85,0,0,1,4.71.54,30.74,30.74,0,0,1,8.1,2.58,32.07,32.07,0,0,1,8.74,6.11c1,1,2.13,2,3.25,2.89a51.28,51.28,0,0,0,8.63,5.65,53.09,53.09,0,0,0,8,3.38,54.43,54.43,0,0,0,8.43,2,60.87,60.87,0,0,0,6.6.62c2,.08,4,0,6,.07,1.13.06,2.26.11,3.38.26a18.63,18.63,0,0,1,6.55,2.14c.12.07.21.2.37.15h0l.08.1a10,10,0,0,1,1.22,3.63A6.38,6.38,0,0,1,165.51,43.17Z" style="fill:#67243c"/><path d="M164.08,37.49c-.16,0-.25-.08-.37-.15a18.63,18.63,0,0,0-6.55-2.14c-1.12-.15-2.25-.2-3.38-.26-2-.1-4,0-6-.07a60.87,60.87,0,0,1-6.6-.62,54.43,54.43,0,0,1-8.43-2,53.09,53.09,0,0,1-8-3.38,51.28,51.28,0,0,1-8.63-5.65c-1.12-.92-2.21-1.88-3.25-2.89a32.07,32.07,0,0,0-8.74-6.11,30.74,30.74,0,0,0-8.1-2.58,45.85,45.85,0,0,0-4.71-.54,27.3,27.3,0,0,0-4.52.26,30.85,30.85,0,0,0-13.31,4.54,31,31,0,0,0-4.77,3.61A64.5,64.5,0,0,1,62.31,25a54.77,54.77,0,0,1-5.48,3.45A54.5,54.5,0,0,1,48,32.21a49.78,49.78,0,0,1-7.33,1.85c-1.82.31-3.64.54-5.48.67s-3.69.17-5.54.15c-1.32,0-2.63,0-3.94.1a19.54,19.54,0,0,0-7.79,1.9,12.44,12.44,0,0,0-5.22,4.42,10.77,10.77,0,0,0-1.44,4A22.13,22.13,0,0,0,11.06,50c.08,1.64.19,3.29.38,4.93.12,1.07.17,2.15.26,3.23.13,1.41.27,2.82.39,4.23A11,11,0,0,0,12.27,64c0,1.55,0,3.1,0,4.66,0,.25,0,.37.33.36.54,0,1.09,0,1.64,0,3.32,0,6.65,0,10,0,.28,0,.31-.11.31-.34A16.89,16.89,0,0,1,24.7,66a7.77,7.77,0,0,1,.95-3,3.13,3.13,0,0,1,2.42-1.56,6.41,6.41,0,0,1,2.47.23,67.37,67.37,0,0,0,7,1.73,9,9,0,0,0,6.1-1.08,17.75,17.75,0,0,0,2.5-1.79c.11-.09.2-.3.4-.13a.26.26,0,0,1-.1.22,99.06,99.06,0,0,1-7.13,6.92c0-.11-.11-.13-.21-.16l-4.73-1.3a4.89,4.89,0,0,0-2.71,0,3.57,3.57,0,0,0-2.32,2.57,12.42,12.42,0,0,0-.57,4.45c0,.3-.06.42-.41.42H17a.61.61,0,0,1-.51-.21c-.3-.34-.61-.66-.91-1l-2.29-2.52a1.54,1.54,0,0,0-.52-.44c0,.57.07,1.09.12,1.6.14,1.54.32,3.07.4,4.61H9.58c-.3-3.23-.61-6.46-.91-9.69s-.57-6.25-.85-9.38-.55-6-.78-9a24.3,24.3,0,0,1,.33-7.32,10.12,10.12,0,0,1,4.16-6.06,17.53,17.53,0,0,1,7.89-3,61.79,61.79,0,0,1,8-.33A53,53,0,0,0,58.66,20.5a74.08,74.08,0,0,0,6-5.16A31.28,31.28,0,0,1,80.57,7.52,35.23,35.23,0,0,1,86,6.93a32.38,32.38,0,0,1,4.17.32,31.69,31.69,0,0,1,11.11,3.45,32,32,0,0,1,7.36,5.35,52.2,52.2,0,0,0,24.74,13.37A50.74,50.74,0,0,0,143,30.71c2.45.09,4.9,0,7.36.13A20.48,20.48,0,0,1,159.15,33a12.42,12.42,0,0,1,4.61,3.93A1.78,1.78,0,0,1,164.08,37.49Z" style="fill:#b83552"/><path d="M149.08,115.19l-.74,0H132.11a.76.76,0,0,1-.63-.28l-6.1-6.72c.15-.13.34-.07.51-.07h20.4a1.82,1.82,0,0,1,.33,0c.26,0,.33-.1.32-.34,0-2,.07-3.93.24-5.9.11-1.28.26-2.55.45-3.82a51,51,0,0,1,1.12-5.19c.57-2.14,1.23-4.25,2-6.33a.43.43,0,0,1,.48-.32H162c-.22,2.34-.43,4.69-.65,7-1.18,0-2.36,0-3.53,0a.59.59,0,0,0-.67.47A58.59,58.59,0,0,0,153.79,107a60.18,60.18,0,0,0-.42,6.43,17.08,17.08,0,0,1-3.43,1.48C149.66,115,149.37,115.1,149.08,115.19Z" style="fill:#67243c"/><path d="M162,86.22H151.24a.43.43,0,0,0-.48.32c-.78,2.08-1.44,4.19-2,6.33a51,51,0,0,0-1.12,5.19c-.19,1.27-.34,2.54-.45,3.82-.17,2-.26,3.93-.24,5.9,0,.24-.06.36-.32.34a1.82,1.82,0,0,0-.33,0h-20.4c-.17,0-.36-.06-.51.07-1.14-1.22-2.27-2.45-3.41-3.68l-.72-.78c.13-.12.29-.06.43-.07a10.38,10.38,0,0,0,1.25,0h19.24c.59,0,.59,0,.59-.6a57.78,57.78,0,0,1,3.78-20.89.56.56,0,0,1,.63-.45H162c.33,0,.43,0,.38.42C162.2,83.47,162.1,84.84,162,86.22Z" style="fill:#b83552"/><path d="M122.93,103.61a10.38,10.38,0,0,1-1.25,0c-.14,0-.3-.05-.43.07a.41.41,0,0,1-.3-.46c0-2.27.13-4.55.38-6.81.12-1.07.35-2.13.44-3.2a1.07,1.07,0,0,0,.07-.19,40.79,40.79,0,0,1,2-6.84,33.73,33.73,0,0,1,1.67-3.55,4.53,4.53,0,0,0,.5-1,1.58,1.58,0,0,0,.22-.23,26.82,26.82,0,0,1,1.5-2.26l1-1.29H102.6c-.29,0-.71.15-.83-.09s.22-.52.35-.78a8.57,8.57,0,0,0,.73-1.41l3.46,0h24.17a.61.61,0,0,0,.48-.26c1.66-1.77,3.42-3.44,5.21-5.08,1-.93,2-1.87,3-2.81A92.11,92.11,0,0,0,146,60.88c.14-.14.33-.26.35-.49a14.64,14.64,0,0,1,3-.49,2.75,2.75,0,0,0,1.13-.47c.26-.19.35,0,.5.14s0,.25-.06.36c-1.71,1.87-3.27,3.87-4.9,5.79a51.69,51.69,0,0,1-4.17,4.59c-1.73,1.59-3.49,3.15-5.21,4.75-.94.87-1.81,1.79-2.72,2.69a38.53,38.53,0,0,0-5.4,6.42,32.41,32.41,0,0,0-3.86,8.44,42.82,42.82,0,0,0-1.43,6.8,23.47,23.47,0,0,0-.27,3.14A6.23,6.23,0,0,0,122.93,103.61Z" style="fill:#fcd382"/><path d="M9.58,75.59h3.73l17.31,0a.49.49,0,0,0,.39-.19c.36-.39.73-.78,1.1-1.16,2.29-2.34,4.75-4.51,7.16-6.73a99.06,99.06,0,0,0,7.13-6.92.26.26,0,0,0,.1-.22A9.45,9.45,0,0,1,49,60a2.67,2.67,0,0,0,1.54-.5c.27-.22.39-.09.57.08s0,.33-.11.46-.27.28-.39.43q-1.48,1.74-3,3.5c-1,1.13-1.89,2.27-2.85,3.39a31.92,31.92,0,0,1-3,3.17c-1.89,1.68-3.77,3.37-5.59,5.13-1.36,1.3-2.7,2.61-4,4a34.43,34.43,0,0,0-3.8,4.87,33.13,33.13,0,0,0-4,9.23A41.58,41.58,0,0,0,23.36,100c-.13,1.21-.21,2.41-.3,3.62-.57.1-1.16,0-1.73,0-.32,0-.25-.2-.25-.38a55.27,55.27,0,0,1,.32-6.43,43.74,43.74,0,0,1,.89-5.34,49.14,49.14,0,0,1,1.59-5.22c.47-1.09.94-2.18,1.49-3.23a13.65,13.65,0,0,0,.73-1.36c.42-.51.71-1.1,1.09-1.64.5-.71,1-1.41,1.62-2.15h-.49c-6,0-12,0-18,0-.42,0-.54-.16-.56-.54C9.69,76.78,9.63,76.19,9.58,75.59Z" style="fill:#fcd382"/><path d="M112.14,47.23a1.92,1.92,0,0,0,.07-.92c0-.26.09-.33.34-.33q5.78,0,11.55,0c.18,0,.34,0,.31.26v3l.09,0a15,15,0,0,1,1.29-1.57l1.34-1a7.81,7.81,0,0,1,3.79-1.32,19.06,19.06,0,0,1,2.73-.12,21.61,21.61,0,0,1,5.24.89c2.3.63,4.57,1.41,6.89,2a7.1,7.1,0,0,0,3.77.12,3.92,3.92,0,0,0,2.73-2.05c.1-.22.26-.16.41-.16h8.14c.19,0,.29.06.28.26,0,.61,0,1.22,0,1.83a7.31,7.31,0,0,1-.15,1.54h-6.38c-.17,0-.34,0-.45.17a4.16,4.16,0,0,1-2.42,1.91,6.12,6.12,0,0,1-3.31.18,59.17,59.17,0,0,1-6-1.65A34.88,34.88,0,0,0,137.2,49a15.35,15.35,0,0,0-6.29.33,7.52,7.52,0,0,0-2.83,1.6A10.26,10.26,0,0,0,126,53.41c0-1.18,0-2.25,0-3.33,0-.36-.08-.49-.47-.48H114.56c-.31,0-.45,0-.45.41q0,9.51,0,19l-1.72,0c-.3,0-.23-.2-.23-.37,0-1.23,0-2.46,0-3.69a.5.5,0,0,0,0-.12q0-8.56,0-17.12C112.16,47.56,112.15,47.4,112.14,47.23Z" style="fill:#fcd382"/><path d="M23.88,86.29a49.14,49.14,0,0,0-1.59,5.22,43.74,43.74,0,0,0-.89,5.34,55.27,55.27,0,0,0-.32,6.43c0,.18-.07.4.25.38l1.49,1.62a1.53,1.53,0,0,1,.41.6c.13,1.29.25,2.58.38,3.87.17,1.77.33,3.53.5,5.3,0,.12,0,.25,0,.37a24.26,24.26,0,0,1-5.92-2.48c-.2-.12-.38-.27-.57-.4a2.54,2.54,0,0,0-.16-.38,10.52,10.52,0,0,1-1.16-4c-.15-1.52-.28-3-.42-4.57l-.57-5.9c-.12-1.34-.22-2.69-.34-4-.16-1.79-.33-3.58-.48-5.37a2.25,2.25,0,0,0-.81-1.91s0-.07,0-.12l.18,0h9.7C23.65,86.22,23.78,86.18,23.88,86.29Z" style="fill:#67243c"/><path d="M160.93,49.61a7.31,7.31,0,0,0,.15-1.54c0-.61,0-1.22,0-1.83.69.64,1.28,1.37,1.92,2s1.46,1.59,2.19,2.38c-.16,1.84-.33,3.67-.49,5.5,0,.58-.06,1.17-.16,1.74,0,0-.06,0-.06.06a40.33,40.33,0,0,1-1.94,5.77,57.59,57.59,0,0,1-2.85,5.86c-1.1,2-2.28,4-3.47,6l-3.39,0h-3.38c.57-1.16,1.16-2.22,1.79-3.26,1.91-3.16,3.83-6.32,5.49-9.62a41.28,41.28,0,0,0,3.71-10A21.11,21.11,0,0,0,160.93,49.61Z" style="fill:#b83552"/><path d="M23.88,86.29c-.1-.11-.23-.07-.35-.07h-9.7l-.18,0s0,.1,0,.12a2.25,2.25,0,0,1,.81,1.91c.15,1.79.32,3.58.48,5.37.12,1.35.22,2.7.34,4l.57,5.9c.14,1.52.27,3.05.42,4.57a10.52,10.52,0,0,0,1.16,4,2.54,2.54,0,0,1,.16.38c-2.9-2-5-4.49-5.37-8.11-.35-3.15-.62-6.32-.9-9.48s-.59-6.25-.88-9.37c-.11-1.2-.2-2.4-.33-3.6,0-.4.21-.29.41-.29H26.1a13.65,13.65,0,0,1-.73,1.36C24.82,84.11,24.35,85.2,23.88,86.29Z" style="fill:#b83552"/><path d="M112.4,69l1.72,0c3.33,0,6.66,0,10,0,.33,0,.31-.16.31-.38a16.13,16.13,0,0,1,.48-4.15l.12-.39c.75-2.19,2.2-3.07,4.69-2.61,1.75.33,3.42,1,5.15,1.38a21.45,21.45,0,0,0,3.55.62,8.77,8.77,0,0,0,5.47-1.42A17.45,17.45,0,0,0,146,60.49c.1-.08.19-.27.37-.1,0,.23-.21.35-.35.49a92.11,92.11,0,0,1-6.82,6.58c-1.65-.46-3.3-.94-5-1.38a4.69,4.69,0,0,0-3.05.14,3.8,3.8,0,0,0-2.1,2.72,12.83,12.83,0,0,0-.5,4.13c0,.37-.09.49-.47.48q-5.55,0-11.1,0a1.06,1.06,0,0,1-.87-.41q-.6-.7-1.23-1.38Z" style="fill:#b83552"/><path d="M156.25,75.59c1.19-2,2.37-4,3.47-6a57.59,57.59,0,0,0,2.85-5.86A40.33,40.33,0,0,0,164.51,58s0,0,.06-.06c-.08,1.48-.27,2.94-.41,4.41s-.23,2.67-.35,4-.25,2.72-.38,4.08l-.36,3.84c0,.45-.07.9-.11,1.34Z" style="fill:#67243c"/><path d="M156.25,75.59H163c-.05.62-.1,1.23-.14,1.84,0,.33-.12.5-.51.5q-5.15,0-10.28,0c-.37,0-.43-.08-.24-.4.36-.62.71-1.26,1.07-1.89Z" style="fill:#fcd382"/><path d="M164.15,37.59l-.08-.1Z" style="fill:#b83552"/><path d="M123.81,86.22a40.79,40.79,0,0,0-2,6.84,1.07,1.07,0,0,1-.07.19c-4.63,0-9.27,0-13.9,0a.61.61,0,0,0-.68.46,59.94,59.94,0,0,0-3.16,12,59,59,0,0,0-.61,9c0,.39-.12.46-.48.46q-10.38,0-20.76,0a.8.8,0,0,1-.64-.28l-6.1-6.72H96.53c.27,0,.48,0,.48-.37a57.7,57.7,0,0,1,.24-6c.1-1.25.25-2.5.44-3.73a49.85,49.85,0,0,1,1.21-5.52c.55-2,1.18-4,1.91-6a.49.49,0,0,1,.55-.35c1.35,0,2.71,0,4.07,0Z" style="fill:#67243c"/><path d="M71.83,93.25c-4.6,0-9.21,0-13.82,0a.7.7,0,0,0-.79.53,60.84,60.84,0,0,0-3.13,11.92,59.19,59.19,0,0,0-.61,9c0,.39-.11.46-.47.46q-10.4,0-20.77,0a.8.8,0,0,1-.64-.28q-3-3.36-6.1-6.72H46.38c.11,0,.22,0,.33,0,.27,0,.36-.1.36-.36,0-1.3,0-2.6.08-3.9.1-1.14.14-2.29.27-3.43a48.46,48.46,0,0,1,.8-4.92,66.49,66.49,0,0,1,2.63-9,.54.54,0,0,1,.6-.4h22c.14,0,.3,0,.43.07-.45,1.24-.89,2.48-1.22,3.76C72.33,91.11,72.09,92.18,71.83,93.25Z" style="fill:#67243c"/><path d="M123.81,86.22H105.43c-1.36,0-2.72,0-4.07,0a.49.49,0,0,0-.55.35c-.73,2-1.36,4-1.91,6a49.85,49.85,0,0,0-1.21,5.52c-.19,1.23-.34,2.48-.44,3.73a57.7,57.7,0,0,0-.24,6c0,.38-.21.37-.48.37H75.44l-3.8-4.1-.33-.36c.13-.12.28-.06.43-.07a8.66,8.66,0,0,0,1.25,0H92.4c.36,0,.43-.12.43-.45a63.07,63.07,0,0,1,.5-8.24A58.35,58.35,0,0,1,96.64,82a.43.43,0,0,1,.47-.33H126a4.53,4.53,0,0,1-.5,1A33.73,33.73,0,0,0,123.81,86.22Z" style="fill:#b83552"/><path d="M73.83,86.29c-.13-.12-.29-.07-.43-.07h-22a.54.54,0,0,0-.6.4,66.49,66.49,0,0,0-2.63,9,48.46,48.46,0,0,0-.8,4.92c-.13,1.14-.17,2.29-.27,3.43-.11,1.3-.08,2.6-.08,3.9,0,.26-.09.38-.36.36-.11,0-.22,0-.33,0H25.5l-1.92-2.06c-.1-.1-.15-.27-.35-.24a1.53,1.53,0,0,0-.41-.6l-1.49-1.62c.57,0,1.16,0,1.73,0H42.55c.34,0,.33-.16.33-.4a69,69,0,0,1,.48-8A57.86,57.86,0,0,1,46.72,82a.37.37,0,0,1,.41-.29H76a.85.85,0,0,1-.06.19A36.64,36.64,0,0,0,73.83,86.29Z" style="fill:#b83552"/><path d="M73.83,86.29A36.64,36.64,0,0,1,76,81.88a.85.85,0,0,0,.06-.19.63.63,0,0,0,.24-.27A25,25,0,0,1,77.93,79a8.76,8.76,0,0,0,.77-1.06H52.18c-.46,0-.46,0-.26-.41.31-.64.75-1.21,1-1.88l3.46,0H80.5a.66.66,0,0,0,.52-.26c1.67-1.79,3.44-3.46,5.24-5.11l3-2.78A90,90,0,0,0,96,61c.18-.2.43-.35.49-.64a10.06,10.06,0,0,1,2-.36,3.81,3.81,0,0,0,2.21-.63c.21-.16.31,0,.44.13s.06.29,0,.41l-1.7,2-4.07,4.83a41.47,41.47,0,0,1-4.45,4.64c-2.12,1.85-4.17,3.8-6.19,5.76-.9.87-1.75,1.8-2.6,2.73a36.77,36.77,0,0,0-2.79,3.44,33.05,33.05,0,0,0-4.92,11,41.34,41.34,0,0,0-1,5.51c-.14,1.26-.24,2.52-.31,3.79a8.66,8.66,0,0,1-1.25,0c-.15,0-.3-.05-.43.07-.23-.06-.3-.19-.3-.44,0-2,.12-4.1.31-6.14.12-1.3.35-2.59.51-3.89.26-1.07.5-2.14.78-3.2C72.94,88.77,73.38,87.53,73.83,86.29Z" style="fill:#fcd382"/><path d="M14.25,69c-.55,0-1.1,0-1.64,0-.29,0-.33-.11-.33-.36,0-1.56,0-3.11,0-4.66,0-.26,0-.52,0-.78q0-8.4,0-16.81c0-.36.1-.44.45-.44h10.6a.92.92,0,0,0,.52-.07.64.64,0,0,0,.47.06c.19,0,.22.1.22.26v3.08l.48-.64a7.71,7.71,0,0,0,.85-1c.35,0,.53-.33.76-.53a8.26,8.26,0,0,1,4.46-1.78,20.32,20.32,0,0,1,8.48.93q2.88.87,5.78,1.69a8.94,8.94,0,0,0,3.44.41,4.25,4.25,0,0,0,3.59-2.18c.12-.22.27-.19.44-.19H61c.19,0,.29.05.27.26s0,.73,0,1.1a14.37,14.37,0,0,1-.17,2.27H54.68c-.18,0-.35,0-.46.18A4.46,4.46,0,0,1,51,51.91a7.75,7.75,0,0,1-3.45-.22c-2.27-.55-4.48-1.29-6.73-1.93a22.27,22.27,0,0,0-5.55-1,16.88,16.88,0,0,0-3,.22A8.34,8.34,0,0,0,27.12,52c-.36.4-.64.86-1,1.28,0-1.08-.05-2.14,0-3.21,0-.33-.07-.44-.43-.44h-11c-.32,0-.42.09-.41.41C14.25,56.35,14.24,62.68,14.25,69Z" style="fill:#fcd382"/><path d="M75.81,47.64c.35,0,.53-.33.76-.53a8.34,8.34,0,0,1,4.54-1.79,20.26,20.26,0,0,1,8.36.93c2.23.65,4.43,1.39,6.7,1.9a6.19,6.19,0,0,0,4.62-.43,3.27,3.27,0,0,0,1.53-1.54c.1-.23.27-.19.44-.19h8.14c.18,0,.29.05.27.26,0,.55,0,1.11,0,1.67a9.78,9.78,0,0,1-.16,1.7h-6.37c-.2,0-.36,0-.48.22A4.61,4.61,0,0,1,100.3,52a8.83,8.83,0,0,1-3.15-.39C95,51,92.89,50.39,90.77,49.76a21,21,0,0,0-5.87-1,17.66,17.66,0,0,0-2.81.23,8.43,8.43,0,0,0-5,2.9c-.38.43-.67.92-1,1.44,0-1.17,0-2.25,0-3.33,0-.34-.08-.44-.43-.44h-11c-.33,0-.42.09-.42.42q0,9.49,0,19l-1.72,0c-.29,0-.23-.19-.23-.36,0-1.23,0-2.46,0-3.69q0-6.36,0-12.73c0-1.67,0-3.34,0-5,0-.11,0-.22,0-.33,0-.92,0-.92.92-.92H74c.17,0,.45-.12.44.25v3.08l.49-.65A7,7,0,0,0,75.81,47.64Z" style="fill:#fcd382"/><path d="M62.21,47.24c0,1.67,0,3.34,0,5q0,6.36,0,12.73a1,1,0,0,0-.24.42,70.63,70.63,0,0,1-3.3,6.27l-2.29,3.92-3.46,0H49.61c.09-.2.15-.32.21-.44,1.33-2.6,2.94-5,4.4-7.56a62.61,62.61,0,0,0,5.57-11.83,27.25,27.25,0,0,0,1.26-6.18,14.37,14.37,0,0,0,.17-2.27c0-.37,0-.74,0-1.1Z" style="fill:#b83552"/><path d="M111,49.61a9.78,9.78,0,0,0,.16-1.7c0-.56,0-1.12,0-1.67l1,1c0,.17,0,.33,0,.5q0,8.55,0,17.12a.5.5,0,0,1,0,.12,1.24,1.24,0,0,0-.26.46c-.78,1.74-1.7,3.4-2.61,5.06s-2,3.4-3,5.1l-3.46,0H99.54l.25-.48c1.2-2.38,2.68-4.62,4-6.92a64.19,64.19,0,0,0,5.92-12.44A27.05,27.05,0,0,0,111,49.61Z" style="fill:#b83552"/><path d="M125.79,47.67a15,15,0,0,0-1.29,1.57l-.09,0v-3Z" style="fill:#b83552"/><path d="M75.81,47.64a7,7,0,0,1-.84,1l-.49.65V46.24Z" style="fill:#b83552"/><path d="M25.87,47.64a7.71,7.71,0,0,1-.85,1l-.48.64V46.24Z" style="fill:#b83552"/><path d="M61.05,49.61a27.25,27.25,0,0,1-1.26,6.18,62.61,62.61,0,0,1-5.57,11.83c-1.46,2.52-3.07,5-4.4,7.56-.06.12-.12.24-.21.44h3.31c-.25.67-.69,1.24-1,1.88-.2.41-.2.41.26.41H78.7A8.76,8.76,0,0,1,77.93,79a25,25,0,0,0-1.65,2.45.63.63,0,0,1-.24.27H47.13a.37.37,0,0,0-.41.29,57.86,57.86,0,0,0-3.36,13.26,69,69,0,0,0-.48,8c0,.24,0,.4-.33.4H23.06c.09-1.21.17-2.41.3-3.62a41.58,41.58,0,0,1,1.17-6.26,33.13,33.13,0,0,1,4-9.23,34.43,34.43,0,0,1,3.8-4.87c1.26-1.4,2.6-2.71,4-4,1.82-1.76,3.7-3.45,5.59-5.13a31.92,31.92,0,0,0,3-3.17c1-1.12,1.9-2.26,2.85-3.39s2-2.34,3-3.5c.12-.15.26-.28.39-.43s.35-.22.11-.46-.3-.3-.57-.08A2.67,2.67,0,0,1,49,60a9.45,9.45,0,0,0-2.53.43c-.2-.17-.29,0-.4.13a17.75,17.75,0,0,1-2.5,1.79,9,9,0,0,1-6.1,1.08,67.37,67.37,0,0,1-7-1.73,6.41,6.41,0,0,0-2.47-.23A3.13,3.13,0,0,0,25.65,63a7.77,7.77,0,0,0-.95,3,16.89,16.89,0,0,0-.16,2.66c0,.23,0,.34-.31.34-3.33,0-6.66,0-10,0,0-6.33,0-12.66,0-19,0-.32.09-.41.41-.41h11c.36,0,.43.11.43.44,0,1.07,0,2.13,0,3.21.35-.42.63-.88,1-1.28A8.34,8.34,0,0,1,32.27,49a16.88,16.88,0,0,1,3-.22,22.27,22.27,0,0,1,5.55,1c2.25.64,4.46,1.38,6.73,1.93a7.75,7.75,0,0,0,3.45.22,4.46,4.46,0,0,0,3.21-2.12c.11-.21.28-.18.46-.18Z" style="fill:#faf3d3"/><path d="M39.27,67.53c-2.41,2.22-4.87,4.39-7.16,6.73-.37.38-.74.77-1.1,1.16a.49.49,0,0,1-.39.19l-17.31,0h0c-.08-1.54-.26-3.07-.4-4.61,0-.51-.08-1-.12-1.6a1.54,1.54,0,0,1,.52.44l2.29,2.52c.3.34.61.66.91,1a.61.61,0,0,0,.51.21H28.32c.35,0,.41-.12.41-.42a12.42,12.42,0,0,1,.57-4.45,3.57,3.57,0,0,1,2.32-2.57,4.89,4.89,0,0,1,2.71,0l4.73,1.3C39.16,67.4,39.25,67.42,39.27,67.53Z" style="fill:#67243c"/><path d="M111,49.61a27.05,27.05,0,0,1-1.26,6.17,64.19,64.19,0,0,1-5.92,12.44c-1.34,2.3-2.82,4.54-4,6.92l-.25.48h3.31a8.57,8.57,0,0,1-.73,1.41c-.13.26-.46.57-.35.78s.54.09.83.09h26.09l-1,1.29a26.82,26.82,0,0,0-1.5,2.26,1.58,1.58,0,0,1-.22.23H97.11a.43.43,0,0,0-.47.33,58.35,58.35,0,0,0-3.31,12.93,63.07,63.07,0,0,0-.5,8.24c0,.33-.07.45-.43.45H73c.07-1.27.17-2.53.31-3.79a41.34,41.34,0,0,1,1-5.51,33.05,33.05,0,0,1,4.92-11A36.77,36.77,0,0,1,82,79.85c.85-.93,1.7-1.86,2.6-2.73,2-2,4.07-3.91,6.19-5.76a41.47,41.47,0,0,0,4.45-4.64l4.07-4.83,1.7-2c.1-.12.23-.24,0-.41s-.23-.29-.44-.13a3.81,3.81,0,0,1-2.21.63,10.06,10.06,0,0,0-2,.36c-.18-.17-.27,0-.37.1a17.45,17.45,0,0,1-2.14,1.59,8.74,8.74,0,0,1-5.47,1.42,20.46,20.46,0,0,1-3.55-.62c-1.72-.45-3.41-1-5.15-1.37-2.41-.49-3.92.36-4.67,2.56,0,.14-.1.29-.14.43a15.7,15.7,0,0,0-.48,4.15c0,.21,0,.38-.3.38-3.33,0-6.66,0-10,0q0-9.5,0-19c0-.33.09-.42.42-.42h11c.35,0,.44.1.43.44,0,1.08,0,2.16,0,3.33.38-.52.67-1,1-1.44a8.43,8.43,0,0,1,5-2.9,17.66,17.66,0,0,1,2.81-.23,21,21,0,0,1,5.87,1c2.12.63,4.25,1.25,6.38,1.84a8.83,8.83,0,0,0,3.15.39,4.61,4.61,0,0,0,3.84-2.17c.12-.21.28-.22.48-.22Z" style="fill:#faf3d3"/><path d="M106.31,75.59c1-1.7,2-3.37,3-5.1s1.83-3.32,2.61-5.06a1.24,1.24,0,0,1,.26-.46c0,1.23,0,2.46,0,3.69,0,.17-.07.38.23.37l2.53,2.74q.63.67,1.23,1.38a1.06,1.06,0,0,0,.87.41q5.55,0,11.1,0c.38,0,.48-.11.47-.48a12.83,12.83,0,0,1,.5-4.13,3.8,3.8,0,0,1,2.1-2.72,4.69,4.69,0,0,1,3.05-.14c1.66.44,3.31.92,5,1.38-1,.94-2,1.88-3,2.81-1.79,1.64-3.55,3.31-5.21,5.08a.61.61,0,0,1-.48.26H118.4l-1-1.16-.6,1.16Z" style="fill:#67243c"/><path d="M64.18,69c3.33,0,6.66,0,10,0,.33,0,.3-.17.3-.38A15.7,15.7,0,0,1,75,64.5c0-.14.09-.29.14-.43.75-2.2,2.26-3,4.67-2.56,1.74.36,3.43.92,5.15,1.37a20.46,20.46,0,0,0,3.55.62,8.74,8.74,0,0,0,5.47-1.42,17.45,17.45,0,0,0,2.14-1.59c.1-.08.19-.27.37-.1-.06.29-.31.44-.49.64a90,90,0,0,1-6.67,6.43c-1.79-.49-3.56-1-5.37-1.47a4.37,4.37,0,0,0-2.65.23,3.64,3.64,0,0,0-2,2.45,12.18,12.18,0,0,0-.57,4.4c0,.37-.09.49-.48.48q-5.56,0-11.14,0a1,1,0,0,1-.8-.38c-.55-.61-1.1-1.22-1.66-1.82L62.46,69Z" style="fill:#b83552"/><path d="M62.46,69l2.13,2.33c.56.6,1.11,1.21,1.66,1.82a1,1,0,0,0,.8.38q5.58,0,11.14,0c.39,0,.48-.11.48-.48a12.18,12.18,0,0,1,.57-4.4,3.64,3.64,0,0,1,2-2.45A4.37,4.37,0,0,1,83.91,66c1.81.42,3.58,1,5.37,1.47l-3,2.78c-1.8,1.65-3.57,3.32-5.24,5.11a.66.66,0,0,1-.52.26h-12l-1-1.16-.6,1.16H56.38l2.29-3.92A70.63,70.63,0,0,0,62,65.4a1,1,0,0,1,.24-.42c0,1.23,0,2.46,0,3.69C62.23,68.84,62.17,69.05,62.46,69Z" style="fill:#67243c"/></g></g></svg>