<svg id="Слой_1" data-name="Слой 1" xmlns="http://www.w3.org/2000/svg" viewBox="0 0 792.11 618.55"><title>888 casino</title><path d="M-891.66,329.82A52.93,52.93,0,0,1-912,309.63a57.9,57.9,0,0,1-7.34-29.19A57.9,57.9,0,0,1-912,251.25a52.26,52.26,0,0,1,20.3-20.09q12.95-7.22,29.48-7.21A55.48,55.48,0,0,1-836,230a42.73,42.73,0,0,1,17.85,17.58L-833,257.42a33.6,33.6,0,0,0-12.65-11.92,35.35,35.35,0,0,0-16.73-4,38,38,0,0,0-19.07,4.81A33.88,33.88,0,0,0-894.72,260a42.28,42.28,0,0,0-4.79,20.4,42.7,42.7,0,0,0,4.79,20.61,33.82,33.82,0,0,0,13.26,13.71,37.87,37.87,0,0,0,19.07,4.81,35.34,35.34,0,0,0,16.73-4A33.63,33.63,0,0,0-833,303.67l14.89,9.62A43.34,43.34,0,0,1-836,331a54.71,54.71,0,0,1-26.21,6.17Q-878.71,337.15-891.66,329.82Z" transform="translate(1032.85 281.4)" fill="#7cf237"/><path d="M-694.5,225v110.9h-18.77V318.32a42.56,42.56,0,0,1-16.52,14,50,50,0,0,1-22,4.82A55.59,55.59,0,0,1-780,330a50.28,50.28,0,0,1-19.48-20q-7-12.87-7-29.61t7-29.5A50.47,50.47,0,0,1-780,231.06,55.68,55.68,0,0,1-751.82,224a50.84,50.84,0,0,1,21.42,4.49,42,42,0,0,1,16.32,13.29V225Zm-37.13,89.66a34.05,34.05,0,0,0,13.06-13.81,43.14,43.14,0,0,0,4.69-20.4,43.16,43.16,0,0,0-4.69-20.4,33.48,33.48,0,0,0-13.06-13.71,36.63,36.63,0,0,0-18.56-4.81,36.49,36.49,0,0,0-18.67,4.81,34.38,34.38,0,0,0-13,13.71,42.28,42.28,0,0,0-4.8,20.4,42.25,42.25,0,0,0,4.8,20.4,35,35,0,0,0,13,13.81,35.79,35.79,0,0,0,18.67,4.92A35.93,35.93,0,0,0-731.63,314.65Z" transform="translate(1032.85 281.4)" fill="#7cf237"/><path d="M-558.95,199.88a12.49,12.49,0,0,1-3.77-9.2,12.87,12.87,0,0,1,3.77-9.32,12.69,12.69,0,0,1,9.48-3.87,13.13,13.13,0,0,1,9.49,3.66,12.18,12.18,0,0,1,3.77,9.11,13.1,13.1,0,0,1-3.77,9.52,12.71,12.71,0,0,1-9.49,3.87A12.87,12.87,0,0,1-558.95,199.88Zm-.31,25.11h19.59v110.9h-19.59Z" transform="translate(1032.85 281.4)" fill="#7cf237"/><path d="M-415,236.12q11.79,12.24,11.8,35.88v63.82h-19V274.3q0-16.11-7.33-24.27t-21-8.16q-15.47,0-24.38,9.52t-8.91,27.31v57.12h-19V224.92h18.23v16.74a37.43,37.43,0,0,1,15.56-13.18,51.86,51.86,0,0,1,22.29-4.61Q-426.83,223.87-415,236.12Z" transform="translate(1032.85 281.4)" fill="#7cf237"/><path d="M-349.56,329.82a52.46,52.46,0,0,1-20.09-20.19,58.46,58.46,0,0,1-7.24-29.19,58.46,58.46,0,0,1,7.24-29.19,51.8,51.8,0,0,1,20.09-20.09,58.16,58.16,0,0,1,29-7.21,57.63,57.63,0,0,1,28.87,7.21,52,52,0,0,1,20,20.09,58.57,58.57,0,0,1,7.24,29.19,58.57,58.57,0,0,1-7.24,29.19,52.68,52.68,0,0,1-20,20.19,56.88,56.88,0,0,1-28.87,7.33A57.41,57.41,0,0,1-349.56,329.82Zm47.64-15.17A34.33,34.33,0,0,0-289,300.84a43,43,0,0,0,4.69-20.4A43,43,0,0,0-289,260a33.75,33.75,0,0,0-12.95-13.71,36.49,36.49,0,0,0-18.67-4.81,36.42,36.42,0,0,0-18.66,4.81A34.33,34.33,0,0,0-352.31,260a42.28,42.28,0,0,0-4.79,20.4,42.25,42.25,0,0,0,4.79,20.4,34.93,34.93,0,0,0,13.06,13.81,35.73,35.73,0,0,0,18.66,4.92A35.79,35.79,0,0,0-301.92,314.65Z" transform="translate(1032.85 281.4)" fill="#7cf237"/><path d="M-542.82-59.26c14.17-15,24.89-31.5,30.84-50.81a136.55,136.55,0,0,0,5.07-58.21c-2.58-20.05-9.23-38.71-21-55.2-35.38-49.56-85.82-66.38-140.87-53.86-52.14,11.87-91.57,57.38-98.12,110.52a109.72,109.72,0,0,0-.09,31c3.05,29.6,15.46,54.82,36.32,76.57-20.48,21.33-32.85,46.11-36.27,75.16a153.24,153.24,0,0,0,0,32.33c6,54.82,48.4,99,96.71,110.28,56.22,13.19,107.27-4,142.65-54.11,15-21.31,21.58-45.61,21.73-71.41.23-35.45-11.87-66.37-37.13-92.2ZM-636.8-203c32.53,0,53.06,26.82,53.23,52,.2,27.75-23.21,52.4-50.88,52h-3.64c-26.95.76-50.61-24.45-50.68-51.52C-688.79-176.88-666.77-202.95-636.8-203ZM-637,84.31c-30.58-.24-52.54-26.26-51.39-52.19C-689.93,5.27-665.32-19.63-637-19.8c31.36-.19,53.46,25.9,53.46,51.51C-583.49,57.66-604.5,84.58-637,84.31Z" transform="translate(1032.85 281.4)" fill="#75de2d"/><path d="M-543.31-59.69C-555.64-45.15-570.93-36.56-587.2-29c-20.87,9.63-43.15,9.84-65.15,8.17-29.8-2.28-55.12-15.55-76.25-36.7a11.06,11.06,0,0,1-1.29-2c12.48-13.33,27.42-22.84,44.1-30,21.71-9.35,44.72-10.13,67.33-7.86a111.44,111.44,0,0,1,61,25.45C-552.66-68-548.11-63.85-543.31-59.69Z" transform="translate(1032.85 281.4)" fill="#7cf237" opacity="0.5"/><path d="M-776.76-110.07a136.4,136.4,0,0,0,5.09-58.21c-2.6-20.05-9.23-38.71-21-55.2C-828-273-878.48-289.86-933.58-277.34c-52.15,11.87-91.58,57.38-98.13,110.52a110.09,110.09,0,0,0-.08,31c3,29.6,15.46,54.82,36.31,76.57-20.45,21.33-32.84,46.11-36.23,75.12a153.24,153.24,0,0,0,0,32.33c6,54.82,48.4,99,96.72,110.28,56.14,13.19,107.27-4,142.65-54.11,15-21.31,21.57-45.62,21.73-71.41.22-35.45-11.88-66.37-37.13-92.21C-793.48-74.17-782.7-90.72-776.76-110.07ZM-901.55-203c32.53,0,53.08,26.82,53.25,52,.18,27.75-23.22,52.4-50.9,52h-3.64c-26.93.76-50.6-24.45-50.67-51.52,0-26.41,22-52.48,52-52.5Zm-.24,287.28c-30.6-.24-52.55-26.26-51.4-52.19-1.54-26.85,23.08-51.75,51.35-51.92,31.41-.19,53.5,25.85,53.55,51.51C-848.23,57.66-869.25,84.58-901.79,84.31Z" transform="translate(1032.85 281.4)" fill="#75de2d"/><path d="M-808-59.69c-12.34,14.54-27.69,23.13-43.88,30.61-20.89,9.63-43.16,9.84-65.16,8.17-29.8-2.28-55.13-15.55-76.26-36.7a15.06,15.06,0,0,1-1.29-2c12.5-13.34,27.42-22.84,44.11-30,21.71-9.35,44.71-10.14,67.33-7.86A111.29,111.29,0,0,1-822.26-72C-817.48-68-812.84-63.85-808-59.69Z" transform="translate(1032.85 281.4)" fill="#7cf237" opacity="0.5"/><path d="M-277.78-59.34c14.17-15,24.89-31.5,30.84-50.82a136.49,136.49,0,0,0,5.07-58.2c-2.58-20.06-9.23-38.71-21-55.2-35.38-49.56-85.75-66.39-140.87-53.86-52.14,11.86-91.56,57.37-98.11,110.52a109.28,109.28,0,0,0-.1,31c3.05,29.6,15.46,54.82,36.32,76.58C-486.06-38-498.45-13.2-501.85,15.82a153.81,153.81,0,0,0,0,32.39c6,54.82,48.4,99,96.71,110.29,56.15,13.18,107.27-4,142.65-54.12,15-21.31,21.58-45.61,21.73-71.4.23-35.45-11.87-66.37-37.13-92.21Zm-94-143.71c32.52,0,53.06,26.82,53.23,52,.2,27.74-23.21,52.4-50.88,52H-373c-27,.76-50.61-24.44-50.61-51.51C-423.72-177-401.7-203-371.73-203ZM-372,84.23C-402.57,84-424.53,58-423.37,32-424.92,5.19-400.31-19.72-372-19.89c31.42-.18,53.5,25.85,53.56,51.52C-318.42,57.58-339.43,84.49-372,84.23Z" transform="translate(1032.85 281.4)" fill="#75de2d"/><path d="M-278.24-59.78c-12.33,14.55-27.69,23.14-43.89,30.62C-343-19.54-365.28-19.32-387.28-21c-29.8-2.27-55.13-15.54-76.27-36.7a12.54,12.54,0,0,1-1.27-1.95c12.48-13.34,27.42-22.84,44.09-30C-399-99-376-99.81-353.39-97.53a111.25,111.25,0,0,1,60.95,25.44C-287.68-68.1-283-63.94-278.24-59.78Z" transform="translate(1032.85 281.4)" fill="#7cf237" opacity="0.5"/><path d="M-663.4,313.86a62.65,62.65,0,0,0,29.12,7.87c16.07,0,23.6-7.19,23.6-16.18,0-9.45-6.28-14.62-22.6-20-21.84-7-29.92-16.54-29.92-29.58,0-17.53,13.6-33.15,39.71-33.15,12.31,0,25.88,5.83,32.66,9.43l-5.52,14.39c-4.77-2.7-16.34-9-27.64-9-13,0-18.13,8-18.13,16.07,0,9,5.08,11.81,20.89,17.2,21.09,7.2,31.89,16.64,31.89,32.83,0,19.11-16.57,32.6-45.44,32.6-13.31,0-25.61-2.93-34.15-7.42Z" transform="translate(1032.85 281.4)" fill="#7cf237"/></svg>