<?xml version="1.0" encoding="utf-8"?>
<!-- Generator: Adobe Illustrator 23.0.1, SVG Export Plug-In . SVG Version: 6.00 Build 0)  -->
<svg version="1.1" id="Layer_1" xmlns="http://www.w3.org/2000/svg" xmlns:xlink="http://www.w3.org/1999/xlink" x="0px" y="0px"
	 viewBox="0 0 294.5 101.7" style="enable-background:new 0 0 294.5 101.7;" xml:space="preserve">
<style type="text/css">
	.st0{fill:url(#SVGID_1_);}
	.st1{fill:url(#SVGID_2_);}
	.st2{fill:url(#SVGID_3_);}
	.st3{fill:url(#SVGID_4_);}
	.st4{fill:url(#SVGID_5_);}
</style>
<g>
	
		<linearGradient id="SVGID_1_" gradientUnits="userSpaceOnUse" x1="134.4" y1="89.9" x2="169.3" y2="55" gradientTransform="matrix(1 0 0 -1 0 104)">
		<stop  offset="0" style="stop-color:#DED0A1"/>
		<stop  offset="1" style="stop-color:#927D4A"/>
	</linearGradient>
	<path class="st0" d="M133.7,42.8h-2V25.1h-6.5v-1.8h15.1v1.8h-6.5v17.7C133.8,42.8,133.7,42.8,133.7,42.8z M143.1,23.3h2v8.5h10.6
		v-8.5h2v19.5h-2v-9.2h-10.6v9.2h-2V23.3z M164.9,41.1h10.5v1.8H163V23.3h12v1.8h-10.1v6.7h9.5v1.8h-9.5V41.1z"/>
	<linearGradient id="SVGID_2_" gradientUnits="userSpaceOnUse" x1="50.5249" y1="69.425" x2="109.1625" y2="10.7875">
		<stop  offset="0" style="stop-color:#DED0A1"/>
		<stop  offset="1" style="stop-color:#927D4A"/>
	</linearGradient>
	<path class="st1" d="M89.9,37.5c2.6-0.9,5-2,7.2-3.4c0.2,0.5,0.5,1,0.8,1.8c0.1-1.4,1.9-3.7,3.4-5.4c-0.9,3,0.4,6.3,3.4,7.9
		c3.3,1.7,7.3,0.4,9-2.9c1-1.9,1-4.2,0-6.2c2.9-0.8,4.8-3.5,4.8-6.4c0-3.7-3-6.7-6.7-6.7c-2.4,0-4.6,1.3-5.8,3.4
		c-1.8-3.2-5.9-4.3-9.1-2.5c-3.2,1.8-4.3,5.9-2.5,9.1c1.3,2.3,3.7,3.5,6.2,3.4c-2,0.8-4.7,1.6-6.1,1.6c0.7,0.6,1.2,1,1.6,1.4
		c-2.7,2.1-6.1,3.3-7.8,4c-3.8-2.3-7.9-4.3-12.1-5.9c-1.3-1.8-3.9-5.5-5.6-7.9c1.5-1,2.9-1.7,2.9-1.7c-2.4,0.4-5.4-2.7-5.4-2.7
		c6.2,0.7,7.8-2.8,7.8-2.8C80.5,8,70.5,5.5,66.4,4.5c-4.1-1-9.7-4.5-9.7-4.5s-0.8,6.3-1.8,8.5c-1.2,2.8-5.5,10.1,0.9,14.7
		c6.4,4.6,10.2-3.3,10.2-3.3c2.6,1.8,1.4,5.5,1.4,5.5c0.5-0.6,1.2-1.2,1.9-1.7c1.2,1.5,3.7,4.8,4.3,6.1c-0.9-0.3-1.8-0.5-2.7-0.7
		C57.7,26.3,46,31.5,42,33.6c0.3-2.1,0.3-6.3-4-7.3c-2.7-0.5-5.4,0.6-7,2.8c-2.8,3.8-7.7,10.7-8.2,12.6c4.2,1.3,9,5.4,18.9,6.2
		c4,0.3,9.9-7,1.6-12c-0.4-0.3-0.7-0.6-0.9-1c19.5-10,31.3-4,41,1c0.8,0.4,1.6,0.9,2.5,1.4c-0.8,0.9-3.2,3.6-5.1,5.6L66,43.7
		L64.4,59l15.8-1l1.5-13.4c1.5-2,4.2-5.6,5.6-6.5C100,46,119,63.4,119,63.4l2.4-1.6C121.4,61.8,106.1,47.4,89.9,37.5z"/>
	
		<linearGradient id="SVGID_3_" gradientUnits="userSpaceOnUse" x1="72.0224" y1="107.7776" x2="229.25" y2="-49.45" gradientTransform="matrix(1 0 0 -1 0 104)">
		<stop  offset="0" style="stop-color:#DED0A1"/>
		<stop  offset="1" style="stop-color:#927D4A"/>
	</linearGradient>
	<path class="st2" d="M117.4,55.5c8.3,7.6,16.8,16.8,25.8,25.1V55h7.3v46.2l-26.2-27.9l0,1.8v26h-6.9V55.5z M55.9,85.2
		c5.6-3,8.6-7.1,9.7-11.6c0.6-3.9,0.1-7.8-1.6-11.3c-1-1.9-2.5-3.4-4.4-4.3c-4.8-2.6-7.7-2.5-17.4-2.3l0.4,45.4H49v-14l10.2,14h8.3
		C63.7,95.6,58.4,88.9,55.9,85.2z M49.1,61c5.7-0.7,9.7,2.4,10.1,7.9c0.6,7.1-2.7,10.8-10.1,11.2V61z M157,101.2
		c-0.1-2.1-0.2-3.8-0.2-5.4c0-13.4,0-26.9,0-40.2c10.7-2.4,22.4,1.4,27.6,9.1c5.6,8.4,6.1,17.3,0.8,25.8
		C178.8,100.8,168.6,102.3,157,101.2z M163.8,95.1c7-0.3,12.7-2.6,16.2-8.4c3.4-5.3,3.3-12.2-0.3-17.4c-3.6-5.5-9.1-7.6-15.9-7.9
		V95.1z M7.2,79.5c-1-13,9.6-22.2,26-16.3c0.3-1.4,1-5,1.3-6.5C21.8,52,10.1,55.5,3.6,65.4c-5.8,9.4-4.5,21.5,3.1,29.4
		c7.2,7.1,19.9,9.1,27.6,4.2V80H23.1v6.1h5.6v9C16.9,97,8.1,90.4,7.2,79.5z M114.3,101.2h-6.7l-4.5-8.6H83c-1.4,2.7-2.8,5.5-4.4,8.6
		h-6.8l21.2-46C100.4,71,107.2,85.9,114.3,101.2z M93.1,70l-7.3,16.3h14.7L93.1,70z M237,101l19.5-46.2H249
		c-3.8,9.4-7.6,18.6-12,29.3c-4.4-10.7-8.2-20.1-12-29.3h-7.6C224,70.3,230.3,85.1,237,101L237,101z M213.2,55H207v46.1h6.2V55z
		 M287.8,55l-9.6,23c-3.6-8.6-6.7-16-9.9-23.4c-1.8,0-3.1,0-4.4,0c-0.7,0.1-1.5,0.2-2.2,0.3c2.6,9,10.1,21.4,12.9,30.2v16h7v-16
		c2.9-8.8,10.3-21.2,12.9-30.3L287.8,55z"/>
</g>
<linearGradient id="SVGID_4_" gradientUnits="userSpaceOnUse" x1="-148.8784" y1="61.0761" x2="-136.9304" y2="61.0761">
	<stop  offset="0" style="stop-color:#DED0A1"/>
	<stop  offset="1" style="stop-color:#927D4A"/>
</linearGradient>
<path class="st3" d="M-140.1,64.8h1.5v2.5c-3.3,0.5-5.7-1.3-5.9-4.3c-0.3-3.6,2.6-6.1,7.2-4.5c0.1-0.4,0.3-1.4,0.3-1.8
	c-2.1-0.8-4.2-0.7-5.8,0c-0.4-0.3-0.8-0.6-1.2-0.9c0.2-0.1,0.4-0.2,0.5-0.3c0,0,0.1,0.1,0.1,0.1c0-0.1,0.2-0.3,0.3-0.4
	c-0.1,0.2,0,0.5,0.2,0.6c0.2,0.1,0.5,0,0.7-0.2c0.1-0.1,0.1-0.3,0-0.4c0.2-0.1,0.4-0.3,0.4-0.5c0-0.3-0.2-0.5-0.5-0.5
	c-0.2,0-0.3,0.1-0.4,0.2c-0.1-0.2-0.4-0.3-0.7-0.2c-0.2,0.1-0.3,0.4-0.2,0.7c0.1,0.2,0.3,0.2,0.5,0.2c-0.1,0.1-0.3,0.1-0.5,0.1
	c0,0,0.1,0.1,0.1,0.1c-0.2,0.1-0.4,0.2-0.6,0.3c-0.3-0.2-0.6-0.3-0.9-0.4c-0.1-0.1-0.3-0.4-0.4-0.6c0.1,0,0.1-0.1,0.2-0.1
	c-0.2,0-0.4-0.2-0.4-0.2c0.4,0,0.6-0.2,0.6-0.2c0.3-0.6-0.4-0.7-0.7-0.8c-0.2-0.1-0.5-0.2-0.7-0.3c0,0.2-0.1,0.4-0.1,0.6v0
	c-0.1,0.2-0.4,0.7,0.1,1.1c0.5,0.3,0.7-0.2,0.7-0.2c0.2,0.1,0.1,0.4,0.1,0.4c0,0,0.1-0.1,0.2-0.1c0.1,0.1,0.2,0.3,0.3,0.4
	c-0.1,0-0.1,0-0.2-0.1c-0.7-0.1-1.5,0-2.1,0.3c0-0.1,0-0.5-0.3-0.5c-0.2,0-0.4,0-0.5,0.2c-0.2,0.3-0.4,0.6-0.6,0.9
	c0.3,0.1,0.7,0.4,1.4,0.4c0.3,0,0.7-0.5,0.1-0.9c0,0,0,0,0-0.1c1.4-0.7,2.3-0.3,3,0.1c0.1,0,0.1,0.1,0.2,0.1
	c-0.1,0.1-0.2,0.3-0.4,0.4l-1.1,0.1l-0.1,1.1l1.1-0.1l0.1-1c0.1-0.2,0.3-0.3,0.4-0.5c0.4,0.3,0.8,0.6,1.2,0.9
	c-1,0.5-1.8,1.3-2.5,2.3c-1.6,2.6-1.3,5.9,0.9,8.1c2,2,5.5,2.5,7.6,1.1v-5.2h-3.1V64.8z"/>
<linearGradient id="SVGID_5_" gradientUnits="userSpaceOnUse" x1="-141.6006" y1="62.5317" x2="-133.6094" y2="62.5317">
	<stop  offset="0" style="stop-color:#DED0A1"/>
	<stop  offset="1" style="stop-color:#927D4A"/>
</linearGradient>
<path class="st4" d="M-135.3,56.2v2.7c-0.5,0.4-0.7,0.5-0.8,0.6c-0.1-0.1-0.2-0.2-0.3-0.4l-0.1-0.6l-0.7,0l0.1,0.7l0.6,0
	c0.1,0.1,0.3,0.3,0.3,0.3c-0.1,0-1.6,1-1.6,1c-0.6,0.3-1.3,0.7-2.6,0.1c0,0,0,0,0-0.1c0.5-0.3,0.1-0.8-0.1-0.8
	c-0.6,0-0.9,0.3-1.2,0.4c0.1,0.3,0.3,0.5,0.5,0.8c0.1,0.1,0.3,0.2,0.4,0.2c0.3-0.1,0.3-0.3,0.3-0.5c0.6,0.3,1.2,0.4,1.8,0.3
	c0.1,0,0.1,0,0.2,0c-0.1,0.1-0.2,0.3-0.3,0.4c0,0-0.1-0.1-0.1-0.1c0,0,0.1,0.2-0.1,0.3c0,0-0.2-0.5-0.6-0.2s-0.1,0.8-0.1,0.9v0
	c0.1,0.2,0.1,0.4,0.1,0.5c0.2-0.1,0.4-0.2,0.6-0.3c0.3-0.1,0.9-0.2,0.6-0.7c0,0-0.1-0.2-0.5-0.2c0,0,0.2-0.2,0.3-0.2
	c-0.1,0-0.1-0.1-0.2-0.1c0.1-0.2,0.3-0.4,0.3-0.5c0.3-0.1,0.5-0.2,0.8-0.4c0.2,0,0.3,0.1,0.5,0.2c0,0,0,0.1-0.1,0.1
	c0.1,0,0.3,0.1,0.4,0.1c-0.2,0-0.3,0.1-0.4,0.2c-0.1,0.2,0,0.5,0.2,0.6c0.2,0.1,0.5,0,0.6-0.2c0.1,0.1,0.2,0.2,0.4,0.2
	c0.2,0,0.4-0.2,0.4-0.4c0-0.2-0.1-0.4-0.3-0.4c0.1-0.1,0.1-0.3,0-0.4c-0.1-0.2-0.4-0.3-0.6-0.2c-0.2,0.1-0.3,0.3-0.2,0.5
	c-0.1-0.1-0.2-0.3-0.2-0.3c0,0-0.1,0.1-0.1,0.1c-0.1-0.1-0.3-0.2-0.4-0.2c0.6-0.4,1.4-0.9,2.1-1.4v9.8h1.7V56.2H-135.3z"/>
</svg>
