<svg xmlns="http://www.w3.org/2000/svg" width="16" height="11.442" viewBox="0 0 16 11.442">
    <defs>
        <style>
            .cls-1{fill:#ffc107}
        </style>
    </defs>
    <g id="Group_3" data-name="Group 3" transform="translate(-355.298 -425)">
        <path id="Path_20" d="M436.11 727.147l4.984-.027 4.984.027.387-1.617h-10.742z" class="cls-1" data-name="Path 20" transform="translate(-77.796 -290.705)"/>
        <path id="Path_21" d="M370.287 427.022a1.011 1.011 0 0 0-.681 1.758 5.55 5.55 0 0 1-2.455 1.635 1.806 1.806 0 0 1-.639.057 2.707 2.707 0 0 1-1.836-1.5 13.329 13.329 0 0 1-1.013-2.018 1.011 1.011 0 1 0-.73 0 13.33 13.33 0 0 1-1.013 2.018 2.707 2.707 0 0 1-1.836 1.5 1.806 1.806 0 0 1-.639-.057 5.55 5.55 0 0 1-2.455-1.635 1.012 1.012 0 1 0-.452.237l1.2 5h11.128l1.2-5a1.011 1.011 0 1 0 .229-2z" class="cls-1" data-name="Path 21"/>
    </g>
</svg>
