<?xml version="1.0" encoding="utf-8"?>
<!-- Generator: Adobe Illustrator 23.0.1, SVG Export Plug-In . SVG Version: 6.00 Build 0)  -->
<svg version="1.1" id="Layer_1" xmlns="http://www.w3.org/2000/svg" xmlns:xlink="http://www.w3.org/1999/xlink" x="0px" y="0px"
	 viewBox="0 0 153.06 73.48" enable-background="new 0 0 153.06 73.48" xml:space="preserve">
<path fill-rule="evenodd" clip-rule="evenodd" fill="#FFFFFF" d="M3.61,18.56c0.2-1.81,1.2-2.79,3.03-2.79h4.45
	c1.7,0,2.75,0.77,3.31,2.37l8.96,22.04c1.13,2.92,2.55,7.23,2.55,7.23h0.14c0,0,1.34-4.31,2.47-7.23l8.96-22.04
	c0.56-1.6,1.62-2.37,3.38-2.37h4.38c1.84,0,2.9,0.98,3.04,2.79l3.6,43.59c0.13,1.88-0.85,2.99-2.83,2.99h-3.18
	c-1.83,0-2.89-0.98-3.03-2.78l-1.9-24.82c-0.22-3.27-0.08-7.65-0.08-7.65h-0.14c0,0-1.55,4.8-2.68,7.65l-7.27,16.82
	c-0.56,1.53-1.62,2.3-3.31,2.3h-2.97c-1.76,0-2.82-0.77-3.38-2.3l-7.2-16.82c-0.97-2.55-1.89-5.13-2.75-7.72h-0.14
	c0,0,0.14,4.45-0.07,7.72L9.03,62.36C8.89,64.16,7.9,65.14,6,65.14H2.83c-1.97,0-2.96-1.11-2.82-2.99l3.6-43.6V18.56z M58.21,18.7
	c0-1.88,0.99-2.92,2.9-2.92h16.36c9.39,0,15.95,6.46,15.95,16.06c0,9.59-6.56,16.26-15.95,16.26H67.24v14.12
	c0,1.95-0.99,2.92-2.9,2.92H61.1c-1.9,0-2.89-0.97-2.89-2.92V18.7z M75.78,40.31c5.36,0,8.4-3.34,8.4-8.48
	c0-5.08-3.04-8.35-8.26-8.35h-8.68v16.83H75.78z"/>
<path fill-rule="evenodd" clip-rule="evenodd" fill="#FFFFFF" d="M152.02,60.56c0.36-0.34,0.64-0.76,0.82-1.23
	c0.18-0.47,0.25-0.97,0.2-1.46c-0.04-0.5-0.2-0.98-0.45-1.41c-0.26-0.43-0.6-0.79-1.02-1.07l-3.41-2.29
	c-0.6-0.4-1.33-0.58-2.05-0.51c-0.72,0.07-1.4,0.37-1.92,0.87c-6.89,6.45-17,10.54-28.23,10.54c-14.88,0-27.76-7.14-33.83-17.47
	l-8.4,1.27c6.83,15.03,23.86,25.68,43.8,25.68C131.16,73.48,143.43,68.5,152.02,60.56z"/>
<path fill-rule="evenodd" clip-rule="evenodd" fill="#FFC32E" d="M139.18,34.45c0,4.32-1.55,8-3.8,11.17l1.66,1.32
	c1.5,1.2,1.66,2.68,0.37,4.1l-1.33,1.48c-1.29,1.37-2.67,1.53-3.9,0.32l-1.98-1.8c-3.1,2-6.85,3.11-11.02,3.11
	c-11.87,0-20-8.64-20-19.7c0-10.8,8.13-19.23,20-19.23C131,15.22,139.18,23.65,139.18,34.45L139.18,34.45z M119.18,45.73
	c1.44,0.02,2.86-0.27,4.17-0.85l-1.7-1.47c-1.4-1.21-1.5-2.64-0.28-4.06l1.34-1.47c1.28-1.43,2.67-1.58,3.9-0.43l1.88,1.85
	c0.67-1.53,1.01-3.18,1.01-4.85c0-6.16-4.44-10.8-10.32-10.8c-6.04,0-10.32,4.64-10.32,10.8C108.86,40.88,113.14,45.73,119.18,45.73
	z"/>
<path fill-rule="evenodd" clip-rule="evenodd" fill="#FFFFFF" d="M125.04,6.94V6.29c-0.02-1.69-0.72-3.31-1.93-4.48
	c-1.21-1.18-2.85-1.83-4.54-1.81c-1.69,0.02-3.31,0.72-4.49,1.93s-1.83,2.85-1.81,4.54v0.66C116.41,5.71,120.88,5.64,125.04,6.94
	L125.04,6.94z M115.18,11.05l7.09-0.1c-2.34-0.5-4.77-0.47-7.1,0.1"/>
<path fill-rule="evenodd" clip-rule="evenodd" fill="#FFFFFF" d="M127,13.27c-5.37-1.78-11.19-1.7-16.51,0.24
	c-0.97,0.35-2.08-0.03-2.5-0.95c-0.43-0.92,0.12-2.08,1.25-2.5c6.09-2.22,12.75-2.31,18.9-0.27c1.15,0.38,1.74,1.53,1.34,2.45
	C129.08,13.17,127.98,13.59,127,13.27"/>
</svg>
