<svg xmlns="http://www.w3.org/2000/svg" viewBox="0 0 293.45 130.31"><title>Party Casino</title><g id="Layer_2" data-name="Layer 2"><g id="Party_Casino" data-name="Party Casino"><path d="M60.47,38.54H45.65V61.43H35.77V0h24.7a19.31,19.31,0,0,1,14,5.64,18.35,18.35,0,0,1,5.78,13.63,18.38,18.38,0,0,1-5.78,13.64A19.34,19.34,0,0,1,60.47,38.54Zm0-28.9H45.65V28.91H60.47a9.62,9.62,0,0,0,7-2.82,9.17,9.17,0,0,0,2.9-6.82,9.17,9.17,0,0,0-2.9-6.82A9.61,9.61,0,0,0,60.47,9.64Z" style="fill:#fff"/><path d="M101,3.7H98L74.79,61.43H85.36l3.56-8.78h21.19l3.51,8.78H124.2ZM92.43,43.88l7.06-17.55,7.07,17.55Z" style="fill:#fff"/><path d="M81.61,73.08H78.07L53.89,130.31H65l3.73-8.77H91l3.69,8.77h11.1Zm-9.19,39.68,7.42-17.55,7.42,17.55Z" style="fill:#da2a90"/><path d="M146.9,36.88h-6.23V61.43h-9.31V4.14h23.27A19.22,19.22,0,0,1,167.8,8.93a15,15,0,0,1,0,23.16,18.79,18.79,0,0,1-10.33,4.62l16.06,24.72H162.82Zm7.73-24.56h-14V28.69h14a9.62,9.62,0,0,0,6.59-2.39,7.52,7.52,0,0,0,0-11.58A9.63,9.63,0,0,0,154.63,12.32Z" style="fill:#fff"/><path d="M190.93,14.35H177.65V4.86h34.71l4.72,9.49H200.81V61.43h-9.88Z" style="fill:#fff"/><path d="M238.4,35.17,218.64,3.07h10.57L243.34,26,257.47,3.07h10.58l-19.77,32.1V61.43H238.4Z" style="fill:#fff"/><path d="M55.28,113.35l-.88-.59a22.45,22.45,0,0,1-2.32,2.37,25.53,25.53,0,0,1-17.49,6.41,25.39,25.39,0,0,1-17.47-6.43,20.23,20.23,0,0,1,0-31,25.39,25.39,0,0,1,17.47-6.43,25.53,25.53,0,0,1,17.49,6.41,22.45,22.45,0,0,1,2.32,2.37l7.91-5.27a36.09,36.09,0,0,0-3.26-3.29,35.57,35.57,0,0,0-24.46-9,35.55,35.55,0,0,0-24.46,9Q0,86.88,0,99.6t10.13,21.72q10.12,9,24.46,9a37.6,37.6,0,0,0,13.93-2.55A84,84,0,0,0,55.28,113.35Z" style="fill:#da2a90"/><path d="M131.7,99.36a45.81,45.81,0,0,1,10.46,7.55,11.44,11.44,0,0,1,3.65,8.07,13,13,0,0,1-2.5,7.81A18.05,18.05,0,0,1,137,128.3q-3.83,2-10.5,2a25.75,25.75,0,0,1-11.13-2.12,36,36,0,0,1-8.9-6.24l6.5-6.22q7.65,5.05,12.91,5.91t8.5-2.33q3.24-3.18.93-6.3a25.57,25.57,0,0,0-7.54-6.25q-5.24-3.11-9.46-5.5a28.56,28.56,0,0,1-7.12-5.56A12.23,12.23,0,0,1,108,88.2a11.94,11.94,0,0,1,2.27-8,16.72,16.72,0,0,1,7.19-5.68,26.82,26.82,0,0,1,10.84-2,22.87,22.87,0,0,1,10,1.86,31.53,31.53,0,0,1,8.24,6.39L139.84,87q-5.47-5.9-11.06-6.34c-3.72-.31-6.53.33-8.41,1.91s-2.89,3.2-3,4.86a4.8,4.8,0,0,0,1.79,4.17,28.47,28.47,0,0,0,3.85,2.8Q124.89,95.58,131.7,99.36Z" style="fill:#da2a90"/><path d="M164.05,72.56v57.75h-9.88V72.56Z" style="fill:#da2a90"/><path d="M175.45,72.54l37.47,36.24V72.66h9.36V117.8l.19.16h-.19v12.35l-.65-.9L184.82,93.87v36.44h-9.37Z" style="fill:#da2a90"/><path d="M284.17,77.88a30.06,30.06,0,0,1,0,43.44,32.48,32.48,0,0,1-44.86,0,30,30,0,0,1,0-43.44,32.45,32.45,0,0,1,44.86,0Zm-22.43-.22a22.16,22.16,0,0,0-16,6.43,21.43,21.43,0,0,0,0,31,23.17,23.17,0,0,0,32,0,21.46,21.46,0,0,0,0-31A22.19,22.19,0,0,0,261.74,77.66Z" style="fill:#da2a90"/></g></g></svg>