<svg id="Слой_1" data-name="Слой 1" xmlns="http://www.w3.org/2000/svg" viewBox="0 0 1242.46 253.56"><title>pokerstars_d</title><path d="M318.66,702.55a85.5,85.5,0,0,0-8.39-29.39,159.13,159.13,0,0,0-17-27.68,219,219,0,0,0-18.8-21.57c-15.12-15.31-30.55-30.34-45.85-45.48-.46-.48-1-.87-1.62-1.4-.66.6-1.19,1-1.66,1.51q-16.8,16.65-33.7,33.36c-10.2,10.06-20.33,20.18-29.12,31.55-3.26,4.2-6.37,8.53-9.26,13a128.22,128.22,0,0,0-13.7,27c-3.53,9.88-5.35,20.06-3.82,30.43A42.68,42.68,0,0,0,183,750.05c13.42-1.54,23.79-8.25,31.36-19.45a8.44,8.44,0,0,1,1.67-1.86,4.19,4.19,0,0,1,4.89,0,3.27,3.27,0,0,1,1.4,3.84c-.44,2.25-.72,4.54-1.23,6.78-4.48,19.31-13.33,34.85-31.62,44.63l-4.07,2c.5,0,3.45,0,3.65,0l75.7-.33c.73,0,2.39,0,3.6,0l-5-2.45c-5-3-10.2-6.4-14.06-10.74-10-11.68-15.31-25.24-17.48-40.27a3.62,3.62,0,0,1,2.94-4.2h0a2.62,2.62,0,0,1,.56,0,3.49,3.49,0,0,1,1.24.22,6.89,6.89,0,0,1,3.15,2.51c9.8,14.14,23.27,21,40.36,19.45C303.09,748,320.89,727.75,318.66,702.55Zm-42.93-44.78c-9.9,7.19-19.81,14.38-29.83,21.69,3.82,11.79,7.6,23.46,11.36,35.12a6.64,6.64,0,0,0,.24.66l-.63-.32-7.42-5.4-22.52-16.29L197,715l-.55.35.19-.58L208,679.49l-29.65-21.64-.53-.39h37.42L226.77,622l.25-.71c.21.71.13.49.21.71,3.8,11.67,7.59,23.34,11.48,35.28h37.64Z" transform="translate(-135.18 -577.03)" fill="#ce0319"/><path d="M275.73,657.8c-9.9,7.19-19.81,14.38-29.83,21.69,3.82,11.79,7.6,23.46,11.36,35.12.21.56,0,.08.24.66l-.63-.33-7.42-5.4-22.52-16.31L197,715l-.55.35.19-.58L208,679.49l-29.65-21.64-.53-.39h37.42L226.77,622l.25-.71c.21.71.13.49.21.71,3.8,11.67,7.59,23.34,11.48,35.28h37.64Z" transform="translate(-135.18 -577.03)" fill="#fff"/><path d="M668.51,753.37h20.84c11.35,16.56,22.79,33.24,34.53,50.38V753.39h17v75.83H720.83l-35.09-50.79V829.2H668.51Z" transform="translate(-135.18 -577.03)" fill="#fff"/><path d="M794.69,752.24c10.06,0,18.16,1.55,25.55,5.8,11.6,6.68,17,17.11,17.9,30.14a43.37,43.37,0,0,1-2.24,17.87,33.21,33.21,0,0,1-19,20.17c-13.63,5.75-27.53,5.89-41.14.07-13.91-5.95-20.57-17.18-21.48-32-.48-7.85.64-15.48,4.44-22.5,5.8-10.71,15.23-16.25,26.85-18.59A48.69,48.69,0,0,1,794.69,752.24Zm-20.8,39.08c0,14.26,7.46,22.64,21.11,23.75,10.44.85,19.38-5,22.34-14.56a31,31,0,0,0,1-13.64c-1.22-8.49-5.13-15.1-13.59-17.85-9-2.91-17.52-2-24.59,4.84C775.27,778.57,773.89,784.76,773.89,791.32Z" transform="translate(-135.18 -577.03)" fill="#fff"/><path d="M531.52,829.22l-6-15.54H489.33l-6,15.56h-20q15.57-38,31.11-75.88h25.94l31.11,75.86Zm-11.86-30.65c-4.06-10.48-8.07-20.82-12.25-31.59l-12.25,31.59Z" transform="translate(-135.18 -577.03)" fill="#fff"/><path d="M560.81,827.62V811.44c3.78.61,7.47,1.32,11.19,1.77,8.51,1,17,2,25.61.59a14.22,14.22,0,0,0,5.31-1.86,6.61,6.61,0,0,0,3.36-6.33c-.14-2.67-1.79-4.19-4-5.21-3.12-1.41-6.47-1.47-9.8-1.7-6-.4-12.12-.17-18-1.62-7.55-1.86-13.55-5.67-15.48-13.75-2.62-11,1-23.43,15.94-28.59,6.87-2.38,14-2.66,21.1-2.47a121.14,121.14,0,0,1,22.14,2.45l.83.22v15.8c-3.29-.6-6.53-1.28-9.81-1.77-8.12-1.22-16.27-2.06-24.47-1a11.67,11.67,0,0,0-7.13,3.13,5.75,5.75,0,0,0,1.65,9.34c2.51,1.19,5.23,1.3,7.93,1.47,5.78.38,11.6.39,17.34,1.23,7.39,1.09,13.89,3.84,17.43,11A23.84,23.84,0,0,1,609.39,827a49,49,0,0,1-17.73,3.32,150.08,150.08,0,0,1-30.28-2.55A5.13,5.13,0,0,1,560.81,827.62Z" transform="translate(-135.18 -577.03)" fill="#fff"/><path d="M454.87,811.24v16.29a81.25,81.25,0,0,1-12.79,2.35c-9.27.87-18.49.88-27.56-1.7-15.2-4.32-25.31-16.57-26.84-32.29-1.17-12,1.72-22.64,10.54-31.2,7-6.83,15.68-10.47,25.24-11.78a85.93,85.93,0,0,1,30.61,1.46c.24.06.46.16.79.28v16.71a84.38,84.38,0,0,0-13.18-2.44c-7.77-.8-15.48-.94-22.76,2.59-8.94,4.33-12.4,12.55-11.7,21.6,1.15,14.79,13.09,20.51,24,20.74A94.64,94.64,0,0,0,454.87,811.24Z" transform="translate(-135.18 -577.03)" fill="#fff"/><path d="M653.11,829.27H635V753.4h18.16Z" transform="translate(-135.18 -577.03)" fill="#fff"/><path d="M825.54,695.56v33.81H802.71V634.83a2.87,2.87,0,0,1,1.73-.21c17.91,0,35.82,0,53.73,0a40.08,40.08,0,0,1,13.9,2.26c8.77,3.23,14.54,9.29,16.79,18.43a34.73,34.73,0,0,1-1.43,21.87c-3.57,8.7-10.13,14-19.17,16.41-.3.08-.6.16-.9.26-.05,0-.08.09-.23.27l27.92,35.31h-27.9l-25.33-33.88Zm.12-18.57c.44,0,.81.12,1.17.12,7.87,0,15.74,0,23.61,0a28.2,28.2,0,0,0,6-.59c6-1.32,9.29-5.06,9.55-10.76.27-6.1-2.58-10.44-8.06-12.14a19.57,19.57,0,0,0-5.75-.9c-8.32,0-16.63,0-24.94,0-.54,0-1.13-.21-1.58.23Z" transform="translate(-135.18 -577.03)" fill="#fff"/><path d="M1258.54,694.13c9.24,11.69,18.49,23.39,27.88,35.25H1258.5l-25.29-33.85H1217v33.84h-22.78V634.61h1.5c18,0,35.94,0,53.92,0a39.28,39.28,0,0,1,15,2.69c10.05,4.14,15.27,11.9,16.49,22.5a35,35,0,0,1-1.59,15.66c-3.32,9.41-9.9,15.4-19.52,18C1259.49,693.66,1259,693.64,1258.54,694.13ZM1217,677c.49,0,.8.08,1.1.08,7.94,0,15.87,0,23.81,0a25.86,25.86,0,0,0,7.26-1c5-1.5,8-5.17,8.13-10.12.22-6.14-2.15-10.26-7-12.1a18.46,18.46,0,0,0-6.45-1.22h-25.51a2,2,0,0,0-1.32.2Z" transform="translate(-135.18 -577.03)" fill="#fff"/><path d="M537.22,730.79c-11.1.05-20.71-1.77-29.66-6.47a42,42,0,0,1-22.07-27.77A55.9,55.9,0,0,1,486.63,664C491.41,650.1,501.21,641,515,636.54c16.2-5.31,32.43-5,48,2.25,14.24,6.59,22.38,18.11,24.9,33.54,1.72,10.51,1.09,20.87-3.16,30.75-5.79,13.42-16.35,21.32-30.11,25.31A58.9,58.9,0,0,1,537.22,730.79Zm-1.05-19.06c.88,0,1.77,0,2.64,0s1.63-.19,2.44-.32c9.63-1.47,16.8-6.39,20.47-15.54a36.77,36.77,0,0,0,0-27.64,23.59,23.59,0,0,0-15.32-14.37,31.6,31.6,0,0,0-14.74-1.16c-10.07,1.51-17.36,6.68-21.18,16.29a34.6,34.6,0,0,0-2.22,11.44c-.25,6.14.55,12.09,3.46,17.56C516.89,707.77,525.56,711.52,536.17,711.73Z" transform="translate(-135.18 -577.03)" fill="#fff"/><path d="M1182.36,729.49h-24.89l-7.57-19.63h-45.15l-7.56,19.53H1072.3q19.48-47.5,38.84-94.71h32.35Q1162.9,682,1182.36,729.49ZM1112.05,691h30.54l-15.27-39.37Z" transform="translate(-135.18 -577.03)" fill="#fff"/><path d="M626.41,678.83l39.42-44.15h28.64l-37.42,40,41.49,54.61H670.09l-28.65-38.78c-5,5.64-9.86,11.21-14.79,16.76a2.88,2.88,0,0,0-.56,2.11c0,6.61,0,13.22,0,20h-23V634.73H626v44Z" transform="translate(-135.18 -577.03)" fill="#fff"/><path d="M710.63,634.7h75v19h-52v18.18h46.62V690H733.7v19.85h52v19.49h-75Z" transform="translate(-135.18 -577.03)" fill="#fff"/><path d="M907,727.27V707.08c2.72.49,5.34,1,8,1.43,11.47,1.79,23,3,34.61,2.09,3.65-.29,7.24-1,10.4-3a8.31,8.31,0,0,0,3.67-9.17,7.27,7.27,0,0,0-3.9-4.6c-3.41-1.87-7.17-2.2-10.94-2.46-7.28-.5-14.6-.44-21.84-1.57a34.81,34.81,0,0,1-10.39-3.25c-7.43-3.75-11.69-9.78-12.53-18.06-1.19-11.91,2.4-21.75,12.83-28.42a42.13,42.13,0,0,1,14.54-5.53c8.54-1.75,17.17-1.49,25.78-1a140.67,140.67,0,0,1,22.37,3.07v19.82a154.91,154.91,0,0,0-18-3.14c-7.89-.82-15.8-1.53-23.73-.58a18.51,18.51,0,0,0-8.48,2.89,7.23,7.23,0,0,0-3.46,7.24,7,7,0,0,0,5,6c4,1.45,8.17,1.3,12.3,1.63,7.15.57,14.36.37,21.42,1.9,6,1.29,11.35,3.67,15.49,8.34a23.7,23.7,0,0,1,5.73,13.9c.66,7,.09,13.84-3.62,20.09-4.21,7.08-10.78,10.9-18.38,13.23s-15.69,2.9-23.72,2.76A208.37,208.37,0,0,1,908,727.58,8.94,8.94,0,0,1,907,727.27Z" transform="translate(-135.18 -577.03)" fill="#fff"/><path d="M387.47,634.61c18.5,0,36.84-.05,55.19,0a38.55,38.55,0,0,1,12.43,2c11.22,3.85,17,12,18.46,23.46a36.42,36.42,0,0,1-2.37,19.08c-4.14,9.69-11.87,15-21.84,17.38a55.77,55.77,0,0,1-12.75,1.31c-8,0-16,0-24,0h-2.19v31.4H387.47Zm22.94,44.11c8.9,0,17.73.4,26.51-.11s12.45-4.59,13-12.68c.43-6.5-2.88-11.14-9.1-12.69a18.38,18.38,0,0,0-4.68-.54c-7.63,0-15.25,0-22.88,0h-2.84Z" transform="translate(-135.18 -577.03)" fill="#fff"/><path d="M1024.87,654.38H993.21V634.71h86c.13,6.53,0,13-.14,19.67h-31.3v75h-22.87Z" transform="translate(-135.18 -577.03)" fill="#fff"/><path d="M1298.55,727.3V707.11c2.72.49,5.34,1,8,1.43,11.46,1.79,23,3,34.6,2.09,3.65-.29,7.24-1,10.4-3a8.3,8.3,0,0,0,3.68-9.16,7.31,7.31,0,0,0-3.91-4.61c-3.41-1.86-7.17-2.2-10.94-2.46-7.28-.49-14.6-.44-21.84-1.56a34.83,34.83,0,0,1-10.39-3.26c-7.43-3.75-11.69-9.78-12.53-18.06-1.19-11.9,2.4-21.75,12.83-28.42a42.13,42.13,0,0,1,14.54-5.53c8.54-1.74,17.17-1.49,25.79-1a140.73,140.73,0,0,1,22.36,3.08v19.82a154.58,154.58,0,0,0-18-3.15c-7.89-.82-15.8-1.53-23.73-.58a18.51,18.51,0,0,0-8.48,2.89,7.23,7.23,0,0,0-3.46,7.25,7,7,0,0,0,5,6c4,1.45,8.18,1.3,12.31,1.63,7.14.58,14.35.37,21.41,1.9,6,1.29,11.35,3.67,15.49,8.35a23.75,23.75,0,0,1,5.74,13.9c.65,7,.08,13.84-3.63,20.08-4.21,7.08-10.78,10.9-18.38,13.23s-15.69,2.9-23.72,2.76a208.12,208.12,0,0,1-32.1-3.14A8.44,8.44,0,0,1,1298.55,727.3Z" transform="translate(-135.18 -577.03)" fill="#fff"/></svg>