<svg xmlns="http://www.w3.org/2000/svg" viewBox="0 0 686.7 179.7"><defs><style>.a{fill:#ef6724;}.b{fill:#a12689;}.c{fill:#fff;}</style></defs><title>tonybet_d</title><path class="a" d="M645.9,33.2c3.3,1.5,8.7,7.3,9.9,8.5,9.2,9,13.1,13,22.2,22.1a29.4,29.4,0,0,1,.4,41.4c-21.8,21.9-43.8,43.8-65.7,65.6-11.9,11.8-30.3,11.8-41.8.3a29.2,29.2,0,0,1,.2-41.7c20-20.3,40.2-40.4,60.3-60.5,7.1-7,13.4-14.3,14.9-24.7A34.3,34.3,0,0,0,645.9,33.2Z"/><path class="b" d="M610.7,79.6c-10.5-11-22.6-21-32.3-33.3s-7.1-28.8,4.5-39.1a29.1,29.1,0,0,1,38.7.3,161.4,161.4,0,0,1,11.7,11.7c9.4,10.5,10.3,26.4,1.2,37.1C627.4,64.6,618.9,71.7,610.7,79.6Z"/><path class="c" d="M373.7,80.8c.7,1.7,2.3,1.6,3.4,2.1,12.7,5.9,16.2,19.7,7.7,30.8a31.2,31.2,0,0,1-15.7,11.1c-29.4,9-58.7,7.3-88.5-1.7L291,105.6l13.9,2.9c5.1-22.6,10-44.9,15.1-67.6,20.1-1.7,40.2-5,59.8,2.6,14.7,5.7,18.2,20.8,7.2,30.3a31.2,31.2,0,0,1-6.6,4.3A58.5,58.5,0,0,1,373.7,80.8ZM336,89.4c-1.6,7.4-3.1,14.6-4.8,22.2,8.5.3,16.3.8,23.5-3.2,3.8-2.2,5.8-5.4,5.4-9.9s-3.6-7-7.7-8.1S341.6,89.1,336,89.4Zm4.3-17c6.8,0,12.9.6,18.8-1.9,3.9-1.7,6.9-4.3,6.5-9s-4.3-6.4-8.4-7.1a40.6,40.6,0,0,0-13,.2C342.9,60.5,341.6,66.2,340.3,72.4Zm-88-11H224.8c5,19.9,9.4,39.8,15.3,59.2,2.9,9.4-6.9,19.2-16.4,16.4s-19.5-.8-29.8-.8c11.4,20.9,37.7,26.4,55.6,12.4,7.3-5.7,13-12.9,18.1-20.5,14-20.9,24.6-43.8,36.8-65.7.2-.2,0-.6,0-1.1H278l-18.2,40.3Zm-33.2,45.5c1.7-9.2,4.5-18.1,4.9-27.5.4-12-5.6-18.9-17.5-19.8-10.1-.8-19.1,1.9-26.8,8.7-.9.7-1.3,2.4-3.2,1.8.3-2.8.5-5.6.9-8.7H153.1c-3.9,23-9.6,45.2-14.1,68h27.5c1.8-8.1,3.4-16.2,5.2-24.3s3.6-13.6,8.7-18.8c3-3.2,6.7-5.4,11.1-3.4s3.3,6.3,2.7,9.8c-1.1,6.9-2.9,13.7-4.1,20.6s-1.5,10.8,1.1,16.2h26.3C214.5,121.5,217.8,114.3,219.1,106.9ZM93.5,131.3H91c-28.1-1-41.1-24-27.4-48.6C75.1,61.8,107.2,52.7,128,64.3c12.6,7.1,17,20.3,12.1,36.5S119,129.6,97.9,131.1H93.5Zm20.1-41.8c0-5.1-.8-9.1-5.3-11s-9.2-1.1-12.9,2.4c-5.4,5-7.3,11.7-8.2,18.7s1.1,10.9,5.4,12.7,10.7.5,14.6-4.4S113.1,95.7,113.6,89.5Zm345.1,19.3c.5,5.9,1,11.1,1.5,16.7-4.3,2.4-9,3.3-13.7,4.2a83.1,83.1,0,0,1-26.8.9c-20.8-3.2-30.7-18.3-25.4-38.7s28.2-35.5,52.1-32.1a35.6,35.6,0,0,1,12.4,3.7c6.9,3.9,11,9.5,11,17.7s-4,13.5-10.7,17.3-13.3,5.1-20.5,5.8-12.5,1.4-19,.1c.5,4.4,3.4,6,6.7,6.9,8.7,2.5,17.4,1.5,26.1-.7C454.3,110.2,456.2,109.5,458.7,108.8ZM421.9,87.2c7.7.5,14.9-.1,18.4-1.6s4-2.1,3.8-4.6-2.2-3.4-4.4-4C432.6,75.1,424.9,79.4,421.9,87.2ZM40.2,129.4,54.9,60.7c9.7-.4,19.5,1.3,28.7-3.7,1.1-5.5,2.3-11.1,3.6-16.9H4.6L0,60.8H27.2c-4.9,23.2-9.6,45.6-14.4,68.6ZM482,82c-2.1,10.8-5.8,21.3-6.3,32.3-.4,7.6,2.9,12.5,9.9,15,9.1,3.2,18.3,2.3,27.6.3,1.2-6.2,2.3-12.2,3.5-18.5-2.8,0-5.1.1-7.4,0s-5.8-2.2-5.4-5.8c1-8.9,3.5-17.5,5.8-26.3h18.5c1.4-6,2.6-11.7,4-18.1H513.6l4.1-19.5L489.6,48c-1.1,4.5-2,8.7-2.9,12.7-3.4.9-6.7-.4-9.8.9-1.3,5.7-2.5,11.3-3.9,17.5h9.6C482.3,80.4,482.1,81.2,482,82Z"/></svg>