<svg xmlns="http://www.w3.org/2000/svg" width="24" height="24" viewBox="0 0 24 24">
  <g fill="none" fill-rule="evenodd">
    <circle cx="12" cy="12" r="12" fill="#95D1B7"/>
    <path fill="#FFFFFF" d="M8,10 L8,10 C8.55228475,10 9,10.4477153 9,11 L9,15 C9,15.5522847 8.55228475,16 8,16 C7.44771525,16 7,15.5522847 7,15 L7,11 L7,11 C7,10.4477153 7.44771525,10 8,10 L8,10 Z M10,10 L16,10 L16,10 C16.5522847,10 17,10.4477153 17,11 L17,15 C17,15.5522847 16.5522847,16 16,16 L11,16 C10.4477153,16 10,15.5522847 10,15 L10,10 Z M11.7807764,6 L12,6 C12.5522847,6 13,6.44771525 13,7 L13,7 L13,10 L10,10 L10.8106339,6.75746437 L10.8106339,6.75746437 C10.9219257,6.31229737 11.3219088,6 11.7807764,6 Z"/>
  </g>
</svg>
