<?xml version="1.0" encoding="UTF-8" standalone="no"?>
<svg width="120px" height="29px" viewBox="0 0 120 29" version="1.1" xmlns="http://www.w3.org/2000/svg" xmlns:xlink="http://www.w3.org/1999/xlink">
    <!-- Generator: Sketch 46.2 (44496) - http://www.bohemiancoding.com/sketch -->
    <title>icn-entropay</title>
    <desc>Created with Sketch.</desc>
    <defs></defs>
    <g id="Page-1" stroke="none" stroke-width="1" fill="none" fill-rule="evenodd">
        <g id="Payment-Icons" transform="translate(-467.000000, -144.000000)" fill-rule="nonzero" fill="#5DD8C4">
            <g id="icn-entropay" transform="translate(467.000000, 144.436464)">
                <path d="M7.51823204,4.30939227 C3.38121547,4.30939227 0.331491713,7.62430939 0.331491713,11.8276243 C0.33091806,13.8547472 1.14823878,15.7963611 2.59837975,17.2128068 C4.04852072,18.6292526 6.00880981,19.4007086 8.03535912,19.3524862 C10.1286685,19.3601795 12.1582587,18.6328119 13.7701657,17.2972376 C12.7624309,15.3944751 11.9734807,15.5469613 8.87071823,15.9712707 L8.87071823,15.9712707 C8.59172207,16.010126 8.31041674,16.0300611 8.02872928,16.0309392 C6.19043486,16.0763772 4.5484758,14.8876531 4.01767956,13.1270718 L14.7116022,13.1270718 C14.7116022,12.5834254 14.7116022,12.039779 14.7116022,11.801105 C14.7910146,9.84267256 14.0685651,7.93650901 12.7110436,6.52268473 C11.353522,5.10886045 9.47827383,4.30958771 7.51823204,4.30939227 Z M4.01767956,10.5016575 C4.23509334,8.75956332 5.77304638,7.48908037 7.52486188,7.60441989 C9.91160221,7.60441989 11.0585635,9.26850829 11.118232,10.5016575 L4.01767956,10.5016575 Z" id="Shape"></path>
                <path d="M61.7370166,4.30939227 C57.5955273,4.37143157 54.2828369,7.76874292 54.3252588,11.9104796 C54.3676807,16.0522163 57.7492629,19.3809614 61.8911541,19.3581578 C66.0330453,19.3353543 69.3777703,15.969577 69.3745856,11.8276243 C69.3766478,9.81225574 68.5687641,7.88059293 67.132506,6.46677634 C65.6962479,5.05295975 63.7521028,4.27559419 61.7370166,4.30939227 L61.7370166,4.30939227 Z M61.7370166,15.9712707 C60.6484737,15.989557 59.601398,15.5541206 58.8468129,14.7693522 C58.0922279,13.9845838 57.6981723,12.9212435 57.759116,11.8342541 C57.6076672,10.3254509 58.3272048,8.86178318 59.6144239,8.0602277 C60.9016429,7.25867221 62.5326112,7.25867221 63.8198303,8.0602277 C65.1070493,8.86178318 65.826587,10.3254509 65.6751381,11.8342541 C65.7355611,12.9142596 65.3468211,13.9711975 64.6010132,14.7546725 C63.8552052,15.5381475 62.8186871,15.9784505 61.7370166,15.9712707 L61.7370166,15.9712707 Z" id="Shape"></path>
                <path d="M24.6232044,4.30939227 C22.859439,4.30166843 21.2250332,5.23381022 20.3337017,6.7558011 L20.3337017,6.7558011 L20.3337017,6.7558011 L20.3337017,6.62983425 L20.3337017,6.62983425 C20.2567904,5.5275416 19.3369995,4.6744863 18.2320442,4.68066298 L16.9524862,4.68066298 L16.9524862,18.9878453 L20.5524862,18.9878453 L20.5524862,9.53370166 C20.5524862,9.53370166 21.520442,7.69060773 23.3900552,7.69060773 C24.961326,7.69060773 26.2276243,8.56574586 26.2276243,10.6209945 L26.2276243,18.9878453 L29.8541436,18.9878453 L29.8541436,9.70607735 C29.9281277,8.28233435 29.4064741,6.8919869 28.4142201,5.8682927 C27.4219662,4.84459849 26.0485621,4.27984215 24.6232044,4.30939227 Z" id="Shape"></path>
                <path d="M52.1502762,4.30939227 C49.4983425,4.30939227 48.2519337,6.7558011 48.2519337,6.7558011 L48.2519337,6.58342541 L48.2519337,6.58342541 C48.1773303,5.45431627 47.2144741,4.59157355 46.0839779,4.64088398 L44.8110497,4.64088398 L44.8110497,18.9878453 L48.4375691,18.9878453 L48.4375691,9.62651934 C49.089143,8.46190987 50.3057688,7.72639283 51.639779,7.69060773 C52.2314102,7.6771468 52.8190965,7.7901634 53.3635359,8.02209945 L54.6298343,4.76022099 C53.833202,4.47658675 52.9957633,4.32432517 52.1502762,4.30939227 L52.1502762,4.30939227 Z" id="Shape"></path>
                <path d="M78.8088398,4.30939227 C77.0888598,4.29310787 75.4724921,5.12984503 74.4928177,6.54364641 L74.4928177,6.54364641 L74.4928177,6.39779006 C74.4928177,6.39779006 74.4928177,6.4441989 74.4928177,6.35138122 C74.401121,5.41152903 73.6139107,4.69302067 72.6696133,4.68729282 L71.1513812,4.68729282 L71.1513812,25.9359116 L74.7779006,25.9359116 L74.7779006,17.5093923 C75.7764387,18.709375 77.2680329,19.3880382 78.8287293,19.3524862 C82.5414365,19.3524862 85.8033149,16.2430939 85.8033149,11.8342541 C85.8033149,7.42541436 82.521547,4.30939227 78.8088398,4.30939227 Z M78.1458564,15.9712707 C76.7356331,15.9603987 75.4365824,15.2036701 74.7314917,13.9823204 L74.7314917,9.68618785 C75.4365824,8.46483822 76.7356331,7.70810962 78.1458564,7.69723757 C80.5922652,7.69723757 82.0707182,9.48066298 82.0707182,11.8342541 C82.0707182,14.1878453 80.6187845,15.9712707 78.1723757,15.9712707 L78.1458564,15.9712707 Z" id="Shape"></path>
                <path d="M98.3668508,6.54364641 C97.3944181,5.12163466 95.7733319,4.28245483 94.0508287,4.30939227 C90.3381215,4.30939227 87.0762431,7.41878453 87.0762431,11.8276243 C87.0762431,16.2364641 90.3381215,19.3458564 94.0508287,19.3458564 C95.7811427,19.4067444 97.4176302,18.5595919 98.3668508,17.1116022 L98.3668508,17.1911602 L98.3668508,17.1911602 C98.5070592,18.2133561 99.3706334,18.9812902 100.40221,19.001105 L101.728177,19.001105 L101.728177,4.64088398 L98.3734807,4.64088398 L98.3734807,6.51049724 L98.3668508,6.54364641 Z M98.121547,13.9756906 C97.4224674,15.1869505 96.1386719,15.9421244 94.7403315,15.9646409 C92.2939227,15.9646409 90.7624309,14.1812155 90.7624309,11.8276243 C90.7624309,9.47403315 92.2740331,7.69060773 94.7403315,7.69060773 C96.1386719,7.71312425 97.4224674,8.46829808 98.121547,9.67955801 L98.121547,13.9756906 Z" id="Shape"></path>
                <path d="M115.770166,4.64088398 L111.99116,15.1226519 L107.164641,4.64088398 L103.146961,4.64088398 L110.121547,19.2928177 L109.458564,20.9171271 L109.458564,20.9171271 C109.067814,21.7953472 108.493628,22.579766 107.774586,23.2176796 C107.655249,23.3237569 107.529282,23.4232044 107.409945,23.5160221 C106.302762,24.3049724 105.891713,25.0475138 106.282873,26.1679558 L106.282873,26.1679558 L106.335912,26.3005525 L106.335912,26.3005525 L106.886188,27.7060773 C108.371759,27.3003313 109.704696,26.465516 110.718232,25.3060773 C111.61989,24.2983425 112.448619,23.0055249 113.940331,19.0342541 L119.668508,4.64088398 L115.770166,4.64088398 Z" id="Shape"></path>
                <path d="M39.5138122,15.9712707 C38.5458564,15.9712707 37.6375691,15.4541436 37.6375691,13.7038674 L37.6375691,7.9558011 L41.960221,7.9558011 L41.960221,4.64088398 L37.6441989,4.64088398 L37.6441989,2.20110497 C37.7006441,1.71717143 37.5350558,1.23368887 37.1937779,0.885971798 C36.8525001,0.53825473 36.3721968,0.363659073 35.8872928,0.411049724 L34.0176796,0.411049724 L34.0176796,4.64088398 L31.2066298,4.64088398 L31.2066298,7.9558011 L34.0176796,7.9558011 L34.0176796,14.3005525 C34.0176796,17.3502762 36.1325967,19.3723757 38.9104972,19.3723757 C40.1220565,19.3866911 41.3136183,19.062972 42.3513812,18.4375691 L41.0254144,15.480663 C40.5777553,15.7831895 40.0538084,15.9532424 39.5138122,15.9712707 L39.5138122,15.9712707 Z" id="Shape"></path>
            </g>
        </g>
    </g>
</svg>