<?xml version="1.0" encoding="UTF-8" standalone="no"?>
<svg width="119px" height="42px" viewBox="0 0 119 42" version="1.1" xmlns="http://www.w3.org/2000/svg" xmlns:xlink="http://www.w3.org/1999/xlink">
    <!-- Generator: Sketch 46.2 (44496) - http://www.bohemiancoding.com/sketch -->
    <title>icn-banktransfer</title>
    <desc>Created with Sketch.</desc>
    <defs>
        <linearGradient x1="0%" y1="50%" x2="100%" y2="50%" id="linearGradient-1">
            <stop stop-color="#E70000" stop-opacity="0" offset="0%"></stop>
            <stop stop-color="#DE0000" stop-opacity="0.45" offset="33%"></stop>
            <stop stop-color="#CD0000" offset="74%"></stop>
            <stop stop-color="#C20000" offset="79%"></stop>
            <stop stop-color="#A60000" offset="89%"></stop>
            <stop stop-color="#800000" offset="100%"></stop>
        </linearGradient>
        <linearGradient x1="2892%" y1="77651%" x2="5474%" y2="77651%" id="linearGradient-2">
            <stop stop-color="#E70000" stop-opacity="0" offset="0%"></stop>
            <stop stop-color="#DE0000" stop-opacity="0.45" offset="33%"></stop>
            <stop stop-color="#CD0000" offset="74%"></stop>
            <stop stop-color="#C20000" offset="79%"></stop>
            <stop stop-color="#A60000" offset="89%"></stop>
            <stop stop-color="#800000" offset="100%"></stop>
        </linearGradient>
        <linearGradient x1="2892%" y1="76672%" x2="5474%" y2="76672%" id="linearGradient-3">
            <stop stop-color="#E70000" stop-opacity="0" offset="0%"></stop>
            <stop stop-color="#DE0000" stop-opacity="0.45" offset="33%"></stop>
            <stop stop-color="#CD0000" offset="74%"></stop>
            <stop stop-color="#C20000" offset="79%"></stop>
            <stop stop-color="#A60000" offset="89%"></stop>
            <stop stop-color="#800000" offset="100%"></stop>
        </linearGradient>
    </defs>
    <g id="Page-1" stroke="none" stroke-width="1" fill="none" fill-rule="evenodd">
        <g id="Payment-Icons" transform="translate(-225.000000, -33.000000)" fill-rule="nonzero">
            <g id="icn-banktransfer" transform="translate(224.000000, 33.000000)">
                <polygon id="Shape" fill="#00AFD8" points="6.24375 41.484375 6.24375 28.959375 2.578125 28.959375 2.578125 25.0875 14.390625 25.0875 14.390625 28.959375 10.715625 28.959375 10.715625 41.484375"></polygon>
                <path d="M16.575,41.484375 L16.575,25.0875 L21.2625,25.0875 C22.54272,25.0459835 23.823915,25.1307685 25.0875,25.340625 C25.7652876,25.4856509 26.4044469,25.7732726 26.9625,26.184375 C27.5521503,26.6333846 28.0195758,27.2233079 28.321875,27.9 C28.6459159,28.6218974 28.8090619,29.4056379 28.8,30.196875 C28.8484648,31.304737 28.5177739,32.3960171 27.8625,33.290625 C27.1702768,34.1261403 26.2031232,34.6878205 25.134375,34.875 L29.60625,41.4375 L24.525,41.4375 L20.775,35.025 L20.775,41.4375 L16.575,41.484375 Z M20.765625,32.8125 L21.5625,32.8125 C22.3000662,32.8686943 23.0369379,32.6951201 23.671875,32.315625 C24.1429702,31.9567897 24.4061843,31.3882471 24.375,30.796875 C24.433285,30.1541952 24.2031749,29.5188166 23.746875,29.0625 C23.1293053,28.6563806 22.3924206,28.4713334 21.65625,28.5375 L20.71875,28.5375 L20.71875,32.8125 L20.765625,32.8125 Z" id="Shape" fill="#00AFD8"></path>
                <path d="M29.353125,41.484375 L34.978125,25.0875 L40.603125,25.0875 L46.228125,41.484375 L41.821875,41.484375 L40.996875,38.55 L34.6875,38.55 L33.75,41.484375 L29.353125,41.484375 Z M35.625,35.353125 L40.06875,35.353125 L38.4,29.94375 C38.35,29.78125 38.278125,29.515625 38.184375,29.146875 L37.8375,27.73125 C37.7375,28.1375 37.64375,28.521875 37.55625,28.884375 C37.46875,29.246875 37.375,29.596875 37.275,29.934375 L35.625,35.353125 Z" id="Shape" fill="#00AFD8"></path>
                <path d="M47.8125,41.484375 L47.8125,25.0875 L52.125,25.0875 L58.321875,33.525 C58.5360938,33.8617404 58.7332185,34.2090553 58.9125,34.565625 C59.1875,35.084375 59.5,35.709375 59.85,36.440625 C59.7625,35.759375 59.696875,35.15625 59.653125,34.63125 C59.609375,34.10625 59.5875,33.634375 59.5875,33.215625 L59.5875,25.0875 L63.871875,25.0875 L63.871875,41.484375 L59.578125,41.484375 L53.38125,33.046875 C53.1596857,32.7161326 52.9592848,32.3716936 52.78125,32.015625 C52.50625,31.496875 52.209375,30.871875 51.890625,30.140625 C51.978125,30.828125 52.04375,31.4375 52.0875,31.96875 C52.13125,32.5 52.153125,32.971875 52.153125,33.384375 L52.153125,41.484375 L47.8125,41.484375 L47.8125,41.484375 Z" id="Shape" fill="#00AFD8"></path>
                <path d="M68.109375,36.1875 C68.6707483,36.8520722 69.3355142,37.4218716 70.078125,37.875 C70.6603471,38.2310223 71.3270384,38.4252042 72.009375,38.4375 C72.5414442,38.4596615 73.063776,38.2899869 73.48125,37.959375 C73.8548668,37.6663255 74.069923,37.2154012 74.0625,36.740625 C74.0913214,36.268918 73.9093131,35.8087461 73.565625,35.484375 C72.8808699,35.0274754 72.1133221,34.7089908 71.30625,34.546875 C70.0437513,34.2918643 68.8702871,33.7099813 67.903125,32.859375 C67.2176014,32.0874443 66.8609753,31.0781252 66.909375,30.046875 C66.8391043,28.5994475 67.3959598,27.1919355 68.4375,26.184375 C69.548455,25.1723277 71.0141352,24.6399657 72.515625,24.703125 C73.3851322,24.698953 74.2505638,24.8221349 75.084375,25.06875 C75.9023103,25.317248 76.6770378,25.6903821 77.38125,26.175 L75.984375,29.390625 C75.5145745,28.9984033 74.9863149,28.6820801 74.41875,28.453125 C73.9173905,28.2404675 73.3789564,28.1289575 72.834375,28.125 C72.3662416,28.1030838 71.9042294,28.2383874 71.521875,28.509375 C71.2000946,28.737323 71.0108438,29.1088154 71.015625,29.503125 C71.0014266,29.8819177 71.1642856,30.2457516 71.45625,30.4875 C71.9739426,30.8304545 72.5534859,31.0692773 73.1625,31.190625 L73.36875,31.246875 C74.6890088,31.4703408 75.9364046,32.0072354 77.00625,32.8125 C77.4003838,33.2283977 77.7008726,33.7238847 77.8875,34.265625 C78.0946509,34.868705 78.196141,35.5030183 78.1875,36.140625 C78.2477908,37.7123797 77.6256843,39.2334643 76.48125,40.3125 C75.2217111,41.4114882 73.5851766,41.9794026 71.915625,41.896875 C70.8467997,41.9115006 69.7856921,41.713937 68.79375,41.315625 C67.7880796,40.8791221 66.8724761,40.2591822 66.09375,39.4875 L68.109375,36.1875 Z" id="Shape" fill="#00AFD8"></path>
                <polygon id="Shape" fill="#00AFD8" points="80.709375 41.484375 80.709375 25.0875 90.75 25.0875 90.75 28.6875 85.059375 28.6875 85.059375 31.5 90.421875 31.5 90.421875 35.015625 85.059375 35.015625 85.059375 41.45625 80.7 41.45625"></polygon>
                <polygon id="Shape" fill="#00AFD8" points="93.178125 41.484375 93.178125 25.0875 103.21875 25.0875 103.21875 28.6875 97.5 28.6875 97.5 31.5 102.8625 31.5 102.8625 35.015625 97.5 35.015625 97.5 37.78125 103.190625 37.78125 103.190625 41.45625 93.178125 41.45625"></polygon>
                <path d="M106.18125,41.484375 L106.18125,25.0875 L110.86875,25.0875 C112.14897,25.0459835 113.430165,25.1307685 114.69375,25.340625 C115.371538,25.4856509 116.010697,25.7732726 116.56875,26.184375 C117.1584,26.6333846 117.625826,27.2233079 117.928125,27.9 C118.25188,28.62199 118.415013,29.405667 118.40625,30.196875 C118.454715,31.304737 118.124024,32.3960171 117.46875,33.290625 C116.777066,34.1267775 115.809659,34.6886051 114.740625,34.875 L119.2125,41.4375 L114.159375,41.4375 L110.409375,35.025 L110.409375,41.4375 L106.18125,41.484375 Z M110.371875,32.8125 L111.196875,32.8125 C111.934441,32.8686943 112.671313,32.6951201 113.30625,32.315625 C113.771871,31.9430123 114.021433,31.3630457 113.971875,30.76875 C114.03835,30.1212278 113.811318,29.4779701 113.353125,29.015625 C112.735555,28.6095056 111.998671,28.4244584 111.2625,28.490625 L110.325,28.490625 L110.371875,32.8125 Z" id="Shape" fill="#00AFD8"></path>
                <path d="M29.85,22.115625 L29.85,0.253125 L35.840625,0.253125 C37.5689653,0.211867145 39.2980899,0.290178949 41.015625,0.4875 C41.9002075,0.616313134 42.7562761,0.895328097 43.546875,1.3125 C44.3290517,1.7237634 44.9790417,2.34775381 45.421875,3.1125 C45.8577464,3.91089689 46.0775006,4.80930348 46.059375,5.71875 C46.1196041,6.78766026 45.7860815,7.84159151 45.121875,8.68125 C44.2841439,9.51666219 43.2171492,10.0844208 42.05625,10.3125 C43.4398105,10.3523747 44.7511765,10.9389497 45.703125,11.94375 C46.6152412,13.0289101 47.0840005,14.4184467 47.015625,15.834375 C47.0376126,16.9060447 46.7825028,17.965235 46.275,18.909375 C45.7899687,19.7893272 45.0562532,20.5067379 44.165625,20.971875 C43.2979156,21.408835 42.3630799,21.697208 41.4,21.825 C39.6171843,22.0310626 37.8224178,22.1156328 36.028125,22.078125 L29.85,22.078125 L29.85,22.115625 Z M35.371875,8.990625 L36.5625,8.990625 C37.5962121,9.06959325 38.6339267,8.90253085 39.590625,8.503125 C40.1590597,8.14316874 40.4777387,7.49494653 40.415625,6.825 C40.495879,6.14715098 40.2014235,5.47923986 39.646875,5.08125 C38.7080087,4.66555315 37.6790966,4.49460536 36.65625,4.584375 L35.38125,4.584375 L35.38125,8.990625 L35.371875,8.990625 Z M35.371875,17.653125 L37.5,17.653125 C38.5289318,17.7282759 39.5603024,17.544563 40.5,17.11875 C41.1068905,16.7438498 41.4484739,16.0570491 41.38125,15.346875 C41.4457691,14.6259224 41.1426502,13.9209948 40.575,13.471875 C39.6449953,13.0254967 38.6119845,12.8376766 37.584375,12.928125 L35.38125,12.928125 L35.38125,17.690625 L35.371875,17.653125 Z" id="Shape" fill="#006E90"></path>
                <path d="M48.028125,22.115625 L55.528125,0.253125 L63.028125,0.253125 L70.584375,22.115625 L64.6875,22.115625 L63.58125,18.20625 L55.14375,18.20625 L54.009375,22.115625 L48.028125,22.115625 Z M56.371875,13.95 L62.296875,13.95 L60.075,6.740625 C60.00625,6.521875 59.9125,6.16875 59.79375,5.68125 L59.334375,3.80625 C59.203125,4.34375 59.075,4.85625 58.95,5.34375 C58.825,5.83125 58.696875,6.3 58.565625,6.75 L56.371875,13.95 Z" id="Shape" fill="#006E90"></path>
                <path d="M72.675,22.115625 L72.675,0.253125 L78.421875,0.253125 L86.68125,11.503125 C86.9665565,11.9490868 87.2293846,12.4090361 87.46875,12.88125 C87.83125,13.575 88.23125,14.4 88.66875,15.35625 C88.55,14.45 88.4625,13.64375 88.40625,12.9375 C88.35,12.23125 88.321875,11.60625 88.321875,11.0625 L88.321875,0.253125 L94.040625,0.253125 L94.040625,22.115625 L88.321875,22.115625 L80.0625,10.865625 C79.7679424,10.423599 79.5017807,9.96329585 79.265625,9.4875 C78.903125,8.79375 78.50625,7.98125 78.075,7.05 C78.19375,7.96875 78.28125,8.78125 78.3375,9.4875 C78.39375,10.19375 78.421875,10.81875 78.421875,11.3625 L78.421875,22.115625 L72.675,22.115625 Z" id="Shape" fill="#006E90"></path>
                <polygon id="Shape" fill="#006E90" points="98.728125 22.115625 98.728125 0.253125 104.625 0.253125 104.625 10.18125 111.5625 0.253125 118.509375 0.253125 110.428125 10.9125 119.2125 22.115625 111.75 22.115625 104.625 12.309375 104.625 22.115625"></polygon>
                <rect id="Rectangle-path" fill="url(#linearGradient-1)" x="0.8625" y="0.196875" width="24.20625" height="4.33125"></rect>
                <rect id="Rectangle-path" fill="url(#linearGradient-2)" x="0.8625" y="8.60625" width="24.20625" height="4.33125"></rect>
                <rect id="Rectangle-path" fill="url(#linearGradient-3)" x="0.8625" y="17.784375" width="24.20625" height="4.33125"></rect>
            </g>
        </g>
    </g>
</svg>