<svg width="85" height="85" viewBox="0 0 85 85" fill="none" xmlns="http://www.w3.org/2000/svg">
<path d="M42.5 4C24.2245 4.24002 10.355 10.3261 0 18.0067V67.6214C10.355 75.3019 24.2245 81.388 42.5 81.6109C60.7584 81.388 74.645 75.3019 85 67.6214V18.0067C74.645 10.3261 60.7584 4.24002 42.5 4Z" fill="#E5E5E5"/>
<path d="M55.8723 59.6494V29.836H63.4328V53.5633H72.022V59.6494H55.8723ZM42.3286 35.9221V41.8368H50.0091V47.9229H42.3286V59.6494H34.7509V29.836H50.9177V35.9221H42.3286ZM29.5734 59.7694H20.4699C15.5325 59.7694 13.9895 57.7121 13.9895 53.2204V36.145C13.9895 32.339 15.0696 29.6646 20.1271 29.6646H29.522L29.8134 29.956V35.6992H21.55V53.6147H29.8134V59.4265L29.5734 59.7694Z" fill="#202020"/>
<path d="M46.7688 71.9933L46.2545 70.8103L44.4887 72.8505C44.4887 72.8505 45.1744 68.9759 45.1744 68.8731C45.1059 68.9245 43.8029 69.5588 43.8029 69.5588L42.5 66.9358L41.1799 69.5588C41.1799 69.5588 39.8769 68.8731 39.8255 68.8731C39.8769 68.9245 40.5112 72.8505 40.5112 72.8505L38.7454 70.8103L38.2311 71.9933L36.2938 71.599L36.8596 73.982L36.2938 74.2734C37.4253 74.5649 39.414 74.8906 42.6028 74.8906C45.5687 74.8906 47.386 74.5649 48.5175 74.222L48.0203 73.9305L48.5861 71.5475L46.7688 71.9933Z" fill="#C42127"/>
<path d="M65.0273 18.7953C59.8172 17.4832 54.5072 16.6059 49.1519 16.1723C49.1005 14.4236 48.5862 13.4464 48.3633 13.1035C48.1233 13.4464 47.6775 14.355 47.5575 16.0694C46.186 15.9494 44.763 15.898 43.2887 15.898C43.1687 14.3036 42.7229 13.4464 42.5 13.1035C42.26 13.4464 41.8143 14.3036 41.6943 15.898L37.4254 16.0694C37.3226 14.355 36.8597 13.4464 36.6368 13.1035C36.4139 13.4978 35.951 14.4751 35.831 16.2409C30.4754 16.6619 25.1649 17.5337 19.9557 18.8468C25.0817 18.2296 30.4307 17.7667 35.831 17.5438C35.8729 18.5263 36.1492 19.4844 36.6368 20.3383C36.8597 19.9954 37.3226 19.0868 37.4254 17.4924C38.8484 17.4238 40.2713 17.3724 41.6943 17.3724C41.8143 19.0868 42.26 19.9269 42.5 20.3383C42.7229 19.9954 43.1687 19.0868 43.2887 17.3724C44.7116 17.3724 46.1346 17.4238 47.5575 17.4924C47.6775 19.0868 48.1233 19.9954 48.3633 20.3383C48.5862 19.9954 49.0319 19.1382 49.1519 17.5438C54.5523 17.7153 59.8498 18.1782 65.0273 18.7953Z" fill="#202020"/>
</svg>
