<svg width="85" height="85" viewBox="0 0 85 85" fill="none" xmlns="http://www.w3.org/2000/svg">
<path d="M6.92457 28H16.9995C14.9981 35.1953 13.0079 42.3937 11.0085 49.59C10.9233 49.8455 10.9208 50.1417 11.078 50.3714C11.332 50.7567 11.8147 50.9094 12.2554 50.9337C12.7787 50.9474 13.302 50.9357 13.8258 50.9398C14.3937 50.9368 14.9834 50.9581 15.5229 50.7517C15.8961 50.6056 16.1258 50.2375 16.2257 49.8643C18.252 42.5767 20.2691 35.2866 22.2984 28H32.314C30.1843 35.6567 28.0622 43.3155 25.9351 50.9733C25.7059 51.7861 25.4899 52.603 25.2516 53.4133C24.9448 54.399 24.4382 55.3579 23.633 56.0257C23.0377 56.5323 22.2923 56.8193 21.5408 57.0023C20.478 57.2675 19.3807 57.338 18.2915 57.41H5.31666C4.03631 57.3299 2.72503 57.0363 1.65765 56.2934C0.957384 55.8183 0.39403 55.1186 0.164835 54.2961C0.0517584 53.9427 0.0740695 53.5669 0.0760977 53.2013C0.078126 52.7658 0.227711 52.352 0.337238 51.9357C2.54958 43.9575 4.76395 35.9792 6.97528 28.0005L6.92457 28Z" fill="#D20A0A"/>
<path d="M37.08 28H58.7308C58.1294 30.1525 57.5357 32.3076 56.9368 34.4611C49.7192 34.4626 42.5021 34.4621 35.2844 34.4616C35.8823 32.3076 36.4765 30.1525 37.08 28Z" fill="#D20A0A"/>
<path d="M68.5065 28H84.931C84.6942 28.9771 84.3981 29.9406 84.1379 30.9121C83.8093 32.0951 83.4808 33.2781 83.1527 34.4611C79.5992 34.4621 76.0451 34.4611 72.4916 34.4616C71.9713 34.4661 71.4303 34.4616 70.941 34.6629C70.5424 34.8312 70.335 35.2486 70.2341 35.6466C68.9375 40.3223 67.6394 44.9985 66.3439 49.6747C66.2495 49.9652 66.3302 50.2973 66.5467 50.5123C66.8646 50.8374 67.3398 50.9393 67.7794 50.9393C71.6498 50.9403 75.5203 50.9393 79.3907 50.9403C78.7934 53.0969 78.1946 55.2534 77.5962 57.41H61.1459C59.9137 57.3319 58.6562 57.0596 57.6101 56.3756C56.9235 55.9365 56.346 55.2986 56.0696 54.5243C55.8161 53.8595 55.8374 53.1187 56.0291 52.4412C57.8885 45.7408 59.7484 39.0404 61.6089 32.34C61.8786 31.3543 62.3091 30.3822 63.0363 29.6465C63.5164 29.1541 64.1259 28.8012 64.7765 28.5862C65.9773 28.1815 67.2505 28.0832 68.5065 28Z" fill="#D20A0A"/>
<path d="M34.0416 38.9217C41.2603 38.9207 48.4789 38.9212 55.6975 38.9217C55.0987 41.0808 54.4993 43.2394 53.8999 45.398C50.0209 45.3995 46.1423 45.398 42.2632 45.399C41.1517 49.4023 40.0428 53.4062 38.9313 57.4095L38.9997 57.41H28.9116C30.625 51.2481 32.3313 45.0846 34.0416 38.9217Z" fill="#D20A0A"/>
</svg>
