<svg width="85" height="85" viewBox="0 0 85 85" fill="none" xmlns="http://www.w3.org/2000/svg">
<g clip-path="url(#clip0)">
<path d="M79.971 60.242C77.9138 60.242 75.8856 60.242 73.8284 60.242L42.1594 75.9709L10.4613 60.242H4V43.9917H11.6493V27.0461H72.6115V44.0206C75.0743 44.0206 77.5082 44.0206 79.971 44.0206C79.971 49.4084 79.971 54.8252 79.971 60.242Z" fill="#013369"/>
<path d="M60.5864 43.9918V29.1318H63.5418V43.9918H60.5864ZM50.2425 43.9918V29.1318H47.2871V43.9918H50.2425ZM56.9066 43.9918V29.1318H53.9512V43.9918H56.9066ZM70.1769 43.9918V29.1318H67.2215V43.9918H70.1769ZM30.337 43.9918V29.1318H27.3816V43.9918H30.337ZM17.0667 43.9918V29.1318H14.1113V43.9918H17.0667ZM23.7019 43.9918V29.1318H20.7465V43.9918H23.7019ZM36.9722 43.9918V29.1318H34.0168V43.9918H36.9722ZM43.6073 43.9918V29.1318H40.6519V43.9918H43.6073Z" fill="white"/>
<path d="M42.1307 10.6799C61.6015 10.6799 70.9313 27.0461 70.9313 27.0461C70.9313 27.0461 61.6015 43.4123 42.1307 43.4123C22.6599 43.4123 13.3301 27.0461 13.3301 27.0461C13.3301 27.0461 22.6599 10.6799 42.1307 10.6799Z" fill="#D50A0A"/>
<path d="M39.8398 29.1319V24.9317C39.8398 24.3524 40.3034 23.8889 40.8829 23.8889C41.4624 23.8889 41.926 24.3524 41.926 24.9317V29.1319C41.926 29.7112 41.4624 30.1747 40.8829 30.1747C40.3324 30.2037 39.8398 29.7112 39.8398 29.1319Z" fill="#AD0000"/>
<path d="M35.9297 29.1319V24.9317C35.9297 24.3524 36.3933 23.8889 36.9728 23.8889C37.5523 23.8889 38.0159 24.3524 38.0159 24.9317V29.1319C38.0159 29.7112 37.5523 30.1747 36.9728 30.1747C36.4223 30.2037 35.9297 29.7112 35.9297 29.1319Z" fill="#AD0000"/>
<path d="M32.0469 29.1319V24.9317C32.0469 24.3524 32.5105 23.8889 33.09 23.8889C33.6694 23.8889 34.133 24.3524 34.133 24.9317V29.1319C34.133 29.7112 33.6694 30.1747 33.09 30.1747C32.5105 30.2037 32.0469 29.7112 32.0469 29.1319Z" fill="#AD0000"/>
<path d="M43.752 29.1319V24.9317C43.752 24.3524 44.2155 23.8889 44.795 23.8889C45.3745 23.8889 45.8381 24.3524 45.8381 24.9317V29.1319C45.8381 29.7112 45.3745 30.1747 44.795 30.1747C44.2155 30.2037 43.752 29.7112 43.752 29.1319Z" fill="#AD0000"/>
<path d="M47.6641 29.1319V24.9317C47.6641 24.3524 48.1277 23.8889 48.7071 23.8889C49.2866 23.8889 49.7502 24.3524 49.7502 24.9317V29.1319C49.7502 29.7112 49.2866 30.1747 48.7071 30.1747C48.1277 30.2037 47.6641 29.7112 47.6641 29.1319Z" fill="#AD0000"/>
<path d="M51.5762 29.1319V24.9317C51.5762 24.3524 52.0398 23.8889 52.6193 23.8889C53.1987 23.8889 53.6623 24.3524 53.6623 24.9317V29.1319C53.6623 29.7112 53.1987 30.1747 52.6193 30.1747C52.0398 30.2037 51.5762 29.7112 51.5762 29.1319Z" fill="#AD0000"/>
<path d="M42.1307 43.3835C61.6015 43.3835 70.9313 27.0173 70.9313 27.0173H13.3301C13.3301 27.0463 22.6599 43.3835 42.1307 43.3835ZM64.8467 28.8712C60.1238 33.2452 52.5905 37.9378 42.1307 37.9378C31.6709 37.9378 24.1665 33.2162 19.4147 28.8712H64.8467Z" fill="#AD0000"/>
<path d="M72.0312 26.0035C71.9733 25.8876 70.2638 22.904 66.8448 19.4859C62.064 14.7064 53.8642 9 42.1296 9C33.8719 9 26.0777 11.9256 19.5874 17.4872C14.7487 21.6584 12.3438 25.8297 12.2279 26.0035L11.6484 27.0173L12.2279 28.0311C12.2859 28.147 13.9954 31.1306 17.4144 34.5486C22.1951 39.3281 30.3949 45.0635 42.1296 45.0635C50.3873 45.0635 58.1814 42.1379 64.6717 36.5763C69.5394 32.4051 71.9443 28.2339 72.0602 28.0601L72.6397 27.0463L72.0312 26.0035ZM42.1296 10.6801C53.4296 10.6801 61.3107 16.1837 65.9466 20.8184C68.4384 23.3096 69.974 25.54 70.6115 26.5249H13.6767C15.4731 23.7151 24.7739 10.6801 42.1296 10.6801ZM42.1296 43.3835C30.8295 43.3835 22.9485 37.8798 18.3126 33.2451C15.8208 30.754 14.2851 28.5236 13.6477 27.5387H70.5825C68.8151 30.3485 59.5143 43.3835 42.1296 43.3835Z" fill="#013369"/>
<path d="M55.8945 40.3707C57.1984 39.7624 58.4153 39.0961 59.5743 38.372V27.5674H55.8945V40.3707Z" fill="white"/>
<path d="M42.1307 10.6799C36.7704 10.6799 32.1924 11.9255 28.3678 13.7214C27.7014 14.0401 27.0929 14.3587 26.4844 14.6773C25.876 15.0249 25.2965 15.3725 24.717 15.7201C18.3716 19.6886 14.7208 24.8736 13.6777 26.4958H31.3232V29.1317C31.3232 29.7111 31.7868 30.1745 32.3663 30.1745C32.9457 30.1745 33.4093 29.7111 33.4093 29.1317V26.4958H35.2058V29.1317C35.2058 29.7111 35.6693 30.1745 36.2488 30.1745C36.8283 30.1745 37.2919 29.7111 37.2919 29.1317V26.4958H39.0883V29.1317C39.0883 29.7111 39.5519 30.1745 40.1314 30.1745C40.7109 30.1745 41.1745 29.7111 41.1745 29.1317V26.4958H42.9709V29.1317C42.9709 29.7111 43.4345 30.1745 44.014 30.1745C44.5935 30.1745 45.0571 29.7111 45.0571 29.1317V26.4958H46.8535V29.1317C46.8535 29.7111 47.3171 30.1745 47.8966 30.1745C48.4761 30.1745 48.9397 29.7111 48.9397 29.1317V26.4958H50.7361V29.1317C50.7361 29.7111 51.1997 30.1745 51.7791 30.1745C52.3586 30.1745 52.8222 29.7111 52.8222 29.1317V26.4958H59.4284V18.7037C63.4269 21.2238 66.3533 24.2074 68.2366 26.4958H70.4677C68.8161 23.715 59.5153 10.6799 42.1307 10.6799ZM24.717 25.2502C22.3121 25.1633 20.0521 25.0764 18.0239 25.0185C19.067 23.657 20.3708 22.1797 22.3701 20.3258C23.0944 19.7755 23.8767 19.2251 24.717 18.7037V25.2502ZM55.8935 26.4378C54.9374 26.4089 53.9522 26.3509 52.9381 26.322V24.9316C52.9381 24.3522 52.4745 23.8888 51.895 23.8888C51.3156 23.8888 50.852 24.3522 50.852 24.9316V26.264C50.2725 26.2351 49.664 26.2061 49.0555 26.2061V24.9605C49.0555 24.3812 48.592 23.9177 48.0125 23.9177C47.433 23.9177 46.9694 24.3812 46.9694 24.9605V26.1192C46.3609 26.0902 45.7814 26.0613 45.173 26.0613V24.9605C45.173 24.3812 44.7094 23.9177 44.1299 23.9177C43.5504 23.9177 43.0868 24.3812 43.0868 24.9605V25.9744C42.4783 25.9454 41.8989 25.9164 41.2904 25.9164V24.9316C41.2904 24.3522 40.8268 23.8888 40.2473 23.8888C39.6678 23.8888 39.2042 24.3522 39.2042 24.9316V25.8006C38.5958 25.7716 38.0163 25.7426 37.4078 25.7426V24.9605C37.4078 24.3812 36.9442 23.9177 36.3647 23.9177C35.7852 23.9177 35.3217 24.3812 35.3217 24.9605V25.6557C34.7132 25.6268 34.1337 25.5978 33.5252 25.5978V24.9316C33.5252 24.3522 33.0616 23.8888 32.4822 23.8888C31.9027 23.8888 31.4391 24.3522 31.4391 24.9316V25.4819C30.4539 25.453 29.4688 25.395 28.4837 25.3661V16.705C32.3083 14.9091 36.8863 13.6925 42.2466 13.6925C47.6068 13.6925 52.1848 14.938 56.0094 16.734V26.4378H55.8935Z" fill="white"/>
<path d="M28.3678 27.5674H24.717V37.0974C19.9362 33.2738 17.2995 29.0447 16.6911 27.5674H13.6777C14.8367 29.3633 19.038 35.3305 26.4844 39.4148C28.8314 40.6893 31.497 41.79 34.5104 42.5142C34.6263 42.5432 34.7132 42.5721 34.8291 42.5721C32.4532 41.79 30.3091 40.7762 28.3968 39.6465V27.5674H28.3678Z" fill="white"/>
<path d="M65.9172 61.2849H73.2188L70.3213 67.3679H64.0918L65.9172 61.2849Z" fill="#AD0000"/>
<path d="M20.1683 67.3679H13.9388L11.0703 61.2849H18.3719L20.1683 67.3679Z" fill="#AD0000"/>
<path d="M19.0962 65.9197H65.1656L66.5274 59.8367H17.7344L19.0962 65.9197Z" fill="#D50A0A"/>
<path d="M12.6529 47.1075V48.8536H8.41148V51.3318H11.9436V53.0846H8.41148V56.8925H6V47.1075H12.6529Z" fill="white"/>
<path d="M24.0952 51.9966C24.0952 52.7041 23.9652 53.3622 23.7051 53.9711C23.4498 54.58 23.0881 55.1106 22.6199 55.5628C22.1518 56.0105 21.5868 56.362 20.9248 56.6172C20.2676 56.8724 19.537 57 18.7332 57C17.9294 57 17.1965 56.8724 16.5345 56.6172C15.8725 56.362 15.3051 56.0105 14.8323 55.5628C14.3642 55.1106 14.0001 54.58 13.74 53.9711C13.4847 53.3622 13.357 52.7041 13.357 51.9966C13.357 51.2892 13.4847 50.6311 13.74 50.0222C14.0001 49.4133 14.3642 48.8849 14.8323 48.4372C15.3051 47.9895 15.8725 47.638 16.5345 47.3828C17.1965 47.1276 17.9294 47 18.7332 47C19.537 47 20.2676 47.1298 20.9248 47.3895C21.5868 47.6447 22.1518 47.9962 22.6199 48.4439C23.0881 48.8916 23.4498 49.42 23.7051 50.0289C23.9652 50.6378 24.0952 51.2937 24.0952 51.9966ZM21.6412 51.9966C21.6412 51.5131 21.575 51.0788 21.4426 50.6938C21.3102 50.3042 21.1187 49.9752 20.8681 49.7065C20.6222 49.4379 20.3196 49.2319 19.9602 49.0887C19.6009 48.9454 19.1919 48.8737 18.7332 48.8737C18.2698 48.8737 17.8561 48.9454 17.492 49.0887C17.1326 49.2319 16.8277 49.4379 16.577 49.7065C16.3312 49.9752 16.142 50.3042 16.0096 50.6938C15.8772 51.0788 15.8111 51.5131 15.8111 51.9966C15.8111 52.4847 15.8772 52.9234 16.0096 53.313C16.142 53.698 16.3312 54.0248 16.577 54.2935C16.8277 54.5621 17.1326 54.7681 17.492 54.9113C17.8561 55.0501 18.2698 55.1195 18.7332 55.1195C19.1919 55.1195 19.6009 55.0501 19.9602 54.9113C20.3196 54.7681 20.6222 54.5621 20.8681 54.2935C21.1187 54.0248 21.3102 53.698 21.4426 53.313C21.575 52.9234 21.6412 52.4847 21.6412 51.9966Z" fill="white"/>
<path d="M35.4406 51.9966C35.4406 52.7041 35.3105 53.3622 35.0505 53.9711C34.7951 54.58 34.4334 55.1106 33.9653 55.5628C33.4972 56.0105 32.9322 56.362 32.2702 56.6172C31.6129 56.8724 30.8824 57 30.0786 57C29.2747 57 28.5418 56.8724 27.8799 56.6172C27.2179 56.362 26.6505 56.0105 26.1776 55.5628C25.7095 55.1106 25.3455 54.58 25.0854 53.9711C24.8301 53.3622 24.7024 52.7041 24.7024 51.9966C24.7024 51.2892 24.8301 50.6311 25.0854 50.0222C25.3455 49.4133 25.7095 48.8849 26.1776 48.4372C26.6505 47.9895 27.2179 47.638 27.8799 47.3828C28.5418 47.1276 29.2747 47 30.0786 47C30.8824 47 31.6129 47.1298 32.2702 47.3895C32.9322 47.6447 33.4972 47.9962 33.9653 48.4439C34.4334 48.8916 34.7951 49.42 35.0505 50.0289C35.3105 50.6378 35.4406 51.2937 35.4406 51.9966ZM32.9865 51.9966C32.9865 51.5131 32.9203 51.0788 32.7879 50.6938C32.6556 50.3042 32.4641 49.9752 32.2134 49.7065C31.9676 49.4379 31.665 49.2319 31.3056 49.0887C30.9462 48.9454 30.5372 48.8737 30.0786 48.8737C29.6152 48.8737 29.2015 48.9454 28.8374 49.0887C28.478 49.2319 28.173 49.4379 27.9224 49.7065C27.6766 49.9752 27.4874 50.3042 27.355 50.6938C27.2226 51.0788 27.1564 51.5131 27.1564 51.9966C27.1564 52.4847 27.2226 52.9234 27.355 53.313C27.4874 53.698 27.6766 54.0248 27.9224 54.2935C28.173 54.5621 28.478 54.7681 28.8374 54.9113C29.2015 55.0501 29.6152 55.1195 30.0786 55.1195C30.5372 55.1195 30.9462 55.0501 31.3056 54.9113C31.665 54.7681 31.9676 54.5621 32.2134 54.2935C32.4641 54.0248 32.6556 53.698 32.7879 53.313C32.9203 52.9234 32.9865 52.4847 32.9865 51.9966Z" fill="white"/>
<path d="M43.6613 47.1075V48.9073H40.7534V56.8925H38.3561V48.9073H35.4481V47.1075H43.6613Z" fill="white"/>
<path d="M44.6491 56.8925V47.1075H48.4507C49.1647 47.1075 49.7723 47.1701 50.2735 47.2955C50.7747 47.4209 51.1837 47.5977 51.5005 47.8261C51.8173 48.0544 52.0467 48.332 52.1885 48.6588C52.3351 48.9857 52.4084 49.3506 52.4084 49.7535C52.4084 49.9729 52.3753 50.1856 52.3091 50.3915C52.2429 50.593 52.1389 50.7833 51.997 50.9624C51.8552 51.1415 51.6731 51.3049 51.4509 51.4527C51.2286 51.5959 50.9615 51.7213 50.6494 51.8287C51.3303 51.9854 51.8339 52.2407 52.1601 52.5944C52.4864 52.9436 52.6495 53.3936 52.6495 53.9443C52.6495 54.3606 52.5644 54.7479 52.3942 55.1061C52.224 55.4643 51.9734 55.7777 51.6424 56.0463C51.3161 56.3105 50.9118 56.5187 50.4296 56.6709C49.9473 56.8187 49.3964 56.8925 48.777 56.8925H44.6491ZM47.0464 52.7421V55.18H48.7344C49.0512 55.18 49.3089 55.1419 49.5075 55.0658C49.7108 54.9897 49.8692 54.8912 49.9827 54.7703C50.0962 54.6494 50.1742 54.5129 50.2168 54.3606C50.2593 54.2084 50.2806 54.054 50.2806 53.8972C50.2806 53.7182 50.2546 53.557 50.2026 53.4137C50.1553 53.2704 50.0702 53.1495 49.9473 53.051C49.829 52.9525 49.6706 52.8764 49.472 52.8227C49.2735 52.769 49.0229 52.7421 48.7202 52.7421H47.0464ZM47.0464 51.2243H48.2947C48.5595 51.2243 48.7983 51.2064 49.011 51.1706C49.2238 51.1348 49.4035 51.0721 49.5501 50.9825C49.7014 50.893 49.8149 50.7699 49.8905 50.6132C49.9709 50.4565 50.0111 50.2595 50.0111 50.0222C50.0111 49.7893 49.9804 49.5968 49.9189 49.4446C49.8574 49.2879 49.7628 49.1625 49.6352 49.0685C49.5075 48.9745 49.3444 48.9073 49.1458 48.867C48.9519 48.8267 48.7202 48.8066 48.4507 48.8066H47.0464V51.2243Z" fill="white"/>
<path d="M63.5757 56.8925H61.7174C61.5094 56.8925 61.3368 56.8478 61.1996 56.7582C61.0673 56.6642 60.9751 56.5456 60.923 56.4023L60.3131 54.6964H56.3838L55.7738 56.4023C55.7265 56.5276 55.6343 56.6418 55.4972 56.7448C55.3601 56.8433 55.1922 56.8925 54.9936 56.8925H53.1212L57.1214 47.1075H59.5754L63.5757 56.8925ZM56.937 53.1518H59.7599L58.8094 50.4721C58.748 50.302 58.6747 50.1028 58.5896 49.8744C58.5092 49.6416 58.4288 49.3909 58.3484 49.1222C58.2728 49.3953 58.1948 49.6483 58.1144 49.8811C58.034 50.1139 57.9583 50.3154 57.8874 50.4856L56.937 53.1518Z" fill="white"/>
<path d="M66.8142 55.0792H70.6442V56.8925H64.4169V47.1075H66.8142V55.0792Z" fill="white"/>
<path d="M74.17 55.0792H78V56.8925H71.7727V47.1075H74.17V55.0792Z" fill="white"/>
<path d="M29.1863 63.869C29.2103 63.869 29.2343 63.874 29.2583 63.884C29.2823 63.892 29.3053 63.907 29.3273 63.929L29.7293 64.352C29.5533 64.582 29.3323 64.756 29.0663 64.874C28.8023 64.99 28.4893 65.048 28.1273 65.048C27.7953 65.048 27.4973 64.992 27.2333 64.88C26.9713 64.766 26.7483 64.61 26.5643 64.412C26.3823 64.212 26.2423 63.976 26.1443 63.704C26.0463 63.43 25.9973 63.133 25.9973 62.813C25.9973 62.487 26.0533 62.188 26.1653 61.916C26.2773 61.642 26.4333 61.406 26.6333 61.208C26.8353 61.01 27.0763 60.856 27.3563 60.746C27.6363 60.636 27.9453 60.581 28.2833 60.581C28.4473 60.581 28.6013 60.596 28.7453 60.626C28.8913 60.654 29.0273 60.694 29.1533 60.746C29.2793 60.796 29.3953 60.857 29.5013 60.929C29.6073 60.999 29.7013 61.077 29.7833 61.163L29.4413 61.622C29.4193 61.65 29.3933 61.676 29.3633 61.7C29.3333 61.722 29.2913 61.733 29.2373 61.733C29.2013 61.733 29.1673 61.725 29.1353 61.709C29.1033 61.693 29.0693 61.674 29.0333 61.652C28.9973 61.628 28.9573 61.603 28.9133 61.577C28.8713 61.549 28.8203 61.524 28.7603 61.502C28.7023 61.478 28.6333 61.458 28.5533 61.442C28.4753 61.426 28.3833 61.418 28.2773 61.418C28.0933 61.418 27.9253 61.451 27.7733 61.517C27.6213 61.581 27.4903 61.674 27.3803 61.796C27.2723 61.916 27.1873 62.062 27.1253 62.234C27.0653 62.406 27.0353 62.599 27.0353 62.813C27.0353 63.037 27.0653 63.236 27.1253 63.41C27.1873 63.584 27.2703 63.731 27.3743 63.851C27.4803 63.969 27.6033 64.059 27.7433 64.121C27.8833 64.183 28.0333 64.214 28.1933 64.214C28.2853 64.214 28.3693 64.21 28.4453 64.202C28.5213 64.192 28.5913 64.176 28.6553 64.154C28.7213 64.132 28.7833 64.104 28.8413 64.07C28.9013 64.034 28.9613 63.99 29.0213 63.938C29.0453 63.918 29.0713 63.902 29.0993 63.89C29.1273 63.876 29.1563 63.869 29.1863 63.869ZM35.7066 62.813C35.7066 63.129 35.6516 63.423 35.5416 63.695C35.4336 63.967 35.2806 64.204 35.0826 64.406C34.8846 64.606 34.6456 64.763 34.3656 64.877C34.0876 64.991 33.7786 65.048 33.4386 65.048C33.0986 65.048 32.7886 64.991 32.5086 64.877C32.2286 64.763 31.9886 64.606 31.7886 64.406C31.5906 64.204 31.4366 63.967 31.3266 63.695C31.2186 63.423 31.1646 63.129 31.1646 62.813C31.1646 62.497 31.2186 62.203 31.3266 61.931C31.4366 61.659 31.5906 61.423 31.7886 61.223C31.9886 61.023 32.2286 60.866 32.5086 60.752C32.7886 60.638 33.0986 60.581 33.4386 60.581C33.7786 60.581 34.0876 60.639 34.3656 60.755C34.6456 60.869 34.8846 61.026 35.0826 61.226C35.2806 61.426 35.4336 61.662 35.5416 61.934C35.6516 62.206 35.7066 62.499 35.7066 62.813ZM34.6686 62.813C34.6686 62.597 34.6406 62.403 34.5846 62.231C34.5286 62.057 34.4476 61.91 34.3416 61.79C34.2376 61.67 34.1096 61.578 33.9576 61.514C33.8056 61.45 33.6326 61.418 33.4386 61.418C33.2426 61.418 33.0676 61.45 32.9136 61.514C32.7616 61.578 32.6326 61.67 32.5266 61.79C32.4226 61.91 32.3426 62.057 32.2866 62.231C32.2306 62.403 32.2026 62.597 32.2026 62.813C32.2026 63.031 32.2306 63.227 32.2866 63.401C32.3426 63.573 32.4226 63.719 32.5266 63.839C32.6326 63.959 32.7616 64.051 32.9136 64.115C33.0676 64.177 33.2426 64.208 33.4386 64.208C33.6326 64.208 33.8056 64.177 33.9576 64.115C34.1096 64.051 34.2376 63.959 34.3416 63.839C34.4476 63.719 34.5286 63.573 34.5846 63.401C34.6406 63.227 34.6686 63.031 34.6686 62.813ZM38.4054 64.19H40.0254V65H37.3914V60.629H38.4054V64.19ZM42.7168 64.19H44.3368V65H41.7028V60.629H42.7168V64.19ZM48.8281 60.629V61.409H47.0341V62.429H48.4081V63.179H47.0341V64.22H48.8281V65H46.0141V60.629H48.8281ZM52.6647 64.268C52.8047 64.268 52.9287 64.256 53.0367 64.232C53.1447 64.208 53.2467 64.176 53.3427 64.136V63.473H52.9107C52.8467 63.473 52.7967 63.456 52.7607 63.422C52.7247 63.388 52.7067 63.345 52.7067 63.293V62.735H54.2607V64.58C54.1487 64.662 54.0317 64.733 53.9097 64.793C53.7897 64.851 53.6607 64.899 53.5227 64.937C53.3867 64.975 53.2407 65.003 53.0847 65.021C52.9307 65.039 52.7647 65.048 52.5867 65.048C52.2667 65.048 51.9707 64.992 51.6987 64.88C51.4267 64.766 51.1907 64.61 50.9907 64.412C50.7927 64.212 50.6367 63.976 50.5227 63.704C50.4107 63.43 50.3547 63.133 50.3547 62.813C50.3547 62.487 50.4087 62.188 50.5167 61.916C50.6247 61.642 50.7787 61.406 50.9787 61.208C51.1807 61.01 51.4237 60.856 51.7077 60.746C51.9937 60.636 52.3127 60.581 52.6647 60.581C52.8467 60.581 53.0177 60.596 53.1777 60.626C53.3377 60.656 53.4847 60.697 53.6187 60.749C53.7547 60.801 53.8787 60.863 53.9907 60.935C54.1027 61.007 54.2027 61.085 54.2907 61.169L53.9967 61.616C53.9687 61.658 53.9347 61.691 53.8947 61.715C53.8567 61.739 53.8147 61.751 53.7687 61.751C53.7087 61.751 53.6467 61.731 53.5827 61.691C53.5027 61.643 53.4267 61.602 53.3547 61.568C53.2847 61.532 53.2127 61.503 53.1387 61.481C53.0647 61.459 52.9867 61.443 52.9047 61.433C52.8227 61.423 52.7307 61.418 52.6287 61.418C52.4387 61.418 52.2677 61.452 52.1157 61.52C51.9637 61.586 51.8337 61.68 51.7257 61.802C51.6197 61.924 51.5377 62.071 51.4797 62.243C51.4217 62.413 51.3927 62.603 51.3927 62.813C51.3927 63.045 51.4247 63.251 51.4887 63.431C51.5527 63.611 51.6407 63.763 51.7527 63.887C51.8667 64.011 52.0007 64.106 52.1547 64.172C52.3107 64.236 52.4807 64.268 52.6647 64.268ZM58.8922 60.629V61.409H57.0982V62.429H58.4722V63.179H57.0982V64.22H58.8922V65H56.0782V60.629H58.8922Z" fill="white"/>
</g>
<defs>
<clipPath id="clip0">
<rect width="76" height="67" fill="white" transform="translate(4 9)"/>
</clipPath>
</defs>
</svg>
