<svg width="85" height="85" viewBox="0 0 85 85" fill="none" xmlns="http://www.w3.org/2000/svg">
<path d="M52.6482 0H32.728C27.9076 0 24 3.87736 24 8.66032V75.4938C24 80.2768 27.9076 84.1541 32.728 84.1541H52.6482C57.4685 84.1541 61.3762 80.2768 61.3762 75.4938V8.66032C61.3762 3.87736 57.4685 0 52.6482 0Z" fill="white"/>
<path d="M48.5651 2.39966C47.3445 2.3998 46.4495 2.40447 46.3941 2.41204L46.2598 2.43035L46.5527 2.55612C46.9378 2.72148 47.365 2.97715 47.5924 3.1784C47.6932 3.26758 47.8569 3.46217 47.9564 3.61084C48.0947 3.8177 48.1659 3.89099 48.2594 3.92316C48.5567 4.02537 48.7799 4.26248 48.9787 4.68731C49.1311 5.01302 49.1869 5.32862 49.1876 5.86905C49.1886 6.61793 49.0172 7.29167 48.6084 8.14541L48.4223 8.53388L48.5564 8.68622C48.8408 9.00919 48.7823 9.3061 48.2747 10.117C48.1543 10.3094 48.0185 10.5392 47.973 10.6279C47.837 10.8924 47.7091 11.0169 47.5016 11.087L47.3123 11.151L47.0666 11.6217C46.4709 12.7627 46.02 13.37 45.6374 13.5468C45.5656 13.58 45.4884 13.6309 45.4658 13.6598C45.398 13.7468 45.3416 13.9789 45.343 14.1652C45.3455 14.4939 45.3671 14.5155 46.0026 14.8269C46.6531 15.1457 47.1446 15.4326 47.4584 15.6768C47.6576 15.8317 47.6734 15.8545 47.6734 15.9843C47.6734 16.0992 47.6909 16.1351 47.7703 16.1842C48.0499 16.3567 48.2799 16.5109 48.5043 16.6762C48.6416 16.7773 48.9666 17.0016 49.2265 17.1745C49.8306 17.5765 50.1532 17.8374 50.5281 18.2268C51.7064 19.451 52.355 21.2438 52.5335 23.7707C52.5533 24.0517 52.5697 24.7131 52.5698 25.2406L52.5701 26.1997L52.6916 26.685C52.8164 27.1839 52.9436 27.8448 53.1344 28.9845C53.2658 29.7696 53.3934 30.3843 53.4913 30.7035C53.5311 30.8334 53.7544 31.3281 53.9875 31.8028C54.5294 32.9062 54.7115 33.3264 54.9264 33.9694C55.0996 34.4877 55.2421 35.1167 55.2976 35.6075C55.4373 36.8446 55.6416 37.8307 55.7921 37.9953C55.8148 38.0201 56.0147 38.0879 56.2362 38.146C56.4577 38.204 56.7376 38.2976 56.8581 38.3539C57.0647 38.4505 57.0837 38.4699 57.1927 38.6964L57.3083 38.9366L57.7134 39.1412C57.9363 39.2537 58.1636 39.3884 58.2187 39.4406C58.3485 39.5636 58.4454 39.7546 58.4752 39.9462C58.4883 40.0303 58.5481 40.1705 58.608 40.2577C58.8472 40.6055 59.2033 41.27 59.237 41.4311C59.2418 41.4542 59.2499 34.0855 59.255 25.0566C59.2651 7.00993 59.2797 8.28943 59.0534 7.41182C58.866 6.68515 58.5472 5.97979 58.1209 5.34861C57.0796 3.807 55.4929 2.80211 53.5744 2.47C53.2594 2.41544 52.8687 2.40824 49.8754 2.40161C49.4153 2.4006 48.9722 2.40012 48.5654 2.40017L48.5651 2.39966ZM48.0578 24.7219C47.8824 24.7219 46.6266 25.4751 45.8905 26.0218C45.6074 26.2321 45.5651 26.279 45.4498 26.5117C45.2719 26.8704 44.5987 28.5571 43.8934 30.4111L43.5716 31.2566L43.5586 31.6529C43.5467 32.0186 43.5507 32.0493 43.6104 32.0496C43.71 32.0502 44.0095 32.2363 44.1885 32.4091C44.5422 32.7505 44.7588 33.1813 45.0438 34.1101C45.2687 34.8432 45.8116 36.7408 46.2683 38.3902L46.7304 40.0594L46.8756 40.5836L46.6696 40.7816L46.4635 40.9795L46.5456 41.279C46.5907 41.4437 46.6733 41.7449 46.729 41.9483C47.3857 44.3458 47.69 46.0901 47.9917 49.1879C48.1356 50.6661 48.244 51.1786 48.5883 52.0076C48.9212 52.8093 49.2812 53.5206 49.7363 54.2761C50.3831 55.35 50.75 56.1175 50.9554 56.8261C51.16 57.5317 51.4224 58.8559 51.7247 60.7074C52.1207 63.1334 52.26 63.944 52.3201 64.1725C52.376 64.3857 52.435 64.4897 52.7175 64.8726C53.1994 65.5259 53.3124 65.6992 53.5501 66.1502C53.9372 66.8843 54.0347 67.327 53.9307 67.8764C53.8995 68.0411 53.81 68.4374 53.7318 68.7571C53.3587 70.282 53.2889 71.0105 53.4479 71.7199C53.4675 71.8075 53.5479 72.2698 53.6265 72.7473C53.7849 73.7094 53.8875 74.1135 54.0241 74.3131C54.1443 74.4887 54.2615 74.8468 54.2605 75.0355C54.2599 75.1184 54.2284 75.2554 54.19 75.3399C54.1517 75.4243 54.1203 75.5177 54.1203 75.5475C54.1203 75.5772 54.2781 76.0788 54.4709 76.6621C54.6638 77.2455 54.8617 77.8654 54.9107 78.0398C55.3 79.4234 55.2919 80.5452 54.8869 81.3513C54.6088 81.9048 54.2658 82.2758 53.6407 82.6997C53.5841 82.7381 53.6003 82.7417 53.7504 82.7237C53.9845 82.6957 54.4192 82.5853 54.7986 82.4576C55.7792 82.1276 56.7625 81.4823 57.5043 80.682C58.4549 79.6564 59.0738 78.2928 59.2265 76.8874C59.252 76.6527 59.2635 71.733 59.2633 61.2107L59.2631 45.8761L59.1504 46.1227C59.006 46.4389 58.662 47.0173 58.4666 47.2724C57.9052 48.0054 57.1333 48.6301 56.296 49.0291C54.3252 49.9683 52.0314 49.7708 50.2452 48.5082C49.8177 48.206 49.1678 47.5559 48.8637 47.1263C47.6216 45.3716 47.4114 43.0979 48.311 41.1448C48.9888 39.673 50.3439 38.4746 51.8654 38.001C52.0688 37.9377 52.2494 37.8734 52.2667 37.8582C52.3069 37.8227 52.2228 37.614 51.757 36.5934C51.3864 35.7796 50.8982 34.7699 50.0967 33.1562C49.6578 32.2716 49.5926 32.081 49.3326 30.9216C49.0843 29.8126 48.6724 27.6964 48.3078 25.6548C48.1345 24.6856 48.144 24.7212 48.0581 24.7212L48.0578 24.7219Z" fill="#C8102E"/>
<path d="M38.2641 2.38732C35.4058 2.38894 32.4953 2.40141 32.2555 2.42314C30.6593 2.56779 29.2901 3.18625 28.1628 4.27169C27.0737 5.32043 26.4419 6.52632 26.1599 8.0947C26.1037 8.40733 26.0992 10.5666 26.088 42.1086C26.0799 64.9892 26.0878 75.9957 26.1125 76.4382C26.2119 78.2168 26.8365 79.6299 28.0674 80.8612C29.2289 82.0232 30.6903 82.6958 32.3078 82.8127C32.7874 82.8474 52.5358 82.857 52.5343 82.8226C52.5338 82.8085 52.4373 82.7335 52.3198 82.656C51.8751 82.3626 51.52 81.8766 51.39 81.3834C51.2321 80.7843 51.241 80.1053 51.4268 78.5694C51.5895 77.2257 51.689 76.1582 51.7127 75.5029L51.736 74.8564L51.5456 74.6502C51.1417 74.2128 51.0602 73.8887 51.2446 73.4534C51.2957 73.3329 51.3375 73.1963 51.3375 73.1498C51.3375 73.0214 51.1495 72.4161 50.9746 71.9816C50.7708 71.4751 50.4663 70.8708 49.995 70.0376C49.319 68.8425 49.1816 68.5205 49.1778 68.124C49.1755 67.8743 49.224 67.7486 49.4 67.548L49.5045 67.4291L49.4035 67.1336C49.27 66.7425 49.132 66.4014 48.8529 65.772L48.6221 65.2514L48.3021 65.0616C47.0106 64.2936 45.4418 63.1064 43.9061 61.7289C43.4506 61.3203 42.6396 60.5382 41.9668 59.8618C41.5502 59.4418 40.9082 58.8332 40.54 58.5093C39.8836 57.9319 39.6364 57.6777 39.5255 57.4666C39.495 57.4085 39.379 57.2579 39.2678 57.132C37.8367 55.5113 34.619 50.7657 33.5444 48.6912C33.425 48.4606 33.3239 48.2681 33.3198 48.2634C33.3157 48.2586 32.9352 48.2004 32.4741 48.1339C32.0131 48.0675 31.6242 48.0001 31.61 47.9841C31.5958 47.9681 31.5261 47.7592 31.455 47.52C31.1757 46.5796 30.8185 45.7893 29.7968 43.8509C28.3392 41.0856 27.9604 39.6911 28.1747 37.8795C28.3121 36.7176 28.6985 34.8901 28.8942 34.4767C29.0122 34.2274 29.2852 33.8913 29.704 33.4797L30.0943 33.095V32.6668V32.2386L29.1519 32.2377C27.9036 32.2366 27.546 32.1833 27.2838 31.9589C27.1258 31.8236 27.0966 31.7502 26.9575 31.1386C26.9163 30.9578 26.8269 30.6725 26.7587 30.5045C26.4838 29.8269 26.4665 29.5639 26.6574 28.9611C26.724 28.7506 26.8044 28.4767 26.836 28.3524C27.1189 27.2394 27.8331 25.5511 29.2141 22.7305C29.4512 22.2461 29.6974 21.6992 29.7611 21.5151C30.1832 20.2962 30.5829 19.3298 30.9995 18.5207C31.9212 16.7308 32.6285 15.6629 33.3576 14.9612C33.7317 14.601 34.0097 14.4067 34.4407 14.2042C35.0244 13.93 35.4579 13.8425 36.8753 13.7125L37.8259 13.6253L37.9321 13.5048L38.0383 13.3842L38.4963 13.3623C40.0135 13.2897 40.5601 13.0988 40.8193 12.5508C40.9478 12.279 41.0039 11.9867 41.1394 10.8819C41.2074 10.3266 41.2667 9.84848 41.2712 9.81942C41.2762 9.78678 41.256 9.77049 41.2185 9.77676C40.896 9.83063 40.6244 9.11277 40.6147 8.1813C40.6069 7.426 40.7175 7.25504 41.2391 7.21621L41.5258 7.19436L41.5336 6.93015C41.5506 6.35471 41.6223 5.51819 41.6873 5.13529C41.8369 4.25542 42.0361 3.82417 42.5096 3.35444C42.8545 3.01228 43.2025 2.7847 43.7146 2.56634C43.8929 2.49031 43.9908 2.43118 43.9649 2.41517C43.93 2.3935 41.1224 2.38428 38.2635 2.38593L38.2641 2.38732ZM30.3058 66.4696H31.4294H32.5531L32.6086 66.7778C32.6392 66.9474 32.7447 67.53 32.8432 68.0725C32.9416 68.615 33.0847 69.4077 33.1611 69.8339C33.2376 70.2602 33.4427 71.3937 33.617 72.3528C33.7914 73.3119 34.016 74.5523 34.1161 75.1094C34.2163 75.6665 34.3043 76.1162 34.3116 76.1089C34.3228 76.0978 34.2701 75.1723 34.1992 74.1318C34.1732 73.7503 34.1501 73.3594 34.1275 72.9164C34.1161 72.6936 34.1005 72.4162 34.0928 72.2999C34.085 72.1837 34.069 71.7953 34.0572 71.4368C34.0454 71.0784 34.0289 70.7058 34.0206 70.609C34.0124 70.5121 33.9958 69.5411 33.9838 68.4512L33.962 66.4696H34.6879H35.4139V72.5464V78.6232H34.3827H33.3516L33.1811 77.6985C33.0872 77.1898 32.8942 76.1476 32.752 75.3822C32.6098 74.6169 32.3888 73.42 32.2608 72.7224C31.9272 70.9045 31.7577 69.9996 31.6605 69.5166L31.5755 69.0939L31.5921 69.4286C31.6012 69.6126 31.6246 70.2309 31.644 70.8025C31.6634 71.3741 31.6871 72.032 31.6966 72.2645C31.709 72.567 31.7248 77.8109 31.7156 78.5617C31.7149 78.6183 31.6575 78.6233 31.0103 78.6233H30.3057V72.5465V66.4697L30.3058 66.4696ZM36.5413 66.4696L37.8359 66.4699C38.548 66.4699 39.2336 66.486 39.3595 66.5055C40.1209 66.6232 40.6616 67.0488 40.9064 67.7231C41.0748 68.1871 41.0924 68.4215 41.0773 69.9924C41.0656 71.2062 41.0545 71.4508 41.0031 71.6306C40.9024 71.9827 40.7692 72.217 40.542 72.4412L40.3274 72.6529L40.5235 72.8463C40.7525 73.072 40.8806 73.2888 40.9896 73.6356C41.0656 73.8772 41.0681 73.9326 41.0681 75.3648C41.0681 77.0195 41.0649 77.0476 40.8108 77.5666C40.5753 78.0475 40.1656 78.3733 39.586 78.5403C39.4089 78.5914 39.1618 78.6027 37.9592 78.6148L36.5413 78.6324V72.5519V66.4715V66.4696ZM43.0617 66.4696H44.2195H45.3774L45.398 66.6017C45.4093 66.6743 45.5063 67.4948 45.6136 68.4248C45.7209 69.3548 45.9425 71.2651 46.1062 72.6697C46.7347 78.0667 46.7928 78.567 46.7928 78.5951C46.7928 78.6092 46.413 78.6233 45.9487 78.6233H45.1048L45.0866 78.5088C45.0766 78.4459 45.0364 77.9822 44.9971 77.4784C44.9578 76.9746 44.9161 76.4713 44.9045 76.3599L44.8833 76.1573H44.1652C43.4489 76.1573 43.4471 76.1576 43.4308 76.2366C43.4219 76.2802 43.381 76.7439 43.34 77.267C43.299 77.7901 43.2563 78.3094 43.245 78.4208L43.2244 78.6233H42.4192H41.614V78.5178C41.614 78.431 41.8549 76.3882 42.0898 74.4837C42.1185 74.2512 42.3243 72.5391 42.5472 70.6791C43.0085 66.8296 43.0194 66.7394 43.0437 66.5838L43.0615 66.4693L43.0617 66.4696ZM44.1193 67.8337C44.1139 67.8338 44.1085 67.8393 44.1025 67.8459C44.0948 67.8543 44.0786 68.0038 44.0666 68.1782C44.0545 68.3526 44.0364 68.5983 44.0262 68.7242C44.0161 68.8502 43.9604 69.5873 43.9025 70.3624C43.8446 71.1374 43.7404 72.4258 43.6709 73.2255C43.6015 74.0251 43.5523 74.6989 43.5615 74.7227C43.5737 74.7545 43.7324 74.766 44.1608 74.766C44.4812 74.766 44.7527 74.7567 44.764 74.7454C44.7754 74.7341 44.7376 74.1951 44.68 73.5476C44.2179 68.3521 44.1714 67.8335 44.1193 67.8338L44.1193 67.8337ZM38.1617 68.0134V70.0006C38.1617 71.0936 38.1684 71.9945 38.1765 72.0026C38.1846 72.0107 38.3867 72.0118 38.6257 72.0051C39.1254 71.9911 39.2483 71.9502 39.3678 71.7581L39.4474 71.6312V70.0284C39.4474 68.4888 39.4446 68.4208 39.3769 68.3059C39.2366 68.0676 39.1614 68.0392 38.6347 68.0264L38.1616 68.0123L38.1617 68.0134ZM38.1617 73.3298V75.2012V77.0726H38.577C39.0796 77.0726 39.2548 77.0068 39.375 76.7731C39.4448 76.6376 39.4476 76.5766 39.4476 75.1879C39.4476 73.8009 39.4447 73.7386 39.3761 73.6202C39.2601 73.4199 39.0936 73.3613 38.5933 73.3444L38.1617 73.3338L38.1617 73.3298Z" fill="#1D428A"/>
</svg>
