<svg xmlns="http://www.w3.org/2000/svg" width="85" height="85" fill="none"><g clip-path="url(#clip0)"><path fill="#013369" d="M42.51 7.82c4.14 0 8.33.25 12.41.77l.8.1.46.67c3.7 5.46 10.1 9.5 17.58 11.06l1.45.3V27.93a53.17 53.17 0 01-8.74 29.3 52.1 52.1 0 01-23.28 19.48l-.7.3-.7-.3A52.23 52.23 0 0118.5 57.24a53.43 53.43 0 01-8.72-29.3v-7.21l1.43-.29c7.48-1.59 13.9-5.62 17.6-11.08l.46-.66.8-.1c4.1-.51 8.29-.78 12.43-.78zm0-1.82c-4.23 0-8.47.27-12.64.77l-.8.1-.8.11-.48.67-.45.67c-3.45 5.08-9.44 8.84-16.47 10.32l-1.43.3-1.44.31v8.69c0 10.83 3.13 21.3 9.03 30.3A54.02 54.02 0 0041.11 78.4l.7.3.7.29.7-.3.7-.29A54.02 54.02 0 0068 58.25a55 55 0 009.03-30.3V19.24l-1.42-.3-1.42-.29c-7.03-1.48-13.03-5.24-16.48-10.3l-.45-.67-.45-.67-.8-.1-.81-.1A99.56 99.56 0 0042.5 6z"/><path fill="#D50A0A" d="M34.76 26.77c1.67 0 4.99.99 6.68 2.43.62.52 1.52.52 2.14 0a13 13 0 016.68-2.43h23.15v-4.55c-8.06-1.7-14.78-6.04-18.7-11.81-8.08-1-16.3-1-24.4 0-3.92 5.77-10.66 10.11-18.7 11.8v4.56h23.15z"/><path fill="#013369" d="M42.47 37a14.03 14.03 0 00-13.92 14.1c0 7.77 6.25 14.1 13.92 14.1s13.92-6.33 13.92-14.1S50.14 37 42.47 37zm10.47 6.28l-.97 3.01a2.4 2.4 0 01-1.44 1.53l-2.14.81c-.75.28-1.6.17-2.25-.31l-2.25-1.65a2.46 2.46 0 01-.99-1.97V42.5c0-.77.37-1.5 1-1.97l2.63-1.94c2.6.86 4.83 2.5 6.41 4.7zm-14.53-4.72l2.64 1.94c.62.46.99 1.2.99 1.97v2.21c0 .78-.37 1.5-1 1.97l-2.26 1.67c-.64.48-1.48.59-2.23.31l-2.02-.75a2.38 2.38 0 01-1.46-1.52l-1.01-3.14a13.12 13.12 0 016.35-4.66zm-3.18 20.15h-3.38a13.06 13.06 0 01-2.39-7.55l2.74-2a2.36 2.36 0 012.23-.32l1.98.73c.7.26 1.24.82 1.46 1.53l.87 2.74c.25.73.1 1.54-.35 2.17l-1.24 1.71c-.43.61-1.13.99-1.92.99zm3.32 4.95l-1.03-3.2c-.25-.73-.1-1.54.35-2.17l1.28-1.78a2.4 2.4 0 011.94-1h2.82c.77 0 1.47.35 1.92.98l1.28 1.76c.45.62.6 1.44.35 2.2l-1.03 3.19a13.08 13.08 0 01-7.88.02zm14.52-4.93h-3.28c-.76 0-1.47-.36-1.92-.98l-1.3-1.76a2.45 2.45 0 01-.35-2.2l.89-2.73a2.4 2.4 0 011.44-1.53l2.02-.75a2.41 2.41 0 012.25.31l2.7 1.99v.02a13.32 13.32 0 01-2.45 7.63zM64.98 56.22a51.36 51.36 0 008.41-27.27H65v27.27zM20.04 28.95H11.6A51.54 51.54 0 0020 56.22V28.95h.03zM36.2 36.93a15.05 15.05 0 0112.58 0v-7.82c-1.71.34-3.94 1.17-5.22 2.26-.62.52-1.52.52-2.14 0-1.3-1.09-3.5-1.9-5.22-2.26v7.82z"/><path fill="#013369" d="M63.19 28.95H50.6v8.94a15.56 15.56 0 010 26.25v6.52A50.45 50.45 0 0063.2 58.77V28.95zM48.8 65.16a15.05 15.05 0 01-12.58 0v6.67c2 1.21 4.1 2.28 6.29 3.22 2.19-.92 4.29-2 6.29-3.22v-6.67zM34.4 64.18a15.56 15.56 0 010-26.25V29H21.84v29.84a50.78 50.78 0 0012.58 11.9v-6.55z"/><path fill="#fff" d="M29.07 19.36a.5.5 0 01-.13.14.27.27 0 01-.17.05.44.44 0 01-.2-.06 7.54 7.54 0 00-.54-.26 1.19 1.19 0 00-.4-.06c-.24 0-.43.06-.56.17a.55.55 0 00-.18.43c0 .12.03.22.1.3.08.07.18.14.3.2.12.05.26.1.42.15a7.76 7.76 0 01.95.36c.16.07.3.17.42.3.12.11.22.26.3.43a2.02 2.02 0 01-.03 1.38 1.78 1.78 0 01-1.07 1.03 2.87 2.87 0 01-1.98-.06 3.29 3.29 0 01-.5-.25 2.1 2.1 0 01-.4-.31l.4-.64a.35.35 0 01.3-.16c.07 0 .15.03.23.08.09.05.18.1.28.17.1.06.22.12.36.17.13.05.29.07.47.07a.9.9 0 00.57-.16c.14-.1.2-.28.2-.51a.49.49 0 00-.1-.34.86.86 0 00-.3-.2c-.12-.06-.26-.11-.42-.16-.15-.04-.3-.09-.47-.14a3.86 3.86 0 01-.48-.19 1.6 1.6 0 01-.41-.3 1.45 1.45 0 01-.3-.46 1.86 1.86 0 01.02-1.33c.1-.2.22-.4.4-.56.16-.16.37-.29.62-.38.25-.1.53-.15.85-.15a3.02 3.02 0 011.43.36c.13.08.25.16.36.26l-.34.63zM36.31 21.08a3.1 3.1 0 01-.83 2.13c-.27.26-.58.47-.96.63-.37.15-.78.22-1.23.22-.46 0-.87-.07-1.24-.22-.38-.16-.7-.37-.96-.63a2.88 2.88 0 01-.84-2.13c0-.42.08-.8.22-1.17a2.84 2.84 0 011.58-1.57c.37-.16.78-.23 1.24-.23.45 0 .86.08 1.23.23a2.83 2.83 0 011.79 2.74zm-1.38 0c0-.28-.04-.54-.12-.77a1.63 1.63 0 00-.32-.59c-.14-.16-.3-.28-.51-.37-.2-.08-.43-.13-.7-.13-.26 0-.49.05-.7.13-.2.09-.37.21-.51.37s-.25.36-.32.59a2.5 2.5 0 00-.11.77c0 .3.04.56.11.79.07.23.18.42.32.58.14.16.31.28.52.37.2.08.43.12.7.12.26 0 .49-.04.69-.12.2-.09.37-.2.51-.37.14-.16.25-.35.32-.58.08-.23.12-.5.12-.79zM41.27 22.5c.03 0 .07 0 .1.01s.06.03.1.06l.53.57c-.24.3-.53.53-.89.7a3.1 3.1 0 01-1.25.22c-.44 0-.84-.07-1.2-.22a2.64 2.64 0 01-1.44-1.57 3.5 3.5 0 01.02-2.38 2.8 2.8 0 011.6-1.56 3.35 3.35 0 012.39 0 2.4 2.4 0 01.84.55l-.46.62a.64.64 0 01-.1.1.28.28 0 01-.17.04.3.3 0 01-.14-.03 1.8 1.8 0 01-.3-.17 1.5 1.5 0 00-.48-.18 1.86 1.86 0 00-1.03.1c-.2.08-.38.2-.53.37-.14.16-.25.35-.34.58-.08.23-.12.49-.12.77 0 .3.04.57.12.8.09.23.2.43.34.59a1.44 1.44 0 001.09.48c.12 0 .23 0 .33-.01a1.43 1.43 0 00.77-.36.42.42 0 01.1-.06.26.26 0 01.12-.03zM46.93 22.5c.03 0 .06 0 .1.01.03.01.06.03.09.06l.53.57c-.23.3-.52.53-.88.7a3.1 3.1 0 01-1.25.22c-.44 0-.84-.07-1.2-.22a2.64 2.64 0 01-1.45-1.57 3.5 3.5 0 01.03-2.38 2.8 2.8 0 011.6-1.56 3.35 3.35 0 012.39 0 2.4 2.4 0 01.84.55l-.46.62a.64.64 0 01-.1.1.28.28 0 01-.17.04.3.3 0 01-.14-.03 1.82 1.82 0 01-.3-.17 1.5 1.5 0 00-.48-.18 1.85 1.85 0 00-1.03.1c-.2.08-.38.2-.53.37-.14.16-.25.35-.34.58-.08.23-.12.49-.12.77 0 .3.04.57.12.8.09.23.2.43.33.59a1.44 1.44 0 001.1.48c.12 0 .23 0 .33-.01a1.43 1.43 0 00.77-.36.42.42 0 01.1-.06.26.26 0 01.12-.03zM52.42 18.17v1.04h-2.39v1.36h1.83v1h-1.83v1.39h2.4V24h-3.76v-5.83h3.75zM54.95 21.84V24H53.6v-5.83h1.9c.41 0 .77.05 1.07.13.3.09.54.2.73.36.19.16.32.34.4.55a1.85 1.85 0 01.05 1.22 1.62 1.62 0 01-.59.85c-.14.12-.3.2-.5.28.1.05.18.1.26.17.08.06.15.15.2.24L58.36 24h-1.22c-.23 0-.39-.09-.49-.26l-.97-1.69a.4.4 0 00-.15-.16.49.49 0 00-.24-.05h-.34zm0-.93h.54c.19 0 .34-.02.47-.07a.87.87 0 00.32-.2.74.74 0 00.18-.28c.04-.11.06-.23.06-.36a.75.75 0 00-.26-.6c-.16-.14-.42-.22-.77-.22h-.54v1.73z"/></g><defs><clipPath id="clip0"><path fill="#fff" d="M0 0h69v73H0z" transform="translate(8 6)"/></clipPath></defs></svg>