<svg width="85" height="85" viewBox="0 0 85 85" fill="none" xmlns="http://www.w3.org/2000/svg">
<path d="M69.5082 60.1387V66.9477V68.059L68.5251 68.5874L43.3473 81.7591L42.5099 82.2145L41.6542 81.7591L16.4947 68.5874L15.5116 68.059V66.9477V60.1387H13.9277V66.9477V68.059V69.0246L14.7652 69.4801L15.7483 69.9902L40.926 83.1801L41.7635 83.6173L42.5099 83.9999L43.2381 83.6173L44.0937 83.1801L69.2533 69.9902L70.2364 69.4801L71.092 69.0246V68.059V66.9477V60.1387H69.5082Z" fill="#E1E1E1"/>
<path d="M15.5116 45.3639V17.0502V15.6292L16.877 15.2648C22.8483 13.7162 27.9821 9.70826 30.9678 4.27926L31.4047 3.49588L32.2968 3.36835C35.6647 2.85825 39.1055 2.58498 42.5099 2.58498C45.9142 2.58498 49.355 2.84003 52.723 3.36835L53.615 3.49588L54.052 4.27926C57.0376 9.70826 62.1715 13.7162 68.1428 15.2648L69.5082 15.6292V17.0502V45.3639H71.092V17.0502V15.6292V14.4085L69.9087 14.0988L68.5433 13.7345C62.9907 12.2952 58.2209 8.57874 55.4538 3.5141L55.0168 2.73072L54.6163 2.05665L53.8335 1.92912L52.9414 1.8016C49.5007 1.27327 45.9871 1 42.5099 1C39.0145 1 35.5009 1.27327 32.0601 1.8016L31.168 1.92912L30.3852 2.05665L30.0029 2.74894L29.566 3.53232C26.7988 8.57874 22.029 12.2952 16.4765 13.7345L15.1111 14.0988L13.9277 14.4085V15.6292V17.0502V45.3639H15.5116Z" fill="#E1E1E1"/>
<path d="M67.6694 45.3638V17.0501C61.1155 15.3558 55.6357 10.9835 52.4316 5.17191C45.8413 4.16991 39.1418 4.16991 32.5698 5.17191C29.3839 10.9835 23.9041 15.3376 17.332 17.0501V45.3638H67.6694Z" fill="#013369"/>
<path d="M42.5098 80.0648L17.332 66.9478V60.1387H67.6694V66.9478L42.5098 80.0648Z" fill="#013369"/>
<path d="M25.2318 19.864L26.043 20.4338L25.6954 22.7132L26.043 23.511L25.6954 25.9044L25.4636 26.2463L26.2748 27.0441L27.3179 27.2721L28.3609 26.7022L28.1291 26.3603L28.7086 24.1949L29.5199 23.2831L29.6358 22.9412L30.7947 24.5368L31.606 26.9301L31.8377 29.0956L32.3013 30.6912L29.2881 33.5404L28.9404 34.2243L29.2881 38.8971L29.0563 39.5809V40.0368V40.7206L30.6788 40.3787L30.5629 39.6949L30.7947 39.3529L30.3311 38.6691L30.0993 36.5037V34.6801L33.5762 32.8566L34.2715 36.1618L34.5033 40.2647L33.9238 41.6324L32.9967 42.6581L34.851 43L35.0828 42.5441L35.4305 42.3162L35.3146 39.9228L35.5464 36.2757L36.0099 34.2243L36.2417 32.4007L38.4437 33.0846L42.2682 32.8566L45.5132 31.8309L46.904 31.1471L48.0629 31.0331V31.1471L48.8742 34.1103L49.2219 36.6176L48.9901 37.3015L46.7881 40.4926L45.6291 41.2904V42.2022H47.3675L49.2219 38.8971L51.1921 36.6176L51.3079 36.1618L50.8444 32.8566L50.9603 32.2868L53.1622 34.2243L55.1324 35.9338L56.0596 36.9596L57.3344 40.1507L56.6391 41.6324L55.9437 42.2022L57.2185 42.6581L57.9139 42.4301L58.6093 40.7206L58.3775 39.239L56.8709 35.5919L56.755 34.6801L54.553 31.0331V27.7279L54.2053 25.3346L53.6258 24.7647L54.7848 24.9926L56.6391 26.4743V29.0956L55.9437 30.4632L56.6391 30.2353L57.4503 28.6397L57.1026 30.5772L56.1755 31.9449L57.9139 31.6029L59.0728 29.4375L59.3046 30.9191L60 27.5L59.3046 24.9926L55.8278 22.9412L53.0464 23.8529L52.5828 23.2831L50.7285 22.5993L47.947 22.7132L45.0497 23.625L42.5 19.636V16.3309L41.2252 14.9632L41.1093 14.1654H41.5728V13.7096L41.1093 13.4816V12.2279L39.3709 12L38.4437 12.114L38.3278 13.1397L37.8642 13.4816L37.9801 13.8235L38.3278 13.7096L38.4437 14.2794L39.0232 15.1912L39.7185 15.0772L39.0232 15.875L38.6755 18.7243L37.4007 21.2316L37.5166 21.8015L36.8212 22.2574L35.6623 21.1176L33.6921 19.636L31.1424 18.4963H29.1722L27.202 19.1801L26.3907 18.4963L26.2748 19.5221L25 18.6103L25.2318 19.864Z" fill="white"/>
<path d="M48 70.6389L47.7124 71.1574H47.281L46.9216 71.3519L46.4902 70.963L46.2745 70.6389L44.7647 69.8611H44.1176L43.6863 69.7315L43.4706 70.1852L43.0392 71.2222L42.8954 72H37L38.0784 70.8981L37.7908 70.963L38.366 70.5741L38.5098 70.4444L38.2222 70.1852L37.2876 70.3796L38.5817 69.537L38.8693 69.4074L38.6536 69.0833L38.0065 69.4074L38.7974 68.2407L39.6601 68.1111L40.0915 67.9167L39.1569 67.8519L40.1634 67.0093L40.9542 66.8796L41.3856 66.6852H40.5229L41.3137 66.1667L42.1765 66.2963V65.9722L43.1111 65.8426L44.2614 65.7778V65.5833L45.1961 65L45.3399 65.0648L45.1242 65.4537L45.6275 65.1944L45.7712 65.2593L45.1961 66.3611H45.268L46.8497 68.1111L47.9281 69.7315L48 70.6389Z" fill="white"/>
<path d="M8.28336 60.1387V52.7422H0L3.95053 58.2805L0 64.3471H12.6708L8.28336 60.1387Z" fill="#AD0000"/>
<path d="M75 47H10V59H75V47Z" fill="#D50A0A"/>
<path d="M13.927 60.1387H9.92188L13.927 64.1284V60.1387Z" fill="#00204F"/>
<path d="M76.7156 60.1387V52.7422H84.9989L81.0484 58.2805L84.9989 64.3471H72.3281L76.7156 60.1387Z" fill="#AD0000"/>
<path d="M71.0918 60.1388H75.0787L71.0918 64.1286V60.1388Z" fill="#00204F"/>
<path d="M18.1822 55.9355H16.797V53.4533H14.3852V55.9355H13V50.0645H14.3852V52.5185H16.797V50.0645H18.1822V55.9355Z" fill="white"/>
<path d="M25.0173 52.998C25.0173 53.4224 24.9426 53.8173 24.7932 54.1827C24.6466 54.548 24.4388 54.8664 24.1699 55.1377C23.901 55.4063 23.5764 55.6172 23.1962 55.7703C22.8187 55.9234 22.399 56 21.9373 56C21.4756 56 21.0546 55.9234 20.6744 55.7703C20.2941 55.6172 19.9682 55.4063 19.6966 55.1377C19.4277 54.8664 19.2186 54.548 19.0692 54.1827C18.9225 53.8173 18.8492 53.4224 18.8492 52.998C18.8492 52.5735 18.9225 52.1786 19.0692 51.8133C19.2186 51.448 19.4277 51.131 19.6966 50.8623C19.9682 50.5937 20.2941 50.3828 20.6744 50.2297C21.0546 50.0766 21.4756 50 21.9373 50C22.399 50 22.8187 50.0779 23.1962 50.2337C23.5764 50.3868 23.901 50.5977 24.1699 50.8664C24.4388 51.135 24.6466 51.452 24.7932 51.8173C24.9426 52.1827 25.0173 52.5762 25.0173 52.998ZM23.6077 52.998C23.6077 52.7079 23.5697 52.4473 23.4936 52.2163C23.4176 51.9825 23.3076 51.7851 23.1636 51.6239C23.0224 51.4627 22.8485 51.3392 22.6421 51.2532C22.4357 51.1672 22.2008 51.1242 21.9373 51.1242C21.6711 51.1242 21.4335 51.1672 21.2244 51.2532C21.0179 51.3392 20.8428 51.4627 20.6988 51.6239C20.5576 51.7851 20.4489 51.9825 20.3729 52.2163C20.2968 52.4473 20.2588 52.7079 20.2588 52.998C20.2588 53.2908 20.2968 53.5541 20.3729 53.7878C20.4489 54.0188 20.5576 54.2149 20.6988 54.3761C20.8428 54.5373 21.0179 54.6608 21.2244 54.7468C21.4335 54.8301 21.6711 54.8717 21.9373 54.8717C22.2008 54.8717 22.4357 54.8301 22.6421 54.7468C22.8485 54.6608 23.0224 54.5373 23.1636 54.3761C23.3076 54.2149 23.4176 54.0188 23.4936 53.7878C23.5697 53.5541 23.6077 53.2908 23.6077 52.998Z" fill="white"/>
<path d="M27.0527 53.7636V55.9355H25.6757V50.0645H27.6068C28.0359 50.0645 28.4012 50.1088 28.7027 50.1974C29.0069 50.2834 29.2541 50.4043 29.4442 50.5601C29.637 50.7159 29.7769 50.8999 29.8638 51.1122C29.9507 51.3244 29.9942 51.5554 29.9942 51.8052C29.9942 51.996 29.9684 52.176 29.9168 52.3452C29.8652 52.5144 29.7878 52.6716 29.6846 52.8167C29.5841 52.959 29.4591 53.0866 29.3098 53.1995C29.1631 53.3123 28.9933 53.405 28.8005 53.4775C28.8928 53.5232 28.9784 53.5796 29.0572 53.6467C29.1386 53.7139 29.2093 53.7958 29.269 53.8925L30.532 55.9355H29.2853C29.0545 55.9355 28.8888 55.8496 28.7883 55.6776L27.8024 53.9731C27.7589 53.8979 27.7073 53.8442 27.6475 53.812C27.5905 53.7797 27.509 53.7636 27.4031 53.7636H27.0527ZM27.0527 52.8247H27.6068C27.7942 52.8247 27.9531 52.8019 28.0835 52.7562C28.2166 52.7079 28.3252 52.642 28.4094 52.5588C28.4936 52.4755 28.5547 52.3788 28.5927 52.2686C28.6307 52.1558 28.6498 52.0349 28.6498 51.906C28.6498 51.6481 28.5642 51.4466 28.3931 51.3015C28.2247 51.1565 27.9626 51.0839 27.6068 51.0839H27.0527V52.8247Z" fill="white"/>
<path d="M34.4026 51.2572C34.3619 51.3217 34.3184 51.37 34.2723 51.4023C34.2288 51.4345 34.1718 51.4506 34.1012 51.4506C34.0387 51.4506 33.9708 51.4318 33.8975 51.3942C33.8268 51.3539 33.7454 51.3096 33.653 51.2612C33.5634 51.2129 33.4602 51.1699 33.3434 51.1323C33.2266 51.092 33.0935 51.0719 32.9441 51.0719C32.6861 51.0719 32.4933 51.1269 32.3656 51.2371C32.2407 51.3445 32.1782 51.4909 32.1782 51.6763C32.1782 51.7945 32.2162 51.8925 32.2923 51.9705C32.3683 52.0484 32.4675 52.1155 32.5897 52.1719C32.7146 52.2283 32.8559 52.2807 33.0134 52.3291C33.1736 52.3747 33.3366 52.4271 33.5023 52.4862C33.668 52.5426 33.8296 52.6098 33.9871 52.6877C34.1473 52.7656 34.2886 52.865 34.4108 52.9859C34.5357 53.1068 34.6362 53.2545 34.7123 53.4291C34.7883 53.6011 34.8263 53.8093 34.8263 54.0537C34.8263 54.3251 34.7788 54.5789 34.6837 54.8153C34.5887 55.0517 34.4502 55.2586 34.2682 55.4359C34.0889 55.6105 33.8662 55.7488 33.6001 55.8509C33.3366 55.9503 33.0365 56 32.6997 56C32.515 56 32.3262 55.9812 32.1334 55.9436C31.9433 55.906 31.7586 55.8536 31.5793 55.7864C31.4001 55.7166 31.2317 55.6347 31.0741 55.5406C30.9166 55.4466 30.7794 55.3418 30.6627 55.2263L31.0701 54.5897C31.0999 54.5413 31.142 54.5024 31.1964 54.4728C31.2507 54.4433 31.3091 54.4285 31.3715 54.4285C31.453 54.4285 31.5345 54.454 31.616 54.505C31.7002 54.5561 31.7939 54.6125 31.8971 54.6743C32.003 54.7361 32.1239 54.7925 32.2597 54.8435C32.3955 54.8946 32.5557 54.9201 32.7404 54.9201C32.9903 54.9201 33.1845 54.8664 33.323 54.7589C33.4615 54.6488 33.5308 54.4755 33.5308 54.2391C33.5308 54.1021 33.4928 53.9906 33.4167 53.9046C33.3407 53.8187 33.2402 53.7475 33.1152 53.6911C32.993 53.6347 32.8531 53.585 32.6956 53.542C32.5381 53.499 32.3765 53.452 32.2108 53.4009C32.0451 53.3472 31.8835 53.2827 31.726 53.2075C31.5685 53.1296 31.4272 53.0289 31.3023 52.9053C31.1801 52.779 31.0809 52.6232 31.0049 52.4379C30.9288 52.2498 30.8908 52.0188 30.8908 51.7448C30.8908 51.5245 30.9356 51.3096 31.0253 51.1001C31.1149 50.8905 31.2466 50.7038 31.4204 50.54C31.5943 50.3761 31.8075 50.2458 32.0601 50.1491C32.3126 50.0497 32.6019 50 32.9278 50C33.1098 50 33.2863 50.0148 33.4575 50.0443C33.6313 50.0712 33.7956 50.1128 33.9504 50.1692C34.1052 50.223 34.2492 50.2888 34.3823 50.3667C34.5181 50.4419 34.6389 50.5279 34.7449 50.6246L34.4026 51.2572Z" fill="white"/>
<path d="M39.3322 50.0645V51.1122H36.8959V52.4822H38.7618V53.4896H36.8959V54.8878H39.3322V55.9355H35.5107V50.0645H39.3322Z" fill="white"/>
<path d="M43.0704 53.7636V55.9355H41.6934V50.0645H43.6245C44.0536 50.0645 44.4189 50.1088 44.7204 50.1974C45.0246 50.2834 45.2718 50.4043 45.4619 50.5601C45.6547 50.7159 45.7946 50.8999 45.8815 51.1122C45.9684 51.3244 46.0119 51.5554 46.0119 51.8052C46.0119 51.996 45.9861 52.176 45.9345 52.3452C45.8829 52.5144 45.8055 52.6716 45.7023 52.8167C45.6018 52.959 45.4768 53.0866 45.3275 53.1995C45.1808 53.3123 45.011 53.405 44.8182 53.4775C44.9105 53.5232 44.9961 53.5796 45.0749 53.6467C45.1563 53.7139 45.227 53.7958 45.2867 53.8925L46.5497 55.9355H45.303C45.0722 55.9355 44.9065 55.8496 44.806 55.6776L43.8201 53.9731C43.7766 53.8979 43.725 53.8442 43.6652 53.812C43.6082 53.7797 43.5267 53.7636 43.4208 53.7636H43.0704ZM43.0704 52.8247H43.6245C43.8119 52.8247 43.9708 52.8019 44.1012 52.7562C44.2343 52.7079 44.3429 52.642 44.4271 52.5588C44.5113 52.4755 44.5724 52.3788 44.6104 52.2686C44.6484 52.1558 44.6675 52.0349 44.6675 51.906C44.6675 51.6481 44.5819 51.4466 44.4108 51.3015C44.2424 51.1565 43.9803 51.0839 43.6245 51.0839H43.0704V52.8247Z" fill="white"/>
<path d="M52.6366 55.9355H51.5692C51.4497 55.9355 51.3506 55.9087 51.2718 55.8549C51.1958 55.7985 51.1428 55.7273 51.1129 55.6414L50.7626 54.6179H48.5055L48.1552 55.6414C48.128 55.7166 48.075 55.7851 47.9963 55.8469C47.9175 55.906 47.8211 55.9355 47.707 55.9355H46.6315L48.9292 50.0645H50.3389L52.6366 55.9355ZM48.8233 53.6911H50.4448L49.8989 52.0833C49.8635 51.9812 49.8214 51.8617 49.7726 51.7246C49.7264 51.585 49.6802 51.4345 49.634 51.2733C49.5906 51.4372 49.5458 51.589 49.4996 51.7287C49.4534 51.8684 49.41 51.9893 49.3692 52.0913L48.8233 53.6911Z" fill="white"/>
<path d="M56.8617 54.4164C56.8943 54.4164 56.9268 54.4231 56.9594 54.4365C56.992 54.4473 57.0233 54.4674 57.0531 54.497L57.5991 55.0651C57.3601 55.3741 57.0599 55.6078 56.6987 55.7663C56.3402 55.9221 55.9151 56 55.4235 56C54.9727 56 54.568 55.9248 54.2095 55.7743C53.8537 55.6212 53.5508 55.4117 53.3009 55.1457C53.0538 54.8771 52.8637 54.5601 52.7306 54.1948C52.5975 53.8267 52.5309 53.4278 52.5309 52.998C52.5309 52.5601 52.607 52.1585 52.7591 51.7931C52.9112 51.4251 53.123 51.1081 53.3946 50.8422C53.669 50.5762 53.9962 50.3694 54.3765 50.2216C54.7567 50.0739 55.1764 50 55.6354 50C55.8581 50 56.0672 50.0201 56.2628 50.0604C56.461 50.0981 56.6457 50.1518 56.8168 50.2216C56.988 50.2888 57.1455 50.3707 57.2894 50.4674C57.4334 50.5615 57.561 50.6662 57.6724 50.7817L57.208 51.3983C57.1781 51.4359 57.1428 51.4708 57.102 51.503C57.0613 51.5326 57.0043 51.5473 56.9309 51.5473C56.882 51.5473 56.8359 51.5366 56.7924 51.5151C56.7489 51.4936 56.7028 51.4681 56.6539 51.4385C56.605 51.4063 56.5507 51.3727 56.4909 51.3378C56.4339 51.3002 56.3646 51.2666 56.2831 51.2371C56.2044 51.2048 56.1107 51.178 56.002 51.1565C55.8961 51.135 55.7712 51.1242 55.6272 51.1242C55.3774 51.1242 55.1492 51.1686 54.9428 51.2572C54.7364 51.3432 54.5585 51.4681 54.4091 51.632C54.2624 51.7931 54.147 51.9893 54.0628 52.2203C53.9813 52.4513 53.9406 52.7105 53.9406 52.998C53.9406 53.2989 53.9813 53.5662 54.0628 53.7999C54.147 54.0336 54.2597 54.231 54.4009 54.3922C54.5449 54.5507 54.7119 54.6716 54.902 54.7549C55.0922 54.8381 55.2959 54.8798 55.5132 54.8798C55.6381 54.8798 55.7522 54.8744 55.8554 54.8637C55.9586 54.8502 56.0536 54.8287 56.1406 54.7992C56.2302 54.7696 56.3144 54.732 56.3931 54.6864C56.4746 54.638 56.5561 54.5789 56.6376 54.5091C56.6702 54.4822 56.7055 54.4607 56.7435 54.4446C56.7815 54.4258 56.8209 54.4164 56.8617 54.4164Z" fill="white"/>
<path d="M59.7357 55.9355H58.3505V50.0645H59.7357V55.9355Z" fill="white"/>
<path d="M61.5634 50.0645C61.6232 50.0645 61.6734 50.0672 61.7142 50.0725C61.7549 50.0779 61.7916 50.0887 61.8242 50.1048C61.8568 50.1182 61.888 50.1383 61.9179 50.1652C61.9478 50.1921 61.9817 50.2283 62.0197 50.274L64.839 53.7999C64.8281 53.687 64.82 53.5782 64.8145 53.4735C64.8091 53.366 64.8064 53.2653 64.8064 53.1713V50.0645H66.0204V55.9355H65.3034C65.1975 55.9355 65.1079 55.9194 65.0345 55.8872C64.9612 55.8549 64.8906 55.7958 64.8227 55.7099L62.0238 52.2122C62.032 52.3143 62.0387 52.415 62.0442 52.5144C62.0496 52.6111 62.0523 52.7025 62.0523 52.7884V55.9355H60.8383V50.0645H61.5634Z" fill="white"/>
<path d="M69.7919 54.9523C69.982 54.9523 70.1504 54.9362 70.2971 54.904C70.4437 54.8717 70.5822 54.8287 70.7126 54.775V53.8845H70.1259C70.039 53.8845 69.9711 53.8617 69.9222 53.816C69.8734 53.7703 69.8489 53.7126 69.8489 53.6427V52.8932H71.9593V55.3714C71.8072 55.4815 71.6483 55.5769 71.4826 55.6575C71.3196 55.7354 71.1445 55.7999 70.957 55.8509C70.7724 55.9019 70.5741 55.9396 70.3622 55.9637C70.1531 55.9879 69.9277 56 69.6859 56C69.2514 56 68.8494 55.9248 68.48 55.7743C68.1106 55.6212 67.7902 55.4117 67.5185 55.1457C67.2497 54.8771 67.0378 54.5601 66.883 54.1948C66.7309 53.8267 66.6549 53.4278 66.6549 52.998C66.6549 52.5601 66.7282 52.1585 66.8748 51.7931C67.0215 51.4251 67.2307 51.1081 67.5023 50.8422C67.7766 50.5762 68.1066 50.3694 68.4922 50.2216C68.8806 50.0739 69.3138 50 69.7919 50C70.039 50 70.2712 50.0201 70.4885 50.0604C70.7058 50.1007 70.9054 50.1558 71.0874 50.2257C71.2721 50.2955 71.4405 50.3788 71.5926 50.4755C71.7447 50.5722 71.8805 50.677 72 50.7898L71.6007 51.3902C71.5627 51.4466 71.5165 51.4909 71.4622 51.5232C71.4106 51.5554 71.3536 51.5715 71.2911 51.5715C71.2096 51.5715 71.1254 51.5447 71.0385 51.4909C70.9299 51.4265 70.8267 51.3714 70.7289 51.3257C70.6338 51.2774 70.5361 51.2384 70.4356 51.2089C70.3351 51.1793 70.2291 51.1578 70.1178 51.1444C70.0064 51.131 69.8815 51.1242 69.743 51.1242C69.485 51.1242 69.2527 51.1699 69.0463 51.2612C68.8399 51.3499 68.6634 51.4762 68.5167 51.64C68.3727 51.8039 68.2614 52.0013 68.1826 52.2324C68.1039 52.4607 68.0645 52.7159 68.0645 52.998C68.0645 53.3096 68.1079 53.5863 68.1948 53.8281C68.2818 54.0698 68.4013 54.274 68.5534 54.4406C68.7082 54.6071 68.8901 54.7347 69.0993 54.8234C69.3111 54.9093 69.542 54.9523 69.7919 54.9523Z" fill="white"/>
</svg>
