<svg width="85" height="85" viewBox="0 0 85 85" fill="none" xmlns="http://www.w3.org/2000/svg">
<path d="M9.00003 51.4545C9.00003 43.7272 12.6364 40.8181 13.3637 33.4545C12.3637 39.909 8.09094 45.0908 8.09094 51.4545C8.09094 53.909 8.45458 56.0908 9.00003 58.0908C11.6364 66.9999 19.6364 71.909 27.2728 73.909C15.5455 70.909 9.00003 60.909 9.00003 51.4545ZM76.7273 51.4545C76.7273 47.4545 75.6364 44.2727 74.4546 41.3636C73 37.909 71.4546 34.7272 71.4546 30.8181C71.4546 40.1818 75.9091 42.909 75.9091 51.4545C75.9091 60.909 69.4546 70.909 57.6364 73.909C68.2728 71.1818 76.7273 63.3636 76.7273 51.4545Z" fill="white"/>
<path d="M72.8182 13.9999C70.3637 13.2727 68.6364 11.4545 67.5455 8.54539L65.1819 1.81812L64.0001 6.09084C66.3637 16.5454 74.9091 17.2727 74.9091 17.2727L78.3637 15.6363L72.8182 13.9999ZM32.2728 52.0908L27.8182 45.1818L22.8182 48.909C22.8182 48.909 24.5455 48.9999 24.5455 50.8181V63.8181L28.091 61.1818V51.9999L32.091 58.1818L35.8182 55.3636V39.1818L32.2728 41.8181V52.0908ZM46.6364 36.9999L42.6364 39.9999V33.9999L37.2728 37.9999C37.2728 37.9999 39.0001 38.0908 39.0001 39.909V52.909L42.6364 50.1818V44.2727L46.6364 41.2727V47.2727L50.091 44.7272V28.4545L46.6364 31.0908V36.9999ZM56.6364 35.5454V23.4545L51.2728 27.4545C51.2728 27.4545 53.0001 27.5454 53.0001 29.3636V42.3636L63.0001 34.8181C62.8182 32.2727 63.0001 30.7272 63.0001 30.7272L56.6364 35.5454Z" fill="#E4E5E6"/>
<path d="M11 30.8183C11 40.0001 6.45459 41.8183 6.45459 51.4547C6.45459 54.3637 6.90914 57.1819 7.81823 59.6365C8.09095 59.091 8.5455 58.4547 9.00004 58.091C8.36368 56.091 8.09095 53.9092 8.09095 51.4547C8.09095 45.1819 12.3637 39.9092 13.3637 33.4547C13.4546 32.6365 13.4546 31.7274 13.4546 30.8183C13.5455 23.4547 10 17.2728 10 17.2728L6.5455 15.6365L8.90914 21.0001C10.091 23.7274 11 27.091 11 30.8183Z" fill="url(#paint0_linear)"/>
<path d="M71.4546 30.8183C71.4546 34.7274 73 37.8183 74.4546 41.3638L76.3637 41.2728C75.1819 38.3638 74 35.5456 74 30.8183C74 27.091 74.9091 23.7274 76.0909 21.0001L78.4546 15.6365L74.9091 17.2728C74.9091 17.2728 71.4546 23.4547 71.4546 30.8183Z" fill="url(#paint1_linear)"/>
<path d="M39.7272 76.7272C36.9091 75.7272 33 75.3635 27.3636 73.909C19.6363 71.9999 11.7272 66.9999 9.09088 58.0908C8.63633 58.5454 8.18178 59.0908 7.90906 59.6363C10.9091 68.1817 18.5454 74.1817 26.7272 76.3635C32 77.7272 34.4545 77.8181 38.3636 78.909C38.9091 79.4545 42.4545 83.3635 42.4545 83.3635V79.6363C42.4545 79.6363 40.0909 76.9999 39.7272 76.7272Z" fill="url(#paint2_linear)"/>
<path d="M28 71.3636C34.2727 72.9091 38.3636 73.0909 41.0909 74.4545C41.0909 74.4545 42.0909 75.3636 42.4545 75.8182C42.8181 75.3636 43.8181 74.4545 43.8181 74.4545C46.5454 73.0909 50.6363 72.9091 56.909 71.3636C64.8181 69.3636 73.3636 62.3636 73.3636 51.4545C73.3636 43.6363 68.909 40.7272 68.909 30.8182C68.909 24.0909 71.4545 18.9091 71.4545 18.9091C71.4545 18.9091 65.6363 17.7273 62.909 10.3636C62.909 10.3636 59 14 53.6363 14C46.909 14 42.4545 9.27271 42.4545 9.27271C42.4545 9.27271 38 14 31.2727 14C25.909 14 22 10.3636 22 10.3636C19.2727 17.7273 13.4545 18.9091 13.4545 18.9091C13.4545 18.9091 16 24.0909 16 30.8182C16 40.7272 11.5454 43.6363 11.5454 51.4545C11.5454 62.4545 20.0909 69.3636 28 71.3636ZM70.5454 51.4545C70.5454 60.7272 63.1818 66.8182 56.2727 68.6363C51.2727 69.9091 45.2727 70.5454 43.3636 71.6363C42.909 71.9091 42.4545 72.4545 42.4545 72.4545C42.4545 72.4545 41.909 71.9091 41.5454 71.6363C39.7272 70.6363 33.6363 69.9091 28.6363 68.6363C28.4545 68.5454 28.2727 68.5454 28.0909 68.4545L67.1818 39.0909C68.5454 43.8182 70.5454 46.8182 70.5454 51.4545ZM67.7272 20.5454C66.909 22.9091 66 26.6363 66 30.8182C66 32.5454 66.0909 34.1818 66.3636 35.5454L24.4545 67C19.1818 64.2727 14.6363 59.0909 14.3636 52L62.5454 15.8182C64.2727 18.1818 66.1818 19.6363 67.7272 20.5454ZM18.909 30.8182C18.909 26.5454 18 22.9091 17.1818 20.5454C19 19.5454 21.3636 17.7273 23.1818 14.6363C25.1818 15.7273 28 16.9091 31.2727 16.9091C36.2727 16.9091 40.1818 14.7273 42.4545 13.0909C44.7272 14.7273 48.6363 16.9091 53.6363 16.9091C54.4545 16.9091 55.1818 16.8182 55.909 16.7273L14.909 47.4545C16.0909 42.8182 18.909 39 18.909 30.8182Z" fill="url(#paint3_linear)"/>
<path d="M31.2728 11.4545C38.0001 11.4545 42.4546 5.72721 42.4546 5.72721V2.09084L38.9091 5.54539C37.091 7.36357 34.1819 8.81812 31.2728 8.81812C29.091 8.81812 27.0001 7.81812 25.2728 6.36357L19.8182 1.81812L21.0001 6.09084C20.9091 6.09084 26.091 11.4545 31.2728 11.4545Z" fill="url(#paint4_linear)"/>
<path d="M76.7273 51.4545C76.7273 63.3636 68.2728 71.1818 57.5455 73.9091C51.9091 75.3636 48 75.7272 45.1819 76.7272C44.8182 77.0909 42.4546 79.6363 42.4546 79.6363V83.3636C42.4546 83.3636 46.091 79.4545 46.5455 78.9091C50.4546 77.8182 52.9091 77.7272 58.1819 76.3636C68.8182 73.6363 78.4546 64.3636 78.4546 51.4545C78.4546 46.8182 77.4546 44 76.3637 41.2727L74.4546 41.3636C75.6364 44.2727 76.7273 47.4545 76.7273 51.4545Z" fill="url(#paint5_linear)"/>
<path d="M53.6363 11.4545C58.8182 11.4545 64 6.18175 64 6.18175L65.1818 1.81812L59.7273 6.36357C57.9091 7.81812 55.9091 8.81812 53.7273 8.81812C50.8182 8.81812 47.9091 7.36357 46.0909 5.54539L42.5454 2.09084V5.6363C42.4545 5.72721 46.9091 11.4545 53.6363 11.4545Z" fill="url(#paint6_linear)"/>
<path d="M20.909 6.09084L19.8181 1.81812L17.3636 8.54539C16.2727 11.4545 14.5454 13.2727 12.0909 13.9999L6.54541 15.6363L9.99996 17.2727C9.99996 17.2727 18.6363 16.5454 20.909 6.09084Z" fill="url(#paint7_linear)"/>
<path d="M14.9091 47.4545L55.9091 16.6364C55.1818 16.7273 54.3636 16.8182 53.6364 16.8182C48.6364 16.8182 44.7273 14.6364 42.4545 13C40.1818 14.6364 36.2727 16.8182 31.2727 16.8182C28 16.8182 25.1818 15.7273 23.1818 14.5455C21.3636 17.6364 19 19.4545 17.1818 20.4545C18 22.8182 18.9091 26.5455 18.9091 30.7273C18.9091 39 16.0909 42.8182 14.9091 47.4545ZM28.0909 68.4546C28.2727 68.5455 28.4545 68.5455 28.6364 68.6364C33.6364 69.9091 39.6364 70.5455 41.5455 71.6364C42 71.9091 42.4545 72.4545 42.4545 72.4545C42.4545 72.4545 43 71.9091 43.3636 71.6364C45.1818 70.6364 51.2727 69.9091 56.2727 68.6364C63.1818 66.9091 70.5455 60.8182 70.5455 51.4545C70.5455 46.8182 68.5455 43.8182 67.1818 39.0909L28.0909 68.4546ZM9.90909 30.8182C9.90909 39.6364 5.36364 41.6364 5.36364 51.4545C5.36364 65.5455 16.2727 74.8182 26.4545 77.4545C31.5455 78.7273 33.0909 78.8182 37.7273 79.9091C38.0909 80.2727 42.4545 85 42.4545 85C42.4545 85 46.8182 80.3636 47.1818 79.9091C51.8182 78.7273 53.3636 78.7273 58.4545 77.4545C68.6364 74.8182 79.5455 65.5455 79.5455 51.4545C79.5455 41.6364 75 39.6364 75 30.8182C75 27.6364 75.6364 24.4545 77 21.4545L79.9091 14.9091L73.1818 13C71.0909 12.3636 69.6364 10.8182 68.6364 8.27273L65.6364 0.0909091L58.9091 5.63636C57.1818 7.09091 55.3636 7.81818 53.5455 7.81818C51.1818 7.81818 48.4545 6.63636 46.7273 4.90909L42.4545 0.636364L38.1818 4.90909C36.3636 6.72727 33.7273 7.81818 31.3636 7.81818C29.6364 7.81818 27.8182 7.09091 26 5.63636L19.2727 0L16.2727 8.18182C15.3636 10.7273 13.8182 12.3636 11.7273 12.9091L5 15L7.90909 21.5455C9.18182 24.4545 9.90909 27.6364 9.90909 30.8182ZM12.0909 14C14.5455 13.2727 16.2727 11.4545 17.3636 8.54545L19.8182 1.81818L25.2727 6.36364C27.0909 7.81818 29.0909 8.81818 31.2727 8.81818C34.1818 8.81818 37.0909 7.36364 38.9091 5.54545L42.4545 2.09091L46 5.54545C47.8182 7.36364 50.7273 8.81818 53.6364 8.81818C55.8182 8.81818 57.9091 7.81818 59.6364 6.36364L65.0909 1.81818L67.5455 8.54545C68.6364 11.4545 70.3636 13.2727 72.8182 14L78.3636 15.6364L76 21C74.8182 23.7273 73.9091 27 73.9091 30.8182C73.9091 35.5455 75.0909 38.3636 76.2727 41.2727C77.3636 44 78.3636 46.8182 78.3636 51.4545C78.4545 64.3636 68.8182 73.6364 58.1818 76.3636C52.9091 77.7273 50.4545 77.8182 46.5455 78.9091C46 79.4546 42.4545 83.3636 42.4545 83.3636C42.4545 83.3636 38.8182 79.4546 38.3636 78.9091C34.4545 77.8182 32 77.7273 26.7273 76.3636C18.5455 74.2727 10.9091 68.2727 7.90909 59.6364C7 57.0909 6.54545 54.3636 6.54545 51.4545C6.45455 41.8182 11 40 11 30.8182C11 27.0909 10.0909 23.7273 8.90909 21L6.54545 15.6364L12.0909 14ZM24.4545 67L66.3636 35.5455C66.1818 34.0909 66 32.5455 66 30.8182C66 26.5455 66.9091 22.9091 67.7273 20.5455C66.1818 19.6364 64.1818 18.2727 62.5455 15.9091L14.3636 52.0909C14.6364 59.1818 19.2727 64.3636 24.4545 67ZM56.6364 23.4545V35.4545L63 30.6364C63 30.6364 62.8182 32.1818 63 34.7273L53 42.2727V29.4545C53 27.6364 51.2727 27.5455 51.2727 27.5455L56.6364 23.4545ZM42.6364 34V40L46.6364 37V31L50.0909 28.3636V44.5455L46.6364 47.2727V41.3636L42.6364 44.3636V50.2727L39 53V40C39 38.1818 37.2727 38.0909 37.2727 38.0909L42.6364 34ZM27.8182 45.1818L32.2727 52.0909V41.8182L35.8182 39.1818V55.3636L32.0909 58.1818L28.0909 52V61.1818L24.5455 63.8182V50.8182C24.5455 49 22.8182 48.9091 22.8182 48.9091L27.8182 45.1818ZM13.3636 33.4545C12.6364 40.8182 9 43.7273 9 51.4545C9 60.9091 15.5455 70.9091 27.3636 73.9091C33 75.3636 36.9091 75.7273 39.7273 76.7273C40.0909 77.0909 42.4545 79.6364 42.4545 79.6364C42.4545 79.6364 44.8182 77.0909 45.1818 76.7273C48 75.7273 51.9091 75.3636 57.5455 73.9091C69.4545 70.9091 75.9091 60.9091 75.9091 51.4545C75.9091 42.8182 71.4545 40.1818 71.4545 30.8182C71.4545 23.4545 74.9091 17.2727 74.9091 17.2727C74.9091 17.2727 66.2727 16.5455 64 6.09091C64 6.09091 58.8182 11.3636 53.6364 11.3636C46.9091 11.3636 42.4545 5.63636 42.4545 5.63636C42.4545 5.63636 38 11.3636 31.2727 11.3636C26.0909 11.3636 20.9091 6.09091 20.9091 6.09091C18.6364 16.5455 10 17.2727 10 17.2727C10 17.2727 13.4545 23.4545 13.4545 30.8182C13.5455 31.8182 13.4545 32.6364 13.3636 33.4545ZM13.5455 18.9091C13.5455 18.9091 19.3636 17.7273 22.0909 10.3636C22.0909 10.3636 26 14 31.3636 14C38.0909 14 42.5455 9.27273 42.5455 9.27273C42.5455 9.27273 47 14 53.7273 14C59.0909 14 63 10.3636 63 10.3636C65.7273 17.7273 71.5455 18.9091 71.5455 18.9091C71.5455 18.9091 69 24.0909 69 30.8182C69 40.7273 73.4546 43.6364 73.4546 51.4545C73.4546 62.3636 64.9091 69.3636 57 71.3636C50.7273 72.9091 46.6364 73.0909 43.9091 74.4546C43.9091 74.4546 42.9091 75.3636 42.5455 75.8182C42.1818 75.3636 41.1818 74.4546 41.1818 74.4546C38.4545 73.0909 34.3636 72.9091 28.0909 71.3636C20.1818 69.3636 11.6364 62.3636 11.6364 51.4545C11.6364 43.6364 16.0909 40.7273 16.0909 30.8182C16 24.0909 13.5455 18.9091 13.5455 18.9091Z" fill="#111111"/>
<defs>
<linearGradient id="paint0_linear" x1="5.80245" y1="37.6728" x2="14.814" y2="37.6728" gradientUnits="userSpaceOnUse">
<stop offset="0.11" stop-color="white"/>
<stop offset="0.24" stop-color="#DCDFE1"/>
<stop offset="0.44" stop-color="#A8AFB3"/>
<stop offset="0.54" stop-color="#949CA1"/>
</linearGradient>
<linearGradient id="paint1_linear" x1="74.9273" y1="41.3456" x2="74.9273" y2="15.6637" gradientUnits="userSpaceOnUse">
<stop stop-color="white"/>
<stop offset="0.35" stop-color="white"/>
<stop offset="0.56" stop-color="#949CA1"/>
<stop offset="1" stop-color="#949CA1"/>
</linearGradient>
<linearGradient id="paint2_linear" x1="7.88178" y1="70.7454" x2="42.4727" y2="70.7454" gradientUnits="userSpaceOnUse">
<stop offset="0.15" stop-color="white"/>
<stop offset="0.21" stop-color="#FAFAFA"/>
<stop offset="0.29" stop-color="#EBECED"/>
<stop offset="0.37" stop-color="#D2D5D7"/>
<stop offset="0.45" stop-color="#AFB5B9"/>
<stop offset="0.51" stop-color="#949CA1"/>
</linearGradient>
<linearGradient id="paint3_linear" x1="63" y1="68.9909" x2="21.9818" y2="10.4272" gradientUnits="userSpaceOnUse">
<stop stop-color="#949CA1"/>
<stop offset="0.01" stop-color="#99A1A6"/>
<stop offset="0.12" stop-color="#C2C6C8"/>
<stop offset="0.2" stop-color="#DBDDDE"/>
<stop offset="0.25" stop-color="#E4E5E6"/>
<stop offset="0.75" stop-color="#E4E5E6"/>
<stop offset="0.8" stop-color="#DCDEDF"/>
<stop offset="0.87" stop-color="#C7CACD"/>
<stop offset="0.97" stop-color="#A3AAAE"/>
<stop offset="1" stop-color="#949CA1"/>
</linearGradient>
<linearGradient id="paint4_linear" x1="19.791" y1="6.6363" x2="42.4728" y2="6.6363" gradientUnits="userSpaceOnUse">
<stop offset="0.25" stop-color="white"/>
<stop offset="0.34" stop-color="#FAFAFA"/>
<stop offset="0.45" stop-color="#EBECED"/>
<stop offset="0.57" stop-color="#D2D5D7"/>
<stop offset="0.7" stop-color="#AFB5B9"/>
<stop offset="0.79" stop-color="#949CA1"/>
</linearGradient>
<linearGradient id="paint5_linear" x1="42.4728" y1="62.3272" x2="78.4546" y2="62.3272" gradientUnits="userSpaceOnUse">
<stop offset="0.2" stop-color="white"/>
<stop offset="0.33" stop-color="#FAFBFB"/>
<stop offset="0.47" stop-color="#EDEEEF"/>
<stop offset="0.63" stop-color="#D7DADC"/>
<stop offset="0.79" stop-color="#B8BDC1"/>
<stop offset="0.93" stop-color="#949CA1"/>
</linearGradient>
<linearGradient id="paint6_linear" x1="42.4727" y1="6.6363" x2="65.1545" y2="6.6363" gradientUnits="userSpaceOnUse">
<stop offset="0.25" stop-color="white"/>
<stop offset="0.34" stop-color="#FAFAFA"/>
<stop offset="0.45" stop-color="#EBECED"/>
<stop offset="0.57" stop-color="#D2D5D7"/>
<stop offset="0.7" stop-color="#AFB5B9"/>
<stop offset="0.79" stop-color="#949CA1"/>
</linearGradient>
<linearGradient id="paint7_linear" x1="6.51814" y1="9.58175" x2="20.9363" y2="9.58175" gradientUnits="userSpaceOnUse">
<stop offset="0.39" stop-color="white"/>
<stop offset="0.47" stop-color="#FAFAFA"/>
<stop offset="0.57" stop-color="#EBECED"/>
<stop offset="0.67" stop-color="#D2D5D7"/>
<stop offset="0.79" stop-color="#AFB5B9"/>
<stop offset="0.87" stop-color="#949CA1"/>
</linearGradient>
</defs>
</svg>
