<svg width="85" height="85" viewBox="0 0 85 85" fill="none" xmlns="http://www.w3.org/2000/svg">
<path d="M71.678 9.66012C69.102 11.5921 63.9499 14.1682 57.5099 12.5582C46.1324 9.76745 42.9124 5.47441e-06 42.9124 5.47441e-06C42.9124 5.47441e-06 39.6709 9.75672 28.3149 12.5582C21.7782 14.1682 16.7227 11.5707 14.0394 9.67085H12V62.2648C12 63.6602 12.322 66.2362 14.4794 68.9196C17.1521 72.1396 21.6601 74.2112 27.8963 75.1128C32.941 75.8319 36.5904 77.399 39.1664 79.8999C41.0984 81.7353 42.9231 84.9124 42.9231 84.9124C42.9231 84.9124 44.8015 81.6709 46.6369 79.8999C49.2344 77.399 52.9159 75.8426 57.907 75.1128C64.1539 74.2101 68.6405 72.1074 71.3238 68.8766C73.4813 66.2577 73.8033 63.628 73.8033 62.3077V9.71378H71.7532" fill="white"/>
<path d="M71.8927 11.6995C71.8927 11.6995 65.6995 16.5189 56.9732 14.34C46.8086 11.7961 42.805 4.18611 42.805 4.18611C42.805 4.18611 38.8551 11.8069 28.6369 14.34C20.0501 16.4867 13.8247 11.6566 13.8247 11.6566V62.2112C13.8258 63.9286 14.5438 71.2273 28.2075 73.1593C33.585 73.9375 37.5993 75.6602 40.4437 78.4402C41.4827 79.4363 42.2684 80.4474 42.8695 81.3812C43.4737 80.4506 44.2648 79.4384 45.2952 78.4402C48.1825 75.6602 52.1968 73.9321 57.5314 73.1593C71.1629 71.1951 71.8069 63.8964 71.9142 62.2112V11.6566" fill="#013369"/>
<path d="M42.9124 76.3472C42.9124 76.3472 46.8623 71.4742 57.0805 69.8964C68.8873 68.0825 68.458 62.5655 68.458 62.2864V35.7748H17.2594V62.2864C17.2594 62.5655 16.9116 68.0825 28.6369 69.8964C38.8981 71.485 42.805 76.3472 42.805 76.3472" fill="white"/>
<path d="M30.891 55.1701L30.8891 42.612L29.3113 41.7265V38.4635H36.5135V41.7265L35.0108 42.612V68.265L31.1682 67.1165L25.6083 50.6943L25.6072 61.5351L27.3782 62.8875V66.2256L19.6609 64.2614V61.417L21.4319 60.7258V42.5862L19.6179 41.69V38.427H25.4569L30.9095 55.1712" fill="#D50A0A"/>
<path d="M44.2004 66.6549L45.746 68.501V71.764L38.093 68.9089V66.1396L39.7782 65.4484V42.5861L38.1038 41.7371V38.4312H51.4132V45.0752H48.4937L47.6093 42.3489H44.2283V50.0341H46.7614L47.7596 48.5743H49.7989V55.4116H47.7596L46.7989 54.0269H44.2229V66.6924" fill="#D50A0A"/>
<path d="M52.6799 67.8355V64.5725L54.5797 63.0162V42.6226L52.9589 41.7736V38.4677H60.6119V41.7736L59.1092 42.6226V61.8355L62.4044 60.9457L63.0355 55.9224H66.1804V64.316L52.6562 67.9224" fill="#D50A0A"/>
<path d="M18.6011 30.3758L16.2827 28.637H19.1163L20.0512 25.9536L20.9861 28.637H23.8197L21.5013 30.3866L22.3536 33.1129L20.0459 31.4921L17.7382 33.1129L18.5904 30.3866" fill="white"/>
<path d="M28.6369 30.3758L26.3185 28.637H29.1521L30.087 25.9536L31.0219 28.637H33.8555L31.5371 30.3866L32.3893 33.1129L30.0816 31.4921L27.7739 33.1129L28.6262 30.3866" fill="white"/>
<path d="M18.6011 21.3597L16.2827 19.6209H19.1163L20.0512 16.9375L20.9861 19.6209H23.8197L21.5013 21.3704L22.3536 24.0967L20.0459 22.476L17.7382 24.0967L18.5904 21.3704" fill="white"/>
<path d="M28.6369 21.3597L26.3185 19.6209H29.1521L30.087 16.9375L31.0219 19.6209H33.8555L31.5371 21.3704L32.3893 24.0967L30.0816 22.476L27.7739 24.0967L28.6262 21.3704" fill="white"/>
<path d="M68.0287 33.0591L65.721 31.4384L63.4133 33.0591L64.2656 30.3328L61.9471 28.5833H64.7808L65.7157 25.8999L66.6505 28.5833H69.4842L67.1658 30.3328L68.0191 33.0591" fill="white"/>
<path d="M57.9392 33.0591L55.6316 31.4384L53.3239 33.0591L54.1761 30.3328L51.8577 28.5833H54.6913L55.6262 25.8999L56.5621 28.5833H59.3958L57.0773 30.3328L57.9307 33.0591" fill="white"/>
<path d="M68.0287 24.043L65.721 22.4223L63.4133 24.043L64.2656 21.3167L61.9471 19.5672H64.7808L65.7157 16.8838L66.6505 19.5672H69.4842L67.1658 21.3167L68.0191 24.043" fill="white"/>
<path d="M57.9392 24.043L55.6316 22.4223L53.3239 24.043L54.1761 21.3167L51.8577 19.5672H54.6913L55.6262 16.8838L56.5621 19.5672H59.3958L57.0773 21.3167L57.9307 24.043" fill="white"/>
<path d="M45.0591 19.3203C44.0276 18.4702 42.8695 17.925 41.6459 17.6566C41.9432 17.3754 42.248 17.1339 42.5153 16.9107C44.0502 17.2799 45.0806 17.9679 45.789 18.5529C45.5378 18.8105 45.2942 19.0617 45.0634 19.3182L45.0591 19.3203ZM43.5671 21.1128C42.584 20.2874 41.3883 19.6745 40.0358 19.3955C40.243 19.1282 40.4856 18.8438 40.7185 18.5797C41.7532 18.7633 43.0798 19.3085 44.2391 20.2649C44.0029 20.5482 43.7818 20.8359 43.5736 21.1096L43.5671 21.1128ZM42.2255 22.9912C41.165 22.1078 39.9285 21.5636 38.7156 21.3382C38.7156 21.3382 39.0881 20.7307 39.2995 20.4162C40.7807 20.7103 41.9829 21.4037 42.8308 22.1121C42.614 22.4212 42.409 22.7175 42.2255 22.9901V22.9912ZM49.2344 14.018C49.2344 14.018 48.0323 14.6438 46.3578 16.2935C46.7357 16.5071 47.1607 16.8055 47.4044 17.0083C47.1511 17.2327 46.8924 17.4752 46.6519 17.7028C45.5571 16.8044 44.4301 16.3504 43.55 16.1357C43.8419 15.9264 44.1521 15.7203 44.458 15.5207C44.9303 15.6409 45.3875 15.8266 45.3875 15.8266C47.2766 14.3883 48.9189 13.7658 48.9189 13.7658C48.9189 13.7658 48.7289 13.6728 48.2233 13.6795C40.785 13.7755 33.9478 19.3253 35.2358 28.8136C35.3743 29.8215 35.7661 31.658 36.2641 32.463C36.4294 30.8852 37.024 27.3861 38.7865 23.6294C38.1736 23.4093 37.6702 23.3192 37.6702 23.3192C37.8505 22.9414 38.1006 22.4594 38.1006 22.4594C39.4101 22.7052 40.5586 23.2516 41.5568 24.048C41.3174 24.4355 41.1553 24.6877 41.0405 24.8873C40.6906 24.6115 40.3364 24.3743 39.9457 24.1575C37.96 27.6244 37.0476 30.8981 36.672 32.6047C36.6926 32.7103 36.9081 32.7646 37.082 32.7421C45.2287 31.687 48.9961 27.5256 50.1768 23.0283C50.94 20.0766 50.6899 16.9854 49.668 14.463C49.5962 14.2859 49.4566 13.9918 49.2194 14.0133" fill="white"/>
</svg>
