<svg width="120" height="120" viewBox="0 0 120 120" fill="none" xmlns="http://www.w3.org/2000/svg">
<g clip-path="url(#clip0)">
<path d="M59.9054 0C58.0505 0.000869254 56.2139 0.367363 54.5008 1.07852C52.7876 1.78967 51.2314 2.83153 49.9212 4.14454L4.14647 49.9192C2.83276 51.2289 1.79039 52.785 1.07919 54.4983C0.367994 56.2116 0.00195312 58.0484 0.00195312 59.9035C0.00195312 61.7585 0.367994 63.5953 1.07919 65.3086C1.79039 67.0219 2.83276 68.578 4.14647 69.8877L22.608 88.3493L31.4616 79.4956L11.6813 59.9035L14.696 56.8895L59.9075 11.6774L116.611 68.3808L116.988 68.7579L117.176 68.3808C118.945 65.9007 119.93 62.9469 120.003 59.9014C120.002 58.0465 119.635 56.2099 118.924 54.4968C118.213 52.7836 117.171 51.2274 115.858 49.9172L69.8896 3.95358C67.1752 1.43016 63.6115 0.0190182 59.9054 0Z" fill="#E6E6E6"/>
<path d="M40.1258 88.5402L31.2715 97.3939L49.9213 116.046C51.2045 117.33 52.7333 118.342 54.4164 119.022C56.0995 119.702 57.9024 120.035 59.7173 120.003C61.5722 120.002 63.4088 119.635 65.1219 118.924C66.8351 118.213 68.3913 117.171 69.7016 115.858L107.755 77.8046L98.9009 68.9502L59.5291 108.323L40.1258 88.5402Z" fill="#E6E6E6"/>
<path d="M64.676 34.4034L69.3507 29.8459L62.8898 28.907L60 23.0493L57.1101 28.9042L50.6492 29.8431L55.3238 34.4006L54.2209 40.836L60 37.7972L65.779 40.836L64.676 34.4034Z" fill="#F10000"/>
<path d="M85.9206 38.0971L89.3489 34.7543L84.6101 34.0649L82.491 29.7708L80.3718 34.0649L75.6331 34.7543L79.0613 38.0971L78.252 42.8165L82.4902 40.5878L86.7286 42.8165L85.9206 38.0971Z" fill="#BE0D12"/>
<path d="M40.938 38.0971L44.3662 34.7543L39.6275 34.0649L37.5083 29.7708L35.3892 34.0649L30.6504 34.7543L34.0787 38.0971L33.2694 42.8165L37.5076 40.5878L41.746 42.8165L40.938 38.0971Z" fill="#BE0D12"/>
<path d="M78.8599 84.7866H79.5115C80.6719 84.7866 81.7848 84.3256 82.6054 83.505C83.426 82.6845 83.8869 81.5715 83.8869 80.4111C83.8869 79.2506 83.426 78.1377 82.6054 77.3172C81.7848 76.4966 80.6719 76.0356 79.5115 76.0356H78.4511C79.6114 76.0356 80.7241 75.5747 81.5446 74.7543C82.365 73.9338 82.826 72.8211 82.826 71.6608C82.826 70.5006 82.365 69.3878 81.5446 68.5674C80.7241 67.7469 79.6114 67.286 78.4511 67.286H63.735C62.9505 67.286 62.0337 67.1006 61.6442 66.4195C59.7711 63.1456 63.9157 58.8101 65.1772 56.4987C70.3958 46.9377 64.1852 42.9682 60.102 44.145C59.9676 46.4751 57.2983 50.632 55.3012 54.1782C51.8109 60.3826 41.7205 68.9157 41.7205 68.9157V99.1629H44.2256C44.6139 99.1628 44.9984 99.2393 45.3572 99.3878C45.716 99.5364 46.0419 99.7542 46.3165 100.029L47.709 101.421C48.2634 101.976 49.0153 102.287 49.7993 102.287H76.3583C77.5091 102.273 78.6079 101.805 79.4166 100.986C80.2253 100.168 80.6788 99.0629 80.6788 97.912C80.6788 96.7611 80.2253 95.6565 79.4166 94.8375C78.6079 94.0186 77.5091 93.5513 76.3583 93.5368H78.8579C80.0183 93.5368 81.1311 93.0759 81.9516 92.2554C82.7721 91.4349 83.233 90.3221 83.233 89.1617C83.233 88.0014 82.7721 86.8885 81.9516 86.068C81.1311 85.2475 80.0183 84.7866 78.8579 84.7866H78.8599Z" fill="#B5B5B5"/>
<path d="M41.7226 66.0251H29.127V102.286H41.7226V66.0251Z" fill="#898989"/>
</g>
<defs>
<clipPath id="clip0">
<rect width="120" height="120" fill="white"/>
</clipPath>
</defs>
</svg>
