<?xml version="1.0" encoding="iso-8859-1"?>
<!-- Generator: Adobe Illustrator 18.0.0, SVG Export Plug-In . SVG Version: 6.00 Build 0)  -->
<!DOCTYPE svg PUBLIC "-//W3C//DTD SVG 1.1//EN" "http://www.w3.org/Graphics/SVG/1.1/DTD/svg11.dtd">
<svg version="1.1" xmlns="http://www.w3.org/2000/svg" xmlns:xlink="http://www.w3.org/1999/xlink" x="0px" y="0px"
	 viewBox="0 0 38.017 38.017" style="enable-background:new 0 0 38.017 38.017;" xml:space="preserve">
<g id="Layer_574">
	<g id="Layer_575">
		<g>
			<path style="fill:#135E43;" d="M38.017,19.009c0-2.132-0.356-4.261-1.06-6.275c-0.679-1.941-1.676-3.769-2.939-5.392
				c-1.253-1.61-2.765-3.017-4.461-4.15c-1.719-1.148-3.625-2.014-5.622-2.548c-2.079-0.556-4.251-0.752-6.397-0.588
				c-2.102,0.161-4.174,0.673-6.107,1.514C9.553,2.388,7.81,3.512,6.288,4.884C4.771,6.25,3.476,7.861,2.468,9.637
				c-1.028,1.81-1.753,3.788-2.138,5.833c-0.4,2.122-0.435,4.313-0.107,6.448c0.317,2.064,0.978,4.073,1.95,5.921
				c0.951,1.809,2.195,3.461,3.668,4.877c1.476,1.418,3.179,2.596,5.028,3.474c1.896,0.9,3.94,1.479,6.027,1.71
				c2.143,0.237,4.327,0.112,6.428-0.375c2.019-0.469,3.958-1.273,5.718-2.369c1.732-1.078,3.289-2.436,4.593-4.006
				c1.312-1.579,2.367-3.369,3.108-5.284c0.766-1.978,1.191-4.083,1.264-6.202C38.013,19.446,38.017,19.227,38.017,19.009z"/>
			<path style="fill:#C11734;" d="M27.435,9.551c-1.681-2.084-3.915-3.709-6.42-4.652c-2.68-1.009-5.631-1.232-8.433-0.644
				c-2.67,0.56-5.16,1.857-7.157,3.714c-1.964,1.826-3.429,4.177-4.189,6.75C0.42,17.474,0.411,20.451,1.21,23.21
				c0.752,2.596,2.211,4.962,4.183,6.809c1.972,1.846,4.438,3.147,7.078,3.721c2.813,0.611,5.788,0.405,8.485-0.602
				c2.51-0.935,4.746-2.546,6.436-4.623c1.729-2.123,2.858-4.712,3.233-7.424c0.394-2.844-0.034-5.783-1.237-8.392
				C28.869,11.575,28.212,10.515,27.435,9.551z"/>
		</g>
	</g>
</g>
<g id="Layer_1">
</g>
</svg>
