<?xml version="1.0" encoding="iso-8859-1"?>
<!-- Generator: Adobe Illustrator 18.0.0, SVG Export Plug-In . SVG Version: 6.00 Build 0)  -->
<!DOCTYPE svg PUBLIC "-//W3C//DTD SVG 1.1//EN" "http://www.w3.org/Graphics/SVG/1.1/DTD/svg11.dtd">
<svg version="1.1" xmlns="http://www.w3.org/2000/svg" xmlns:xlink="http://www.w3.org/1999/xlink" x="0px" y="0px"
	 viewBox="0 0 38.017 38.017" style="enable-background:new 0 0 38.017 38.017;" xml:space="preserve">
<g id="Layer_532">
	<g id="Layer_533">
		<g>
			<path style="fill:#D31616;" d="M38.017,19.009c0-2.132-0.355-4.261-1.06-6.274c-0.679-1.941-1.677-3.769-2.94-5.392
				c-1.253-1.61-2.765-3.017-4.46-4.15c-1.719-1.148-3.625-2.014-5.622-2.548c-2.079-0.556-4.251-0.752-6.397-0.588
				c-2.101,0.161-4.174,0.673-6.106,1.514C9.553,2.388,7.81,3.512,6.288,4.884C4.771,6.25,3.476,7.861,2.468,9.637
				c-1.028,1.81-1.754,3.788-2.139,5.833c-0.4,2.122-0.436,4.313-0.108,6.448c0.316,2.064,0.979,4.073,1.95,5.921
				c0.95,1.809,2.194,3.461,3.669,4.877c1.475,1.418,3.179,2.596,5.027,3.474c1.896,0.9,3.94,1.479,6.027,1.71
				c2.142,0.237,4.326,0.112,6.428-0.375c2.019-0.469,3.958-1.273,5.718-2.369c1.732-1.078,3.288-2.437,4.593-4.006
				c1.312-1.579,2.367-3.369,3.108-5.284c0.766-1.978,1.191-4.082,1.264-6.202C38.013,19.446,38.017,19.228,38.017,19.009z"/>
			<path style="fill:#FFFDFA;" d="M36.027,27.484V10.533c-0.988-1.981-2.326-3.785-3.932-5.31c-1.607-1.527-3.482-2.772-5.517-3.656
				c-2.099-0.913-4.36-1.436-6.646-1.545c-2.318-0.111-4.652,0.199-6.857,0.923C10.956,1.64,8.967,2.714,7.219,4.098
				C5.486,5.471,3.995,7.145,2.831,9.025c-0.304,0.492-0.586,0.998-0.844,1.515v16.936c0.988,1.982,2.326,3.788,3.932,5.313
				c1.607,1.528,3.482,2.773,5.518,3.658c2.1,0.913,4.361,1.438,6.648,1.546c2.317,0.111,4.651-0.198,6.856-0.922
				c2.117-0.695,4.107-1.768,5.854-3.151c1.733-1.372,3.224-3.044,4.388-4.924C35.487,28.506,35.768,28.001,36.027,27.484z
				 M27.164,22.886c-0.242,0.2-0.485,0.401-0.726,0.602c-0.113,0.095-0.227,0.189-0.34,0.284c-0.106,0.088-0.231,0.172-0.297,0.295
				c-0.152,0.279-0.011,0.607,0.076,0.885c0.157,0.504,0.316,1.008,0.477,1.512c-1.53-0.209-3.061-0.416-4.594-0.615
				c-0.375-0.049-0.751-0.097-1.127-0.147c-0.178-0.024-0.355-0.047-0.535-0.066c-0.16-0.018-0.348-0.063-0.502,0.004
				c-0.322,0.141-0.315,0.476-0.305,0.774c0.015,0.385,0.029,0.77,0.047,1.154c0.082,1.811,0.177,3.621,0.272,5.431h-1.206
				c0.081-1.539,0.159-3.079,0.238-4.618c0.02-0.384,0.039-0.769,0.053-1.153c0.015-0.363,0.058-0.746,0.027-1.108
				c-0.024-0.278-0.208-0.526-0.508-0.515c-0.369,0.013-0.746,0.087-1.113,0.134c-1.815,0.232-3.629,0.478-5.443,0.726
				c0.115-0.364,0.233-0.729,0.347-1.093c0.099-0.314,0.249-0.65,0.271-0.982c0.023-0.36-0.254-0.528-0.502-0.735
				c-0.293-0.246-0.588-0.49-0.882-0.734C9.712,21.942,8.525,20.972,7.34,20c-0.649-0.532-1.3-1.064-1.949-1.596
				c0.511-0.244,1.05-0.451,1.536-0.741c0.08-0.048,0.16-0.111,0.199-0.197c0.053-0.112,0.008-0.236-0.018-0.349
				c-0.067-0.289-0.144-0.576-0.218-0.863c-0.301-1.163-0.607-2.325-0.932-3.482c1.111,0.243,2.222,0.491,3.338,0.717
				c0.238,0.048,0.494,0.12,0.738,0.07c0.25-0.051,0.314-0.234,0.383-0.455c0.17-0.55,0.334-1.103,0.498-1.655
				c0.51,0.579,1.023,1.157,1.537,1.732c0.498,0.557,1.014,1.099,1.504,1.661c0.176,0.202,0.375,0.37,0.661,0.312
				c0.269-0.054,0.394-0.282,0.385-0.543c-0.013-0.369-0.093-0.747-0.15-1.112c-0.059-0.376-0.123-0.752-0.19-1.127
				c-0.305-1.69-0.633-3.378-0.963-5.064c0.624,0.331,1.248,0.695,1.899,0.968c0.278,0.117,0.624,0.173,0.858-0.062
				c0.094-0.094,0.157-0.212,0.223-0.327c0.088-0.153,0.178-0.305,0.266-0.459c0.716-1.254,1.385-2.536,2.064-3.811
				c0.693,1.304,1.385,2.611,2.106,3.901c0.086,0.153,0.175,0.305,0.269,0.454c0.076,0.121,0.147,0.244,0.274,0.318
				c0.213,0.125,0.486,0.098,0.707,0.01c0.33-0.131,0.641-0.309,0.955-0.471c0.334-0.171,0.666-0.345,0.996-0.521
				c-0.293,1.503-0.578,3.009-0.859,4.514c-0.142,0.756-0.275,1.513-0.38,2.275c-0.038,0.275-0.156,0.67,0.052,0.905
				c0.15,0.17,0.418,0.212,0.621,0.114c0.15-0.073,0.256-0.218,0.366-0.339c0.138-0.152,0.279-0.301,0.417-0.453
				c0.287-0.315,0.572-0.631,0.855-0.948c0.574-0.64,1.145-1.283,1.714-1.927c0.159,0.542,0.315,1.085,0.485,1.624
				c0.06,0.188,0.109,0.386,0.311,0.463c0.246,0.094,0.535,0.012,0.781-0.038c1.129-0.229,2.253-0.479,3.377-0.726
				c-0.312,1.151-0.625,2.302-0.926,3.456c-0.071,0.276-0.139,0.553-0.209,0.829c-0.063,0.245-0.094,0.453,0.154,0.6
				c0.233,0.139,0.494,0.243,0.738,0.36c0.27,0.129,0.54,0.258,0.81,0.387C30.801,19.895,28.98,21.386,27.164,22.886z"/>
		</g>
	</g>
</g>
<g id="Layer_1">
</g>
</svg>
