<?xml version="1.0" encoding="iso-8859-1"?>
<!-- Generator: Adobe Illustrator 18.0.0, SVG Export Plug-In . SVG Version: 6.00 Build 0)  -->
<!DOCTYPE svg PUBLIC "-//W3C//DTD SVG 1.1//EN" "http://www.w3.org/Graphics/SVG/1.1/DTD/svg11.dtd">
<svg version="1.1" xmlns="http://www.w3.org/2000/svg" xmlns:xlink="http://www.w3.org/1999/xlink" x="0px" y="0px"
	 viewBox="0 0 38.018 38.017" style="enable-background:new 0 0 38.018 38.017;" xml:space="preserve">
<g id="Layer_517">
	<g id="Layer_521">
		<path style="fill:#BF3328;" d="M38.018,19.009c0-2.132-0.356-4.261-1.061-6.274c-0.679-1.941-1.676-3.769-2.939-5.392
			c-1.253-1.61-2.765-3.017-4.46-4.15c-1.719-1.148-3.625-2.014-5.622-2.548c-2.079-0.556-4.251-0.752-6.396-0.588
			c-2.103,0.161-4.174,0.673-6.107,1.514C9.553,2.388,7.811,3.512,6.288,4.884C4.772,6.25,3.476,7.861,2.468,9.637
			c-1.028,1.81-1.754,3.788-2.139,5.833c-0.4,2.122-0.436,4.313-0.108,6.448c0.317,2.064,0.979,4.073,1.95,5.921
			c0.951,1.809,2.195,3.461,3.669,4.877c1.476,1.418,3.179,2.596,5.027,3.474c1.896,0.9,3.94,1.479,6.027,1.71
			c2.142,0.237,4.327,0.112,6.428-0.375c2.02-0.469,3.958-1.273,5.718-2.369c1.732-1.078,3.289-2.437,4.594-4.006
			c1.312-1.579,2.366-3.369,3.107-5.284c0.766-1.978,1.191-4.082,1.264-6.202C38.014,19.446,38.018,19.227,38.018,19.009z"/>
	</g>
	<g id="Layer_520">
		<path style="fill:#FFFFFF;" d="M38.018,19.009c0-2.132-0.356-4.261-1.061-6.274c-0.679-1.941-1.676-3.769-2.939-5.392
			c-1.253-1.61-2.765-3.017-4.46-4.15c-1.719-1.148-3.625-2.014-5.622-2.548c-2.079-0.556-4.251-0.752-6.396-0.588
			c-2.103,0.161-4.174,0.673-6.107,1.514C9.553,2.388,7.811,3.512,6.288,4.884C4.772,6.25,3.476,7.861,2.468,9.637
			c-1.028,1.81-1.754,3.788-2.139,5.833c-0.256,1.361-0.361,2.748-0.318,4.131h37.996C38.013,19.404,38.018,19.207,38.018,19.009z"
			/>
	</g>
	<g id="Layer_519">
		<path style="fill:#1830A8;" d="M18.877,0.001c-2.129,0.015-4.254,0.385-6.26,1.101c-1.937,0.691-3.756,1.7-5.37,2.974
			C5.646,5.339,4.248,6.86,3.126,8.563c-1.139,1.727-1.991,3.639-2.513,5.641c-0.459,1.759-0.659,3.582-0.602,5.398h18.866V0.001z"
			/>
	</g>
	<g id="Layer_518">
		<polygon style="fill:#FFFFFF;" points="11.553,9.402 10.35,5.699 9.146,9.402 5.251,9.402 8.402,11.692 7.198,15.396 
			10.35,13.107 13.5,15.396 12.297,11.692 15.447,9.402 		"/>
	</g>
</g>
<g id="Layer_1">
</g>
</svg>
