<?xml version="1.0" encoding="utf-8"?>
<!-- Generator: Adobe Illustrator 24.0.3, SVG Export Plug-In . SVG Version: 6.00 Build 0)  -->
<svg version="1.1" id="Layer_1" xmlns="http://www.w3.org/2000/svg" xmlns:xlink="http://www.w3.org/1999/xlink" x="0px" y="0px"
	 viewBox="0 0 160 160" style="enable-background:new 0 0 160 160;" xml:space="preserve">
<style type="text/css">
	.st0{fill:#FFFFFF;}
</style>
<rect width="160" height="160"/>
<g>
	<g>
		<path class="st0" d="M98.1,68.4H86.3V44.8h11.5c4.9,0,8,2.6,8,6.7c0,2-0.7,3.7-2.1,4.8c1.5,1.1,2.4,2.9,2.4,5
			C106.1,65.6,102.9,68.4,98.1,68.4L98.1,68.4z M105.1,77.2H93.6v2.4h10.3v6.3H93.6v2.2h11.5v6.4H86.3V70.8h18.9V77.2L105.1,77.2z
			 M105.1,103.6h-6.2v14.9h-6.4v-14.9h-6.2v-6.8h18.9V103.6L105.1,103.6z M95.7,33.7c-19.5,0-36.3,12.1-43.1,29.2V35.9H20.2v88.3
			h32.4V97.1c6.8,17.1,23.5,29.2,43.1,29.2c25.6,0,46.3-20.7,46.3-46.3C142,54.4,121.3,33.7,95.7,33.7L95.7,33.7z"/>
	</g>
	<path class="st0" d="M97,59.3h-3.4v2.9H97c1.5,0,1.7-0.9,1.7-1.6C98.7,59.5,97.5,59.3,97,59.3L97,59.3z"/>
	<path class="st0" d="M98.4,52.1c0-0.4,0-1.3-1.8-1.3h-3v2.7h3C98.4,53.5,98.4,52.5,98.4,52.1L98.4,52.1z"/>
</g>
</svg>
