<svg xmlns="http://www.w3.org/2000/svg" viewBox="0 0 102.033 83.587"><title>777_casino_icon</title><path d="M49.064,0a.3.3,0,0,0,.1.043,22.414,22.414,0,0,1,3.7.468,19.525,19.525,0,0,1,3.279.953,21.779,21.779,0,0,1,2.531,1.153,21.07,21.07,0,0,1,3.453,2.3c.611.5,1.186,1.038,1.762,1.577a24.481,24.481,0,0,0,4.621,3.418,26.813,26.813,0,0,0,5.324,2.314,23.93,23.93,0,0,0,3.637.826c.695.1,1.39.183,2.091.234,1.433.1,2.866.056,4.3.092a17.321,17.321,0,0,1,5.16.826,13.191,13.191,0,0,1,4.088,2.24,9.492,9.492,0,0,1,2.64,3.34c.033.069.073.135.111.2.008.03-.019.086.051.072l0,0c-.039.127.056.214.1.317,0,.028,0,.054.034.062l0,0c.1.338.2.674.286,1.015a18.914,18.914,0,0,1,.258,6.115c-.089,1.124-.2,2.247-.3,3.371-.112,1.261-.222,2.523-.337,3.784q-.2,2.166-.4,4.332-.171,1.845-.34,3.691-.154,1.674-.309,3.347c-.1,1.07-.193,2.14-.292,3.21-.1,1.1-.206,2.2-.306,3.3-.1,1.084-.194,2.168-.3,3.252-.083.878-.177,1.756-.258,2.634a10.738,10.738,0,0,1-.583,2.734,10.55,10.55,0,0,1-3.9,4.9,15.592,15.592,0,0,1-4.7,2.213Q70.4,72.661,56.25,77a25.635,25.635,0,0,1-7,1.244A25.207,25.207,0,0,1,41.2,77.227Q28.5,73.32,15.78,69.44c-1.751-.538-3.521-1.017-5.238-1.665a1.466,1.466,0,0,0-.432-.149h0c-.017-.048-.059-.047-.1-.05a3.605,3.605,0,0,0-.832-.358l.005,0c.011-.068-.04-.048-.074-.051A18.964,18.964,0,0,1,6.824,65.65a10.938,10.938,0,0,1-2.712-3.175,9.339,9.339,0,0,1-1.046-3.092c-.094-.609-.134-1.228-.2-1.842-.058-.554-.121-1.107-.174-1.661-.04-.41-.066-.822-.1-1.232-.057-.623-.119-1.245-.176-1.868-.036-.4-.064-.792-.1-1.187-.056-.6-.118-1.2-.174-1.8-.037-.387-.066-.776-.1-1.163-.058-.615-.12-1.23-.176-1.845-.037-.4-.064-.807-.1-1.21-.056-.592-.119-1.184-.174-1.776-.038-.4-.065-.806-.1-1.209-.056-.615-.119-1.23-.176-1.845-.051-.555-.095-1.11-.146-1.665-.057-.615-.121-1.23-.177-1.845-.037-.395-.063-.792-.1-1.187C.829,35.465.766,34.881.71,34.3c-.037-.373-.067-.745-.1-1.118C.55,32.533.488,31.888.431,31.242c-.036-.411-.063-.822-.1-1.233-.056-.63-.12-1.26-.175-1.891-.038-.426-.07-.852-.1-1.279-.063-.881-.068-1.764-.043-2.645a10.765,10.765,0,0,1,1.208-4.943,9.257,9.257,0,0,1,2.332-2.778,13.145,13.145,0,0,1,2.571-1.638,13.832,13.832,0,0,1,3.843-1.191,23.133,23.133,0,0,1,2.437-.24c.737-.041,1.472-.033,2.207-.028s1.474-.023,2.207-.063a25.169,25.169,0,0,0,4.432-.651,26.077,26.077,0,0,0,6.4-2.445,23.154,23.154,0,0,0,3.863-2.6c.654-.544,1.267-1.132,1.894-1.706a21.851,21.851,0,0,1,4.236-3.091,22.2,22.2,0,0,1,4.2-1.806A19.082,19.082,0,0,1,45.28.273a17.731,17.731,0,0,1,2.253-.23.285.285,0,0,0,.1-.043Zm44.5,18.62c0-.032-.014-.052-.049-.048l0,0a.972.972,0,0,0-.263-.342,10.882,10.882,0,0,0-3.846-2.6,15.535,15.535,0,0,0-5.692-1.052c-1-.021-2-.011-3-.035a26.054,26.054,0,0,1-5.514-.709A26.334,26.334,0,0,1,62.994,7.286,22.686,22.686,0,0,0,58,3.614a21.533,21.533,0,0,0-8.357-2.359,15.621,15.621,0,0,0-3.263.076,23.777,23.777,0,0,0-4.145.822,21.057,21.057,0,0,0-8.507,5.106,25.579,25.579,0,0,1-7.89,5.152,27.492,27.492,0,0,1-10.875,2.153c-1.159,0-2.319-.013-3.477.09a13.843,13.843,0,0,0-4.578,1.135A10.113,10.113,0,0,0,2.869,18.91a9.071,9.071,0,0,0-1.656,5.2,26.592,26.592,0,0,0,.123,3.613c.109,1.169.2,2.34.3,3.51.115,1.284.238,2.568.356,3.852.1,1.07.191,2.14.291,3.21.114,1.223.236,2.445.349,3.668.116,1.261.225,2.523.34,3.784.131,1.437.267,2.873.4,4.31.115,1.254.223,2.508.34,3.761.145,1.544.307,3.086.441,4.63a8.4,8.4,0,0,0,1.939,4.809,6.292,6.292,0,0,0,1.155,1.145h0a.105.105,0,0,0,.1.09h0a.045.045,0,0,0,.049.045A11.068,11.068,0,0,0,10.359,66.4a.208.208,0,0,0,.208-.008l-.006,0c.011.118.085.151.19.141l0,0c-.008.051.033.041.06.048a3.34,3.34,0,0,0,.678.273c2.217.745,4.465,1.392,6.7,2.078C25.655,71.218,33.131,73.49,40.6,75.8a25.123,25.123,0,0,0,7.294,1.26,23.42,23.42,0,0,0,7.07-.921Q65.967,72.761,76.977,69.4c2.662-.815,5.333-1.6,7.98-2.458a12.28,12.28,0,0,0,5.2-3.17A8.1,8.1,0,0,0,92.406,59.4c.255-1.592.35-3.2.5-4.808.1-1.077.194-2.156.293-3.233q.2-2.155.4-4.311.169-1.857.339-3.715c.116-1.245.238-2.491.352-3.736.1-1.1.191-2.2.293-3.3.128-1.384.269-2.766.394-4.149.136-1.5.256-3,.388-4.5A22.136,22.136,0,0,0,95.4,23.09a8.314,8.314,0,0,0-.41-1.882,7.107,7.107,0,0,0-1.328-2.493l-.054-.051,0,0c0-.029-.016-.05-.049-.05Z" style="fill:#faf3d3"/><path d="M9.181,67.219a3.605,3.605,0,0,1,.832.358.072.072,0,0,0,.1.05h0a.108.108,0,0,0,.067.087c.347.2.693.393,1.054.566a29.272,29.272,0,0,0,4.114,1.459q4.627,1.419,9.257,2.828l9.059,2.771q4.627,1.414,9.256,2.831a21.222,21.222,0,0,0,5.594.977,30.85,30.85,0,0,0,3.8-.069,20.357,20.357,0,0,0,2.854-.455c1.9-.451,3.735-1.093,5.6-1.65,1.769-.529,3.531-1.084,5.3-1.624q4.056-1.24,8.114-2.477c1.619-.5,3.238-1,4.857-1.492,2.433-.746,4.869-1.479,7.3-2.236a13.165,13.165,0,0,0,5.837-3.5,9.01,9.01,0,0,0,2.26-4.13,14.889,14.889,0,0,0,.294-2.136c.066-.739.147-1.477.217-2.216.054-.564.1-1.129.15-1.693.072-.778.148-1.555.22-2.333.067-.724.129-1.449.195-2.173q.111-1.212.223-2.424c.05-.549.1-1.1.15-1.647.072-.77.147-1.54.218-2.309.052-.565.1-1.13.15-1.694.071-.762.149-1.523.219-2.285.053-.572.1-1.145.149-1.716.07-.755.148-1.508.218-2.263.068-.724.132-1.448.2-2.173q.109-1.212.219-2.423c.051-.588.088-1.177.151-1.763.1-.914.174-1.83.207-2.748a21.045,21.045,0,0,0-.025-2.232,10.643,10.643,0,0,0-.916-3.8,4.145,4.145,0,0,0-.63-1.059l0,0A.051.051,0,0,0,96,20.369c-.04-.1-.135-.19-.1-.317.3.289.6.575.886.869.966.979,1.971,1.92,2.9,2.933a8.732,8.732,0,0,1,2.159,4.646,20.122,20.122,0,0,1,.071,4.849c-.124,1.523-.26,3.045-.4,4.567-.123,1.369-.256,2.737-.382,4.105-.119,1.285-.233,2.57-.352,3.854-.116,1.269-.229,2.539-.357,3.807-.052.515-.086,1.032-.148,1.546-.049.409-.1.823-.125,1.23-.046.8-.13,1.59-.2,2.384-.126,1.453-.266,2.905-.4,4.358-.114,1.246-.216,2.494-.343,3.739a18.323,18.323,0,0,1-.519,3.524,9.644,9.644,0,0,1-3.387,4.764,14.434,14.434,0,0,1-4.888,2.439q-14.735,4.512-29.471,9.015a24.2,24.2,0,0,1-7.879.889,26.263,26.263,0,0,1-6.954-1.348Q32.394,78,18.652,73.814a17.514,17.514,0,0,1-4.241-1.8A12.233,12.233,0,0,1,12.3,70.354c-1.023-1.009-2.034-2.03-3.05-3.046A.74.74,0,0,1,9.181,67.219Z" style="fill:#4d131f"/><path d="M95.908,20.057c-.07.014-.043-.042-.051-.072Z" style="fill:#4d131f"/><path d="M9.112,67.171c.034,0,.085-.017.074.051Z" style="fill:#4d131f"/><path d="M7.248,64.407a6.292,6.292,0,0,1-1.155-1.145,8.4,8.4,0,0,1-1.939-4.809c-.134-1.544-.3-3.086-.441-4.63-.117-1.253-.225-2.507-.34-3.761-.132-1.437-.268-2.873-.4-4.31-.115-1.261-.224-2.523-.34-3.784-.113-1.223-.235-2.445-.349-3.668-.1-1.07-.193-2.14-.291-3.21-.118-1.284-.241-2.568-.356-3.852-.1-1.17-.193-2.341-.3-3.51a26.592,26.592,0,0,1-.123-3.613,9.071,9.071,0,0,1,1.656-5.2,10.113,10.113,0,0,1,4.039-3.121,13.843,13.843,0,0,1,4.578-1.135c1.158-.1,2.318-.09,3.477-.09a27.492,27.492,0,0,0,10.875-2.153,25.579,25.579,0,0,0,7.89-5.152,21.057,21.057,0,0,1,8.507-5.106,23.777,23.777,0,0,1,4.145-.822,15.621,15.621,0,0,1,3.263-.076A21.533,21.533,0,0,1,58,3.614a22.686,22.686,0,0,1,4.994,3.672,26.334,26.334,0,0,0,12.211,6.548,26.054,26.054,0,0,0,5.514.709c1,.024,2,.014,3,.035a15.535,15.535,0,0,1,5.692,1.052,10.882,10.882,0,0,1,3.846,2.6.972.972,0,0,1,.263.342c-.051.021-.087-.006-.125-.034A11.342,11.342,0,0,0,90.762,17.1a4.414,4.414,0,0,0-1.178-.36l0,0c-.008-.033-.023-.043-.048-.013a13.243,13.243,0,0,0-4.918-1.159c-1.143-.067-2.288-.047-3.432-.062a28.443,28.443,0,0,1-6.248-.756,18.343,18.343,0,0,1-2.227-.634c-.018-.045-.057-.05-.1-.05l0,0c-.034-.055-.088-.051-.141-.049l0,0c-.038-.066-.109-.081-.171-.107a26.743,26.743,0,0,1-2.744-1.352,25.833,25.833,0,0,1-5.253-3.926,22.225,22.225,0,0,0-1.86-1.609,20.153,20.153,0,0,0-5.032-2.837,5.531,5.531,0,0,0-1.263-.408l0,0c-.018-.049-.062-.041-.1-.047a1.593,1.593,0,0,1-.2-.061,20.215,20.215,0,0,0-6.222-1.464,13.581,13.581,0,0,0-2.989.043,25.446,25.446,0,0,0-3.2.54,19.653,19.653,0,0,0-8.929,5.019,26.93,26.93,0,0,1-8.456,5.529A27.73,27.73,0,0,1,22,14.7a27.037,27.037,0,0,1-5.964.8c-1.145.02-2.29.019-3.434.052a14.25,14.25,0,0,0-4.318.73A9.821,9.821,0,0,0,4,19.046a7.914,7.914,0,0,0-1.82,4.985,29.192,29.192,0,0,0,.147,4.118c.129,1.484.265,2.967.4,4.45q.192,2.1.387,4.2l.357,3.875q.145,1.594.29,3.188c.131,1.414.266,2.828.4,4.242q.171,1.867.339,3.738c.133,1.46.264,2.92.4,4.38.088.924.178,1.849.288,2.771A7.407,7.407,0,0,0,5.912,61.3c.011.075.016.152.034.225a7.992,7.992,0,0,0,1.174,2.6C7.177,64.21,7.278,64.28,7.248,64.407Z" style="fill:#b83552"/><path d="M96.033,20.429a4.145,4.145,0,0,1,.63,1.059,10.643,10.643,0,0,1,.916,3.8,21.045,21.045,0,0,1,.025,2.232c-.033.918-.108,1.834-.207,2.748-.063.586-.1,1.175-.151,1.763q-.108,1.212-.219,2.423c-.066.725-.13,1.449-.2,2.173-.07.755-.148,1.508-.218,2.263-.053.571-.1,1.144-.149,1.716-.07.762-.148,1.523-.219,2.285-.053.564-.1,1.129-.15,1.694-.071.769-.146,1.539-.218,2.309-.051.549-.1,1.1-.15,1.647q-.111,1.212-.223,2.424c-.066.724-.128,1.449-.195,2.173-.072.778-.148,1.555-.22,2.333-.052.564-.1,1.129-.15,1.693-.07.739-.151,1.477-.217,2.216a14.889,14.889,0,0,1-.294,2.136,9.01,9.01,0,0,1-2.26,4.13,13.165,13.165,0,0,1-5.837,3.5c-2.429.757-4.865,1.49-7.3,2.236-1.619.5-3.238,1-4.857,1.492q-4.058,1.24-8.114,2.477c-1.767.54-3.529,1.095-5.3,1.624-1.865.557-3.7,1.2-5.6,1.65a20.357,20.357,0,0,1-2.854.455,30.85,30.85,0,0,1-3.8.069,21.222,21.222,0,0,1-5.594-.977q-4.624-1.427-9.256-2.831L24.6,72.566q-4.628-1.415-9.257-2.828a29.272,29.272,0,0,1-4.114-1.459c-.361-.173-.707-.37-1.054-.566a.108.108,0,0,1-.067-.087,1.466,1.466,0,0,1,.432.149c1.717.648,3.487,1.127,5.238,1.665q12.711,3.9,25.424,7.787a25.207,25.207,0,0,0,8.048,1.014,25.635,25.635,0,0,0,7-1.244Q70.4,72.646,84.555,68.328a15.592,15.592,0,0,0,4.7-2.213,10.55,10.55,0,0,0,3.9-4.9,10.738,10.738,0,0,0,.583-2.734c.081-.878.175-1.756.258-2.634.1-1.084.2-2.168.3-3.252.1-1.1.2-2.2.306-3.3.1-1.07.194-2.14.292-3.21q.153-1.674.309-3.347.169-1.845.34-3.691.2-2.166.4-4.332c.115-1.261.225-2.523.337-3.784.1-1.124.209-2.247.3-3.371a18.914,18.914,0,0,0-.258-6.115C96.235,21.1,96.129,20.767,96.033,20.429Z" style="fill:#b83552"/><path d="M94.986,21.208a8.314,8.314,0,0,1,.41,1.882,22.136,22.136,0,0,1-.032,4.553c-.132,1.5-.252,3-.388,4.5-.125,1.383-.266,2.765-.394,4.149-.1,1.1-.193,2.2-.293,3.3-.114,1.245-.236,2.491-.352,3.736s-.226,2.477-.339,3.715q-.2,2.155-.4,4.311c-.1,1.077-.192,2.156-.293,3.233-.151,1.6-.246,3.216-.5,4.808a8.1,8.1,0,0,1-2.254,4.372,12.28,12.28,0,0,1-5.2,3.17c-2.647.862-5.318,1.643-7.98,2.458Q65.97,72.767,54.96,76.134a23.42,23.42,0,0,1-7.07.921A25.123,25.123,0,0,1,40.6,75.8c-7.465-2.305-14.941-4.577-22.411-6.868-2.235-.686-4.483-1.333-6.7-2.078a3.34,3.34,0,0,1-.678-.273l-.06-.048,0,0a.229.229,0,0,0-.19-.141l.006,0c-.065-.14-.21-.2-.317-.293-.669-.6-1.279-1.254-1.918-1.881-.051-.051-.131-.089-.116-.184a.352.352,0,0,1,.082.033,11.462,11.462,0,0,0,3.537,1.887c1.981.677,4,1.249,6,1.862,7.632,2.339,15.269,4.659,22.895,7.014A24.32,24.32,0,0,0,47.95,76.1a21.63,21.63,0,0,0,6.263-.748c3.254-.977,6.5-1.975,9.749-2.968l20.016-6.125A12.432,12.432,0,0,0,89.172,63.4a7.343,7.343,0,0,0,2.268-4.049c.268-1.536.345-3.095.5-4.645.107-1.093.2-2.187.3-3.28.115-1.254.235-2.507.35-3.76s.227-2.508.343-3.761c.116-1.269.236-2.538.353-3.807.1-1.085.194-2.171.294-3.256.115-1.238.238-2.476.351-3.714.116-1.284.221-2.57.337-3.854.13-1.422.276-2.843.278-4.274a10.4,10.4,0,0,0-.7-4.124,9.9,9.9,0,0,0-.889-1.553c.112-.01.158.084.219.147.555.571,1.151,1.1,1.675,1.7C94.86,21.19,94.9,21.373,94.986,21.208Z" style="fill:#b83552"/><path d="M8.216,64.037c-.015.095.065.133.116.184.639.627,1.249,1.284,1.918,1.881.107.1.252.153.317.293a.208.208,0,0,1-.208.008,11.068,11.068,0,0,1-2.968-1.862c0-.027-.018-.045-.049-.045h0c0-.065-.024-.1-.1-.09h0c.03-.127-.071-.2-.128-.281a7.992,7.992,0,0,1-1.174-2.6c-.018-.073-.023-.15-.034-.225a8.843,8.843,0,0,0,1.324,1.809c.245.252.5.5.746.742l.058.039,0,0c0,.032.018.048.052.043l-.013.008.012-.009c0,.036.014.051.05.037l.005,0c-.012.063.022.073.073.066Z" style="fill:#4d131f"/><path d="M94.986,21.208c-.088.165-.126-.018-.143-.037-.524-.6-1.12-1.133-1.675-1.7-.061-.063-.107-.157-.219-.147h0c0-.047,0-.085-.065-.074l0,0c.011-.035-.005-.05-.039-.049l0-.013,0,.013a.041.041,0,0,0-.043-.052l0,0a.058.058,0,0,0-.054-.055,12.019,12.019,0,0,0-.973-.942,11.734,11.734,0,0,0-2.2-1.41,4.414,4.414,0,0,1,1.178.36,11.342,11.342,0,0,1,2.629,1.436c.038.028.074.055.125.034l0,0c0,.033.017.047.049.048l0,0a.049.049,0,0,0,.049.05l0,0,.054.051A7.107,7.107,0,0,1,94.986,21.208Z" style="fill:#67243c"/><path d="M10.561,66.391a.229.229,0,0,1,.19.141C10.646,66.542,10.572,66.509,10.561,66.391Z" style="fill:#4d131f"/><path d="M7.247,64.406c.072-.012.1.025.1.09A.105.105,0,0,1,7.247,64.406Z" style="fill:#b83552"/><path d="M10.112,67.627a.072.072,0,0,1-.1-.05C10.053,67.58,10.1,67.579,10.112,67.627Z" style="fill:#b83552"/><path d="M96,20.369a.051.051,0,0,1,.034.062C96,20.423,96,20.4,96,20.369Z" style="fill:#b83552"/><path d="M93.658,18.715l-.054-.051Z" style="fill:#b83552"/><path d="M93.608,18.667a.049.049,0,0,1-.049-.05C93.592,18.617,93.6,18.638,93.608,18.667Z" style="fill:#b83552"/><path d="M93.562,18.62c-.032,0-.05-.015-.049-.048C93.548,18.568,93.561,18.588,93.562,18.62Z" style="fill:#b83552"/><path d="M7.342,64.5c.031,0,.044.018.049.045A.045.045,0,0,1,7.342,64.5Z" style="fill:#b83552"/><path d="M10.747,66.528l.06.048C10.78,66.569,10.739,66.579,10.747,66.528Z" style="fill:#4d131f"/><path d="M89.584,16.737a11.734,11.734,0,0,1,2.2,1.41,12.019,12.019,0,0,1,.973.942l.054.055,0,0,.043.052,0-.013,0,.013.039.049,0,0c.008.036.022.067.065.074h0a9.9,9.9,0,0,1,.889,1.553,10.4,10.4,0,0,1,.7,4.124c0,1.431-.148,2.852-.278,4.274-.116,1.284-.221,2.57-.337,3.854-.113,1.238-.236,2.476-.351,3.714-.1,1.085-.2,2.171-.294,3.256-.117,1.269-.237,2.538-.353,3.807-.116,1.253-.227,2.507-.343,3.761s-.235,2.506-.35,3.76c-.1,1.093-.188,2.187-.3,3.28-.152,1.55-.229,3.109-.5,4.645A7.343,7.343,0,0,1,89.172,63.4a12.432,12.432,0,0,1-5.194,2.857L63.962,72.379c-3.249.993-6.5,1.991-9.749,2.968a21.63,21.63,0,0,1-6.263.748,24.32,24.32,0,0,1-7.223-1.262c-7.626-2.355-15.263-4.675-22.895-7.014-2-.613-4.016-1.185-6-1.862A11.462,11.462,0,0,1,8.3,64.07a.352.352,0,0,0-.082-.033h0c0-.046-.034-.06-.073-.066l-.005,0a.042.042,0,0,0-.05-.037l-.012.009.013-.008a.044.044,0,0,0-.052-.043l0,0c-.006-.033-.024-.048-.058-.039-.249-.247-.5-.49-.746-.742A8.843,8.843,0,0,1,5.912,61.3a7.407,7.407,0,0,1-.727-2.313c-.11-.922-.2-1.847-.288-2.771-.138-1.46-.269-2.92-.4-4.38q-.171-1.869-.339-3.738c-.131-1.414-.266-2.828-.4-4.242q-.147-1.593-.29-3.188L3.112,36.8q-.194-2.1-.387-4.2c-.134-1.483-.27-2.966-.4-4.45a29.192,29.192,0,0,1-.147-4.118A7.914,7.914,0,0,1,4,19.046a9.821,9.821,0,0,1,4.282-2.771,14.25,14.25,0,0,1,4.318-.73c1.144-.033,2.289-.032,3.434-.052A27.037,27.037,0,0,0,22,14.7a27.73,27.73,0,0,0,4.079-1.352,26.93,26.93,0,0,0,8.456-5.529A19.653,19.653,0,0,1,43.461,2.8a25.446,25.446,0,0,1,3.2-.54,13.581,13.581,0,0,1,2.989-.043,20.215,20.215,0,0,1,6.222,1.464,1.593,1.593,0,0,0,.2.061.107.107,0,0,0,.1.047l0,0c.046.026.091.055.139.077a19.565,19.565,0,0,1,5.358,3.491c.734.666,1.449,1.352,2.207,1.992s1.653,1.088,2.447,1.679a11.32,11.32,0,0,0,1.159.79,28.739,28.739,0,0,0,4.1,1.914,3.979,3.979,0,0,0,.911.3l0,0c.03.067.084.061.141.049l0,0c.011.059.061.041.1.05a18.343,18.343,0,0,0,2.227.634,28.443,28.443,0,0,0,6.248.756c1.144.015,2.289-.005,3.432.062a13.243,13.243,0,0,1,4.918,1.159l.048.013Zm1.741,25.622c.021-.252.04-.5.063-.756q.1-1.074.2-2.149c.071-.762.144-1.524.213-2.287.068-.747.13-1.5.2-2.242.077-.823.18-1.643.224-2.469.06-.323.065-.65.093-.976.089-1.027.183-2.054.275-3.082a.307.307,0,0,0,.035-.082c.048-.6.112-1.2.136-1.8.028-.7.081-1.406.051-2.111,0-.074.018-.156-.059-.21a3.558,3.558,0,0,0-.082-1.094,5.453,5.453,0,0,0-.684-2.034l-.041-.056h0a.937.937,0,0,0-.176-.32,6.91,6.91,0,0,0-2.587-2.2,11.378,11.378,0,0,0-4.943-1.206c-1.374-.06-2.75-.021-4.124-.074a27.965,27.965,0,0,1-5.376-.723A29.209,29.209,0,0,1,60.885,8.994,17.873,17.873,0,0,0,50.534,4.063,17.127,17.127,0,0,0,48.2,3.885a19.776,19.776,0,0,0-3.042.328,17.562,17.562,0,0,0-8.905,4.381,39.694,39.694,0,0,1-3.373,2.893,29.666,29.666,0,0,1-17.483,5.756,34.458,34.458,0,0,0-4.508.183,9.872,9.872,0,0,0-4.421,1.707,5.641,5.641,0,0,0-2.332,3.395,13.386,13.386,0,0,0-.183,4.1c.128,1.684.286,3.365.436,5.047q.234,2.627.478,5.252.249,2.716.5,5.433c.028.335.063.669.081,1,.012.209.077.3.314.3q5.055-.012,10.109-.005h.276c-.345.414-.63.811-.912,1.21-.211.3-.372.631-.609.913-.338,0-.676,0-1.014,0q-3.847,0-7.7,0c-.107,0-.252-.061-.229.164.072.671.126,1.344.189,2.017.162,1.749.331,3.5.489,5.248.16,1.773.309,3.547.508,5.316A6.214,6.214,0,0,0,9.88,63.069c.106.075.208.157.318.224a13.57,13.57,0,0,0,3.32,1.39l1.622.5q1.48.456,2.963.91,2.678.817,5.358,1.632c1.032.316,2.061.64,3.093.955,1.749.534,3.5,1.061,5.249,1.595,1.259.385,2.515.781,3.774,1.166,2.136.653,4.28,1.285,6.41,1.958a19.823,19.823,0,0,0,5.534.959,28.837,28.837,0,0,0,2.939-.083,16.855,16.855,0,0,0,3.107-.549c1.019-.278,2.023-.605,3.032-.915,1.785-.548,3.573-1.087,5.358-1.633,1.032-.316,2.061-.64,3.093-.955q2.636-.8,5.271-1.6c1.208-.369,2.413-.744,3.621-1.114q2.711-.829,5.423-1.654c.842-.256,1.689-.5,2.525-.768.553-.179,1.122-.3,1.659-.534.16-.048.322-.09.48-.146a10.133,10.133,0,0,0,1.923-.83,2.142,2.142,0,0,0,.232-.1A8.548,8.548,0,0,0,88.725,61.3a5.692,5.692,0,0,0,1.138-3.049c.054-.538.087-1.079.149-1.617.073-.62.126-1.243.176-1.865.032-.388.069-.775.1-1.162l.121-1.342q.182-1.971.362-3.942c.068-.771.124-1.543.211-2.311.024-.211-.028-.233-.213-.233q-4.148.009-8.3,0a.319.319,0,0,0-.356.251A32.432,32.432,0,0,0,80,57.733c0,.339,0,.339-.327.339H69.124c-.077,0-.154-.005-.23-.008a3.5,3.5,0,0,1,.041-.595,13.992,13.992,0,0,1,.151-1.759,24.109,24.109,0,0,1,.806-3.808,18.128,18.128,0,0,1,2.159-4.733,21.817,21.817,0,0,1,3.027-3.6c.509-.5,1-1.021,1.524-1.507.966-.9,1.954-1.77,2.924-2.663a28.255,28.255,0,0,0,2.332-2.571c.917-1.079,1.79-2.2,2.746-3.243.058-.063.133-.118.034-.207-.081-.071-.13-.181-.281-.073a1.494,1.494,0,0,1-.632.26,8.561,8.561,0,0,0-1.691.276c-.1-.094-.153.011-.207.058a10.027,10.027,0,0,1-1.2.889,4.918,4.918,0,0,1-3.063.8,12.345,12.345,0,0,1-1.991-.347c-.967-.235-1.906-.587-2.885-.771a2.027,2.027,0,0,0-2.627,1.462c-.025.072-.046.146-.067.219a8.841,8.841,0,0,0-.269,2.324c0,.121.01.213-.172.212-1.866-.009-3.731-.009-5.6-.011q0-5.322-.006-10.645c0-.208.079-.233.256-.233q3.065.008,6.129,0c.22,0,.268.069.264.273-.013.6,0,1.2,0,1.864a5.794,5.794,0,0,1,1.184-1.407,4.317,4.317,0,0,1,1.59-.9,8.735,8.735,0,0,1,3.526-.186,19.864,19.864,0,0,1,2.87.7,33.328,33.328,0,0,0,3.385.924A3.444,3.444,0,0,0,85,28.97a2.338,2.338,0,0,0,1.354-1.07c.062-.118.16-.1.257-.1q1.785,0,3.572,0a11.78,11.78,0,0,1-.256,1.773,23.241,23.241,0,0,1-2.08,5.586c-.931,1.852-2.007,3.621-3.079,5.394-.352.582-.679,1.178-1,1.826h1.889c-.2.354-.393.711-.6,1.061-.107.18-.07.224.136.223q2.88-.009,5.76,0c.222,0,.276-.091.287-.278C91.268,43.044,91.3,42.7,91.325,42.359Z" style="fill:#faf3d3"/><path d="M72.483,14.02a3.979,3.979,0,0,1-.911-.3,28.739,28.739,0,0,1-4.1-1.914,11.32,11.32,0,0,1-1.159-.79c-.794-.591-1.686-1.036-2.447-1.679s-1.473-1.326-2.207-1.992A19.565,19.565,0,0,0,56.3,3.858c-.048-.022-.093-.051-.139-.077a5.531,5.531,0,0,1,1.263.408,20.153,20.153,0,0,1,5.032,2.837,22.225,22.225,0,0,1,1.86,1.609,25.833,25.833,0,0,0,5.253,3.926,26.743,26.743,0,0,0,2.744,1.352C72.374,13.939,72.445,13.954,72.483,14.02Z" style="fill:#67243c"/><path d="M72.622,14.067c-.057.012-.111.018-.141-.049C72.534,14.016,72.588,14.012,72.622,14.067Z" style="fill:#67243c"/><path d="M72.715,14.115c-.037-.009-.087.009-.1-.05C72.658,14.065,72.7,14.07,72.715,14.115Z" style="fill:#67243c"/><path d="M56.164,3.784a.107.107,0,0,1-.1-.047C56.1,3.743,56.146,3.735,56.164,3.784Z" style="fill:#67243c"/><path d="M89.588,16.739l-.048-.013C89.565,16.7,89.58,16.706,89.588,16.739Z" style="fill:#67243c"/><path d="M8.144,63.972c.039.006.07.02.073.066C8.166,64.045,8.132,64.035,8.144,63.972Z" style="fill:#b83552"/><path d="M7.982,63.853c.034-.009.052.006.058.039Z" style="fill:#b83552"/><path d="M8.038,63.89a.044.044,0,0,1,.052.043C8.056,63.938,8.04,63.922,8.038,63.89Z" style="fill:#b83552"/><path d="M8.089,63.932a.042.042,0,0,1,.05.037C8.1,63.983,8.089,63.968,8.089,63.932Z" style="fill:#b83552"/><path d="M92.952,19.321c-.043-.007-.057-.038-.065-.074C92.949,19.236,92.955,19.274,92.952,19.321Z" style="fill:#b83552"/><path d="M92.885,19.242l-.039-.049C92.88,19.192,92.9,19.207,92.885,19.242Z" style="fill:#b83552"/><path d="M92.847,19.193l-.043-.052A.041.041,0,0,1,92.847,19.193Z" style="fill:#b83552"/><path d="M92.808,19.144l-.054-.055A.058.058,0,0,1,92.808,19.144Z" style="fill:#b83552"/><path d="M92.756,24.2a24.271,24.271,0,0,0-4.335-.22,30.152,30.152,0,0,1-10.034-1.652,28.973,28.973,0,0,1-10.718-6.544A17.664,17.664,0,0,0,59.046,11.1a17.033,17.033,0,0,0-5.028-.445A18.116,18.116,0,0,0,43.16,15.146c-1.011.9-1.969,1.852-3.045,2.676a29.766,29.766,0,0,1-12,5.512,33.979,33.979,0,0,1-7.373.645,17.507,17.507,0,0,0-4.166.365,9.429,9.429,0,0,0-3.209,1.391.518.518,0,0,1-.291.036c-1.98,0-3.96,0-5.94,0-.2,0-.255.043-.255.25q.012,4.708,0,9.416c0,.146,0,.291-.008.437a5.721,5.721,0,0,1-.1-.9c-.069-.791-.15-1.582-.22-2.374-.053-.6-.079-1.206-.149-1.806-.107-.92-.166-1.843-.212-2.767a12.233,12.233,0,0,1,.126-2.613,6.042,6.042,0,0,1,.8-2.258,6.973,6.973,0,0,1,2.93-2.48A10.984,10.984,0,0,1,14.42,19.6c.734-.041,1.471-.067,2.208-.058,1.035.013,2.069-.009,3.1-.081s2.052-.2,3.07-.378a27.6,27.6,0,0,0,4.113-1.036,30.3,30.3,0,0,0,4.933-2.136,30.5,30.5,0,0,0,3.075-1.932,36.443,36.443,0,0,0,3.609-3.06A17.133,17.133,0,0,1,41.2,8.9a17.387,17.387,0,0,1,7.458-2.546A15.453,15.453,0,0,1,51.2,6.211a24.5,24.5,0,0,1,2.641.3,17.119,17.119,0,0,1,4.539,1.441,18.065,18.065,0,0,1,4.9,3.425q.876.849,1.821,1.618a28.678,28.678,0,0,0,4.839,3.17,29.813,29.813,0,0,0,4.489,1.892,29.955,29.955,0,0,0,4.725,1.132,32.763,32.763,0,0,0,3.7.347c1.112.048,2.225-.014,3.338.043.635.032,1.268.061,1.9.146a10.375,10.375,0,0,1,3.669,1.2c.064.035.115.109.2.084h0l.041.055a5.453,5.453,0,0,1,.684,2.034A3.558,3.558,0,0,1,92.756,24.2Z" style="fill:#67243c"/><path d="M91.952,21.012c-.09.025-.141-.049-.2-.084a10.375,10.375,0,0,0-3.669-1.2c-.631-.085-1.264-.114-1.9-.146-1.113-.057-2.226.005-3.338-.043a32.763,32.763,0,0,1-3.7-.347,29.955,29.955,0,0,1-4.725-1.132,29.813,29.813,0,0,1-4.489-1.892A28.678,28.678,0,0,1,65.092,13q-.945-.769-1.821-1.618a18.065,18.065,0,0,0-4.9-3.425,17.119,17.119,0,0,0-4.539-1.441,24.5,24.5,0,0,0-2.641-.3,15.453,15.453,0,0,0-2.536.141A17.387,17.387,0,0,0,41.2,8.9a17.133,17.133,0,0,0-2.67,2.025,36.443,36.443,0,0,1-3.609,3.06,30.5,30.5,0,0,1-3.075,1.932,30.3,30.3,0,0,1-4.933,2.136A27.6,27.6,0,0,1,22.8,19.087c-1.018.174-2.039.3-3.07.378s-2.068.094-3.1.081c-.737-.009-1.474.017-2.208.058a10.984,10.984,0,0,0-4.363,1.063,6.973,6.973,0,0,0-2.93,2.48,6.042,6.042,0,0,0-.8,2.258A12.233,12.233,0,0,0,6.2,28.018c.046.924.1,1.847.212,2.767.07.6.1,1.2.149,1.806.07.792.151,1.583.22,2.374a5.721,5.721,0,0,0,.1.9c0,.871.007,1.742,0,2.612,0,.14.024.209.186.2.3-.014.611-.007.917-.009q2.8,0,5.6.009c.156,0,.172-.062.17-.189A10.346,10.346,0,0,1,13.841,37a4.282,4.282,0,0,1,.533-1.7,1.757,1.757,0,0,1,1.358-.875,3.569,3.569,0,0,1,1.385.129,36.792,36.792,0,0,0,3.9.969,5.037,5.037,0,0,0,3.416-.609,10.046,10.046,0,0,0,1.4-1c.06-.051.112-.169.224-.069a.161.161,0,0,1-.058.12,55.231,55.231,0,0,1-4,3.88c-.01-.065-.059-.075-.114-.091q-1.329-.36-2.655-.728a2.748,2.748,0,0,0-1.518.021,2,2,0,0,0-1.3,1.442,7.053,7.053,0,0,0-.321,2.491c0,.172-.033.24-.226.24q-3.18-.011-6.359,0A.341.341,0,0,1,9.23,41.1c-.167-.19-.341-.373-.512-.56-.428-.471-.853-.943-1.283-1.412a.82.82,0,0,0-.289-.247c.023.317.039.607.065.9.078.86.183,1.718.227,2.581l-2.071,0q-.253-2.717-.5-5.433-.243-2.625-.478-5.252c-.15-1.682-.308-3.363-.436-5.047a13.386,13.386,0,0,1,.183-4.1,5.641,5.641,0,0,1,2.332-3.395,9.872,9.872,0,0,1,4.421-1.707,34.458,34.458,0,0,1,4.508-.183,29.666,29.666,0,0,0,17.483-5.756,39.694,39.694,0,0,0,3.373-2.893,17.562,17.562,0,0,1,8.905-4.381A19.776,19.776,0,0,1,48.2,3.885a17.127,17.127,0,0,1,2.339.178A17.873,17.873,0,0,1,60.885,8.994a29.209,29.209,0,0,0,13.861,7.493,27.965,27.965,0,0,0,5.376.723c1.374.053,2.75.014,4.124.074a11.378,11.378,0,0,1,4.943,1.206,6.91,6.91,0,0,1,2.587,2.2A.937.937,0,0,1,91.952,21.012Z" style="fill:#b83552"/><path d="M83.549,64.552c-.138,0-.276-.007-.414-.007q-4.548,0-9.1,0a.431.431,0,0,1-.354-.156q-1.706-1.887-3.419-3.764c.086-.077.191-.042.287-.043H81.984a1.614,1.614,0,0,1,.184,0c.145.016.184-.053.182-.189-.016-1.1.039-2.2.133-3.3.061-.716.143-1.43.251-2.139a27.925,27.925,0,0,1,.629-2.913c.318-1.2.691-2.383,1.127-3.545a.239.239,0,0,1,.27-.18q3.007.006,6.015.005-.182,1.971-.362,3.942c-.66,0-1.321.013-1.98,0a.328.328,0,0,0-.374.264,31.383,31.383,0,0,0-2.107,11.054,10.133,10.133,0,0,1-1.923.83C83.871,64.462,83.709,64.5,83.549,64.552Z" style="fill:#67243c"/><path d="M90.775,48.319q-3.008,0-6.015-.005a.239.239,0,0,0-.27.18c-.436,1.162-.809,2.345-1.127,3.545a27.925,27.925,0,0,0-.629,2.913c-.108.709-.19,1.423-.251,2.139-.094,1.1-.149,2.2-.133,3.305,0,.136-.037.2-.182.189a1.614,1.614,0,0,0-.184,0H70.553c-.1,0-.2-.034-.287.043l-1.912-2.063c-.135-.146-.268-.293-.4-.439.071-.066.159-.034.24-.039a4.846,4.846,0,0,0,.7-.023c.076,0,.153.008.23.008H79.677c.326,0,.328,0,.327-.339a32.432,32.432,0,0,1,2.117-11.708.319.319,0,0,1,.356-.251q4.148.012,8.3,0c.185,0,.237.022.213.233C90.9,46.776,90.843,47.548,90.775,48.319Z" style="fill:#b83552"/><path d="M68.894,58.064a4.846,4.846,0,0,1-.7.023c-.081,0-.169-.027-.24.039a.231.231,0,0,1-.172-.256c.021-1.276.077-2.549.218-3.82.067-.6.191-1.189.244-1.789a.636.636,0,0,0,.041-.107,22.6,22.6,0,0,1,1.1-3.834,20.311,20.311,0,0,1,.936-1.993,2.336,2.336,0,0,0,.282-.546.769.769,0,0,0,.124-.132,13.841,13.841,0,0,1,.842-1.262c.174-.234.353-.465.551-.727h-.3q-7.155,0-14.312,0c-.162,0-.4.085-.468-.05-.06-.116.122-.291.2-.441a4.7,4.7,0,0,0,.412-.789l1.938-.016,5.865.005h.909q3.387,0,6.772.007a.343.343,0,0,0,.268-.145c.931-.992,1.914-1.929,2.918-2.845.572-.522,1.138-1.051,1.707-1.576a51.746,51.746,0,0,0,3.82-3.688c.076-.08.187-.143.2-.274a8.561,8.561,0,0,1,1.691-.276,1.494,1.494,0,0,0,.632-.26c.151-.108.2,0,.281.073.1.089.024.144-.034.207-.956,1.047-1.829,2.164-2.746,3.243A28.255,28.255,0,0,1,79.526,39.4c-.97.893-1.958,1.766-2.924,2.663-.523.486-1.015,1.006-1.524,1.507a21.817,21.817,0,0,0-3.027,3.6A18.128,18.128,0,0,0,69.892,51.9a24.109,24.109,0,0,0-.806,3.808,13.992,13.992,0,0,0-.151,1.759A3.5,3.5,0,0,0,68.894,58.064Z" style="fill:#fcd382"/><path d="M5.367,42.362l2.071,0a.181.181,0,0,0,.023,0q4.85,0,9.7.008a.275.275,0,0,0,.217-.1c.2-.219.408-.439.617-.653,1.285-1.312,2.661-2.527,4.011-3.77a55.231,55.231,0,0,0,4-3.88.161.161,0,0,0,.058-.12,5.193,5.193,0,0,1,1.416-.244,1.5,1.5,0,0,0,.862-.278c.15-.126.221-.053.321.046.134.13,0,.184-.064.257s-.149.155-.218.236q-.831.983-1.658,1.967c-.532.633-1.059,1.269-1.595,1.9A17.637,17.637,0,0,1,23.452,39.5c-1.059.943-2.112,1.893-3.134,2.876-.758.728-1.508,1.465-2.216,2.245a19.873,19.873,0,0,0-2.132,2.73,18.525,18.525,0,0,0-2.223,5.174,23.064,23.064,0,0,0-.656,3.508c-.071.676-.116,1.354-.167,2.032-.323.051-.649,0-.972.028-.177.012-.139-.117-.14-.217a32.091,32.091,0,0,1,.179-3.6,24.482,24.482,0,0,1,.5-3,26.14,26.14,0,0,1,.891-2.924c.262-.61.526-1.219.836-1.806a7.711,7.711,0,0,0,.406-.768c.237-.282.4-.614.609-.913.282-.4.567-.8.912-1.21h-.276q-5.055,0-10.109.005c-.237,0-.3-.09-.314-.3C5.43,43.031,5.4,42.7,5.367,42.362Z" style="fill:#fcd382"/><path d="M62.848,26.471a1.1,1.1,0,0,0,.035-.52c0-.143.052-.182.189-.182q3.238.006,6.475,0c.1,0,.19,0,.176.14v1.665l.052.022a7.926,7.926,0,0,1,.719-.882c.25-.188.5-.38.751-.565a4.374,4.374,0,0,1,2.123-.743A11.045,11.045,0,0,1,74.9,25.34a12.054,12.054,0,0,1,2.934.5c1.291.354,2.561.789,3.864,1.1a4,4,0,0,0,2.111.068,2.2,2.2,0,0,0,1.529-1.151c.055-.124.148-.089.232-.089q2.006,0,4.01,0c.184,0,.368,0,.553,0,.1,0,.162.03.151.143,0,.343.011.687-.013,1.029a4.343,4.343,0,0,1-.086.858q-1.787,0-3.572,0c-.1,0-.195-.018-.257.1A2.338,2.338,0,0,1,85,28.97a3.444,3.444,0,0,1-1.857.1,33.328,33.328,0,0,1-3.385-.924,19.864,19.864,0,0,0-2.87-.7,8.735,8.735,0,0,0-3.526.186,4.317,4.317,0,0,0-1.59.9,5.794,5.794,0,0,0-1.184,1.407c0-.661-.008-1.262,0-1.864,0-.2-.044-.274-.264-.273q-3.064.014-6.129,0c-.177,0-.257.025-.256.233q.011,5.322.006,10.645l-.965.013c-.165.005-.127-.116-.127-.208q-.006-1.034-.01-2.067a.505.505,0,0,0,.008-.068l0-9.6C62.857,26.654,62.851,26.562,62.848,26.471Z" style="fill:#fcd382"/><path d="M13.384,48.357a26.14,26.14,0,0,0-.891,2.924,24.482,24.482,0,0,0-.5,3,32.091,32.091,0,0,0-.179,3.6c0,.1-.037.229.14.217.279.3.557.6.837.906a.915.915,0,0,1,.232.334q.1,1.086.208,2.17.143,1.486.283,2.971c.007.069,0,.138.006.207a13.57,13.57,0,0,1-3.32-1.39c-.11-.067-.212-.149-.318-.224a2.185,2.185,0,0,0-.089-.211A5.931,5.931,0,0,1,9.142,60.6c-.086-.851-.158-1.7-.238-2.556-.105-1.1-.215-2.2-.316-3.309-.069-.753-.125-1.508-.192-2.261-.089-1.005-.187-2.009-.272-3.014a1.262,1.262,0,0,0-.45-1.071c-.014-.009-.013-.039-.022-.066.039,0,.068-.008.1-.008h5.438C13.255,48.317,13.328,48.3,13.384,48.357Z" style="fill:#67243c"/><path d="M90.187,27.8a4.343,4.343,0,0,0,.086-.858c.024-.342.01-.686.013-1.029.388.358.722.767,1.082,1.151.412.441.817.889,1.225,1.334-.092,1.028-.186,2.055-.275,3.082-.028.326-.033.653-.093.976-.011.01-.029.019-.032.031a21.8,21.8,0,0,1-1.087,3.235,32.168,32.168,0,0,1-1.6,3.283c-.619,1.136-1.279,2.248-1.947,3.356l-1.9.018H83.774c.319-.648.646-1.244,1-1.826,1.072-1.773,2.148-3.542,3.079-5.394a23.241,23.241,0,0,0,2.08-5.586A11.78,11.78,0,0,0,90.187,27.8Z" style="fill:#b83552"/><path d="M13.384,48.357c-.056-.058-.129-.04-.2-.04H7.75c-.03,0-.059,0-.1.008.009.027.008.057.022.066a1.262,1.262,0,0,1,.45,1.071c.085,1.005.183,2.009.272,3.014.067.753.123,1.508.192,2.261.1,1.1.211,2.206.316,3.309.08.852.152,1.7.238,2.556a5.931,5.931,0,0,0,.649,2.257,2.185,2.185,0,0,1,.089.211,6.214,6.214,0,0,1-3.007-4.543c-.2-1.769-.348-3.543-.508-5.316-.158-1.75-.327-3.5-.489-5.248-.063-.673-.117-1.346-.189-2.017-.023-.225.122-.164.229-.164q3.848,0,7.7,0c.338,0,.676,0,1.014,0a7.711,7.711,0,0,1-.406.768C13.91,47.138,13.646,47.747,13.384,48.357Z" style="fill:#b83552"/><path d="M62.989,38.687l.965-.013c1.866,0,3.731,0,5.6.011.182,0,.17-.091.172-.212a8.841,8.841,0,0,1,.269-2.324c.021-.073.042-.147.067-.219a2.027,2.027,0,0,1,2.627-1.462c.979.184,1.918.536,2.885.771a12.345,12.345,0,0,0,1.991.347,4.918,4.918,0,0,0,3.063-.8,10.027,10.027,0,0,0,1.2-.889c.054-.047.107-.152.207-.058-.009.131-.12.194-.2.274a51.746,51.746,0,0,1-3.82,3.688c-.927-.259-1.852-.525-2.782-.776a2.656,2.656,0,0,0-1.712.078,2.15,2.15,0,0,0-1.176,1.529,7.093,7.093,0,0,0-.277,2.313c0,.208-.049.272-.265.271q-3.109-.012-6.219,0a.583.583,0,0,1-.49-.229c-.224-.262-.455-.517-.688-.771C63.937,39.709,63.462,39.2,62.989,38.687Z" style="fill:#b83552"/><path d="M87.563,42.361c.668-1.108,1.328-2.22,1.947-3.356a32.168,32.168,0,0,0,1.6-3.283,21.8,21.8,0,0,0,1.087-3.235c0-.012.021-.021.032-.031-.044.826-.147,1.646-.224,2.469-.07.747-.132,1.5-.2,2.242-.069.763-.142,1.525-.213,2.287q-.1,1.074-.2,2.149c-.023.252-.042.5-.063.756Z" style="fill:#67243c"/><path d="M87.563,42.361l3.762,0c-.026.343-.057.685-.078,1.028-.011.187-.065.279-.287.278q-2.88-.014-5.76,0c-.206,0-.243-.043-.136-.223.206-.35.4-.707.6-1.061Z" style="fill:#fcd382"/><path d="M91.99,21.067l-.041-.055Z" style="fill:#b83552"/><path d="M69.383,48.32a22.6,22.6,0,0,0-1.1,3.834.636.636,0,0,1-.041.107c-2.6,0-5.193,0-7.79,0a.333.333,0,0,0-.379.257A33.57,33.57,0,0,0,58.3,59.24a32.966,32.966,0,0,0-.34,5.052c0,.22-.068.257-.268.257q-5.818-.009-11.638,0a.43.43,0,0,1-.355-.155q-1.707-1.889-3.423-3.767,2.673,0,5.346,0,3.239,0,6.476,0c.149,0,.271,0,.267-.209A33.051,33.051,0,0,1,54.5,57.04c.06-.7.142-1.4.251-2.093a28.153,28.153,0,0,1,.674-3.089c.309-1.132.662-2.248,1.073-3.347a.267.267,0,0,1,.3-.2c.76.007,1.52,0,2.281,0Z" style="fill:#67243c"/><path d="M40.256,52.26c-2.581,0-5.163.006-7.744,0a.389.389,0,0,0-.444.3,33.919,33.919,0,0,0-1.756,6.682,33.2,33.2,0,0,0-.34,5.051c0,.218-.063.259-.266.259q-5.82-.009-11.639,0a.428.428,0,0,1-.355-.155q-1.706-1.887-3.422-3.767c.107,0,.215,0,.322,0H25.993c.062,0,.124-.005.185,0,.15.012.2-.058.2-.2,0-.728-.015-1.457.046-2.185.054-.639.078-1.283.152-1.92a27.668,27.668,0,0,1,.447-2.757A36.508,36.508,0,0,1,28.5,48.539a.3.3,0,0,1,.333-.227q6.15.008,12.3.005c.082,0,.171-.027.241.044-.252.694-.5,1.389-.686,2.1C40.534,51.061,40.4,51.662,40.256,52.26Z" style="fill:#67243c"/><path d="M69.383,48.32l-10.3,0c-.761,0-1.521,0-2.281,0a.267.267,0,0,0-.3.2c-.411,1.1-.764,2.215-1.073,3.347a28.153,28.153,0,0,0-.674,3.089c-.109.694-.191,1.392-.251,2.093a33.051,33.051,0,0,0-.134,3.374c0,.213-.118.209-.267.209q-3.239,0-6.476,0-2.673,0-5.346,0-1.062-1.149-2.125-2.3l-.187-.2c.071-.065.159-.035.24-.04a5,5,0,0,0,.7-.022c.031,0,.062.007.092.007q5.392,0,10.785,0c.2,0,.238-.068.237-.252a35.991,35.991,0,0,1,.281-4.617,32.636,32.636,0,0,1,1.859-7.247.235.235,0,0,1,.262-.184q8.09.006,16.178,0a2.336,2.336,0,0,1-.282.546A20.311,20.311,0,0,0,69.383,48.32Z" style="fill:#b83552"/><path d="M41.375,48.361c-.07-.071-.159-.044-.241-.044q-6.151,0-12.3-.005a.3.3,0,0,0-.333.227,36.508,36.508,0,0,0-1.475,5.017,27.668,27.668,0,0,0-.447,2.757c-.074.637-.1,1.281-.152,1.92-.061.728-.045,1.457-.046,2.185,0,.146-.051.216-.2.2-.061-.005-.123,0-.185,0H14.612c-.107,0-.215,0-.322,0-.359-.385-.715-.771-1.077-1.152-.053-.056-.084-.155-.192-.139A.915.915,0,0,0,12.789,59c-.28-.3-.558-.6-.837-.906.323-.027.649.023.972-.028l.023,0q5.451,0,10.9.007c.19,0,.184-.092.184-.226a38.571,38.571,0,0,1,.266-4.481,32.517,32.517,0,0,1,1.884-7.43.208.208,0,0,1,.23-.163q8.1.007,16.2.006a.527.527,0,0,1-.035.106A19.954,19.954,0,0,0,41.375,48.361Z" style="fill:#b83552"/><path d="M41.375,48.361a19.954,19.954,0,0,1,1.2-2.473.469.469,0,0,0,.034-.106.366.366,0,0,0,.137-.152,14.065,14.065,0,0,1,.921-1.374,4.845,4.845,0,0,0,.436-.6H29.243c-.259,0-.256,0-.145-.227.175-.358.417-.68.558-1.055l1.938-.015,5.862,0h.911q3.374,0,6.749.007a.363.363,0,0,0,.291-.145c.932-1,1.925-1.94,2.934-2.862.566-.517,1.128-1.039,1.691-1.56a50.079,50.079,0,0,0,3.738-3.6c.1-.108.243-.192.278-.355a5.559,5.559,0,0,1,1.1-.2,2.121,2.121,0,0,0,1.24-.35c.118-.094.174.01.248.073.108.092.036.16-.024.23-.317.365-.638.725-.95,1.093q-1.143,1.349-2.279,2.705a23.229,23.229,0,0,1-2.5,2.6c-1.187,1.041-2.333,2.129-3.467,3.229-.506.491-.981,1.011-1.454,1.533A20.3,20.3,0,0,0,44.4,46.675a18.5,18.5,0,0,0-2.759,6.179,23.055,23.055,0,0,0-.56,3.086Q40.96,57,40.907,58.065a5,5,0,0,1-.7.022c-.081,0-.169-.025-.24.04-.128-.035-.171-.11-.17-.248.006-1.149.069-2.294.176-3.439.068-.731.2-1.452.286-2.18.144-.6.278-1.2.433-1.795C40.876,49.75,41.123,49.055,41.375,48.361Z" style="fill:#fcd382"/><path d="M7.984,38.675c-.306,0-.612,0-.917.009-.162.007-.186-.062-.186-.2,0-.87,0-1.741,0-2.612,0-.146.008-.291.008-.437q0-4.709,0-9.416c0-.207.056-.251.255-.25,1.98.008,3.96,0,5.94,0a.518.518,0,0,0,.291-.036c.08.062.174.036.262.035.106,0,.127.055.124.141V27.64c.115-.154.192-.258.27-.361A4.321,4.321,0,0,0,14.5,26.7c.2-.02.294-.188.422-.3a4.617,4.617,0,0,1,2.5-1,11.337,11.337,0,0,1,4.753.526q1.617.486,3.241.944a4.976,4.976,0,0,0,1.928.231,2.392,2.392,0,0,0,2.013-1.222c.065-.124.149-.108.244-.108h4.031c.177,0,.354,0,.53,0,.105,0,.163.028.153.141,0,.206,0,.412,0,.618a8.088,8.088,0,0,1-.1,1.272H30.641c-.1,0-.192-.014-.256.1a2.475,2.475,0,0,1-1.8,1.188,4.34,4.34,0,0,1-1.932-.121c-1.271-.31-2.514-.725-3.772-1.084a12.6,12.6,0,0,0-3.109-.538,10.005,10.005,0,0,0-1.691.125A4.674,4.674,0,0,0,15.2,29.124c-.2.227-.359.483-.554.72-.021-.606-.028-1.2-.017-1.8,0-.184-.04-.251-.239-.25q-3.089.01-6.176,0c-.182,0-.234.051-.233.234Q7.986,33.351,7.984,38.675Z" style="fill:#fcd382"/><path d="M42.486,26.7c.2-.019.294-.188.423-.3a4.707,4.707,0,0,1,2.546-1,11.451,11.451,0,0,1,4.686.52c1.248.367,2.483.783,3.754,1.067a3.476,3.476,0,0,0,2.59-.24,1.859,1.859,0,0,0,.859-.864c.056-.133.148-.109.243-.109h4.031c.177,0,.354,0,.53,0,.1,0,.163.028.153.141,0,.313.014.628-.013.938a5.226,5.226,0,0,1-.088.951H58.628a.256.256,0,0,0-.269.121,2.571,2.571,0,0,1-2.148,1.214,4.976,4.976,0,0,1-1.769-.215c-1.193-.334-2.383-.681-3.572-1.032a11.737,11.737,0,0,0-3.292-.539,9.368,9.368,0,0,0-1.575.13A4.716,4.716,0,0,0,43.2,29.1c-.214.24-.376.518-.592.807,0-.654-.007-1.261,0-1.867,0-.188-.045-.249-.241-.248q-3.088.01-6.175,0c-.185,0-.232.055-.232.235q.009,5.322.006,10.645L35,38.687c-.163.008-.13-.11-.131-.2q0-1.034-.008-2.067,0-3.567,0-7.133c0-.935,0-1.871-.006-2.807,0-.061.007-.123.007-.184,0-.519,0-.519.514-.519q3.054,0,6.108,0c.1,0,.252-.065.244.137v1.728l.276-.361A4.239,4.239,0,0,0,42.486,26.7Z" style="fill:#fcd382"/><path d="M34.864,26.475c0,.936.006,1.872.006,2.807q0,3.567,0,7.133a.6.6,0,0,0-.137.236c-.545,1.208-1.187,2.366-1.849,3.513-.424.735-.856,1.465-1.285,2.2l-1.938.015H27.8c.053-.109.086-.177.12-.244.744-1.458,1.649-2.823,2.466-4.239a35.192,35.192,0,0,0,3.12-6.63,15.057,15.057,0,0,0,.707-3.463,8.088,8.088,0,0,0,.1-1.272c0-.206,0-.412,0-.618Z" style="fill:#b83552"/><path d="M62.2,27.8a5.226,5.226,0,0,0,.088-.951c.027-.31.01-.625.013-.938l.547.56c0,.091.009.183.009.275l0,9.6a.54.54,0,0,1-.008.069.675.675,0,0,0-.146.256c-.437.972-.951,1.9-1.464,2.837-.53.966-1.1,1.906-1.663,2.855l-1.938.016H55.786c.06-.118.1-.192.135-.267.678-1.336,1.5-2.588,2.256-3.88a36.09,36.09,0,0,0,3.317-6.967A15,15,0,0,0,62.2,27.8Z" style="fill:#b83552"/><path d="M70.494,26.716a7.926,7.926,0,0,0-.719.882l-.052-.022V25.911Z" style="fill:#b83552"/><path d="M42.486,26.7a4.239,4.239,0,0,1-.473.579l-.276.361V25.911Z" style="fill:#b83552"/><path d="M14.5,26.7a4.321,4.321,0,0,1-.477.578c-.078.1-.155.207-.27.361V25.911Z" style="fill:#b83552"/><path d="M34.213,27.8a15.057,15.057,0,0,1-.707,3.463,35.192,35.192,0,0,1-3.12,6.63c-.817,1.416-1.722,2.781-2.466,4.239-.034.067-.067.135-.12.244h1.856c-.141.375-.383.7-.558,1.055-.111.227-.114.227.145.227H44.108a4.845,4.845,0,0,1-.436.6,14.065,14.065,0,0,0-.921,1.374.366.366,0,0,1-.137.152q-8.1,0-16.2-.006a.208.208,0,0,0-.23.163,32.517,32.517,0,0,0-1.884,7.43,38.571,38.571,0,0,0-.266,4.481c0,.134.006.227-.184.226q-5.451-.009-10.9-.007l-.023,0c.051-.678.1-1.356.167-2.032a23.064,23.064,0,0,1,.656-3.508,18.525,18.525,0,0,1,2.223-5.174,19.873,19.873,0,0,1,2.132-2.73c.708-.78,1.458-1.517,2.216-2.245,1.022-.983,2.075-1.933,3.134-2.876a17.637,17.637,0,0,0,1.673-1.773c.536-.63,1.063-1.266,1.595-1.9q.828-.984,1.658-1.967c.069-.081.149-.154.218-.236s.2-.127.064-.257c-.1-.1-.171-.172-.321-.046a1.5,1.5,0,0,1-.862.278,5.193,5.193,0,0,0-1.416.244c-.112-.1-.164.018-.224.069a10.046,10.046,0,0,1-1.4,1,5.037,5.037,0,0,1-3.416.609,36.792,36.792,0,0,1-3.9-.969,3.569,3.569,0,0,0-1.385-.129,1.757,1.757,0,0,0-1.358.875,4.282,4.282,0,0,0-.533,1.7,10.346,10.346,0,0,0-.09,1.493c0,.127-.014.19-.17.189q-2.8-.01-5.6-.009,0-5.323-.006-10.646c0-.183.051-.234.233-.234q3.087.01,6.176,0c.2,0,.242.066.239.25-.011.6,0,1.193.017,1.8.195-.237.354-.493.554-.72a4.674,4.674,0,0,1,2.885-1.652,10.005,10.005,0,0,1,1.691-.125,12.6,12.6,0,0,1,3.109.538c1.258.359,2.5.774,3.772,1.084a4.34,4.34,0,0,0,1.932.121,2.475,2.475,0,0,0,1.8-1.188c.064-.116.158-.1.256-.1Z" style="fill:#faf3d3"/><path d="M22.006,37.846C20.656,39.089,19.28,40.3,18,41.616c-.209.214-.413.434-.617.653a.275.275,0,0,1-.217.1q-4.85-.006-9.7-.008a.181.181,0,0,1-.023,0c-.044-.863-.149-1.721-.227-2.581-.026-.289-.042-.579-.065-.9a.82.82,0,0,1,.289.247c.43.469.855.941,1.283,1.412.171.187.345.37.512.56a.341.341,0,0,0,.284.116q3.178,0,6.359,0c.193,0,.23-.068.226-.24a7.053,7.053,0,0,1,.321-2.491,2,2,0,0,1,1.3-1.442,2.748,2.748,0,0,1,1.518-.021q1.326.369,2.655.728C21.947,37.771,22,37.781,22.006,37.846Z" style="fill:#67243c"/><path d="M62.2,27.8a15,15,0,0,1-.706,3.463,36.09,36.09,0,0,1-3.317,6.967c-.754,1.292-1.578,2.544-2.256,3.88-.037.075-.075.149-.135.267h1.855a4.7,4.7,0,0,1-.412.789c-.074.15-.256.325-.2.441.068.135.306.05.468.05q7.157,0,14.312,0h.3c-.2.262-.377.493-.551.727a13.841,13.841,0,0,0-.842,1.262.769.769,0,0,1-.124.132q-8.09,0-16.178,0a.235.235,0,0,0-.262.184A32.636,32.636,0,0,0,52.3,53.207a35.991,35.991,0,0,0-.281,4.617c0,.184-.038.252-.237.252q-5.392-.008-10.785,0c-.03,0-.061-.005-.092-.007q.054-1.065.172-2.125a23.055,23.055,0,0,1,.56-3.086A18.5,18.5,0,0,1,44.4,46.675a20.3,20.3,0,0,1,1.564-1.924c.473-.522.948-1.042,1.454-1.533,1.134-1.1,2.28-2.188,3.467-3.229a23.229,23.229,0,0,0,2.5-2.6q1.132-1.358,2.279-2.705c.312-.368.633-.728.95-1.093.06-.07.132-.138.024-.23-.074-.063-.13-.167-.248-.073a2.121,2.121,0,0,1-1.24.35,5.559,5.559,0,0,0-1.1.2c-.1-.095-.153.008-.208.056a9.767,9.767,0,0,1-1.2.889,4.909,4.909,0,0,1-3.062.8,11.174,11.174,0,0,1-1.99-.348c-.964-.253-1.914-.568-2.887-.766a2.01,2.01,0,0,0-2.619,1.435c-.027.08-.052.161-.076.241a8.759,8.759,0,0,0-.267,2.325c0,.119.013.213-.171.212-1.866-.009-3.732-.008-5.6-.01q0-5.323-.006-10.645c0-.18.047-.235.232-.235q3.087.01,6.175,0c.2,0,.245.06.241.248-.011.606,0,1.213,0,1.867.216-.289.378-.567.592-.807A4.716,4.716,0,0,1,46,27.478a9.368,9.368,0,0,1,1.575-.13,11.737,11.737,0,0,1,3.292.539c1.189.351,2.379.7,3.572,1.032a4.976,4.976,0,0,0,1.769.215,2.571,2.571,0,0,0,2.148-1.214.256.256,0,0,1,.269-.121Z" style="fill:#faf3d3"/><path d="M59.579,42.361c.558-.949,1.133-1.889,1.663-2.855.513-.933,1.027-1.865,1.464-2.837a.675.675,0,0,1,.146-.256q0,1.032.01,2.066c0,.092-.038.213.127.208.473.511.948,1.022,1.42,1.535.233.254.464.509.688.771a.583.583,0,0,0,.49.229q3.109-.014,6.219,0c.216,0,.27-.063.265-.271a7.093,7.093,0,0,1,.277-2.313,2.15,2.15,0,0,1,1.176-1.529,2.656,2.656,0,0,1,1.712-.078c.93.251,1.855.517,2.782.776-.569.525-1.135,1.054-1.707,1.576-1,.916-1.987,1.853-2.918,2.845a.343.343,0,0,1-.268.145q-3.386-.009-6.772-.007l-.573-.649-.336.65Z" style="fill:#67243c"/><path d="M35.969,38.675c1.865,0,3.731,0,5.6.01.184,0,.169-.093.171-.212A8.759,8.759,0,0,1,42,36.148c.024-.08.049-.161.076-.241A2.01,2.01,0,0,1,44.7,34.472c.973.2,1.923.513,2.887.766a11.174,11.174,0,0,0,1.99.348,4.909,4.909,0,0,0,3.062-.8,9.767,9.767,0,0,0,1.2-.889c.055-.048.108-.151.208-.056-.035.163-.176.247-.278.355a50.079,50.079,0,0,1-3.738,3.6c-1-.271-1.994-.586-3.007-.822a2.479,2.479,0,0,0-1.487.126,2.058,2.058,0,0,0-1.131,1.375,6.943,6.943,0,0,0-.321,2.467c0,.209-.051.271-.266.27q-3.122-.012-6.241,0a.552.552,0,0,1-.452-.212c-.306-.343-.618-.68-.928-1.019l-1.2-1.3Z" style="fill:#b83552"/><path d="M35,38.687l1.2,1.3c.31.339.622.676.928,1.019a.552.552,0,0,0,.452.212q3.12-.014,6.241,0c.215,0,.27-.061.266-.27a6.943,6.943,0,0,1,.321-2.467,2.058,2.058,0,0,1,1.131-1.375,2.479,2.479,0,0,1,1.487-.126c1.013.236,2,.551,3.007.822-.563.521-1.125,1.043-1.691,1.56-1.009.922-2,1.861-2.934,2.862a.363.363,0,0,1-.291.145q-3.375-.009-6.749-.007l-.575-.648-.336.649-5.862,0c.429-.733.861-1.463,1.285-2.2.662-1.147,1.3-2.3,1.849-3.513a.6.6,0,0,1,.137-.236q0,1.033.008,2.067C34.874,38.577,34.841,38.7,35,38.687Z" style="fill:#67243c"/></svg>