<svg xmlns="http://www.w3.org/2000/svg" viewBox="0 0 77.303 36.4"><title>32red_l</title><path d="M29.9,13.8c.2-3.2-1.7-5.1-3.8-4.9s-2.8,1.5-3.3,3c-.1.4-1.3.3-2.4.1-1-.2-1.8-.6-1.6-1.1,3.5-9,14.4-4.9,13.3,3.3-.4,2.8-3,7.9-6.4,12A8.569,8.569,0,0,0,32,23.5c.4-.5.8-.6,1.1-.5s.1.5,0,.8c-2.3,4.1-8.7,6.8-14.9,6.5a.526.526,0,0,1-.6-.6c0-.4.7-.8,1.3-1.3C25.6,24,29.7,17.5,29.9,13.8Z" style="fill:#ff141a"/><path d="M77.2,28.9c-3.6-6.8-1.6-15.9-1.3-18.7.2-1.4-3-2.8-3.2-2.8s-.3.1-.3.4c-.1.3.4,6.3.1,7.8-4.9-.1-9.1,3.8-10.6,7.8a5.158,5.158,0,0,1-1.5,2.4,6.818,6.818,0,0,1-5.9,1.7A1.962,1.962,0,0,1,53,25.7c5.7-1.3,9.7-3.7,9.2-7.4-.3-2.1-2.7-3.6-6.3-2.1a12.1,12.1,0,0,0-6.2,7.4c-2.2.4-5.2-.4-9.5-1.8,6.9-.9,14.3-5.3,14.3-8.5,0-4.7-7.7-5-14.4-3.5a17.216,17.216,0,0,0-5.1,2c-.4.2-1.2,1.7-.6,1.8.7.1,4.3-1.4,5.7-1.8A7.172,7.172,0,0,0,38.2,15a27.7,27.7,0,0,0-.6,4.6,8.921,8.921,0,0,0-1.7.3c-.4.5-.8,1.6-.5,1.8.7.4,1.3.7,1.6.9,0,.5-1.4,7-1.1,7.2a3.916,3.916,0,0,0,2.7-1.5c.8-1.1.8-3.8,1-4.8A19.552,19.552,0,0,0,49.8,26a4.128,4.128,0,0,0,3.3,3.3,10.421,10.421,0,0,0,8.5-1.9,3.439,3.439,0,0,0,3.6,2.2c4.1,0,6.5-2.7,7.4-5.9a5.9,5.9,0,0,0,4,5.7C77.1,29.6,77.5,29.3,77.2,28.9ZM59.6,18.7c.4.8-.5,3-6.3,4.4C54.4,18.2,58.8,16.7,59.6,18.7Zm-19.2-7c5.4-1.1,9.9-.7,9.6,2.3-.1,1.7-5.2,4.9-10,5.4C40,18.3,40.4,12.8,40.4,11.7ZM65.3,26.8c-1-.1-1.4-1.8.1-4.4,1.9-3.4,4.7-5.1,7-5.2C71.8,22.1,69.5,27.1,65.3,26.8Z" style="fill:#ff141a"/><path d="M19.3,34.3A16.1,16.1,0,1,1,33.4,10.5a.953.953,0,0,0,.8.5c.5-.1.5-.6.3-1A18.22,18.22,0,1,0,18.2,36.4,18.149,18.149,0,0,0,35.7,23.1s.2-.7-.4-.6c-.5,0-.7.6-.7.6A16.155,16.155,0,0,1,19.3,34.3Z" style="fill:#ff141a"/><path d="M14.6,30.3c-5,.4-7.4-3.1-8.8-6.4-.2-.4.8-.8,1.3.2,3.1,6,9.8,4.6,10.1.2.3-4-4-5.6-9.5-5.6-.1,0-.2,0-.2-.2a7.017,7.017,0,0,1,.8-2.3c.1-.1.1-.2.3-.2,4.4-.6,6.8-2.1,6.5-5.2-.3-2.7-4.6-3.4-7-.2-.4.6-1.5.6-1.2.1,1.5-3,3.7-4.8,6.7-4.9a4.865,4.865,0,0,1,5,4.5,6.717,6.717,0,0,1-3.9,6.1c4.5.8,6.9,4.6,5.9,8.3C19.6,28.3,16.8,30.2,14.6,30.3Z" style="fill:#ff141a"/></svg>