<svg xmlns="http://www.w3.org/2000/svg" viewBox="0 0 421.86 72.22"><title>Dander</title><g id="Layer_2" data-name="Layer 2"><g id="Dander"><path d="M421.85,34.15c-.82,8.1-4.61,14.65-10.55,20-1.42,1.29-1.64,2.36-.79,4.08,1.47,3,2.75,6.07,4,9.17.89,2.23.36,3.84-1.3,4.33-2,.59-2.95-.63-3.63-2.18-2-4.5-3.92-9-5.92-13.5a3.16,3.16,0,0,1,1.08-4.16,37.85,37.85,0,0,0,4.34-3.83c6.88-7.66,9.64-16.46,5.65-26.25S403.22,6.49,392.43,6.1c-6-.21-11.95-.06-17.93-.13a21.5,21.5,0,0,1-4.16-.42,2.48,2.48,0,0,1-2.07-2.69A2.72,2.72,0,0,1,370.58.33a3.09,3.09,0,0,1,.52-.07c9.46.3,19.09-1.4,28.33,1.25C411.57,5,419.27,13,421.61,25.73,421.8,26.74,421.9,33.69,421.85,34.15Z" style="fill:#ffee2e"/><path d="M207.8,48.19c0-14,0-27.57,0-41.1A37.27,37.27,0,0,1,208,2.36a2.29,2.29,0,0,1,2.15-2A2.53,2.53,0,0,1,213,2.29a8.08,8.08,0,0,1,.19,2.61q0,24,0,48a12.33,12.33,0,0,1,0,2.11c-.44,2.42-2.09,3.32-4.18,2.09a29,29,0,0,1-4.15-3.22Q181.19,33.6,157.6,13.27c-1.3-1.11-2.32-2.69-4.22-3-1,1.66-.52,3.46-.53,5.17q-.06,25.08,0,50.16a34.91,34.91,0,0,1-.07,3.69A2.58,2.58,0,0,1,150,71.86c-1.74,0-2.47-1.16-2.72-2.67a15.31,15.31,0,0,1-.12-2.63q-.08-30.35-.12-60.71a12.58,12.58,0,0,1,.2-3.14c.61-2.25,2.5-3,4.47-1.72a38.94,38.94,0,0,1,4.09,3.31Q180,25.18,204.14,46.06A6.48,6.48,0,0,0,207.8,48.19Z" style="fill:#ffee2e"/><path d="M73.78,23.57c0-6,0-12,0-18A13.31,13.31,0,0,1,74.21,2a2.6,2.6,0,0,1,4.85.21,21.71,21.71,0,0,1,.26,4.2c0,10.74-.1,21.48,0,32.22.18,12.9,7.71,23.17,19.32,26.73,16.27,5,33.54-6.72,34.37-23.76.53-11.06.18-22.18.22-33.27,0-1.41,0-2.82,0-4.22,0-2,.74-3.65,2.92-3.61s2.9,1.68,3,3.65c0,.36,0,.71,0,1.06,0,11.8.2,23.6-.16,35.39-.44,14.79-9.82,26.78-24.09,30.46C92.06,77,74.45,59.68,73.87,41.53c-.19-6,0-12,0-18Z" style="fill:#ffee2e"/><path d="M241.3,72c-6,0-10.77,0-15.52,0-3.05,0-4.28-1-4-2.85.35-2.72,2.47-2.55,4.42-2.55,8.28,0,16.55.05,24.82,0a30.24,30.24,0,0,0,29.57-23.31c4.46-17.81-8.73-36-27.05-37.13-5.08-.31-10.2-.08-15.3-.17-3.62-.07-4.77-.77-4.88-2.73-.13-2.18,1.12-3.07,5.06-3,6.5.14,13-.58,19.48.7a35.93,35.93,0,0,1,.1,70.55C252,72.64,246,71.78,241.3,72Z" style="fill:#ffee2e"/><path d="M18.82,72c-4.57,0-9.15,0-13.72,0A15.74,15.74,0,0,1,2,71.81,2.31,2.31,0,0,1,.07,69.56,2.42,2.42,0,0,1,2,66.82a17.34,17.34,0,0,1,3.68-.22c7.74,0,15.48,0,23.22,0,16.67-.09,29.87-11.87,30.91-28.5A29.87,29.87,0,0,0,33.65,6.29c-5-.54-10.19-.23-15.29-.3a32.37,32.37,0,0,1-3.69-.08c-1.7-.23-3.13-1-3-3S13.22.21,15,.26C22.16.47,29.38-.36,36.55,1c18,3.45,30.23,19.78,28.75,38.54A35.64,35.64,0,0,1,31,72c-4,.09-8.09,0-12.14,0Z" style="fill:#ffee2e"/><path d="M11.72,36c0-6.51-.06-13,0-19.54,0-3.91.75-4.72,4.63-4.63,6.31.15,12.66-.75,18.92.78,12.14,3,19.63,13.44,18.42,25.88A24.44,24.44,0,0,1,30,60.42c-1.76,0-3.53,0-5.28-.11a2.33,2.33,0,0,1-2.3-2.42,2.39,2.39,0,0,1,2.11-2.61C26.23,55,28,55.13,29.76,55A19.31,19.31,0,0,0,47.7,35.7a18.18,18.18,0,0,0-15-17.86c-4.2-.8-8.42-.18-12.63-.45-2.15-.14-2.6,1.2-2.58,3,0,5.64,0,11.27,0,16.9,0,5.81,0,11.62,0,17.43a15.89,15.89,0,0,1-.3,3.65,2.52,2.52,0,0,1-2.77,1.94,2.47,2.47,0,0,1-2.59-2.17,21.58,21.58,0,0,1-.14-3.69Q11.71,45.25,11.72,36Z" style="fill:#ffee2e"/><path d="M233.35,35.89c0-6.51,0-13,0-19.52,0-4,.59-4.49,4.65-4.55,4.57-.08,9.14-.16,13.71,0,13.4.48,23.78,11.12,23.68,24.11a24.54,24.54,0,0,1-24.51,24.48,41.63,41.63,0,0,1-4.74-.14,2.3,2.3,0,0,1-2.12-2.57,2.35,2.35,0,0,1,2.24-2.49c1.74-.17,3.51-.08,5.26-.24,12.23-1.11,20.63-13.29,16.9-24.65-2.28-6.95-7.27-11-14.37-12.51-4-.86-8.07-.18-12.09-.46-2.58-.18-3.27,1.15-3.25,3.55.09,10.9,0,21.8,0,32.71,0,1.23,0,2.46,0,3.69-.06,1.82-.8,3.08-2.83,3-1.73-.07-2.44-1.2-2.53-2.79-.05-1.05-.05-2.11-.05-3.17Z" style="fill:#ffee2e"/><path d="M121.68,21.74V5.37a18.49,18.49,0,0,1,0-2.11,2.82,2.82,0,0,1,2.65-2.8,2.73,2.73,0,0,1,2.93,2.48,16.58,16.58,0,0,1,.15,3.16c0,10.38,0,20.77-.13,31.16-.07,6.3-1.24,12.31-6,16.94-6.26,6.08-13.72,7.82-21.91,5s-13.07-9-13.6-17.73-.17-17.6-.22-26.4c0-1.79.56-3.23,2.54-3.35,2.37-.15,2.92,1.56,2.94,3.49,0,6.51,0,13,0,19.54a34.87,34.87,0,0,0,.46,6.84c1.67,8.4,8.13,13.86,15.81,13.3s13.7-6.74,14.09-15.18c.28-6,.06-12,.06-17.95Z" style="fill:#ffee2e"/><path d="M382.92,47.59c-3.35,0-6.69,0-10,0s-4.82-.91-4.85-2.73c-.05-2.06,1.58-3.12,5.12-3.16,4.93,0,9.86,0,14.78,0,1.59,0,3.17,0,4.75-.09a12.43,12.43,0,0,0,11.88-11.33c.47-5.63-4.27-12.06-10.25-13-6.26-.95-12.64-.31-19-.3-1.6,0-2.05,1.14-2.07,2.49,0,2.46,0,4.92,0,7.38a28.32,28.32,0,0,1-.16,3.69,2,2,0,0,1-2.1,1.91,2.2,2.2,0,0,1-2-2.08,10.46,10.46,0,0,1-.08-1.58c0-4.4-.06-8.8,0-13.2.06-3.44.3-3.74,3.54-3.78,7-.09,14.08-.23,21.11,0,9.21.33,16.58,8.53,16.48,17.93-.1,9.76-7.14,17.37-16.56,17.77C390,47.71,386.44,47.59,382.92,47.59Z" style="fill:#ffee2e"/><path d="M164.37,35.2c-1.08,1.21-.57,2.66-.57,4,0,9,0,18,.08,26.93a27.8,27.8,0,0,1-.1,3.16c-.16,1.6-1,2.68-2.72,2.57a2.62,2.62,0,0,1-2.59-2.78c-.07-1.06-.06-2.12-.06-3.17V31.57c0-.53,0-1.05,0-1.58,0-1.59-.07-3.3,1.59-4.19,2-1.06,3.31.27,4.66,1.42L195.9,54.05q6.21,5.33,12.42,10.65a33.61,33.61,0,0,1,3.07,2.89,2.3,2.3,0,0,1,0,3.33,2.53,2.53,0,0,1-3.33.66,28.2,28.2,0,0,1-3.73-2.92q-18.43-15.81-36.88-31.61C166.53,36.29,165.89,35,164.37,35.2Z" style="fill:#ffee2e"/><path d="M357.41,36q0-14.79,0-29.57a25.2,25.2,0,0,1,.13-3.69A2.63,2.63,0,0,1,360,.35c1.68-.14,2.59,1,2.92,2.47A15,15,0,0,1,363.06,6q0,30.11,0,60.2a18.57,18.57,0,0,1-.23,3.66,2.43,2.43,0,0,1-2.65,2.08,2.49,2.49,0,0,1-2.62-2.13,20.61,20.61,0,0,1-.14-3.69Q357.41,51,357.41,36Z" style="fill:#ffee2e"/><path d="M327,61.27c-5.45,0-10.91.07-16.36,0-3.73-.06-4.2-.57-4.26-4.34-.08-4.92-.09-9.85,0-14.77.06-3.23.55-3.81,3.61-3.86,6.68-.11,13.36,0,20.05,0a6.2,6.2,0,0,1,2.06.3,2.33,2.33,0,0,1,1.6,2.45,2.2,2.2,0,0,1-1.89,2.21,21.41,21.41,0,0,1-3.67.21c-4.4,0-8.8-.05-13.19,0-3.35.07-3.37.15-3.46,3.7-.05,1.76-.06,3.52,0,5.28.11,3.45.13,3.56,3.58,3.58,8.62.07,17.24,0,25.86,0h4.22c1.7,0,3.32.33,3.39,2.42.09,2.44-1.74,2.77-3.6,2.78-6,0-12,0-17.94,0Z" style="fill:#ffee2e"/><path d="M327.65,11.69c5.27,0,10.55,0,15.82,0a15.32,15.32,0,0,1,3.65.33,2.14,2.14,0,0,1,1.47,2.48,2,2,0,0,1-1.5,1.94,22.36,22.36,0,0,1-4.17.35c-9,0-17.93,0-26.9,0-4.44,0-4.51.06-4.51,4.22,0,7.19-.81,6.47,6.46,6.51,3.69,0,7.38,0,11.08,0a14,14,0,0,1,3.11.34,2.08,2.08,0,0,1,1.54,1.93,2.33,2.33,0,0,1-1.43,2.54,3.65,3.65,0,0,1-1.52.36c-7.21,0-14.42,0-21.63,0a2.45,2.45,0,0,1-2.69-2.61c0-5.28-.06-10.55,0-15.82,0-2.45,1.93-2.58,3.78-2.58Z" style="fill:#ffee2e"/><path d="M295.14,30.74q0-12.39,0-24.78c0-2.24-.48-4.86,2.56-5.6,1.93-.47,2.94,1.5,3,5.66q0,24.78,0,49.56a19.52,19.52,0,0,1-.14,3.16,2.5,2.5,0,0,1-2.33,2.44c-1.71.1-2.59-1-2.86-2.51a20.5,20.5,0,0,1-.18-3.68Q295.12,42.87,295.14,30.74Z" style="fill:#ffee2e"/><path d="M382.4,53.27c3.51,0,7,.12,10.54-.05,2.65-.13,4.26.78,5.26,3.3,1.49,3.75,3.26,7.38,4.85,11.08.7,1.62.61,3.22-1.15,4.06s-3.07.08-3.88-1.57c-1.31-2.68-2.67-5.34-3.79-8.1a4,4,0,0,0-4.39-2.85c-4.56.15-9.13.11-13.7,0-2.22,0-3.26.79-3.1,3.08.11,1.57.1,3.16.08,4.74a14,14,0,0,1-.28,3.11A2.45,2.45,0,0,1,370,72a2.14,2.14,0,0,1-2.32-2.29c0-4.56,0-9.13,0-13.7,0-2.06,1.34-2.67,3.14-2.68H382.4Z" style="fill:#ffee2e"/><path d="M0,29.71Q0,17.83,0,6A25.57,25.57,0,0,1,.08,2.8,2.52,2.52,0,0,1,3,.37,2.41,2.41,0,0,1,5.26,2.81,30.15,30.15,0,0,1,5.36,6q0,24.54,0,49.09a23.64,23.64,0,0,1-.12,3.15A2.25,2.25,0,0,1,2.7,60.34,2.39,2.39,0,0,1,.11,58.21,26.68,26.68,0,0,1,0,54.52Q0,42.11,0,29.71Z" style="fill:#ffee2e"/><path d="M227.08,30.18V54c0,1.23,0,2.46-.05,3.69a2.55,2.55,0,0,1-2.65,2.69c-1.72.08-2.57-.91-2.68-2.56-.08-1.05-.08-2.11-.08-3.17q0-24.29,0-48.58a25.07,25.07,0,0,1,.19-3.68,2.33,2.33,0,0,1,2.18-2,2.46,2.46,0,0,1,2.82,1.86,14.31,14.31,0,0,1,.25,3.66Q227.1,18,227.08,30.18Z" style="fill:#ffee2e"/><path d="M321.83,72c-7,0-14,0-21,0-1.23,0-2.46,0-3.68-.15a2,2,0,0,1-1.77-1.71,2.41,2.41,0,0,1,1.24-2.66c1.25-.86,2.72-.55,4.09-.55q21.32,0,42.63,0a13.6,13.6,0,0,1,3.61.39,2.23,2.23,0,0,1,1.6,2.43,2.12,2.12,0,0,1-1.95,2.12,26.53,26.53,0,0,1-3.68.13Z" style="fill:#ffee2e"/><path d="M327.44,5.57c-5.26,0-10.52,0-15.78,0A18.38,18.38,0,0,1,308,5.2a2.19,2.19,0,0,1-1.64-2.39A2.15,2.15,0,0,1,308.16.52a18.53,18.53,0,0,1,3.65-.28q15.78,0,31.56,0A15.8,15.8,0,0,1,347,.59,2.16,2.16,0,0,1,348.62,3a2.12,2.12,0,0,1-1.74,2.29,20.37,20.37,0,0,1-3.66.28C338,5.58,332.7,5.57,327.44,5.57Z" style="fill:#ffee2e"/><path d="M201.69,17.47c0,4,0,8.06,0,12.08a12,12,0,0,1-.22,3.13,2.48,2.48,0,0,1-2.75,1.94,2.31,2.31,0,0,1-2.24-1.87,15.57,15.57,0,0,1-.26-3.13c0-8,0-16.11,0-24.17,0-2-.48-4.48,2.42-5.06,2-.4,3,1.31,3,5C201.72,9.41,201.69,13.44,201.69,17.47Z" style="fill:#ffee2e"/></g></g></svg>