<svg xmlns="http://www.w3.org/2000/svg" viewBox="0 0 256.94 141.97"><title>Betway</title><g id="Layer_2" data-name="Layer 2"><g id="Betway"><path d="M110,5.12h13.55c3.7,11.74,6.73,23.85,10.35,35.79l.52,0c2-7.95,4.05-15.9,6.09-23.92h9.18q3,11.93,6.06,23.88l.56,0c1.93-7.9,3.85-15.81,5.8-23.84h14.42c-4.68,15.27-9.35,30.46-14.06,45.82H151.6c-2.46-7.74-3.94-15.77-6.83-23.43-2.05,7.83-4.11,15.65-6.17,23.53H127.81Q119,34.16,110,5.12Z" style="fill:#fff"/><path d="M2.15,0H15.8V17.08a24.29,24.29,0,0,1,8.56-1.21,15.85,15.85,0,0,1,13.86,7.82c3.4,5.31,4.26,11.24,4,17.36a28.76,28.76,0,0,1-2.41,11.24c-3.4,7.09-9.08,10.8-16.82,11.65A42.87,42.87,0,0,1,3.56,61.25,2.39,2.39,0,0,1,1.75,58.6c.05-18.89,0-37.77,0-56.65A2.77,2.77,0,0,1,2.15,0ZM15.8,51.13a8,8,0,0,0,11.55-4.54,20.42,20.42,0,0,0,.15-13.06c-1.37-4.44-5.33-6.3-9.74-5.26-1.65.4-2,1.16-2,2.67.06,5.32,0,10.65,0,16Z" style="fill:#fff"/><path d="M242.58,17h14.25c.35.91-.22,1.52-.45,2.16q-9.6,26.28-19.27,52.52c-1.81,4.92-4.72,8.79-10.11,10.12-5.17,1.29-10,.19-14.85-2.12.89-3.73,2.25-7.23,3.36-10.88,1.34.49,2.58,1,3.87,1.41,2.87.85,4.9-.12,6-2.88.62-1.49,1.06-3,1.71-4.52a3.91,3.91,0,0,0,0-3.23q-7.78-20-15.48-40a5.48,5.48,0,0,1-.73-2.55h15.12q4,13.28,8,26.45h.56Z" style="fill:#fff"/><path d="M153.39,140.84H140.85a6.72,6.72,0,0,1-1.06-.21V94.79h11.65c.67,1.11.25,2.52,1.34,3.45.59.2.92-.37,1.34-.7a17.63,17.63,0,0,1,9-3.84c4.93-.49,10.89,1.37,13.9,6.44a20.72,20.72,0,0,1,2.73,10.41c.16,9.61.06,19.21.06,28.81a1.9,1.9,0,0,1-.44,1.36c-4.31.37-8.79-.09-13.11.12-.72-.68-.48-1.36-.48-2,0-7.83,0-15.66,0-23.49a17.09,17.09,0,0,0-.56-5.5c-1.32-3.88-4.58-5.3-8.23-3.54-2.35,1.14-3.65,2.68-3.59,5.62.2,9.11.09,18.23.1,27.35C153.47,139.7,153.43,140.1,153.39,140.84Z" style="fill:#0054a2"/><path d="M224.21,117.49c0,6.32-1.11,12-5,16.82A19.63,19.63,0,0,1,204,141.84c-11,.46-18.93-8-20.6-16.79-1.28-6.75-1.27-13.36,1.62-19.62A19,19,0,0,1,200.28,94c12.53-1.87,21.47,6.63,23.32,16.63A48,48,0,0,1,224.21,117.49Zm-13.53.3a18.14,18.14,0,0,0-1.62-8.44,6,6,0,0,0-6.42-3.68,5.66,5.66,0,0,0-4.78,3.59,20.37,20.37,0,0,0,0,17,5.67,5.67,0,0,0,5.68,3.71c2.76-.1,4.44-1.72,5.52-4A18.3,18.3,0,0,0,210.68,117.79Z" style="fill:#0054a2"/><path d="M84.1,43H58.32c-.32,3.83,1.35,7,4.62,8.32,4.66,1.82,8.45.16,11.59-3.75l8.64,7.65A18.92,18.92,0,0,1,68.7,63.85a25.4,25.4,0,0,1-10.07-.64A18.27,18.27,0,0,1,46.51,51.93c-3.5-9-3.28-18,1.44-26.58,3.37-6.13,8.74-9.15,15.75-9.49C70.55,15.54,76,18,79.83,23.69a26,26,0,0,1,3.73,10.12A36.49,36.49,0,0,1,84.1,43ZM58.38,34.23H70.82A7.4,7.4,0,0,0,69.54,29c-2.13-3.47-6.26-3.88-9-.86A7.63,7.63,0,0,0,58.38,34.23Z" style="fill:#fff"/><path d="M197.66,33.77c.18-4.86-2.63-7.3-7.07-6.49a10.42,10.42,0,0,0-3.81,1.4c-1.07.68-2.09,1.44-3.21,2.22l-6.19-8a20,20,0,0,1,9-5.91,23.82,23.82,0,0,1,13.81-.47c7.33,1.94,10.69,6.76,11.09,13.57.64,10.71.23,21.46.17,32.19a2.29,2.29,0,0,1-.24.6H199.81c-.76-.84-.5-2.18-1.42-2.94-.84,0-1.25.72-1.81,1.14a15.07,15.07,0,0,1-16.78.57,12,12,0,0,1-4.69-6.84,16.42,16.42,0,0,1-.05-9.52c1.48-5,5.15-7.79,9.91-9.39,3.77-1.26,7.74-1.37,11.63-2Zm.12,8.61c-.48-.14-.72-.3-.92-.26-1.64.35-3.33.28-5,.76-3,.87-4.74,3.31-4.25,6.3.45,2.73,2.67,4.16,5.93,3.82,1.68-.17,4.13-1.67,4.18-2.78C197.85,47.6,197.78,45,197.78,42.38Z" style="fill:#fff"/><path d="M64.71,137.76c-.8-.07-1.2.51-1.71.87a15.47,15.47,0,0,1-13,2.6,10.93,10.93,0,0,1-6.17-4c-5.6-7.18-4.2-19.51,6.95-23.27A47.74,47.74,0,0,1,61.84,112c2.14-.2,2.5-.6,2.06-2.74a5.25,5.25,0,0,0-5-4.41,10.49,10.49,0,0,0-6.65,1.83c-.8.53-1.57,1.12-2.49,1.78l-6-7.71a18.65,18.65,0,0,1,6.92-5.08c6-2.59,12.12-3,18.23-.34,4.6,2,7.1,5.64,8.2,10.39a25.49,25.49,0,0,1,.58,6c0,8.8,0,17.6,0,26.4a7,7,0,0,1-.23,2.64c-3.67.15-7.43.1-11.13-.06C65.34,139.89,65.5,138.56,64.71,137.76Zm-.92-17.65a6.22,6.22,0,0,0-2.71,0,28.36,28.36,0,0,0-3.31.61,5.9,5.9,0,0,0-4.26,5.26,5.2,5.2,0,0,0,3.14,4.74c2.09.8,5.57-.07,6.88-1.7a1.79,1.79,0,0,0,.43-1.1A42.21,42.21,0,0,0,63.79,120.11Z" style="fill:#0054a2"/><path d="M117.8,101.08,110.35,108a23.62,23.62,0,0,1-3-2.15c-2.77-2.07-5.83-2.16-9-1.72-1.68.23-3,1.41-3,2.69a3.24,3.24,0,0,0,2.2,3.16c3,1.4,6.28,1.9,9.37,3a22.26,22.26,0,0,1,6.67,3.31c4.31,3.48,5.22,8.21,4.49,13.33-1,6.78-5.62,10.14-11.8,11.52a30.38,30.38,0,0,1-15.06-.36,19.57,19.57,0,0,1-8.85-5.2,5.46,5.46,0,0,1-1.57-2.26l7.44-6.94c2.45,2.33,4.93,4.37,8.22,5a11.6,11.6,0,0,0,6.21-.23c1.41-.51,2.4-1.28,2.42-2.92a3.45,3.45,0,0,0-2.12-3.47,37.93,37.93,0,0,0-5.68-2A36,36,0,0,1,88.08,119c-3.77-2.39-5.36-5.92-5.61-10.15C82,101.28,85.94,96.8,92.8,94.73A26.53,26.53,0,0,1,111.88,96,13.61,13.61,0,0,1,117.8,101.08Z" style="fill:#0054a2"/><path d="M38.29,107.48,28,112.77c-.49-1.14-1-2.23-1.44-3.3a6.13,6.13,0,0,0-5.58-4c-2.53-.09-4.26,1.31-5.43,3.42-2,3.61-2.13,7.54-1.76,11.51A13.21,13.21,0,0,0,16,127.2c2.82,3.88,7.75,3.84,10.56,0a26.69,26.69,0,0,0,2-3.82L38.72,129c-1.64,4.94-4.43,8.77-9,10.93a20.87,20.87,0,0,1-17.55.22c-6-2.55-9.33-7.52-11-13.63a32.57,32.57,0,0,1,1.42-21.3A19.05,19.05,0,0,1,23.13,93.89a17.78,17.78,0,0,1,11.75,6.39A17.53,17.53,0,0,1,38.29,107.48Z" style="fill:#0054a2"/><path d="M115.68,59.66a17,17,0,0,1-8.08,3.9,21.12,21.12,0,0,1-9.81-.14,9.38,9.38,0,0,1-6.53-6.26,15.69,15.69,0,0,1-1-5.17c0-6.86-.07-13.72-.1-20.58V28.66c-1.84-.54-3.63,0-5.53-.41V16.92H90V5.14h14.17V16.59c2.1.61,4,.08,6.13.44,1.32,3.62,2.48,7.35,3.57,11.36h-9.17a1.54,1.54,0,0,0-.52,1.53c0,5.57,0,11.14,0,16.71a22,22,0,0,0,.24,3.13c.28,2,1.43,2.65,3.43,2.31,1.56-.26,2.73-1.28,4.27-2.06Z" style="fill:#fff"/><path d="M120.93,140.65V94.77h13.51c0,15.26,0,30.47,0,45.88Z" style="fill:#0054a2"/><path d="M127.61,90.65c-6.16.34-8-4.18-7.06-9.05a5.23,5.23,0,0,1,.33-.91c1.2-2.85,3.91-4,8.42-3.61a6,6,0,0,1,5.55,4.86C136.19,87.78,132.06,91.19,127.61,90.65Z" style="fill:#0054a2"/></g></g></svg>