<?xml version="1.0" encoding="utf-8"?>
<!-- Generator: Adobe Illustrator 16.0.0, SVG Export Plug-In . SVG Version: 6.00 Build 0)  -->
<!DOCTYPE svg PUBLIC "-//W3C//DTD SVG 1.1//EN" "http://www.w3.org/Graphics/SVG/1.1/DTD/svg11.dtd">
<svg version="1.1" id="Capa_1" xmlns="http://www.w3.org/2000/svg" xmlns:xlink="http://www.w3.org/1999/xlink" x="0px" y="0px"
	 width="743px" height="841.891px" viewBox="-64.861 0 743 841.891" enable-background="new -64.861 0 743 841.891"
	 xml:space="preserve">
<g>
	<g>
		<path fill="#FFCE00" d="M607.426,352.647c-2.052-6.314-7.507-10.916-14.076-11.87L408.81,313.961L326.279,146.74
			c-2.937-5.953-9-9.721-15.638-9.721c-6.64,0-12.7,3.768-15.64,9.721l-82.534,167.221L27.932,340.778
			c-6.567,0.954-12.026,5.555-14.077,11.868c-2.054,6.314-0.341,13.245,4.413,17.878l133.527,130.164L120.28,684.483
			c-1.124,6.544,1.566,13.153,6.938,17.058c3.038,2.206,6.637,3.329,10.253,3.329c2.775,0,5.563-0.661,8.112-2.003l165.059-86.778
			l165.052,86.777c5.877,3.089,12.996,2.575,18.366-1.327c5.37-3.901,8.062-10.516,6.938-17.059L469.47,500.688l133.543-130.164
			C607.766,365.891,609.479,358.96,607.426,352.647z"/>
	</g>
</g>
</svg>
