<?xml version="1.0" encoding="utf-8"?>
<!-- Generator: Adobe Illustrator 22.1.0, SVG Export Plug-In . SVG Version: 6.00 Build 0)  -->
<svg  fill="#1a4095" version="1.1" id="icons" xmlns="http://www.w3.org/2000/svg" xmlns:xlink="http://www.w3.org/1999/xlink" x="0px" y="0px"
	 viewBox="0 0 71.7 47.6" enable-background="new 0 0 71.7 47.6" xml:space="preserve">
<g>
	<path d="M52,19.5l0.9-3c0.3-1.1-0.3-2.3-1.4-2.6l-9.6-2.6V5.3c0-1.2-0.9-2.1-2.1-2.1H26.5v0.3l-0.9-2.2c-0.4-1-1.6-1.5-2.6-1.1
		L1.2,9c-0.5,0.2-0.9,0.6-1.1,1.1c-0.2,0.5-0.2,1,0,1.5l11.8,29c0.2,0.5,0.6,0.9,1.1,1.1c0.2,0.1,0.5,0.2,0.8,0.2
		c0.3,0,0.5,0,0.8-0.1l2.9-1.2l0,0.1l23.8,6.9c0.2,0.1,0.4,0.1,0.6,0.1c0.9,0,1.7-0.6,2-1.5l0.8-2.5c1.6,0.8,3.7,1.2,6,1.2
		c4.9,0,8.5-1.9,8.5-4.3v-4.2v-4.2V28v-4.2C59.1,21.6,56.1,19.8,52,19.5z M39.8,5.2c0.1,0,0.1,0,0.1,0.1v31c0,0.1,0,0.1-0.1,0.1
		H27.3l9-3.6h0c1-0.4,1.5-1.6,1.1-2.6l-10.2-25H39.8z M13.8,39.8L2,10.9L23.8,2l11.8,29L13.8,39.8z M41.9,45.5
		c0,0.1-0.1,0.1-0.1,0.1l-21.6-6.2l2.2-0.9h17.4c1.2,0,2.1-0.9,2.1-2.1V13.3l9,2.5c0.1,0,0.1,0.1,0.1,0.1l-1.1,3.6l0,0l-2.2,7.2
		L41.9,45.5z M50.6,42.9c-2.1,0-4.1-0.4-5.4-1.1l0.6-1.8c1.4,0.5,3.1,0.7,4.8,0.7c2.7,0,5-0.6,6.5-1.5v1.3
		C57.1,41.5,54.5,42.9,50.6,42.9z M50.6,38.7c-1.6,0-3-0.2-4.3-0.7l0.6-1.9c1.1,0.3,2.4,0.4,3.7,0.4c2.7,0,5-0.6,6.5-1.5v1.3
		C57.1,37.3,54.5,38.7,50.6,38.7z M50.6,34.5c-1.1,0-2.1-0.1-3.1-0.3l0.6-2.1c0.8,0.1,1.6,0.2,2.4,0.2c2.7,0,5-0.6,6.5-1.5v1.4
		C57.1,33.1,54.5,34.5,50.6,34.5z M50.6,30.3c-0.6,0-1.2-0.1-1.8-0.1l0.6-2.1c0.4,0,0.8,0,1.2,0c2.7,0,5-0.6,6.5-1.5V28
		C57.1,28.9,54.5,30.3,50.6,30.3z M50.6,26.1c-0.2,0-0.4,0-0.6,0l1.4-4.7c3.5,0.2,5.7,1.5,5.7,2.3C57.1,24.7,54.5,26.1,50.6,26.1z"
		/>
	<path d="M63.1,6.9c-4.9,0-8.5,1.9-8.5,4.3v4.2v3.3h2v-0.5c1.5,0.9,3.9,1.5,6.5,1.5c2.7,0,5-0.6,6.5-1.5v1.3v0
		c0,0.9-2.6,2.3-6.5,2.3c-0.8,0-1.6-0.1-2.4-0.2l-0.3,2c0.9,0.1,1.8,0.2,2.7,0.2c2.7,0,5-0.6,6.5-1.5v1.3v0c0,0.9-2.6,2.3-6.5,2.3
		c-0.8,0-1.6-0.1-2.4-0.2l-0.3,2c0.9,0.1,1.8,0.2,2.7,0.2c2.7,0,5-0.6,6.5-1.5V28v0c0,0.9-2.6,2.3-6.5,2.3c-0.8,0-1.6-0.1-2.4-0.2
		l-0.3,2c0.9,0.1,1.8,0.2,2.7,0.2c2.7,0,5-0.6,6.5-1.5v1.3c0,0.9-2.5,2.2-6.5,2.2c-0.7,0-1.3-0.1-2-0.2l-0.4-0.1l-0.3,2l0.4,0.1
		c0.7,0.1,1.5,0.2,2.3,0.2c2.4,0,4.9-0.5,6.5-1.4v1.4c0,0.9-2.5,2.2-6.5,2.2c-0.7,0-1.3-0.1-2-0.2l-0.4-0.1l-0.3,2l0.4,0.1
		c0.7,0.1,1.5,0.2,2.3,0.2c4.2,0,8.5-1.5,8.5-4.2v-4.2V28v0v-4.2v0v-4.2v0v-4.2v0v-4.2C71.7,8.8,68,6.9,63.1,6.9z M63.1,8.9
		c3.9,0,6.5,1.4,6.5,2.3s-2.6,2.3-6.5,2.3c-3.9,0-6.5-1.4-6.5-2.3S59.2,8.9,63.1,8.9z M69.7,15.4c0,0.9-2.6,2.3-6.5,2.3
		c-3.9,0-6.5-1.4-6.5-2.3v-1.3c1.5,0.9,3.9,1.5,6.5,1.5c2.7,0,5-0.6,6.5-1.5V15.4L69.7,15.4z"/>
	<path d="M24.1,26.1l-0.3,0c-0.6,0.1-1.8,0.2-2.7,0.6c-0.9,0.4-1.8,1.1-2.4,1.4l-0.2,0.2c-0.5,0.3-0.6,0.9-0.2,1.4
		c0.2,0.3,0.5,0.4,0.8,0.4c0.2,0,0.4-0.1,0.6-0.2l0.3-0.2c0.4-0.3,1.3-0.9,1.9-1.2c0.7-0.3,1.7-0.4,2.2-0.5l0.3,0
		c0.5-0.1,0.9-0.6,0.8-1.1C25.2,26.3,24.7,26,24.1,26.1z"/>
	<path d="M24.8,23.7c1.2-1.4,1.5-3.1,0.8-4.9c-0.8-2.1-3.4-2.8-5.6-3.5c-1.2-0.4-2.6-0.8-3-1.2c-0.3-0.3-0.7-0.4-1.1-0.3
		c-0.4,0.2-0.7,0.6-0.6,1c0,0.6-0.6,1.9-1.3,2.9c-1.1,2-2.4,4.3-1.6,6.4c0.7,1.8,2.1,2.8,4,2.9c0.1,0,0.1,0,0.2,0c1.2,0,3-0.7,4-1.8
		C22.1,25.4,24.1,24.5,24.8,23.7z M19.2,23.8c-0.3,0.7-2,1.4-2.7,1.4c-1.1-0.1-1.8-0.6-2.2-1.7c-0.5-1.2,0.6-3,1.5-4.7
		c0.5-0.8,0.9-1.6,1.2-2.3c0.7,0.3,1.6,0.6,2.5,0.9c1.8,0.5,3.8,1.1,4.3,2.3c0.4,1.1,0.3,2-0.4,2.8c-0.5,0.5-2.1,1.2-2.9,0.9
		C20,23.1,19.4,23.3,19.2,23.8z"/>
</g>
</svg>
