<?xml version="1.0" encoding="utf-8"?>
<!-- Generator: Adobe Illustrator 22.1.0, SVG Export Plug-In . SVG Version: 6.00 Build 0)  -->
<svg  fill="#1a4095" version="1.1" id="Layer_1" xmlns="http://www.w3.org/2000/svg" xmlns:xlink="http://www.w3.org/1999/xlink" x="0px" y="0px"
	 viewBox="0 0 32.1 41.5" enable-background="new 0 0 32.1 41.5" xml:space="preserve">
<g>
	<path d="M17.8,19.1c-3.3-1.4-3.5-3.4-3.5-3.5c0-0.4-0.3-0.7-0.7-0.7c0,0,0,0,0,0c-0.4,0-0.7,0.3-0.7,0.7c0,0.1-0.2,2.1-3.5,3.5
		c-2,0.8-3.2,2.6-3.1,4.7c0,2.1,1.3,3.9,3.2,4.6c2.4,0.9,3.7-0.1,4.2-0.7l-0.6-0.5l0.6,0.5c0.4,0.4,1.2,1,2.4,1
		c0.5,0,1.1-0.1,1.8-0.4c1.9-0.7,3.1-2.5,3.2-4.6C21,21.8,19.8,20,17.8,19.1z M17.2,27c-1.2,0.4-2.1,0.3-2.6-0.3
		c-0.3-0.3-0.7-0.5-1.1-0.5c-0.4,0-0.8,0.2-1.1,0.5c-0.6,0.6-1.4,0.7-2.6,0.3c-1.3-0.5-2.2-1.7-2.2-3.2c0-1.5,0.8-2.7,2.2-3.3
		c2-0.8,3.1-1.9,3.7-2.8c0.6,0.9,1.7,2,3.7,2.8c1.4,0.6,2.2,1.8,2.2,3.3C19.4,25.3,18.5,26.5,17.2,27z"/>
	<path d="M10.5,30.4c-0.3,0.3-0.4,0.7-0.1,1.1c0.3,0.3,0.7,0.4,1.1,0.1c0.1-0.1,2.1-1.6,4,0c0.1,0.1,0.3,0.2,0.5,0.2
		c0.2,0,0.4-0.1,0.6-0.3c0.3-0.3,0.2-0.8-0.1-1.1C14.1,28.5,11.6,29.5,10.5,30.4z"/>
	<path d="M28.1,0H9.2C7,0,5.2,1.8,5.2,4.1v1.1H4.1C1.8,5.2,0,7,0,9.2v28.2c0,2.2,1.8,4.1,4.1,4.1h18.9c2.2,0,4.1-1.8,4.1-4.1v-1.1
		h1.1c2.2,0,4.1-1.8,4.1-4.1V4.1C32.1,1.8,30.3,0,28.1,0z M25.5,37.4c0,1.4-1.1,2.6-2.6,2.6H4.1c-1.4,0-2.6-1.1-2.6-2.6V9.2
		c0-1.4,1.1-2.6,2.6-2.6h1.9h17c1.4,0,2.6,1.1,2.6,2.6v26.4V37.4z M30.6,32.3c0,1.4-1.1,2.6-2.6,2.6H27V9.2c0-2.2-1.8-4.1-4.1-4.1
		H6.7V4.1c0-1.4,1.1-2.6,2.6-2.6h18.9c1.4,0,2.6,1.1,2.6,2.6V32.3z"/>
</g>
</svg>
