<?xml version="1.0" encoding="utf-8"?>
<!-- Generator: Adobe Illustrator 22.1.0, SVG Export Plug-In . SVG Version: 6.00 Build 0)  -->
<svg  fill="#1a4095" version="1.1" id="Layer_1" xmlns="http://www.w3.org/2000/svg" xmlns:xlink="http://www.w3.org/1999/xlink" x="0px" y="0px"
	 viewBox="0 0 32.1 41.5" enable-background="new 0 0 32.1 41.5" xml:space="preserve">
<g>
	<g>
		<path d="M22.3,32C22.3,32,22.3,32,22.3,32l-12.6,0c-0.2,0-0.4-0.1-0.5-0.2l-8.8-8.9C0.1,22.7,0,22.5,0,22.3L0,9.6
			c0-0.2,0.1-0.4,0.2-0.5l8.9-8.8C9.3,0.1,9.5,0,9.7,0c0,0,0,0,0,0l12.6,0c0.2,0,0.4,0.1,0.5,0.2l8.9,8.9C31.9,9.3,32,9.5,32,9.7
			l0,12.6c0,0.2-0.1,0.4-0.2,0.5l-8.9,8.8C22.7,31.8,22.5,32,22.3,32z M10,30.4l12,0l8.5-8.4l0-12L22,1.5l-12,0L1.5,10l0,12L10,30.4
			z M16,23.6c-1,0-2-0.2-2.9-0.6c-1.8-0.8-3.3-2.3-4.1-4.1C8.6,18,8.4,17,8.4,16s0.2-2,0.6-2.9c0.8-1.8,2.3-3.3,4.1-4.1
			c1.8-0.8,4-0.8,5.9,0c1.8,0.8,3.3,2.3,4.1,4.1c0.4,0.9,0.6,1.9,0.6,2.9s-0.2,2-0.6,2.9c-0.8,1.8-2.3,3.3-4.1,4.1
			C18,23.4,17,23.6,16,23.6z M16,9.9c-0.8,0-1.6,0.2-2.3,0.5c-1.5,0.6-2.7,1.8-3.3,3.3C10,14.4,9.9,15.2,9.9,16s0.2,1.6,0.5,2.3
			c0.6,1.5,1.8,2.7,3.3,3.3c1.5,0.6,3.2,0.6,4.7,0c0,0,0,0,0,0c1.5-0.6,2.7-1.8,3.3-3.3c0.3-0.7,0.5-1.5,0.5-2.4s-0.2-1.6-0.5-2.3
			c-0.6-1.5-1.8-2.7-3.3-3.3C17.6,10,16.8,9.9,16,9.9z"/>
	</g>
	<g>
		<path d="M9.6,31.9c-0.1,0-0.2,0-0.3-0.1c-0.4-0.2-0.6-0.6-0.4-1l3.7-8.8c0.2-0.4,0.6-0.6,1-0.4c0.4,0.2,0.6,0.6,0.4,1l-3.7,8.8
			C10.2,31.8,9.9,31.9,9.6,31.9z"/>
	</g>
	<g>
		<path d="M18.6,10.4c-0.1,0-0.2,0-0.3-0.1c-0.4-0.2-0.6-0.6-0.4-1l3.7-8.9c0.2-0.4,0.6-0.6,1-0.4c0.4,0.2,0.6,0.6,0.4,1l-3.7,8.9
			C19.2,10.2,18.9,10.4,18.6,10.4z"/>
	</g>
	<g>
		<path d="M22.3,31.9c-0.3,0-0.5-0.1-0.7-0.4l0,0l-3.7-8.9c-0.2-0.4,0-0.8,0.4-1c0.4-0.2,0.8,0,1,0.4l3.7,8.8c0.2,0.4,0,0.8-0.4,1
			C22.5,31.9,22.4,31.9,22.3,31.9z"/>
	</g>
	<g>
		<path d="M13.3,10.4c-0.3,0-0.6-0.2-0.7-0.5L9,1.1c-0.2-0.4,0-0.8,0.4-1c0.4-0.2,0.8,0,1,0.3L14,9.3c0.2,0.4,0,0.8-0.4,1
			C13.5,10.4,13.4,10.4,13.3,10.4z"/>
	</g>
	<g>
		<path d="M9.6,14.1c-0.1,0-0.2,0-0.3-0.1l-8.8-3.7c-0.4-0.2-0.6-0.6-0.4-1C0.3,9,0.7,8.8,1.1,9l8.8,3.7c0.4,0.2,0.6,0.6,0.4,1
			C10.2,13.9,9.9,14.1,9.6,14.1z"/>
	</g>
	<g>
		<path d="M31.2,23.1c-0.1,0-0.2,0-0.3-0.1L22,19.3c-0.4-0.2-0.6-0.6-0.4-1c0.2-0.4,0.6-0.6,1-0.4l8.8,3.7c0.4,0.2,0.6,0.6,0.4,1
			C31.8,22.9,31.5,23.1,31.2,23.1z"/>
	</g>
	<g>
		<path d="M0.8,23.1c-0.2,0-0.4-0.1-0.5-0.2c-0.3-0.3-0.3-0.8,0-1.1l0,0c0.1-0.1,0.2-0.1,0.3-0.2l8.8-3.7c0.4-0.2,0.8,0,1,0.4
			c0.2,0.4,0,0.8-0.4,1L1.1,23C1,23,0.9,23.1,0.8,23.1z"/>
	</g>
	<g>
		<path d="M22.3,14.1c-0.3,0-0.6-0.2-0.7-0.5c-0.2-0.4,0-0.8,0.4-1L30.9,9c0.3-0.1,0.6-0.1,0.8,0.1c0.3,0.3,0.3,0.8,0,1.1
			c-0.1,0.1-0.2,0.1-0.3,0.2L22.6,14C22.5,14.1,22.4,14.1,22.3,14.1z"/>
	</g>
	<g>
		<path d="M5.9,41.5H0.8c-0.4,0-0.7-0.3-0.7-0.8S0.4,40,0.8,40h4.6l9.9-24.3c0.2-0.4,0.6-0.6,1-0.4c0.4,0.2,0.6,0.6,0.4,1L6.6,41
			C6.5,41.3,6.2,41.5,5.9,41.5z"/>
	</g>
	<g>
		<path d="M31.3,41.5h-5.1c-0.3,0-0.6-0.2-0.7-0.5L15.5,16.3c-0.2-0.4,0-0.8,0.4-1c0.4-0.2,0.8,0,1,0.4L26.8,40h4.6
			c0.4,0,0.8,0.3,0.8,0.8S31.8,41.5,31.3,41.5z"/>
	</g>
</g>
</svg>
