<?xml version="1.0" encoding="UTF-8" standalone="no"?>
<svg width="120px" height="39px" viewBox="0 0 120 39" version="1.1" xmlns="http://www.w3.org/2000/svg" xmlns:xlink="http://www.w3.org/1999/xlink">
    <!-- Generator: Sketch 46.2 (44496) - http://www.bohemiancoding.com/sketch -->
    <title>icn-visa</title>
    <desc>Created with Sketch.</desc>
    <defs></defs>
    <g id="Page-1" stroke="none" stroke-width="1" fill="none" fill-rule="evenodd">
        <g id="Payment-Icons" transform="translate(-739.000000, -927.000000)" fill-rule="nonzero">
            <g id="icn-visa" transform="translate(739.000000, 927.000000)">
                <polygon id="polygon9" fill="#00579F" points="52.7223336 38.6440678 42.7118644 38.6440678 48.9731291 1.01694915 58.9830508 1.01694915"></polygon>
                <path d="M87.4576271,1.59262645 C85.5184421,0.835718959 82.4427345,0 78.6396309,0 C68.9308031,0 62.093926,5.09365416 62.0519919,12.3760457 C61.9713493,17.7489781 66.9469959,20.7332353 70.6683817,22.5247417 C74.4720229,24.3553893 75.7649921,25.5502559 75.7649921,27.1820236 C75.7262837,29.6881226 72.691435,30.8433189 69.8608808,30.8433189 C65.9357381,30.8433189 63.8325798,30.2477369 60.636446,28.8534615 L59.3418639,28.2557638 L57.9661017,36.6531525 C60.2719416,37.6866935 64.5201922,38.6038687 68.9308031,38.6440678 C79.2466007,38.6440678 85.9625139,33.6292251 86.0420812,25.8686754 C86.0813273,21.6102112 83.4539923,18.3472048 77.7896582,15.6808381 C74.351059,13.9692011 72.2452127,12.8150626 72.2452127,11.0637554 C72.285534,9.47165784 74.0263383,7.840948 77.907934,7.840948 C81.1040678,7.76107866 83.4523795,8.51692827 85.2313546,9.27330682 L86.1205733,9.6705378 L87.4576271,1.59262645 L87.4576271,1.59262645 L87.4576271,1.59262645 Z" id="path11" fill="#00579F"></path>
                <path d="M100.332009,25.3144603 C101.125558,23.1528017 104.179086,14.7865497 104.179086,14.7865497 C104.13904,14.866887 104.971054,12.5849884 105.446867,11.18414 L106.120277,14.4263619 C106.120277,14.4263619 107.945017,23.4331842 108.341264,25.3144603 C106.835314,25.3144603 102.235261,25.3144603 100.332009,25.3144603 L100.332009,25.3144603 Z M112.22628,1.01694915 L104.77293,1.01694915 C102.474485,1.01694915 100.728256,1.69689002 99.7365841,4.13893114 L85.4237288,38.6440678 L95.5343598,38.6440678 C95.5343598,38.6440678 97.1989148,33.9999334 97.5566967,32.9997074 C98.6658732,32.9997074 108.501449,32.9997074 109.928361,32.9997074 C110.204997,34.3207505 111.078111,38.6440678 111.078111,38.6440678 L120,38.6440678 L112.22628,1.01694915 L112.22628,1.01694915 L112.22628,1.01694915 Z" id="path13" fill="#00579F"></path>
                <path d="M34.3775998,1.01694915 L24.7751056,26.7022816 L23.7257962,21.4929956 C21.9504956,15.482158 16.3827755,8.95151034 10.1694915,5.70429464 L18.9650309,38.6440678 L29.33373,38.6440678 L44.7457627,1.01694915 L34.3775998,1.01694915 L34.3775998,1.01694915 L34.3775998,1.01694915 Z" id="path15" fill="#00579F"></path>
                <path d="M15.6594273,1.01694915 L0.15858048,1.01694915 L0,1.77287016 C12.0916299,4.87748904 20.0996807,12.3610541 23.3898305,21.3559322 L20.020127,4.16177097 C19.4653588,1.77234117 17.7604869,1.09576807 15.6594273,1.01694915 L15.6594273,1.01694915 Z" id="path17" fill="#FAA61A"></path>
            </g>
        </g>
    </g>
</svg>