<svg xmlns="http://www.w3.org/2000/svg" viewBox="0 0 42.3 15.86"><defs><style>.a95f32c8-b46a-4716-9204-3f202ebbd18f{fill:#007dc3;}</style></defs><title>deposit--amex</title><g id="5a537bc0-b690-43a1-a7de-ea8b607c7e98" data-name="Layer 2"><g id="69e79b5c-55eb-490d-992d-f283923f85d8" data-name="Layer 1"><path class="a95f32c8-b46a-4716-9204-3f202ebbd18f" d="M0,6.9H2l.48-1h1L4,7H8V6.12L8.32,7h2.07l.35-.86V7h9.93V5.11h.19c.13,0,.17,0,.17.24V6.92h5.14V6.5a4,4,0,0,0,1.9.42h2.17l.46-1.06h1L32.15,7h4.16V5.86l.63,1h3.33V0H37V.86L36.51,0H33.15V.86L32.73,0H28.16a4.11,4.11,0,0,0-2,.4V0H23v.4A2,2,0,0,0,21.67,0H10.14L9.36,1.83,8.62,0H5V.86L4.54,0H1.44L0,3.33Zm3.8-3.09L3,1.81l-.81,2ZM21.73,3a1.22,1.22,0,0,1-.59.1H19.69V2h1.47a1.25,1.25,0,0,1,.56.09.46.46,0,0,1,.25.44.53.53,0,0,1-.25.48M32,3.8l-.83-2-.81,2ZM12.83,6H11.62V2.06L9.9,6h-1L7.17,2V6H4.7L4.24,4.86H1.77L1.31,6H0L2.14,1H3.91l2,4.71V1H7.85L9.4,4.35,10.83,1h2Zm4.85,0h-4V1h4V2H14.91v.91h2.71v1H14.91v1h2.77Zm5.6-3.63a1.41,1.41,0,0,1-.84,1.32,1.35,1.35,0,0,1,.59.42,1.44,1.44,0,0,1,.2.9V6H22V5.33a1.46,1.46,0,0,0-.19-1c-.17-.18-.44-.21-.87-.21H19.69V5.93H18.51v-5h2.73a2.8,2.8,0,0,1,1.44.24,1.15,1.15,0,0,1,.61,1.1m1.9,3.63H24V.9h1.22Zm14.06,0H37.56L35.31,2.17V5.9H32.89l-.46-1H30L29.51,6H28.12a2.1,2.1,0,0,1-2.35-2.45,2.64,2.64,0,0,1,.64-1.94A2.42,2.42,0,0,1,28.22,1h1.14V2.06H28.23a1.15,1.15,0,0,0-.92.3A1.67,1.67,0,0,0,27,3.49a1.69,1.69,0,0,0,.33,1.17,1.13,1.13,0,0,0,.82.26h.5L30.29,1h1.83l2,4.7V1h1.81L38,4.47V1h1.22Z"/><path class="a95f32c8-b46a-4716-9204-3f202ebbd18f" d="M42.27,13.86l0-4.34v-1h-2.2a2.46,2.46,0,0,0-1.49.41V8.52H35.33a2.25,2.25,0,0,0-1.41.41V8.52H28.11v.41a3.1,3.1,0,0,0-1.6-.41H22.68v.41A2.73,2.73,0,0,0,21,8.52H16.71l-1,1.06-.92-1.06H8.41v6.94h6.28l1-1.08,1,1.08h3.87v-1.6h.38a4.17,4.17,0,0,0,1.65-.24v1.87h3.19V13.67h.16c.2,0,.22,0,.22.2v1.61h9.7A2.8,2.8,0,0,0,37.48,15v.45h3.08a4.15,4.15,0,0,0,1.74-.32Zm-.2-2a1.37,1.37,0,0,1,.2.27v1.41a1.62,1.62,0,0,1-1.7.89H38.24v-1h2.31a.71.71,0,0,0,.49-.12.46.46,0,0,0,.14-.33.43.43,0,0,0-.15-.33.7.7,0,0,0-.42-.11c-1.11,0-2.5,0-2.5-1.54,0-.72.45-1.48,1.7-1.48l2.44,0v1.07l-2.25,0a.82.82,0,0,0-.48.09.42.42,0,0,0,.08.73,1.56,1.56,0,0,0,.46.06h.65a1.92,1.92,0,0,1,1.35.4Zm-4.54,0a1.37,1.37,0,0,1,.36,1c0,1.07-.67,1.57-1.86,1.57H33.7v-1H36a.71.71,0,0,0,.49-.12.46.46,0,0,0,.14-.33.43.43,0,0,0-.15-.33.7.7,0,0,0-.42-.11c-1.11,0-2.5,0-2.5-1.54,0-.72.45-1.48,1.7-1.48h2.35v1.06H35.47a.82.82,0,0,0-.48.09.42.42,0,0,0,.08.73,1.56,1.56,0,0,0,.46.06h.65a1.92,1.92,0,0,1,1.35.4Zm-10.72-.31a1.13,1.13,0,0,1-.58.1H24.78V10.56h1.46a1.18,1.18,0,0,1,.57.09.47.47,0,0,1,.25.45.53.53,0,0,1-.25.48Zm.72.65a1.32,1.32,0,0,1,.58.42,1.42,1.42,0,0,1,.2.9v1H27.12v-.66a1.47,1.47,0,0,0-.19-1c-.17-.18-.43-.22-.87-.22H24.78v1.82H23.62v-5h2.74a2.88,2.88,0,0,1,1.43.24,1.16,1.16,0,0,1,.61,1.1,1.39,1.39,0,0,1-.84,1.32Zm1.53-2.74h4v1H30.21v.9h2.71v1H30.21v1H33v1H29Zm-8,2.4H19.48v-1.3H21c.43,0,.73.17.73.61s-.29.66-.74.66Zm-2.72,2.2-1.82-2,1.82-2Zm-4.68-.59h-3v-1h2.6v-1h-2.6v-.9h3L14.91,12Zm9.45-2.3c0,1.38-1,1.67-2.07,1.67H19.48v1.67h-2.3l-1.47-1.65L14.19,14.5H9.49v-5h4.77l1.46,1.66,1.51-1.63H21c1,0,2,.26,2,1.64Z"/><path class="a95f32c8-b46a-4716-9204-3f202ebbd18f" d="M7.35,14.86A.82.82,0,1,1,6.53,14h0a.81.81,0,0,1,.82.8s0,0,0,0m.15,0a1,1,0,1,0-1,1,1,1,0,0,0,1-1m-.74-.2c0-.11-.08-.12-.13-.12H6.36v.32h.26c.09,0,.16,0,.16-.13m.19.64H6.8a.87.87,0,0,1,0-.23c0-.07,0-.13-.13-.13H6.41v.37H6.25v-.9h.37c.14,0,.3,0,.3.25a.23.23,0,0,1-.1.2.18.18,0,0,1,.08.16v.16a.07.07,0,0,0,0,.07Z"/></g></g></svg>