<?xml version="1.0" encoding="UTF-8" standalone="no"?>
<!-- Generator: Adobe Illustrator 22.1.0, SVG Export Plug-In . SVG Version: 6.00 Build 0)  -->
<svg id="Layer_1" style="enable-background:new 0 0 196 196" xmlns="http://www.w3.org/2000/svg" xml:space="preserve" viewBox="0 0 196 196" version="1.1" y="0px" x="0px" xmlns:xlink="http://www.w3.org/1999/xlink">
<style type="text/css">
	.st0{fill:#000;}
	.st1{fill:#F71123;}
</style>
	<path class="st0" d="m91.4 31.9h31.7v17.1h-31.7v11.7h34.5v18.7h-54.5v-78.2h54.5v18.6h-34.5v12.1z"/>
	<path class="st1" d="m66.6 116c0-17.5 15.7-26.1 31.5-26.1s31.6 8.7 31.6 26.1v26c0 17.4-15.7 26.1-31.5 26.1s-31.6-8.7-31.6-26.1v-26zm19.2 26c0 5.6 6.2 8.3 12.4 8.3s12.2-2.8 12.2-8.3v-26c0-5.9-6.3-8.6-12.6-8.6-6 0-12 3-12 8.6v26z"/>
	<path class="st0" d="m165.6 1.2h-29.3v32.3l19.9 19v-32.9h10.1c6.6 0 9.8 3.2 9.8 8.3v24.4c0 5.1-3.1 8.5-9.8 8.5h-30v18.6h29.3c15.7 0.1 30.4-7.7 30.4-25.7v-26.3c0-18.3-14.7-26.2-30.4-26.2z"/>
	<path class="st1" d="m28.5 91h-28.4v31.4l19.3 18.5v-32h9.8c6.4 0 9.6 3.1 9.6 8.1v23.7c0 4.9-3 8.3-9.6 8.3h-29.1v18h28.5c15.3 0.1 29.5-7.5 29.5-25v-25.6c0-17.7-14.3-25.4-29.6-25.4z"/>
	<path class="st1" d="m167.5 167h28.5v-31.4l-19.3-18.5v32h-9.8c-6.4 0-9.6-3.1-9.6-8.1v-23.7c0-4.9 3-8.3 9.6-8.3h29.1v-18h-28.5c-15.3-0.1-29.5 7.5-29.5 25v25.6c0 17.7 14.3 25.4 29.5 25.4z"/>
		<path class="st0" d="m12 191.4c-1.3 2.6-3.7 3.6-5.7 3.6-3.1 0-6.3-1.8-6.3-5.4v-5.5c0-3.6 3.2-5.4 6.3-5.4 2 0 4.3 0.8 5.6 3.7l-3.3 1.3c-1.1-2-4.6-1.5-4.6 0.4v5.5c0 1.9 3.6 2.5 4.5 0.2l3.5 1.6z"/>
		<path class="st0" d="m51.1 194.8h-4.3l-1-3.2h-4.3l-1 3.2h-4.3l5.6-15.9h3.7l5.6 15.9zm-6.3-6.8l-1.1-4.7h-0.1l-1.2 4.7h2.4z"/>
		<path class="st0" d="m77.9 189.7c1.6 1.9 5.1 2 5.2 0.3 0-0.9-1.4-1.4-2.7-1.6-2.6-0.4-4.9-2-4.9-5.1s2.8-4.8 5.8-4.8c1.9 0 3.8 0.5 5.4 2.5l-2.6 2c-1.7-1.8-4.5-1.7-4.6 0.1 0 0.8 0.9 1.2 2.1 1.5 2.8 0.5 5.7 1.5 5.5 5.4-0.1 3.1-3.4 4.8-6.3 4.8-1.9 0-3.9-1-5.4-2.9l2.5-2.2z"/>
		<path class="st0" d="m117 194.8h-4v-15.9h4v15.9z"/>
		<path class="st0" d="m143.8 178.8h3.8l3.8 6.8 1.4 3.2h0.1s-0.4-2.7-0.5-2.7v-7.2h4v15.9h-4.1l-3.6-6.3-1.4-3.2h-0.1l0.5 3.1v6.4h-4v-16z"/>
		<path class="st0" d="m182.8 184.1c0-3.7 3.3-5.5 6.6-5.5s6.6 1.8 6.6 5.5v5.4c0 3.6-3.3 5.5-6.6 5.5s-6.6-1.8-6.6-5.5v-5.4zm4 5.4c0 1.2 1.3 1.7 2.6 1.7s2.6-0.6 2.6-1.7v-5.4c0-1.2-1.3-1.8-2.6-1.8s-2.5 0.6-2.5 1.8v5.4z"/>
		<path class="st0" d="m37.6 30c0.2-1-5.7-3.3-6.2-1.7l2.4 3.5c-0.1-0.1 3.3 0.7 3.8-1.8z"/>
		<path class="st0" d="m12.9 67.4c-1.9 0-4.7 3.7-4.7 3.7-2-40.3 19.4-61.1 19.4-61.1s-1 6.4-0.9 8.8c0.2 2.4 3.3 3.4 6.4 3.9s4.1 2.9 4.8 4.9 6.2 2.4 10.1 2.9c3.9 0.5 2.8 3.4 2.8 3.4s0 0-2.8 4.9c-2.8 4.9-12.5 4.4-12.5 4.4-1.6 5.7-2 11.3 4.7 18.9 5.3 6 6.2 14.2 6.4 17.4h19.6l-21.2-26.9c9.5-3 15.4-11.2 15.4-25.6-0.5-18.4-13-25.8-29.1-25.8h-31.3v78.2h11.7c0.9-4.2 2.5-12 1.2-12z"/>
</svg>
