<svg height="83" viewBox="0 0 170 83" width="170" xmlns="http://www.w3.org/2000/svg"><g fill="none"><g fill="#fff"><path d="m72.0886076 2.15189873h9.2036709c2.5134177 7.20886076 4.5727848 14.64367087 7.0302531 21.97411397h.3539874c1.3578481-4.8805064 2.7512025-9.7620886 4.1359494-14.68563295h6.2351265c1.3600001 4.89018985 2.7329111 9.77715185 4.1165821 14.66088605h.380886c1.310507-4.8493038 2.614557-9.7061392 3.939051-14.63613922h9.794367c-3.178354 9.37474682-6.350253 18.70107592-9.549051 28.13177212h-7.38424c-1.6709495-4.7524683-2.6758862-9.6835443-4.6394938-14.385443-1.3922785 4.8073418-2.7920886 9.6082278-4.1897468 14.4467721h-7.3304431c-4.0090117-11.8432418-8.0409601-23.6787071-12.0958228-35.50632907z"/><path d="m.29050633 0h9.05411392v10.3172785c1.83991105-.55244687 3.75792765-.79960459 5.67778485-.73164559 3.7733544-.04303797 7.2831012 1.76132909 9.1939873 4.72341769 2.2551899 3.2074051 2.825443 6.7892405 2.6543671 10.4862026-.0296119 2.3529483-.5757984 4.6706599-1.5999367 6.7892405-2.2551899 4.2822785-6.0220886 6.523481-11.157595 7.0367088-4.36243207.374389-8.75469555-.1793193-12.88772147-1.6246835-.79189873-.1721519-1.31265823-.8650633-1.20075949-1.5999367.03443038-11.411519 0-22.8144304 0-34.21949369-.07531646-.40886076.01936708-.82848101.26575949-1.17708861zm10.13006327 30.8840506c1.4121575.7151375 3.0560278.8189977 4.546962.2872785 1.4848102-.531519 2.6296203-1.6451266 3.1148735-3.0298734.9801898-2.5489241 1.0156962-5.3205696.1000633-7.8888608-.9102532-2.6812658-3.5355697-3.8045569-6.461076-3.1772784-1.0942405.2420886-1.3266456.700443-1.3266456 1.6128481.0387342 3.2138607 0 6.4341772 0 9.6652531l.0258228 2.5317089z"/><path d="m160.271266 9.6835443h9.653418c.236708.5541139-.149557.9253165-.30557 1.316962-4.333924 10.6701899-8.685063 21.335-13.053418 31.9944304-1.226582 2.9975949-3.197721 5.355-6.848418 6.1651899-3.502215.785443-6.774177.1151266-10.060126-1.2911393.602532-2.273481 1.52462-4.4049367 2.276709-6.6278481.907025.298038 1.747342.6089874 2.622088.8586076 1.943165.5175317 3.319304-.0742405 4.063861-1.7548734.41962-.9070253.718734-1.826962 1.157722-2.7544304.315018-.6177707.315018-1.3490647 0-1.9668354-3.510281-8.1161352-7.005329-16.2388499-10.485127-24.3681013-.301012-.4642817-.471934-1.0008267-.494937-1.55367086h10.241962c1.807595 5.39373416 3.613038 10.76379746 5.419557 16.11341776h.37981l5.434621-16.1317089z"/><path d="m55.1962025 26.0691772h-17.5498101c-.2184177 2.3003798.9199367 4.2048101 3.145 4.9967089 3.1729747 1.0942405 5.7541772.0968354 7.8910127-2.251962l5.8822152 4.5943037c-2.1820254 2.9943671-5.8284178 4.9127849-9.8513925 5.1839241-2.2900597.2780902-4.6112846.1480404-6.8559493-.3841139-3.8196203-.9662026-6.886076-3.4839241-8.2525317-6.7752532-2.3821519-5.4044937-2.231519-10.8111392.9812659-15.9638607 2.293924-3.6818988 5.95-5.49594942 10.7229114-5.7003798 4.6631645-.19151898 8.3751898 1.2857595 10.9822151 4.7040506 1.319114 1.8463292 2.1841773 3.9164557 2.5392405 6.0769621.3862659 1.8183544.51 3.6732911.3679747 5.5196202zm-17.51-5.2667721h8.4698734c.1667722-1.106076-.1441772-2.2272152-.8715189-3.1417722-1.4503798-2.083038-4.2618355-2.3294304-6.1286076-.5164557-1.0791772.9672785-1.6182279 2.3068355-1.4697469 3.6582279zm92.6725945-.276519c.123735-2.9190507-1.789303-4.3844937-4.812721-3.8981646-.90819.1240168-1.787.4089378-2.59519.8413924-.727342.4077848-1.420253.8650633-2.184177 1.3331013l-4.214494-4.8051899c1.635443-1.6548101 3.755063-2.8835443 6.127532-3.5495569 3.034177-.91132916 6.305063-1.00924055 9.401645-.2818988 4.99133 1.1652532 7.277722 4.0606329 7.551013 8.1492405.43576 6.4341772.156013 12.8898734.115127 19.3348102-.034431.125886-.089304.2474683-.162469.359367h-7.761898c-.516456-.5035443-.341076-1.3083544-.967279-1.7656329-.571329 0-.85.4325317-1.233038.6853798-3.376329 2.1475949-7.888861 2.2820886-11.422278.3421519-1.583798-.9920253-2.716773-2.4477848-3.193418-4.1079747-.651362-1.8486154-.663486-3.8623465-.03443-5.7186709 1.008164-3.0018987 3.505443-4.6782278 6.746202-5.6390506 2.567215-.7574684 5.27-.8231013 7.918987-1.2018355zm2.234747 5.1710126c-.327088-.083924-.490633-.1807595-.626202-.1560126-1.116836.2108861-2.267026.168924-3.404304.4562025-2.043228.5229114-3.227848 1.9883544-2.894304 3.7841139.306646 1.6408228 1.818355 2.4994304 4.038038 2.295 1.142658-.1032911 2.811456-1.0038607 2.845886-1.6698734.088228-1.5741139.03981-3.1353164.03981-4.7105063v.0010759z"/><path d="m76.3924051 36.0776582c-1.5463902 1.2202198-3.3769732 2.0283417-5.3205697 2.3487975-2.1339267.4367023-4.3369006.408445-6.458924-.0828481-2.0443038-.5003165-3.6668355-1.9237975-4.2984177-3.7722785-.4080437-.9893134-.6312278-2.0450613-.658481-3.1148734 0-4.1337975-.0462659-8.2675949-.065633-12.4003165v-1.656962c-1.2115189-.3260126-2.3907594 0-3.6410126-.2463924v-6.8279747h3.5355696v-7.096962h9.328481v6.8989873c1.382595.3668988 2.635.0484178 4.0358861.2657595.8870874 2.2445195 1.671549 4.5282541 2.3509494 6.844114h-6.0371519c-.2906783.2093932-.4258832.5737662-.3421519.9220886v10.0676582c.0032278.6315823.0559493 1.2610127.1570886 1.8861392.1850633 1.2050633.9425316 1.5967089 2.2594936 1.3912026 1.0264557-.1560127 1.7968355-.7714557 2.8114557-1.2394937l2.3434178 5.8122785z"/></g><path d="m42.9626582 80.4756329c-.5336709-.0408861-.8005063.3087975-1.1405063.5250633-2.4843671 1.6731013-5.6681013 2.2487342-8.6721519 1.5676582-1.6386709-.3496835-3.0922785-1.2018354-4.1155063-2.4112025-3.7356962-4.3306962-2.8017722-11.7655063 4.6373417-14.0336076 2.4094861-.6572562 4.8825481-1.0540427 7.3767089-1.1835443 1.4267089-.1194304 1.6677215-.360443 1.3729114-1.6515823-.2657595-1.4923418-1.6634177-2.6059493-3.335443-2.6586709-1.5567495-.0989687-3.1059786.2862714-4.4350633 1.1028481-.5336709.319557-1.0468988.6756962-1.6612659 1.0748735l-4.0025316-4.6502532c1.2888902-1.3551962 2.866566-2.4025671 4.6158228-3.0643038 4.0025316-1.5612025 8.0857595-1.8086709 12.1603797-.2044304 3.0686076 1.2050633 4.7374051 3.401076 5.4701266 6.2652532.2862025 1.188924.4174684 2.4025949.3873418 3.6194936v15.9197469c.0613291.5347468.0096835 1.0748734-.1527848 1.592405-2.4488608.0914557-4.9568988.0602532-7.4251266-.0355063-.6606329-.4895569-.5541139-1.2911392-1.0802532-1.7742405zm-.6132911-10.6432911c-.5965467-.120102-1.2110482-.120102-1.8075949 0-.744557.0828481-1.4815823.2055063-2.2089241.3679747-1.5902532.4120886-2.7264557 1.678481-2.8405063 3.1718987.0086076 1.2437975.8295569 2.3649367 2.0927215 2.8577215 1.3955063.4831013 3.7163291-.041962 4.59-1.0243038.1726756-.1788731.2743994-.4144441.2862025-.6627848.1237342-1.5708861.086076-3.1471519-.1129747-4.7105063zm35.8581645-11.5072785-4.9472151 4.1510126c-.6993671-.3830379-1.3664557-.8144936-1.9905064-1.2911392-1.8398734-1.2405696-3.8723417-1.2943671-5.9758228-1.0307595-1.1157595.1377215-1.9926582.8456962-1.9926582 1.6139241-.0268987.8521519.5659494 1.6203797 1.4611393 1.8936709 1.9905063.8392405 4.1693038 1.1394303 6.2211392 1.8000632 1.5715182.4238836 3.0661618 1.0934956 4.4286076 1.9840507 2.8620253 2.0862658 3.4656329 4.9235443 2.9803797 7.9932278-.6627848 4.0649367-3.7313924 6.0791139-7.8329114 6.907595-3.3020886.6864557-6.7408227.6132911-9.9998734-.2151899-2.231519-.5487342-4.2607595-1.6246836-5.8768354-3.1181013-.4608828-.3521709-.820549-.8198484-1.042595-1.3556962l4.9396836-4.1617721c1.6279114 1.3976582 3.2741139 2.6210126 5.4593671 2.9975949 1.3643587.2936611 2.7800475.2467302 4.121962-.1366456.936076-.3066455 1.594557-.7682278 1.6063924-1.7516455.0817722-.8962659-.4874051-1.7365823-1.4073418-2.0808861-1.2260984-.4911271-2.4865418-.891736-3.7712025-1.1986076-2.1269239-.4860776-4.1823945-1.2440414-6.1156962-2.2551899-2.5015823-1.4331645-3.5581646-3.5495569-3.7227848-6.0855696-.3131013-4.5405063 2.3025316-7.2260759 6.8581013-8.4666456 4.1800633-1.1770886 8.6968987-.9059493 12.6682278.7617722 1.6106962.6466456 2.9771519 1.7053797 3.930443 3.0449367zm-52.7936075 3.8379114-6.8322785 3.1718987c-.3249367-.6832278-.6638608-1.3363291-.956519-1.9786709-.5767089-1.4073417-2.0432279-2.3563291-3.7044937-2.3993671-1.6806329-.0537974-2.8297468.786519-3.6055063 2.0518355-1.32879749 2.1648101-1.41487344 4.5211392-1.16848103 6.9011392.07157208 1.4750488.58225459 2.8950684 1.46651903 4.0778481 1.8721519 2.3262026 5.1473417 2.3025317 7.011962 0 .51-.7294936.9543671-1.4955696 1.3287975-2.2906962l6.7451265 3.3698734c-1.0888607 2.9620887-2.9405696 5.2581646-5.9758228 6.5546836-3.7127656 1.5887775-7.9049175 1.6360021-11.6525316.1312658-3.98316455-1.53-6.1942405-4.5103797-7.30246835-8.1729114-1.2836076-4.2317088-.95113924-8.7313291.94253164-12.771519 2.28101266-4.823481 7.90392405-7.6252531 13.63873421-6.7946202 3.0535443.3120253 5.8531645 1.6860126 7.8006329 3.8314557 1.096063 1.2328267 1.8736537 2.7152358 2.2648734 4.3177848z" fill="#0054a2"/><path d="m104.528481 82.8298101h-8.0857595c-.2307206-.0254271-.4591392-.0685928-.6832278-.1291139v-28.1855696h7.5112023c.432532.6821519.161393 1.5482911.863988 2.1196202.380886.1237342.593924-.2259493.863987-.4303797 1.682543-1.3016414 3.68922-2.1180052 5.802595-2.3606329 3.17943-.3012658 7.021645.8424683 8.962658 3.9594936 1.163207 1.9319607 1.7722 4.1468202 1.760253 6.4018988.103291 5.908038.037658 11.8117721.037658 17.7155063.023671.3023418-.077468.6025317-.282974.8349367-2.779177.2281013-5.668102-.0537974-8.452658.0753165-.464811-.4196203-.309874-.8370886-.309874-1.2308861v-14.4435443c.072953-1.1395299-.048942-2.2831564-.360443-3.3817089-.851076-2.3864557-2.953481-3.2601265-5.306582-2.1766455-1.516013.6993671-2.354177 1.6472784-2.315443 3.4548734.129114 5.6024683.059177 11.2103164.064557 16.8170886-.018291.2582278-.044114.5056962-.071013.9597468z" fill="#0054a2"/><path d="m151.708861 68.1355696c0 3.8153165-.745633 7.2454431-3.361266 10.1548101-2.463924 2.8297469-6.223291 4.5017722-10.221519 4.5469621-7.391772.2775949-12.720949-4.8310127-13.844241-10.137595-.860759-4.0746202-.853227-8.0653164 1.089937-11.8451265 1.793608-3.7862659 5.70576-6.419114 10.253798-6.9000633 8.421455-1.1297469 14.429557 4.0025316 15.673354 10.0386076.246392 1.3707595.383038 2.7544303.409937 4.142405zm-9.092848.1818355c.093619-1.765057-.282474-3.5233751-1.089937-5.0956962-.698291-1.5439874-2.477911-2.4606962-4.314557-2.2218355-1.441772.1140507-2.687722.9543671-3.211709 2.166962-1.66545 3.2188515-1.66545 7.0457056 0 10.264557.579937 1.4224051 2.133608 2.3337342 3.817468 2.2379747 1.853861-.0591772 2.982532-1.0372152 3.708798-2.4144304.776578-1.5266298 1.151672-3.2258482 1.089937-4.9375316z" fill="#0054a2"/><path d="m80.0205063 82.8481013v-27.923038h8.8475317v27.923038zm4.3748102-30.43c-4.0348102.2065822-5.2398735-2.5435443-4.6233545-5.5088608.0537975-.190443.1258861-.3744304.2162658-.553038.7854431-1.7344303 2.5607595-2.4348734 5.5142406-2.1970886 1.7968354.0957595 3.2945569 1.3148102 3.633481 2.9588608.8779747 3.5527848-1.8269621 5.6282911-4.7406329 5.3001266z" fill="#0054a2"/></g></svg>