<svg height="75" viewBox="0 0 249 75" width="249" xmlns="http://www.w3.org/2000/svg" xmlns:xlink="http://www.w3.org/1999/xlink"><linearGradient id="a" x1="50.032787%" x2="50.032787%" y1="100.073852%" y2="0%"><stop offset=".01" stop-color="#fff"/><stop offset="1" stop-color="#fff" stop-opacity="0"/></linearGradient><g fill="none" fill-rule="evenodd"><path d="m77.3 14.3c-3.5-.2-6.8.9-8.9 2.8-1.3 1.2-2.2 2.6-2.4 4.1l-6.6 34.6c-.3 1.5.1 3 1.1 4.3 1.2 1.8 3.9 2.8 6.7 2.6 2.5 0 4.9-.7 6.7-1.8 3-2.2 4.9-5 5.4-8l5.7-30c-.2 0 1.2-8.3-7.7-8.6zm.8 8.9-6 30.4c-.1.6-.5 1.1-1 1.6s-1.3.8-2.2.8c-1-.1-1.9-.6-2.2-1.2-.4-.6-.5-1.3-.4-1.9l5.9-30.1c.2-.9 1.1-1.7 2.5-2 .4-.1.9-.1 1.3 0 .6.1 1.1.3 1.4.7.5.4.8 1.1.7 1.7zm163.1-8.9c-3.5-.2-6.8.9-8.9 2.8-1.3 1.2-2.2 2.6-2.4 4.1l-6.6 34.6c-.3 1.5.1 3 1.1 4.3 1.2 1.8 3.9 2.8 6.7 2.6 2.5 0 4.9-.7 6.7-1.8 3-2.2 4.9-5 5.4-8l5.7-30c-.1 0 1.2-8.3-7.7-8.6zm.8 8.9-6 30.4c-.1.6-.5 1.1-1 1.6s-1.4.8-2.2.8c-1-.1-1.9-.6-2.2-1.2-.4-.6-.5-1.3-.4-1.9l5.9-30.1c.2-.9 1.1-1.7 2.5-2 .4-.1.9-.1 1.3 0 .6.1 1.1.3 1.4.7.6.4.8 1 .7 1.7zm-139.2-8.8c-4.1-.2-8.3-.2-12.4 0l-8.9 47.9h12.5c5.1-2 8.3-5.8 8.4-9.8.4-7.1-2.2-7.4-2.2-7.4 2.3-1.2 3.8-3 4.4-4.9.9-3.1 3.6-18.1 4-19.6.1-.3-.4-5.9-5.8-6.2zm-7.1 36.9c-.7 3.4-2.7 3.7-2.7 3.7h-3.6l1.3-7.1c.1 0 5.9-1.2 5 3.4zm5.4-27.4s-1.8 10.7-2.7 14.7-6.7 3.1-6.7 3.1l4-20c6.2-.5 5.4 2.2 5.4 2.2zm32.8 6.5h6.7l1.8-10.4s-.4-5.5-7.6-5.5-10.7 2.8-11.1 4.9-7.1 35.9-7.1 35.9-.9 7.4 7.6 7.4 11.1-5.8 11.1-5.8l1.8-8.6-6.7-.3s-.9 4.6-1.3 6.1c-.1 1.1-1.5 1.9-3.1 1.8-3.6 0-2.2-4-2.2-4l5.8-28.6s0-2.8 3.6-2.8 2.2 4 2.2 4zm18.7 31.9h7.5l.9-47.3v-.6h-8.4l-16.4 48.2h7.5l11.6-36.2zm42.6-47.9h6.7l-9.3 48.2h-6.7zm25.4 0-5.4 27.8-1.3-27.8h-6.7l-9.3 48.2h6.7l5-25.6 1.7 25.6h6.7l9.3-48.2zm-48.9 33.5h-6.7l-1.5 7.2c-.3 1.4-.1 2.8.7 4.1 1.3 2.2 4.5 3.6 7.9 3.5 8.9 0 10.7-7.7 10.7-7.7l.5-3.8c.3-2.8-.6-5.5-2.5-8-.6-.9-1.3-1.7-2.2-2.5-3.6-3.1-4.4-5.2-4.4-6.4s2.2-11.4 2.2-11.7c.3-1.2 1.8-2.1 3.6-2.1 2.7 0 2.2 2.5 2.2 2.5l-1.3 8h6.7l1.8-9.2s.8-7.1-8.4-7.4c-9.3-.3-10.7 7.4-10.7 7.4l-2.4 11.1c-.6 2.6 0 5.3 1.5 7.7 1.1 1.7 2.6 3.4 4.4 4.8 4.9 3.7 2.7 8 2.2 9.2s-2.7 1.8-3.6 1.5-2.2-1.2-1.8-3.1 1.1-5.1 1.1-5.1z" fill="#fff" fill-rule="nonzero"/><path d="m215.9 38.5h-.9l.2 3.7z"/><g fill-rule="nonzero"><g fill="#d8d8d8" opacity=".64" transform="translate(62 14)"><path d="m15.3.3c-3.5-.2-6.8.9-8.9 2.8-1.3 1.2-2.2 2.6-2.4 4.1l-3.3 17.3h6.4l3.1-15.8c.2-.9 1.1-1.7 2.5-2 .4-.1.9-.1 1.3 0 .6.1 1.1.3 1.4.7.6.5.8 1.2.7 1.8l-3 15.3h6.8l3-15.6c-.1 0 1.3-8.3-7.6-8.6z"/><path d="m179.2.3c-3.5-.2-6.8.9-8.9 2.8-1.3 1.2-2.2 2.6-2.4 4.1l-3.3 17.3h6.4l3.1-15.8c.2-.9 1.1-1.7 2.5-2 .4-.1.9-.1 1.3 0 .6.1 1.1.3 1.4.7.6.5.8 1.2.7 1.8l-3 15.3h6.9l3-15.7c-.1 0 1.2-8.2-7.7-8.5z"/><path d="m40.8.4c-4.1-.2-8.3-.2-12.4 0l-4.5 24.1h6.4l3.4-16.7c6.2-.6 5.3 2.1 5.3 2.1s-1.7 10.5-2.6 14.6h6.6c1.1-5 3.2-16.6 3.6-18 .1-.2-.4-5.8-5.8-6.1z"/><path d="m72.8.4c-7.1 0-10.7 2.8-11.1 4.9-.2 1.1-2.1 10.4-3.8 19.2h6.5l3.1-15.2s0-2.8 3.6-2.8 2.2 4 2.2 4l-1.3 5.8h6.7l1.8-10.4c-.1.1-.6-5.5-7.7-5.5z"/><path d="m82.4 24.5h7l3.9-12.1-.9 12.1h6.2l.4-23.5v-.6h-8.4z"/><path d="m128.6 24.5h6.7l4.7-24.1h-6.7z"/><path d="m158.6.4-4.7 24.1h6.7l4.7-24.1z"/><path d="m145.2.4-4.7 24.1h6.7l.3-1.5.1 1.5h5.4l-1.1-24.1z"/><path d="m118.8.3c-9.3-.3-10.7 7.4-10.7 7.4l-2.4 11.1c-.4 1.9-.2 3.9.5 5.7h8.1c-1.7-1.9-2.2-3.4-2.2-4.3 0-1.2 2.2-11.4 2.2-11.7.3-1.2 1.8-2.1 3.6-2.1 2.7 0 2.2 2.5 2.2 2.5l-1.3 8h6.7l1.8-9.2c0-.1.8-7.1-8.5-7.4z"/></g><path d="m9.6 32.9-4.9-4.3 11.5-24.3 33.3-4.3 15.4 21.3-8.5 6.2 9.8 6.7-6.2 25.8-32.5 14.5-27.5-12.9z" fill="#f8c40c"/><path d="m11.1 26.6c0-.6 7.1-17.5 7.1-17.5s30.2-4 30.2-3.4 9.8 15 9.8 15l-10.7 7.7 12.9 8-3.6 19.6-28.8 12.9-21.8-9.5 9.8-30.7 13.3-6.4-6.7 28.2s21.3-9.2 20.9-9.5-16-8.6-15.1-9.2 19.1-12 19.1-12-2.7-5.8-3.5-5.2c-.9.6-32.9 12-32.9 12z" fill="#000002"/><path d="m37.3 32.7c6.4-1.9 13-3.5 19.7-4.8l-.6-.4 8.4-6.1-15.3-21.4-33.3 4.3-11.5 24.3 4.9 4.3-5.8 17.2c7.4-5.2 20.3-13.5 33.5-17.4z" fill="url(#a)" opacity=".64"/></g></g></svg>