<svg width="104" height="36" xmlns="http://www.w3.org/2000/svg"><g transform="translate(1 1)" fill="none" fill-rule="evenodd"><path d="M17.59 30.142l-.295-5.629a.618.618 0 0 1 .726-.639l5.624.985-.76-2.087a.423.423 0 0 1 .132-.476l6.16-4.97-1.388-.646a.423.423 0 0 1-.222-.515l1.217-3.73-3.548.75a.426.426 0 0 1-.478-.248l-.687-1.611-2.77 2.96a.427.427 0 0 1-.726-.37l1.335-6.862-2.14 1.233a.427.427 0 0 1-.596-.176L17 3.858l-2.174 4.253a.425.425 0 0 1-.595.176L12.09 7.054l1.335 6.861a.427.427 0 0 1-.727.372L9.93 11.326l-.687 1.61a.426.426 0 0 1-.478.249l-3.548-.75 1.217 3.73a.423.423 0 0 1-.222.515l-1.388.646 6.16 4.97a.423.423 0 0 1 .131.476l-.76 2.087 5.625-.985a.624.624 0 0 1 .726.64l-.294 5.628h1.178z" fill="red" fill-rule="nonzero"/><text font-family="GillSans-SemiBold, Gill Sans" font-size="11.574" font-weight="500" letter-spacing=".299" fill="red"><tspan x="33.759" y="14.376">CANADA&apos;S</tspan></text><text font-family="GillSans-SemiBold, Gill Sans" font-size="11.574" font-weight="500" letter-spacing="-.425" fill="red"><tspan x="33.759" y="27.397">FAVOURITE</tspan></text><rect stroke="red" stroke-width="1.206" width="102" height="34" rx="1.929"/></g></svg>