<svg width="176" height="31" xmlns="http://www.w3.org/2000/svg"><defs><linearGradient x1="50.021%" y1="5.026%" x2="50.021%" y2="101.736%" id="a"><stop stop-color="#B8BDBE" offset="0%"/><stop stop-color="#81868A" offset="31%"/><stop stop-color="#FCFCFF" offset="100%"/></linearGradient><linearGradient x1="-239.793%" y1="1251.531%" x2="-239.793%" y2="1154.335%" id="b"><stop stop-color="#B8BDBE" offset="0%"/><stop stop-color="#81868A" offset="31%"/><stop stop-color="#FCFCFF" offset="100%"/></linearGradient><linearGradient x1="-246.104%" y1="1243.725%" x2="-246.104%" y2="1146.985%" id="c"><stop stop-color="#B8BDBE" offset="0%"/><stop stop-color="#81868A" offset="31%"/><stop stop-color="#FCFCFF" offset="100%"/></linearGradient><linearGradient x1="-246.863%" y1="1247.243%" x2="-246.863%" y2="1150.533%" id="d"><stop stop-color="#B8BDBE" offset="0%"/><stop stop-color="#81868A" offset="31%"/><stop stop-color="#FCFCFF" offset="100%"/></linearGradient><linearGradient x1="-243.076%" y1="1274.954%" x2="-243.076%" y2="1176.049%" id="e"><stop stop-color="#B8BDBE" offset="0%"/><stop stop-color="#81868A" offset="31%"/><stop stop-color="#FCFCFF" offset="100%"/></linearGradient><linearGradient x1="-250.126%" y1="1293.068%" x2="-250.126%" y2="1191.838%" id="f"><stop stop-color="#B8BDBE" offset="0%"/><stop stop-color="#81868A" offset="31%"/><stop stop-color="#FCFCFF" offset="100%"/></linearGradient><linearGradient x1="-196.564%" y1="1227.012%" x2="-196.564%" y2="1130.951%" id="g"><stop stop-color="#B8BDBE" offset="0%"/><stop stop-color="#81868A" offset="31%"/><stop stop-color="#FCFCFF" offset="100%"/></linearGradient></defs><g fill="none" fill-rule="evenodd"><path d="M93.382 29.826a5.119 5.119 0 0 1-4.88-3.531v-.033h-4.907a5.127 5.127 0 1 1-9.776-3.093v-.019L79.442 5.35a5.119 5.119 0 0 1 4.892-3.583h3.202a5.119 5.119 0 0 1 4.87 3.532l5.85 17.797a5.119 5.119 0 0 1-3.258 6.464h-.032a5.323 5.323 0 0 1-1.584.267z" fill="url(#a)"/><path d="M25.593 28.068c-1.771 0-3.43-.864-4.446-2.315l-3.963-5.645v1.638a5.85 5.85 0 0 1-11.7 0V6.142a5.85 5.85 0 0 1 11.637-.833l3.927-3.89a4.859 4.859 0 0 1 6.859 6.88l-3.39 3.353 5.514 7.886a5.418 5.418 0 0 1-4.438 8.53z" fill="url(#b)"/><path d="M165.748 28.54a5.119 5.119 0 0 1-4.88-3.54v-.117h-4.936a5.126 5.126 0 0 1-9.77-3.111l5.624-17.801a5.119 5.119 0 0 1 4.892-3.583h3.199a5.119 5.119 0 0 1 4.888 3.539l5.879 17.863a5.137 5.137 0 0 1-4.888 6.75h-.008z" fill="url(#c)"/><path d="M48.754 28.444a5.119 5.119 0 0 1-4.881-3.528v-.033h-4.91a5.124 5.124 0 1 1-9.766-3.107l5.62-17.81A5.119 5.119 0 0 1 39.705.389h3.203a5.119 5.119 0 0 1 4.866 3.528l5.85 17.797a5.119 5.119 0 0 1-3.262 6.457h-.029a5.144 5.144 0 0 1-1.58.274z" fill="url(#d)"/><path d="M70.687 28.452c-3.086 0-5.598-2.073-5.598-4.622v-.395c0-.899.04-2.998-.705-3.74a1.185 1.185 0 0 0-.955-.296h-.544v2.903a5.952 5.952 0 0 1-5.188 5.967 5.85 5.85 0 0 1-6.512-5.824V6.903a5.872 5.872 0 0 1 5.923-5.832c.244 0 .489.016.731.048l10.566.047c4.596 0 7.963 6.015 7.963 8.57 0 1.828-.179 3.342-2.018 5.016 1.185 1.642 2.077 4.132 2.077 7.312 0 2.516-.958 3.986-1.755 4.783a5.576 5.576 0 0 1-3.989 1.579l.004.026zM65.14 10.99a.329.329 0 0 0 .063-.095 1.667 1.667 0 0 0-.49-.636h-1.828v.731h2.255z" fill="url(#e)" fill-rule="nonzero"/><path d="M128.73 27.673a2.329 2.329 0 0 1-.39-.044 4.961 4.961 0 0 1-4.765-4.961V6.036s2.095-4.983 4.848-5.283h.271a.94.94 0 0 0 .46.366l10.65.047c4.286 0 7.832 5.455 7.832 8.22 0 1.626-.146 3-1.601 4.467 1.14 1.155 2.193 3.016 2.193 6.065 0 5.181-4.387 7.89-8.73 7.89l-10.767-.135zm5.448-8.64h2.37c.093-.08.177-.172.248-.274-.062-.062-.132-.113-.201-.091h-2.417v.366zm2.329-8.408c-.106-.1-.238-.238-.366-.366h-1.963v.366h2.329z" fill="url(#f)" fill-rule="nonzero"/><path d="M110.988 28.54a.366.366 0 0 1-.297.054 4.877 4.877 0 0 1-4.09-3.027 5.206 5.206 0 0 1-4.41 2.972h-1.32c-2.636-.11-4.716-4.866-4.716-4.866V5.148S98.246.333 100.908.029h4.617c2.253.296 4.223 1.828 4.753 4.022l.867 3.532.84-3.532A4.753 4.753 0 0 1 116.74.395h4.614c2.661-.051 4.811 4.753 4.811 4.753v18.521s-2.124 4.753-4.753 4.505h-1.345a4.3 4.3 0 0 1-4.41-2.61 4.863 4.863 0 0 1-4.102 3.027.856.856 0 0 1-.285-.052h-.281z" fill="url(#g)"/><path d="M20.474 29.208c-1.77 0-3.43-.863-4.446-2.314l-3.963-5.649v1.635a5.859 5.859 0 1 1-11.7 0V7.283a5.85 5.85 0 0 1 11.638-.834l3.927-3.89a4.857 4.857 0 1 1 6.84 6.885l-3.37 3.352 5.513 7.883a5.418 5.418 0 0 1-4.439 8.53zm150.027-.398a5.119 5.119 0 0 1-4.88-3.528v-.033h-4.885a5.128 5.128 0 1 1-9.773-3.111l5.609-17.802a5.119 5.119 0 0 1 4.895-3.583h3.206a5.119 5.119 0 0 1 4.87 3.528l5.85 17.802a5.119 5.119 0 0 1-3.254 6.464 5.195 5.195 0 0 1-1.638.263z" fill="#FFF"/><path d="M44.732 28.81a5.119 5.119 0 0 1-4.88-3.528v-.033h-4.907a5.126 5.126 0 0 1-9.77-3.111l5.646-17.802A5.119 5.119 0 0 1 35.69.753h3.206a5.119 5.119 0 0 1 4.866 3.528l5.85 17.802a5.119 5.119 0 0 1-3.261 6.46h-.026a5.016 5.016 0 0 1-1.594.267z" fill="#FFF"/><path d="M68.862 28.817c-3.09 0-5.6-2.07-5.6-4.617V23.8c0-.896.04-2.994-.706-3.736a1.207 1.207 0 0 0-.958-.3h-.541v3.045a5.859 5.859 0 1 1-11.7 0V7.268a5.875 5.875 0 0 1 5.93-5.831c.245 0 .489.015.731.047l10.574.048c4.603 0 7.97 6.014 7.97 8.566 0 1.828-.172 3.342-2.014 5.016 1.18 1.642 2.073 4.132 2.073 7.312 0 2.512-.955 3.986-1.755 4.779a5.59 5.59 0 0 1-4.004 1.612zm-5.546-17.092a.53.53 0 0 0 .062-.095 1.784 1.784 0 0 0-.493-.64h-1.828v.731l2.259.004zm69.367 16.313c-.13 0-.258-.014-.384-.043a4.9 4.9 0 0 1-4.702-4.892V6.533s2.146-4.983 4.9-5.049h.219c.153.03.479.366.479.366l10.394.048c4.223 0 7.721 5.378 7.721 8.105 0 1.605-.142 2.961-1.579 4.41 1.13 1.133 2.154 2.968 2.154 5.98 0 5.12-4.337 7.78-8.61 7.78l-10.592-.135zM138.2 19.4h2.405c.092.051.176-.044.253-.142a1.587 1.587 0 0 1-.205-.223H138.2v.365zm2.369-8.409c-.11.026-.238-.124-.388-.365H138.2v.365h2.369z" fill="#FFF" fill-rule="nonzero"/><path d="M112.699 29.27a.428.428 0 0 1-.296.037 4.874 4.874 0 0 1-4.092-3.027c-.79 1.73-4.409 2.99-4.409 2.99h-1.133a4.782 4.782 0 0 1-4.786-4.774V5.959a4.84 4.84 0 0 1 4.855-4.84h4.592a4.822 4.822 0 0 1 4.731 3.718l.837 3.54.838-3.54a4.822 4.822 0 0 1 4.698-3.718h4.592a4.844 4.844 0 0 1 4.837 4.84v18.423c-.103 2.633-2.241 4.753-4.874 4.523h-1.342a4.332 4.332 0 0 1-4.387-2.625 4.859 4.859 0 0 1-4.098 3.027.98.98 0 0 1-.285-.036h-.278z" fill="#FFF"/><path d="M93.62 30.225c-2.282.014-4.31-1.507-5.014-3.761v-.125h-5.022c-.57 1.855-2.048 3.253-3.88 3.67-1.83.415-3.736-.215-4.999-1.654-1.262-1.439-1.69-3.468-1.12-5.322L79.34 4.115c.687-2.27 2.716-3.812 5.007-3.808h3.274c2.28-.008 4.302 1.514 5.004 3.765l6.006 18.98c.912 2.862-.582 5.949-3.338 6.897-.538.183-1.1.276-1.665.276h-.008z" fill="#FFF"/><path d="M23.063 21.812l-6.468-9.246 4.56-4.523a2.852 2.852 0 0 0-.271-4.46 2.71 2.71 0 0 0-1.463-.512 2.877 2.877 0 0 0-2.289.95l-7.26 7.181v-3.89a3.846 3.846 0 1 0-7.678 0v15.575a3.846 3.846 0 1 0 7.677.475v-4.127l1.792-1.777 5.806 8.273a3.418 3.418 0 0 0 5.765-3.656c-.054-.102-.113-.182-.171-.263z" fill="#00AFB4"/><path d="M173.58 22.69l-5.766-17.612a3.097 3.097 0 0 0-2.943-2.131h-3.272a3.119 3.119 0 0 0-2.98 2.193l-5.586 17.667a3.2 3.2 0 0 0 1.583 3.857 3.13 3.13 0 0 0 4.354-1.872l.435-1.371h7.82l.461 1.258a3.13 3.13 0 0 0 3.96 2.01c1.652-.548 2.018-4 2.018-4h-.084zm-12.745-4.022l2.39-7.572 2.487 7.572h-4.877zM47.602 22.872L41.763 5.12a3.126 3.126 0 0 0-2.968-2.154h-3.196a3.126 3.126 0 0 0-2.983 2.194L27 22.902a3.13 3.13 0 1 0 5.967 1.886l.435-1.367h7.795l.431 1.305a3.192 3.192 0 0 0 3.532 2.194 3.13 3.13 0 0 0 2.442-4.048zm-12.774-4.204l2.39-7.572 2.487 7.572h-4.877zm34.499-3.561c3.03-1.898 3.063-3.042 3.063-4.84 0-1.8-2.782-6.582-5.871-6.582l-10.544-.058a3.813 3.813 0 0 0-4.424 3.788v15.549a3.843 3.843 0 1 0 7.677.237v-5.264h2.392c3.977 0 3.623 4.83 3.623 6.43 0 3.054 7.213 4.553 7.213-1.743.026-4.643-1.992-7.016-3.13-7.517zm-5.671-1.558h-4.428V8.9c.64 0 4.406-.033 4.417 0 3.386 2.5.863 4.65.011 4.65zm82.682 1.006c3.002-1.806 3.05-2.9 3.05-4.607 0-1.707-2.757-6.27-5.821-6.27L133.08 3.63v.136a2.95 2.95 0 0 0-3.572 2.193 2.84 2.84 0 0 0-.084.732v16.47s1.397 2.99 3.05 3.185h.24l10.505.142c2.676 0 6.712-1.52 6.712-5.937s-2.471-5.525-3.594-5.996zm-9.966-5.78s4.5-.037 4.511 0c3.371 2.372.856 4.416 0 4.416h-4.511V8.775zm4.91 12.825c0 .037-4.91 0-4.91 0v-4.387h4.482c.856 0 3.78 2.029.432 4.387h-.004z" fill="#00AFB4" fill-rule="nonzero"/><path d="M122.906 2.947h-4.427a2.848 2.848 0 0 0-2.797 2.193l-2.786 11.7-2.782-11.7a2.855 2.855 0 0 0-2.8-2.193h-4.622a2.852 2.852 0 0 0-2.881 2.83v18.532a2.804 2.804 0 0 0 2.808 2.768h1.261s2.834-1.188 2.881-2.75v-9.999l3.32 10.994a3.152 3.152 0 0 0 2.61 2.12h.282a3.13 3.13 0 0 0 2.61-2.12l3.24-10.994v9.926a2.844 2.844 0 0 0 2.844 2.823h1.302a2.797 2.797 0 0 0 2.8-2.768V5.784a2.848 2.848 0 0 0-2.859-2.837h-.004z" fill="#00AFB4"/><path d="M96.52 22.69L90.722 5.078a3.104 3.104 0 0 0-2.947-2.131h-3.261A3.122 3.122 0 0 0 81.53 5.14L75.915 22.91a3.14 3.14 0 1 0 5.981 1.88l.432-1.368h7.82l.46 1.258a3.13 3.13 0 0 0 3.96 2.01c1.645-.537 2.004-3.988 2.004-3.988l-.052-.011zm-12.745-4.022l2.395-7.572 2.483 7.572h-4.878z" fill="#00AFB4" fill-rule="nonzero"/></g></svg>