<svg xmlns="http://www.w3.org/2000/svg" width="170" height="86"><g fill="none"><path fill="#000" d="M65.494 57.756c-1.235 0-2.362-.109-3.415.037-3.342.4-4.54 3.087-4.54 5.92 0 .51.108 1.018.181 1.526.4 2.361 2.58 3.705 4.868 3.015 2.942-.872 5.485-2.506 7.991-4.177 5.05-3.378 10.062-6.83 15.147-10.135 6.357-4.14 13.913-3.814 19.943.8.472.363.726.399 1.235.036 6.102-4.613 13.549-4.977 19.942-.836 5.013 3.233 9.953 6.648 14.93 9.99 2.542 1.707 5.085 3.378 8.064 4.286 2.579.8 4.758-.4 5.122-3.051.181-1.38.072-2.87-.327-4.214-.618-2.216-3.052-3.524-5.63-3.233-.546.073-1.09.145-1.89.218.291-.363.4-.581.582-.726 3.269-2.98 8.827-2.362 11.515 1.27 3.814 5.159 3.668 12.606-.327 18.054-3.67 5.013-8.718 7.592-14.676 8.61-6.03 1.053-11.987.18-17.871-1.272-5.376-1.38-10.462-3.524-15.039-6.72-1.525-1.09-2.942-2.361-4.359-3.596-.472-.436-.763-.509-1.271-.037-5.304 5.122-11.733 8.173-18.744 10.171-4.577 1.272-9.226 1.962-13.949 1.926-5.92-.073-11.405-1.671-15.982-5.558-3.996-3.342-6.394-7.628-6.358-12.968.037-3.633 1.054-7.047 3.742-9.663 2.834-2.797 7.592-2.833 10.57-.217.255.145.364.326.546.544zM7.01 11.878c2.107-2.942 5.121-3.814 8.5-3.56 3.378.255 6.03 1.853 7.81 4.94.29-.363.472-.617.653-.871 2.434-3.342 6.72-4.831 11.116-3.778 3.814.908 6.43 3.85 7.12 8.028.108.763.181 1.525.181 2.325.036 4.758-.036 9.517.036 14.239 0 .872-.218 1.199-1.162 1.162a44.346 44.346 0 0 0-4.395 0c-.8.037-.981-.29-.981-1.017.036-4.032.073-8.064-.036-12.096-.037-1.308-.146-2.688-.545-3.923-.618-1.962-2.18-3.015-4.25-3.197-2.361-.218-4.54.255-5.667 2.543-.545 1.126-.8 2.47-.835 3.742-.11 4.25-.073 8.536-.037 12.786 0 .872-.181 1.235-1.126 1.162a44.346 44.346 0 0 0-4.395 0c-.8.037-1.09-.218-1.054-1.053.037-4.468.037-8.936 0-13.368-.036-2.18-.653-4.104-2.76-5.267-4.105-2.216-8.464.545-8.5 5.376a784.63 784.63 0 0 0 0 13.077c0 .908-.218 1.272-1.199 1.235-1.526-.072-3.051-.036-4.577-.036-.617.036-.872-.182-.872-.836.037-7.991.037-16.019 0-24.01 0-.654.255-.872.872-.836 1.635.037 3.27.037 4.868 0 .69-.036.908.29.871.945-.036.726 0 1.453 0 2.216.182 0 .291.036.364.072z"/><path fill="#00A0FA" d="M79.987 11.987c1.308-1.344 2.652-2.506 4.36-3.124 5.12-1.816 11.115.29 13.803 5.231 2.797 5.23 2.724 10.57-.545 15.62-2.906 4.504-9.154 6.284-13.658 4.032-1.163-.581-2.107-1.599-3.088-2.47-.218-.182-.4-.473-.763-.872-.036.581-.072.908-.072 1.235 0 4.577-.037 9.19.036 13.767 0 .726-.182 1.017-.98 1.017-1.854-.073-3.706-.036-5.631-.036-.037-.436-.073-.8-.073-1.126 0-11.806 0-23.648-.036-35.453 0-.945.218-1.235 1.198-1.199 1.526.073 3.052.036 4.577.036.654-.036.945.218.909.908-.073.836-.037 1.635-.037 2.434zm-.109 9.48c.182.945.218 1.926.509 2.834.799 2.652 3.305 4.577 5.993 4.65 2.725.073 5.304-1.635 6.357-4.177.618-1.453.618-2.943.545-4.505-.182-3.814-3.778-6.829-7.556-6.248-3.487.582-5.739 3.451-5.848 7.447zm53.216-9.19c0-1.162.036-2.033 0-2.905-.036-.472.145-.69.69-.69 1.89.036 3.778 0 5.74 0v25.536h-6.394v-3.814c-.69.726-1.162 1.235-1.634 1.743-2.252 2.253-5.013 2.761-8.1 2.47-5.849-.617-10.825-6.03-10.426-13.912.218-4.359 1.78-8.028 5.521-10.534 3.996-2.688 9.7-2.506 13.005.436.508.4.944.944 1.598 1.67zm-13.513 9.19c.145.873.218 1.745.472 2.58 1.126 3.923 5.812 6.502 9.88 3.814 3.706-2.434 4.323-8.609 1.163-11.77-1.49-1.525-3.305-2.288-5.449-1.997-3.741.509-5.993 3.342-6.066 7.374zm27.498 24.956c.727-1.744 1.344-3.27 1.998-4.831.98-2.361 2.034-4.722 2.979-7.083a2.005 2.005 0 0 0 0-1.453c-3.088-7.847-6.248-15.656-9.372-23.503a6.065 6.065 0 0 1-.218-.726c.327-.036.617-.11.872-.11 1.852 0 3.705.037 5.557-.035.654-.037.981.218 1.199.835 1.889 5.34 3.778 10.716 5.703 16.02.109.29.218.508.472.98a531.76 531.76 0 0 0 1.816-4.795c1.562-4.104 3.088-8.173 4.686-12.278.146-.326.582-.762.908-.762 1.89-.073 3.778-.037 5.667-.037.145 0 .29.073.581.11a358.33 358.33 0 0 0-1.78 4.177c-4.54 10.715-9.08 21.431-13.585 32.147-.4.98-.908 1.38-1.998 1.271-1.743 0-3.523.073-5.485.073zM103.271.073c2.07 0 4.069-.037 6.103.036.182 0 .4.327.508.545.073.181.037.436.037.69v31.712c0 1.27 0 1.27-1.272 1.27h-5.34c-.036-11.441-.036-22.738-.036-34.253z"/><path fill="#000" d="M54.088 12.387c.181-.29.4-.545.617-.8 1.38-1.888 3.233-2.942 5.558-3.269.654-.072 1.053 0 1.017.836-.036 1.925-.036 3.814-.036 5.775-1.163.11-2.216.11-3.233.327-2.616.473-3.96 1.926-4.069 4.577-.145 2.652-.109 5.267-.109 7.92a141.735 141.735 0 0 0 0 5.557c.037.799-.218 1.126-1.053 1.09-1.598-.073-3.197-.037-4.795 0-.617.036-.872-.182-.835-.836.036-7.991.036-16.02 0-24.01 0-.618.218-.872.835-.872 1.635.036 3.27.036 4.868 0 .726-.037.98.29.944.98-.036.872 0 1.78 0 2.688.109-.036.182 0 .29.037zM69.27 30.513c0 2.506-1.889 4.322-4.395 4.322-2.47-.036-4.25-1.852-4.25-4.359 0-2.47 1.853-4.322 4.286-4.322 2.507 0 4.36 1.852 4.36 4.359z"/></g></svg>