<svg height="75" viewBox="0 0 131 75" width="131" xmlns="http://www.w3.org/2000/svg"><g fill="none" transform="translate(-1)"><path d="m1 68.652c2.813-.594 2.726-.17 2.726-3.138 0-4.157.087-8.313.087-12.47 0-2.29 0-2.29-2.285-2.714-.264-.34-.264-.678.088-1.187 3.165.509 6.33-.17 9.494.084.791.085 1.583.255 2.374.51 4.571 1.696 5.362 6.276 1.67 9.33-.615.509-1.23.848-1.934 1.357 3.692 2.969 6.593 6.616 10.462 9.416 3.428 2.544 7.12 3.477 11.164 1.611.088-.085.264 0 .44 0-.527 1.273-1.495 1.866-2.637 2.206-2.99 1.102-5.89.678-8.616-.679-3.252-1.612-5.978-4.071-8.615-6.446-1.407-1.273-2.813-2.545-4.044-3.902-1.143-1.188-2.462-1.697-4.396-1.273 0 1.951-.088 3.987 0 6.023.088 1.272 1.407 1.102 2.286 1.272.264.34.264.764.088 1.272-2.725-.254-5.45-.17-8.176-.084-.176-.51-.176-.849-.176-1.188zm5.89-9.246h4.22c.176 0 .352-.085.528-.17 1.758-.763 2.9-2.374 2.725-4.325-.088-1.867-1.319-3.393-3.165-3.987-1.055-.34-2.11-.34-3.165-.34-.791 0-1.23.425-1.23 1.188.087 2.46.087 4.92.087 7.634zm80.717-11.406c.267.435.356.87.089 1.566-2.41-.348-2.944 1.479-3.658 3.219-2.23 5.655-4.461 11.224-6.603 16.792-.981.435-1.16-.26-1.338-.783l-7.227-16.444c-.714-1.653-1.517-3.045-3.569-2.697-.267-.435-.356-.783-.267-1.305 3.033 0 6.156.174 9.19-.087.356.435.267.783.089 1.218-.893.26-1.874.174-2.855.957 1.873 4.35 3.836 8.7 5.799 13.312 1.784-4.525 3.48-8.875 5.175-13.051-.625-1.218-1.785-.87-2.677-1.044-.267-.435-.09-.783-.178-1.218 1.249-.261 2.498 0 3.658 0 1.16-.087 2.409.174 3.48-.435zm43.588 16.025c-1.629 2.158-2.987 2.638-5.974 1.998-.724-.16-1.539-.16-2.444-.08-.181-1.119-.453-2.158-.634-3.357.724-.08.724.48.905.72.996 1.278 2.173 2.158 4.074 2.078.815-.08 1.539-.24 1.72-1.12.18-.719-.272-1.278-.905-1.598-.725-.4-1.54-.72-2.354-1.04-.815-.319-1.63-.719-2.263-1.278-1.539-1.44-.815-3.677 1.358-4.157.905-.24 1.9-.24 2.806-.08.905.16 1.81.32 2.806.48v2.718c-.633-.16-.633-.64-.814-.96-.815-.959-1.81-1.678-3.35-1.598-.724 0-1.267.32-1.448.959-.181.64.18 1.039.724 1.279.634.32 1.267.64 1.991.88 1.72.639 3.169 1.518 3.893 3.117-.09.4-.09.719-.09 1.039z" fill="#c92f31"/><path d="m26.731 66.285c-4.487 0-7.126-2.787-6.07-6.61.704-2.389 3.255-3.823 6.598-3.663 4.223.239 6.599 3.265 5.455 6.77-.792 2.23-2.991 3.503-5.983 3.503zm-3.695-5.176c-.088.796.088 1.513.352 2.23.528 1.354 1.672 2.15 3.167 2.15 1.496.08 2.728-.637 3.344-1.991.703-1.593.703-3.265 0-4.778-.528-1.275-1.672-1.991-3.168-1.912-1.495 0-2.463.717-3.167 1.912-.44.716-.616 1.513-.528 2.389zm80.093.576h5.3c-.166.562-.745.401-1.077.883-.331.722.083 1.685-.248 2.648-2.153.962-4.307 1.444-6.625.722-2.154-.642-3.479-2.407-3.479-4.654 0-2.407 1.16-4.092 3.396-4.895 1.987-.722 3.975-.32 6.045.24.166.964.249 1.927.414 2.97-.745.08-.745-.562-.91-.883-.746-1.284-1.823-1.845-3.313-1.765-1.408.08-2.32.883-2.733 2.086-.58 1.605-.58 3.21.248 4.734.663 1.204 1.988 1.926 3.23 1.685.745-.16 1.74-.24 1.822-1.364.083-1.043-.166-1.845-1.408-2.006-.331 0-.414-.16-.662-.401zm-11.602 1.402c-1.55-2.16-1.55-2.16-3.182-1.988v4.322c2.774.605 4.814-.26 6.364-2.766.082 1.383-.816 2.334-.979 3.63h-9.301c.571-.605 1.468-.345 1.55-1.123.082-.605.082-1.21.082-1.815v-4.754c0-1.037 0-1.988-1.306-2.075-.163 0-.245-.259-.163-.518h8.893v3.198c-.734-.865-1.06-1.988-2.12-2.334-.98-.26-1.96-.173-3.02-.173-.163 1.21-.081 2.334 0 3.544 1.55.26 2.448-.432 3.264-1.815-.082 1.556-.082 3.025-.082 4.667zm-57.295-7.087h5.885c-.179.697-.98.436-1.338 1.133.625 1.395 1.784 2.44 2.764 3.922.892-1.307 1.784-2.527 1.962-3.66-.178-.872-.98-.698-1.16-1.395h4.37c-1.873.871-2.497 2.79-3.656 4.184-1.426 1.656-1.07 3.486-.98 5.23.445.697 1.158.348 1.693.871h-5.884c.624-.523 1.783-.348 1.694-1.481-.09-1.395.356-2.877-.892-4.097-.713-.785-1.337-1.656-1.961-2.528-.714-.872-1.338-1.743-2.586-1.918 0-.087 0-.174.09-.261zm86.768 10.278h-5.333c.339-.746 1.27-.249 1.44-1.326l-.932-2.736h-2.878c-.508.912-.932 1.907-1.016 2.819.169.746.93.58 1.185 1.16-1.355.166-2.54.083-3.894-.083 1.439-.497 1.777-1.823 2.285-2.984.678-1.575 1.355-3.233 2.117-4.807.254-.498.508-1.078.17-1.658.676-.249 1.354-.415 2.03-.663.593 1.657 1.27 3.232 1.863 4.89.424.995.762 1.99 1.1 3.067.34.995.678 1.907 1.863 2.321zm-5.333-4.89c-.085-.995-.508-1.907-.931-2.985-.508 1.078-.847 1.99-1.1 2.985zm-58.667 4.897h-5.5c.43-.58 1.118-.331 1.462-1.078.086-.912-.688-1.908-.946-2.986h-3.007c-.3161884.9224492-.6600101 1.835194-1.031 2.737.258.747.945.664 1.375 1.244h-3.781c2.492-2.654 3.265-6.22 4.812-9.456-.086-.083-.172-.083-.258-.166.601-.166 1.203-.331 1.976-.58.946 2.571 1.977 5.06 2.922 7.631.344 1.161.687 2.24 1.976 2.654zm-6.358-7.963c-.516 1.162-.946 1.991-1.118 3.07.774.082 1.461.165 2.235-.084-.3481862-1.0042001-.7206286-1.999825-1.117-2.986zm6.696-2.322h5.733v.345c-1.855.346-2.024 1.73-1.94 3.285.085 1.902 0 3.803 0 5.791 2.698.605 4.637-.346 5.818-2.939l.337.346c-.422 1.21-.759 2.334-1.096 3.457h-8.852c.337-.605 1.011-.259 1.18-.605.506-.432.337-.95.337-1.469v-5.1c0-1.296.337-2.68-1.855-2.766z" fill="#c92f31"/><path d="m85.62 37.628c0 .636-.256 1.272-.513 1.78-.256.254-.64.127-.897.127h-2.69c-2.435-.127-4.742 0-6.92 1.271-1.794.89-3.716 1.145-5.766 1.399-.128 0-.385 0-.513.254h-1.025c-.256-.254-.512-.254-.769 0h-2.177c-.256-.254-.513-.254-.769 0h-.897c-.64-.381-1.41-.381-2.05-.508-2.178-.382-4.357-1.017-6.279-2.162-.384-.254-.769-.254-1.153-.254h-7.177c-.128-.254-.384-.508-.128-.89h6.535c.897 0 1.666.127 2.435.509 3.716 1.78 7.56 2.415 11.66 2.288 3.46-.127 6.792-.763 9.867-2.415.5162089-.2603565 1.0879274-.3914468 1.666-.382h6.791c.513-.381.64-.762.769-1.017z" fill="#b08732"/><path d="m66.527 42.332c.257-.254.513-.254.77 0zm-2.819 0c.257-.254.513-.254.77 0zm14.095-32.798v-.508c0-.382.129-.89.513-1.017.513-.127.897 0 1.281.381 0 .127.129.254.257.254.64-.381 1.281-.89 2.05-.635-.256.381-.897.381-1.153.89-1.025.89-1.41 2.034-2.05 3.178-.129.254-.257.508-.129.762-.64 1.272-1.153 2.416-1.794 3.687-.256.127-.256.508-.64.508-.4322024-.2871859-.9084996-.5016885-1.41-.635-3.588-1.526-7.304-2.288-11.276-1.78-2.05.254-3.972.636-5.894 1.398-1.026.382-1.794 1.017-2.82 1.145-.256-.128-.384-.382-.384-.763-.256-.89-.512-1.78-1.153-2.543-.385-.635-.64-1.398-.897-2.034-.256-1.27-.897-2.288-1.922-3.05 0-.382-.385-.509-.769-.763.897-.255 1.41.254 1.922.635.384-.127.384-.635.64-.762.513 0 .898 0 1.154.254.513.381.384.763.256 1.271-.128.254-.64.381-.897.636 0 .254.128.508.257.635 0 .382.256.636.512.763.897.89 2.82.89 3.716.254.769-.508.897-1.27.64-2.16 0-.255 0-.636-.255-.89-.385 0-.77-.255-1.026-.51v-.762c0-.763.513-1.144 1.282-1.144s1.153.509 1.153 1.271c0 .382 0 .763-.128 1.144-.256.636 0 1.144.769 1.399 1.153.381 2.434.381 3.716.127.897-.254 1.41-.89 1.537-1.78 0-.381.385-.636.129-1.017-1.282.763-1.922.636-2.82-.381-.128-1.653 0-1.907 1.923-2.543-.513-1.907.384-3.178 1.665-4.449 1.41 1.144 2.05 2.542 1.666 4.322 1.922.636 2.05.763 1.922 2.416-.64 1.144-1.281 1.27-2.819.635-.128.254 0 .509 0 .763 0 .127 0 .127.128.127 0 .763.513 1.144 1.026 1.398 1.28.89 3.587.636 4.869-.508.128-.636-.256-1.144-.128-1.653 0-.89.512-1.398 1.281-1.398s1.281.508 1.281 1.398v.509c-.384.381-.897.508-1.41.635v.763c-.127.89.129 1.653.77 2.288 2.05.763 3.844 0 4.228-1.27.257-.128.385-.382.257-.637-.385 0-.641-.127-1.026-.254z" fill="#eecb2f"/><path d="m86.389 28.221v3.305c-.128 2.034-.257 4.068-.77 5.975-.127.382-.384.636-.512 1.144h-6.791c-.5780726-.0094468-1.1497911.1216435-1.666.382-3.075 1.652-6.407 2.288-9.866 2.415-4.1.127-7.945-.508-11.661-2.288-.769-.382-1.538-.636-2.435-.509h-6.535c-.512-.89-.512-1.906-.64-2.923-.257-1.653-.385-3.433-.513-5.213v-3.305c.128-2.67.64-5.466 1.41-8.136h7.047c.513 0 1.025-.127 1.41-.38 4.1-2.162 8.585-2.925 13.198-2.543 3.075.254 6.022 1.017 8.713 2.67.385.253.77.253 1.154.253h7.047c.897 3.051 1.282 6.102 1.41 9.153zm-2.05-8.39h-5.126c-1.538.127-2.947-.127-4.357-1.017-.256-.254-.64-.254-1.025-.381-3.716-1.271-7.56-1.78-11.66-1.144-2.248819.3643772-4.4440762 1.0048845-6.536 1.907-1.025.508-2.05.762-3.075.635h-5.638c-1.538 6.102-1.281 11.95-.128 17.924h5.894c1.025 0 1.922.255 2.82.636 6.15 2.924 12.557 3.178 18.836.636 2.178-.89 4.228-1.399 6.535-1.272h2.819c.256 0 .512 0 .897-.254 1.281-5.72 1.153-11.695-.256-17.67z" fill="#eecb2f"/><path d="m54.867 17.034c1.025-.127 1.922-.89 2.819-1.144 1.922-.635 3.844-1.144 5.894-1.398 3.972-.381 7.688.254 11.276 1.78.513.254.897.508 1.41.635.384 0 .384-.381.64-.508 0 .635 0 .763-.512 1.398-7.048-3.56-14.223-3.56-21.4 0-.127-.254-.384-.381-.127-.763zm7.047-10.17c.897 1.018 1.538 1.145 2.82.382.256.381-.129.636-.129 1.017-.512.127-1.025.381-1.666.254-.64-.254-1.025-.635-1.025-1.652zm4.741 1.272c0-.254-.128-.509 0-.763 1.538.636 2.179.509 2.82-.635.128 1.27-.641 1.906-1.794 1.78-.257 0-.513-.128-.897-.255 0-.127-.129-.127-.129-.127zm12.045 4.576c-.128-.254 0-.508.129-.762.64-1.017 1.025-2.289 2.05-3.179h.897c-1.666.89-2.179 2.543-3.076 3.941zm-28.318-3.94c1.025.762 1.666 1.78 1.922 2.923-.128 0-.256-.127-.385-.254-.518578-1.0441683-1.3168963-1.92384162-2.306-2.541.384 0 .64-.128.769-.128zm6.15-.636c.385.254.77.508 1.154.635.256.255.128.509.128.763-1.153-.254-1.41-.381-1.282-1.398zm17.043 1.398v-.763c.512-.127 1.025-.254 1.41-.635-.129 1.017-.129 1.144-1.41 1.398zm-20.246 4.196c.64.763 1.025 1.526 1.153 2.543-.769-.636-1.025-1.526-1.153-2.543zm-.256-3.178c-.257-.127-.385-.254-.385-.508.257-.255.77-.255 1.025-.636.129.636 0 1.017-.64 1.144zm24.73-1.017c.385.127.641.254 1.026.509-.0053111.2359356-.0967178.461785-.257.635-.64-.254-.897-.635-.769-1.144z" fill="#b08732"/><path d="m66.655 8.136c.129 0 .129 0 .129.127-.129.127-.129 0-.129-.127z" fill="#bca546"/><path d="m84.339 19.831c1.41 5.975 1.537 11.95.384 17.797-.384.255-.64.255-.897.255h-2.82c-2.306-.128-4.356.381-6.534 1.27-6.279 2.543-12.686 2.289-18.837-.635-.896-.381-1.793-.635-2.819-.635h-5.894c-1.281-6.103-1.538-11.95.128-18.053h5.638c1.154 0 2.05-.254 3.076-.635 2.05-1.017 4.228-1.526 6.535-1.907 3.972-.636 7.816-.127 11.66 1.144.385.127.641.254 1.025.381 1.282.89 2.82 1.017 4.357 1.017 1.538-.127 3.204 0 4.998 0zm-30.37 2.67c.385.381.257.762.257 1.017 0 3.305-.128 6.61-.128 9.915 0 .763-.256 1.144-1.025 1.144-.257 0-.513 0-.641.128 0 .254-.128.38.128.635 1.7063012-.1271492 3.4196988-.1271492 5.126 0 0-.381.128-.508-.128-.763-.641 0-1.538-.127-1.538-1.017-.128-1.398 0-2.796 0-4.067.897 0 1.794-.128 2.435.508 1.025 1.017 2.178 2.034 3.203 3.05 1.281 1.272 2.563 2.543 4.1 3.56 1.794 1.272 3.845 2.034 6.151 1.78 1.025-.127 2.563-.89 2.947-1.78-.256-.127-.512 0-.64.128-1.794.762-3.588.508-5.382-.255-1.41-.635-2.435-1.652-3.46-2.67-1.666-1.525-3.332-3.177-4.997-4.83.384-.381.64-.636 1.025-.763 1.922-1.144 2.819-4.449.128-6.102-1.025-.635-2.05-.89-3.204-.89-1.794 0-3.587.382-5.51 0 0 0-.128 0-.256.128 0 .254-.128.381 0 .635.513.254.897.382 1.41.509zm11.277-.255c1.41-.254 1.922.636 2.306 1.78 1.538 3.687 3.204 7.373 4.742 11.06.128.254.128.763.768.636l.385-.763c1.41-3.56 2.819-7.12 4.1-10.679.385-1.144 1.025-2.034 2.307-1.906.128-.255.128-.509-.128-.89-1.6562957.2543016-3.3417043.2543016-4.998 0 0 .381-.128.635 0 .89.64 0 1.282.127 1.794.762-1.153 2.924-2.178 5.848-3.46 8.899-1.281-3.051-2.562-5.975-3.844-8.899.385-.762.897-.762 1.538-.635.384-.255.384-.509.128-1.017-1.922.254-3.972.127-5.894 0 .128.254.128.381.256.762z" fill="#c22d2f"/><path d="m53.97 22.5c-.385-.126-.897-.254-1.282-.38-.128-.255 0-.51 0-.636.128 0 .128-.127.257-.127 1.794.381 3.716-.127 5.51 0 1.153 0 2.178.254 3.203.89 2.69 1.652 1.794 4.83-.128 6.101-.256.255-.64.509-1.025.763 1.666 1.653 3.331 3.305 4.997 4.83 1.025 1.018 2.179 2.035 3.46 2.67 1.794.89 3.588 1.017 5.382.255.256-.127.384-.255.64-.127-.384.89-1.922 1.652-2.947 1.78-2.306.253-4.356-.636-6.15-1.78-1.538-1.017-2.82-2.289-4.1-3.56-1.026-1.017-2.18-2.034-3.204-3.05-.641-.636-1.538-.51-2.435-.51v4.069c0 .89.897 1.017 1.538 1.017.128.254.128.508.128.762-1.666-.127-3.46-.254-5.126 0-.256-.254-.256-.381-.128-.635.128-.127.385-.127.64-.127.77-.128 1.026-.509 1.026-1.145 0-3.305 0-6.61.128-9.915-.128-.382 0-.763-.384-1.144zm2.434 0c-.384 1.908 0 3.942-.128 5.976 1.282-.382 2.563.38 3.844-.509 1.025-.763 1.41-1.78 1.282-2.924-.128-1.271-1.154-1.907-2.179-2.415-1.025-.382-1.794-.127-2.819-.127z" fill="#fcf6f5"/><path d="m65.246 22.246c-.128-.254-.256-.508-.128-.762 1.922.127 3.972.254 5.894 0 .128.381.128.762-.128 1.017-.64-.127-1.281-.127-1.538.635 1.282 2.924 2.435 5.72 3.844 8.899 1.154-3.051 2.307-5.975 3.46-8.899-.512-.635-1.025-.762-1.794-.762-.128-.255-.128-.509 0-.89 1.666.127 3.46.254 4.998 0 .256.254.256.508.128.89-1.282 0-1.922.762-2.307 1.906-1.41 3.56-2.69 7.12-4.1 10.679l-.385.763c-.64.254-.64-.255-.768-.636-1.538-3.687-3.204-7.373-4.741-11.06-.513-1.144-1.026-2.034-2.435-1.78z" fill="#fcf6f5"/><path d="m56.404 22.5c1.025 0 1.922-.254 2.691.128 1.025.508 2.05 1.144 2.179 2.415.128 1.144-.129 2.161-1.282 2.924-1.281.89-2.434.254-3.844.509.128-2.034-.128-4.068.256-5.975z" fill="#c22d2f"/></g></svg>