<svg width="176" height="66" xmlns="http://www.w3.org/2000/svg"><defs><linearGradient x1="49.997%" y1="0%" x2="49.997%" y2="99.979%" id="a"><stop stop-color="#FFF" offset="0%"/><stop stop-color="#BABABA" offset="100%"/></linearGradient><linearGradient x1="49.991%" y1="0%" x2="49.991%" y2="99.985%" id="b"><stop stop-color="#FFF" offset="0%"/><stop stop-color="#BABABA" offset="100%"/></linearGradient><linearGradient x1="49.96%" y1="0%" x2="49.96%" y2="99.994%" id="c"><stop stop-color="#FFF" offset="0%"/><stop stop-color="#BABABA" offset="100%"/></linearGradient><linearGradient x1="50%" y1=".009%" x2="50%" y2="100%" id="d"><stop stop-color="#FFF" offset="0%"/><stop stop-color="#BABABA" offset="100%"/></linearGradient></defs><g fill="none" fill-rule="evenodd"><path fill="#F6F6F6" d="M75.5044944 19.7291386L75.5044944 26.4238951 82.7620225 26.4238951 82.7620225 27.3805243 75.5044944 27.3805243 75.5044944 34.6940824 74.3459925 34.6940824 74.3459925 18.7725094 83.8875655 18.7725094 83.8875655 19.7291386z"/><path d="M101.418 26.728c0 1.23-.183 2.346-.55 3.347a7.421 7.421 0 0 1-1.554 2.566 6.86 6.86 0 0 1-2.402 1.643 8.51 8.51 0 0 1-6.172 0 6.875 6.875 0 0 1-2.396-1.643 7.408 7.408 0 0 1-1.554-2.566c-.367-1-.55-2.117-.55-3.347s.183-2.343.55-3.336a7.4 7.4 0 0 1 1.554-2.566 6.932 6.932 0 0 1 2.396-1.648 7.89 7.89 0 0 1 3.083-.586 8.005 8.005 0 0 1 3.09.577c.909.37 1.728.932 2.4 1.648a7.478 7.478 0 0 1 1.554 2.571c.368 1.004.551 2.117.551 3.34zm-1.193 0c0-1.11-.154-2.109-.461-2.994a6.395 6.395 0 0 0-1.305-2.25 5.625 5.625 0 0 0-2.026-1.412 7.175 7.175 0 0 0-5.209 0 5.685 5.685 0 0 0-2.03 1.412 6.416 6.416 0 0 0-1.32 2.25c-.31.885-.466 1.883-.466 2.994 0 1.11.155 2.11.467 2.998.281.83.73 1.595 1.318 2.245a5.607 5.607 0 0 0 2.031 1.406 7.25 7.25 0 0 0 5.21 0 5.551 5.551 0 0 0 2.025-1.407 6.39 6.39 0 0 0 1.305-2.244c.308-.882.462-1.88.461-2.998zm16.226 7.966h-.989a.742.742 0 0 1-.32-.062.63.63 0 0 1-.243-.23l-5.108-6.46a1.566 1.566 0 0 0-.187-.213.728.728 0 0 0-.213-.14 1.097 1.097 0 0 0-.282-.073 2.866 2.866 0 0 0-.399-.023h-2.082v7.201h-1.16V18.773h4.073c1.83 0 3.201.354 4.112 1.062.912.709 1.367 1.75 1.367 3.123.008.57-.1 1.137-.314 1.666a3.909 3.909 0 0 1-.907 1.322c-.416.393-.9.707-1.428.928a6.757 6.757 0 0 1-1.886.483c.188.12.352.273.484.451l5.482 6.886zm-7.067-8.057c.641.01 1.28-.076 1.896-.253a4.08 4.08 0 0 0 1.418-.726 3.14 3.14 0 0 0 .883-1.136c.208-.47.311-.981.303-1.496 0-1.133-.37-1.973-1.108-2.52-.739-.548-1.817-.823-3.235-.825h-2.914v6.954l2.757.002z" fill="#F6F6F6" fill-rule="nonzero"/><path fill="#F6F6F6" d="M129.198502 19.7513858L123.606217 19.7513858 123.606217 34.6940824 122.446891 34.6940824 122.446891 19.7513858 116.820824 19.7513858 116.820824 18.7725094 129.198502 18.7725094z"/><path d="M138.088 33.873a5.03 5.03 0 0 0 2.054-.4 4.395 4.395 0 0 0 1.536-1.108 4.874 4.874 0 0 0 .962-1.671c.225-.669.336-1.37.33-2.076v-9.845h1.147v9.845a7.122 7.122 0 0 1-.412 2.459 5.893 5.893 0 0 1-1.198 1.991 5.528 5.528 0 0 1-1.901 1.334 6.78 6.78 0 0 1-5.027 0 5.52 5.52 0 0 1-1.901-1.334 5.867 5.867 0 0 1-1.198-1.991 7.122 7.122 0 0 1-.417-2.459v-9.845h1.159v9.834a6.32 6.32 0 0 0 .33 2.076c.205.614.53 1.182.955 1.671a4.41 4.41 0 0 0 1.53 1.113 4.972 4.972 0 0 0 2.051.406zm23.202-15.1v15.921h-.54a.522.522 0 0 1-.242-.05.561.561 0 0 1-.186-.175l-10.34-13.818c.022.226.033.44.033.642v13.401h-1.012V18.773h.576a.587.587 0 0 1 .243.04.555.555 0 0 1 .185.173l10.319 13.784a6.296 6.296 0 0 1-.034-.642V18.773h.998z" fill="#F6F6F6"/><path fill="#F6F6F6" d="M175.93985 33.7374532L175.916779 34.6940824 166.375206 34.6940824 166.375206 18.7725094 175.917603 18.7725094 175.917603 19.7291386 167.534532 19.7291386 167.534532 26.1651685 174.510262 26.1651685 174.510262 27.0987266 167.534532 27.0987266 167.534532 33.7374532z"/><path d="M86.591 15.89h-2.656c-.503 0-.868-.196-1.094-.59l-3.323-5.061a1.172 1.172 0 0 0-.412-.405c-.15-.082-.37-.12-.66-.12H77.19v6.18h-2.941V.082h4.82c1.072 0 1.992.112 2.761.334.77.223 1.4.534 1.895.934.477.382.851.876 1.088 1.438.238.585.357 1.21.35 1.842a4.779 4.779 0 0 1-.235 1.509 4.39 4.39 0 0 1-.678 1.29 4.57 4.57 0 0 1-1.093 1.017 5.481 5.481 0 0 1-1.483.689 2.746 2.746 0 0 1 .962.918l3.955 5.837zm-7.565-8.286c.491.009.98-.061 1.449-.208a2.801 2.801 0 0 0 1.016-.577c.263-.24.467-.537.596-.868.134-.353.2-.727.196-1.104 0-.802-.264-1.418-.792-1.849-.527-.43-1.335-.644-2.421-.641h-1.88v5.247h1.836z" fill="url(#a)" fill-rule="nonzero"/><path d="M94.888 13.518a3.883 3.883 0 0 0 1.526-.284 3.12 3.12 0 0 0 1.13-.799c.319-.362.56-.786.706-1.245a5.13 5.13 0 0 0 .247-1.64V.082h2.941V9.55c.01.89-.144 1.773-.453 2.607a5.79 5.79 0 0 1-3.362 3.422c-.812.326-1.724.488-2.735.488-1.01 0-1.925-.162-2.743-.486a5.79 5.79 0 0 1-3.362-3.422 7.297 7.297 0 0 1-.453-2.61V.083h2.94V9.54c-.007.556.077 1.11.248 1.64.148.461.39.887.71 1.251.314.35.703.624 1.137.804a3.883 3.883 0 0 0 1.523.284z" fill="url(#b)"/><path d="M110.554.082c1.035 0 1.92.099 2.656.295.736.197 1.34.478 1.813.842.454.344.81.8 1.033 1.323.226.555.339 1.15.33 1.75.001.361-.054.72-.165 1.065a3.082 3.082 0 0 1-.508.951 3.836 3.836 0 0 1-.875.804c-.392.259-.816.465-1.263.612 2.172.489 3.258 1.662 3.258 3.52a4.483 4.483 0 0 1-.383 1.859 4.082 4.082 0 0 1-1.115 1.47 5.31 5.31 0 0 1-1.803.967 7.857 7.857 0 0 1-2.45.35h-5.968V.082h5.44zm-2.504 2.275v4.57h2.34c1.006 0 1.766-.183 2.28-.548.513-.365.77-.944.77-1.738 0-.824-.233-1.41-.7-1.76-.466-.349-1.195-.524-2.186-.524h-2.504zm2.974 11.239c.467.011.933-.055 1.378-.197.332-.108.636-.287.89-.525.22-.214.384-.476.482-.766.1-.3.15-.613.147-.928a2.477 2.477 0 0 0-.165-.924 1.74 1.74 0 0 0-.514-.7 2.41 2.41 0 0 0-.901-.443 5.026 5.026 0 0 0-1.33-.153h-2.965v4.636h2.978z" fill="url(#c)" fill-rule="nonzero"/><path d="M126.1 9.768v6.122h-2.93V9.768L117.408.082H120a.92.92 0 0 1 .606.187c.155.131.284.292.378.473l2.883 5.28c.169.313.316.608.444.885.127.277.242.554.344.83.094-.274.204-.55.33-.83.126-.279.267-.576.423-.892l2.878-5.273c.09-.172.212-.324.36-.449a.906.906 0 0 1 .613-.21h2.602L126.1 9.767z" fill="url(#d)"/><path d="M33.295 65.821l-.241-.36L0 15.962 8.025.165h50.457l8.025 15.795-33.212 49.861zM.671 15.923l32.623 48.854 32.541-48.854L58.126.747H8.381L.67 15.923z" fill="#FFF" fill-rule="nonzero"/><g transform="translate(.494 .577)"><path fill="#B2184E" d="M7.87468165 0.00247191011L16.608764 15.4107116 0.0469662921 15.4107116z"/><path fill="#B2184E" d="M24.8484644 0.00247191011L32.8409738 15.4107116 16.608764 15.4107116 24.7660674 0.00247191011z"/><path fill="#751139" d="M41.3278652 0.00247191011L49.1555805 15.4107116 32.8409738 15.4107116z"/><path fill="#ED1C5F" d="M24.7660674 0.00247191011L16.608764 15.4107116 7.87468165 0.00247191011z"/><path fill="#ED1C5F" d="M41.3278652 0.00247191011L32.8409738 15.4107116 24.8484644 0.00247191011z"/><path fill="#ED1C5F" d="M57.7248689 0.00247191011L49.1555805 15.4107116 41.3278652 0.00247191011z"/><path fill="#B2184E" d="M57.7248689 0.00247191011L65.5525843 15.4107116 49.1555805 15.4107116z"/><path fill="#751139" d="M65.5525843 15.4107116L32.8409738 64.5193258 49.1555805 15.4107116z"/><path fill="#B2184E" d="M49.1555805 15.4107116L32.8409738 64.5193258 32.8409738 15.7402996 32.8409738 15.4107116z"/><path fill="#ED1C5F" d="M32.8409738 15.7402996L32.8409738 64.5193258 16.608764 15.4107116 32.8409738 15.4107116z"/><path fill="#FF488A" d="M16.608764 15.4107116L32.8409738 64.5193258 0.0469662921 15.4107116z"/></g></g></svg>