<svg xmlns="http://www.w3.org/2000/svg" viewBox="0 0 310 310"><circle fill="#163385" cx="155" cy="155" r="149.5"/><path fill="#084DBA" d="M155 11c38.5 0 74.6 15 101.8 42.2C284 80.4 299 116.5 299 155s-15 74.6-42.2 101.8C229.6 284 193.5 299 155 299s-74.6-15-101.8-42.2C26 229.6 11 193.5 11 155S26 80.4 53.2 53.2C80.4 26 116.5 11 155 11m0-11C69.4 0 0 69.4 0 155s69.4 155 155 155 155-69.4 155-155S240.6 0 155 0z"/><radialGradient id="a" cx="155" cy="155" r="92.231" gradientUnits="userSpaceOnUse"><stop offset="0" stop-color="#ffc435"/><stop offset="1" stop-color="#e3b02f"/></radialGradient><circle fill="url(#a)" cx="155" cy="155" r="92.2"/><path fill="#FFF" d="M155 211.8l3.5 7.1 7.7 1.1-5.6 5.4 1.3 7.8-6.9-3.7-6.9 3.7 1.3-7.8-5.6-5.4 7.7-1.1zM127.6 206.2l2.8 5.6 6.1.9-4.4 4.3 1 6.2-5.5-2.9-5.5 2.9 1.1-6.2-4.5-4.3 6.2-.9zM182.4 206.2l2.7 5.6 6.2.9-4.5 4.3 1.1 6.2-5.5-2.9-5.5 2.9 1-6.2-4.4-4.3 6.1-.9zM155 98.2l3.5-7.1 7.7-1.1-5.6-5.4 1.3-7.8-6.9 3.7-6.9-3.7 1.3 7.8-5.6 5.4 7.7 1.1zM127.6 103.8l2.8-5.6 6.1-.9-4.4-4.3 1-6.2-5.5 2.9-5.5-2.9 1.1 6.2-4.5 4.3 6.2.9zM182.4 103.8l2.7-5.6 6.2-.9-4.5-4.3 1.1-6.2-5.5 2.9-5.5-2.9 1 6.2-4.4 4.3 6.1.9z"/><g fill="#FFF"><path d="M65.5 70.7l2.9-2.9 7.1 3.4c.9.5 1.9 1 2.8 1.5l.1-.1c-.5-1-1-1.9-1.5-2.9l-3.3-7.1 2.9-2.9 11.7 11.9-2.4 2.4-4.3-4.4c-1.1-1.2-2.6-3.1-3.6-4.4l-.1.1 1.8 3.8 2.8 6.2-1.5 1.5-6.2-2.9L71 72v.1c1.3 1 3.2 2.5 4.3 3.7l4.3 4.4-2.4 2.4-11.7-11.9zM86.2 62.5c-3.1-4.5-2.3-8.8 1.5-11.4 3.7-2.5 8-1.7 11.1 2.8 3.1 4.5 2.4 9-1.4 11.5-3.7 2.6-8.1 1.6-11.2-2.9zm9.4-6.4c-1.9-2.8-4.2-3.6-6.1-2.3s-2 3.7-.1 6.5 4.3 3.7 6.1 2.4 2-3.8.1-6.6zM104.8 57.9l.9-3.3c1.5.4 3.2.4 4.5-.2 1.4-.7 1.9-1.6 1.4-2.5-.4-1-1.4-.9-3-.8l-2.4.1c-1.9.1-4-.5-5-2.7-1.2-2.5.1-5.6 3.3-7 1.7-.8 3.9-1 5.8-.3l-.7 3c-1.4-.3-2.5-.3-3.7.3-1.2.6-1.7 1.4-1.3 2.3.4.9 1.6.8 3.1.7l2.3-.1c2.2-.1 3.9.6 4.9 2.7 1.2 2.5.1 5.7-3.5 7.4-2 .9-4.4 1.1-6.6.4zM118.8 39.7l-4.4 1.4-.9-3 12.4-3.8.9 3-4.4 1.4 4 12.9-3.6 1.1-4-13zM141.5 34.7l-4.6.5-.3-3.2 12.9-1.3.3 3.2-4.6.5 1.3 13.5-3.8.4-1.2-13.6zM155 30.6l6 .3c3.5.2 6.4 1.5 6.2 5.5-.2 3.8-3.2 5.3-6.7 5.2l-2.2-.1-.3 6-3.8-.2.8-16.7zm5.3 8c2 .1 3.1-.7 3.2-2.3.1-1.6-1-2.3-2.9-2.3l-1.9-.1-.2 4.7h1.8zm-.5 2l2.7-2.3 4.9 9.7-4.2-.2-3.4-7.2zM171.7 40.8l1.9-8.8 3.7.8-1.9 9.1c-.7 3.2.1 4.5 1.9 4.9 1.8.4 3.1-.5 3.8-3.7L183 34l3.6.8-1.9 8.8c-1.2 5.5-3.9 7.4-8.1 6.5-4.3-.9-6.1-3.8-4.9-9.3zM186.6 50l2.9-1.6c.7 1.4 1.9 2.6 3.2 3.1 1.5.6 2.4.3 2.8-.7.4-1-.4-1.6-1.5-2.7l-1.7-1.6c-1.4-1.3-2.4-3.2-1.5-5.5 1-2.6 4.1-3.8 7.3-2.5 1.8.7 3.4 2.1 4.2 4l-2.6 1.5c-.7-1.2-1.5-2-2.8-2.5-1.2-.5-2.2-.3-2.5.6-.4 1 .5 1.7 1.7 2.8l1.7 1.6c1.6 1.5 2.3 3.2 1.5 5.4-1 2.6-4 4-7.7 2.6-2.1-.8-3.9-2.4-5-4.5zM209.4 47.4l-4-2.2 1.5-2.8 11.4 6.2-1.5 2.8-4-2.2-6.5 11.9-3.3-1.8 6.4-11.9zM222.8 51.7l8.4 6.3-1.9 2.5-5.3-4-2 2.7 4.6 3.4-1.9 2.5-4.6-3.4-2.3 3.1 5.6 4.2-1.9 2.5-8.6-6.4 9.9-13.4zM236.1 62.2l3.3 3.4c3.6 3.6 4.1 7.8 0 11.8-4.1 4-8.3 3.6-11.7.1l-3.5-3.5 11.9-11.8zM229.5 75c2 2 4.3 2.4 7.2-.4 2.8-2.8 2.4-5 .4-7.1l-.5-.5-7.6 7.4.5.6z"/></g><g fill="#FFF"><path d="M60.8 207.8l2.2 3.9-11.9 12.8-2-3.5 6.3-6.1c1.2-1.2 2.7-2.6 4-3.8l-.1-.1c-1.7.5-3.7 1.1-5.3 1.5l-8.4 2.3-1.9-3.4 17.1-3.6zm-9.4 3.3l4 7-2.5 1.5-4-7 2.5-1.5zM67.1 218.3l3.5 4.5c2.3 2.9 3.1 6-.1 8.5-3.1 2.4-6.3 1.1-8.5-1.7l-1.3-1.6-4.5 3.5-2.3-3 13.2-10.2zm-2.9 9.4c1.3 1.6 2.6 1.8 4 .8 1.4-1.1 1.2-2.3-.1-4l-1.1-1.4-4 3.1 1.2 1.5zM77.3 230.8l4.2 3.9c2.7 2.5 3.9 5.5 1.1 8.5-2.7 2.9-6.1 2.1-8.6-.4l-1.5-1.4-3.9 4.1-2.7-2.6 11.4-12.1zm-1.4 9.7c1.5 1.4 2.9 1.4 4.1.2 1.2-1.3.8-2.5-.7-3.9l-1.3-1.2-3.5 3.7 1.4 1.2zM89.3 241.6l4.9 3.4c2.9 2 4.6 4.7 2.3 7.9-2.2 3.2-5.5 2.9-8.4.8l-1.8-1.3-3.4 4.9-3.1-2.2 9.5-13.5zm-1.2 11l3.5-.5-1 10.8-3.5-2.4 1-7.9zm1.5-1.4c1.6 1.1 3 1 3.9-.3.9-1.4.4-2.4-1.3-3.5l-1.6-1.1-2.7 3.9 1.7 1zM98.8 257.9c2.3-4.9 6.5-6.4 10.5-4.5 4.1 1.9 5.5 6.1 3.2 11s-6.5 6.6-10.6 4.6c-4.1-1.9-5.5-6.2-3.1-11.1zm10.2 4.9c1.4-3 1-5.4-1.1-6.4s-4.2.2-5.6 3.2c-1.4 3-1 5.6 1 6.5 2 1 4.2-.3 5.7-3.3zM117.5 257.5l3.8 1.1-.3 8c0 1.9-.2 3.6-.2 5.5h.1c1-1.6 1.8-3.1 2.8-4.8l4.1-6.9 3.7 1.1-9.6 14.6-4.3-1.3-.1-17.3zM134 262l10.3 1.6-.5 3.1-6.6-1-.5 3.3 5.6.8-.5 3.1-5.6-.8-.6 3.8 6.9 1-.5 3.1-10.6-1.6L134 262zM148.6 263.9l4.7.1c5.1.1 8.3 2.7 8.3 8.4-.1 5.7-3.4 8.4-8.3 8.3l-4.9-.1.2-16.7zm4.3 13.7c2.8 0 4.8-1.3 4.8-5.3s-1.8-5.3-4.7-5.3h-.7l-.2 10.6h.8zM172.8 271.2c-1.1-5.4 1.8-9.3 5.9-10.2 2.1-.4 4 .2 5.4 1.1l-1.4 2.8c-1-.6-2-.9-3.2-.7-2.2.5-3.6 2.8-2.9 6.1.7 3.4 2.7 5 5.1 4.5 1.3-.3 2.3-1.2 2.9-2.2l2.4 1.9c-1 1.9-2.7 3.1-4.8 3.5-4.1.9-8.2-1.3-9.4-6.8zM190.1 258.1l4.2-1.6 10.7 13.8-3.7 1.4-5-7.2c-1-1.4-2.1-3.1-3.1-4.6h-.1c.2 1.8.5 3.8.6 5.5l.9 8.7-3.6 1.3-.9-17.3zm1.7 9.8l7.5-2.8 1 2.8-7.5 2.8-1-2.8zM207.7 266.8l.7-3.3c1.5.3 3.2.2 4.4-.4 1.4-.8 1.8-1.7 1.3-2.5-.5-.9-1.5-.8-3.1-.6l-2.3.2c-1.9.2-4-.3-5.1-2.4-1.3-2.4-.2-5.6 2.8-7.2 1.7-.9 3.8-1.2 5.8-.6l-.5 3c-1.4-.2-2.5-.1-3.7.5-1.1.6-1.6 1.5-1.2 2.3.5.9 1.6.7 3.2.5l2.3-.3c2.2-.3 4 .3 5.1 2.4 1.3 2.4.4 5.6-3 7.6-2.1 1-4.5 1.4-6.7.8zM214.7 245.8l3.1-2.2 9.6 13.7-3.1 2.2-9.6-13.7zM221.7 240.9l2.9-2.6 8.8 3.3 3.7 1.6.1-.1c-1.3-1.2-3.1-2.7-4.4-4.2l-3.9-4.4 2.7-2.4 11.2 12.4-2.9 2.6-8.8-3.3-3.7-1.6-.1.1c1.4 1.2 3.1 2.7 4.4 4.2l4 4.4-2.7 2.4-11.3-12.4zM240.7 234.4c-4.3-3.4-4.8-7.7-2-11.3 2.8-3.5 7.2-4 11.4-.6 4.3 3.4 4.9 7.8 2.1 11.4-2.7 3.5-7.2 3.9-11.5.5zm7.1-8.8c-2.6-2.1-5.1-2.2-6.5-.4-1.4 1.8-.8 4.1 1.9 6.2 2.6 2.1 5.2 2.3 6.6.5s.6-4.3-2-6.3zM257.9 222.1l-1.2-3.2c1.5-.5 2.9-1.5 3.5-2.7.8-1.4.6-2.3-.2-2.8-.9-.5-1.7.1-2.9 1.1l-1.9 1.4c-1.5 1.2-3.5 1.9-5.6.7-2.4-1.4-3.1-4.6-1.4-7.6.9-1.7 2.6-3.1 4.5-3.6l1.1 2.8c-1.3.5-2.2 1.2-2.8 2.4-.6 1.1-.6 2.1.3 2.6.9.5 1.8-.3 3-1.2l1.8-1.4c1.7-1.4 3.5-1.8 5.6-.7 2.4 1.4 3.4 4.6 1.4 8-1.1 1.9-3 3.5-5.2 4.2z"/></g><g><g fill="#FFF"><path d="M58.2 182.6c-1.5-4.1-2.9-8.2-4.4-12.3-4.2-11-9.7-21.2-16.7-30.6-1.5-2.1-1.5-2.1-1.9-5.4 5.1 3.4 9.3 7.4 13.2 11.6 4 4.3 7.9 8.7 11.8 13 1.1-.1 1.7-1 2.4-1.6 16.6-14.7 34.1-28 53.8-38.2 2.7-1.4 5.4-2.6 8.1-4 1-.5 1.7-.4 2.1.9-2.9 2-5.9 4.1-8.8 6.1-14.3 10-27.9 20.8-39.7 33.8-7 7.7-13.2 16-18.4 25-.3.5-.6.9-.9 1.4-.2.1-.3.2-.6.3zM239.1 167.7h-7.5c-1.2 0-1.1-1.1-1.2-1.8-.6-2.7-1.1-5.5-1.5-8.2-.2-1.4-.8-1.9-2.3-1.9-5.2 0-5.2-.1-6.9 4.8-.7 1.9-1.4 3.8-2.1 5.8-.4 1.1-1 1.5-2.1 1.4-1.8-.1-3.6 0-5.8 0 1.7-4.7 3.2-9.1 4.8-13.6l6.3-17.7c.5-1.4 1.2-1.8 2.6-1.9 5.8-.1 11.6-.4 17.4 0 5.9.5 8.4 4.2 6.6 9.8-1.5 4.4-4.2 7.6-8.4 9.5-1.6.7-2.2 1.6-1.7 3.5.8 3.3 1.2 6.7 1.8 10.3zm-15.3-18.4c4.3.1 8.2.6 12-.4 2.2-.6 3.6-2.2 4-4.5.4-2.2-.4-3.3-2.6-3.4-3.1-.1-6.1 0-9.2 0-.7 0-1.3.1-1.6.9-.8 2.3-1.7 4.6-2.6 7.4zM178 143.4c-.8 11.7-7.5 21.8-19.1 24.4-2.1.5-4.2.9-6.5.4-6.3-1.2-9.2-4.3-8.6-10.7.8-8.6 4.5-15.7 11.9-20.4 4.4-2.8 9.3-3.8 14.5-2.9 5.2.9 7.8 3.9 7.8 9.2zm-13.5-2.8c-1-.1-2.1.1-3.2.5-5.4 2.1-10.2 9.8-9.6 15.6.3 3.3 2.5 5.2 5.8 4.9 1.9-.2 3.8-.7 5.3-1.9 4.4-3.4 6.3-8.1 7.2-13.3.6-3.6-1.6-5.8-5.5-5.8zM200.9 157.1c-1.7-.7-3.4.1-5.1-.7.6-1.7 1.1-3.3 1.7-4.9.2-.7.6-1 1.3-1h12c-1.4 5.7-3.8 10.4-8.4 13.9-4.8 3.6-10.2 4.5-15.9 3.5-6-1.1-8-5.9-7.4-11.4 1.3-11.5 9.6-20.3 20.9-22.5 3.1-.6 6.1-.1 9 1 2.5 1 3.7 3.1 4.1 5.7.2 1-.1 1.7-1.2 2-.7.1-1.4.4-2.1.7-2.3 1-4.3 1.6-6.2-1.2-1.5-2.2-4.2-2.4-6.7-1.3-6.7 3.1-9.8 9-9.9 15.5 0 2.8 1.5 4.4 4.2 5 4 .9 8-.8 9.7-4.3zM273.1 134.3c.6 11.2 1.2 22.1 1.8 33.3h-7.8c-.5-1.7-.2-3.6-.3-5.4-.1-1.4-.7-1.9-2-1.8-3.1.1-6.3.1-9.4 0-1.2 0-1.9.4-2.6 1.3-1.1 1.6-2.4 3-3.4 4.6-.8 1.2-1.7 1.6-3.1 1.5-1.8-.1-3.7 0-5.7 0 1-2 2.4-3.5 3.6-5.1 6.7-8.8 13.5-17.5 20.2-26.3 1.1-1.4 2.3-2.2 4.2-2 1.3 0 2.7-.1 4.5-.1zm-6.8 9.8l-.6-.3c-2.3 3.1-4.6 6.2-7.2 9.9h6.7c.7 0 1.1-.5 1.1-1.2v-8.4z"/><path d="M39.7 130.6c1.7.5 3.2.9 4.7 1.4 1.3.5 2 .1 2.5-1.2.6-1.5 1.4-3 2.1-4.4 3.3-6.9 11.3-9.3 18.1-7.9 4.5.9 6.1 4.9 4 9.2-2.3 4.8-6.4 7.5-11.5 8.7-.7.2-1.5.2-2.1.6.6 2.4 2.7 3.9 5.6 4.1 3.8.3 7.3-.9 10.6-2.7 3.4-1.9 6.3-4.5 9.4-7 .8.7 1.4 1.4.6 2.4-3 3.6-6.1 7.3-10 9.9-4.7 3.1-9.9 4.1-15.5 2.8-3.3-.7-6.3-2.4-7.9-5.4-1.8-3.5-4.6-5.4-8-6.8-1.9-.6-2.4-1.5-2.6-3.7zm16.1 2.1c3.3-.3 6.2-.9 8.8-2.7 1.5-1.1 2.6-2.5 2.8-4.3.3-1.8-.7-3.2-2.3-3.6-3-.6-5.4.4-7.3 2.7-1.9 2.2-2.8 4.8-2 7.9zM138.9 160.6c-3.4 4.2-7.7 6.5-12.8 7.5-2.8.5-5.6.4-8.3-.6-4.5-1.6-6.8-5.8-6.1-11.1 1.5-11.1 9.3-19.9 20-22.4 3-.7 6.1-.6 9 .6 2.9 1.2 4.7 3.2 5.1 6.6-2.2.8-4.4 1.7-6.6 2.5-.8.3-1.3-.3-1.8-.7-3.4-3.1-6.8-3.3-10.6-.6-4.3 3.1-6.6 7.4-7.2 12.6-.6 4.5 3 7.4 7.4 6.4 2-.5 3.7-1.5 5.3-2.7 1.4-1.1 2.6-1.2 3.9.1.8.7 1.7 1.1 2.7 1.8zM91.7 158.6c.2 3 1.9 4.3 4.7 3.8.2 0 .4-.1.6-.2 3-1.9 4.7-.2 6.2 2.1-3.4 4.2-12.3 5.1-16.3 1.5-2.3-2.1-2.3-4.9-1.5-7.6 2-7.4 6.6-12.2 14.4-13.7 5-.9 8.6 2.2 8.2 7.3-.5 6.3-.5 6.3-6.8 6.3-3 0-6 0-9 .1-.2.2-.4.3-.5.4zm2.6-5.3c.3.1.5.2.7.2h4.7c.8 0 1.9.3 2.1-1 .2-1.3-.5-2.1-1.7-2.5-2.1-.7-4.8.8-5.8 3.3z"/></g></g></svg>