<?xml version="1.0" encoding="UTF-8" standalone="no"?>
<svg width="120px" height="38px" viewBox="0 0 120 38" version="1.1" xmlns="http://www.w3.org/2000/svg" xmlns:xlink="http://www.w3.org/1999/xlink">
    <!-- Generator: Sketch 46.2 (44496) - http://www.bohemiancoding.com/sketch -->
    <title>icn-sofort</title>
    <desc>Created with Sketch.</desc>
    <defs></defs>
    <g id="Page-1" stroke="none" stroke-width="1" fill="none" fill-rule="evenodd">
        <g id="Payment-Icons" transform="translate(-944.000000, -779.000000)" fill-rule="nonzero">
            <g id="icn-sofort" transform="translate(944.000000, 779.000000)">
                <path d="M39.7513331,0.148331273 C38.1134769,0.148331273 36.5252228,0.524754512 35.0334122,1.22720989 C32.903117,2.23623486 30.9705652,3.91880396 29.3930577,6.15169098 C28.3683437,7.60125834 27.490979,9.28152089 26.8042146,11.1607684 C25.5091402,14.708044 25.5236292,17.5853711 26.8476712,19.4815164 C27.598405,20.5533033 29.1590458,21.8338131 32.3321617,21.8374339 L32.3443249,21.8374339 C38.1244905,21.8374339 42.4392188,18.048758 45.1717924,10.5764247 C45.8935575,8.5994136 46.8458962,4.90962571 45.1054497,2.41965389 C44.0541815,0.914566131 42.255785,0.150744623 39.7513286,0.148331273 L39.7513331,0.148331273 Z M74.6280129,0.148331273 C72.9913642,0.148331273 71.4018552,0.524754512 69.911252,1.22720989 C67.7797479,2.23623486 65.8486942,3.91880396 64.2711867,6.15169098 C63.2452653,7.60125834 62.3688174,9.28152089 61.6820539,11.1607684 C60.3857706,14.708044 60.4014196,17.5853711 61.726669,19.4815164 C62.4761944,20.5533033 64.0356292,21.8338131 67.21116,21.8374339 L67.2210092,21.8374339 C73.0023822,21.8374339 77.318318,18.048758 80.0484782,10.5764247 C80.7726567,8.5994136 81.7225331,4.90962571 79.9832925,2.41965389 C78.9308183,0.914566131 77.1324693,0.150744623 74.6280129,0.148331273 L74.6280129,0.148331273 Z M21.1881953,0.448759951 C19.2860158,0.448759951 17.4381745,0.448611619 15.7822161,1.28862794 C14.1274635,2.12867837 12.6657627,3.81001928 11.5408687,7.17262843 C11.2970625,7.89560247 11.1681063,8.51849444 11.1512099,9.05921681 C11.1343179,9.60114512 11.228492,10.0621468 11.4336756,10.4628593 C11.6871382,10.9516806 12.0975144,11.4115624 12.6104766,11.7989993 C13.1246447,12.187642 13.7388341,12.5027778 14.4014611,12.7043422 C14.4268064,12.7115807 14.7745632,12.8104865 15.1970032,12.9311837 C15.6170269,13.0518808 16.10818,13.1965706 16.4195763,13.2907135 C16.6018279,13.3462339 16.8020158,13.4187308 16.9830616,13.5285656 C17.1653132,13.6359857 17.3283619,13.7807347 17.4309523,13.9810917 C17.4985439,14.1138571 17.5348138,14.2599575 17.5384346,14.4156549 C17.5432554,14.5725612 17.5165543,14.7416989 17.4549983,14.9203298 C17.3005083,15.3765627 17.0663436,15.6710388 16.6197656,15.8508771 C16.175601,16.030714 15.5202868,16.0884386 14.5257464,16.0956816 L2.11082373,16.0956816 L0.148331273,21.4871748 L13.437017,21.4871748 C14.6874349,21.4871748 16.9733978,21.4873231 19.1700786,20.553152 C21.366758,19.6201661 23.47436,17.755378 24.3663085,14.0222299 C24.7018457,12.619734 24.5979575,11.4767273 24.0487876,10.5787431 C23.497203,9.68196638 22.5002477,9.03033523 21.0482655,8.61393226 C21.0482655,8.61393226 20.723693,8.51952089 20.3410843,8.40968752 C19.960889,8.29985414 19.520308,8.1744356 19.2958131,8.10925884 C18.9240667,8.00304623 18.6379565,7.788178 18.468982,7.5141953 C18.3012133,7.24142151 18.2505048,6.90948133 18.3458551,6.57032188 C18.4460321,6.21788826 18.6874695,5.93665365 19.0350749,5.74233226 C19.3850952,5.54921533 19.8437236,5.44306205 20.3796163,5.44306205 L28.1041405,5.44306205 C28.1584534,5.36460964 28.2080094,5.27902695 28.2623224,5.20057454 C29.6732658,3.20425068 31.3811907,1.58934438 33.2519892,0.448759951 L21.1881953,0.448759951 L21.1881953,0.448759951 Z M55.9078527,0.448759951 C52.4704104,0.448759951 49.9115313,2.18787293 48.7033568,5.44306205 L42.8639714,21.4871748 L49.2610468,21.4871748 L52.2615689,13.2400138 L57.9149602,13.2437815 L59.5237167,8.82629073 L53.8885776,8.82252311 L54.7962374,6.2649686 C54.9845232,5.80632089 55.4370626,5.44190358 56.0984821,5.44190358 C56.4666062,5.44190358 60.6172149,5.44309023 62.764408,5.44421755 C62.8199298,5.36455921 62.8694354,5.27902398 62.9237484,5.20057157 C64.3346918,3.20424771 66.3323269,1.58934141 68.2031254,0.448756984 L55.9078527,0.448756984 L55.9078527,0.448759951 Z M85.5848272,0.460344623 L77.9240376,21.5002087 L84.4309138,21.5002087 L87.2153113,14.0943649 C87.3516989,14.3997271 88.9944174,21.5002087 88.9944174,21.5002087 L95.8356188,21.5002087 C95.8356188,21.5002087 94.5912945,16.2825582 93.6764139,14.1751936 C93.4410567,13.6332653 93.1958384,13.0261884 92.8675442,12.5180559 C94.7998987,11.79991 97.600052,10.2585923 98.7599462,7.13496267 C99.4720564,5.21467936 99.4311971,3.66240593 98.639427,2.52423634 C97.6798868,1.1422576 95.7270166,0.463966873 92.6673548,0.460344623 L85.5848272,0.460344623 Z M98.9311649,0.460641286 C99.3427412,0.786522126 99.6975318,1.15812311 99.9932391,1.58297503 C100.750007,2.67407466 101.039601,3.97061459 100.867004,5.4563911 L104.741578,5.4563911 L98.9021944,21.5054299 L104.736654,21.5054299 L110.579516,5.4563911 L118.076039,5.4563911 L119.894836,0.460641286 L98.9311649,0.460641286 L98.9311649,0.460641286 Z M89.8719481,4.80425562 L90.9461914,4.80425562 C92.9099239,4.80559061 93.6423837,5.37999456 92.9773449,7.17234067 C92.353342,8.8548534 91.230891,9.89416168 89.0969751,9.89416168 L89.0885795,9.89416168 L87.9842072,9.89297503 L89.8719541,4.80422744 L89.8719481,4.80425562 Z M38.2161622,4.90855031 L38.2173489,4.90855031 C40.2160846,4.91096811 40.6736643,6.06974833 38.9187348,10.8710625 L38.9184381,10.8710625 C37.1152282,15.8063511 35.8069939,17.0482487 33.8372228,17.0482487 L33.8334552,17.0482487 C31.9143793,17.0470621 31.2410769,15.8326695 33.0370438,10.920313 C34.3779852,7.25354759 36.114851,4.90855031 38.2161815,4.90855031 L38.2161622,4.90855031 Z M73.0928421,4.90855031 L73.095156,4.90855031 C75.0926858,4.91096811 75.5512312,6.06974833 73.7950942,10.8710625 C71.9930918,15.8063511 70.6836025,17.0482487 68.7150389,17.0482487 L68.7104109,17.0482487 C66.7901261,17.0470621 66.1201078,15.8326695 67.9148688,10.920313 C69.2546013,7.25354759 70.9927234,4.90855031 73.0928465,4.90855031 L73.0928421,4.90855031 Z" id="path66" fill="#EE7F00"></path>
                <path d="M6.47471792,23.7167792 C6.06555501,23.7167792 5.7589157,23.7914952 5.55373201,23.9375377 C5.34975426,24.0872025 5.17829815,24.3516311 5.03949716,24.7342398 C4.90552435,25.101158 4.88514363,25.3556855 4.97807911,25.5005206 C5.07101607,25.6465646 5.32307837,25.7189622 5.73827689,25.7189622 C6.15226502,25.7189622 6.46141706,25.6441973 6.66418888,25.4921192 C6.86695921,25.3412485 7.03711001,25.0780761 7.17349765,24.7015016 C7.30867787,24.3297567 7.33157132,24.0739239 7.2398403,23.9302962 C7.15052559,23.7878729 6.89474166,23.7167792 6.47471792,23.7167792 Z M10.0025103,23.7167792 C9.58731323,23.7167792 9.27961187,23.7914952 9.07804747,23.9375377 C8.87527713,24.0872025 8.70522126,24.3516311 8.56642027,24.7342398 C8.43365488,25.101158 8.41192287,25.3556855 8.50123609,25.5005206 C8.5917597,25.6465646 8.84275995,25.7189622 9.25795698,25.7189622 C9.6719466,25.7189622 9.98095328,25.6441973 10.1873459,25.4921192 C10.392531,25.3412485 10.5636964,25.0780761 10.70129,24.7015016 C10.8364702,24.3297567 10.8570942,24.0739239 10.7641572,23.9302962 C10.6700128,23.7878729 10.4164999,23.7167792 10.0025103,23.7167792 Z M75.8586982,26.4536648 C75.3783259,26.4536648 74.902982,26.5153899 74.4298512,26.6385004 C73.956719,26.7628183 73.5172149,26.9498255 73.1116727,27.1996672 C72.7049246,27.4507164 72.341823,27.7645528 72.0171511,28.1435407 C71.6936821,28.523736 71.4412342,28.9643525 71.258981,29.4640376 C71.0996614,29.9009592 71.0286196,30.2737676 71.0443056,30.5863713 C71.0587827,30.8977691 71.1285785,31.1694423 71.2528965,31.397558 C71.3760055,31.6268826 71.5402186,31.8223906 71.7454023,31.9865384 C71.9493815,32.1506848 72.1666216,32.2977998 72.3995669,32.425737 C72.6325123,32.5548831 72.8594132,32.6792959 73.0827022,32.793959 C73.3035763,32.9098265 73.494449,33.0328895 73.6525612,33.1656549 C73.8130868,33.2972143 73.9250903,33.448048 73.9926804,33.6170225 C74.0602705,33.7872059 74.0508515,33.9900059 73.9651575,34.2265721 C73.8903259,34.4305498 73.7851813,34.6165424 73.6487951,34.7831036 C73.5124075,34.9508722 73.351867,35.090934 73.1696154,35.2031822 C72.9849504,35.3166378 72.78094,35.4046828 72.5528228,35.4662388 C72.325913,35.5277948 72.0833647,35.5592351 71.8250725,35.5592351 C71.4316015,35.5592351 71.1021177,35.5144153 70.836584,35.4251006 C70.5710532,35.3369918 70.3490755,35.238175 70.1728594,35.130755 C69.9978492,35.023335 69.8565815,34.9254363 69.7527808,34.8361201 C69.6465682,34.7480114 69.5559125,34.7034334 69.479875,34.7034334 C69.4267679,34.7034334 69.3750403,34.7178808 69.3231422,34.7480485 C69.272447,34.7770161 69.2216881,34.8263763 69.1722033,34.8963797 C69.1227185,34.9663847 69.0720055,35.0581498 69.0201059,35.171604 C68.9682062,35.2838522 68.9103467,35.4251703 68.8512055,35.5905241 C68.7606819,35.83916 68.7061954,36.028533 68.6880989,36.1600925 C68.6687877,36.2916519 68.6834265,36.3931253 68.7280787,36.4631288 C68.7703234,36.5331337 68.857207,36.6138868 68.9827323,36.7056163 C69.1070502,36.7961384 69.2734824,36.8842324 69.479875,36.967513 C69.6862661,37.0507936 69.933693,37.122178 70.2209513,37.1813192 C70.5094171,37.2404603 70.8340712,37.2693909 71.1949553,37.2693909 C71.7272272,37.2693909 72.2537172,37.1993117 72.7727135,37.0605108 C73.2917098,36.9205023 73.7768569,36.7117602 74.2270542,36.4341582 C74.6784604,36.1577637 75.0802483,35.8124841 75.4363026,35.3972885 C75.7911511,34.9832989 76.0688599,34.5016761 76.2692169,33.9525063 C76.421295,33.5324826 76.4900643,33.1681261 76.4731724,32.8591431 C76.4562745,32.5501587 76.3849405,32.2798398 76.2582077,32.0517226 C76.1314779,31.822398 75.9638369,31.6269389 75.7538235,31.4615837 C75.5450176,31.2986433 75.3227536,31.1512405 75.0898097,31.0220944 C74.8580717,30.8929498 74.6277904,30.7711921 74.4008806,30.6553231 C74.1739709,30.5394541 73.9783679,30.4148944 73.8142186,30.283335 C73.6488648,30.1517755 73.5340594,30.0009434 73.4688856,29.8319674 C73.4049148,29.6629928 73.4145251,29.4614002 73.4990146,29.2296623 C73.5557424,29.0739634 73.63809,28.926752 73.746716,28.7855377 C73.8529286,28.6455293 73.9819813,28.5261375 74.1340579,28.4271664 C74.286136,28.3281953 74.4574957,28.2498082 74.6506097,28.1930818 C74.8437237,28.136354 75.0562334,28.1084855 75.2879714,28.1084855 C75.5836772,28.1084855 75.8432287,28.1435021 76.0641029,28.2171278 C76.2849771,28.2895446 76.4730492,28.3690917 76.6287467,28.4596138 C76.784447,28.5477226 76.9135427,28.6298284 77.0149301,28.7058675 C77.1175204,28.7819066 77.1986132,28.8182744 77.2565469,28.8182744 C77.3168955,28.8182744 77.3688144,28.8024816 77.4158873,28.7698932 C77.4629588,28.7373048 77.5088406,28.6866408 77.5535002,28.6166373 C77.5969494,28.5466324 77.641385,28.4572346 77.6896623,28.3498146 C77.7367338,28.2436005 77.789958,28.1109286 77.8466858,27.9552297 C77.8973795,27.8152213 77.9371264,27.6970383 77.9648866,27.6041014 C77.9950616,27.5087511 78.0131684,27.4312821 78.0228292,27.3697276 C78.0312841,27.3081716 78.0337316,27.2576529 78.0289108,27.2202363 C78.0228737,27.1828213 78.0036055,27.1357305 77.9698112,27.082625 C77.9360154,27.0295179 77.850142,26.9618536 77.7125484,26.8809864 C77.5737474,26.8001206 77.4096322,26.7277216 77.2177242,26.6625464 C77.0270221,26.598577 76.8135986,26.547864 76.5806532,26.5104489 C76.3452945,26.471825 76.1049192,26.4536648 75.8586967,26.4536648 L75.8586982,26.4536648 Z M109.380697,26.4606215 C108.557546,26.4606215 107.765856,26.5872578 107.003052,26.8407204 C106.240249,27.0941829 105.536603,27.457332 104.888462,27.9340836 C104.242734,28.4108366 103.664615,28.9890037 103.158895,29.6697345 C102.653176,30.3516697 102.24516,31.1195021 101.932555,31.9752415 C101.632019,32.8032208 101.482386,33.5455046 101.48843,34.1984722 C101.490848,34.8526487 101.639359,35.4078764 101.930238,35.8616959 C102.222324,36.3167214 102.654247,36.6630141 103.227557,36.903201 C103.798452,37.1421805 104.502049,37.2615723 105.336063,37.2615723 C105.622114,37.2615723 105.910788,37.2484302 106.202874,37.2218818 C106.494958,37.1941216 106.789286,37.154179 107.086197,37.1010719 C107.384319,37.046759 107.6742,36.9827169 107.960251,36.9066779 C108.246304,36.8306388 108.488804,36.759689 108.68916,36.6896855 C108.889517,36.6184747 109.040303,36.5229894 109.141688,36.4022937 C109.240659,36.2815965 109.321604,36.1404712 109.379538,35.9787382 L110.892982,31.8219857 C110.931604,31.7133582 110.953437,31.6178744 110.955849,31.5345938 C110.959468,31.4513132 110.947498,31.3802195 110.917317,31.3210784 C110.887142,31.2619372 110.844833,31.2170685 110.788107,31.1881009 C110.731379,31.1579273 110.659995,31.1423273 110.574301,31.1423273 L107.046508,31.1423273 C106.998229,31.1423273 106.949931,31.1579273 106.901652,31.1881009 C106.853375,31.2170685 106.805173,31.2629518 106.754481,31.3257137 C106.706202,31.3872682 106.655394,31.4681666 106.604701,31.5719659 C106.554008,31.6733518 106.500833,31.8000831 106.446519,31.9497478 C106.340306,32.2418329 106.292005,32.4470017 106.301664,32.5676974 C106.312522,32.689602 106.365607,32.7499253 106.462163,32.7499253 L108.440589,32.7499253 L107.558134,35.1713177 C107.320362,35.2787377 107.07535,35.3594907 106.824301,35.4138037 C106.574457,35.4669108 106.32964,35.4946339 106.093073,35.4946339 C105.607874,35.4946339 105.193627,35.4162467 104.849641,35.2605478 C104.505654,35.1036415 104.246394,34.873022 104.073798,34.565245 C103.899996,34.2598828 103.816595,33.8784786 103.82262,33.4246591 C103.829859,32.9696321 103.942009,32.4422729 104.159262,31.8460316 C104.357207,31.30169 104.616707,30.8056272 104.936554,30.3566344 C105.255193,29.907643 105.618534,29.5226166 106.025282,29.2015624 C106.433236,28.8817172 106.873854,28.6343377 107.345777,28.4593276 C107.818909,28.2855248 108.307726,28.1974294 108.813447,28.1974294 C109.286576,28.1974294 109.68474,28.2457276 110.008208,28.3422853 C110.32926,28.4388415 110.599775,28.5449518 110.818236,28.6571985 C111.034282,28.7706541 111.203374,28.8755555 111.324069,28.9721132 C111.444766,29.068671 111.539961,29.1169676 111.61117,29.1169676 C111.658243,29.1169676 111.705285,29.1038255 111.749942,29.0772771 C111.795807,29.0495169 111.841834,29.0022823 111.891321,28.9358996 C111.9396,28.8683095 111.990264,28.7778972 112.044577,28.6644415 C112.100097,28.5521933 112.155591,28.4180722 112.212318,28.2611659 C112.310084,27.9920129 112.368094,27.7895006 112.384985,27.651907 C112.404296,27.5155194 112.389657,27.4092653 112.345005,27.3332262 C112.299141,27.2571871 112.203898,27.1689968 112.059063,27.0664035 C111.91302,26.965019 111.716254,26.8685696 111.471241,26.7804608 C111.227434,26.6911446 110.930358,26.6163323 110.581544,26.5547778 C110.232731,26.4920143 109.832103,26.4606215 109.380697,26.4606215 L109.380697,26.4606215 Z M43.3897939,26.5895422 C43.1146052,26.5895422 42.898669,26.5967807 42.7405553,26.6112697 C42.5824431,26.6245454 42.4593326,26.6607693 42.3700164,26.719912 C42.2807031,26.7790532 42.2192673,26.8635248 42.1854715,26.9745656 C42.1504698,27.0844005 42.1226502,27.2365365 42.0997182,27.4308578 L41.1558448,36.543382 C41.1401617,36.673734 41.1437706,36.7763674 41.1630834,36.8548198 C41.183602,36.9320648 41.2402067,36.9910843 41.3331437,37.0321216 C41.4260806,37.0719515 41.5626166,37.0996747 41.7436623,37.1129503 C41.9247051,37.126226 42.171024,37.1323609 42.4824218,37.1323609 C42.7793335,37.1323609 43.0194225,37.12622 43.2040876,37.1129503 C43.3887541,37.0996747 43.5431595,37.070937 43.6638567,37.0274863 C43.7833464,36.985243 43.882402,36.9248707 43.95965,36.8464183 C44.0356876,36.7691718 44.1105963,36.6676999 44.1830161,36.543382 L48.1743437,29.9243881 L48.1899882,29.9243881 L47.4526779,36.543382 C47.4321578,36.673734 47.4321578,36.7763674 47.4526779,36.8548198 C47.4719892,36.9320648 47.5286413,36.9910843 47.6215783,37.0321216 C47.7145138,37.0719515 47.8507635,37.0996747 48.0318062,37.1129503 C48.212852,37.126226 48.4567546,37.1323609 48.7633227,37.1323609 C49.0373068,37.1323609 49.2665246,37.12622 49.4487763,37.1129503 C49.6310295,37.0996747 49.7867373,37.0719515 49.91347,37.0321216 C50.0414072,36.9910843 50.1488703,36.9320648 50.2321509,36.8548198 C50.3178448,36.7763674 50.4011106,36.673734 50.479563,36.543382 L56.1851017,27.4549038 C56.3057988,27.2557557 56.3913815,27.0976302 56.4420737,26.9829671 C56.4915526,26.8658922 56.4974532,26.7790532 56.4600366,26.719912 C56.4214141,26.6607708 56.340805,26.6245483 56.2140722,26.6112697 C56.086135,26.5967926 55.9039086,26.5895422 55.6685499,26.5895422 C55.4150873,26.5895422 55.2157153,26.5967807 55.0708787,26.6112697 C54.9260421,26.6245454 54.8090191,26.6486952 54.7209103,26.6836984 C54.6340075,26.7187001 54.5640737,26.7669968 54.5157963,26.8285528 C54.4663101,26.8913147 54.4168534,26.9647758 54.369782,27.0504697 L49.6347689,35.0261726 L49.6191259,35.0261726 L50.5401118,27.082048 C50.5570038,26.9758354 50.5591813,26.8888035 50.5459115,26.8236282 C50.5314196,26.7608648 50.4893617,26.7102986 50.4181509,26.6752969 C50.34694,26.6402937 50.2381227,26.6172089 50.0884609,26.6063451 C49.9375887,26.5954873 49.7348851,26.5895422 49.4765944,26.5895422 C49.2339941,26.5895422 49.0372787,26.5967807 48.8876154,26.6112697 C48.7367432,26.6245454 48.6135867,26.6486952 48.5182349,26.6836984 C48.4216772,26.7187001 48.3444025,26.7680603 48.2864673,26.8320297 C48.2273261,26.8972049 48.1694651,26.9818695 48.1103239,27.082048 L43.3150527,35.0261726 L43.3066572,35.0261726 L44.385825,27.0264237 C44.4075496,26.9238319 44.4145123,26.8452994 44.4072633,26.7885731 C44.4012263,26.7318452 44.366404,26.6886185 44.3012287,26.6596524 C44.236052,26.6294774 44.1323076,26.6113187 43.987474,26.6028682 C43.84143,26.5944282 43.6432668,26.5895481 43.3898028,26.5895481 L43.3897939,26.5895422 Z M68.5806166,26.5901355 C68.3754314,26.5901355 68.202624,26.5984865 68.0626156,26.6141815 C67.9226072,26.6310779 67.8055827,26.6528114 67.7126458,26.6793656 C67.6197118,26.7059184 67.5475056,26.7410789 67.4968134,26.7845295 C67.4461212,26.8279802 67.4110082,26.8762784 67.3904895,26.9293854 L63.8009884,36.7937043 C63.7816772,36.8480173 63.7804712,36.8965572 63.8009884,36.9400079 C63.8190923,36.9822512 63.8636243,37.0171698 63.9348352,37.0437241 C64.0072534,37.0714843 64.107469,37.0932178 64.23903,37.1089083 C64.3693805,37.1245988 64.5382764,37.1329543 64.7422542,37.1329543 C64.9522661,37.1329543 65.1274423,37.1246032 65.2686567,37.1089083 C65.4086651,37.0932178 65.5243857,37.0714843 65.6137004,37.0437241 C65.7054314,37.0171698 65.7756055,36.9822512 65.8275066,36.9400079 C65.8769914,36.8965572 65.9119115,36.8480173 65.9312228,36.7937043 L69.5218824,26.9293854 C69.5424915,26.8762784 69.5423521,26.8279802 69.523069,26.7845295 C69.5037563,26.7410789 69.4581177,26.7059184 69.3869054,26.6793656 C69.3169034,26.6528129 69.2167323,26.6310779 69.0887951,26.6141815 C68.959649,26.598491 68.7894492,26.5901355 68.5806448,26.5901355 L68.5806166,26.5901355 Z M4.00030902,26.5904321 C3.79029567,26.5904321 3.61541162,26.5990799 3.47419728,26.6147674 C3.33418888,26.6316653 3.21687367,26.6533988 3.1239382,26.6799515 C3.03100124,26.7065058 2.95981261,26.741377 2.91273968,26.7848277 C2.86446082,26.827071 2.83070062,26.8753691 2.81018195,26.9296821 L0.498879604,33.2830116 C0.256280841,33.9504638 0.139250433,34.5324 0.148911248,35.0296702 C0.159769098,35.5281478 0.282740173,35.9431669 0.522925587,36.2762907 C0.761906551,36.6106205 1.11317281,36.8593038 1.5754398,37.0234517 C2.03650235,37.187598 2.59655822,37.2697038 3.25314808,37.2697038 C3.95319011,37.2697038 4.60486724,37.1778912 5.209556,36.9956396 C5.81424771,36.8121805 6.36353473,36.54693 6.85597528,36.1969098 C7.34962621,35.8480969 7.78299827,35.4195545 8.15474314,34.9126279 C8.52769691,34.4069088 8.83061755,33.8346808 9.06356292,33.1937815 L11.3435763,26.9296821 C11.3640831,26.8753691 11.3639436,26.827071 11.3470472,26.7848277 C11.3313567,26.7413755 11.2878882,26.7065058 11.2166774,26.6799515 C11.145465,26.6533988 11.047906,26.6316638 10.9211733,26.6147674 C10.7956509,26.5990769 10.6300865,26.5904321 10.4249014,26.5904321 C10.2209236,26.5904321 10.0473434,26.5990799 9.90371422,26.6147674 C9.76129246,26.6316653 9.64518467,26.6533988 9.55345513,26.6799515 C9.46293449,26.7065058 9.39430161,26.741377 9.34602274,26.7848277 C9.29774388,26.827071 9.26514512,26.8753691 9.24462497,26.9296821 L6.95621014,33.2181167 C6.82344326,33.5838274 6.6531471,33.9108979 6.45037676,34.1993622 C6.24519159,34.4878279 6.01582843,34.7289775 5.76115847,34.9245063 C5.50648702,35.121241 5.22911644,35.2697562 4.92737355,35.3735555 C4.62804697,35.4749399 4.31053795,35.5268114 3.97741557,35.5268114 C3.64791248,35.5268114 3.36894883,35.4775001 3.13841681,35.3773216 C2.9090937,35.2771431 2.73527021,35.1285805 2.61578195,34.9294309 C2.49749815,34.7302813 2.44219283,34.4792307 2.45064771,34.1738685 C2.4591026,33.8709197 2.53878616,33.5113454 2.68965686,33.0961483 L4.93461656,26.9296821 C4.95392781,26.8753691 4.95392781,26.827071 4.93461656,26.7848277 C4.91530532,26.7413755 4.87053152,26.7065058 4.79932213,26.6799515 C4.72810977,26.6533988 4.62799209,26.6316638 4.50005192,26.6147674 C4.37090729,26.5990769 4.20428084,26.5904321 4.00030309,26.5904321 L4.00030902,26.5904321 Z M82.3171931,26.5907288 C82.1071813,26.5907288 81.9322957,26.5990799 81.7910799,26.6147748 C81.651073,26.6304653 81.5340485,26.6522477 81.4411115,26.6788005 C81.3481746,26.7065607 81.2767427,26.7417211 81.2284653,26.7839659 C81.180185,26.8274166 81.1475847,26.8756658 81.1270661,26.9299787 L78.8157637,33.2821498 C78.573162,33.949602 78.4560886,34.5326967 78.4669538,35.0299669 C78.4754087,35.5284445 78.5996703,35.943465 78.8386512,36.2765874 C79.0788366,36.6109172 79.4291387,36.8596005 79.8926146,37.0237483 C80.3536742,37.1878962 80.9134423,37.270002 81.5700322,37.270002 C82.2688653,37.270002 82.9208317,37.1781879 83.5267308,36.9959362 C84.1314196,36.8124771 84.6792099,36.5469375 85.1728594,36.1969172 C85.6665073,35.8468969 86.098675,35.4198512 86.4716272,34.9129246 C86.844581,34.4072054 87.1462942,33.8337701 87.380447,33.1940781 L89.6604604,26.9299787 C89.6809672,26.8756658 89.6808277,26.8274166 89.6639313,26.7839659 C89.6470319,26.7417211 89.6050631,26.7065607 89.5338507,26.6788005 C89.4626413,26.6522477 89.3647887,26.6304653 89.2380574,26.6147748 C89.1125321,26.5990858 88.9460525,26.5907288 88.7420747,26.5907288 C88.538097,26.5907288 88.3642275,26.5990799 88.2205983,26.6147748 C88.0781766,26.6304653 87.962358,26.6522477 87.8706285,26.6788005 C87.7801064,26.7065607 87.7099783,26.7417211 87.6629068,26.7839659 C87.6146295,26.8274166 87.5820263,26.8756658 87.5615091,26.9299787 L85.2730928,33.2181241 C85.13912,33.5838349 84.9700312,33.9109053 84.7672609,34.1993696 C84.5620757,34.4878354 84.3330018,34.7280667 84.0783318,34.924803 C83.8236619,35.1215377 83.5459991,35.2701019 83.2442577,35.3726937 C82.9437222,35.4752855 82.6250562,35.5271095 82.2931412,35.5271095 C81.964847,35.5271095 81.6861207,35.4765909 81.4555916,35.3776183 C81.226267,35.2774413 81.0512866,35.1288771 80.9317968,34.9297276 C80.813513,34.730578 80.757871,34.4783214 80.7675303,34.1741651 C80.7747689,33.8712163 80.8556717,33.511642 81.006541,33.0964465 L83.2503407,26.9299787 C83.2708609,26.8756658 83.2696549,26.8274166 83.2503407,26.7839659 C83.2322369,26.7417211 83.1862112,26.7065607 83.1162062,26.6788005 C83.0449954,26.6522477 82.9448732,26.6304653 82.816936,26.6147748 C82.6877899,26.5990858 82.5211649,26.5907288 82.3171872,26.5907288 L82.3171931,26.5907288 Z M100.468074,26.6063733 C100.273753,26.6063733 100.113162,26.6136712 99.9828099,26.6269424 C99.8548712,26.640218 99.747604,26.6630166 99.6594937,26.6956035 C99.5725924,26.7281918 99.5049296,26.7657671 99.4578567,26.8080119 C99.4095793,26.8514625 99.3757687,26.8997117 99.3564589,26.9540247 L97.5712683,31.8541721 C97.4372955,32.2259169 97.2999378,32.6157745 97.1587219,33.0237286 C97.0175061,33.4328915 96.8859452,33.8262734 96.7664554,34.2028465 L96.7577632,34.2028465 C96.7384534,33.986799 96.7193736,33.7722141 96.6940282,33.557374 C96.6698888,33.3413266 96.6455462,33.1227323 96.6189934,32.8994433 C96.5924406,32.6749483 96.5612391,32.4529246 96.5274448,32.2296356 C96.4924431,32.0051392 96.4586829,31.7782383 96.4248871,31.5465004 L95.7802839,27.7287085 C95.7549385,27.5186952 95.7186181,27.3427001 95.67396,27.2002784 C95.6280945,27.0578566 95.5653088,26.9468203 95.485649,26.865953 C95.4035758,26.7850858 95.2997855,26.7256806 95.1730527,26.6906789 C95.0463229,26.6556756 94.8798893,26.6388208 94.6759115,26.6388208 L93.5376426,26.6388208 C93.322801,26.6388208 93.117782,26.7027664 92.9234591,26.8282902 C92.7291378,26.955023 92.5867056,27.1446868 92.4949776,27.3981493 L89.0778537,36.7858962 C89.0573469,36.8390032 89.0537083,36.8884598 89.0633617,36.9319105 C89.0766374,36.9741538 89.1117504,37.0104252 89.1696856,37.0393928 C89.2300342,37.0695664 89.3182245,37.0926052 89.4365068,37.1095016 C89.5547907,37.1251921 89.7068317,37.1335476 89.8951175,37.1335476 C90.0882314,37.1335476 90.2499808,37.1251965 90.3815402,37.1095016 C90.5106848,37.0926052 90.616939,37.0695664 90.7002196,37.0393928 C90.7835002,37.0104252 90.8472544,36.9741538 90.8943259,36.9319105 C90.9377751,36.8884598 90.9706171,36.8390032 90.9899298,36.7858962 L92.9802344,31.3208158 C93.1286918,30.9116544 93.2686067,30.5145048 93.3965469,30.1306902 C93.5268989,29.7456667 93.6510715,29.3592875 93.7705612,28.9718522 L93.7862057,28.9718522 C93.7934443,29.2892841 93.8152772,29.6166438 93.849073,29.9533869 C93.8816614,30.2889241 93.9214572,30.6026166 93.9661153,30.8934957 L94.7880218,35.7768386 C94.8254384,36.0459916 94.866489,36.2657933 94.9111486,36.4347693 C94.9582186,36.6037439 95.0210072,36.7387832 95.0994596,36.8377543 C95.1803254,36.9379328 95.2805454,37.0069023 95.4036544,37.0443174 C95.5279724,37.0829414 95.683778,37.1008109 95.8732727,37.1008109 L96.776008,37.1008109 C96.8785998,37.1008109 96.9848065,37.0863634 97.0958473,37.0561958 C97.2056806,37.0272282 97.3095689,36.9790769 97.4061266,36.9151075 C97.5014755,36.8499308 97.5884109,36.7691303 97.6668648,36.6737785 C97.7453172,36.5760148 97.8067531,36.4660895 97.8514097,36.3417716 L101.269403,26.9540247 C101.288723,26.8997117 101.293642,26.8514625 101.281566,26.8080119 C101.270708,26.7657671 101.236847,26.7281918 101.181327,26.6956035 C101.125806,26.6630166 101.03892,26.640221 100.91943,26.6269424 C100.801146,26.6136667 100.650313,26.6063733 100.468062,26.6063733 L100.468074,26.6063733 Z M25.1018818,26.6388208 C24.9232494,26.6388208 24.7554171,26.6908376 24.59489,26.7958443 C24.4355703,26.9020569 24.3138601,27.0720638 24.2269587,27.3086299 L20.9126818,36.4139095 C20.8269923,36.6516831 20.8256351,36.8219792 20.9089142,36.9269859 C20.9921948,37.0319911 21.1226477,37.0851664 21.2988638,37.0851664 L26.5455026,37.0851664 C26.5949874,37.0851664 26.6445419,37.0692771 26.6964415,37.0391036 C26.7459278,37.010136 26.7978942,36.9643491 26.847379,36.8991738 C26.8992786,36.833997 26.9486892,36.7495253 27.0017944,36.6445187 C27.0524866,36.539512 27.1067254,36.4091095 27.1634517,36.2534106 C27.2201795,36.0977117 27.2600258,35.9661019 27.2865785,35.8623026 C27.3107106,35.7572974 27.3214839,35.6716658 27.3178675,35.606489 C27.3154497,35.5425197 27.297294,35.4955758 27.2683279,35.4654007 C27.2393602,35.4376405 27.1995644,35.4219441 27.1512841,35.4219441 L23.3905661,35.4219441 L24.4622017,32.4755985 L27.6185855,32.4755985 C27.6668643,32.4755985 27.7162245,32.4625157 27.7669167,32.4347496 C27.816403,32.4081968 27.866051,32.3633281 27.9155387,32.3017735 C27.9650235,32.2402176 28.0155437,32.1584025 28.0650285,32.0558091 C28.1169281,31.9532173 28.1699595,31.8238769 28.2266858,31.668178 C28.2822062,31.5173073 28.3221978,31.3893197 28.3463358,31.284313 C28.37169,31.1805137 28.3812871,31.0973459 28.3764663,31.0345839 C28.372847,30.9730279 28.3559417,30.9259387 28.3257667,30.8969711 C28.2955931,30.8680035 28.2582092,30.852356 28.2087244,30.852356 L25.0537884,30.852356 L25.9805696,28.302043 L29.7102893,28.302043 C29.7597756,28.302043 29.8080248,28.2875956 29.8563022,28.2574279 C29.9045825,28.2272544 29.9539412,28.1812257 30.0046334,28.1160504 C30.0553256,28.0520811 30.1048297,27.966402 30.1567308,27.8613953 C30.2086305,27.757596 30.2617093,27.6296084 30.3172297,27.4775303 C30.3763724,27.3170032 30.4173266,27.1842334 30.442675,27.0780208 C30.4668085,26.9742215 30.4789805,26.8874789 30.4765701,26.8198888 C30.4729509,26.7535061 30.4586043,26.7065132 30.4296381,26.679959 C30.4030839,26.6534077 30.3643501,26.6388208 30.3160712,26.6388208 L25.1018803,26.6388208 L25.1018818,26.6388208 Z M33.861248,26.6388208 C33.683823,26.6388208 33.5150235,26.6908376 33.3557054,26.7958443 C33.1963842,26.9020569 33.0731788,27.0720638 32.9874848,27.3086299 L29.5355951,36.7942977 C29.5162942,36.8486121 29.5137785,36.8969088 29.5306705,36.9391535 C29.5475684,36.9826042 29.590939,37.0174754 29.6633573,37.0440282 C29.7333607,37.070581 29.8348342,37.0935234 29.9663936,37.1092124 C30.0967457,37.1249028 30.2644342,37.1332583 30.4696193,37.1332583 C30.6784253,37.1332583 30.8548534,37.1249073 30.9948619,37.1092124 C31.1360777,37.0935219 31.2517494,37.070581 31.3410656,37.0440282 C31.4315862,37.0174754 31.5027303,36.9826042 31.5534225,36.9391535 C31.6029073,36.8969088 31.6392752,36.8486121 31.6585865,36.7942977 L33.1068441,32.81369 L33.7696994,32.81369 C33.9941958,32.81369 34.1810117,32.8485122 34.3282601,32.9197231 C34.4743026,32.9897266 34.589203,33.0924074 34.6712762,33.2300025 C34.7533494,33.367596 34.8098577,33.5378937 34.8436534,33.7430774 C34.8774492,33.9470551 34.9017326,34.1810077 34.9198468,34.445334 L35.00676,36.7772054 C35.0043422,36.8423822 35.0114028,36.8979723 35.0258799,36.9426289 C35.0427778,36.9884944 35.0840258,37.0272282 35.1516144,37.0561958 C35.2179986,37.0863693 35.3167664,37.1055916 35.4471185,37.1164554 C35.5786764,37.1273132 35.7561711,37.1332583 35.9830809,37.1332583 C36.2522354,37.1332583 36.467206,37.1273251 36.6265256,37.1164554 C36.7870527,37.1055975 36.9111763,37.0873839 37.0016999,37.0608311 C37.0934295,37.033071 37.156408,36.9992633 37.1926186,36.9594334 C37.2288263,36.9196035 37.2578057,36.8690833 37.2795303,36.8099422 C37.2988431,36.7568366 37.3119719,36.6818789 37.3192208,36.587736 C37.3264594,36.4935916 37.3275719,36.3441122 37.3215348,36.1401345 L37.1900065,34.0820381 C37.1779323,33.8346096 37.1537884,33.6127313 37.1175793,33.4159951 C37.0825761,33.2204677 37.0306557,33.0440366 36.9654819,32.8907525 C36.9003051,32.737467 36.8196485,32.6073538 36.7206759,32.4999337 C36.6229138,32.3913078 36.5106211,32.3007011 36.3802675,32.2258695 C36.7411501,32.1232761 37.0778324,31.9879965 37.3916436,31.8214339 C37.7054532,31.6548727 37.9890077,31.4582062 38.2436792,31.2312964 C38.4983491,31.0055941 38.7217746,30.7497137 38.916096,30.461248 C39.1092099,30.1739896 39.2696525,29.8552272 39.3975926,29.5052069 C39.5484633,29.0900099 39.6197602,28.7233365 39.6137157,28.4022823 C39.6052757,28.0824371 39.5269271,27.8058378 39.3784712,27.571685 C39.2300139,27.3375337 39.0137869,27.1481117 38.7289434,27.0032752 C38.4465133,26.8572326 38.1060648,26.7547446 37.7065583,26.6956035 C37.5677573,26.679913 37.4122394,26.6664875 37.2372292,26.6556237 C37.063425,26.6447659 36.8399521,26.6388208 36.5659724,26.6388208 L33.8612436,26.6388208 L33.861248,26.6388208 Z M59.3658255,26.6388208 C59.1884005,26.6388208 59.0193133,26.6908376 58.8599921,26.7958443 C58.700674,26.9020569 58.577467,27.0720638 58.4917716,27.3086299 L55.1774947,36.4139095 C55.0917919,36.6516831 55.089337,36.8219792 55.1714132,36.9269859 C55.2558997,37.0319911 55.3862562,37.0851664 55.5636797,37.0851664 L60.8103185,37.0851664 C60.8598033,37.0851664 60.9094067,37.0692771 60.9600989,37.0391036 C61.012,37.010136 61.0615516,36.9643491 61.1110379,36.8991738 C61.1641434,36.833997 61.21476,36.7495253 61.2654522,36.6445187 C61.3173518,36.539512 61.3715417,36.4091095 61.4282695,36.2534106 L61.4285662,36.2534106 C61.485294,36.0977117 61.5260569,35.9661019 61.5514038,35.8623026 C61.5743284,35.7572974 61.5866428,35.6716658 61.5818221,35.606489 C61.5794043,35.5425197 61.5624559,35.4955758 61.5322824,35.4654007 C61.5033148,35.4376405 61.463519,35.4219441 61.4152401,35.4219441 L57.654231,35.4219441 L58.7261558,32.4755985 L61.8822507,32.4755985 C61.931737,32.4755985 61.9798898,32.4625157 62.030582,32.4347496 C62.0812742,32.4081968 62.1308762,32.3633281 62.1803625,32.3017735 C62.2298473,32.2402176 62.2794507,32.1584025 62.3301429,32.0558091 C62.3808352,31.9532173 62.4350725,31.8238769 62.4918003,31.668178 C62.5461133,31.5173073 62.5858631,31.3893197 62.610001,31.284313 C62.6353568,31.1805137 62.6461108,31.0973459 62.64129,31.0345839 C62.6376708,30.9730279 62.6198488,30.9259387 62.5908811,30.8969711 C62.5607061,30.8680035 62.5218285,30.852356 62.4735481,30.852356 L59.3174532,30.852356 L60.2456821,28.302043 L63.9739546,28.302043 C64.0222334,28.302043 64.0716411,28.2875956 64.1211259,28.2574279 C64.1681988,28.2272544 64.2188139,28.1812257 64.2682987,28.1160504 C64.3189909,28.0520811 64.3709098,27.966402 64.4203961,27.8613953 C64.4735031,27.757596 64.5268238,27.6296084 64.5823442,27.4775303 C64.6414853,27.3170032 64.6812811,27.1842334 64.7066295,27.0780208 C64.7319674,26.9742215 64.7426458,26.8874789 64.7402354,26.8198888 C64.7378176,26.7535061 64.7222221,26.7065132 64.6944619,26.679959 C64.6667017,26.6534077 64.6292213,26.6388208 64.5797365,26.6388208 L59.3658344,26.6388208 L59.3658255,26.6388208 Z M15.0840163,26.6394141 C14.9065913,26.6394141 14.7375026,26.6914294 14.5781829,26.7964361 C14.4188648,26.9014428 14.2968638,27.0714497 14.2099624,27.3092218 L10.8956855,36.4145028 C10.8099975,36.6510675 10.8074803,36.8214126 10.8907609,36.9264193 C10.9740415,37.031426 11.104444,37.0846012 11.2818675,37.0846012 L14.0593127,37.0846012 C14.478132,37.0846012 14.8691956,37.0591476 15.2288707,37.007248 C15.5897533,36.9565557 15.9395718,36.8768173 16.2799372,36.7693973 C16.6203011,36.6619773 16.9463095,36.5245706 17.2577058,36.3580094 C17.5691036,36.1914482 17.8552198,35.9923179 18.1207506,35.7617874 C18.3850769,35.5300494 18.6227496,35.2618546 18.8351748,34.9613192 C19.0476015,34.6595778 19.2214724,34.3242972 19.3566512,33.9525508 C19.4857973,33.5977023 19.5485785,33.2764287 19.5449637,32.9915852 C19.5401281,32.7067402 19.4844,32.4582986 19.3757726,32.2458719 C19.2671466,32.0334467 19.1126418,31.8595758 18.9110789,31.7243956 C18.7095174,31.5904213 18.4718907,31.4950354 18.1954962,31.4419283 C18.4574062,31.3562344 18.7048346,31.2426868 18.9365726,31.1026784 C19.168309,30.96267 19.378309,30.801115 19.5690096,30.6188633 C19.7585043,30.4354042 19.9261913,30.2326042 20.0722339,30.0093152 C20.2182764,29.7860262 20.3365098,29.5483535 20.4294467,29.294891 C20.5948005,28.8434848 20.6564292,28.4497661 20.6165993,28.1166423 C20.5767693,27.7823125 20.4439031,27.5059075 20.2194067,27.2886527 C19.9949117,27.0701918 19.679914,26.907333 19.2743748,26.799913 C18.87004,26.692493 18.3476069,26.6394141 17.707915,26.6394141 L15.0840163,26.6394141 L15.0840163,26.6394141 Z M15.9589394,28.2290492 L17.0320227,28.2290492 C17.3603169,28.2290492 17.6114151,28.2591397 17.7864267,28.3182808 C17.9614368,28.377422 18.0928539,28.4618937 18.1821701,28.5729345 C18.2714848,28.6827693 18.3173251,28.8215273 18.3209399,28.9880885 C18.3245592,29.1558571 18.2894967,29.3430096 18.2134576,29.553023 C18.1446601,29.7425162 18.0493706,29.9199619 17.9286734,30.0901439 C17.8067689,30.2591199 17.6633266,30.4075372 17.495558,30.5342685 C17.3289968,30.6609998 17.1405894,30.7599619 16.9317834,30.8323802 C16.7217716,30.904797 16.4645889,30.9421795 16.1568104,30.9421795 L14.9716079,30.9421795 L15.9589394,28.2290492 Z M34.7639832,28.2609182 L35.7162581,28.2609182 C35.9588584,28.2609182 36.1461548,28.2707229 36.2777157,28.2864119 C36.4092737,28.3021023 36.5226759,28.323643 36.6204411,28.3489899 C36.9402863,28.4479609 37.135652,28.6132836 37.2056554,28.8510556 C37.2756604,29.0876218 37.2468263,29.3785172 37.1225083,29.7225019 C37.0392277,29.9482057 36.9282878,30.1535659 36.7858661,30.3358176 C36.6446502,30.5192766 36.4730502,30.6773533 36.2751081,30.8089127 C36.0759585,30.9404722 35.85152,31.0418002 35.5980574,31.115426 C35.3458008,31.1878443 35.0694908,31.2240667 34.7677494,31.2240667 L33.6862631,31.2240667 L34.7639832,28.2609182 L34.7639832,28.2609182 Z M14.4066749,32.4921256 L15.6657523,32.4921256 C16.0531891,32.4921256 16.354708,32.5269953 16.5719644,32.5970002 C16.7880104,32.6670037 16.9523169,32.7659659 17.0621533,32.895112 C17.1695718,33.0242566 17.2297483,33.1847496 17.2406136,33.3754502 C17.2526878,33.5661508 17.2142878,33.7823778 17.126179,34.024978 C17.041691,34.2579234 16.9258235,34.4630907 16.7773676,34.642929 C16.6264969,34.8227674 16.4561993,34.9735995 16.2642927,35.0942967 C16.0723832,35.2161998 15.8635951,35.3067575 15.6390986,35.3695209 C15.4146037,35.4322828 15.1551501,35.461068 14.8606502,35.461068 L13.3266378,35.461068 L14.4066749,32.4921256 L14.4066749,32.4921256 Z" id="path98" fill="#383A41"></path>
            </g>
        </g>
    </g>
</svg>