<svg width="118" height="121" xmlns="http://www.w3.org/2000/svg" xmlns:xlink="http://www.w3.org/1999/xlink"><defs><path id="a" d="M0 120h120V0H0z"/></defs><g fill="none" fill-rule="evenodd"><path fill="#EEE" d="M11.378 93.143h12.545V42.525H11.378z"/><path fill="#B5B5B5" d="M7.76 44.289h19.781v-6.668H7.76zM7.88 96.872h19.782v-5.494H7.88z"/><path fill="#EEE" d="M38.879 93.143h12.545V42.525H38.879z"/><path fill="#B5B5B5" d="M35.261 44.289h19.781v-6.668H35.261zM35.381 96.872h19.781v-5.494H35.381z"/><path fill="#EEE" d="M94.122 93.143h12.544V42.525H94.122z"/><path fill="#B5B5B5" d="M90.504 44.289h19.781v-6.668H90.504z"/><path fill="#D1D1D1" d="M4.478 104.831h109.09v-8.767H4.478z"/><path fill="#B5B5B5" d="M.161 113.33h117.723v-10.987H.161z"/><path fill="#D1D1D1" d="M90.383 96.872h19.781v-5.494H90.383z"/><path fill="#EEE" d="M66.621 93.143h12.545V42.525H66.621z"/><path fill="#B5B5B5" d="M63.003 44.289h19.781v-6.668H63.003z"/><path fill="#D1D1D1" d="M58.978.5L.115 31.861v7.72h117.723v-7.72zM62.882 96.872h19.781v-5.494H62.882z"/><g transform="translate(-1 .5)"><path d="M112.194 72.266c.895 0 1.796.339 2.474 1.024a3.52 3.52 0 011.032 2.488l-.002 40.719a3.45 3.45 0 01-1.033 2.476 3.428 3.428 0 01-2.476 1.027H47.596a3.497 3.497 0 01-2.486-1.025 3.52 3.52 0 01-1.02-2.478l.002-40.719c0-.903.34-1.799 1.019-2.489a3.541 3.541 0 012.485-1.023h64.597z" fill="#3476D5"/><mask id="b" fill="#fff"><use xlink:href="#a"/></mask><path fill="#1755A0" mask="url(#b)" d="M52.999 112.418h11.202v-2.555H52.999zM67.193 112.411h11.202v-2.547H67.193zM92.585 112.418l-11.192-.008v-2.547h11.192zM106.778 112.418h-11.19l-.004-2.555h11.194z"/><path fill="#FFF" mask="url(#b)" d="M106.778 102.266l-53.779-.001V96.12h53.779z"/><g mask="url(#b)" fill="#201B19"><path d="M82.547 100.204l-3.077.003v-1.38l3.077.003zM93.494 100.204h-9.218v-1.376l9.218.001zM104.438 100.207l-9.217-.003V98.83h9.22z"/></g><path fill="#1755A0" mask="url(#b)" d="M115.7 91.873H44.092V80.946l71.608.003z"/><path fill="#EEE" mask="url(#b)" d="M59.978 9.64L30.155 25.53v3.91H89.8v-3.91z"/></g></g></svg>