<svg width="144" height="119" xmlns="http://www.w3.org/2000/svg" xmlns:xlink="http://www.w3.org/1999/xlink"><defs><path id="a" d="M0 .302h97.861V112.89H0z"/></defs><g fill="none" fill-rule="evenodd"><path fill="#EEE" d="M103.273 0L48 61.114l25.617 23.33 55.272-61.114z"/><path fill="#D1D1D1" d="M73.569 83.556l28.653-31.765-15.179-9.019-10.39-14.328L48 60.21z"/><path d="M100.303 38.841l-.962-.872c-1.478 1.37-3.297 1.52-4.782.244l1.747-1.924c.512.466 1.014.454 1.643-.238.628-.693.592-1.193.079-1.659-1.398-1.268-3.35 3.717-6.556.809-1.398-1.269-1.539-3.15-.375-4.714l-.975-.884.71-.782.974.884c1.39-1.194 3.175-1.256 4.555-.122l-1.688 1.86c-.422-.36-.964-.408-1.522.207-.582.641-.432 1.198-.01 1.582 1.398 1.268 3.363-3.73 6.569-.82 1.46 1.326 1.501 3.162.328 4.763l.974.884-.709.782zM106.378 32.149l-.962-.873c-1.478 1.37-3.297 1.52-4.78.244l1.745-1.923c.513.465 1.015.453 1.643-.24.628-.692.592-1.192.079-1.658-1.398-1.268-3.35 3.717-6.555.808-1.399-1.267-1.54-3.149-.376-4.712l-.975-.885.71-.782.974.884c1.389-1.194 3.176-1.257 4.555-.122l-1.688 1.859c-.421-.36-.963-.407-1.521.208-.583.641-.433 1.198-.01 1.582 1.398 1.268 3.362-3.73 6.568-.821 1.461 1.326 1.502 3.163.329 4.764l.974.884-.71.783zM112.454 25.456l-.963-.873c-1.477 1.371-3.297 1.52-4.78.244l1.745-1.923c.513.465 1.015.453 1.644-.239.628-.692.592-1.193.078-1.659-1.398-1.268-3.35 3.717-6.555.81-1.398-1.27-1.539-3.15-.376-4.714l-.974-.885.71-.782.973.885c1.39-1.195 3.176-1.257 4.555-.123l-1.687 1.86c-.422-.36-.964-.408-1.522.207-.582.642-.433 1.198-.01 1.582 1.398 1.268 3.362-3.73 6.568-.82 1.462 1.326 1.502 3.163.329 4.763l.974.884-.71.783z" fill="#B5B5B5"/><path fill="#EEE" d="M143.643 31.473L83.967 87.937 60.213 62.841l59.676-56.465z"/><path fill="#B5B5B5" d="M84.258 87.65l30.994-29.327-14.468-10.098-9.287-14.998-30.993 29.326zM114.027 44.66l-.892-.942c-1.578 1.255-3.404 1.265-4.787-.12l1.887-1.785c.477.504.978.53 1.657-.114.678-.642.68-1.144.204-1.647-1.297-1.37-3.622 3.451-6.597.308-1.298-1.37-1.296-3.257-.017-4.728l-.905-.956.767-.726.904.956c1.476-1.085 3.262-1.012 4.551.224l-1.824 1.725c-.393-.39-.93-.479-1.533.092-.63.595-.522 1.162-.13 1.577 1.298 1.37 3.636-3.463 6.612-.32 1.356 1.434 1.257 3.267-.034 4.776l.904.955-.767.726zM120.593 38.448l-.893-.943c-1.577 1.255-3.403 1.265-4.786-.12l1.887-1.785c.477.504.978.53 1.657-.113s.68-1.144.204-1.648c-1.297-1.37-3.622 3.452-6.598.309-1.297-1.371-1.295-3.257-.016-4.728l-.905-.956.767-.726.905.955c1.475-1.085 3.261-1.012 4.55.224l-1.824 1.726c-.393-.39-.93-.48-1.533.092-.63.595-.522 1.161-.13 1.577 1.298 1.37 3.636-3.464 6.612-.32 1.356 1.433 1.257 3.267-.034 4.775l.904.955-.767.726zM127.159 32.236l-.893-.944c-1.577 1.255-3.403 1.266-4.786-.12l1.887-1.784c.477.503.977.529 1.656-.114.68-.643.682-1.144.205-1.648-1.297-1.37-3.622 3.452-6.598.31-1.297-1.372-1.295-3.258-.017-4.729l-.904-.956.767-.725.904.955c1.476-1.086 3.262-1.012 4.55.224l-1.823 1.725c-.393-.39-.93-.479-1.534.093-.628.595-.521 1.161-.129 1.576 1.297 1.37 3.636-3.464 6.611-.32 1.357 1.433 1.258 3.268-.034 4.775l.905.956-.767.726z"/><g transform="translate(0 5.333)"><mask id="b" fill="#fff"><use xlink:href="#a"/></mask><path d="M2.054 23.265L61.674.513a3.191 3.191 0 014.119 1.843L97.65 85.809a3.19 3.19 0 01-1.844 4.118l-59.62 22.751a3.191 3.191 0 01-4.119-1.842L.21 27.383a3.19 3.19 0 011.844-4.118" fill="#EEE" mask="url(#b)"/></g><path fill="#3476D5" d="M25.902 19.497l34.133 89.414 11.924-4.55-34.134-89.414z"/><path fill="#3476D5" d="M9.313 56.56l4.55 11.921 65.583-25.026-4.551-11.922z"/><path fill="#3476D5" d="M47.2 44.026l-4.066 1.551-.778.297-4.065 1.552-13.465 31.876 7.987-5.038 4.205 8.289 8.52-29.514 26.02 16.333-2.389-8.982 9.314-1.564z"/><path d="M24.06 60.065c8.166.47 21.701-9.503 21.701-9.503S34.481 39.16 26.315 38.69c-8.166-.47-10.192 5.323-10.815 11.225-.622 5.903.395 9.68 8.56 10.15" fill="#3476D5"/><path d="M27.077 50.289c5.993-1.39 13.512 1.363 13.512 1.363s-9.897 7.293-15.868 6.95c-2.563-.148-4.536-.914-5.922-2.077-.121-2.394 2.644-4.93 8.278-6.236" fill="#1755A0"/><path d="M66.234 43.972c-5.776 5.79-22.516 7.37-22.516 7.37s.815-16.018 6.59-21.807c5.776-5.79 11.148-2.82 15.545 1.166 4.398 3.986 6.156 7.481.38 13.27" fill="#3476D5"/><path d="M57.469 38.691c-5.395 2.956-9.167 10.018-9.167 10.018s12.24-1.156 16.464-5.39c1.813-1.817 2.774-3.702 3.032-5.492-1.505-1.867-5.257-1.915-10.33.864" fill="#1755A0"/><path d="M48.093 47.657c1.138 2.983 1.191 4.111-2.503 5.521-3.694 1.41-4.407.534-5.546-2.45-1.14-2.984-1.732-5.528 1.962-6.938 3.694-1.41 4.948.883 6.087 3.867" fill="#1755A0"/></g></svg>