<svg width="104" height="120" xmlns="http://www.w3.org/2000/svg" xmlns:xlink="http://www.w3.org/1999/xlink"><defs><path id="a" d="M.22.746h94.936V103H.22z"/><path id="c" d="M.364 0h28.319v38.52H.363z"/></defs><g fill="none" fill-rule="evenodd"><path d="M103.35 68.64c0 28.353-22.982 51.356-51.355 51.356C23.635 119.996.65 96.994.65 68.64c0-28.36 22.986-51.355 51.345-51.355 28.373 0 51.356 22.994 51.356 51.355" fill="#EEE"/><g transform="translate(8 17)"><mask id="b" fill="#fff"><use xlink:href="#a"/></mask><path d="M17.758 11.476c-.136-.087-.106-.185.09-.278.162.053.136.159-.09.277-.063-.008.103-.031 0 0zm2.995 4.182c.031-.008.507-.067.337.125-.185.094-.289.05-.337-.124.059-.01.003.095 0 0zM67.67 6.951c.319.09.016.068 0 0 0 0 .011.052 0 0zM31.638 2.925c-.016.097-.089.086-.151.086.026-.087.086-.097.151-.087zm-1.63-.09c.058-.072.146-.058.231-.062-.059.08-.134.091-.231.063zm.453-.11c-.058.011-.128.028-.178.038.047-.054.114-.055.178-.038zm2.291 4.91c.012-.011.048.005.067.009-.067.037-.176.037-.067-.01zm-26.655 45.7c-.038.52-.154-.5 0 0-.003.065-.017-.05 0 0zM29.323 6.774c-.098.15-.229.216-.443.299.107-.248.258-.29.443-.298zm1.167 80.33a.356.356 0 01.226.305c0 .444-.805-.24-.226-.305.087-.01-.125.01 0 0zM13.198 33.775c-.012.18-.1.27-.264.263-.077-.148.185-.58.264-.263.033.108-.018-.057 0 0zm46.448-25.15c-.063.117-.003.19.077.262-.088-.037-.447-.482-.172-.543.124.05.164.14.095.282-.063.117.04-.063 0 0zM28.823 6.512c-.292.157-.508.27-.827.25.226-.25.48-.237.827-.25zm3.709-1.732c.143-.252.306-.316.811-.31-.249.276-.522.324-.811.31zM84.66 22.372c-.245-.122-.338-.288-.268-.567.203.15.288.302.268.567zm-12.829-2.934c-.396-.053.759-.423.338.116a.82.82 0 01-.338-.116c-.06-.011.13.009 0 0zM31.649 2.918c.354-.28.77-.325 1.203-.294-.373.216-.757.341-1.203.294zm-.211 12.463c.1.028.211-.002.38-.018-.507.626-1.096-.24-.968-.272-.09.02.556.289.588.29.1.028-.199-.026 0 0zm.135-12.706c-.381.29-.776.568-1.299.522.349-.37.837-.42 1.299-.522zm1.44-.321c-.087-.115-.227-.038-.313-.142.232-.267.56-.175.849-.258-.011.032-.356.67-.536.4-.087-.115.04.085 0 0zM82.6 22.282c-.154-.159-.493-.052-.585-.392.289.154.615.084.89.302-.098.076-.203.184-.305.09-.154-.159.102.095 0 0zm-8.614-4.287l.005.005c-.139-.043-.971-.553-.636-.82.248-.174.598.733.631.816zm-42.53-4.74c.477-.012.868.137 1.285.445-.561.112-.923-.1-1.285-.444zM5.72 53.425c-.008.219-.113.3-.331.227-.069-.072-.112-.816.025-.962.103.24.211.476.306.736.039.093-.095-.26 0 0zm11.129-21.237c-.156-.62-.392-.63.022-1.169.156.573.156.919-.022 1.169-.064-.256.178-.25 0 0zM32.285 2.075c-.407.267-.897.087-1.327.245.591-.4.86-.373 1.327-.244-.407.266-.075-.018 0 0zM27.425 44c-.028-.007.165-.605.556-.636.46.282-.331.664-.556.637-.031-.008.501.059 0 0zm-.212.042c.018-.041.052-.056.113-.062-.036.02-.066.035-.113.063zm-2.386-7.263c-.605 1.495-2.147-1.038 0 0-.094.213-.362-.179 0 0zm-8.274.026c.15.011.225.093.252.233-.088.37-1.242-.156-1.371-.32.407-.229.774-.102 1.119.087zM51.166 1.166c-.069.009-.146.015-.212.024.066-.067.14-.073.212-.023-.069.008-.026-.01 0 0zm1.979.468c-.658-.192-1.346-.221-1.979-.467.763-.079 1.685.206 2.214.359.181.053-.278.083-.235.107-.658-.19.06.016 0 0zm-19.599.764c.88-.675 1.086-.295 2.192-.178-.346.311-1.205.388-2.192.177.241-.184.987.212 0 0zM74.179 18.2c.299 0 1.041 1.177.919 1.366-.35.555-.93-.85-1.292-1.064.127-.081.257-.186.373-.302zM50.404 5.3c-.056-.18 1.251-.092 1.477-.143.342-.056 2.945.208 2.028.63-.706.319-1.741.67-2.421.06-.165-.147-1.077-.513-1.084-.546-.041-.115.046.178 0 0zm11.372 5.495c.869.91-.477 1.592-1.097 1.014-.296-.313-.118-1.033-.817-1.255.184-.057.372-.11.556-.185-.473-1.114 1.131.184 1.358.426.191.207-.067-.077 0 0zM18.294 36.767c-.375-.167 1.23-.15 1.453-.233-.325-.493-.035-.755-.651-.944.565-.687 2.429.108 3.017.374-.05.081-.16.01-.216.108.046.05 1.272 1.06.445.715-.902-.384-1.41.157-2.053.517-.5-.723-1.328-.218-1.995-.537-.078-.03.153.066 0 0zm-1.94-1.35c-.498.05.328-.392.257-.552-.344-.779-2.668-.95-2.882-1.583a.32.32 0 00.203-.21c-.796-.314-1.208.654-1.932.592 1.499-2.538 5.209.358 6.703 1.542-.781.09-1.562.096-2.349.211-.067.006.431-.055 0 0zm17.817-21.42c.054 0 .087 0 .131.036-.049 0-.25-.011-.131-.035.054 0-.031.006 0 0zm2.929.444c.051-.06.359-.19.169-.014-.064.123-.335.2-.169.014.017-.027-.034.04 0 0zm-1.381-1.859c-.143.106-1.964 1.824-1.921 1.99.042.158 1.892.04 2.207.223-.021.209-.271.107-.31.293.237 0 .982-.475 1.108-.33a.532.532 0 01-.065.343c.823.8.74-.948.783-1.045-.575-.076.129-.891-.847-.544.064-.024-1.048-.325-.984-.261-.089-.09.781-.856.852-.946-.517-.136-.58.09-.823.277-.312.233.066-.053 0 0zm27.36-.756c.231-.026-.291-.76-.429-.912.158.017.291.042.455-.062-.116-.335-1.619-1.191-1.718-1.136-.566.36-1.275-1.23-1.352-1.443.97-.133 1.569.905 2.441 1.328.745.361 3.429 1.64 3.504 2.445.064.413-2.032.244-2.339.713-.236-.59.524-.584.506-.768-.03-.143-.961-.178-1.068-.165-.056.008.322-.045 0 0zM36.048 2.037c-.276-.05-.574-.008-.862-.061.154-.127 1.014-.17.634-.407 1.189-.726 3.667-.877 5.027-.711 1.53.189 3.059-.28 4.562-.044.614.107 1.137.119 1.747.155.53.057-.076.6.53.7.353.037 1.064.841 1.391.665-.02.56-.268.173-.089.699.038.126.669.48.639.524-.057.074-1.765-.038-1.687-.02-.131-.018.032.26.142.222.338.08 1.073-.024 1.447.005-.862.775-2.15.688-3.105 1.31-.583.383-1.466.35-2.106.578 0 .663-.495 1.457-.935 2.14-.305.46-2.474-.622-2.7-.894-.474-.568-1.549-2.06-.382-2.531 1.43-.564.011-.098-.407-.406.341-.486.716-.32 1.255-.234-.279-.383-.619-.484-1.036-.286-.131-.408.598-.776-.042-1.21-.275-.19-1.779.034-1.823-.232-.093-.654 1.828-.306 2.169-.843-1.439-.308-2.973 1.097-4.369.882-.276-.051.248.038 0 0zM92.209 69.27c.024-.073.053-.138.071-.192.005.072-.043.121-.071.191zm-.856 2.12c.216-.528.381-1.075.639-1.576-.162.538-.396 1.053-.639 1.576zM61.78 99.737c.081.147-6.452 1.99-7.127 2.139a51.355 51.355 0 01-8.248 1.054c-5.279.268-10.793-.22-15.867-1.759.654.067 1.441.408 2.105.31-.635-.402-1.412-.262-1.973-.751 2.116.332 4.13.172 6.068.43-.201-.275-1.967-.697-1.959-.883.253-.02 1.613-.058 1.667-.1.643-.499-1.017-.44-.87-.803.047-.085.501.074.664-.148.249-.33 0-.502.093-.677.071-.149 2.631-.59 2.903-.478-.298.178-.651-.03-.521.475-.264-.032-1.053-.012-1.099.334.023-.088.869 1.09.898 1.153.292.454 1.323.742 1.404 1.296.174.93 5.033.832 5.761.756 1.821-.206 3.52-.86 5.308-1.173 1.061-.18 2.125-.483 3.204-.595.504-.047 2.176-.627 2.559-.49.249.859 4.125-.27 5.03-.09.006.014-.154-.026 0 0zm32.235-47.693c-.24.977-.005 1.288-.589 1.838-.003-.735-.273-2.125.478-2.567.098.248.184.442.111.729-.1.398.073-.287 0 0zm-.643 8.388c-.015.832-.13 3.075-.672 3.706.048-1.384.566-2.649.587-4.036.114.136.085.244.085.33 0 .1 0-.087 0 0zm-.8-2.87c-.016-.9-.038-1.965.155-2.834.042 1.527.112 3.07.065 4.6-.245-.315-.22-1.378-.22-1.766-.008-.328 0 .306 0 0zm-.556 2.51c-.013-.482.018-.519.508-.825-.1.35-.45.508-.508.825zm-.151 5.398c-.096.034-.207.082-.31.115-.185 0 .341-.263.371-.281-.033.099-.033.13-.061.166-.075.118.028-.037 0 0zm.974-13.288c-.014-.174-.016-.318.091-.45.086.175.005.299-.091.45zm.309-1.629c-.117-.281.039-.537.121-.87.117.35-.074.603-.121.87zm-2.507-18.316c-.216-.52-2.945-4.526-2.625-4.755.371-.226 6.208 10.132 5.58 11.73-.896-2.354-1.961-4.658-2.955-6.976-.011-.02.198.469 0 0zM94.51 42.44l.005.006c-.997-3.703-1.746-7.366-3.286-10.948a51.205 51.205 0 00-7.097-11.887 51.395 51.395 0 00-9.387-9.094 50.272 50.272 0 00-5.326-3.494 48.932 48.932 0 00-2.692-1.434c-.397-.186-1.797-.555-2.01-.897.018.158.814.56.925.671-.54-.141-1.983-.75-2.001-.845.032-.063.147 0 .132-.114-.804-.512-3.839-1.625-4.444-.804.131-.167 2.091 2.098 2.143 2.508.128.875 1.508 1.813 2.383 2.104 1.224.409.305-.143.821-.42.34-.17.644.554.955.39-.009-.008 0-.012.011-.024-.089-.167-.188-.335-.287-.505-.085 0 2.224 2.383 2.51 1.86-.272-.651-.679-1.38-1.339-1.982-.578-.548-1.49-.59-2.116-1.14-.318-.266-1.49-1.133-1.614-1.522 1.543.045 3.337 3.325 4.885 2.056a7.689 7.689 0 01-.624-.482c.287.09 1.579.5 1.146 1.048-1.237-.215 1.04 1.045 1.076 1.173-.224-.015-.377-.193-.586-.21.091.43 1.31.88 1.398 1.61-.734.11-.415-.45-.9.158-.15.19-.805.121-1.167.145-.849.077-1.798-1.367-2.416-1.806.261.798.708 1.187 1.598 1.752.437.243-.606.357-.59.722.025 0 .284.13.276.194 0 .043-.242-.165-.276-.194.085-.05-.155 1.418-.173 1.385.699.819-.93.588-.96.612.125.186.383.274.434.548-.471.026-.856-.053-1.314.12.667.194 4.352 1.896 3.543 3.177-.25.425-2.744-.098-3.207-.113-.968-.076-.069.92-.047 1.027.155.733.722 1.057.679 1.924-.05.6.573.617.761 1.13.171.44.075.477.535.55.819.098.837-.026 1.535.508.489.383.679-.36 1.266-.38 1.46-.056.217-.358.913-.553.866-.24-.238-1.593-.19-1.86.066-.358-.051-.755.424-.883.741-.195-.193-.973-.25-1.175-.141-.604 2.041.518 1.777-1.017 1.261.394 2.555 1.53 3.714 2.188.683.407 1.364.8 1.867 1.442.596.77-.854.465-.949.684-.088.24 1.28.867 1.498.854.029-.139-.169-.925-.188-1.062-.063-.546-.854-1.087-.794-1.52.244.024.472.119.673.273-.738-.907-1.932-.988-2.768-1.663-.5-.412-1.139-.747-1.631-1.168-.003-.006-.894-1.136-.271-.92.977.341 2.046 1.33 3.043 1.853.796.416.992.677 1.576 1.35.235.275 1.456 1.686 1.726 1.74-.008-.023 1 .884 1.401 1.021-.18-.41-.337-.93-.546-1.259-.276-.44-1.414-.692-1.414-1.361.26.02.289-.245.84-.226-.289-.014.363-.445.323-.377-1.068-.605-2.5-2.385-2.889-3.583.293.013.453.402.781.203a1.065 1.065 0 01-.113-.65c.082.104 1.092.957.891 1.131-.284-.007-.52-.133-.726-.35.148.51.651.522.855.87.027-.143-.066-.25.05-.405.876.366 2.679 1.76 2.914 2.752-.383.035-1.125-.79-1.384-.59a.644.644 0 00.041.597.78.78 0 00-.325.082.608.608 0 01.243.433 4 4 0 01-.436.134c.124.497 2.73 2.977 2.915 2.727.051-.094-.113-.34-.07-.376.134-.162.547.56.763.418.172-.116-.173-.342.018-.43.392-.203 1.95 2.85 2.145 3.213.751 1.42.256.555-.314.748-.086.152-.148.3-.161.462-.909-.207-1.904-.736-2.642-1.253-1.183-.855.375 2.305-.308 1.913-.4-.229-.633-.567-1.131-.603-.713-.08-.919-.845-1.579-1.063-.532-.18-2.656-.373-2.383-1.345.222-.84-.841-1.519-1.2-1.84-.18-.166-2.539.146-2.926.252-.642.207-1.674.431-2.034 1.032-.624 1.128-2.067-.358-2.644-.128-.304.127-.009 1.055-.172 1.345-.227.451-.806.48-.951 1.006-.256.96.476 1.75.145 2.637-.269.707-1.626 1.003-1.645 1.578-.011.317-.073.66-.359.825-.617.358.012 1.168-.369 1.573-2.09 2.13.67 4.21.2 6.537-.274 1.323-.423 1.597.145 2.738.13.29.031 2.344 1.071 1.506.131 1.209 1.671 1.448 1.945 2.581.332 1.35 1.654 1.939 2.682 2.756.418.312.764.74 1.24.977.85.43 1.416-.23 2.221-.453.732-.22 1.493-.137 2.182.191.394.185 3.34-1.909 4.137-1.514.586.297.617 1.01.886 1.526.387.71 1.196-.236 1.739.017.969.428 1.255 3.96.437 4.619-.617.445.785 2.367.972 2.762.555 1.092 1.057 2.992.884 4.21-.139.977.126 2.538-.43 3.392-.561.873-.883 1.79-1.332 2.77-1.162 2.523-.051 5.37-1.048 7.987-.61 1.335-.501 2.768-.826 4.161-.214.905-1.308 2.208-.883 3.145.652-.59 1.632-.517 2.372-.888 1.521-.748 2.246-2.495 3.349-3.663.591-.627.957-1.404 1.308-2.168.326-.724 1.004-1.184 1.317-1.897.77-1.796 1.475-3.576 2.252-5.374 1.628-3.874 1.899-7.591 2.467-11.734.595-4.407.609-8.568-.219-12.943zM29.323 93.588c-.193-.036-.176-.106.059-.222.162.064.148.147-.059.222-.079 0 .052-.017 0 0zm-1.845-.802c-.188-.115-.188-.178-.015-.21.212.077.214.158.015.21-.081-.013.059.011 0 0zm-1.402-14.3c-.265.096.286-.096 0 0-.067.02.036-.016 0 0zm-1.224 8.023c-.41-.064.223-.323 0 0-.101-.01.005-.01 0 0zm-2.375-42.553c-.253-.047.288.024 0 0-.022 0 .033.008 0 0zM7.955 39.157c-.131.042.37-.092 0 0-.022.006.066-.01 0 0zm-5.949-4.273c-.477-.017.368-.017 0 0-.06-.003.049-.003 0 0zm14.74-22.41c.097.242.03.372-.255.412.109-.17.189-.3.255-.412zm1.449 1.928c1.041-.338 1.419-.921 2.044-.13.235.299.193 1.066-.361.885.151.046-1.691-.13-1.353-.33-.364.239-1.081.393-1.517.2.399-.223.756-.479 1.187-.626.26-.076-.431.148 0 0zm-.821-1.914c.167-.132.556-.76.368-1.014.106.139-.726-.085-.348-.23.16-.046 1.1-.566 1.255-.409.272.277-1.179 1.807-1.472 1.925.026-.154.114-.215.197-.271.238-.18-.083.056 0 0zm.837-2.914c-.075.142-.139.209-.31.206.058-.149.171-.162.31-.206zm.336-1.23c.086 0 1.294-.77 1.331-.457.012.098-1.472.475-1.331.457zm1.629 4.672c-.004.038-.297.6-.477.38-.142-.158.428-.645.477-.38-.02.144-.015-.073 0 0zm-.157-6.065c.097-.05.844-.514.939-.4.238.3-1.2.662-1.274.675.088-.187.221-.214.335-.276.262-.15-.114.063 0 0zm1.291 8.634c.678.32.295 1.373-.289.548-.022.49-.865 1.308-1.322 1.413.176-.19.235-.402.179-.631-.15-.119-.43.21-.584.206.061.287 1.216-1.977.246-1.316-.348.266-2.672 2.732-2.81 2.604-.217-.23 1.028-2.04 1.12-2.113.799-.65 2.462-1.175 3.46-.71zm1.095-.154c-.083.077-.166.075-.236-.002.114-.05.221-.082.236.002.044.075-.015-.085 0 0zm-.099-10.046a5.061 5.061 0 011.678-.704c-.475.391-1.114.556-1.694.715l.016-.011zm.302 11.56c1.86.18-1.106.742-1.421.41.424-.366.913-.479 1.421-.41.152.013-.508-.069 0 0zm-1.796 1.112c.01-.008-2.243.892-2.068.343-.059.165.767-.642.595-.573.185-.072 1.692-.157 2.136-.154-.228.227-.448.3-.663.384-.5.189.215-.084 0 0zm7.484-12.78c.166.084.15.152-.043.228-.143-.077-.118-.144.043-.228.062 0-.074.009 0 0zm.26.3a.532.532 0 01.427-.154c.134.2-.875.315-.427.153.058-.112-.05.018 0 0zm5.787-.479c-.151.18-.383.069-.577.16.205-.395.245-.4.577-.16zm-1.032.688c-.091.006-.187.006-.33.006.458-.381.381-.006.33-.006-.091.006.066 0 0 0zm-6.379 5.042c-.262.293-.262.293-.621.228.187-.13.443-.072.621-.228zm.52 1.575c-1.427 1.35-.316.017-.735.443.015.018 0 .039-.019.04-.113-.135.727-.473.754-.482-.179.178-.245.054 0 0zm-.433 1.701c-.416-.026.433.027 0 0-.06 0 .058.014 0 0zm1.468-4.383c.095-.117.177-.1.232.053-.105.12-.185.104-.232-.053.011-.057-.011.067 0 0zm1.477 2.816c.234.053-.335-.049 0 0 .009.002-.062-.008 0 0zm2.69-1.898c.206-.03.372.024.481.172.003.079-1.09.139-1.257.413.138-.486.541-.399.776-.585.107.143-.235.186 0 0zm2.671.223c-.282.25-.584.306-.909.395.228-.344.569-.281.909-.394zm-3.346 83.701c.206.052.762-.14.92-.192-.377-.302-1.206-.334-1.687-.632.038.017-1.547-.942-1.212-.152.088.189.386.013.518.118-.188.28-.273.195-.06.326 0-.005-1.756-.965.008-1.022-1.222-1.099.08-.757-.312-1.452-.257-.469 1.038-.93.336-1.335-.333-.194-.7-.16-1.042-.395-.479-.35-.03-.966.429-.91.045 0 .277-1.107.362-1.283-.129-.05-1.036-1.172-.821-1.41.271-.287 1.449.732 1.741-.016.112-.276-.41-1.002-.37-1.296.539-.058 4.045.08 3.445-1.535-.206-.556-1.684-1.385-1.523-1.853.509.084 1.357.83 1.901.525.458-.227.817.269 1.288-.258.081-.105.859-.93.637-1.091-.241-.005-.368.136-.387.407-.28-.376.202-.633.453-.915.058.093.118.169.17.25.297-.448 1.919-2.556 1.971-2.6.826-.97.148-2.267.97-3.035.747-.698 1.565-1.165 2.503-1.539.286-.107 1.317-.653 1.526-.596 1.725.531 1.518-1.522 2.61-2.448 1.107-.931.288-5.692 1.194-6.05.492-.191 1.955-1.983 2.713-2.813.736-.787.829-1.812.543-2.815-.44-1.534-.87-.656-1.979-1.325-.892-.537-1.575-1.602-2.678-1.74-.649-.099-1.324.098-1.964-.093-.273-.078-1.012-.536-1.292-.156.054-.056-.588.248-.546.265-.071-.053-.013-.848-.222-1.045-.338-.325-1.485-.64-1.905-.748-.954-.24-1.186.89-1.433-.46-.786-.224-1.574-1.14-1.435-1.372.07-.088-1.233-2.835-1.412-2.584-.013-.922-2.867-2.066-3.594-1.62-.65.468-1.851-.432-2.252-.86-.452-.494-.441-1.006-1.2-1.325-.324-.144-.882-.064-.756-.62.132-.6-1.403-.708-1.55-1.282.216.038.4-.075.609-.127-.604.206-1.331-.224-1.919.25-.855.717-1.367-.323-2.306-.142-1.192.225-.389-.213-1.14-.67.31.19-1.392-.776-.996-.745-.356-.037.056.59-.337.728-.621.226-1.16.37-.751 1.117.678 1.357-1.431.721-.44-.205.178-.16.227-1.94.423-1.87-.245-.09-2.172 1.163-2.391 1.422-.62-.987-1.665 2.462-2.017 2.486-.174-.852-.976-1.199-1.678-1.444-.599-.23-1.203 1.192-1.978.41-1.389-1.398-.784-3.66-.076-5.27.296-.74-2.567-.968-2.912-.672-.705.569.106-1.172.104-1.125.079-.697.236-1.17.547-1.159.188-.416 1.25-2.318 1.14-2.559-.431-.994-2.235.785-2.405 1.226-.183.43-.53.68-.694 1.073-.17.394-.506-.093-.793.068-.775.434-1.89.207-1.718-.92.176-1.36-.342-4.055 1.182-4.99.467-.28.542-1.633 1.08-2.117.072-.053 1.614-.95 1.463-1.132.228.236 1.441-.242 1.594.064.119.267.835.535 1.083.386-.01.027.128-.596.128-.604-.019-.006-.499-.064-.477-.22.052-.21 1.505-.076 1.55-.072.69.059 1.195.628 1.709.28.788-.538.306 2.992.618 3.317.173.19.049.611.381.582.451-.046.598-4.587 1.763-5.527a17.902 17.902 0 012.73-1.816c.297-.148 1.076-.526 1.242-.826-.034-.148-.179-.326-.342-.168-.046-.274.423-.099.509-.396.087-.296-.245-.387-.204-.494-.017.035.291-.591.191-.5.013.015.013.044.018.06.469.068-.103-.435-.129-.521.617.321.358-.669.965-.727-.433.181-.351.665-.293.955.124.652.694-.886.624-.83.579-.232 1.476-.719 2.096-1.15-.147-.069-.299.049-.472-.078.634-.227 1.34-.145 1.945-.46-.03-.646.355-1.305 1.071-1.43 1.099-.18 2.384-.842 3.483-1.216-.167.377.09.082.384.225-.357-.926-2.303 1.718-1.377 1.177.78-.445 3.42-.855 3.771-1.616-.008-.05-.17-.543-.165-.543-.651 0-.705.797-1.502.793-1.455-.016-.581-.91-.882-1.31a.634.634 0 01-.653-.209c.147-.027 1.939-.451.994-.664-1.54-.33-2.562 1.39-3.823 1.338.941-.574 2.228-1.796 3.373-1.953 1.218-.17 2.914.426 3.992-.33.952-.654 1.608-.175 2.151-1.256.165-.287-.704-.658-.925-.704.098-.114.288 0 .358-.18-1.44-.65-1.74-1.284-1.913-2.949-.734.538-3.19 1.679-1.875-.18-.472-.202-1.966-1.452-2.536-.588-.265.386-.68 1.029-1.123 1.226-.975.45-.104.36-.434 1.02-.555 1.073-1.885.93-2.52 1.87-.396.59-.516 1.005-1.138 1.289-.541.234-.747-.412-.483-.91.191.212.367.244.521.082.048-.227-.287-.11-.389-.207a4.68 4.68 0 01.7-.92c-.094-.046-1.471-.265-1.426-.628.09-.75-.858-.342-1.026-.565.74-.93.74-1.369 2.189-2.091.49-.25 3.267-1.66 3.779-1.304-.062.308-.406.248-.591.412.397.096 1.561.226 1.951-.045-.082-.08-.551-.85-.309-1.03-.037.03.794.016.856-.006.447-.114.937-.165 1.193-.611.216-.41 1.684-.92 2.029-.722 1.917 1.087-2.595 2.238-2.643 2.111.093.317 1.307-.216 1.614.61.076.212 1.462.658 1.601.466.075-.103-.4-.6-.417-.728 1.456.708 1.372.341 1.129-.63-.226-.928.85.06.914.083.246.131 1.223-.432 1.37-.633-.354-.282-.97-.277-1.272-.609-.294-.28.755-.357.388-.655-.436-.361-1.138-.279-.888-.973a.85.85 0 00-.721.084c.066.136.209.032.265.11-.244.139-.515.172-.788.164.083-.124.337-.124.343-.361-.756-.099-1.151.361-1.804.562.185-.277.498-.357.721-.555a3.784 3.784 0 00-1.96.818c.08.079.162.164.221.272-.551.475-1.282.629-1.924.919.11-.428.574-.32.727-.646a1.454 1.454 0 00-.671.159c.271-.034 1.076-.849 1.262-1.052-1.166-.135-1.66 1.385-2.761 1.16.227-.265.695-.121.851-.54-.409.045-1.953 1.087-2.208.54-.012-.032 2.83-1.16 3.13-1.57-.19-.018-.411.177-.587-.048.141-.158.369-.169.533-.34-.93-.01-3.706 1.12-3.493 1.764-.358.296-.745.37-1.184.189.172-.265.777-.27.287-.658-.897.333-1.766.697-2.633 1.077a46.868 46.868 0 00-5.826 3.079c-3.069 1.896-5.609 4.143-8.143 6.69-1.35 1.364-6.482 7.36-6.463 8.604.013.922-.528 1.747-.872 2.572-.281.683-.311 1.631-.652 2.255-.745 1.327-.401 2.872-.742 4.398.423-.323 1.297-7.308 2.052-7.05.148.047-.469 2.91-.627 3.252-.638 1.47.198 3.268-.217 4.794-.046.153-.254.93-.26 1.085-.701.544.185 1.349.18 1.943 0 .353 1.799 1.938 2.15 2.145.756.449.908-.355 1.594-.206.623.134.801 1.258 1.131 1.73.441.669 2.128.589 2.416.904.191.232.035 1.521.801 1.701-.005-.08-.021-.542.083-.603.234-.148.729.715.565.877-.245.047-.463-.044-.645-.273 0 .121-.126 1.803.366 1.474.008-.1.034-.21.045-.314.645.282.597 1.224 1.053 1.361.624.16 1.095.959 1.574 1.18.419.212.304-1.48 1.103-1.555.65-.072 1.013 1.618 1.239 2.036.339.593-.454 2.013-.013 2.481.444.465-1.111 1.589-1.19 2.073-.054.367-.843.71-.816.854.06.389-.177.925-.314 1.305-.4 1.047-.2 1.147.483 1.625.015.014-1.271 2.574-.531 3.233 1.173.959 2.712 3.319 3.086 4.81.761 2.059 1.931 3.306 3.882 4.326 1.589.83 2.708 2.255 2.708 4.161.062 1.123-.106 2.536.369 3.585.334.736-.296 1.947.179 2.61.303.424-.096.651.086 1.04.185.413.613 1.105.608 1.578-.015.816-.002 1.77.053 2.565.013.275-.244.733-.099.907.184.218 1.263 2.891 1.263 3.67-.007.188.83-.062.077-.819.897-.493.717 1.61.782 1.626-.81-.266-.286-.05-.227.978.044.618-.155.32.342.442.789.177 0 .699.3 1.136.597.852 1.51 1.654 2.137 2.316 1.025 1.081 2.778.908 3.991 1.158.175.043-.229-.042 0 0z" fill="#D1D1D1" mask="url(#b)"/></g><path d="M85.648 25.069c-5.82 0-10.542 4.723-10.542 10.54 0 2.427.884 4.6 2.185 6.424l8.357 11.712 8.357-11.713c1.3-1.823 2.182-4.003 2.182-6.423 0-5.817-4.716-10.54-10.54-10.54" fill="#B5B5B5"/><path d="M91.467 35.609a5.816 5.816 0 01-5.82 5.82 5.82 5.82 0 110-11.64 5.82 5.82 0 015.82 5.82" fill="#EEE"/><path d="M46.929 28.655c-11.634 0-21.074 9.442-21.074 21.071 0 4.852 1.766 9.198 4.366 12.843l16.708 23.412 16.708-23.414c2.599-3.645 4.362-8.003 4.362-12.84 0-11.63-9.428-21.072-21.07-21.072" fill="#3476D5"/><path d="M59.464 49.727c0 6.931-5.606 12.537-12.535 12.537-6.919 0-12.538-5.606-12.538-12.538 0-6.917 5.62-12.535 12.538-12.535 6.93 0 12.535 5.617 12.535 12.535" fill="#1755A0"/><g transform="translate(4)"><mask id="d" fill="#fff"><use xlink:href="#c"/></mask><path d="M14.525 0C6.708 0 .364 6.345.364 14.159c0 3.26 1.187 6.18 2.934 8.63l11.227 15.732 11.228-15.733c1.746-2.45 2.93-5.378 2.93-8.63C28.683 6.346 22.348 0 14.525 0" fill="#B5B5B5" mask="url(#d)"/></g><path d="M26.582 14.16a8.053 8.053 0 01-8.058 8.06 8.06 8.06 0 118.058-8.06" fill="#EEE"/></g></svg>