<svg width="88" height="115" fill="none" xmlns="http://www.w3.org/2000/svg"><g clip-path="url(#clip0)"><path fill-rule="evenodd" clip-rule="evenodd" d="M81.105 114.58H6.785c-3.721 0-6.786-2.956-6.786-6.458V50.659c0-3.502 3.065-6.457 6.786-6.457h74.319c3.72 0 6.786 2.955 6.786 6.457v57.572c.109 3.503-2.956 6.349-6.787 6.349z" fill="#EAECF2"/><path d="M32.945.42h22.11c12.259 0 22.438 9.523 22.438 21.234v22.548H63.81V21.654c0-4.487-4.05-8.318-8.756-8.318h-22.11c-4.816 0-8.756 3.83-8.756 8.318v22.548h-13.68V21.654C10.508 9.943 20.578.42 32.945.42z" fill="#3476D5"/><path fill-rule="evenodd" clip-rule="evenodd" d="M71.801 105.386H16.089c-3.72 0-6.786-2.956-6.786-6.458V59.087c0-3.502 3.065-6.458 6.787-6.458H71.8c3.721 0 6.786 2.846 6.786 6.458v39.95c.11 3.503-2.955 6.349-6.786 6.349z" fill="#D4D7DF"/><path fill-rule="evenodd" clip-rule="evenodd" d="M51.552 74.192c0-3.94-3.393-7.224-7.661-7.224-4.16 0-7.662 3.174-7.662 7.224 0 2.955 1.86 5.472 4.487 6.567v10.398h6.349V80.759c2.626-1.204 4.487-3.722 4.487-6.567z" fill="#fff"/></g><defs><clipPath id="clip0"><path fill="#fff" d="M0 0h88v115H0z"/></clipPath></defs></svg>