<svg width="113" height="113" xmlns="http://www.w3.org/2000/svg"><g fill-rule="nonzero" fill="none"><g fill="#EBEBEB"><path d="M56.411 0a13.291 13.291 0 00-9.4 3.9L3.905 47.006a13.276 13.276 0 000 18.8L21.29 83.191l8.337-8.337L11 56.405l2.839-2.838 42.574-42.575 53.4 53.4.355.355.177-.355a14.34 14.34 0 002.661-7.983 13.29 13.29 0 00-3.9-9.4L65.822 3.725A13.914 13.914 0 0056.411 0z"/><path d="M37.785 83.375l-8.338 8.337 17.562 17.562A12.719 12.719 0 0056.234 113a13.292 13.292 0 009.4-3.9l35.834-35.833-8.338-8.338-37.075 37.076-18.27-18.63z"/></g><path d="M74.865 91.554l-36.7.008a4.455 4.455 0 01-4.683-4.186l-.023-68.542a4.454 4.454 0 014.68-4.188l36.7-.008a4.456 4.456 0 014.683 4.186l.023 68.542a4.455 4.455 0 01-4.68 4.188z" fill="#B5B5B5"/><path d="M75.446 21.872a.89.89 0 01.937.837l.019 56.591a.891.891 0 01-.936.838H37.813a.89.89 0 01-.936-.837l-.007-21.069-.012-35.517a.891.891 0 01.936-.838l37.652-.005z" fill="#3476D5"/><path fill="#898989" d="M52.09 17.591h8.82v1.411h-8.82z"/><circle fill="#898989" cx="56.5" cy="86.062" r="3.849"/><g transform="translate(68.808 71.619)"><circle fill="#38AE56" cx="11.937" cy="11.937" r="11.937"/><path d="M9.683 16.607l-4.388-4.388a.675.675 0 010-.955l.954-.955a.675.675 0 01.955 0l2.956 2.956 6.331-6.331a.675.675 0 01.955 0l.954.955a.676.676 0 010 .955l-7.763 7.764a.674.674 0 01-.954 0v-.001z" fill="#FFF"/></g></g></svg>