<svg width="92" height="120" xmlns="http://www.w3.org/2000/svg" xmlns:xlink="http://www.w3.org/1999/xlink"><defs><path id="a" d="M.473.64H64.33V89H.473z"/><path id="c" d="M0 120h120V0H0z"/></defs><g fill="none" fill-rule="evenodd"><path fill="#3476D5" d="M47.154 0l-4.376 8.867-9.785 1.422 7.08 6.902-1.67 9.746 8.751-4.602 8.753 4.602-1.672-9.746 7.08-6.902-9.784-1.422z"/><path fill="#BBD5EA" d="M86.41 22.785l5.192-5.062-7.176-1.043-3.209-6.503-3.21 6.503-7.177 1.043 5.192 5.062-1.224 7.148 6.42-3.375 6.418 3.375zM18.285 22.785l5.192-5.062-7.176-1.043-3.209-6.503-3.21 6.503-7.177 1.043 5.192 5.062-1.225 7.148 6.42-3.375 6.42 3.375z"/><g transform="translate(-14)"><g transform="translate(33 31)"><mask id="b" fill="#fff"><use xlink:href="#a"/></mask><path d="M56.718 62.495h.986a6.625 6.625 0 006.626-6.626 6.625 6.625 0 00-6.626-6.626h-1.606a6.626 6.626 0 100-13.252H33.811c-1.188 0-2.576-.28-3.166-1.31-2.837-4.96 3.44-11.527 5.35-15.027C43.899 5.174 34.493-.838 28.309.944c-.203 3.53-4.247 9.825-7.271 15.196C15.751 25.532.473 38.46.473 38.46v45.808h3.795c1.187 0 2.326.472 3.166 1.311l2.109 2.11A4.476 4.476 0 0012.709 89h40.222a6.627 6.627 0 100-13.253h3.787a6.626 6.626 0 100-13.252" fill="#D1D1D1" mask="url(#b)"/></g><mask id="d" fill="#fff"><use xlink:href="#c"/></mask><path fill="#B5B5B5" mask="url(#d)" d="M14.397 120h19.076V65.082H14.397z"/></g></g></svg>